<svg xmlns="http://www.w3.org/2000/svg" width="394" height="334" fill="none"><path fill="#3BC695" d="M188.646 60.521c.195.135.085.421-.118.46-.064.01-.123.018-.19.024a.22.22 0 0 1-.123.043c-1.81.075-3.908.306-4.702 2.21-.328.785-.466 1.632-.883 2.376-.362.65-.988 1.282-1.782 1.28-.553-.002-1.115-.444-1.049-1.04.041-.375.326-.569.548-.844.099-.123.254-.359.021-.426-.141-.04-.345.04-.485.07-.796.187-1.556.488-2.348.697-.507.133-1.144.106-1.356-.47-.242-.676.351-1.192.872-1.484.301-.174 1.061-.6.587-1.005-.26-.227-.667-.191-.982-.195-.643-.01-1.282-.224-1.456-.92-.18-.703.321-1.246.96-1.428.155-.042.409-.082.512-.227.121-.17-.011-.316-.117-.454-.163-.218-.338-.453-.329-.745.021-.594.684-.878 1.2-.739.654.176 1.182.774 1.658 1.223.519.495 1.037 1.023 1.669 1.371 1.284.715 2.717.276 4.047-.05 1.271-.314 2.701-.504 3.846.273m-4.267-14.632c.44.483.431 1.314.388 1.92-.049.695-.227 1.37-.409 2.045-.345 1.276-.774 2.774-.077 4.017.805 1.43 2.498 1.93 3.971 2.352.227.064.295.427.024.496-2.213.555-4.636-.356-5.937-2.236-.009-.016-.009-.027-.018-.043-.496.08-1.012.47-1.329.763-.532.501-1.069 1.08-1.81 1.256-.588.138-1.258-.053-1.602-.575a1.08 1.08 0 0 1-.167-.759c.037-.264.346-.757.141-.988-.152-.176-.518-.16-.726-.192-.241-.037-.491-.1-.678-.265-.437-.396-.278-1.07.089-1.452.389-.402 1.496-.73 1.293-1.45-.141-.493-.639-.828-.828-1.305-.228-.56.008-1.182.502-1.507.263-.177.583-.25.896-.241.323.01.604.181.917.202.438.033.483-.497.55-.82.067-.334.152-.66.349-.945.349-.503.996-.767 1.565-.459.339.184.56.585.925.708.334.113.504-.164.701-.38.349-.393.862-.587 1.27-.142"/><path fill="#FFBF75" d="M341.801 53.461c.887 3.07.881 6.235-.778 8.906-1.435 2.326-4.122 4.276-8.554 5.464-4.437 1.189-7.734.842-10.144-.447-2.774-1.489-4.362-4.228-5.128-7.33-1.429-5.79 3.971-12.013 2.693-17.456-1.278-5.444-5.147-5.998-5.147-5.998l-.738-2.754c1.751.353 4.596.341 9.124-.872 4.522-1.212 6.985-2.623 8.332-3.805l.737 2.753s-3.068 2.414-1.452 7.767c1.609 5.353 9.397 8.043 11.055 13.772m1.622 12.749 1.561 5.826s-1.345 3.48-9.847 5.758c-8.507 2.28-11.412-.061-11.412-.061l-1.563-5.833c1.73.417 5.561.924 11.236-.597 5.669-1.519 8.736-3.868 10.025-5.093"/><path fill="#FFBF75" d="m342.703 63.514.722 2.693c-1.29 1.226-4.356 3.575-10.026 5.094-5.675 1.52-9.506 1.013-11.236.597l-.72-2.687c.259.966 4.654 1.885 11.416.073 6.756-1.81 10.103-4.803 9.844-5.77"/><path fill="#FFBF75" d="m342.691 63.473.011.043c.259.966-3.087 3.96-9.844 5.77-6.762 1.811-11.157.892-11.415-.074l-.012-.042c-.14-.985.893-1.786.893-1.786 2.411 1.29 5.706 1.636 10.144.446 4.432-1.187 7.12-3.137 8.554-5.463l.008.004s1.296.178 1.661 1.102m-28.688-29.626c-2.113-.424-2.646-1.375-2.646-1.375-2.453-9.153 4.189-12.596 5.027-12.995l.336-.077c-.037.204-.018.419.017.597.086.488.838.616 2.927.056 2.083-.558 2.671-1.045 2.501-1.51a2 2 0 0 0-.283-.526l.241-.091s8.324-1.033 10.94 8.73c0 0 .014 1.09-1.605 2.514-1.346 1.182-3.809 2.593-8.332 3.805-4.528 1.213-7.372 1.225-9.123.872"/><path fill="#694D6F" d="M320.606 12.935c.315.621.753 2.135.753 2.135s-1.405.24-1.512.975c-.102.732.3 1.842 1.042 1.643.465-.125.779.057.994.329.127.16.218.355.283.525.17.466-.418.953-2.501 1.511-2.088.56-2.841.432-2.927-.056a1.7 1.7 0 0 1-.017-.597c.05-.343.238-.66.696-.782.743-.2.535-1.36.081-1.944s-1.79-.09-1.79-.09-.384-1.528-.416-2.225c-.037-.695 2.514-1.243 2.514-1.243s2.485-.802 2.8-.18Z"/><path fill="#E59047" d="M322.803 33.432a35 35 0 0 1-3.644.768c-2.1.325-5.198.603-7.839-.741a.5.5 0 0 1 .452-.89c1.814.924 4.112 1.129 7.234.645a33.4 33.4 0 0 0 9.037-2.75c1.616-.754 3.586-1.854 4.488-3.685a.5.5 0 0 1 .895.44c-1.039 2.111-3.197 3.326-4.96 4.15a34.5 34.5 0 0 1-5.663 2.063m-10.342-2.902a.497.497 0 0 1-.626-.434c-.304-3.168.829-6.429 3.034-8.722a.497.497 0 1 1 .719.69c-2.006 2.087-3.037 5.054-2.761 7.937a.5.5 0 0 1-.366.528Zm11.072 5.164a44.6 44.6 0 0 1-8.7 1.433.499.499 0 0 1-.063-.995 43.9 43.9 0 0 0 17.131-4.72.506.506 0 0 1 .672.216.5.5 0 0 1-.216.671 44.7 44.7 0 0 1-8.824 3.395m-2.68 29.558a.5.5 0 0 1-.527-.182c-2.16-2.863-2.994-6.666-2.228-10.17a.498.498 0 1 1 .974.213c-.703 3.224.063 6.723 2.051 9.357a.5.5 0 0 1-.27.782m11.745 3.061c-7.248 1.942-10.445-.43-10.577-.532a.5.5 0 0 1 .605-.793c.031.023 2.994 2.162 9.714.362 6.721-1.801 8.209-5.14 8.223-5.173a.5.5 0 0 1 .652-.267.497.497 0 0 1 .27.648c-.065.154-1.638 3.813-8.887 5.755"/><path fill="#E59047" d="M333.213 69.707c-8.725 2.338-11.953-.039-12.086-.141a.5.5 0 0 1 .605-.793c.048.035 3.075 2.154 11.223-.029 8.094-2.169 9.261-5.34 9.27-5.372a.5.5 0 0 1 .955.288c-.046.15-1.211 3.701-9.967 6.047"/><path fill="#E59047" d="M334.135 72.153c-8.725 2.338-11.952-.04-12.086-.142a.498.498 0 0 1 .605-.793c.048.035 3.075 2.155 11.223-.029 8.123-2.176 9.261-5.345 9.272-5.377a.5.5 0 0 1 .625-.322c.26.083.406.355.327.616-.046.15-1.21 3.7-9.966 6.047"/><path fill="#F0DFD3" d="m273.496 198.225 18.058 67.395a3.56 3.56 0 0 1-.535 2.984l-2.967 4.21a3.6 3.6 0 0 1-1.997 1.393l-15.477 4.147c-.808.217-1.67.14-2.427-.207l-4.681-2.161a3.58 3.58 0 0 1-1.948-2.319l-18.059-67.395a9.17 9.17 0 0 1 1.353-7.637l2.094-2.997a5.2 5.2 0 0 0 .801-4.195l-4.293-17.897 1.502-.403.848 3.163-.717.192.574 2.144.717-.192 1.353 5.051s1.532.552 5.616-.542l4.815 17.968 1.91-.511-4.835-18.044c2.533-.905 3.245-1.751 3.245-1.751l-1.353-5.051.709-.19-.574-2.144.87-.257 4.305 14.528a5.2 5.2 0 0 0 2.792 3.233l3.312 1.548a9.17 9.17 0 0 1 4.989 5.937"/><path fill="#E7B377" d="m272.158 200.477 16.331 60.948a6.59 6.59 0 0 1-3.777 7.768c-1.71.742-3.997 1.541-7.062 2.362l-1.117.3c-3.065.821-5.445 1.272-7.298 1.485a6.59 6.59 0 0 1-7.155-4.839l-16.33-60.948 13.204-3.539z"/><path fill="#F0DFD3" d="m258.097 172.978-.87.257-.71.19-.848-3.163 1.503-.403z"/><path fill="#694D6F" d="M255.201 182.372a24 24 0 0 1-1.89.588c-4.084 1.094-5.616.541-5.616.541l-1.353-5.05-.717.192-.575-2.144.717-.192-.847-3.163 5.375-1.441 5.375-1.44.848 3.163.709-.19.575 2.144-.71.19 1.353 5.051s-.711.846-3.244 1.751m-6.51-23.696 3.615 9.688-2.711.726-2.559.686-2.193-8.184-4.668-10.595s1.331-1.134 3.034-1.509z"/><path fill="#694D6F" d="m255.201 182.371 4.835 18.044-1.911.512-4.814-17.969a24 24 0 0 0 1.89-.587"/><path fill="#E59047" d="M259.771 206.442c-7.866 2.108-13.975 1.626-14.067 1.619a.51.51 0 0 1 .088-1.015c.133.01 13.537 1.057 26.09-6.998a.51.51 0 1 1 .55.857c-4.301 2.761-8.703 4.477-12.661 5.537m17.052 64.265c-4.468 1.197-8.135.874-10.901-.96-3.812-2.528-4.468-6.973-4.494-7.161a.509.509 0 0 1 1.009-.14c.006.042.629 4.191 4.058 6.458 2.51 1.659 5.896 1.936 10.064.819 4.175-1.119 6.998-3.062 8.39-5.777 1.894-3.697.448-7.622.434-7.66a.51.51 0 0 1 .952-.363c.067.177 1.624 4.369-.474 8.476-1.526 2.988-4.568 5.111-9.038 6.308"/><path fill="#F1CBB9" d="m258.517 170.308-16.041 4.298a1.987 1.987 0 0 1-2.426-1.4l-.155-.578a1.987 1.987 0 0 1 1.401-2.426l16.041-4.298a1.986 1.986 0 0 1 2.426 1.401l.155.577a1.987 1.987 0 0 1-1.401 2.426"/><path fill="#523D58" d="m256.649 173.919-10.751 2.88a.509.509 0 1 1-.264-.984l10.751-2.88a.509.509 0 1 1 .264.984m.574 2.144-10.751 2.881a.51.51 0 0 1-.264-.984l10.751-2.881a.51.51 0 0 1 .264.984m-3.78 7.39a.508.508 0 0 1-.282-.978l1.89-.587a.52.52 0 0 1 .637.335.51.51 0 0 1-.336.637l-1.89.587q-.009.004-.019.006"/><path fill="#E5BEA3" d="M257.3 199.788c-7.179 1.924-12.639 1.449-12.721 1.441a.51.51 0 0 1 .097-1.014c.119.012 12.056 1.039 23.745-6.372a.51.51 0 0 1 .544.86c-4.012 2.545-8.056 4.118-11.665 5.085"/><path fill="#F3816B" d="M133.884 78.192c4.146 2.741 7.46 15.696 11.681 23.365 4.218 7.673 14.007 19.506 14.007 19.506s-9.482 15.283-25.121 18.763c0 0-12.865-16.346-18.565-21.649-5.7-5.296-22.668-18.097-13.964-28.798 8.7-10.697 13.697-8.81 16.926-6.228 3.232 2.586 8.205 9.37 10.264 10.223 0 0-1.526-3.855-3.497-8.527-1.967-4.676 4.122-9.396 8.269-6.655"/><path fill="#DB564D" d="M165.715 121.877c1.518.007 3.589.116 4.652 1.365 1.275 1.502.393 3.632-1.243 4.42-1.479.719-3.242.685-4.781.18-1.649-.532-3.059-1.535-4.358-2.665q-.454.618-.908 1.206-.288.388-.585.745c-8.962 11.24-19.249 14.59-22.157 15.349a1.38 1.38 0 0 1-1.4-.447c-1.31-1.583-.485-2.206-.485-2.206 15.638-3.48 25.121-18.763 25.121-18.763.559.258.966.527 1.26.779.235.193.383.456.438.742a13.8 13.8 0 0 1 4.446-.705m3.332 2.849a.75.75 0 0 0-.212-.3c-.153-.133-.362-.225-.573-.299-1.147-.386-2.491-.377-3.685-.279-.87.073-1.732.256-2.564.517.906.717 1.893 1.34 2.995 1.669 1.054.315 2.341.425 3.342-.137.239-.137.467-.345.558-.506.106-.188.15-.314.15-.491 0-.068-.011-.174-.011-.174"/><mask id="a" width="61" height="63" x="99" y="77" maskUnits="userSpaceOnUse" style="mask-type:luminance"><path fill="#fff" d="M133.884 78.192c4.146 2.741 7.46 15.696 11.681 23.365 4.218 7.673 14.007 19.506 14.007 19.506s-9.482 15.283-25.121 18.763c0 0-12.865-16.346-18.565-21.649-5.7-5.296-22.668-18.097-13.964-28.798 8.7-10.697 13.697-8.81 16.926-6.228 3.232 2.586 8.205 9.37 10.264 10.223 0 0-1.526-3.855-3.497-8.527-1.967-4.676 4.122-9.396 8.269-6.655"/></mask><g mask="url(#a)"><path fill="#DB564D" d="M142.202 143.589a.42.42 0 0 1-.42-.128c-2.206-2.521-4.167-5.293-6.064-7.975-1.375-1.945-2.798-3.956-4.299-5.849-3.952-4.985-8.678-9.438-13.249-13.745a376 376 0 0 1-5.018-4.789c-5.708-5.585-12.012-12.447-15.481-20.984a.414.414 0 1 1 .767-.312c3.413 8.396 9.646 15.177 15.294 20.703a369 369 0 0 0 5.007 4.777c4.591 4.328 9.339 8.803 13.33 13.834 1.515 1.91 2.944 3.931 4.326 5.885 1.884 2.665 3.834 5.421 6.011 7.909a.414.414 0 0 1-.204.674"/></g><mask id="b" width="61" height="63" x="99" y="77" maskUnits="userSpaceOnUse" style="mask-type:luminance"><path fill="#fff" d="M133.884 78.192c4.146 2.741 7.46 15.696 11.681 23.365 4.218 7.673 14.007 19.506 14.007 19.506s-9.482 15.283-25.121 18.763c0 0-12.865-16.346-18.565-21.649-5.7-5.296-22.668-18.097-13.964-28.798 8.7-10.697 13.697-8.81 16.926-6.228 3.232 2.586 8.205 9.37 10.264 10.223 0 0-1.526-3.855-3.497-8.527-1.967-4.676 4.122-9.396 8.269-6.655"/></mask><g mask="url(#b)"><path fill="#DB564D" d="M149.203 138.236a.41.41 0 0 1-.421-.129l-31.906-37.023c-5.143-5.966-10.46-12.136-14.008-19.374a.414.414 0 1 1 .744-.365c3.501 7.142 8.783 13.271 13.891 19.198l31.906 37.021a.415.415 0 0 1-.206.672"/></g><mask id="c" width="61" height="63" x="99" y="77" maskUnits="userSpaceOnUse" style="mask-type:luminance"><path fill="#fff" d="M133.884 78.192c4.146 2.741 7.46 15.696 11.681 23.365 4.218 7.673 14.007 19.506 14.007 19.506s-9.482 15.283-25.121 18.763c0 0-12.865-16.346-18.565-21.649-5.7-5.296-22.668-18.097-13.964-28.798 8.7-10.697 13.697-8.81 16.926-6.228 3.232 2.586 8.205 9.37 10.264 10.223 0 0-1.526-3.855-3.497-8.527-1.967-4.676 4.122-9.396 8.269-6.655"/></mask><g mask="url(#c)"><path fill="#DB564D" d="M154.537 135.462a.414.414 0 0 1-.46-.185 251.8 251.8 0 0 0-31.149-40.871l-1.159-1.231c-4.314-4.57-8.774-9.294-11.159-15.174a.414.414 0 1 1 .768-.311c2.327 5.735 6.733 10.402 10.994 14.916l1.161 1.233a252.6 252.6 0 0 1 31.251 41.006.416.416 0 0 1-.247.617"/></g><mask id="d" width="61" height="63" x="99" y="77" maskUnits="userSpaceOnUse" style="mask-type:luminance"><path fill="#fff" d="M133.884 78.192c4.146 2.741 7.46 15.696 11.681 23.365 4.218 7.673 14.007 19.506 14.007 19.506s-9.482 15.283-25.121 18.763c0 0-12.865-16.346-18.565-21.649-5.7-5.296-22.668-18.097-13.964-28.798 8.7-10.697 13.697-8.81 16.926-6.228 3.232 2.586 8.205 9.37 10.264 10.223 0 0-1.526-3.855-3.497-8.527-1.967-4.676 4.122-9.396 8.269-6.655"/></mask><g mask="url(#d)"><path fill="#DB564D" d="M161.735 130.841a.41.41 0 0 1-.347-.062c-5.605-3.955-9.466-9.796-13.2-15.446-1.478-2.236-3.005-4.547-4.617-6.703-1.067-1.428-2.212-2.84-3.319-4.205-.702-.866-1.405-1.731-2.093-2.608a110.3 110.3 0 0 1-13.875-22.918.414.414 0 1 1 .756-.34 109.5 109.5 0 0 0 13.77 22.746c.686.873 1.386 1.736 2.085 2.598 1.112 1.372 2.263 2.79 3.34 4.231 1.626 2.175 3.16 4.497 4.644 6.743 3.692 5.584 7.509 11.36 12.987 15.225a.416.416 0 0 1-.131.739"/></g><mask id="e" width="61" height="63" x="99" y="77" maskUnits="userSpaceOnUse" style="mask-type:luminance"><path fill="#fff" d="M133.884 78.192c4.146 2.741 7.46 15.696 11.681 23.365 4.218 7.673 14.007 19.506 14.007 19.506s-9.482 15.283-25.121 18.763c0 0-12.865-16.346-18.565-21.649-5.7-5.296-22.668-18.097-13.964-28.798 8.7-10.697 13.697-8.81 16.926-6.228 3.232 2.586 8.205 9.37 10.264 10.223 0 0-1.526-3.855-3.497-8.527-1.967-4.676 4.122-9.396 8.269-6.655"/></mask><g mask="url(#e)"><path fill="#DB564D" d="M123.781 137.177a.414.414 0 0 1-.504-.52c.708-2.34 2.957-3.664 5.199-4.818l13.25-6.828c3.2-1.649 6.509-3.354 9.538-5.394 2.313-1.558 5.489-4.036 6.366-7.562a.416.416 0 0 1 .805.201c-.945 3.802-4.281 6.414-6.707 8.049-3.069 2.068-6.401 3.784-9.621 5.444l-13.251 6.827c-2.084 1.074-4.17 2.292-4.785 4.322a.42.42 0 0 1-.29.279"/></g><mask id="f" width="61" height="63" x="99" y="77" maskUnits="userSpaceOnUse" style="mask-type:luminance"><path fill="#fff" d="M133.884 78.192c4.146 2.741 7.46 15.696 11.681 23.365 4.218 7.673 14.007 19.506 14.007 19.506s-9.482 15.283-25.121 18.763c0 0-12.865-16.346-18.565-21.649-5.7-5.296-22.668-18.097-13.964-28.798 8.7-10.697 13.697-8.81 16.926-6.228 3.232 2.586 8.205 9.37 10.264 10.223 0 0-1.526-3.855-3.497-8.527-1.967-4.676 4.122-9.396 8.269-6.655"/></mask><g mask="url(#f)"><path fill="#DB564D" d="M116.642 124.96a.414.414 0 0 1-.41-.685 58.5 58.5 0 0 1 16.483-12.247c1.812-.905 3.713-1.737 5.551-2.542 4.84-2.12 9.846-4.311 13.614-8.016a.413.413 0 1 1 .581.59c-3.877 3.813-8.953 6.036-13.863 8.185-1.828.801-3.719 1.629-5.513 2.524a57.7 57.7 0 0 0-16.25 12.074.4.4 0 0 1-.193.117"/></g><mask id="g" width="61" height="63" x="99" y="77" maskUnits="userSpaceOnUse" style="mask-type:luminance"><path fill="#fff" d="M133.884 78.192c4.146 2.741 7.46 15.696 11.681 23.365 4.218 7.673 14.007 19.506 14.007 19.506s-9.482 15.283-25.121 18.763c0 0-12.865-16.346-18.565-21.649-5.7-5.296-22.668-18.097-13.964-28.798 8.7-10.697 13.697-8.81 16.926-6.228 3.232 2.586 8.205 9.37 10.264 10.223 0 0-1.526-3.855-3.497-8.527-1.967-4.676 4.122-9.396 8.269-6.655"/></mask><g mask="url(#g)"><path fill="#DB564D" d="M110.527 121.893a.414.414 0 0 1-.447-.64c2.337-3.332 4.753-6.778 7.795-9.631 2.015-1.888 4.298-3.506 6.507-5.071l.93-.66a214 214 0 0 0 8.547-6.421c4.241-3.357 8.992-7.382 11.686-12.676a.415.415 0 0 1 .739.376c-2.771 5.443-7.601 9.538-11.911 12.95a213 213 0 0 1-8.581 6.446l-.931.662c-2.186 1.549-4.445 3.149-6.419 4.999-2.979 2.794-5.371 6.205-7.684 9.503a.4.4 0 0 1-.231.163"/></g><mask id="h" width="61" height="63" x="99" y="77" maskUnits="userSpaceOnUse" style="mask-type:luminance"><path fill="#fff" d="M133.884 78.192c4.146 2.741 7.46 15.696 11.681 23.365 4.218 7.673 14.007 19.506 14.007 19.506s-9.482 15.283-25.121 18.763c0 0-12.865-16.346-18.565-21.649-5.7-5.296-22.668-18.097-13.964-28.798 8.7-10.697 13.697-8.81 16.926-6.228 3.232 2.586 8.205 9.37 10.264 10.223 0 0-1.526-3.855-3.497-8.527-1.967-4.676 4.122-9.396 8.269-6.655"/></mask><g mask="url(#h)"><path fill="#DB564D" d="M98.01 106.969a.414.414 0 0 1-.41-.685c4.178-4.414 8.498-8.978 14.004-11.923 3.192-1.707 6.693-2.8 10.078-3.859 1.913-.598 3.892-1.216 5.787-1.937 6.008-2.286 11.379-5.718 15.534-9.924a.414.414 0 1 1 .59.583c-4.237 4.29-9.711 7.788-15.829 10.117-1.918.73-3.909 1.351-5.834 1.953-3.349 1.046-6.811 2.129-9.934 3.799-5.387 2.88-9.66 7.395-13.792 11.761a.4.4 0 0 1-.195.115Z"/></g><path fill="#FAEADE" d="m252.516 88.835-1.34 2.224-32.437 8.691-2.272-1.256-6.552-34.866-2.725-14.488 1.621-.435-1.065-11.108s-.204-2.367 2.139-2.995l.448 1.669s-1.125.315-.969 1.671c.16 1.355 1.301 10.266 1.301 10.266l21.736-5.824s-3.471-8.287-4.01-9.54-1.674-.963-1.674-.963l-.448-1.67c2.349-.629 3.35 1.525 3.35 1.525l4.633 10.152 1.621-.434 5.075 14.448z"/><path fill="#5B3C62" d="M254.085 90.652 252.406 93l-16.877 4.522-16.882 4.523-2.628-1.193c-.434-1.617.449-2.359.449-2.359l2.272 1.257 16.221-4.347 16.216-4.345 1.34-2.224s1.135.201 1.568 1.818"/><path fill="#E9BEAD" d="m244.89 73.397.477 1.78c.443 1.652-.049 3.214-1.094 3.494-1.048.281-2.252-.827-2.695-2.48l-.459-1.713c.087.307.195.585.331.846.566 1.128 1.505 1.793 2.346 1.567.837-.224 1.322-1.27 1.249-2.53a4.8 4.8 0 0 0-.155-.964"/><path fill="#5B3C62" d="M244.891 73.398q.13.495.154.964c.074 1.26-.411 2.306-1.248 2.53-.842.226-1.78-.439-2.347-1.567a4.4 4.4 0 0 1-.33-.846l-.018-.066c-.443-1.652.285-2.32 1.333-2.6 1.044-.28 2.013-.067 2.456 1.585"/><path fill="#E9BEAD" d="m239.906 56.59.477 1.78c.443 1.652-.05 3.215-1.094 3.495-1.048.28-2.252-.827-2.695-2.48l-.459-1.713c.087.307.194.585.331.846.565 1.123 1.504 1.792 2.346 1.567.837-.225 1.316-1.274 1.249-2.53a5 5 0 0 0-.155-.965"/><path fill="#5B3C62" d="M239.905 56.593c.088.326.138.653.155.964.068 1.257-.412 2.306-1.249 2.53-.841.226-1.78-.443-2.346-1.566a4.4 4.4 0 0 1-.331-.846l-.017-.067c-.443-1.652.284-2.323 1.332-2.604 1.044-.28 2.014-.063 2.456 1.59Z"/><path fill="#E9BEAD" d="m242.836 82.293.477 1.78c.444 1.657-.05 3.215-1.094 3.495-1.049.28-2.251-.823-2.695-2.48l-.459-1.713q.129.461.33.846c.567 1.128 1.506 1.797 2.348 1.571.837-.224 1.316-1.273 1.247-2.534a4.7 4.7 0 0 0-.154-.965"/><path fill="#5B3C62" d="M242.834 82.294c.089.33.138.657.155.965.068 1.26-.411 2.31-1.248 2.534-.841.226-1.781-.443-2.348-1.571a4.4 4.4 0 0 1-.33-.846l-.018-.067c-.441-1.647.285-2.32 1.334-2.6 1.044-.28 2.013-.063 2.455 1.585"/><path fill="#E9BEAD" d="m237.851 65.485.477 1.78c.443 1.651-.049 3.214-1.094 3.494-1.048.281-2.252-.827-2.695-2.48l-.459-1.713c.087.307.195.585.331.846.562 1.129 1.505 1.792 2.346 1.567.837-.225 1.318-1.27 1.249-2.53a4.7 4.7 0 0 0-.155-.964m-4.611-17.207.477 1.78c.443 1.651-.05 3.214-1.094 3.494-1.048.281-2.252-.827-2.695-2.48l-.459-1.713c.087.307.195.586.331.846.56 1.125 1.504 1.793 2.346 1.567.837-.224 1.316-1.273 1.249-2.53a4.8 4.8 0 0 0-.155-.964"/><path fill="#5B3C62" d="M233.239 48.279q.132.495.155.964c.068 1.257-.412 2.306-1.249 2.53-.841.226-1.785-.442-2.346-1.567a4.4 4.4 0 0 1-.331-.846l-.018-.066c-.442-1.652.285-2.324 1.333-2.604 1.044-.28 2.014-.064 2.456 1.589m4.613 17.208q.13.496.154.965c.069 1.261-.412 2.306-1.249 2.53-.841.226-1.783-.438-2.346-1.567a4.5 4.5 0 0 1-.331-.846l-.017-.066c-.442-1.648.285-2.32 1.333-2.6 1.045-.28 2.014-.063 2.456 1.584m-11.136-33.605.219.819s-1.914 2.104-7.791 3.68c-5.882 1.575-8.593.71-8.593.71l-.219-.82-.447-1.669-.165-.612s1.123-2.737 7.586-4.469c6.458-1.73 8.798.079 8.798.079l.165.612z"/><path fill="#E9BEAD" d="m236.558 75.432.477 1.78c.443 1.652-.049 3.215-1.094 3.494-1.048.281-2.252-.827-2.695-2.479l-.459-1.714c.087.307.195.585.331.847.565 1.123 1.505 1.792 2.346 1.567.837-.225 1.317-1.274 1.249-2.53a4.8 4.8 0 0 0-.155-.965"/><path fill="#5B3C62" d="M236.56 75.431q.13.496.154.964c.068 1.257-.411 2.306-1.248 2.53-.842.226-1.781-.443-2.347-1.566a4.4 4.4 0 0 1-.33-.846l-.018-.067c-.443-1.652.284-2.323 1.332-2.604 1.044-.28 2.014-.063 2.457 1.589"/><path fill="#E9BEAD" d="m231.574 58.625.477 1.78c.443 1.652-.05 3.215-1.094 3.495-1.053.282-2.252-.828-2.695-2.48l-.459-1.713c.087.307.194.585.331.846.561 1.124 1.504 1.792 2.346 1.567.832-.223 1.316-1.274 1.249-2.53a5 5 0 0 0-.155-.965"/><path fill="#5B3C62" d="M231.573 58.626c.088.326.138.653.155.965.068 1.256-.416 2.307-1.249 2.53-.841.225-1.785-.443-2.346-1.567a4.4 4.4 0 0 1-.331-.846l-.018-.066c-.442-1.652.28-2.323 1.333-2.605 1.044-.28 2.014-.063 2.456 1.59Z"/><path fill="#E9BEAD" d="m234.603 84.698.477 1.78c.444 1.656-.049 3.214-1.094 3.494-1.048.281-2.251-.823-2.695-2.48l-.459-1.713q.13.461.331.846c.566 1.128 1.506 1.797 2.347 1.572.837-.225 1.317-1.274 1.248-2.535a4.7 4.7 0 0 0-.155-.965Z"/><path fill="#5B3C62" d="M234.604 84.697c.088.33.138.657.154.964.069 1.261-.41 2.31-1.247 2.535-.842.225-1.782-.444-2.348-1.572a4.4 4.4 0 0 1-.331-.846l-.017-.066c-.442-1.648.285-2.32 1.333-2.6 1.044-.28 2.014-.063 2.456 1.585"/><path fill="#E9BEAD" d="m229.619 67.89.477 1.78c.442 1.653-.05 3.216-1.094 3.495-1.053.282-2.252-.827-2.695-2.479l-.459-1.714q.129.461.33.847c.562 1.129 1.505 1.792 2.347 1.566.832-.223 1.317-1.269 1.244-2.529a4.5 4.5 0 0 0-.15-.965Zm-4.611-17.208.477 1.78c.442 1.652-.05 3.215-1.095 3.494-1.052.283-2.252-.827-2.694-2.479l-.459-1.714c.087.308.194.586.33.847.561 1.124 1.505 1.792 2.347 1.566.832-.223 1.316-1.273 1.244-2.529a4.5 4.5 0 0 0-.15-.965"/><path fill="#5B3C62" d="M225.007 50.681q.131.496.15.966c.072 1.255-.412 2.306-1.244 2.529-.842.225-1.785-.443-2.347-1.567a4.4 4.4 0 0 1-.33-.846l-.018-.067c-.443-1.652.28-2.322 1.333-2.604 1.044-.28 2.013-.063 2.456 1.589m4.612 17.207q.132.496.15.966c.074 1.26-.411 2.305-1.244 2.529-.841.225-1.784-.438-2.346-1.567a4.4 4.4 0 0 1-.331-.847l-.018-.066c-.441-1.648.281-2.318 1.334-2.6 1.044-.28 2.014-.062 2.455 1.585"/><path fill="#E9BEAD" d="m228.226 77.467.477 1.78c.443 1.652-.049 3.215-1.094 3.495-1.048.28-2.252-.828-2.695-2.48l-.459-1.713c.087.307.195.585.331.846.565 1.123 1.505 1.792 2.346 1.567.837-.225 1.317-1.274 1.249-2.53a4.7 4.7 0 0 0-.155-.965"/><path fill="#5B3C62" d="M228.228 77.466q.13.496.154.965c.068 1.256-.411 2.306-1.248 2.53-.842.225-1.781-.444-2.347-1.567a4.4 4.4 0 0 1-.33-.846l-.018-.067c-.443-1.651.284-2.323 1.332-2.604 1.045-.28 2.014-.063 2.457 1.59Z"/><path fill="#E9BEAD" d="m223.243 60.661.475 1.776c.444 1.656-.048 3.219-1.097 3.5s-2.252-.828-2.696-2.484l-.458-1.71q.13.455.335.846c.561 1.124 1.505 1.792 2.342 1.568s1.321-1.275 1.249-2.53a5 5 0 0 0-.15-.966"/><path fill="#5B3C62" d="M223.242 60.66c.087.326.133.654.15.966.072 1.255-.412 2.306-1.249 2.53s-1.78-.444-2.342-1.568a4.5 4.5 0 0 1-.335-.845l-.017-.066c-.443-1.652.284-2.324 1.332-2.605 1.049-.28 2.018-.064 2.461 1.588"/><path fill="#E9BEAD" d="m226.271 86.733.477 1.78c.444 1.656-.049 3.214-1.094 3.494-1.048.281-2.251-.823-2.695-2.48l-.459-1.713q.13.461.331.846c.562 1.13 1.506 1.797 2.347 1.572.837-.224 1.317-1.274 1.248-2.535a4.7 4.7 0 0 0-.155-.964"/><path fill="#5B3C62" d="M226.271 86.73c.089.33.139.657.155.964.069 1.261-.41 2.31-1.247 2.535-.842.225-1.786-.443-2.348-1.572a4.4 4.4 0 0 1-.331-.846l-.017-.066c-.442-1.648.285-2.32 1.333-2.6 1.044-.28 2.014-.063 2.455 1.585"/><path fill="#E9BEAD" d="m221.281 69.926.477 1.78c.443 1.652-.046 3.214-1.094 3.495-1.048.28-2.252-.827-2.695-2.48l-.459-1.714c.087.307.194.586.335.845.562 1.129 1.505 1.792 2.342 1.568s1.321-1.27 1.248-2.53a4.7 4.7 0 0 0-.154-.964m-4.609-17.209.477 1.78c.442 1.652-.046 3.214-1.094 3.495-1.049.28-2.253-.828-2.695-2.48l-.459-1.714c.087.308.194.586.335.846.561 1.124 1.505 1.792 2.342 1.568.837-.225 1.32-1.275 1.248-2.53a4.7 4.7 0 0 0-.154-.965"/><path fill="#5B3C62" d="M216.671 52.72c.089.33.137.653.155.965.072 1.255-.412 2.305-1.249 2.53s-1.781-.444-2.342-1.569a4 4 0 0 1-.335-.844l-.018-.067c-.442-1.652.284-2.323 1.333-2.604s2.013-.063 2.456 1.59Zm4.612 17.207c.089.33.137.653.155.964.073 1.26-.412 2.306-1.249 2.53-.837.225-1.78-.438-2.342-1.568a4 4 0 0 1-.335-.844l-.018-.067c-.441-1.648.286-2.32 1.334-2.6s2.014-.063 2.455 1.585"/><path fill="#E9BEAD" d="m219.894 79.5.477 1.78c.443 1.652-.049 3.215-1.094 3.495-1.053.282-2.252-.828-2.695-2.48l-.459-1.713c.087.307.195.585.331.846.561 1.124 1.505 1.792 2.346 1.567.833-.223 1.317-1.274 1.249-2.53a4.7 4.7 0 0 0-.155-.965"/><path fill="#5B3C62" d="M219.896 79.501q.13.496.154.965c.068 1.257-.416 2.307-1.248 2.53-.842.225-1.786-.442-2.347-1.567a4.4 4.4 0 0 1-.33-.846l-.018-.067c-.443-1.651.279-2.322 1.332-2.604 1.045-.28 2.014-.063 2.457 1.59Z"/><path fill="#E9BEAD" d="m214.906 62.697.476 1.776c.444 1.656-.045 3.218-1.093 3.5-1.048.28-2.252-.828-2.696-2.485l-.458-1.709q.127.454.331.846c.565 1.124 1.504 1.793 2.346 1.567.837-.224 1.32-1.274 1.249-2.53a5 5 0 0 0-.155-.965"/><path fill="#5B3C62" d="M214.905 62.697c.088.325.138.652.155.964.072 1.256-.412 2.306-1.249 2.53-.841.226-1.78-.443-2.346-1.567a4.5 4.5 0 0 1-.331-.846l-.017-.066c-.443-1.652.284-2.324 1.332-2.605s2.014-.063 2.456 1.59"/><path fill="#E5BEA3" d="m235.994 41.861-28.617 7.668a.39.39 0 1 1-.202-.753l28.617-7.668a.39.39 0 0 1 .202.753m-18.908 52.756a.39.39 0 0 1-.487-.314l-3.877-23.91a.39.39 0 0 1 .769-.124l3.878 23.91a.39.39 0 0 1-.283.438"/><path fill="#80564A" d="m167.827 218.667 51.312-13.749c3.724-.998 7.579 1.286 8.604 5.112l5.714 21.328 5.715 21.327c1.023 3.818-1.173 7.724-4.897 8.722l-51.312 13.749c-3.724.998-7.571-1.289-8.594-5.107l-1.81-6.755s-1.328-7.295-6.291-7.794c-4.971-.498-16.425 4.401-22.447 6.014-6.03 1.616-7.128-4.229-7.128-4.229s-1.974-5.617 4.056-7.233c6.023-1.614 18.394-3.091 22.447-6.015 4.049-2.914 1.551-9.895 1.551-9.895l-1.808-6.748c-1.025-3.825 1.164-7.729 4.888-8.727m-25.592 34.111c-2.158.578-3.563 2.303-3.144 3.865.416 1.555 2.496 2.346 4.653 1.768 2.151-.576 3.556-2.302 3.14-3.856-.42-1.562-2.498-2.354-4.649-1.777"/><path fill="#210F0B" d="M237.736 255.513a.41.41 0 0 1-.5-.289l-12.041-44.935a.408.408 0 0 1 .789-.212l12.04 44.936a.41.41 0 0 1-.288.5m-62.926 15.898a.407.407 0 0 1-.511-.44c.011-.1 1.086-10.083-1.635-14.485-2.171-3.512-12.506-.208-16.303 1.363a.41.41 0 0 1-.312-.755c.584-.24 14.334-5.851 17.309-1.037 2.869 4.642 1.798 14.584 1.751 15.006a.41.41 0 0 1-.299.348m-15.261-24.873a52 52 0 0 1-6.001 1.221.408.408 0 1 1-.107-.81c4.075-.54 14.677-2.847 14.8-6.972.156-5.172-5.767-13.28-5.827-13.361a.409.409 0 0 1 .657-.484c.252.341 6.151 8.415 5.986 13.87-.1 3.312-5.184 5.377-9.508 6.536"/><path fill="#E5483C" d="M204.144 238.561a9.15 9.15 0 0 0-17.043-6.655 9.149 9.149 0 0 0 17.043 6.655m13.459 14.043a9.149 9.149 0 1 0-17.045-6.654 9.149 9.149 0 0 0 17.045 6.654"/><path fill="#67A086" d="M199.024 236.129c-.288.322-.737.338-1.128.232-.27-.074-.753-.373-1.038-.226-.245.133.185.835.23 1.055.137.749-.334 1.624-1.195 1.488a.86.86 0 0 1-.712-.656c-.109-.399.057-.772.089-1.168.017-.168.018-.416-.197-.432-.202-.023-.419.17-.577.267-.338.202-.738.352-1.124.172a.715.715 0 0 1-.401-.857c.125-.432.564-.616.965-.692.133-.022.522-.051.579-.22.05-.162-.241-.297-.35-.368-.402-.273-.824-.553-1.179-.881-.267-.255-.463-.607-.35-.978.087-.331.391-.552.711-.626.7-.182 1.187.324 1.515.88-.025-.549.13-1.102.565-1.481.467-.399 1.176-.508 1.701-.137.51.365.673 1.052.551 1.645-.103.519-.422.941-.79 1.325.376.005.77-.077 1.126-.044.437.044.843.223 1.073.607.189.338.205.794-.064 1.095m11.971 13.506c.398.42.938.59 1.218 1.148.252.498.192 1.129-.229 1.52-.454.419-1.121.3-1.545-.094-.246-.23-.394-.542-.514-.848-.05-.126-.086-.266-.143-.399-.021-.054-.064-.174-.125-.206-.068-.032-.04-.019-.072.089-.169.553-.323 1.194-.88 1.494-.405.216-.976.175-1.298-.174-.406-.44-.15-1.023.218-1.38.197-.192.489-.359.563-.642.088-.318-.472-.124-.632-.101-.662.102-1.387.077-1.887-.422-.405-.401-.539-1.028-.2-1.512.312-.442.891-.643 1.416-.573.558.075 1.022.407 1.445.761-.018-.228-.178-.486-.282-.652-.181-.305-.362-.623-.383-.984-.047-.637.486-1.097 1.104-1.07.638.027 1.085.52 1.178 1.128.054.335 0 .664-.113.982-.045.122-.207.393.026.302.14-.057.203-.239.267-.368.257-.542.623-.993 1.273-1.02.55-.025 1.04.32 1.185.86a1.1 1.1 0 0 1-.576 1.293c-.319.162-1.529.329-1.014.868"/><path fill="#D67967" d="M201.823 251.805a.41.41 0 0 1-.507-.319 8.28 8.28 0 0 1 1.698-6.699 8.3 8.3 0 0 1 6.222-3.008.408.408 0 1 1 .012.816 7.45 7.45 0 0 0-5.601 2.708 7.45 7.45 0 0 0-1.529 6.031.41.41 0 0 1-.295.471m-13.675-13.339a.41.41 0 0 1-.496-.278 8.35 8.35 0 0 1 .503-6.023 8.36 8.36 0 0 1 4.469-4.071.41.41 0 0 1 .527.236.407.407 0 0 1-.236.526 7.52 7.52 0 0 0-4.027 3.669 7.53 7.53 0 0 0-.454 5.429.41.41 0 0 1-.274.509z"/><path fill="#E5483C" d="M224.044 235.952a9.15 9.15 0 1 0-15.617-9.528 9.15 9.15 0 0 0 15.617 9.528"/><path fill="#67A086" d="M218.141 231.537c.398.42.938.59 1.218 1.148.253.498.192 1.129-.229 1.521-.453.419-1.12.299-1.545-.095-.246-.23-.394-.542-.514-.848-.05-.126-.086-.266-.143-.399-.021-.054-.063-.174-.124-.206-.068-.032-.041-.019-.072.089-.17.553-.324 1.194-.881 1.495-.404.216-.975.175-1.298-.174-.405-.441-.149-1.024.219-1.38.197-.192.489-.359.563-.643.087-.317-.472-.124-.632-.1-.662.101-1.387.077-1.888-.422-.404-.401-.538-1.029-.2-1.512.313-.443.892-.643 1.417-.573.558.075 1.021.407 1.445.76-.018-.228-.178-.486-.282-.651-.181-.305-.362-.623-.383-.985-.047-.636.486-1.097 1.104-1.07.638.027 1.084.52 1.177 1.129.054.334.001.664-.113.981-.045.122-.206.393.027.301.139-.056.202-.239.267-.368.257-.542.622-.992 1.272-1.019a1.16 1.16 0 0 1 1.186.86 1.104 1.104 0 0 1-.576 1.293c-.319.162-1.529.329-1.015.868"/><path fill="#D67967" d="m208.968 233.711-.031.007a.407.407 0 0 1-.476-.325 8.27 8.27 0 0 1 1.698-6.699 8.28 8.28 0 0 1 6.221-3.008.409.409 0 0 1 .013.816 7.44 7.44 0 0 0-5.601 2.708 7.44 7.44 0 0 0-1.529 6.03.41.41 0 0 1-.295.471"/><path fill="#67A086" d="M215.028 230.06a19.65 19.65 0 0 0-11.842-1.887 30 30 0 0 0-2.922-3.31c-2.302-2.249-4.9-4.16-7.337-6.255-2.665-2.29-5.148-4.847-6.651-8.066-.31-.664-1.294-.084-.985.579 2.482 5.316 7.391 8.661 11.737 12.356-2.132 3.28-2.936 7.284-2.299 11.137.119.724 1.222.424 1.103-.296-.577-3.486.194-7.102 2.069-10.085 4.471 3.952 7.748 8.932 9.318 14.718a29.3 29.3 0 0 1 .94 9.792c-.053.734 1.089.738 1.142.008.426-5.836-.901-11.746-3.712-16.875a30 30 0 0 0-1.65-2.661 18.4 18.4 0 0 1 10.518 1.834c.654.332 1.228-.655.571-.989"/><path fill="#EF8E3C" d="M202.46 254.728c1.388 2.82 1.839 6.304-.268 10.228-5.618 10.462-17.148 4.188-18.364 3.487.833.447 6.632 3.328 11.997-.779 1.323-1.013 2.619-2.449 3.808-4.451q.187-.312.343-.623l.001-.002q.01-.013.014-.027c.002-.005.008-.012.009-.018 1.361-2.661 1.357-5.199.721-7.418a10 10 0 0 0-.08-.28c-.8-2.557-2.412-4.671-3.671-6.031l-.198-.215c-.814-.853-1.44-1.361-1.527-1.433.105.062.784.47 1.717 1.186q.114.086.228.176c1.582 1.242 3.762 3.286 5.139 5.934z"/><path fill="#F0DFD3" d="M200.72 255.124c.636 2.219.641 4.757-.72 7.418l-.009.018q-.006.014-.014.026l-.001.002q-.157.31-.344.624c-1.189 2.001-2.485 3.438-3.808 4.451-5.364 4.107-11.163 1.226-11.997.779l-.034-.02-.029-.016q-.011-.008-.018-.01-.007-.008-.012-.007-.008-.009-.009-.008l.261-.483c.771.368 2.458 1.05 4.546 1.147l.142-2.133q.259-3.875.516-7.751a1.4 1.4 0 0 1-.429-.071l1.415-2.609q.15.123.264.28l1.31-1.686 4.628-5.97a18 18 0 0 0-1.43-1.428l.283-.52.005.002.007.007c.087.072.713.58 1.527 1.434q.097.103.198.214c1.259 1.36 2.871 3.474 3.671 6.032q.044.137.081.278m-.82.192q-.077.02-.155.038a151 151 0 0 0-9.024 2.456 1.5 1.5 0 0 1-.075.334 125 125 0 0 1 8.504 3.863c1.2-2.386 1.257-4.668.75-6.691m-.073-.279c-.656-2.358-2.058-4.348-3.253-5.714l-.614.792-5.364 6.917a1.4 1.4 0 0 1 .127.471 150 150 0 0 1 9.104-2.466m-1.063 7.676q.134-.224.253-.449a130 130 0 0 0-8.49-3.858h-.002a1.5 1.5 0 0 1-.343.41 124 124 0 0 0 5.18 7.965c1.183-.956 2.338-2.275 3.402-4.068m-3.63 4.247q-.486-.684-.961-1.377a127 127 0 0 1-4.233-6.605 1.6 1.6 0 0 1-.458.161q-.065.996-.133 1.993l-.527 7.922c1.924.041 4.155-.435 6.312-2.094"/><path fill="#F9BB72" d="m199.747 255.353.155-.038c.507 2.023.449 4.305-.75 6.692a127 127 0 0 0-8.505-3.863q.056-.161.076-.335 4.474-1.368 9.024-2.456m-3.172-6.03c1.194 1.365 2.596 3.355 3.252 5.713a152 152 0 0 0-9.104 2.467 1.4 1.4 0 0 0-.126-.471l5.364-6.917zm-.196-.218-4.629 5.97-1.309 1.686a1.5 1.5 0 0 0-.265-.28l4.773-8.805c.334.298.851.785 1.43 1.429m2.638 13.159q-.12.224-.253.449c-1.064 1.793-2.22 3.112-3.402 4.068a124 124 0 0 1-5.181-7.965c.137-.117.255-.254.344-.41h.001a130 130 0 0 1 8.491 3.858m-4.845 3.316q.474.694.961 1.377c-2.158 1.659-4.388 2.135-6.312 2.094l.528-7.922.133-1.993a1.5 1.5 0 0 0 .457-.161 127 127 0 0 0 4.233 6.605m-4.982-6.418-.517 7.751-.142 2.133a12.2 12.2 0 0 1-4.546-1.148l4.776-8.807q.206.068.429.071"/><path fill="#F68D32" d="M185.02 268.019a.407.407 0 0 1-.463-.592l2.158-3.893a.409.409 0 0 1 .715.396l-2.159 3.892a.4.4 0 0 1-.251.197m10.629-2.039a.41.41 0 0 1-.43-.145l-3.486-4.542a.407.407 0 1 1 .647-.497l3.487 4.542a.408.408 0 0 1-.218.642"/><path fill="#F68D32" d="M195.893 265.236a.41.41 0 0 1-.427-.142l-.879-1.116a.408.408 0 1 1 .642-.505l.878 1.117a.406.406 0 0 1-.069.572.4.4 0 0 1-.145.074m-1.449-8.998a.409.409 0 0 1-.23-.782l4.09-1.317c.219-.087.444.049.514.263a.41.41 0 0 1-.264.514l-4.09 1.317z"/><path fill="#F68D32" d="m198.479 254.336-.027.006-1.194.235a.408.408 0 1 1-.157-.8l1.193-.235a.407.407 0 0 1 .185.794"/><path fill="#F0DFD3" d="M99.247 312.921s2.191 7.165-17.12 10.195c-19.31 3.03-19.418-4.462-19.418-4.462l-5.151-32.83c-.175-1.114-.429-2.119-.385-3.061.026-.769.266-1.499.905-2.203 1.42-1.562 1.998-4.583 1.998-4.583l-.838-5.337s-1.825-1.406-1.999-2.277c-.18-.87 2.853-2.788 2.853-2.788l-.32-2.041s2.158.618 12.84-1.058 12.548-2.926 12.548-2.926l.32 2.04s3.468.899 3.57 1.781-1.206 2.78-1.206 2.78l.838 5.337s1.468 2.699 3.304 3.751c.913.519 1.355 1.223 1.617 2.043.262.827.33 1.781.492 2.808z"/><path fill="#F4B46A" d="M97.176 311.869s1.93 5.968-15.447 8.695c-17.378 2.727-17.368-3.546-17.368-3.546l-5.37-34.225c.186 1.193 7.68 1.01 16.746-.412 9.06-1.422 16.256-3.545 16.069-4.737z"/><path fill="#DA772A" d="M77.275 300.015c3.8 3.132 7.422 8.687 4.552 13.58-2.425 4.122-7.824 4.969-11.768 2.646-3.641-2.153-5.235-6.153-5.105-10.166-.056-1.182.048-2.358.383-3.473.651-2.207 2.354-4.162 4.633-4.738 2.631-.671 5.3.501 7.305 2.151m14.661 1.273c-3.634 3.474-9.449 2.655-12.682-.921-2.703-2.989-3.568-7.721-1.946-11.421.517-1.71 1.506-3.243 3.063-4.325 1.916-1.331 4.377-1.569 6.593-.944 2.331.658 4.225 2.338 5.488 4.362 2.45 3.916 3.077 9.8-.516 13.249"/><path fill="#D67967" d="M85.512 253.057s.796 1.51.877 3.197-1.227 3.298-1.227 3.298-1.865 1.25-12.548 2.926-12.84 1.059-12.84 1.059-1.738-1.134-2.178-2.764c-.44-1.632-.144-3.312-.144-3.312.146.934 6.544.71 14.296-.506 7.744-1.216 13.91-2.964 13.764-3.898m.691 13.137.367 2.342s-2.246 2.193-12.412 3.788-12.976.196-12.976.196l-.367-2.342s4.364.043 12.805-1.281c8.434-1.324 12.583-2.703 12.583-2.703"/><path fill="#F4B46A" d="M75.058 278.054c9.06-1.421 16.56-1.605 16.747-.412.188 1.192-7.01 3.315-16.068 4.736-9.066 1.423-16.56 1.605-16.747.413a.3.3 0 0 1 .005-.111c.258-1.211 7.277-3.247 16.063-4.626"/><path fill="#D67967" d="M71.213 253.548c7.745-1.215 14.15-1.439 14.298-.498.146.934-6.02 2.682-13.764 3.897-7.752 1.216-14.15 1.44-14.296.506-.149-.942 6.01-2.688 13.762-3.905"/><path fill="#DA8135" d="M75.808 282.823c-14.547 2.283-16.904.506-17.125.295a.447.447 0 0 1 .6-.662c.127.095 2.504 1.663 16.386-.515 14.136-2.218 15.734-4.487 15.746-4.51a.447.447 0 0 1 .784.427c-.145.269-1.845 2.683-16.391 4.965"/><path fill="#E5BEA3" d="M71.52 265.361c-7.373 1.157-11.247.686-11.486.655a.447.447 0 0 1 .116-.886c.087.011 8.88 1.067 25.2-3.967a.445.445 0 1 1 .263.853c-5.607 1.73-10.31 2.752-14.093 3.345m2.172 3.976c-6.086.955-13.636 1.777-15.044.271-.287-.306-.247-.599-.229-.682a.448.448 0 0 1 .882.074c.157.184 1.717 1.421 14.253-.546 12.359-1.939 13.884-3.627 14.064-3.946l.034.088a.445.445 0 0 1 .832-.323c.036.091.102.339-.089.676-.845 1.494-5.93 3.011-14.703 4.388m.746 6.636c-7.893 1.238-13.373.835-13.455.829a.45.45 0 0 1-.41-.481.45.45 0 0 1 .48-.41c.12.011 12.26.898 26.443-4.153a.447.447 0 1 1 .299.841 74 74 0 0 1-13.358 3.374Z"/><path fill="#B1524B" d="M71.817 257.394c-11.113 1.743-14.394.533-14.528.48a.447.447 0 0 1 .322-.833c.042.016 3.306 1.159 14.068-.53 10.78-1.691 13.528-3.783 13.553-3.804a.446.446 0 0 1 .562.695c-.112.091-2.865 2.248-13.977 3.992"/><path fill="#E6944E" d="M78.367 300.596c-3.539 3.737-10.361 3.982-13.633-.295-.878-1.146-1.319-2.495-1.378-3.87-.229-1.957.294-3.993 1.304-5.709 1.357-2.312 3.753-4.362 6.258-5.33 2.647-1.024 5.267-.057 7.222 1.87 3.67 3.616 3.757 9.609.227 13.334"/><path fill="#DA772A" d="m69.528 301.361-.13.019c-2.178.293-4.344-.664-5.392-2.383a.447.447 0 0 1 .762-.465c.853 1.399 2.707 2.206 4.51 1.963l.112-.017c1.606-.251 3.17-1.257 4.307-2.774.97-1.293 1.664-2.948 2.123-5.059.245-1.126.479-2.595.116-3.974-.35-1.33-1.287-2.381-2.383-2.677a.446.446 0 1 1 .231-.862c1.402.377 2.585 1.678 3.015 3.312.412 1.563.16 3.167-.106 4.39-.487 2.24-1.233 4.008-2.28 5.405-1.278 1.702-3.05 2.834-4.885 3.122"/><path fill="#DA772A" d="M69.357 296.385a.45.45 0 0 1-.496-.312 3.85 3.85 0 0 1 .709-3.532 3.85 3.85 0 0 1 3.333-1.363.447.447 0 0 1-.093.889 2.99 2.99 0 0 0-2.552 1.043 2.99 2.99 0 0 0-.542 2.704.447.447 0 0 1-.359.571"/><path fill="#E6944E" d="M78.104 311.478c-2.108-4.696.265-11.097 5.465-12.494 1.394-.375 2.809-.268 4.103.201 1.896.533 3.58 1.793 4.782 3.379 1.62 2.135 2.604 5.132 2.544 7.817-.061 2.838-1.954 4.891-4.48 5.965-4.741 2.017-10.315-.186-12.414-4.868"/><path fill="#DA772A" d="M91.435 314.644a5.2 5.2 0 0 1-1.497.016c-1.603-.215-2.99-1.06-4.019-1.771-1.885-1.303-3.235-2.667-4.13-4.168-1.112-1.872-1.474-3.998-.993-5.833.558-2.124 2.27-3.763 4.258-4.077a.447.447 0 0 1 .14.882c-1.618.256-3.071 1.663-3.533 3.422-.422 1.605-.095 3.482.896 5.15.827 1.389 2.092 2.661 3.87 3.89.946.654 2.215 1.43 3.63 1.62 1.362.182 2.69-.283 3.382-1.184a.446.446 0 1 1 .71.543c-.616.802-1.604 1.336-2.714 1.51"/><path fill="#DA772A" d="M88.568 310.241a.446.446 0 0 1-.462-.653 2.99 2.99 0 0 0 .007-2.758 2.99 2.99 0 0 0-2.293-1.531.447.447 0 1 1 .085-.889 3.85 3.85 0 0 1 2.996 1.999 3.86 3.86 0 0 1-.01 3.602.45.45 0 0 1-.323.23"/></svg>