<svg xmlns="http://www.w3.org/2000/svg" fill="none" viewBox="0 0 157 157"><path fill="#F7F0E3" d="M142.825 91.5061c-2.213-5.0356-6.465-9.2381-11.573-11.3058-5.319-2.1541-11.428-1.3705-17.031-2.0916-4.867-.6274-8.377-2.7998-11.284-6.6624-2.784-3.701-5.2796-7.7996-9.8321-9.5119-3.5971-1.3521-7.6866-.9773-11.2617.4327-6.5876 2.5968-11.563 8.1193-15.7535 13.6215-3.8258 5.0237-6.9464 10.5241-14.023 10.7032-3.2024.0818-6.3354-.6999-9.4663-1.4816-3.7919-.9471-7.5806-1.8941-11.4858-1.3072-9.4231 1.4146-17.2707 9.2593-18.9151 18.597-1.5412 8.753 2.3262 17.242 8.9701 22.23H135.369c8.371-8.882 12.765-21.15 7.456-33.2239Z"/><path fill="#fff" d="M39.5914 124.73h.3142c2.1817-2.398 3.8907-5.308 4.9771-8.538 1.7584-5.228 1.6843-10.714-.2087-15.449-.9567-2.3917-2.3382-4.622-3.6741-6.7788-1.355-2.1862-2.7559-4.4478-3.7068-6.8719-.3932-1.0012-.6836-2.0778-.8583-3.1755-.0787-.0101-.1575-.0184-.2363-.0275.1756 1.1362.4742 2.2505.8809 3.2875.9583 2.4425 2.3649 4.7132 3.7253 6.9086 1.3307 2.1486 2.7068 4.3697 3.656 6.7436 1.8728 4.683 1.9453 10.114.2043 15.29-1.0998 3.269-2.8447 6.207-5.0736 8.611Zm95.2246-9.96c2.354.501 4.621.952 6.814 1.234.038-.072.074-.146.112-.218-2.211-.281-4.501-.734-6.877-1.24-3.619-.772-7.537-1.606-11.421-1.606-2.406 0-4.799.32-7.101 1.173-.873.323-1.713.733-2.513 1.222-2.079-.887-4.169-1.854-6.238-2.915 1.502-1.132 3.019-2.24 4.554-3.311 11.388-7.952 21.898-12.4607 32.052-13.7403-.02-.0744-.041-.1488-.063-.2232-10.181 1.2896-20.713 5.8095-32.121 13.7745-1.566 1.094-3.116 2.227-4.649 3.383-2.329-1.203-4.628-2.525-6.855-3.983-4.0367-2.646-8.8399-6.422-13.0341-11.4393 16.2541-1.8243 32.8021-4.1217 46.3161-13.1531.513-.3436 1.081-.7477 1.67-1.2061-.065-.0468-.13-.0919-.196-.1378-.564.4373-1.109.8231-1.601 1.1528-13.511 9.0296-30.09 11.3095-46.3646 13.1329-2.9642-3.5852-5.6125-7.7969-7.4533-12.6717-2.8663-7.5939-2.7149-15.0454.4161-20.4447.136-.2343.2793-.4658.4272-.6945-.1305.0606-.26.1231-.3895.1846-.0808.1305-.1598.2618-.237.3941-3.165 5.46-3.3224 12.9831-.4317 20.6422 1.8307 4.8482 4.4551 9.0424 7.3954 12.6194-.9424.1056-1.8849.2103-2.8237.3132-3.3895.3739-6.8941.7615-10.297 1.1997-1.2421.1598-2.5053.3463-3.7622.5796-2.6944-5.6869-5.6541-11.2342-9.4801-15.9924-.0546.0551-.1104.1075-.1656.1617 3.7932 4.7215 6.7344 10.2283 9.4124 15.8748-5.4821 1.0453-10.8054 3.0106-13.6477 7.5856-2.6545 4.272-2.6521 10.178.0072 17.552.0919.255.1867.507.2827.757h.246c-.1053-.274-.21-.549-.3127-.835-2.6342-7.305-2.6436-13.143-.0281-17.353 2.8086-4.52 8.1026-6.459 13.5542-7.4926.9511 2.0126 1.87 4.0406 2.7832 6.0566l.0994.22c3.1715 7.001 6.4518 13.758 10.7471 19.404h.2866c-4.3348-5.657-7.6332-12.454-10.8244-19.499l-.0994-.219c-.9055-1.999-1.8167-4.011-2.7592-6.0058 1.2327-.2278 2.4715-.4106 3.69-.5667 3.4008-.4382 6.9038-.8249 10.2924-1.1988.9893-.1093 1.9814-.2186 2.9734-.3297 4.2347 5.096 9.0985 8.925 13.1829 11.601 2.201 1.443 4.476 2.752 6.777 3.945-3.907 2.954-7.707 6.063-11.4162 9.098-1.2851 1.051-2.5849 2.113-3.8947 3.175h.3646c1.2355-1.003 2.4618-2.005 3.6752-2.997 3.7359-3.056 7.5631-6.188 11.4971-9.159 2.058 1.059 4.136 2.024 6.204 2.909-2.828 1.798-5.134 4.584-6.528 7.966-.174.424-.327.851-.468 1.281h.243c.133-.401.275-.798.438-1.193 1.398-3.392 3.722-6.175 6.572-7.945 5.78 2.455 11.459 4.278 16.341 5.722l.183.054c2.057.609 4.161 1.232 6.022 2.233.051-.06.103-.118.155-.178-1.891-1.026-4.025-1.658-6.112-2.275l-.184-.054c-4.831-1.43-10.445-3.23-16.163-5.649.745-.443 1.524-.817 2.332-1.117 5.958-2.207 12.565-.8 18.393.442ZM21.7453 99.8952c1.0144 4.1508.5618 8.6348-1.2416 12.3018-1.1812 2.401-2.887 4.574-4.9881 6.442.0418.065.0845.129.127.194 2.1351-1.892 3.8682-4.097 5.0672-6.535 1.8269-3.714 2.2856-8.255 1.2585-12.4579-.8023-3.2839-2.4153-6.0654-4.6439-8.078-.0497.0579-.099.1167-.1481.1755 2.1915 1.9823 3.7785 4.7215 4.569 7.9576Z"/><path fill="#F7F0E3" d="M73.7201 47.3015c2.0007 2.0438 2.8973 5.4876 1.7942 8.6631-1.0681 3.0744-3.4093 5.6207-6.2224 7.2586-2.2631 1.3172-5.2154 2.0438-7.4414.6641-1.6634-1.0307-2.5259-3.0534-2.5739-5.009-.0479-1.9566.61-3.8635 1.423-5.6428 1.1462-2.5095 2.6888-4.9419 4.9868-6.4677 3.1677-2.1035 6.1107-1.432 8.0337.5337Z"/><path fill="#E49B31" d="M131.864 55.6051c-.758-2.4992-2.093-4.7938-4.003-6.8914-1.914-2.0976-4.524-3.8296-7.831-5.1993-3.306-1.3696-7.507-2.0544-12.604-2.0544-4.065 0-8.2075.5432-12.4283 1.6296C90.7724 44.18 87.1084 45.7305 84 47.7457l4.0459 11.0042-2.1685 1.7404 3.1449.9159c3.104-1.6098 5.9325-2.7786 8.4843-3.5065 2.5484-.7241 5.2554-1.0865 8.1264-1.0865 2.867 0 5.037.6848 6.512 2.0545 1.474 1.3735 2.21 3.0225 2.21 4.9592 0 2.3377-.759 4.4114-2.268 6.2259-1.517 1.8144-3.19 3.6481-5.022 5.5024-1.273 1.2866-2.51 2.617-3.704 3.9866-1.194 1.3736-2.252 2.8417-3.166 4.416-.9187 1.5699-1.6535 3.2626-2.2102 5.077-.56 1.8144-.8361 3.8489-.8361 6.1042 0 .728.0156 1.5937.0585 2.6016.0071.1854.0168.3669.0279.5458h-2.9728l3.2443 2.1736h15.7744c-.082-.4841-.121-1.0472-.121-1.6922v-1.4526c0-1.3697.28-2.7194.837-4.0498.556-1.3304 1.256-2.5977 2.093-3.8096.836-1.2082 1.769-2.3577 2.808-3.4435 1.035-1.0903 2.031-2.1176 2.988-3.0856 1.272-1.2872 2.587-2.6569 3.941-4.1089 1.353-1.4527 2.551-2.9794 3.586-4.593 1.035-1.6136 1.891-3.3649 2.568-5.2624.677-1.8929 1.019-3.9667 1.019-6.2258 0-2.2553-.381-4.6323-1.136-7.1315Z"/><path fill="#FBC343" d="M102.191 56.2924c-2.8117 0-5.4641.3502-7.96 1.0499-2.4998.7029-5.2707 1.8324-8.3113 3.3873L81 47.5324c3.0448-1.9469 6.6344-3.4452 10.773-4.4983 4.1348-1.0499 8.1929-1.5741 12.175-1.5741 4.993 0 9.108.6617 12.347 1.9847 3.239 1.3229 5.796 2.996 7.671 5.0225 1.871 2.0272 3.178 4.2438 3.921 6.6578.74 2.4145 1.113 4.7115 1.113 6.8903 0 2.182-.335 4.186-.998 6.0152-.663 1.8324-1.502 3.5242-2.515 5.0836-1.014 1.5587-2.188 3.0339-3.514 4.4372-1.326 1.4032-2.614 2.7262-3.86 3.9694-.938.9355-1.913 1.9276-2.927 2.9813-1.017 1.0492-1.932 2.1595-2.751 3.3269-.82 1.1707-1.505 2.3953-2.05 3.6803-.546 1.2851-.82 2.5894-.82 3.9123v1.4033c0 .6238.038 1.1674.119 1.6352H94.231c-.1604-.7794-.2557-1.6539-.2937-2.6273-.0418-.9734-.0573-1.8099-.0573-2.5135 0-2.1788.2711-4.1442.8198-5.8976.5447-1.7528 1.2647-3.3874 2.1642-4.905.8958-1.5208 1.9319-2.9388 3.1019-4.2656 1.1701-1.3236 2.3821-2.6086 3.6281-3.8519 1.795-1.7907 3.433-3.5628 4.92-5.3155 1.478-1.7528 2.221-3.7568 2.221-6.0152 0-1.871-.72-3.4638-2.164-4.7913-1.444-1.3229-3.571-1.9847-6.38-1.9847Z"/><path fill="#E49B31" d="M115 115.911c0 2.729-.92 4.834-2.759 6.319-1.84 1.489-3.919 2.23-6.241 2.23-2.325 0-4.404-.741-6.2434-2.23C97.9197 120.745 97 118.64 97 115.911c0-2.725.9197-4.83 2.7566-6.319 2.8314-2.295 7.0214-2.807 10.3374-1.196 2.941 1.43 4.906 4.332 4.906 7.515Z"/><path fill="#FBC343" d="M112 115.96c0 2.713-.92 4.806-2.759 6.283-1.84 1.48-3.919 2.217-6.241 2.217-2.325 0-4.4039-.737-6.2434-2.217C94.9197 120.766 94 118.673 94 115.96c0-2.71.9197-4.803 2.7566-6.283 1.8395-1.477 3.9184-2.217 6.2434-2.217 2.322 0 4.401.74 6.241 2.217 1.839 1.48 2.759 3.573 2.759 6.283Z"/><path fill="#D3DFFF" d="M45.9337 53.2796c.7492 1.0949.469 2.5894-.6259 3.339-1.0948.7486-2.5896.4684-3.3388-.6265-.7492-1.0949-.469-2.5895.6258-3.339 1.0948-.7487 2.5897-.4685 3.3389.6265Zm1.5259 6.3101c-.1375.733-.8476 1.2162-1.5862 1.0775-.7386-.1387-1.226-.8451-1.0885-1.5791.1375-.733.8477-1.2152 1.5862-1.0765.7387.1378 1.226.8451 1.0885 1.5781Zm-.1398-15.3061c-.9623 5.1339-5.9043 8.5152-11.0382 7.5535-5.134-.9627-8.5159-5.9046-7.5536-11.0386.9622-5.1339 5.9043-8.5161 11.0383-7.5534 5.1339.9627 8.5157 5.9046 7.5535 11.0385Z"/><path fill="#fff" d="M35.5839 42.541c0 .6577-.5336 1.1914-1.1916 1.1914-.6581 0-1.1916-.5337-1.1916-1.1914 0-.6586.5335-1.1914 1.1916-1.1914.658 0 1.1916.5328 1.1916 1.1914Zm3.6316 0c0 .6577-.5335 1.1914-1.1916 1.1914s-1.1916-.5337-1.1916-1.1914c0-.6586.5335-1.1914 1.1916-1.1914s1.1916.5328 1.1916 1.1914Zm3.6316 0c0 .6577-.5335 1.1914-1.1917 1.1914-.658 0-1.1915-.5337-1.1915-1.1914 0-.6586.5335-1.1914 1.1915-1.1914.6582 0 1.1917.5328 1.1917 1.1914Z"/><path fill="#102048" d="m31.2488 119.951.8837 3.407c.2304.889 1.0895 1.489 2.0397 1.424 2.8975-.196 8.9177-.906 12.3729-3.453l-.9823-4.909c-4.7506-.27-9.1934-.005-13.0405 1.29-.9632.324-1.5203 1.29-1.2735 2.241Z"/><path fill="#fff" d="M36.7857 122.663c-.0502 0-.0964-.033-.1106-.084l-1.1865-4.248c-.017-.061.0187-.125.0797-.141.0616-.018.1246.018.1416.08l1.1864 4.248c.0171.061-.0186.124-.0797.141-.0103.003-.0208.004-.0309.004Zm2.5644-.574c-.0502 0-.0963-.033-.1106-.084l-1.1864-4.248c-.0171-.062.0186-.125.0797-.142.0615-.017.1245.019.1415.08l1.1865 4.249c.017.06-.0187.124-.0797.141-.0104.003-.0208.004-.031.004Z"/><path fill="#FBC343" d="m42.3282 101.536-11.0416 3.277 8.2 11.235 11.7723.936 16.2375-6.865-6.1702-9.285-18.998.702Z"/><path fill="#FBC343" d="M55.9409 103.096c24.2481-7.1775 28.1456 14.253-9.6884 18.154-1.3363-1.504-2.898-4.113-3.5181-6.294l19.9793-9.233-6.7728-2.627Z"/><path fill="#F9B384" d="M56.9707 118.455c-1.134-.363-2.2207-1.08-2.2207-1.08l-3.897 1.222.8931 4.24 4.0483.822c1.2332-2.255 1.3052-4.108 1.1763-5.204Z"/><path fill="#E49B31" d="m42.8208 115.105-.1731-.298c4.168-2.422 14.8444-8.242 23.9406-9.958l.0639.339c-9.0438 1.706-19.6787 7.504-23.8314 9.917Z"/><path fill="#FBC343" d="M42.3281 101.536c-22.5702-4.291-28.4157 17.399 9.4179 21.3 1.3363-1.503 2.3838-3.281 3.0039-5.461-5.8116-3.889-12.3095-7.585-19.431-11.106l7.0092-4.733Z"/><path fill="#E49B31" d="M54.6575 117.52c-1.0737-.683-2.1924-1.405-3.3768-2.171-5.9457-3.838-12.6846-8.189-18.4101-10.67l.1371-.316c5.7514 2.492 12.503 6.851 18.4598 10.697 1.184.765 2.3022 1.487 3.3749 2.17l-.1849.29Zm-28.8889-5.229-.3016-.167c.8472-1.534 2.2043-2.568 4.0333-3.074l.092.331c-1.7609.488-3.0117 1.44-3.8237 2.91Zm47.1076-1.306c-.812-1.469-2.0628-2.421-3.8237-2.91l.0919-.331c1.8292.507 3.1861 1.541 4.0333 3.075l-.3015.166Z"/><path fill="#E49B31" d="m49.6326 122.646-.2517-.235c1.8055-1.933 2.9143-3.975 3.39-6.24l.3371.07c-.4889 2.329-1.6257 4.424-3.4754 6.405Z"/><path fill="#102048" d="M68.2272 117.193c-2.8917-1.787-8.4977 1.301-9.9049 1.456-.4103.046-.8849-.044-1.3515-.194.1288 1.096.0568 2.949-1.1764 5.204l.6876.139s4.7539 1.744 9.7968.729c4.6547-.936 4.2217-5.93 1.9484-7.334Z"/><path fill="#fff" d="M64.2856 123.037c-.0115 0-.0231-.002-.0345-.006-.0606-.019-.0941-.083-.075-.144.3436-1.088.4935-3.228-.5016-4.666-.0361-.052-.0231-.123.0291-.159.0519-.036.1235-.023.1597.029 1.0421 1.505.8889 3.734.5318 4.865-.0155.048-.0607.081-.1095.081Zm-2.2678.43c-.0115 0-.023-.002-.0346-.006-.0605-.018-.094-.083-.0749-.143.3435-1.089.4934-3.228-.5016-4.665-.0361-.053-.0232-.124.029-.16.052-.036.1236-.023.1597.029 1.0421 1.505.889 3.734.5318 4.865-.0154.049-.0606.08-.1094.08Z"/><path fill="#F9B384" d="M38.3353 73.5688s5.6843-4.8335 5.4737-5.7521c-.1503-.6567-1.7605.3059-1.7605.3059s2.2581-2.6785 2.1433-3.0046c-.2052-.5806-1.767.5024-1.767.5024s1.0557-1.5193.551-1.7664c-.5047-.248-1.6049.6889-1.6049.6889s.6428-.8441.3408-1.0655c-.3022-.2214-1.605.6889-1.605.6889s.4676-1.0637-.5258-.6604c-.9932.4032-7.9579 6.7947-7.9579 6.7947l6.7123 3.2682Z"/><path fill="#E28B6D" d="M40.6609 67.8359c-.0277 0-.0554-.0101-.0775-.0303-.9756-.891-1.4058-1.1078-2.4823-1.4394-.0606-.0184-.0946-.0827-.076-.1433.0187-.0606.0829-.0946.1435-.0753 1.1153.3426 1.5608.5668 2.5698 1.4881.0469.0432.0501.1157.0073.1626-.0226.0248-.0537.0376-.0848.0376Zm-1.7125 2.6216-.0159-.0009c-.0629-.0092-.1067-.067-.0979-.1295.1117-.7992.3633-1.2989.7692-1.5276.347-.1947.7985-.1745 1.342.0597.0582.0257.085.0928.0599.1507-.0251.0587-.0927.0854-.1509.0606-.4741-.2049-.8571-.2287-1.1384-.0708-.3345.1884-.5547.6458-.6544 1.3586-.008.0579-.0572.0992-.1136.0992Zm-.2681-4.8315c-.0305 0-.061-.0129-.0836-.0368-.0435-.0459-.0414-.1185.0048-.1616l1.4263-1.3448c.0462-.0432.1188-.0414.1624.0046.0435.0468.0413.1194-.0049.1626l-1.4263 1.3438c-.0222.0212-.0505.0322-.0787.0322Zm1.3203.459c-.0287 0-.0572-.0111-.0796-.0322-.0457-.0441-.0472-.1166-.0033-.1626l1.3701-1.4274c.0439-.046.1166-.0478.1624-.0037.0457.0441.0472.1166.0033.1626l-1.3701 1.4274c-.0226.0239-.0527.0359-.0828.0359Zm1.3493.8037c-.028 0-.0561-.011-.0783-.0313-.0463-.0431-.0489-.1157-.0056-.1625l1.0749-1.1529c.0432-.0459.1158-.0486.1623-.0055.0464.0432.0488.1158.0057.1617l-1.0749 1.1537c-.0227.0239-.0533.0368-.0841.0368Z"/><path fill="#3A6BEA" d="m59.8074 105.899-20.7827.804-2.2964-18.946s6.9575-6.5999 9.6343-9.0295l4.5189-.2315c14.0204 6.3721 11.7246 14.3316 8.9259 27.403Z"/><path fill="#3A6BEA" d="M50.8816 78.4958s16.0403 1.3715 21.0971 12.3613c4.948 10.7529-15.3861 14.5819-15.3861 14.5819l-5.711-26.9432Zm-18.3349 2.3545 6.6283-8.066-6.1984-3.7569c-2.5856 1.7985-7.5855 5.8706-11.8228 10.4818-.9353 1.0178-1.6659 2.2064-2.0338 3.5154-.3139 1.117-.3711 2.2202-.1945 3.3004.4599 2.8164 2.675 4.9897 5.6318 5.336 2.5252.2958 12.1711-.4593 19.979-2.7557l2.2964-8.8633c-1.1802-.6697-9.9504-.7863-14.286.8083Z"/><path fill="#D8E1FB" d="M59.7308 83.6201c-1.0538 0-2.5821-.2361-3.1396-1.5074-.3682-.8386-.1088-1.7618.2956-2.4204.0572.0165.1142.0331.1719.0496-.3948.621-.659 1.5065-.3098 2.3019.5189 1.1832 1.9672 1.4045 2.977 1.4045.3555 0 .6566-.0275.8437-.0505 1.1955-.1442 2.4084-.4207 3.5838-.6917.0727.0423.1456.0845.218.1268-.0345.0083-.0693.0165-.1037.0239-1.2032.2774-2.4474.564-3.6775.7119-.1914.0229-.4973.0514-.8594.0514Zm8.0348 17.6389c-.8127-1.029-1.2389-2.1979-1.1872-3.313.0757-1.6369 1.325-3.08 2.7848-3.2187.09-.0083.1794-.0119.2684-.0119.7346 0 1.4383.2719 2.1218.5355.2732.1056.5508.2122.8318.3031-.0133.0561-.0279.1112-.0427.1672-.2883-.0928-.572-.2012-.8513-.3096-.6975-.2691-1.3603-.5245-2.0569-.5245-.0844 0-.1694.0037-.255.012-1.3776.1304-2.5569 1.5-2.6289 3.0542-.05 1.0794.367 2.2147 1.1614 3.2137-.0485.031-.0973.062-.1462.092ZM23.444 91.4341c-.0599-.0175-.1176-.0395-.1767-.0588.8988-1.0334 2.2069-1.8142 3.7317-2.2092.5786-.1497 1.1393-.2232 1.6669-.2232 1.0328 0 1.9387.2829 2.6015.8304.4935.4088.8352.9388 1.0803 1.5065-.0595.0064-.1189.0137-.178.0202-.2341-.5282-.5563-1.0169-1.0119-1.3935-.6319-.5227-1.4988-.7918-2.4911-.7918-.5131 0-1.0598.0725-1.6246.2186-1.4643.3785-2.7237 1.1197-3.5981 2.1008Zm-1.2299-13.0518c.0748-.0771.1496-.1552.2245-.2324 1.77-.4583 3.4931-1.0931 5.0861-2.0107.6226-.3583 1.3249-.8148 1.8128-1.4771.506-.6871.6758-1.5009.4541-2.1752-.0871-.2655-.2424-.4978-.4361-.6825.0443-.0358.0886-.0725.1325-.1084.2075.2012.3736.451.4673.7367.2389.7275.0599 1.5993-.4792 2.3323-.5068.688-1.2274 1.1565-1.8655 1.5239-1.6889.9728-3.52 1.6277-5.3965 2.0934Z"/><path fill="#F9B384" d="m52.3497 74.2835-.003.2939-.0466 4.5681-.0057.4951c-.0088.7743-.3261 1.4761-.8385 1.9859-.5096.5062-1.2113.824-1.9886.8295-1.5664.0083-2.8474-1.2492-2.862-2.8182l-.0553-5.6455 5.7997.2912Z"/><path fill="#102048" d="m52.3466 74.5774-.0465 4.5681c-2.5388-1.0334-3.584-3.7818-3.584-3.7818l3.6305-.7863Z"/><path fill="#F9B384" d="M53.3512 66.606c.9098 1.0922 3.5665 7.2788.8735 9.3897-3.0306 2.3754-7.6427-1.5285-7.6427-1.5285l-.6186-7.2063 4.0032-1.0554 3.3846.4005Z"/><path fill="#102048" d="M43.9239 66.2091s-8.8795 4.6314-1.6394 17.981c.9299 1.7141 2.9897 2.4627 4.7516 1.6259h.0001c1.8901-.8974 2.6058-3.2067 1.5794-5.0301-1.1843-2.1035-2.3274-4.8124-1.8395-6.8287l-2.8522-7.7481Z"/><path fill="#FBC343" d="M47.1642 68.4012c0 1.3273-1.0754 2.402-2.402 2.402-1.3265 0-2.4018-1.0747-2.4018-2.402 0-1.3265 1.0753-2.4012 2.4018-2.4012 1.3266 0 2.402 1.0747 2.402 2.4012Z"/><path fill="#102048" d="M47.7172 71.2872c-.2596-1.4982-.4177-2.526 1.0968-3.2986 0 0 5.3377.971 6.3568-1.0425 1.0189-2.0145-.5338-5.1927-3.7849-2.9845-8.322-1.6259-9.438 6.1627-6.9148 8.7586l2.4904-.3821c.5012-.0772.8421-.5512.7557-1.0509Zm4.4876.0047c0 .1957-.1589.3546-.3548.3546-.196 0-.3549-.1589-.3549-.3546 0-.1956.1589-.3546.3549-.3546.1959 0 .3548.159.3548.3546Zm2.4019-1.1835c0 .1966-.159.3555-.3549.3555s-.3548-.1589-.3548-.3555c0-.1957.1589-.3546.3548-.3546s.3549.1589.3549.3546Zm-.6005 2.2754c-.0249 0-.0498-.0092-.0693-.0276-.0402-.0385-.0418-.1019-.0036-.1423.1423-.1498.2982-.3601.2327-.5126-.068-.1589-.3557-.2269-.4874-.2269-.2831 0-.419-.5043-.4434-.6053-.0129-.0533.0201-.1075.0741-.1213.0538-.0128.1082.0202.1212.0744.0517.2131.1688.451.2481.451.1355 0 .5499.0634.6721.3482.0872.2039-.0042.4492-.2717.7312-.0197.0211-.0463.0312-.0728.0312Zm.0182 1.3467c-.0193 0-.0389-.0055-.0561-.0175-.6681-.451-1.3427-.0726-1.3495-.0689-.048.0276-.1094.011-.1371-.0367-.0277-.0487-.0112-.1093.0369-.1378.032-.0184.7911-.4437 1.5621.0772.0459.0312.0582.0936.0271.1396-.0195.0284-.0512.0441-.0834.0441Z"/><path fill="#102048" d="M51.6946 69.7548c.2019.3794-.1499.4566-.562.6752-.4122.2186-.8342.2994-.9304.1176-.0964-.181.1596-.5053.5718-.7248.4122-.2186.7643-.3619.9206-.068Zm1.503-.6862c.0887.339.3416.1911.7095.0946.3679-.0964.665-.2811.6226-.4427-.0422-.1617-.3747-.215-.7426-.1185-.3679.0964-.6582.2039-.5895.4666Z"/><path fill="#F39176" d="M50.2121 73.9941c-.5779 0-1.0463-.4684-1.0463-1.0462 0-.5787.4684-1.0463 1.0463-1.0463.5779 0 1.0463.4676 1.0463 1.0463 0 .5778-.4684 1.0462-1.0463 1.0462Z"/><path fill="#F9B384" d="M47.1046 71.8301c.7041.5429.8872 1.4854.4091 2.1054-.4781.6191-1.4365.6807-2.1406.1378-.7041-.5429-.8871-1.4863-.409-2.1054.4781-.62 1.4365-.6816 2.1405-.1378Z"/><path fill="#102048" d="M46.8614 73.4761c-.0556 0-.1005-.045-.1005-.1002 0-.2967-.1446-.5704-.3867-.7339-.2072-.1387-.4541-.1718-.6604-.0873-.0514.0203-.1099-.0036-.1309-.0551-.0209-.0514.0037-.1102.055-.1313.2684-.1093.5855-.0689.8483.1074.2978.2003.4756.5365.4756.9002 0 .0552-.0449.1002-.1004.1002ZM29.0048 84.8496l-.1686-.1561 3.6261-3.9214.1687.1561-3.6262 3.9214Zm28.9991 12.7778-.0669-.2195c2.6394-.8047 5.2007-1.7673 7.522-4.67l.1793.1433c-2.3622 2.9541-4.9592 3.9305-7.6344 4.7462Z"/><path fill="#D3DFFF" d="M59.6087 88.7346H37.1571c-.8075 0-1.462.7082-1.462 1.5808v16.0296c0 .874.6545 1.582 1.462 1.582h22.4516c.8075 0 1.462-.708 1.462-1.582V90.3154c0-.8726-.6545-1.5808-1.462-1.5808Z"/><path fill="#1F3C88" d="M49.5681 96.8583h-2.3705c-.3383 0-.6136.2811-.6136.6264v1.6921c0 .3453.2753.6264.6136.6264h2.3705c.3383 0 .6136-.2811.6136-.6264v-1.6921c0-.3453-.2753-.6264-.6136-.6264Zm0 .4593c.0852 0 .1543.0744.1543.1671v1.6921c0 .0918-.0691.1671-.1543.1671h-2.3705c-.0852 0-.1543-.0753-.1543-.1671v-1.6921c0-.0927.0691-.1671.1543-.1671h2.3705Z"/></svg>