<svg xmlns="http://www.w3.org/2000/svg" fill="none" viewBox="0 0 157 157"><path fill="#F7F0E3" d="M142.825 91.506c-2.213-5.035-6.465-9.238-11.573-11.306-5.319-2.154-11.428-1.37-17.031-2.091-4.867-.628-8.377-2.8-11.284-6.663-2.784-3.7-5.28-7.8-9.832-9.512-3.597-1.352-7.687-.977-11.262.433-6.587 2.597-11.563 8.12-15.753 13.622-3.826 5.023-6.947 10.524-14.023 10.703-3.203.082-6.336-.7-9.467-1.482-3.792-.947-7.58-1.894-11.485-1.307-9.424 1.415-17.271 9.26-18.916 18.597-1.54 8.753 2.327 17.242 8.97 22.23h114.2c8.371-8.882 12.765-21.15 7.456-33.224"/><path fill="#fff" d="M39.591 124.73h.315c2.181-2.398 3.89-5.308 4.977-8.538 1.758-5.228 1.684-10.714-.209-15.449-.957-2.392-2.338-4.622-3.674-6.779-1.355-2.186-2.756-4.448-3.707-6.872a15.3 15.3 0 0 1-.858-3.175l-.237-.028c.176 1.137.475 2.25.881 3.288.959 2.442 2.365 4.713 3.726 6.908 1.33 2.149 2.706 4.37 3.656 6.744 1.872 4.683 1.945 10.114.204 15.29-1.1 3.269-2.845 6.207-5.074 8.611m95.225-9.96c2.354.501 4.621.952 6.814 1.234l.112-.218c-2.211-.281-4.501-.734-6.877-1.24-3.619-.772-7.537-1.606-11.421-1.606-2.406 0-4.799.32-7.101 1.173-.873.323-1.713.733-2.513 1.222a98 98 0 0 1-6.238-2.915 154 154 0 0 1 4.554-3.311c11.388-7.952 21.898-12.46 32.052-13.74l-.063-.223c-10.181 1.29-20.713 5.809-32.121 13.774a159 159 0 0 0-4.649 3.383 77 77 0 0 1-6.855-3.983c-4.037-2.646-8.84-6.422-13.034-11.44 16.254-1.824 32.802-4.121 46.316-13.152a29 29 0 0 0 1.67-1.206q-.097-.07-.196-.138a29 29 0 0 1-1.601 1.152c-13.511 9.03-30.09 11.31-46.365 13.133-2.964-3.585-5.612-7.797-7.453-12.671-2.866-7.594-2.715-15.046.416-20.445q.205-.352.427-.694l-.39.184q-.12.196-.236.394c-3.165 5.46-3.323 12.983-.432 20.642 1.83 4.849 4.455 9.043 7.396 12.62q-1.415.158-2.824.313c-3.39.374-6.894.762-10.297 1.2a69 69 0 0 0-3.762.58c-2.695-5.688-5.654-11.235-9.48-15.993l-.166.162c3.793 4.721 6.734 10.228 9.412 15.874-5.482 1.046-10.805 3.011-13.647 7.586-2.655 4.272-2.652 10.178.007 17.552q.138.382.283.757h.246c-.106-.274-.21-.549-.313-.835-2.634-7.305-2.644-13.143-.028-17.353 2.808-4.52 8.102-6.459 13.554-7.493.951 2.013 1.87 4.041 2.783 6.057l.1.22c3.171 7.001 6.451 13.758 10.747 19.404h.286c-4.335-5.657-7.633-12.454-10.824-19.499l-.1-.219a402 402 0 0 0-2.759-6.006 68 68 0 0 1 3.69-.566c3.401-.439 6.904-.825 10.293-1.2q1.484-.163 2.973-.329c4.235 5.096 9.099 8.925 13.183 11.601a77 77 0 0 0 6.777 3.945c-3.907 2.954-7.707 6.063-11.416 9.098a1189 1189 0 0 1-3.895 3.175h.365c1.235-1.003 2.461-2.005 3.675-2.997 3.736-3.056 7.563-6.188 11.497-9.159a97 97 0 0 0 6.204 2.909c-2.828 1.798-5.134 4.584-6.528 7.966-.174.424-.327.851-.468 1.281h.243c.133-.401.275-.798.438-1.193 1.398-3.392 3.722-6.175 6.572-7.945 5.78 2.455 11.459 4.278 16.341 5.722l.183.054c2.057.609 4.161 1.232 6.022 2.233l.155-.178c-1.891-1.026-4.025-1.658-6.112-2.275l-.184-.054c-4.831-1.43-10.445-3.23-16.163-5.649a14.3 14.3 0 0 1 2.332-1.117c5.958-2.207 12.565-.8 18.393.442M21.746 99.895c1.014 4.151.561 8.635-1.242 12.302-1.181 2.401-2.887 4.574-4.988 6.442q.062.097.127.194c2.135-1.892 3.868-4.097 5.067-6.535 1.827-3.714 2.285-8.255 1.258-12.458-.802-3.284-2.415-6.065-4.644-8.078l-.148.176c2.192 1.982 3.779 4.721 4.57 7.957"/><path fill="#F7F0E3" d="M73.72 47.302c2 2.043 2.897 5.487 1.794 8.663-1.068 3.074-3.409 5.62-6.222 7.258-2.263 1.317-5.216 2.044-7.442.664-1.663-1.03-2.525-3.053-2.573-5.009s.61-3.863 1.423-5.643c1.146-2.509 2.688-4.941 4.986-6.467 3.168-2.104 6.111-1.432 8.034.533"/><path fill="#E49B31" d="M131.864 55.605c-.758-2.5-2.093-4.794-4.003-6.891q-2.87-3.146-7.831-5.2-4.959-2.054-12.604-2.054-6.097 0-12.428 1.63Q88.66 44.724 84 47.746l4.046 11.004-2.169 1.74 3.145.916q4.656-2.414 8.485-3.506 3.82-1.087 8.126-1.087 4.3 0 6.512 2.055c1.474 1.373 2.21 3.022 2.21 4.959 0 2.338-.759 4.411-2.268 6.226a90 90 0 0 1-5.022 5.502 86 86 0 0 0-3.704 3.987 28.6 28.6 0 0 0-3.166 4.416 24 24 0 0 0-2.21 5.077c-.56 1.814-.836 3.849-.836 6.104a61 61 0 0 0 .086 3.147h-2.973l3.245 2.174h15.774a10 10 0 0 1-.121-1.692v-1.453q0-2.055.837-4.05a21 21 0 0 1 2.093-3.81 28 28 0 0 1 2.808-3.443 212 212 0 0 1 2.988-3.085 197 197 0 0 0 3.941-4.11 32.4 32.4 0 0 0 3.586-4.592 25.7 25.7 0 0 0 2.568-5.263q1.017-2.838 1.019-6.225-.002-3.384-1.136-7.132"/><path fill="#FBC343" d="M102.191 56.292q-4.217 0-7.96 1.05-3.75 1.055-8.311 3.388L81 47.532q4.566-2.919 10.773-4.498 6.202-1.575 12.175-1.574 7.489 0 12.347 1.985 4.858 1.984 7.671 5.022 2.806 3.039 3.921 6.658 1.112 3.623 1.113 6.89-.002 3.272-.998 6.015a24.7 24.7 0 0 1-2.515 5.084 31.4 31.4 0 0 1-3.514 4.437 189 189 0 0 1-3.86 3.97q-1.407 1.401-2.927 2.981a27 27 0 0 0-2.751 3.327 20 20 0 0 0-2.05 3.68q-.82 1.928-.82 3.912v1.404a9.7 9.7 0 0 0 .119 1.635H94.231q-.239-1.169-.294-2.627a59 59 0 0 1-.057-2.514q-.002-3.268.82-5.897a23 23 0 0 1 2.164-4.905 27.7 27.7 0 0 1 3.102-4.266 85 85 0 0 1 3.628-3.852 87 87 0 0 0 4.92-5.315q2.219-2.629 2.221-6.016c0-1.87-.72-3.463-2.164-4.79q-2.166-1.986-6.38-1.986"/><path fill="#E49B31" d="M115 115.911q0 4.093-2.759 6.319-2.759 2.232-6.241 2.23-3.486.002-6.243-2.23Q97 120.003 97 115.911q0-4.087 2.757-6.319c2.831-2.295 7.021-2.807 10.337-1.196 2.941 1.43 4.906 4.332 4.906 7.515"/><path fill="#FBC343" d="M112 115.96q0 4.069-2.759 6.283-2.759 2.219-6.241 2.217-3.486.002-6.243-2.217Q94 120.029 94 115.96q0-4.064 2.757-6.283c1.84-1.477 3.918-2.217 6.243-2.217q3.482 0 6.241 2.217Q112 111.896 112 115.96"/><path fill="#D3DFFF" d="M45.934 53.28a2.402 2.402 0 1 1-3.965 2.713 2.402 2.402 0 0 1 3.965-2.713m1.526 6.31a1.356 1.356 0 0 1-1.587 1.077 1.356 1.356 0 0 1-1.088-1.579 1.355 1.355 0 0 1 1.586-1.076 1.355 1.355 0 0 1 1.089 1.578m-.14-15.306a9.458 9.458 0 1 1-18.59-3.486 9.458 9.458 0 0 1 18.59 3.486"/><path fill="#fff" d="M35.584 42.541a1.192 1.192 0 1 1-2.384 0 1.192 1.192 0 0 1 2.384 0m3.631 0a1.192 1.192 0 1 1-2.383 0 1.192 1.192 0 0 1 2.383 0m3.632 0a1.192 1.192 0 1 1-2.383 0 1.192 1.192 0 0 1 2.383 0"/><path fill="#102048" d="m31.249 119.951.884 3.407c.23.889 1.089 1.489 2.04 1.424 2.897-.196 8.917-.906 12.372-3.453l-.982-4.909c-4.75-.27-9.194-.005-13.04 1.29-.964.324-1.521 1.29-1.274 2.241"/><path fill="#fff" d="M36.786 122.663a.115.115 0 0 1-.11-.084l-1.187-4.248a.114.114 0 0 1 .08-.141.113.113 0 0 1 .14.08l1.187 4.248a.114.114 0 0 1-.11.145m2.564-.574a.115.115 0 0 1-.11-.084l-1.187-4.248a.115.115 0 1 1 .221-.062l1.187 4.249a.115.115 0 0 1-.11.145"/><path fill="#FBC343" d="m42.328 101.536-11.041 3.277 8.2 11.235 11.772.936 16.237-6.865-6.17-9.285z"/><path fill="#FBC343" d="M55.94 103.096c24.249-7.177 28.147 14.253-9.687 18.154-1.337-1.504-2.899-4.113-3.519-6.294l19.98-9.233z"/><path fill="#F9B384" d="M56.97 118.455c-1.133-.363-2.22-1.08-2.22-1.08l-3.897 1.222.893 4.24 4.048.822c1.234-2.255 1.306-4.108 1.177-5.204"/><path fill="#E49B31" d="m42.82 115.105-.172-.298c4.168-2.422 14.844-8.242 23.94-9.958l.064.339c-9.044 1.706-19.678 7.504-23.831 9.917"/><path fill="#FBC343" d="M42.328 101.536c-22.57-4.291-28.416 17.399 9.418 21.3a13.74 13.74 0 0 0 3.004-5.461c-5.812-3.889-12.31-7.585-19.431-11.106z"/><path fill="#E49B31" d="M54.658 117.52a540 540 0 0 1-3.377-2.171c-5.946-3.838-12.685-8.189-18.41-10.67l.137-.316c5.751 2.492 12.503 6.851 18.46 10.697a611 611 0 0 0 3.374 2.17zm-28.89-5.229-.301-.167c.847-1.534 2.204-2.568 4.033-3.074l.092.331c-1.76.488-3.011 1.44-3.823 2.91m47.108-1.306c-.812-1.469-2.063-2.421-3.824-2.91l.092-.331c1.83.507 3.186 1.541 4.034 3.075z"/><path fill="#E49B31" d="m49.633 122.646-.252-.235c1.805-1.933 2.914-3.975 3.39-6.24l.337.07c-.489 2.329-1.626 4.424-3.475 6.405"/><path fill="#102048" d="M68.227 117.193c-2.892-1.787-8.498 1.301-9.905 1.456-.41.046-.885-.044-1.351-.194.129 1.096.057 2.949-1.177 5.204l.688.139s4.754 1.744 9.797.729c4.655-.936 4.222-5.93 1.948-7.334"/><path fill="#fff" d="M64.286 123.037a.1.1 0 0 1-.035-.006.114.114 0 0 1-.075-.144c.344-1.088.494-3.228-.501-4.666a.114.114 0 0 1 .029-.159.115.115 0 0 1 .16.029c1.041 1.505.888 3.734.531 4.865a.12.12 0 0 1-.11.081m-2.268.43a.1.1 0 0 1-.035-.006.113.113 0 0 1-.075-.143c.344-1.089.494-3.228-.501-4.665a.115.115 0 1 1 .188-.131c1.043 1.505.89 3.734.532 4.865a.114.114 0 0 1-.11.08"/><path fill="#F9B384" d="M38.335 73.569s5.685-4.834 5.474-5.752c-.15-.657-1.76.306-1.76.306s2.258-2.679 2.143-3.005c-.205-.58-1.767.502-1.767.502s1.056-1.519.55-1.766c-.504-.248-1.604.689-1.604.689s.643-.844.34-1.066c-.301-.221-1.604.69-1.604.69s.467-1.064-.526-.661-7.958 6.795-7.958 6.795z"/><path fill="#E28B6D" d="M40.66 67.836a.12.12 0 0 1-.077-.03c-.975-.891-1.405-1.108-2.482-1.44a.115.115 0 1 1 .068-.218c1.115.342 1.56.566 2.57 1.488a.115.115 0 0 1-.078.2m-1.712 2.621h-.016a.115.115 0 0 1-.097-.13c.111-.8.363-1.299.769-1.527.347-.195.798-.175 1.342.06a.115.115 0 0 1-.091.21c-.474-.204-.857-.228-1.139-.07-.334.188-.554.645-.654 1.358a.115.115 0 0 1-.114.1m-.268-4.831a.12.12 0 0 1-.083-.037.114.114 0 0 1 .005-.161l1.426-1.345a.115.115 0 0 1 .157.167l-1.426 1.344a.1.1 0 0 1-.079.032m1.32.459a.115.115 0 0 1-.083-.195l1.37-1.427a.114.114 0 0 1 .163-.004.115.115 0 0 1 .003.163l-1.37 1.427a.11.11 0 0 1-.082.036m1.35.804a.115.115 0 0 1-.084-.194l1.075-1.153a.115.115 0 0 1 .162-.005.114.114 0 0 1 .006.161l-1.075 1.154a.12.12 0 0 1-.084.037"/><path fill="#3A6BEA" d="m59.807 105.899-20.782.804-2.297-18.946s6.958-6.6 9.635-9.03l4.519-.231c14.02 6.372 11.724 14.332 8.925 27.403"/><path fill="#3A6BEA" d="M50.882 78.496s16.04 1.371 21.097 12.361c4.948 10.753-15.386 14.582-15.386 14.582zM32.547 80.85l6.628-8.066-6.198-3.757c-2.586 1.799-7.586 5.871-11.823 10.482-.935 1.018-1.666 2.207-2.034 3.516a7.6 7.6 0 0 0-.194 3.3c.46 2.816 2.675 4.99 5.631 5.336 2.526.296 12.171-.46 19.98-2.756l2.296-8.863c-1.18-.67-9.95-.786-14.286.808"/><path fill="#D8E1FB" d="M59.73 83.62c-1.053 0-2.581-.236-3.139-1.507-.368-.839-.109-1.762.296-2.42l.172.049c-.395.62-.66 1.506-.31 2.302.519 1.183 1.967 1.404 2.977 1.404.355 0 .656-.027.844-.05 1.195-.144 2.408-.42 3.583-.692l.218.127-.103.024c-1.204.277-2.448.564-3.678.712a7 7 0 0 1-.86.051m8.036 17.639c-.813-1.029-1.24-2.198-1.188-3.313.076-1.637 1.325-3.08 2.785-3.219q.135-.012.269-.012c.734 0 1.438.272 2.121.536.274.105.551.212.832.303q-.02.084-.042.167a15 15 0 0 1-.852-.31c-.697-.269-1.36-.524-2.057-.524q-.127 0-.255.012c-1.377.13-2.557 1.5-2.629 3.054-.05 1.08.367 2.215 1.162 3.214zm-44.322-9.825c-.06-.017-.118-.04-.177-.059.9-1.033 2.207-1.814 3.732-2.209a6.7 6.7 0 0 1 1.667-.223c1.033 0 1.939.283 2.601.83.494.41.836.94 1.08 1.507l-.177.02c-.234-.528-.557-1.017-1.012-1.393-.632-.523-1.499-.792-2.491-.792-.513 0-1.06.072-1.625.218-1.464.379-2.724 1.12-3.598 2.101m-1.23-13.052.225-.232c1.77-.458 3.493-1.093 5.086-2.01.622-.36 1.325-.816 1.813-1.478.506-.687.675-1.5.454-2.175a1.7 1.7 0 0 0-.436-.683l.132-.108c.208.201.374.451.467.737.24.727.06 1.599-.479 2.332-.507.688-1.227 1.157-1.865 1.524-1.69.973-3.52 1.628-5.397 2.093"/><path fill="#F9B384" d="m52.35 74.284-.003.293-.047 4.568-.006.496a2.84 2.84 0 0 1-.838 1.985 2.843 2.843 0 0 1-4.85-1.988l-.056-5.646z"/><path fill="#102048" d="m52.347 74.577-.047 4.568c-2.539-1.033-3.584-3.781-3.584-3.781z"/><path fill="#F9B384" d="M53.351 66.606c.91 1.092 3.567 7.279.874 9.39-3.03 2.375-7.643-1.529-7.643-1.529l-.619-7.206 4.004-1.055z"/><path fill="#102048" d="M43.924 66.21s-8.88 4.63-1.64 17.98c.93 1.714 2.99 2.463 4.752 1.626 1.89-.897 2.606-3.207 1.58-5.03-1.185-2.104-2.328-4.813-1.84-6.829z"/><path fill="#FBC343" d="M47.164 68.401a2.402 2.402 0 1 1-4.803.001 2.402 2.402 0 0 1 4.803 0"/><path fill="#102048" d="M47.717 71.287c-.26-1.498-.418-2.526 1.097-3.298 0 0 5.338.97 6.357-1.043s-.534-5.193-3.785-2.984c-8.322-1.626-9.438 6.162-6.915 8.758l2.49-.382a.907.907 0 0 0 .756-1.05m4.488.005a.355.355 0 1 1-.71 0 .355.355 0 0 1 .71 0m2.402-1.184a.355.355 0 1 1-.71.001.355.355 0 0 1 .71 0m-.6 2.276a.1.1 0 0 1-.074-.17c.143-.15.299-.36.233-.513-.068-.159-.356-.227-.487-.227-.283 0-.42-.504-.444-.605a.1.1 0 0 1 .074-.121.1.1 0 0 1 .122.074c.051.213.168.451.248.451.135 0 .55.064.672.348q.13.308-.272.732a.1.1 0 0 1-.073.03m.017 1.347a.1.1 0 0 1-.056-.018c-.668-.451-1.342-.073-1.35-.069a.1.1 0 0 1-.1-.174c.033-.019.792-.444 1.563.077a.1.1 0 0 1-.057.184"/><path fill="#102048" d="M51.695 69.755c.202.38-.15.456-.562.675s-.835.3-.93.118c-.097-.181.159-.506.571-.725s.764-.362.92-.068m1.503-.686c.088.339.341.19.71.094.367-.096.664-.28.622-.442s-.375-.216-.743-.119c-.368.096-.658.204-.59.467"/><path fill="#F39176" d="M50.212 73.994a1.046 1.046 0 1 1 0-2.092 1.046 1.046 0 0 1 0 2.092"/><path fill="#F9B384" d="M47.105 71.83c.704.543.887 1.486.409 2.106s-1.437.68-2.14.137c-.705-.543-.888-1.486-.41-2.105.478-.62 1.437-.682 2.14-.138"/><path fill="#102048" d="M46.861 73.476a.1.1 0 0 1-.1-.1.88.88 0 0 0-.387-.734.71.71 0 0 0-.66-.087.1.1 0 0 1-.076-.187.91.91 0 0 1 .848.108c.298.2.476.536.476.9a.1.1 0 0 1-.1.1M29.005 84.85l-.169-.156 3.626-3.922.169.156zm28.999 12.777-.067-.22c2.64-.804 5.2-1.766 7.522-4.67l.18.144c-2.363 2.954-4.96 3.93-7.635 4.746"/><path fill="#D3DFFF" d="M59.609 88.735H37.157c-.807 0-1.462.708-1.462 1.58v16.03c0 .874.655 1.582 1.462 1.582H59.61c.807 0 1.462-.708 1.462-1.582v-16.03c0-.872-.655-1.58-1.462-1.58"/><path fill="#1F3C88" d="M49.568 96.858h-2.37a.62.62 0 0 0-.614.627v1.692a.62.62 0 0 0 .614.626h2.37a.62.62 0 0 0 .614-.626v-1.692a.62.62 0 0 0-.614-.627m0 .46c.085 0 .154.074.154.167v1.692c0 .092-.069.167-.154.167h-2.37c-.086 0-.155-.075-.155-.167v-1.692c0-.093.07-.167.155-.167z"/></svg>