<svg xmlns="http://www.w3.org/2000/svg" fill="none" viewBox="0 0 157 157"><path fill="#F7F0E3" d="M142.82 91.5a21.8 21.8 0 0 0-11.57-11.3c-5.32-2.15-11.43-1.37-17.03-2.1-4.87-.62-8.38-2.8-11.28-6.65-2.79-3.7-5.28-7.8-9.84-9.52-3.6-1.35-7.68-.97-11.26.44-6.58 2.6-11.56 8.12-15.75 13.62-3.83 5.02-6.95 10.52-14.02 10.7-3.2.08-6.34-.7-9.47-1.48-3.8-.95-7.58-1.9-11.49-1.3-9.42 1.4-17.27 9.25-18.91 18.59-1.54 8.75 2.33 17.24 8.97 22.23h114.2c8.37-8.88 12.76-21.15 7.45-33.22"/><path fill="#fff" d="M39.6 124.73h.3c2.19-2.4 3.9-5.3 4.98-8.54a22.4 22.4 0 0 0-.2-15.45A45 45 0 0 0 41 93.96a44 44 0 0 1-3.7-6.87 15 15 0 0 1-.87-3.17l-.23-.03q.26 1.72.88 3.29a44 44 0 0 0 3.72 6.9c1.33 2.15 2.71 4.38 3.66 6.75a22.2 22.2 0 0 1 .2 15.29 24 24 0 0 1-5.07 8.61m95.23-9.96c2.35.5 4.62.95 6.81 1.23l.11-.21a85 85 0 0 1-6.88-1.24c-3.61-.78-7.53-1.61-11.42-1.61-2.4 0-4.8.32-7.1 1.17q-1.3.5-2.51 1.23a98 98 0 0 1-6.24-2.92 154 154 0 0 1 4.56-3.31c11.38-7.95 21.9-12.46 32.05-13.74l-.07-.22c-10.18 1.29-20.7 5.8-32.12 13.77a159 159 0 0 0-4.65 3.38 77 77 0 0 1-6.85-3.98 60 60 0 0 1-13.03-11.44c16.25-1.82 32.8-4.12 46.31-13.15a29 29 0 0 0 1.67-1.2l-.2-.15a29 29 0 0 1-1.6 1.16c-13.5 9.03-30.09 11.3-46.36 13.13A45 45 0 0 1 79.85 84c-2.87-7.6-2.72-15.05.41-20.45q.2-.35.43-.7l-.39.2-.24.39c-3.16 5.46-3.32 12.98-.43 20.64a45 45 0 0 0 7.4 12.62l-2.83.3c-3.39.38-6.89.76-10.3 1.2a69 69 0 0 0-3.76.58c-2.69-5.69-5.65-11.23-9.48-16l-.16.17c3.8 4.72 6.73 10.23 9.41 15.88-5.48 1.04-10.8 3-13.65 7.58-2.65 4.27-2.65 10.18.01 17.55l.28.76h.25l-.31-.84c-2.64-7.3-2.65-13.14-.03-17.35 2.8-4.52 8.1-6.46 13.55-7.5q1.42 3.03 2.79 6.07l.1.22c3.17 7 6.45 13.75 10.74 19.4h.29c-4.34-5.66-7.63-12.45-10.83-19.5L73 105a402 402 0 0 0-2.75-6 68 68 0 0 1 3.69-.57c3.4-.44 6.9-.82 10.29-1.2l2.97-.33a60 60 0 0 0 13.18 11.6 77 77 0 0 0 6.78 3.95 380 380 0 0 0-11.41 9.1l-3.9 3.17h.37l3.67-3c3.74-3.05 7.56-6.18 11.5-9.16a97 97 0 0 0 6.2 2.91 17 17 0 0 0-7 9.25h.25q.19-.6.44-1.2a17 17 0 0 1 6.57-7.94 152 152 0 0 0 16.34 5.72l.18.06c2.06.6 4.16 1.23 6.02 2.23l.16-.18a32 32 0 0 0-6.11-2.27l-.19-.06a152 152 0 0 1-16.16-5.64 14 14 0 0 1 2.33-1.12c5.96-2.2 12.57-.8 18.4.44M21.75 99.9a18.4 18.4 0 0 1-1.25 12.3 21 21 0 0 1-4.98 6.44l.12.2c2.14-1.9 3.87-4.1 5.07-6.54a18.6 18.6 0 0 0 1.26-12.46 16 16 0 0 0-4.65-8.08l-.14.18a15.6 15.6 0 0 1 4.57 7.96"/><path fill="#F7F0E3" d="M73.72 47.3a8.6 8.6 0 0 1 1.8 8.67 14 14 0 0 1-6.23 7.25c-2.26 1.32-5.21 2.05-7.44.67-1.66-1.03-2.52-3.06-2.57-5.01s.6-3.86 1.42-5.64c1.15-2.51 2.69-4.95 4.99-6.47 3.16-2.1 6.1-1.43 8.03.53"/><path fill="#E49B31" d="M131.86 55.6q-1.13-3.74-4-6.89t-7.83-5.2-12.6-2.05q-6.1 0-12.43 1.63t-11 4.66l4.05 11-2.17 1.74 3.14.92q4.66-2.42 8.49-3.51 3.82-1.09 8.12-1.09t6.52 2.06a6.5 6.5 0 0 1 2.2 4.96q0 3.5-2.26 6.22a90 90 0 0 1-5.03 5.5 86 86 0 0 0-3.7 4 29 29 0 0 0-3.16 4.4 24 24 0 0 0-2.21 5.08 21 21 0 0 0-.84 6.1 61 61 0 0 0 .09 3.16h-2.98l3.25 2.17h15.77a10 10 0 0 1-.12-1.7v-1.45q0-2.05.84-4.05a21 21 0 0 1 2.09-3.8 28 28 0 0 1 2.8-3.45 212 212 0 0 1 3-3.08 197 197 0 0 0 3.94-4.11 32 32 0 0 0 3.58-4.6 26 26 0 0 0 2.57-5.26q1.02-2.84 1.02-6.22 0-3.39-1.14-7.13"/><path fill="#FBC343" d="M102.2 56.3q-4.23 0-7.97 1.04-3.75 1.06-8.31 3.39L81 47.53q4.57-2.92 10.77-4.5 6.2-1.57 12.18-1.57 7.49 0 12.34 1.99 4.86 1.98 7.68 5.02 2.8 3.04 3.92 6.66 1.1 3.62 1.11 6.88 0 3.28-1 6.02a25 25 0 0 1-2.51 5.08 31 31 0 0 1-3.52 4.44 189 189 0 0 1-3.86 3.97q-1.4 1.4-2.92 2.98a27 27 0 0 0-2.75 3.33 20 20 0 0 0-2.05 3.68q-.82 1.93-.82 3.91v1.4a10 10 0 0 0 .11 1.64H94.23q-.24-1.17-.3-2.63a59 59 0 0 1-.05-2.51q0-3.27.82-5.9a23 23 0 0 1 2.16-4.9 28 28 0 0 1 3.1-4.27 85 85 0 0 1 3.63-3.85 87 87 0 0 0 4.92-5.32q2.22-2.62 2.22-6.01 0-2.8-2.16-4.8-2.16-1.98-6.38-1.98"/><path fill="#E49B31" d="M115 115.91q0 4.1-2.76 6.32t-6.24 2.23q-3.49 0-6.24-2.23T97 115.91t2.76-6.32a9.9 9.9 0 0 1 10.33-1.2 8.5 8.5 0 0 1 4.91 7.52"/><path fill="#FBC343" d="M112 115.96q0 4.07-2.76 6.28-2.76 2.22-6.24 2.22t-6.24-2.22-2.76-6.28 2.76-6.28a9.7 9.7 0 0 1 6.24-2.22q3.48 0 6.24 2.22t2.76 6.28"/><path fill="#D3DFFF" d="M45.93 53.28a2.4 2.4 0 1 1-3.96 2.71 2.4 2.4 0 0 1 3.96-2.71m1.53 6.31a1.36 1.36 0 0 1-1.59 1.08 1.36 1.36 0 0 1-1.08-1.58A1.36 1.36 0 0 1 46.36 58a1.36 1.36 0 0 1 1.09 1.58m-.14-15.3a9.46 9.46 0 1 1-18.59-3.5 9.46 9.46 0 0 1 18.59 3.5"/><path fill="#fff" d="M35.58 42.54a1.2 1.2 0 1 1-2.38 0 1.2 1.2 0 0 1 2.38 0m3.64 0a1.2 1.2 0 1 1-2.39 0 1.2 1.2 0 0 1 2.39 0m3.63 0a1.2 1.2 0 1 1-2.39 0 1.2 1.2 0 0 1 2.39 0"/><path fill="#102048" d="m31.25 119.95.88 3.4a1.95 1.95 0 0 0 2.04 1.43c2.9-.2 8.92-.9 12.37-3.45l-.98-4.91c-4.75-.27-9.2 0-13.04 1.29a1.9 1.9 0 0 0-1.27 2.24"/><path fill="#fff" d="M36.79 122.66a.1.1 0 0 1-.11-.08l-1.2-4.25a.1.1 0 0 1 .09-.14.1.1 0 0 1 .14.08l1.19 4.25a.1.1 0 0 1-.11.14m2.56-.57a.1.1 0 0 1-.11-.09l-1.19-4.24a.12.12 0 1 1 .22-.07l1.2 4.25a.12.12 0 0 1-.12.15"/><path fill="#FBC343" d="m42.33 101.54-11.04 3.27 8.2 11.24 11.77.93 16.24-6.86-6.17-9.29z"/><path fill="#FBC343" d="M55.94 103.1c24.25-7.18 28.15 14.25-9.69 18.15a18 18 0 0 1-3.52-6.3l19.98-9.23z"/><path fill="#F9B384" d="M56.97 118.46c-1.13-.37-2.22-1.08-2.22-1.08l-3.9 1.22.9 4.24 4.04.82a8.7 8.7 0 0 0 1.18-5.2"/><path fill="#E49B31" d="m42.82 115.1-.17-.3c4.17-2.41 14.84-8.23 23.94-9.95l.06.34c-9.04 1.7-19.68 7.5-23.83 9.92"/><path fill="#FBC343" d="M42.33 101.54c-22.57-4.3-28.42 17.4 9.42 21.3a14 14 0 0 0 3-5.47 172 172 0 0 0-19.43-11.1z"/><path fill="#E49B31" d="m54.66 117.52-3.38-2.17c-5.95-3.84-12.68-8.19-18.4-10.67l.13-.32c5.75 2.5 12.5 6.85 18.46 10.7l3.37 2.17zm-28.9-5.23-.3-.17a6.3 6.3 0 0 1 4.04-3.07l.1.33a6 6 0 0 0-3.83 2.91m47.1-1.3a6 6 0 0 0-3.82-2.91l.1-.34a6.3 6.3 0 0 1 4.03 3.08z"/><path fill="#E49B31" d="m49.63 122.65-.25-.24a13 13 0 0 0 3.4-6.24l.33.07a13 13 0 0 1-3.48 6.4"/><path fill="#102048" d="M68.23 117.2c-2.9-1.8-8.5 1.3-9.9 1.45q-.65.04-1.36-.2a8.7 8.7 0 0 1-1.18 5.2l.7.15s4.75 1.74 9.79.73a4.08 4.08 0 0 0 1.95-7.34"/><path fill="#fff" d="M64.29 123.04h-.04a.1.1 0 0 1-.07-.15c.34-1.1.49-3.23-.5-4.67a.1.1 0 0 1 .02-.16.12.12 0 0 1 .16.03c1.05 1.5.9 3.73.54 4.87a.1.1 0 0 1-.11.08m-2.27.43h-.04a.1.1 0 0 1-.07-.15c.34-1.1.5-3.23-.5-4.67a.12.12 0 1 1 .18-.13c1.05 1.5.9 3.74.54 4.87a.1.1 0 0 1-.11.08"/><path fill="#F9B384" d="M38.34 73.57s5.68-4.83 5.47-5.75c-.15-.66-1.76.3-1.76.3s2.26-2.68 2.14-3c-.2-.58-1.76.5-1.76.5s1.05-1.52.54-1.77c-.5-.24-1.6.7-1.6.7s.64-.85.34-1.07-1.6.69-1.6.69.46-1.07-.53-.66-7.96 6.8-7.96 6.8z"/><path fill="#E28B6D" d="m40.66 67.84-.08-.03a5 5 0 0 0-2.48-1.44.12.12 0 1 1 .07-.22 5.4 5.4 0 0 1 2.57 1.49.12.12 0 0 1-.08.2m-1.71 2.62h-.02a.12.12 0 0 1-.1-.13q.17-1.2.77-1.53.52-.3 1.35.06a.12.12 0 0 1-.1.21q-.7-.3-1.13-.07-.51.29-.66 1.36a.1.1 0 0 1-.11.1m-.27-4.83-.08-.04a.1.1 0 0 1 0-.16l1.43-1.35a.12.12 0 0 1 .16.17l-1.43 1.34a.1.1 0 0 1-.08.04m1.32.46a.12.12 0 0 1-.08-.2l1.37-1.43a.1.1 0 0 1 .16 0 .1.1 0 0 1 0 .16l-1.37 1.43zm1.35.8a.12.12 0 0 1-.08-.2l1.07-1.15a.1.1 0 0 1 .16 0 .1.1 0 0 1 .01.16l-1.07 1.15a.1.1 0 0 1-.09.04"/><path fill="#3A6BEA" d="m59.8 105.9-20.77.8-2.3-18.94s6.96-6.6 9.63-9.03l4.52-.23c14.02 6.37 11.73 14.33 8.93 27.4"/><path fill="#3A6BEA" d="M50.88 78.5s16.04 1.37 21.1 12.36c4.95 10.75-15.39 14.58-15.39 14.58zm-18.33 2.35 6.63-8.07-6.2-3.75A81 81 0 0 0 21.15 79.5a9 9 0 0 0-2.03 3.51 8 8 0 0 0-.2 3.3 6.4 6.4 0 0 0 5.64 5.34c2.52.3 12.17-.46 19.98-2.76l2.3-8.86c-1.19-.67-9.96-.78-14.3.81"/><path fill="#D8E1FB" d="M59.73 83.62c-1.05 0-2.58-.24-3.14-1.5-.37-.85-.1-1.77.3-2.43l.17.05c-.4.62-.66 1.5-.31 2.3.52 1.19 1.97 1.4 2.98 1.4q.54 0 .84-.04c1.2-.15 2.4-.42 3.58-.7l.22.13-.1.03c-1.2.27-2.45.56-3.68.7a7 7 0 0 1-.86.06m8.04 17.64a5 5 0 0 1-1.2-3.31c.08-1.64 1.33-3.08 2.8-3.22l.26-.01a6 6 0 0 1 2.12.53q.41.16.84.3l-.05.17-.85-.3a6 6 0 0 0-2.06-.53h-.25c-1.38.14-2.56 1.5-2.63 3.06a5 5 0 0 0 1.16 3.22zm-44.33-9.83-.17-.05A7.4 7.4 0 0 1 27 89.17a7 7 0 0 1 1.67-.23c1.03 0 1.94.29 2.6.83.5.41.83.94 1.08 1.51l-.18.02a4 4 0 0 0-1.01-1.4 4 4 0 0 0-2.5-.78q-.76 0-1.62.21a7 7 0 0 0-3.6 2.1m-1.23-13.05.23-.23c1.77-.46 3.5-1.1 5.09-2.01a6 6 0 0 0 1.8-1.48c.51-.68.68-1.5.46-2.17a2 2 0 0 0-.43-.69l.13-.1q.31.3.47.73c.24.73.06 1.6-.48 2.33a6 6 0 0 1-1.87 1.53 21 21 0 0 1-5.4 2.1"/><path fill="#F9B384" d="M52.35 74.28v.3l-.05 4.57v.5a2.8 2.8 0 0 1-.84 1.98 2.84 2.84 0 0 1-4.85-2L46.55 74z"/><path fill="#102048" d="m52.35 74.58-.05 4.56c-2.54-1.03-3.58-3.78-3.58-3.78z"/><path fill="#F9B384" d="M53.35 66.6c.91 1.1 3.57 7.29.87 9.4-3.02 2.37-7.64-1.53-7.64-1.53l-.62-7.2 4-1.06z"/><path fill="#102048" d="M43.92 66.21s-8.88 4.63-1.64 17.98a3.64 3.64 0 0 0 4.76 1.63 3.6 3.6 0 0 0 1.58-5.03c-1.19-2.1-2.33-4.82-1.84-6.83z"/><path fill="#FBC343" d="M47.16 68.4a2.4 2.4 0 1 1-4.8 0 2.4 2.4 0 0 1 4.8 0"/><path fill="#102048" d="M47.72 71.29c-.26-1.5-.42-2.53 1.1-3.3 0 0 5.33.97 6.35-1.04s-.53-5.2-3.78-2.99c-8.33-1.62-9.44 6.16-6.92 8.76l2.5-.38a.9.9 0 0 0 .75-1.05m4.49 0a.36.36 0 1 1-.72 0 .36.36 0 0 1 .71 0m2.4-1.18a.36.36 0 1 1-.7 0 .36.36 0 0 1 .7 0m-.6 2.28a.1.1 0 0 1-.07-.17c.15-.15.3-.36.24-.52-.07-.16-.36-.22-.5-.22-.27 0-.41-.5-.44-.6a.1.1 0 0 1 .08-.13.1.1 0 0 1 .12.07c.05.22.17.45.25.45.13 0 .55.07.67.35q.13.31-.27.73zm.01 1.35-.05-.02c-.67-.45-1.35-.07-1.35-.07a.1.1 0 0 1-.1-.17c.03-.02.79-.44 1.56.08a.1.1 0 0 1-.06.18"/><path fill="#102048" d="M51.7 69.76c.2.37-.16.45-.57.67s-.83.3-.93.12.16-.5.57-.73.77-.36.92-.06m1.5-.7c.1.35.35.2.72.1.36-.1.66-.28.62-.44s-.38-.22-.74-.12c-.37.1-.66.2-.6.47"/><path fill="#F39176" d="M50.21 74a1.05 1.05 0 1 1 0-2.1 1.05 1.05 0 0 1 0 2.1"/><path fill="#F9B384" d="M47.1 71.83c.7.54.9 1.49.41 2.1s-1.43.69-2.14.14c-.7-.54-.88-1.48-.4-2.1.47-.62 1.43-.68 2.13-.14"/><path fill="#102048" d="M46.86 73.48a.1.1 0 0 1-.1-.1.9.9 0 0 0-.39-.74.7.7 0 0 0-.66-.08.1.1 0 0 1-.07-.2.9.9 0 0 1 .85.12c.3.2.47.53.47.9a.1.1 0 0 1-.1.1M29.01 84.85l-.17-.16 3.62-3.92.17.16zm29 12.78-.07-.22c2.64-.8 5.2-1.77 7.52-4.67l.18.14c-2.36 2.96-4.96 3.93-7.64 4.75"/><path fill="#D3DFFF" d="M59.6 88.74H37.17c-.81 0-1.46.7-1.46 1.58v16.03c0 .87.65 1.58 1.46 1.58H59.6c.8 0 1.46-.71 1.46-1.59V90.32c0-.87-.65-1.58-1.46-1.58"/><path fill="#1F3C88" d="M49.57 96.86H47.2a.6.6 0 0 0-.62.63v1.69a.6.6 0 0 0 .62.62h2.37a.6.6 0 0 0 .61-.62v-1.7a.6.6 0 0 0-.61-.62m0 .46q.14.01.15.17v1.69q-.02.15-.15.16H47.2q-.15-.01-.16-.16v-1.7q.01-.15.16-.16z"/></svg>