<svg xmlns="http://www.w3.org/2000/svg" width="100" height="100" fill="none"><g clip-path="url(#a)"><path fill="#76879C" d="M65.64 24.197c.374-.22.893-.188 1.467.144l26.93 15.56c1.143.656 2.063 2.257 2.06 3.568l-.088 30.964c-.003.654-.231 1.112-.604 1.329l3.902-2.27c.373-.215.605-.676.605-1.326L100 41.2c.006-1.313-.917-2.911-2.057-3.57L71.01 22.07c-.574-.332-1.093-.362-1.468-.144z"/><path fill="#5A667A" d="m99.999 41.204-.084 30.967c0 .646-.24 1.105-.605 1.324l-3.907 2.273c.376-.22.605-.678.605-1.335l.093-30.967c0-1.303-.917-2.909-2.063-3.565l3.907-2.274c1.137.668 2.064 2.262 2.054 3.577"/><path fill="#ABBBC6" d="M64.948 56.49c-.003 1.31.917 2.909 2.06 3.568l26.93 15.56c1.14.66 2.07.129 2.072-1.185l.087-30.964c.003-1.31-.917-2.912-2.06-3.568l-26.93-15.56c-1.14-.66-2.07-.13-2.071 1.184z"/><path fill="#76879C" d="M68.596 57.315c-.199-.153-.442-.568-.481-.816l.079-27.87 24.26 14.018c.197.153.437.565.472.76l.004.026-.079 27.896zM91.53 43.48l-22.153-12.8-.078 25.428c.023.085.177.339.219.374l22.15 12.797.072-25.445a1.6 1.6 0 0 0-.21-.354"/><path fill="#76879C" d="m73.717 54.76 12.789 7.383c3.124-3.113 3.14-9.78.04-16.489l-12.774-7.397c-3.125 3.127-3.153 9.794-.055 16.502"/><path fill="#DBE9F3" d="m77.572 42.712 4.867 2.811-.007 3.013-4.86-2.808zm0 9.225 4.867 2.812-.007 3.012-4.86-2.807z"/><path fill="#fff" d="m69.327 48.809.002.577c0-.388.795-.573 1.258-.304.147.086.22.195.22.304l-.001-.577c0-.394-.816-.563-1.251-.312-.153.088-.228.2-.228.312"/><path fill="#C9CEE2" d="M72.837 48.35v.581c0 .239.38-.142-11.288 6.643a.78.78 0 0 1-.728 0l-1.46-.85c-.105-.057-.155-.135-.155-.213v-.574c0 .07.05.15.149.213l1.465.85a.82.82 0 0 0 .729 0l11.131-6.437c.1-.056.157-.134.157-.212"/><path fill="#F3F1FC" d="m72.68 48.146-1.45-.85a.81.81 0 0 0-.743 0l-11.132 6.43c-.206.113-.198.304 0 .425l1.465.85a.82.82 0 0 0 .729 0l11.131-6.438c.206-.113.206-.304 0-.417m-3.135.963c-.29-.17-.29-.44.007-.61.283-.162.743-.162 1.034.008.691.405-.363.999-1.04.602"/><path fill="#fff" d="m69.327 60.092.002.578c0-.111.075-.224.227-.312.448-.26 1.25-.067 1.251.311l-.001-.577c0-.393-.816-.563-1.251-.311-.153.088-.228.2-.228.311"/><path fill="#C9CEE2" d="M72.837 59.634v.582c0 .238.38-.143-11.288 6.642a.78.78 0 0 1-.728 0l-1.458-.85c-.106-.057-.156-.134-.156-.212v-.574c0 .07.05.149.149.213l1.465.85a.83.83 0 0 0 .729 0l11.132-6.438c.097-.057.155-.135.155-.213"/><path fill="#F3F1FC" d="m72.68 59.429-1.45-.85a.81.81 0 0 0-.743 0l-11.132 6.43c-.206.114-.198.305 0 .425l1.465.85a.83.83 0 0 0 .729 0l11.131-6.437c.206-.114.206-.305 0-.418m-3.135.963c-.29-.17-.29-.44.007-.61.283-.162.743-.162 1.034.008.691.405-.363 1-1.04.602"/><path fill="#3D4449" d="m61.964 71.39-2.993-1.741-.008-2.702 2.993 1.74zm-.017-5.923-2.993-1.74-.03-10.931 2.992 1.74z"/><path fill="#4F575F" d="m51.975 67.934-2.993-1.74 9.972-2.468 2.993 1.74z"/><path fill="#3D4449" d="m61.907 51.315-2.993-1.74-.008-2.702 2.993 1.74z"/><path fill="#4F575F" d="m61.9 48.613-2.994-1.74 2.684-1.55 2.993 1.74zm-9.947 11.741-2.992-1.74 9.953-9.04 2.993 1.74z"/><path fill="#4F575F" d="m49.264 60.024-2.993-1.74 2.684-1.551 2.993 1.74z"/><path fill="#3D4449" d="m49.305 74.586-2.993-1.74-.04-14.563 2.992 1.74z"/><path fill="#2A3134" d="m61.9 48.613 2.683-1.55.064 22.776-2.684 1.55-.007-2.701-9.972 2.472.005 1.876-2.684 1.55-.041-14.562 2.684-1.55.005 1.881 9.954-9.04zm.047 16.854-.031-10.931-9.954 9.044.013 4.354z"/><path fill="#4F575F" d="m48.5 67.833-1.1.64c.218-.125.35-.398.358-.78 0-1.233-1.327-2.645-2.082-2.186l1.1-.64c.218-.133.522-.11.865.085 1.07.61 1.631 2.439.859 2.88"/><path fill="#2A3134" d="M46.544 65.591c.668.386 1.214 1.327 1.211 2.1-.002.772-.552 1.086-1.219.7-.677-.391-1.218-1.334-1.216-2.108.002-.773.547-1.082 1.224-.692"/><path fill="#ABBBC6" d="M77.578 42.715v3.009l2.554-1.53zm0 9.225v3.01l2.554-1.53z"/><path fill="#A6B4BE" d="M27.845 100c-4.654 0-8.429-2.772-9.691-6.213-.834-2.279-.83-5.763-.572-8.054a1.043 1.043 0 0 1 2.071.233c-.242 2.156-.202 5.299.458 7.103.872 2.377 3.388 4.28 6.263 4.733 5.412.852 11.053-2.877 12.378-9.262.49-2.358.388-4.08.12-8.608-.212-3.465-3.872-11.671 6.8-13.6A1.04 1.04 0 0 1 47.04 67.7a1.04 1.04 0 0 1-.576.561c-8.963.74-5.705 8.392-5.512 11.543.236 4.047.416 6.39-.16 9.16C39.41 95.623 33.931 100 27.845 100"/><path fill="#4F575F" d="m25.837 76.322-.023 8.672c-.003 1.035-.683 2.068-2.04 2.857-4.36 2.535-12.015.748-12.004-2.897l.024-8.673c-.01 3.654 7.638 5.437 12.005 2.897 1.356-.789 2.036-1.822 2.038-2.856"/><path fill="#DBE6FA" d="m29.59 66.832-.038 13.298c-.016 5.532-11.605 8.282-18.356 4.381-2.123-1.226-3.184-2.836-3.179-4.442l.038-13.298c-.005 1.607 1.055 3.216 3.178 4.442 4.22 2.438 11.035 2.439 15.23 0 2.08-1.21 3.122-2.794 3.127-4.38"/><path fill="#BBCFEF" d="M29.552 76.897c.15 1.762-1.067 3.294-2.516 4.334-4.834 3.474-14.186 2.949-17.821-1.218-.77-.87-1.293-2.03-1.19-3.177.526 6.252 14.9 7.827 20.015 2.937.802-.738 1.412-1.734 1.512-2.876"/><path fill="#BBCFEF" d="M29.552 74.02c.098 1.148-.435 2.303-1.208 3.17-4.109 4.654-15.088 4.578-19.13-.054-.769-.87-1.292-2.03-1.189-3.178.523 6.212 14.873 7.854 20.015 2.938.802-.74 1.412-1.734 1.512-2.876"/><path fill="#BBCFEF" d="M29.552 71.142c.098 1.149-.435 2.304-1.208 3.17-4.119 4.666-15.097 4.568-19.13-.054-.769-.87-1.292-2.03-1.189-3.177.53 6.29 14.924 7.805 20.015 2.937.802-.738 1.412-1.734 1.512-2.876"/><path fill="#ECF0F1" d="M26.41 62.973c4.22 2.437 4.242 6.39.052 8.826-4.194 2.439-11.01 2.438-15.23 0-4.219-2.438-4.24-6.387-.046-8.826 4.19-2.436 11.005-2.438 15.224 0"/><path fill="#3D4449" d="m37.59 54.665-.83 11.276c-.191 2.404-2.074 4.755-5.577 6.521-6.888 3.475-17.79 3.475-24.726 0C2.89 70.674.971 68.284.797 65.849l-.005-.087-.76-10.958-.017-.24q.006.125.026.25c.297 2.57 2.297 5.072 5.905 6.957 7.242 3.78 18.611 3.78 25.8 0 2.85-1.495 5.59-3.896 5.845-7.107"/><path fill="#4F575F" d="M32.456 47.01c7.235 4.256 6.721 10.861-.707 14.763-7.193 3.779-18.562 3.779-25.801-.001-7.47-3.9-8.061-10.506-.879-14.761 7.432-4.403 19.908-4.403 27.387-.002"/><path fill="#2A3134" d="M23.34 54.263c2.059 0 3.727-.967 3.727-2.16s-1.668-2.16-3.726-2.16-3.727.967-3.727 2.16 1.669 2.16 3.727 2.16m-8.845 0c2.058 0 3.727-.967 3.727-2.16s-1.669-2.16-3.727-2.16-3.726.967-3.726 2.16 1.668 2.16 3.726 2.16"/><path fill="#ABBFCA" d="M11.6 7.277v44.611c.083 1.955 3.226 2.666 5.03 1.622.68-.38 1.08-.978 1.096-1.661V7.277a1.193 1.193 0 0 1 2.034-.843c.224.224.35.527.35.843.005 7.987-.016-21.898.03 44.863.24 1.256 1.75 1.85 3.047 1.85 1.296 0 2.816-.607 3.025-1.882l.024-44.46c0-2.731-1.026-4.714-2.535-5.976l-1.55.582L22.5 4.5l-.863-.27L20.5 5.5l-.587-1.811-.863-.27L17 5l.5-1.969-1-.53 1-1.407V.125c-3.13.56-5.9 2.984-5.9 7.152"/><path fill="#2A3134" d="M23.52 63.358c2.058 0 3.726-.967 3.726-2.16s-1.668-2.16-3.726-2.16-3.727.967-3.727 2.16 1.669 2.16 3.727 2.16m8.564-6.054c2.058 0 3.727-.967 3.727-2.16s-1.669-2.16-3.727-2.16-3.726.967-3.726 2.16 1.668 2.16 3.726 2.16m-26.515 0c2.058 0 3.727-.967 3.727-2.16s-1.669-2.16-3.727-2.16-3.726.967-3.726 2.16 1.668 2.16 3.726 2.16m8.233 6.054c2.058 0 3.727-.967 3.727-2.16s-1.669-2.16-3.727-2.16-3.726.967-3.726 2.16 1.668 2.16 3.726 2.16"/><path fill="#D7E5EF" d="M20.556 15.862v44.5c.02.655.409 1.237 1.098 1.64.563.325 1.27.488 1.974.488s1.408-.163 1.965-.486c.68-.389 1.08-.991 1.09-1.67V15.862a1.192 1.192 0 0 1 2.033-.842c.223.223.349.527.349.842v38.655c.02.647.418 1.244 1.098 1.639 1.84 1.064 5.008.326 5.03-1.666V21L31 21.5l4.192-6.83L31.5 16.5l2-3.5-2.5.5 1.74-3.174c-4.167-3.6-12.185-1.559-12.185 5.535M2 18l2 2.5L6 22l-2.5 3.5 2 3.5-2-1.5L2.419 30v24.5c.021 1.977 3.18 2.72 5.032 1.653.68-.397 1.079-.995 1.093-1.665V15.861a1.194 1.194 0 0 1 2.03-.832c.222.22.35.519.354.832v44.484c.022 1.99 3.19 2.716 5.034 1.653.678-.398 1.077-.996 1.092-1.664V15.86c0-5.337-4.5-7.806-8.51-7.192L8 12.5 6 9.537l1 6.695L3.212 12.5 4.5 15.861z"/></g><defs><clipPath id="a"><path fill="#fff" d="M0 0h100v100H0z"/></clipPath></defs></svg>