<svg xmlns="http://www.w3.org/2000/svg" width="110" height="108" fill="none"><path fill="#3AC491" fill-rule="evenodd" d="M80.785 12.589C78.001 4.63 70.77 9.674 68.06 16.875c-2.57 6.829-7.521 32.076-13.042 41.08l2.172 1.022c11.044-9.68 27.16-36.2 23.595-46.388" clip-rule="evenodd"/><path fill="#1D8C63" fill-rule="evenodd" d="M56.391 58.601c14.205-16.766 20.144-46.384 20.165-46.485a.34.34 0 1 0-.665-.136c-.021.101-5.966 29.754-20.128 46.326zM85.04 33.894c6.537.183 4.514 6.713-.168 10.413-3.169 2.503-12.983 8.112-20.29 13.373-2.671 1.426-4.26 1.8-7.295 1.006l2.78-3.13c6.614-10.048 18.217-21.851 24.973-21.662" clip-rule="evenodd"/><path fill="#4ED0A0" fill-rule="evenodd" d="M61.68 56.316c9.992-11.243 24.646-19.374 24.705-19.407a.264.264 0 0 1 .257.46c-.058.032-14.558 8.079-24.472 19.178z" clip-rule="evenodd"/><path fill="#A1B7CF" d="m80.902 74.443-52.583 18-22.24-36.068C2.36 50.126-.348 41.109.036 36.235c.141-1.781.673-2.764 1.474-2.987l.004-.002c1.394-.383 3.595 1.516 5.954 5.479l.475.799 3.675 6.174c.49.82 1.548 1.188 2.496.864l8.784-3.008L55.7 32.328c.864 2.137 1.87 4.212 2.963 6.048z" opacity=".25"/><path fill="#F4F8FF" d="M81.31 73.676 28.545 92.502 7.68 53.827c-3.656-6.785-6.27-16.545-5.834-21.8.16-1.92.701-2.974 1.504-3.205l.004-.002c1.398-.398 3.58 1.676 5.897 5.978l.467.868H24.63v4.518l32.917-11.743c.842 2.316 1.827 4.566 2.9 6.56l1.116 2.07z"/><path fill="#E4ECF9" d="M8.176 43.203a1.091 1.091 0 0 1-.363-2.116l44.956-16.111a1.08 1.08 0 0 1 1.384.66c.2.567-.093 1.19-.657 1.392L8.54 43.14q-.181.064-.363.063M11.94 53.42a1.091 1.091 0 0 1-.363-2.116L56.532 35.19a1.08 1.08 0 0 1 1.384.661c.2.567-.093 1.19-.657 1.392L12.303 53.356q-.181.064-.363.063M28.482 83.07a1.091 1.091 0 0 1-.363-2.116l44.956-16.111a1.08 1.08 0 0 1 1.384.66c.2.567-.094 1.19-.657 1.392L28.845 83.008q-.181.064-.363.063m-5.33-9.399a1.091 1.091 0 0 1-.363-2.116l44.956-16.112a1.08 1.08 0 0 1 1.384.661c.2.567-.094 1.19-.657 1.392L23.515 73.609q-.181.064-.363.063m-5.87-9.965a1.091 1.091 0 0 1-.363-2.116L61.876 45.48a1.08 1.08 0 0 1 1.383.66c.2.567-.093 1.19-.657 1.392L17.645 63.644q-.18.064-.363.063"/><path fill="#919191" d="m107.367 69.415-.006-.076q-.005-.048-.013-.097a2 2 0 0 0-.04-.198l-.001-.005-.036-.12a2 2 0 0 0-.239-.507 2 2 0 0 0-.196-.257q-.033-.04-.073-.077l-.012-.012-.1-.094q0-.002-.002 0L82.926 45.777a2.11 2.11 0 0 0-2.555-.258L52.744 62.543l-.117.072-.014.009a2.1 2.1 0 0 0-.921 1.542l-2.879 28.93-.004.04-.035.358a2 2 0 0 0-.01.16v.097l.003.097.002.018.004.037.004.04.003.02.002.02.016.105.005.022.01.044q.004.025.01.048l.03.111.001.004.026.074.01.032q.017.049.036.097l.006.014.01.02.026.058.026.05.032.061.015.03.001.002a2 2 0 0 0 .089.14l.045.064.02.024q.044.057.092.112l.03.035.039.043q.08.083.168.157l.031.024.044.035.072.054.05.03.057.036.056.034q.046.025.093.048l.015.008.035.019.048.02.024.011.005.002q.06.026.123.047l.033.012.017.005.023.006q.039.013.078.023l.006.001.02.005.022.006.047.01.022.005.016.003q.038.008.077.013.055.009.112.015l51.499 5.187a2 2 0 0 0 .19.01l.022.001.037-.001h.021l.042-.001.007-.001.054-.005.043-.002.008-.001.001-.001.058-.007q.064-.008.13-.021l.005-.001.031-.007.039-.009.023-.004.019-.005.069-.021.046-.014a2 2 0 0 0 .185-.069l.011-.004q.02-.008.043-.02l.039-.018.048-.024.021-.012.022-.012.075-.042.011-.007.048-.032.044-.029.016-.011.012-.009.043-.032q.019-.011.035-.025l.027-.023.029-.024q.03-.024.057-.05.029-.025.057-.053l.031-.032q.042-.042.083-.086l.032-.04.02-.025.049-.062.03-.04.03-.042.028-.043q.041-.064.078-.132l.006-.013.023-.045.026-.053q.003-.002.002-.005l.02-.045.018-.041.009-.02.004-.012.024-.063q.007-.017.012-.035.004-.01.005-.02l.009-.022.002-.008.003-.011.021-.072.018-.075.008-.032.004-.02.008-.05.009-.05.014-.108.009-.092.019-.188 2.89-29.048a2 2 0 0 0 .01-.187 1 1 0 0 0-.001-.093z" opacity=".25"/><path fill="#C9DA2F" d="m109.246 70.078-4.45 29.132q-.008.052-.02.107-.004.026-.011.05l-.011.049-.004.02-.01.03q-.01.038-.022.075a1 1 0 0 1-.038.105l-.01.026q-.005.018-.013.034l-.027.062q-.001.005-.005.011-.024.053-.052.104 0 .003-.003.005l-.028.051-.026.044-.007.013q-.04.066-.084.127l-.031.042-.032.04q-.014.019-.031.038a1 1 0 0 1-.067.076l-.041.046q-.05.049-.102.096l-.077.066q-.04.033-.08.062l-.039.029q-.017.013-.036.023l-.044.03-.013.008a1 1 0 0 1-.123.073l-.091.044-.03.015-.049.022-.041.016-.044.017q-.153.06-.316.091l-.019.004-.023.003q-.037.008-.076.013a2 2 0 0 1-.198.019q-.022.002-.043.001l-.061.002-.043-.001-.02-.002h-.038l-.022-.002-.078-.007-.111-.014-51.156-7.91-.11-.02-.076-.017-.084-.023q-.026-.007-.048-.015a1 1 0 0 1-.116-.04l-.032-.014a2 2 0 0 1-.12-.053l-.069-.035a2 2 0 0 1-.303-.194l-.07-.057-.075-.067a2.1 2.1 0 0 1-.614-1.047l-.024-.112q-.011-.057-.019-.115l-.011-.116-.006-.108v-.017a2 2 0 0 1 .007-.195 2 2 0 0 1 .017-.16l4.45-29.131a2.11 2.11 0 0 1 1-1.492l.016-.008.12-.066a2.07 2.07 0 0 1 1.254-.198l51.156 7.91a1.4 1.4 0 0 1 .173.036q.072.015.139.037l.031.01a1 1 0 0 1 .144.055 2 2 0 0 1 .26.13q.085.05.164.11.044.03.086.065a1.4 1.4 0 0 1 .141.125l.094.1.012.012a1 1 0 0 1 .068.081q.027.03.049.063a2 2 0 0 1 .186.3 2 2 0 0 1 .19.544l.001.005a2 2 0 0 1 .037.298l.002.076v.078a1 1 0 0 1-.004.093l-.007.078a1 1 0 0 1-.013.109"/><path fill="#C9DA2F" d="m109.231 69.346-55.05-8.512c.18-.333.448-.608.767-.799l.015-.008.12-.066 28.48-15.535a2.11 2.11 0 0 1 2.538.392l22.528 23.423h.001l.095.1.012.011a1 1 0 0 1 .068.082q.027.03.049.063a2 2 0 0 1 .186.3q.104.2.161.422.016.06.029.122z"/><path fill="#DAE958" d="M79.253 81.15v.001a1.4 1.4 0 0 1-.321.193L51.364 93.08l-.114-.018a2 2 0 0 1-.587-.182l-.074-.037a2.08 2.08 0 0 1-.957-1.059q-.02-.046-.037-.093l-.031-.099a2.1 2.1 0 0 1-.067-.934l4.45-29.132a2.1 2.1 0 0 1 1-1.492l.016-.008.12-.066a2.07 2.07 0 0 1 1.254-.198c.31.048.6.181.838.385l1.637 1.402 18.447 15.804.694.594 1.324 1.134q.148.129.25.28l-.001.002a1.354 1.354 0 0 1-.273 1.786"/><path fill="#DAE958" d="m109.246 70.076-4.45 29.132-.02.108q-.004.024-.011.05l-.011.048-.004.02-.01.031-.022.075-.025.07-.003.012-.01.022a.1.1 0 0 1-.01.027l-.013.034-.027.061q-.001.006-.005.011a1 1 0 0 1-.054.11l-.029.05q-.01.023-.026.045l-.007.013q-.04.064-.084.126-.014.021-.031.042l-.032.04q-.014.02-.031.039a1 1 0 0 1-.067.076l-.041.045a2 2 0 0 1-.259.224q-.018.015-.039.029l-.036.024-.044.029-.013.009a2 2 0 0 1-.123.072l-.091.045-.03.014a.5.5 0 0 1-.09.038l-.044.018a2 2 0 0 1-.316.091q-.011.001-.019.004l-.023.003q-.037.008-.076.012a2 2 0 0 1-.198.02h-.043l-.054.002-.005-.001h-.045l-.02-.001-.038-.001-.022-.001-.078-.007q-.056-.005-.111-.014l-.114-.018L79.5 81.43a1.3 1.3 0 0 1-.247-.28v-.002a1.35 1.35 0 0 1 .273-1.785v-.002q.14-.115.32-.192l1.6-.682.839-.358 22.315-9.5 2.024-.862a1.5 1.5 0 0 1 .821-.103l.048.008a2 2 0 0 1 .173.035q.072.016.139.037l.031.01a1 1 0 0 1 .144.055 2 2 0 0 1 .26.13q.085.05.164.11.044.03.086.065a1.4 1.4 0 0 1 .141.126l.094.099.012.012a1 1 0 0 1 .068.081q.027.03.049.063a2 2 0 0 1 .186.3 2 2 0 0 1 .19.544l.001.006a2 2 0 0 1 .037.297q.002.038.002.077v.077a1 1 0 0 1-.004.093l-.007.079a1 1 0 0 1-.013.108"/><path fill="#3E800E" d="m104.856 98.814-.046.303c-.184 1.201-1.26 2.032-2.404 1.855l-51.156-7.91c-1.144-.177-1.922-1.294-1.739-2.496l.046-.303 26.894-15.909c.9-.414 1.94-.253 2.674.414z" opacity=".15"/><path fill="#E6F370" d="m104.84 98.92-.044.29a2.1 2.1 0 0 1-2.39 1.763l-51.156-7.91a2.107 2.107 0 0 1-1.753-2.404l.044-.29 33.563-14.307a2.52 2.52 0 0 1 2.674.413z"/><path fill="#3A7EC1" d="M61.564 37.07 23.791 50.69a2.04 2.04 0 0 1-2.487-.962l-4.078-7.569c-2.317-4.302-4.499-6.376-5.897-5.978l1.432-.515h11.87v4.518l32.917-11.743c.842 2.316 1.827 4.566 2.9 6.56z" opacity=".25"/><path fill="#BFD6EF" d="m9.251 34.799 4.08 7.57c.48.892 1.535 1.3 2.486.96l41.73-14.887 7.127-2.544a2.067 2.067 0 0 0 1.117-2.926l-3.773-7.002c-2.378-4.415-4.613-6.481-6.005-5.939l-.004.002L3.354 28.82c1.398-.398 3.58 1.676 5.897 5.979"/><path fill="#10BC7C" fill-rule="evenodd" d="M76.278 81.817c2.04 2.276 2.89 4.212 2.25 5.586-1.065 2.294-6.008 2.426-13.137.785-6.89-1.585-15.93-4.788-25.488-9.232-5.261-2.446-10.134-5.015-14.395-7.538a112 112 0 0 1-6.626-4.226c-.603-.413-.657-1.025-.45-1.226.21-.201.616-.023.616-.023a109 109 0 0 0 7.03 4.51c4.228 2.504 9.068 5.055 14.297 7.487 9.486 4.41 18.447 7.585 25.267 9.156 6.582 1.514 11.059 1.58 11.87-.166.385-.828-.074-2.025-1.24-3.488a5 5 0 0 0 .006-.267z" clip-rule="evenodd"/><path fill="#418265" fill-rule="evenodd" d="m17.973 60.503-3.186 7.328L3.133 54.752l14.808 4.041z" clip-rule="evenodd"/><path fill="#5EBA9A" fill-rule="evenodd" d="m14.788 67.83-4.495-5.044c.086-.597.08-1.293.08-1.293l4.562 1.376z" clip-rule="evenodd"/><path fill="#78D1B2" fill-rule="evenodd" d="m3.133 54.752 19.552 3.876-4.712 1.875zm0 0 5.64 13.203 6.162-5.085z" clip-rule="evenodd"/></svg>