<svg xmlns="http://www.w3.org/2000/svg" width="113" height="108" fill="none"><path fill="#C2C2C2" fill-rule="evenodd" d="M84.167 12.067H45.943c-3.604 0-6.553 2.949-6.553 6.553v56.35c0 3.605 2.949 6.553 6.553 6.553h38.224c3.604 0 6.552-2.948 6.552-6.553V18.62c0-3.605-2.949-6.553-6.552-6.553" clip-rule="evenodd"/><path fill="#3AC491" fill-rule="evenodd" d="M101.578 48.37c-2.7-7.712-9.707-2.825-12.334 4.155-2.491 6.619-7.29 31.088-12.64 39.815l2.105.99c10.704-9.382 26.324-35.084 22.869-44.96" clip-rule="evenodd"/><path fill="#1D8C63" fill-rule="evenodd" d="M77.935 92.966C91.7 76.716 97.458 48.011 97.478 47.913a.329.329 0 0 0-.644-.131c-.02.097-5.783 28.837-19.508 44.898zm27.767-23.946c6.335.177 4.375 6.506-.164 10.092-3.071 2.426-12.583 7.863-19.665 12.961-2.589 1.382-4.128 1.744-7.07.975l2.695-3.033c6.41-9.739 17.655-21.178 24.204-20.995" clip-rule="evenodd"/><path fill="#4ED0A0" fill-rule="evenodd" d="M83.06 90.751c9.685-10.897 23.888-18.778 23.945-18.81a.255.255 0 0 1 .249.446c-.056.032-14.11 7.83-23.718 18.588z" clip-rule="evenodd"/><path fill="#F1910E" fill-rule="evenodd" d="M6.93 94.398h70.1c3.811 0 6.93-3.12 6.93-6.93V45.886c0-2.12-.964-4.024-2.475-5.297h.02c-.763-.601-1.625-1.14-2.46-1.677-2.354-1.516-21.782-12.651-27.442-16.273-7.854-5.027-11.396-5.033-19.246 0-5.49 3.52-25.089 14.757-27.442 16.273-.835.538-1.697 1.076-2.46 1.677h.02A6.92 6.92 0 0 0 0 45.886v41.582c0 3.811 3.119 6.93 6.93 6.93" clip-rule="evenodd"/><path fill="#F3F1F1" fill-rule="evenodd" d="M14.068 83.92h55.825c4.551 0 8.275-3.723 8.275-8.275V20.344c0-9.14 8.276-8.276 8.276-8.276H14.068c-4.552 0-8.276 3.724-8.276 8.276v55.301c0 4.552 3.724 8.276 8.276 8.276" clip-rule="evenodd"/><path fill="#658C79" d="M42.689 54 34 45.233l2.92-2.875 5.075 5.121L52.54 31 56 33.2z"/><path fill="#FBC900" fill-rule="evenodd" d="M41.98 94.399h35.05c3.811 0 6.93-3.12 6.93-6.93V45.887q0-.256-.018-.507c.017.338.134 4.488-4.76 7.547-5.106 3.191-37.202 20.74-37.202 20.74S9.884 56.119 4.78 52.928C-.116 49.868 0 45.718.019 45.38a7 7 0 0 0-.019.507V87.47c0 3.811 3.118 6.93 6.93 6.93z" clip-rule="evenodd"/><path fill="#F6AF00" fill-rule="evenodd" d="M32.357 65.25c-5.49 3.52-25.089 14.758-27.442 16.274S0 84.556 0 87.468c0 3.812 3.119 6.93 6.93 6.93h70.1c3.811 0 6.93-3.118 6.93-6.93 0-2.911-2.562-4.428-4.915-5.944s-21.782-12.65-27.442-16.273c-7.854-5.027-11.396-5.033-19.246 0" clip-rule="evenodd"/><path fill="#10BC7C" fill-rule="evenodd" d="M94.719 73.42c2.33 2.6 3.3 4.812 2.57 6.38-1.217 2.62-6.863 2.772-15.004.898-7.869-1.81-18.195-5.47-29.112-10.545-6.009-2.794-11.575-5.728-16.44-8.61a128 128 0 0 1-7.569-4.826c-.689-.472-.75-1.171-.513-1.4.238-.23.703-.027.703-.027 2.374 1.667 5.07 3.398 8.029 5.151 4.829 2.86 10.357 5.774 16.33 8.551C64.546 74.03 74.782 77.656 82.57 79.45c7.518 1.73 12.63 1.805 13.557-.188.44-.946-.084-2.314-1.417-3.984q.008-.152.008-.305z" clip-rule="evenodd"/><path fill="#418265" fill-rule="evenodd" d="m28.127 49.077-3.64 8.37-13.31-14.938 16.913 4.616z" clip-rule="evenodd"/><path fill="#5EBA9A" fill-rule="evenodd" d="m24.488 57.447-5.133-5.76c.097-.683.091-1.478.091-1.478l5.21 1.571z" clip-rule="evenodd"/><path fill="#78D1B2" fill-rule="evenodd" d="m11.177 42.509 22.33 4.426-5.38 2.142zm0 0 6.442 15.08 7.037-5.809z" clip-rule="evenodd"/></svg>