<svg xmlns="http://www.w3.org/2000/svg" xmlns:xlink="http://www.w3.org/1999/xlink" fill="none" viewBox="0 0 547 312"><path fill="#49263E" d="M209.956 39.214a4 4 0 0 0-4.902-2.828l-33.187 8.892a4 4 0 0 0-2.832 4.9l19.06 71.131a4 4 0 0 0 4.902 2.828l33.187-8.892a4 4 0 0 0 2.734-2.517v-.002c.266-.74.317-1.565.098-2.382z"/><path fill="#C5F4FF" d="m208.301 41.236-.022-.067a1.567 1.567 0 0 0-1.871-1.024l-.023.004-33.788 9.054-.022.007-.067.022a1.57 1.57 0 0 0-1.042 1.8l.015.07.005.022 18.441 68.821c.195.73.946 1.163 1.676.967l34.177-9.157a1.37 1.37 0 0 0 .968-1.676l-18.44-68.82z"/><path fill="#DEECF8" d="m193.059 41.611-8.193 2.195a.258.258 0 0 0 .134.498l8.192-2.195a.258.258 0 1 0-.133-.498"/><path fill="#fff" d="M211.418 52.869 183.713 96.76l-3.102-11.577 27.705-43.892zm5.185 19.35-27.705 43.891-2.515-9.387 27.704-43.892z" opacity=".4"/><path fill="#000" d="M235.159 298.126c34.799-5.427 62.559-12.71 62.005-16.268-.555-3.557-29.215-2.041-64.014 3.386s-62.56 12.71-62.005 16.268 29.215 2.042 64.014-3.386" opacity=".04"/><path fill="#A0A0A0" d="M270.738 277.154c3.179-.496 5.437-2.945 5.044-5.47s-3.291-4.169-6.47-3.674c-3.18.496-5.438 2.945-5.044 5.47.393 2.525 3.29 4.17 6.47 3.674"/><path fill="#FFDBC0" d="m197.976 253.761-17.485-2.571 7.32-13.922 7.474-.761z"/><path fill="#000" d="m276.999 268.451-6.376 12.4-3.674-8.086z"/><path fill="#000" d="m270.949 273.275-75.29 11.741c-3.491.545-6.761-1.833-7.304-5.312l-3.982-25.536c-2.114-13.555 7.202-26.263 20.808-28.385l40.317-6.288c13.469-2.1 26.084 7.074 28.176 20.492l3.803 24.383c.663 4.252-2.259 8.239-6.528 8.905m-74.817 27.16c3.18-.495 5.438-2.944 5.044-5.469s-3.29-4.17-6.47-3.674c-3.179.495-5.438 2.944-5.044 5.469s3.291 4.17 6.47 3.674m64.848-10.113c3.179-.496 5.437-2.945 5.044-5.47s-3.291-4.17-6.47-3.674c-3.18.496-5.438 2.945-5.044 5.47s3.29 4.17 6.47 3.674"/><path fill="#191919" d="m264.816 285.069-75.29 11.742c-3.491.545-6.761-1.833-7.304-5.312l-3.982-25.536c-2.114-13.555 7.202-26.263 20.808-28.385l40.318-6.288c13.468-2.1 26.083 7.074 28.176 20.492l3.802 24.383c.663 4.252-2.259 8.239-6.528 8.904"/><path fill="#000" d="m260.979 278.962-68.303 10.652a1.05 1.05 0 0 1-1.204-.875l-.115-.738a1.054 1.054 0 0 1 .88-1.201l68.303-10.652a1.05 1.05 0 0 1 1.203.876l.115.737a1.05 1.05 0 0 1-.879 1.201"/><path fill="#C4C2C0" d="m243.807 229.14-41.904 6.535c-1.839.287-3.157-1.505-2.198-2.988l2.243-3.466a2.3 2.3 0 0 1 1.586-.999l41.576-6.32c1.794-.272 3.104 1.438 2.234 2.916l-1.915 3.252c-.333.566-.934.963-1.622 1.07"/><path fill="#D3D3D3" d="m243.667 228.232-41.905 6.535c-1.839.287-3.157-1.505-2.198-2.988l2.243-3.467a2.3 2.3 0 0 1 1.586-.998l41.576-6.32c1.794-.273 3.105 1.438 2.234 2.916l-1.914 3.251c-.334.567-.935.964-1.622 1.071"/><path fill="#AFAEAE" d="m243.01 227.081-42.279 6.594 1.253-2.177 42.419-6.616zm1.339-3.242-42.278 6.594 1.253-2.177 42.419-6.616z"/><path fill="#A3A3A3" d="m273.082 260.105-1.421 1.98-4.522-24.401 1.869-1.536z"/><path fill="#fff" d="m272.592 237.337-3.503 3.222c-.367.337-.983.189-1.377-.33-.393-.52-.414-1.215-.047-1.552l3.503-3.222c.367-.337.983-.19 1.377.33.393.52.414 1.214.047 1.552"/><path fill="#FF864A" d="M266.063 278.125c.932-.146 1.575-.988 1.435-1.882s-1.008-1.501-1.94-1.356c-.933.145-1.576.988-1.436 1.882.139.894 1.008 1.501 1.941 1.356"/><path fill="#A0A0A0" d="M274.814 269.723c1.603-.25 2.622-2.256 2.275-4.48s-1.928-3.825-3.531-3.575-2.623 2.256-2.276 4.48 1.928 3.825 3.532 3.575"/><path fill="#fff" d="M275.696 268.897c1.331-.208 2.175-1.878 1.886-3.732-.289-1.853-1.602-3.188-2.933-2.98-1.33.207-2.174 1.878-1.885 3.732.289 1.853 1.602 3.187 2.932 2.98"/><g fill="#fff" opacity=".03"><path d="m197.976 253.763-17.485-2.572 7.32-13.921 7.474-.761z"/><path d="m217.158 223.917-11.977 1.868c-13.606 2.122-22.922 14.83-20.808 28.385l3.982 25.536c.543 3.479 3.813 5.857 7.304 5.312l30.292-4.724zm-21.026 76.52c3.18-.496 5.438-2.944 5.044-5.469s-3.29-4.17-6.47-3.674c-3.179.495-5.438 2.944-5.044 5.469s3.291 4.17 6.47 3.674"/><path d="m218.809 234.498-19.761 3.082c-13.606 2.122-22.922 14.83-20.808 28.385l3.982 25.536c.543 3.479 3.813 5.857 7.304 5.312l38.075-5.938z"/><path d="m226.142 281.515-33.905 5.287c-.575.09-.969.627-.88 1.201l.115.738c.09.573.628.965 1.204.875l33.905-5.288zm-8.643-55.414-13.965 2.123c-.66.1-1.242.467-1.586.998l-2.243 3.467c-.959 1.483.359 3.275 2.198 2.988l16.684-2.602z"/><path d="m217.358 225.193-13.965 2.123c-.659.1-1.242.467-1.586.998l-2.243 3.467c-.959 1.483.359 3.275 2.198 2.988l16.684-2.602z"/><path d="m217.953 229.009-15.969 2.491-1.253 2.177 17.523-2.733zm-.462-2.961-14.167 2.21-1.253 2.177 15.722-2.452z"/></g><path fill="#FC9C3D" d="m238.397 212.787-17.317 4.53c-3.096.81-6.305-1.12-7.167-4.309l-3.92-17.343c-.863-3.19 1.005-3.379 4.101-4.189l17.317-4.529c3.096-.81 3.939-1.753 4.802 1.436l6.229 17.162c.862 3.19-.949 6.432-4.045 7.242"/><path fill="#FC9C3D" d="m235.766 196.208-21.205 5.547c-2.175.569-7.212-5.444-7.818-7.686-.793-2.933.992-7.424 3.839-8.169l21.349-5.585c2.527-.661 6.305 2.089 7.009 4.693.695 2.571-.678 10.548-3.174 11.2"/><path fill="#FFAC52" d="m236.737 211.848-17.317 4.529c-3.096.81-6.305-1.119-7.167-4.309l-3.921-17.343c-.862-3.19 1.006-3.378 4.102-4.188l17.317-4.53c3.096-.81 3.939-1.753 4.802 1.437l6.228 17.162c.863 3.189-.948 6.432-4.044 7.242"/><path fill="#FFAC52" d="m234.106 195.269-21.205 5.547c-2.176.569-7.212-5.445-7.818-7.686-.793-2.933.992-7.425 3.839-8.17l21.349-5.584c2.527-.661 6.305 2.089 7.008 4.692.696 2.572-.677 10.548-3.173 11.201"/><path fill="#FC9C3D" d="m233.157 190.593-20.522 5.493.272 1.019 20.523-5.492zm1.455 5.416-20.522 5.493.272 1.019 20.523-5.492zm1.379 5.43-20.522 5.493.272 1.019 20.523-5.493zm1.547 5.517-20.522 5.493.272 1.02 20.522-5.493z" opacity=".51"/><path fill="#FC9C3D" d="m226.739 211.744-17.317 4.53c-3.096.81-6.305-1.119-7.167-4.309l-3.921-17.343c-.862-3.19 1.006-3.379 4.102-4.189l17.317-4.529c3.096-.81 3.939-1.753 4.802 1.436l6.228 17.162c.863 3.19-.948 6.432-4.044 7.242"/><path fill="#FC9C3D" d="m224.108 195.165-21.205 5.547c-2.176.57-7.212-5.444-7.818-7.686-.793-2.933.991-7.424 3.839-8.169l21.348-5.585c2.528-.661 6.306 2.089 7.009 4.693.696 2.571-.677 10.548-3.173 11.2"/><path fill="#FFAC52" d="m225.079 210.805-17.317 4.529c-3.096.81-6.305-1.119-7.168-4.309l-3.92-17.343c-.862-3.19 1.006-3.378 4.102-4.188l17.316-4.53c3.096-.81 3.94-1.753 4.802 1.437l6.229 17.162c.863 3.189-.948 6.432-4.044 7.242"/><path fill="#FFAC52" d="m222.448 194.226-21.205 5.547c-2.176.569-7.212-5.445-7.818-7.686-.794-2.933.991-7.425 3.839-8.17l21.348-5.584c2.527-.661 6.305 2.089 7.009 4.692.695 2.572-.677 10.548-3.173 11.201"/><path fill="#FC9C3D" d="m221.499 189.55-20.522 5.493.272 1.019 20.522-5.492zm1.455 5.418-20.522 5.493.272 1.019 20.523-5.492zm1.379 5.428-20.522 5.493.272 1.019 20.522-5.493zm1.547 5.519-20.523 5.493.273 1.02 20.522-5.493z" opacity=".51"/><path fill="#D3B188" d="M470.704 99.203a8.74 8.74 0 0 0 6.531 2.616 11.9 11.9 0 0 0 6.713-2.422l.208-.163a2 2 0 0 0-.097-.231c-.401-.695-1.337-.814-2.136-.85-4.636-.223-7.804-.462-12.436-.684.289.652.703 1.24 1.217 1.734"/><path fill="#D1775E" d="M485.597 115.206s-8.948 1.701-30.352-.85c-23.958-2.876-37.583-13.215-37.643-13.281-.395.062-.775.2-1.118.406-.868.56-1.224 1.635-1.523 2.63q-.648 2.145-1.292 4.294a2.33 2.33 0 0 0-.13 1.332c.182.441.5.812.907 1.058a26 26 0 0 0 6.532 3.546c2.104.783 21.973 9.991 47.518 10.969 4.543.179 9.146.389 13.59-.588a3.24 3.24 0 0 0 1.5-.627 3.45 3.45 0 0 0 .844-1.655c.724-2.342 1.427-4.814 1.167-7.234"/><path fill="#F3E3CA" d="M455.252 114.358c21.405 2.551 30.352.85 30.352.85a8.4 8.4 0 0 0-.224-1.267c-.157-.602-.383-1.182-.516-1.787-.131-.702-.2-1.414-.207-2.128q-.186-4.955-.376-9.906a3 3 0 0 0-.125-.89l-.207.163a11.9 11.9 0 0 1-6.714 2.422 8.73 8.73 0 0 1-6.531-2.616 5.5 5.5 0 0 1-1.217-1.734 398 398 0 0 1-3.583-6.034c-3.886-6.613-9.722-2.58-15.185-.533a507 507 0 0 1-19.573 6.877c-4.123 1.358-8.299 2.675-12.613 3.181-.305.036-.62.075-.944.129.079.063 13.704 10.402 37.663 13.273"/><path fill="#D3B188" d="M439.393 111.044a.26.26 0 0 1-.12-.067.3.3 0 0 1-.072-.116 14.5 14.5 0 0 1-.736-4.41 7.1 7.1 0 0 1 .387-2.63 6.2 6.2 0 0 1 1.498-2.198c1.593-1.582 3.752-2.479 5.659-3.27l17.16-7.136a3.7 3.7 0 0 1 1.548-.382 1.445 1.445 0 0 1 1.381 1.021.283.283 0 0 1-.32.337.28.28 0 0 1-.222-.213.9.9 0 0 0-.864-.592c-.456.02-.902.137-1.31.341l-17.164 7.135c-1.858.773-3.966 1.67-5.474 3.156a5.7 5.7 0 0 0-1.355 2 6.6 6.6 0 0 0-.352 2.434c.013 1.443.251 2.875.708 4.243a.277.277 0 0 1-.352.347"/><path fill="#fff" d="M445.591 101.908a.54.54 0 0 1-.33-.262 10.53 10.53 0 0 0-8.14-5.247.547.547 0 0 1-.492-.588.54.54 0 0 1 .587-.493 11.44 11.44 0 0 1 5.203 1.788 11.5 11.5 0 0 1 3.77 4.01.53.53 0 0 1 .054.409.53.53 0 0 1-.251.327.55.55 0 0 1-.401.056m4.39-1.222a.53.53 0 0 1-.331-.258 10.5 10.5 0 0 0-8.138-5.251.54.54 0 0 1 .089-1.079 11.47 11.47 0 0 1 9.003 5.807.54.54 0 0 1-.614.783zm3.484-1.613a.54.54 0 0 1-.33-.261 10.54 10.54 0 0 0-3.432-3.617 10.5 10.5 0 0 0-4.708-1.631.543.543 0 0 1-.299-.948.54.54 0 0 1 .388-.13 11.46 11.46 0 0 1 8.974 5.799.54.54 0 0 1-.197.735.54.54 0 0 1-.396.053m4.017-1.221a.54.54 0 0 1-.331-.258 10.5 10.5 0 0 0-8.139-5.247.548.548 0 0 1-.434-.791.55.55 0 0 1 .318-.268.5.5 0 0 1 .21-.023 11.45 11.45 0 0 1 8.975 5.795.53.53 0 0 1-.043.597.53.53 0 0 1-.567.187zm3.666-1.665a.53.53 0 0 1-.331-.257 10.5 10.5 0 0 0-8.138-5.252.541.541 0 0 1 .089-1.078 11.44 11.44 0 0 1 8.973 5.799.52.52 0 0 1 .054.408.534.534 0 0 1-.647.38"/><path fill="#D3B188" d="M509.197 109.483a8.72 8.72 0 0 0 7.032-.2 11.95 11.95 0 0 0 5.199-4.896c.022-.081.087-.155.127-.235a1 1 0 0 0-.181-.172c-.644-.482-1.548-.214-2.292.069-4.346 1.645-7.344 2.69-11.685 4.332a5.4 5.4 0 0 0 1.8 1.102"/><path fill="#D1775E" d="M529.227 118.224s-7.535 5.145-28.196 11.319c-23.132 6.911-39.741 2.854-39.819 2.838-.338.213-.631.49-.864.815-.576.862-.479 1.99-.355 3.02l.524 4.454c.009.456.151.9.408 1.276.344.33.783.543 1.255.609 2.425.567 4.917.786 7.404.651 2.243-.127 24.131.38 47.984-8.878 4.242-1.65 8.547-3.293 12.238-5.956a3.2 3.2 0 0 0 1.124-1.174 3.4 3.4 0 0 0 .124-1.852c-.298-2.449-.636-5.003-1.827-7.122"/><path fill="#F3E3CA" d="M501.032 129.544c20.661-6.175 28.194-11.315 28.196-11.319a9 9 0 0 0-.705-1.068c-.382-.49-.823-.931-1.184-1.433a12 12 0 0 1-1.036-1.868l-4.282-8.936a3 3 0 0 0-.467-.767c-.023.085-.084.159-.126.234a11.95 11.95 0 0 1-5.2 4.896 8.73 8.73 0 0 1-7.031.201 5.5 5.5 0 0 1-1.805-1.103 580 580 0 0 1-5.69-4.108c-6.189-4.52-9.949 1.504-14.145 5.557a501 501 0 0 1-15.214 14.103c-3.244 2.892-6.546 5.764-10.314 7.947-.269.156-.538.311-.795.493.057.024 16.666 4.081 39.798-2.829"/><path fill="#D3B188" d="M485.047 132.822a.3.3 0 0 1-.137-.083 14.5 14.5 0 0 1-2.426-3.752 7.2 7.2 0 0 1-.675-2.567 6.2 6.2 0 0 1 .488-2.602c.832-2.086 2.456-3.769 3.891-5.256l12.918-13.388c.348-.411.78-.741 1.268-.967a1.44 1.44 0 0 1 1.673.389.28.28 0 0 1 .016.311.27.27 0 0 1-.172.128.27.27 0 0 1-.211-.031.25.25 0 0 1-.081-.073.91.91 0 0 0-1.029-.198 3.3 3.3 0 0 0-1.066.839l-12.922 13.387c-1.397 1.447-2.983 3.09-3.774 5.073a5.7 5.7 0 0 0-.449 2.371c.065.825.285 1.629.645 2.373a14 14 0 0 0 2.333 3.609.28.28 0 0 1 .032.33.28.28 0 0 1-.308.124z"/><path fill="#fff" d="M476.959 120.298a.536.536 0 0 1-.338-.757.53.53 0 0 1 .31-.275 11.47 11.47 0 0 1 10.543 1.742.545.545 0 0 1 .078.742.54.54 0 0 1-.736.116 10.52 10.52 0 0 0-9.537-1.578.54.54 0 0 1-.32.01m3.551-2.87a.54.54 0 0 1-.397-.505.54.54 0 0 1 .365-.529 11.45 11.45 0 0 1 10.538 1.742.54.54 0 0 1 .226.361.53.53 0 0 1-.105.413.536.536 0 0 1-.778.083 10.53 10.53 0 0 0-9.537-1.577.54.54 0 0 1-.312.012m2.555-2.868a.54.54 0 0 1-.363-.343.54.54 0 0 1 .338-.684 11.45 11.45 0 0 1 10.54 1.738.54.54 0 0 1 .23.582.55.55 0 0 1-.472.41.55.55 0 0 1-.411-.134 10.54 10.54 0 0 0-4.577-1.947 10.54 10.54 0 0 0-4.961.374.54.54 0 0 1-.324.004m3.202-2.716a.535.535 0 0 1-.397-.504.55.55 0 0 1 .365-.529 11.44 11.44 0 0 1 10.539 1.737.545.545 0 0 1-.26.966.55.55 0 0 1-.397-.108 10.52 10.52 0 0 0-9.538-1.574.54.54 0 0 1-.312.012m2.696-2.989a.54.54 0 0 1-.401-.504.54.54 0 0 1 .365-.531 11.43 11.43 0 0 1 10.538 1.742.53.53 0 0 1 .209.356.54.54 0 0 1-.107.4.54.54 0 0 1-.759.101 10.49 10.49 0 0 0-9.533-1.576.55.55 0 0 1-.312.012"/><path fill="#B8C7D8" d="M286.813 30.69a5.66 5.66 0 0 1-7.939 1.001l-.173-.13a5.664 5.664 0 0 1-.997-7.944l24.879-30.104a5.655 5.655 0 0 1 7.937-.997l.171.13a5.66 5.66 0 0 1 1.001 7.941z"/><path fill="#B8C7D8" d="M356.602 18.352a3.613 3.613 0 0 1-4.817 1.706L306.836-1.386a3.613 3.613 0 1 1 3.112-6.523l44.949 21.445a3.613 3.613 0 0 1 1.705 4.816"/><path fill="#FF3912" d="M327.623 26.33a.85.85 0 0 1-1.133.4l-16.926-8.075a.85.85 0 0 1-.401-1.133l3.649-7.648a.85.85 0 0 1 1.133-.4l16.926 8.074a.85.85 0 0 1 .401 1.133z"/><path fill="#3A7F91" d="m318.59 14.206-15.096-7.202-13.51 28.319.777 2.184 75.115 35.836c.766-23.869-18.694-45.496-47.286-59.137"/><path fill="#216B7C" d="m354.475 41.541 6.719 18.984a4.33 4.33 0 0 0 3.789 2.88c-1.572-7.702-5.21-15.055-10.508-21.864"/><path fill="#3A7F91" d="m287.433 22.16-5.347 11.206 77.659 37.05c-.627-20.01-22.668-40.568-50.057-53.634l-15.353-7.325-5.201 7.225a20.1 20.1 0 0 1-1.701 5.477"/><path fill="#3A7F91" d="M312.656-1.386a4.94 4.94 0 0 0-1.465-1.887l-.151-.12c-2.231-1.743-5.454-1.314-7.206.962l-23.096 28.12c-1.753 2.277-1.367 5.532.859 7.272l.156.123c.674.527 1.444.829 2.232.97.211-.203.425-.401.604-.637L311.583.804a6 6 0 0 0 1.073-2.19"/><path fill="#3A7F91" d="M349.455 14.795 310.703-3.693c-1.519-.725-3.349-.06-4.087 1.487-.088.184-.153.37-.203.56.138.092.272.188.425.261l43.698 20.847c.125-.17.243-.353.338-.553.735-1.548.099-3.39-1.419-4.114"/><path fill="#B8C7D8" d="m365.349 79.8-88.433-42.188 2.607-5.466 83.37 39.774z"/><path fill="#A3B5C6" d="m278.704 33.864 84.959 40.532-.77-2.476-83.37-39.774z"/><path fill="#B8C7D8" d="m289.933 35.169 58.76 28.033c2.245 1.07 3.914-.085 3.282-2.491-3.571-13.613-17.658-27.376-37.084-36.644-12.978-6.192-20.391-3.032-26.547 5.396-1.464 2.008-.657 4.634 1.589 5.706"/><path fill="#FF3912" d="m308.757 36.878 16.502 7.873c2.245 1.071 3.894-.13 2.735-2.332-2.16-4.1-6.722-8.04-12.616-10.852-3.495-1.668-5.894-1.497-7.816-.068-2.001 1.486-1.049 4.309 1.195 5.38"/><path fill="#589EB7" d="m355.598 43.215 5.243 14.817a3.067 3.067 0 0 0 3.92 1.87l-5.243-14.817z"/><path fill="#8BC6D6" d="M361.137 57.376a3.06 3.06 0 0 0 3.435 1.992l-5.055-14.283-3.285-1.567z"/><path fill="url(#a)" d="M333.295 177.139H531v128.57H333.295z" transform="rotate(-15 333.295 177.139)"/><path fill="#7F3C9D" d="M22.226 118.002c.09.407.165.759.407 1.107.246.351.56.705.917.945.788.528 1.764.922 2.614 1.349l8.102 3.805c.726.336 1.569.637 2.242 1.065l-.03 6.939c0 .79.13 1.846-.008 2.609l.799.349 4.633 2.013 5.833 2.35c1.55.61 3.237 1.403 4.88 1.687a8 8 0 0 0 3.594-.223c2.103-.637 4.167-1.929 6.117-2.944l11.014-5.798 10.367-5.509c1.717-.917 3.66-1.778 5.251-2.895.978-.687 1.454-1.594 1.999-2.612.014 1.5.306 2.96-.84 4.129a6 6 0 0 1-1.174.928c-1.633.989-3.39 1.827-5.08 2.717l-8.21 4.376-10.951 5.762c-2.608 1.367-5.234 2.865-7.956 3.986-.845.347-1.826.493-2.737.491-.863-.002-1.764-.1-2.591-.351-2.296-.698-4.6-1.746-6.818-2.673l-12.675-5.578-6.153-2.975c-.973-.51-2.042-.959-2.814-1.757-1.189-1.226-.937-2.884-.934-4.448v-5.102c.001-1.244-.096-2.528.202-3.742"/><path fill="#AD6FBA" d="M22.226 118.002c.09.407.165.759.407 1.107.246.351.56.705.917.945.788.528 1.764.922 2.615 1.349l8.102 3.805c.725.336 1.568.637 2.24 1.065l-.028 6.939c0 .79.13 1.846-.009 2.609l-3.35-1.57-3.625-1.712-4.047-1.965c-.733-.39-1.492-.769-2.087-1.362-.714-.713-.925-1.494-1.336-2.366l-.001-5.102c.001-1.244-.096-2.528.202-3.742"/><path fill="#AD6FBA" d="m90.799 113.562.159 8.678c-.546 1.018-1.021 1.925-2 2.611-1.59 1.118-3.533 1.979-5.25 2.896l-10.367 5.509-11.014 5.798c-1.95 1.015-4.014 2.307-6.117 2.944a8 8 0 0 1-3.594.223c-1.643-.285-3.331-1.077-4.88-1.688l-5.834-2.349-4.632-2.013-.8-.349c.14-.763.009-1.819.01-2.609l.028-6.94c.06-.304.162-.645.354-.894.365-.473.973-.818 1.467-1.15 1.054-.706 2.301-1.415 3.255-2.237.595-.412 1.27-.76 1.82-1.223l.854-.525c.045.245.063.444.256.623-.29.329-.771.575-1.134.828l-4.08 2.767c-.384.258-1.216.686-1.429 1.068-.342.272-.435.56-.537.983l10.152 4.201c1.837.701 3.602 1.536 5.566 1.818 1.186.17 2.492.048 3.636-.306 2.334-.723 4.583-2.15 6.745-3.281l11.15-5.855 9.034-4.741 3.576-1.934c.726-.397 1.495-.768 2.18-1.23.637-.43 1.068-.948 1.426-1.623"/><path fill="url(#b)" d="M44.258 120.242c.045.245.063.445.256.624-.29.329-.771.575-1.134.827l-4.08 2.767c-.384.259-1.216.686-1.429 1.068-.342.273-.435.561-.537.983.033 1.117.157 9.132-.064 9.659l-.8-.35c.14-.763.009-1.818.01-2.609l.029-6.939c.06-.304.161-.646.353-.894.365-.474.973-.819 1.467-1.15 1.054-.707 2.301-1.416 3.255-2.237.595-.413 1.27-.761 1.82-1.224z"/><path fill="#CDA4CF" d="M22.227 118.002c.35-.762.94-1.356 1.65-1.796.627-.389 1.313-.693 1.964-1.041l5.06-2.607 11.497-5.982 9.866-5.146c1.653-.868 3.381-1.977 5.122-2.621 1.38-.51 2.577-.58 4.026-.284 1.515.31 3.077 1.236 4.478 1.889l7.136 3.329.854.346c-.71.461-1.51.801-2.271 1.171-1.255.609-2.524 1.226-3.722 1.941 1.15-.18 2.104-.209 3.257-.019-.095.404-1.217 1.14-1.556 1.349-1.039.641-2.749 1.21-3.97.885-.285-.076-.469-.373-.63-.603l-3.86 1.782c-.761.336-1.518.83-2.292 1.107l.29.263c-.171.296-.545.428-.832.593-.855.491-1.808.907-2.624 1.45-.498.109-1.382.426-1.87.372l-.046.029c-.36.217-1.603.654-1.776.955l.028.215-.204.197c-.595.343-1.45.996-2.105 1.135l-.172-.077-3.667 2.303c-.517.372-1.041.801-1.6 1.106l-.853.525c-.551.463-1.226.811-1.82 1.224-.955.821-2.202 1.53-3.256 2.237-.494.331-1.101.676-1.467 1.15-.192.248-.293.59-.353.894-.673-.427-1.516-.729-2.242-1.065l-8.102-3.804c-.85-.427-1.827-.822-2.614-1.35-.358-.239-.672-.594-.917-.945-.242-.347-.318-.699-.407-1.107"/><path fill="#F4D4D8" d="m23.34 118.654-.182-.218a.86.86 0 0 1-.144-.667c.067-.3.224-.494.476-.658l.162.104-.027.065c-.07.172-.193.356-.226.538-.057.307.114.485.283.71.84.46 5.964 2.94 6.165 3.336l-.117.169c-1.518-.641-3.002-1.428-4.458-2.198-.602-.319-1.47-.67-1.933-1.181m49.685-14.912.854.346c-.71.461-1.51.801-2.272 1.171-1.254.609-2.524 1.227-3.722 1.941l-1.905.643.574-.822z"/><path fill="#AE5BB8" d="M57.091 112.227c-.052-.302-.094-.594-.059-.899.234-2.032 2.056-4.347 3.62-5.603.169 1.753-.243 3.063-.996 4.646-.133.186-.377.442-.378.675l.035.055c-.69.418-1.434.91-2.222 1.126"/><path fill="#B288C9" d="M49.533 116.397c-.116-.682-.142-1.259.04-1.938.607-2.265 2.135-4.445 4.151-5.654-.06 1.769-.526 3.542-1.448 5.057-.294.483-.674.902-.94 1.4l-.041.077z"/><path fill="#67248B" d="m64.058 108.802 1.796-.902c-.22.296-.532.748-.866.913l-3.86 1.782c-.762.336-1.519.83-2.292 1.107l.29.263c-.172.296-.546.428-.833.593-.855.491-1.807.907-2.624 1.449-.497.11-1.382.427-1.869.373l-.046.029c-.36.217-1.603.654-1.777.955l.028.215-.204.197c-.595.343-1.45.996-2.104 1.135l-.172-.077-3.668 2.303c-.517.371-1.041.801-1.599 1.106l-.854.525c.06-.352.67-.81.937-1.05l5.192-3.32 1.762-1.058 5.797-3.113c.788-.216 1.532-.707 2.223-1.126l-.036-.055c0-.233.245-.489.379-.675.76-.372 3.813-2.275 4.286-2.252.026.233.046.458.114.683"/><path fill="#F4D4D8" d="m58.837 111.701.29.264c-.172.296-.546.428-.833.593-.855.49-1.807.907-2.624 1.449-.498.109-1.382.427-1.87.373zm.82-1.329c.762-.373 3.814-2.275 4.287-2.253.026.233.046.459.114.684l-4.743 2.299-.036-.056c.001-.233.245-.489.379-.674"/><path fill="#AE5BB8" d="M63.943 108.12c.025-.008.073-.17.083-.202.55-1.684 1.83-3.603 3.313-4.604.067.046.116.057.141.136.33 1.041-.445 2.664-.926 3.573l-.573.822 1.905-.643c1.15-.18 2.104-.21 3.257-.019-.095.404-1.217 1.14-1.556 1.349-1.039.641-2.749 1.21-3.97.885-.285-.076-.469-.373-.63-.603.335-.165.647-.617.866-.913l-1.795.902c-.068-.225-.089-.45-.115-.683m-22.36 13.871c-.172-.399-.238-.869-.263-1.299-.114-1.997.823-4.351 1.697-6.115.397-.801.868-1.666 1.47-2.333l.148.045c.901 1.481.946 3.935.414 5.555-.19.578-.607 1.248-.702 1.826l-.007.047c-.267.241-.878.699-.937 1.05-.55.463-1.226.811-1.82 1.224"/><path fill="#CDA4CF" d="m73.88 104.088 11.504 5.297c1.326.619 2.913 1.148 4.132 1.935.474.305.97.793 1.173 1.331.109.288.115.606.11.91-.357.675-.788 1.193-1.426 1.623-.685.462-1.454.832-2.18 1.23l-3.576 1.933-9.034 4.741-11.15 5.856c-2.162 1.131-4.41 2.558-6.745 3.28-1.143.354-2.45.477-3.635.307-1.965-.282-3.73-1.117-5.567-1.818l-10.152-4.202c.102-.422.196-.71.538-.983.212-.381 1.044-.809 1.428-1.068l4.08-2.767c.363-.252.844-.498 1.134-.827-.193-.179-.211-.378-.256-.624.558-.305 1.083-.734 1.6-1.106l3.667-2.302.172.077c.654-.139 1.51-.792 2.105-1.135l.203-.198-.028-.215c.174-.301 1.417-.737 1.777-.955l.047-.028c.486.054 1.371-.264 1.869-.373.816-.543 1.769-.959 2.623-1.449.288-.165.662-.298.833-.593l-.29-.264c.774-.277 1.53-.77 2.292-1.106l3.86-1.783c.161.231.345.528.63.604 1.22.325 2.931-.245 3.97-.885.34-.21 1.46-.945 1.556-1.35-1.153-.19-2.108-.16-3.257.02 1.198-.715 2.467-1.333 3.721-1.942.762-.369 1.563-.709 2.272-1.171"/><path fill="#F4D4D8" d="M37.871 125.529c.218-.039.263-.048.473.034 1.227.48 2.449 1.136 3.65 1.688.314.144.912.312 1.162.52.026.022.074.172.09.212l-.178.119c-.956-.377-4.822-1.901-5.197-2.573m7.286 2.879.155-.041c.984.28 1.98.781 2.948 1.14l2.495.882c.34.118.76.189 1.033.429l-.08.259-.044.014c-.255.042-1.03-.307-1.292-.397l-3.407-1.248c-.597-.233-1.307-.461-1.83-.83z"/><path fill="#AE5BB8" d="m61.128 110.595.07.004c.623.025 1.252-.071 1.883-.059 1.192.024 2.44.403 3.572.77-1.837 1.124-4.003 1.852-6.164 1.339-.303-.072-1.168-.325-1.325-.607l-.038-.077-.29-.263c.773-.277 1.53-.771 2.292-1.107m-5.459 3.412c2.158-.036 3.93.276 6.004.87-2.224 1.527-5.01 2.344-7.707 1.852a4.7 4.7 0 0 1-1.171-.364c-.273-.129-.723-.563-.994-.59l.204-.197-.028-.215c.173-.301 1.417-.738 1.776-.955l.047-.028c.487.053 1.371-.264 1.869-.373m-9.812 5.13.073.003c.683.02 1.443-.284 2.14-.365 2.241-.262 4.479.047 6.634.678-2.64 1.721-5.543 2.747-8.712 2.061a4.3 4.3 0 0 1-1.479-.647c-.192-.179-.21-.378-.255-.624.558-.305 1.082-.734 1.6-1.106"/><path fill="#F2D594" d="m94.682 178.67-19.278-9.481-2.302 4.681 19.278 9.481z"/><path fill="#FFE6A6" d="m94.682 178.672 22.848-53.833a7 7 0 0 0 .484-1.725l.385-2.628a7.024 7.024 0 0 0-11.669-6.224s-1.965 1.11-3.897 4.332l-.224.414-27.206 50.184z"/><path fill="#201600" d="m121.96 107.738-4.228 8.583-7.641-3.758 4.134-8.394a.984.984 0 0 1 1.317-.449l6.066 2.983c.382.188.54.652.352 1.035"/><path fill="#59C8B8" d="m91.282 166.896-5.1-2.508a1.416 1.416 0 0 1-.645-1.896l14.559-29.606a1.416 1.416 0 0 1 1.896-.645l5.099 2.508c.702.345.991 1.193.646 1.895L93.178 166.25a1.416 1.416 0 0 1-1.896.646"/><path fill="#6B6966" d="m115.537 104.773-4.145 8.43-.829-.407 4.145-8.431a.462.462 0 1 1 .829.408m1.522.526-4.183 8.634-.829-.408 4.183-8.634a.462.462 0 1 1 .829.408m1.388.835-4.087 8.527-.831-.408 4.088-8.528a.463.463 0 0 1 .83.409m1.595.726-4.2 8.531-.829-.408 4.2-8.531a.462.462 0 1 1 .829.408m1.462.771-4.178 8.489-.829-.407 4.178-8.49a.463.463 0 1 1 .829.408"/><path fill="#FFF6E1" d="M117.4 119.548c.185 1.428-.232 2.86-.683 4.227a76 76 0 0 1-4.465 10.707c-.087.171-.209.364-.4.372-.302.011-.389-.41-.354-.71.269-2.326 1.457-4.426 2.344-6.593s1.473-4.667.53-6.811c-.346-.786-.889-1.5-1.038-2.346-.209-1.185.7-2.365 1.901-1.924 1.229.451 2.005 1.846 2.165 3.078m-17.485 40.425c-.145.312-.293.636-.301.981-.009.344.16.718.481.842a61.8 61.8 0 0 0 6.287-12.687c.142-.392.602-1.296.286-1.674-.356-.427-.661-.06-.888.202-.896 1.035-1.415 2.923-2.009 4.163a768 768 0 0 0-3.856 8.173"/><path fill="#CAA041" d="M74.76 174.024a.145.145 0 0 1-.066-.194l1.727-3.511a.146.146 0 0 1 .194-.066.146.146 0 0 1 .066.194l-1.727 3.511a.144.144 0 0 1-.194.066m1.04.512a.145.145 0 0 1-.067-.194l1.727-3.511a.145.145 0 0 1 .26.128l-1.727 3.511a.146.146 0 0 1-.194.066m1.04.512a.145.145 0 0 1-.066-.194l1.727-3.511a.145.145 0 0 1 .26.128l-1.727 3.511a.146.146 0 0 1-.194.066m1.041.511a.145.145 0 0 1-.066-.194l1.727-3.51a.145.145 0 0 1 .26.128l-1.727 3.51a.144.144 0 0 1-.194.066m1.04.512a.145.145 0 0 1-.067-.194l1.727-3.511a.146.146 0 0 1 .194-.066.145.145 0 0 1 .066.194l-1.726 3.511a.145.145 0 0 1-.194.066m1.04.512a.145.145 0 0 1-.066-.194l1.727-3.511a.145.145 0 0 1 .26.128l-1.726 3.511a.146.146 0 0 1-.195.066m1.042.51a.146.146 0 0 1-.067-.194l1.727-3.511a.145.145 0 0 1 .26.128l-1.726 3.511a.146.146 0 0 1-.195.066m1.039.511a.145.145 0 0 1-.066-.194l1.726-3.511a.146.146 0 0 1 .194-.066.146.146 0 0 1 .066.194l-1.726 3.511a.144.144 0 0 1-.194.066m1.04.512a.145.145 0 0 1-.065-.194l1.726-3.511a.146.146 0 0 1 .194-.066.145.145 0 0 1 .066.194l-1.726 3.511a.145.145 0 0 1-.194.066m1.04.512a.145.145 0 0 1-.066-.194l1.726-3.511a.145.145 0 0 1 .26.128l-1.726 3.511a.146.146 0 0 1-.194.066m1.04.512a.146.146 0 0 1-.065-.194l1.726-3.511a.145.145 0 0 1 .26.128l-1.726 3.51a.145.145 0 0 1-.194.067m1.042.511a.145.145 0 0 1-.066-.194l1.726-3.511a.146.146 0 0 1 .194-.066.145.145 0 0 1 .066.194l-1.726 3.511a.144.144 0 0 1-.194.066m1.039.512a.145.145 0 0 1-.066-.194l1.726-3.511a.145.145 0 0 1 .26.128l-1.726 3.511a.146.146 0 0 1-.194.066m1.04.512a.146.146 0 0 1-.065-.194l1.726-3.511a.145.145 0 0 1 .26.128l-1.726 3.511a.146.146 0 0 1-.194.066m1.04.511a.145.145 0 0 1-.066-.194l1.726-3.511a.146.146 0 0 1 .194-.066.146.146 0 0 1 .066.194l-1.726 3.511a.144.144 0 0 1-.194.066m1.04.512a.145.145 0 0 1-.065-.194l1.726-3.511a.146.146 0 0 1 .194-.066.145.145 0 0 1 .066.194l-1.726 3.511a.145.145 0 0 1-.194.066m1.042.512a.145.145 0 0 1-.066-.194l1.726-3.511a.145.145 0 0 1 .26.128l-1.726 3.511a.146.146 0 0 1-.194.066"/><path fill="#201600" d="M90.49 162.856a.174.174 0 0 1-.085-.22l1.469-3.706c.337-.852.772-1.786 1.66-2.09a3 3 0 0 1 .397-.1c.135-.027.263-.053.382-.098.177-.065.39-.213.404-.415.009-.121-.052-.256-.116-.398-.127-.282-.3-.668.146-1.022a1 1 0 0 1 .26-.135c.577-.209.843-.848.898-1.376.014-.132.022-.3-.042-.432a1 1 0 0 0-.096-.149c-.088-.123-.187-.262-.183-.449.005-.208.138-.362.263-.491a25 25 0 0 1 2.03-1.873c-.427-.044-.875-.01-1.311.024-.771.059-1.57.118-2.282-.239-.303-.153-.495-.361-.555-.6-.064-.257.03-.503.107-.665.512-1.087 1.69-1.622 2.532-1.929a14 14 0 0 1 1.705-.502.17.17 0 0 1 .042-.11c.159-.182.345-.34.55-.468l-.057-.017c-.29-.088-.47-.248-.52-.453a5 5 0 0 1-.845-.172c-.28-.083-.627-.217-.83-.516-.215-.315-.22-.772-.014-1.165.178-.341.467-.589.753-.806a9.1 9.1 0 0 1 5.027-1.832l.046-.003c.193-.009.375-.017.527-.089.128-.059.245-.198.221-.326-.008-.041-.032-.089-.057-.14-.04-.083-.086-.177-.093-.291-.017-.305.229-.474.426-.609.139-.095.27-.185.303-.296.014-.047.012-.109.011-.174a1 1 0 0 1 .014-.242c.048-.218.203-.364.34-.493q.08-.074.143-.144c.066-.077.102-.209.079-.289-.01-.033-.024-.037-.034-.041a.174.174 0 0 1 .1-.333c.132.04.228.138.268.277a.7.7 0 0 1-.149.613 2 2 0 0 1-.169.17c-.115.108-.213.201-.238.314-.01.045-.008.1-.007.159a.9.9 0 0 1-.025.282c-.068.23-.265.365-.439.484-.174.12-.281.198-.275.302a.5.5 0 0 0 .058.158c.032.066.069.141.085.229.059.308-.163.588-.414.705-.214.101-.451.112-.659.122l-.045.002a8.77 8.77 0 0 0-4.833 1.762c-.254.193-.509.41-.656.69-.147.281-.15.598-.007.808.142.209.418.312.642.379q.38.112.78.159a.7.7 0 0 1 .232-.283 3.1 3.1 0 0 1 1.682-.574.5.5 0 0 1 .524.429.506.506 0 0 1-.356.582 5.2 5.2 0 0 1-1.69.223.7.7 0 0 0 .196.09q.256.078.525.081c.235-.077.482-.12.73-.125a.175.175 0 0 1 .174.142.175.175 0 0 1-.111.195 2.2 2.2 0 0 1-.737.136 2.2 2.2 0 0 0-.678.386q.474-.087.956-.143c.176-.02.473-.054.7.132a.46.46 0 0 1 .158.499c-.084.253-.343.292-.44.306a2.34 2.34 0 0 1-1.647-.385q-.945.2-1.853.532c-1.246.455-1.988 1.011-2.337 1.75-.084.18-.112.321-.084.433.044.175.228.299.375.373.629.319 1.341.262 2.098.203.591-.045 1.202-.092 1.788.046a.174.174 0 0 1 .069.305 25 25 0 0 0-2.3 2.088c-.082.084-.162.174-.164.256-.001.071.054.149.118.239.044.061.09.125.126.199.102.211.094.442.075.62-.066.633-.397 1.403-1.126 1.667a.6.6 0 0 0-.162.081c-.225.178-.176.314-.045.606.076.168.161.358.146.567-.027.366-.344.61-.63.715a3 3 0 0 1-.434.113c-.124.026-.242.05-.354.088-.748.256-1.14 1.11-1.45 1.889l-1.468 3.706a.175.175 0 0 1-.226.098zm9.51-16.751c-.104-.051-.245-.04-.392-.023q-.369.042-.735.104c.332.144.704.196 1.063.143.144-.021.156-.055.162-.072.012-.037-.009-.087-.049-.12a.2.2 0 0 0-.05-.032m.132-2.002a.2.2 0 0 0-.082-.016 2.74 2.74 0 0 0-1.491.508l-.039.032a4.9 4.9 0 0 0 1.583-.208c.132-.041.118-.167.114-.192s-.022-.093-.085-.124"/><path fill="#F3E3CA" d="M239.831 93.471c.196-1.502-.256-2.857-1.074-3.61a4.4 4.4 0 0 1 .922.06c1.512.248 2.541 1.976 2.281 3.97s-1.691 3.296-3.223 3.25c-.579-.016-1.073-.109-1.489-.264 1.264-.317 2.347-1.597 2.583-3.406"/><path fill="#E0C7A4" d="M235.475 93.418c.229-1.751 1.224-3.464 3.283-3.557.817.753 1.398 2.174 1.202 3.677-.236 1.808-1.448 3.021-2.711 3.339-1.484-.553-1.977-1.902-1.774-3.46"/><path fill="#FFF5E9" d="M229.509 93.753c.826 2.465 3.864 4.228 6.463 3.355 2.599-.874 4.339-2.986 3.512-5.45-.826-2.466-4.373-4.566-6.972-3.693-2.924.983-3.83 3.323-3.003 5.788"/><path fill="#F3E3CA" d="m234.539 110.432 2.914-.498a.82.82 0 0 0 .672-.95l-3.21-18.861a.82.82 0 0 0-.949-.674l-2.914.498a.824.824 0 0 0-.673.95l3.211 18.861c.076.449.501.75.949.674"/><path fill="#D1775E" d="m235.393 108.402.022-.002a.144.144 0 0 0 .119-.164l-.226-1.441a.143.143 0 0 0-.283.044l.226 1.442c.012.07.072.121.142.121"/><path fill="#fff" d="m231.923 96.325.022-.002a.114.114 0 0 0 .09-.134 68 68 0 0 1-.665-4.164c-.035-.27-.078-.607.022-.894.124-.358.51-.552 1.216-.611q.292-.025.586-.027c.291-.003.525.02.713.136.333.208.429.672.493 1.09a.114.114 0 1 0 .226-.035c-.072-.468-.183-.99-.599-1.249-.248-.155-.547-.174-.835-.171q-.301.003-.603.028c-.293.024-1.182.099-1.413.764-.117.338-.07.704-.033.998a68 68 0 0 0 .668 4.178c.01.055.058.093.112.093m5.106 11.65.016-.001a.114.114 0 0 0 .097-.129 200 200 0 0 0-1.59-9.397.115.115 0 0 0-.133-.09.115.115 0 0 0-.091.133 201 201 0 0 1 1.588 9.387.114.114 0 0 0 .113.097"/><path fill="#fff" d="M238.234 94.537a.12.12 0 0 0 .085-.037c.628-.69.797-1.784.429-2.789-.646-1.764-2.534-2.873-4.119-3.19-1.074-.215-2.14-.03-2.925.508a.114.114 0 1 0 .129.189c.734-.503 1.737-.675 2.752-.473 1.522.305 3.333 1.364 3.948 3.045.339.925.189 1.929-.383 2.556a.115.115 0 0 0 .084.191"/><path fill="#F3E3CA" d="m227.555 101.984.559-1.516a1.496 1.496 0 0 0-.883-1.922l-16.66-6.166a1.493 1.493 0 0 0-1.919.885l-.559 1.516c-.286.775.11 1.636.883 1.922l16.66 6.166a1.494 1.494 0 0 0 1.919-.885"/><path fill="#FFF5E9" d="M212.99 96.458c2.717.549 5.328-1.256 5.87-3.948s-1.196-5.36-3.912-5.908-5.825 1.524-6.367 4.215c-.609 3.028 1.693 5.092 4.409 5.641"/><path fill="#D1775E" d="M225.87 100.933a.143.143 0 0 0 .052-.277l-1.36-.523a.14.14 0 0 0-.185.082.14.14 0 0 0 .082.185l1.36.524a.2.2 0 0 0 .051.009m-7.92-3.115a.143.143 0 0 0 .052-.277l-1.36-.524a.143.143 0 0 0-.185.083.143.143 0 0 0 .082.185l1.36.523a.14.14 0 0 0 .051.01"/><path fill="#F3E3CA" d="M219.755 91.251s-3.339-1.586-6.026-5.416c0 0 1.064-1.975 3.08-2.442a1.7 1.7 0 0 1 1.227.181c.735.417 2.087 1.322 3.132 2.806.272.387.415.852.398 1.324-.027.78-.383 1.989-1.811 3.547"/><path fill="#E0C7A4" d="M219.405 85.166c.803.71 1.498 1.236 1.552 1.175s-.553-.687-1.356-1.397c-.804-.71-1.499-1.237-1.553-1.176s.553.687 1.357 1.398"/><path fill="#D1775E" d="M211.204 91.814a1.03 1.03 0 1 0 1.954-.657 1.03 1.03 0 1 0-1.954.657"/><path fill="#fff" d="M213.793 95.65c1.079 0 2.163-.404 2.905-1.06 1.005-.889 1.487-2.324 1.202-3.571a.114.114 0 0 0-.137-.086.115.115 0 0 0-.086.137c.268 1.168-.186 2.514-1.13 3.349-1.272 1.124-3.6 1.466-5.039.182a.114.114 0 1 0-.151.17c.685.612 1.559.878 2.436.878m-3.757-3.526.02-.002a.114.114 0 0 0 .092-.133 3.36 3.36 0 0 1 .516-2.447 3.35 3.35 0 0 1 2.072-1.396.115.115 0 0 0 .089-.135.115.115 0 0 0-.136-.089 3.58 3.58 0 0 0-2.214 1.493 3.6 3.6 0 0 0-.552 2.615c.01.055.058.094.113.094m14.159 9.493a.114.114 0 0 0 .037-.222l-12.302-4.18a.114.114 0 1 0-.073.217l12.302 4.179a.1.1 0 0 0 .036.006"/><path fill="#BB673C" d="M505.674 199.242c-.055 1.639-1.164 3.017-1.769 4.469-.949 2.482-1.646 5.081-2.88 7.464q.238-1.601.647-3.168c.414-1.568.796-3.154 1.499-4.635s1.925-2.588 2.503-4.13m.966.324c.594 2.434-.311 4.518-1.609 6.531a27 27 0 0 0-1.426 2.993 9 9 0 0 0-.566 1.533 2.23 2.23 0 0 0 .114 1.586c-.438-.409-.557-1.064-.53-1.643a7 7 0 0 1 .357-1.709 14 14 0 0 1 1.315-3.185c.574-.968 1.21-1.84 1.624-2.876.41-1.03.653-2.119.721-3.225zm2.188-.099a46 46 0 0 1-1.648 6.487c-.614 2.123-1.688 4.094-1.699 6.353-.372-1.078-.254-2.287-.022-3.385.233-1.097.562-2.191.908-3.231a46 46 0 0 1 2.461-6.224m1.428.662c-.439 2.164-1.173 4.235-1.798 6.333a46 46 0 0 0-1.516 6.354c-.596-4.382 1.293-8.89 3.314-12.685zm-6.282 38.767c-.064.539-.583.921-.877 1.315-.293.394-.302.804-.239 1.314.274 1.405.049 2.097-.751 3.205-.673.859-.559 1.799-.82 2.848-.219 1.041-1.346 1.766-1.046 2.905a1.27 1.27 0 0 1-.238-.782c-.014-.784.554-1.559.631-2.263.063-.475.046-.994.114-1.562.055-1.078 1.043-1.971 1.374-2.87.259-.9-.263-2.339.671-3.078.438-.376.925-.55 1.181-1.032m1.497.218c.061 1.549-.057 3.146-.616 4.616-.384.973-.901 1.753-1.151 2.761-.403 1.461-.708 2.935-1.076 4.427a14.2 14.2 0 0 1 .044-3.089c.116-1.036.3-2.112.765-3.067a16.6 16.6 0 0 0 1.196-2.727c.305-.947.531-1.941.838-2.93zm2.192-.526c.158 2.17-.11 4.351-.789 6.419-.642 2.053-1.651 3.904-1.563 6.103-.789-2.085.129-4.381.75-6.353.657-2.026 1.122-4.073 1.602-6.16zm2.227 1.221c.359 1.899.171 3.862-.149 5.748a32 32 0 0 1-1.46 5.541c.04-3.705 1.044-7.635 1.609-11.289m2.738.259c-.2 1.902-.219 3.742-.364 5.642-.145 1.899-.458 3.884-1.491 5.516.388-1.871.491-3.692.638-5.584.147-1.893.362-3.852 1.217-5.574m2.574-.007a30.8 30.8 0 0 1-2.882 11.707q.436-2.99 1.188-5.915a57 57 0 0 1 1.694-5.792m2.357.834a36.2 36.2 0 0 1-3.198 11.709 45 45 0 0 1 1.267-5.946 46 46 0 0 1 1.931-5.763m1.867.218c-.074 3.911-2.38 7.508-1.391 11.473-2.192-3.658.144-7.886 1.391-11.473m2.977.098a42 42 0 0 1-1.548 6.217c-.283.971-.758 1.972-.863 2.951-.106.98.366 2.097.219 3.131-.219-1.095-.835-1.972-.89-3.137a5.2 5.2 0 0 1 .248-1.676c.76-2.561 1.626-5.081 2.829-7.477zm2.682.414c-.307 1.923-.863 3.777-1.183 5.68a18.5 18.5 0 0 0-.182 5.696c-1.8-3.654-.465-8.005 1.365-11.392zm2.592.48c-.138 3.109-.027 6.327-1.344 9.226-.449.966-1.026 1.787-1.392 2.767a5.5 5.5 0 0 1 .279-1.549 24.5 24.5 0 0 0 1.181-4.395c.36-2.011.539-4.112 1.276-6.049m2.974.172c-.241 1.589-.532 3.3-.734 4.888-.149 1.108-.219 2.27-.708 3.321-.697 1.534-1.973 2.675-2.448 4.314a4.3 4.3 0 0 1 .296-1.663c.388-1.027 1.01-1.972 1.405-2.966.394-.995.451-2.071.657-3.131a18.4 18.4 0 0 1 1.534-4.763zm2.128.454c-.075 2.997-.798 5.944-1.854 8.737a23 23 0 0 1-.914 2.051c-.097.203-.219.451-.057.657-.423-.283-.057-1.056-.011-1.466.112-.482.219-.966.34-1.443.74-2.879 1.479-5.736 2.496-8.544zm1.524.26c.22 2.28.022 4.582-.585 6.791-.274 1.058-.717 2.066-.658 3.177a5 5 0 0 1-.142 1.752c-.152.535-.408 1.061-.154 1.602-.438-.438-.307-1.144-.256-1.683.12-.861-.219-1.649-.171-2.521s.342-1.735.546-2.55c.587-2.174.99-4.36 1.411-6.573z"/><path fill="#F79448" d="m535.372 244.689-32.657-4.706 8.283-37.926 15.432-70.707 32.083 8.02z"/><path fill="#BB673C" d="m510.997 202.057-6.772-1.692 22.205-69.015zm32.306.274a1.134 1.134 0 0 0 .827 1.376q.117.028.239.03l.477-2.171a1 1 0 0 0-.166-.059 1.136 1.136 0 0 0-1.377.824m2.752-10.988a1.13 1.13 0 0 0 .745 1.347l.482-2.19a1.13 1.13 0 0 0-1.227.843m-6.878 32.155a1.14 1.14 0 0 0-1.066.279 1.134 1.134 0 0 0 1.48 1.717l.311-1.419a1.12 1.12 0 0 0-.725-.577m1.377-10.172a1.12 1.12 0 0 0 .127.86 1.14 1.14 0 0 0 .699.516c.193.048.395.043.585-.015l.425-1.939a1.1 1.1 0 0 0-.46-.245 1.13 1.13 0 0 0-1.376.823m-4.128 21.176a1.133 1.133 0 1 0-.545 2.199 1.133 1.133 0 0 0 .545-2.199m4.131-86.605a1.132 1.132 0 1 0-.548 2.197 1.132 1.132 0 0 0 .548-2.197m4.126 6.871a1.133 1.133 0 1 0-.548 2.198 1.133 1.133 0 0 0 .548-2.198m-11.002-2.748a1.133 1.133 0 1 0-.548 2.198 1.133 1.133 0 0 0 .548-2.198m13.76-8.246a1.13 1.13 0 0 0-1.184.426 1.135 1.135 0 0 0-.06 1.257 1.135 1.135 0 0 0 2.093-.752 1.13 1.13 0 0 0-.448-.744 1.1 1.1 0 0 0-.401-.187m-11.009-2.75a1.132 1.132 0 1 0-.548 2.197 1.132 1.132 0 0 0 .548-2.197m-9.059 15.461a1 1 0 0 0-.16-.147l.057.05c.035.033.072.062.103.097m15.936-19.586a1.136 1.136 0 0 0-.76 2.127 1.134 1.134 0 1 0 .76-2.127m-8.252 32.99a1.132 1.132 0 1 0-.548 2.197 1.132 1.132 0 0 0 .548-2.197m10.999 2.75a1.133 1.133 0 1 0-.548 2.198 1.133 1.133 0 0 0 .548-2.198m-6.875 4.123a1.133 1.133 0 1 0-.548 2.198 1.133 1.133 0 0 0 .548-2.198m-11.002-2.748a1.14 1.14 0 0 0-1.184.426 1.132 1.132 0 1 0 1.184-.426m13.753-8.248a1.132 1.132 0 1 0-.548 2.197 1.132 1.132 0 0 0 .548-2.197m-11.002-2.748a1.132 1.132 0 1 0-.548 2.197 1.132 1.132 0 0 0 .548-2.197m-9.061 15.459a1 1 0 0 0-.162-.147c.022.015.037.035.057.05q.056.045.105.097m16.344-19.39a1.2 1.2 0 0 0-.405-.195 1.14 1.14 0 0 0-1.184.419 1.1 1.1 0 0 0-.193.405 1.14 1.14 0 0 0 .383 1.255 1.134 1.134 0 0 0 1.809-.705 1.14 1.14 0 0 0-.419-1.181zm-8.66 32.797a1.134 1.134 0 0 0-1.247 1.681 1.13 1.13 0 0 0 1.138.538 1.13 1.13 0 0 0 .805-1.703 1.13 1.13 0 0 0-.696-.516m11.001 2.745a1.14 1.14 0 0 0-1.185.425 1.135 1.135 0 0 0 1.076 1.795 1.133 1.133 0 0 0 .109-2.22m-6.877 4.127a1.13 1.13 0 0 0-1.184.426 1.134 1.134 0 1 0 2.011.95 1.14 1.14 0 0 0-.827-1.376m-11.002-2.75a1.13 1.13 0 0 0-1.184.425 1.125 1.125 0 0 0-.062 1.256 1.135 1.135 0 0 0 1.137.539 1.14 1.14 0 0 0 .933-.844 1.14 1.14 0 0 0-.824-1.376m13.756-8.247a1.14 1.14 0 0 0-1.189.424 1.14 1.14 0 0 0 .426 1.703 1.138 1.138 0 0 0 1.587-.753 1.13 1.13 0 0 0-.824-1.374m-11.003-2.749a1.132 1.132 0 1 0-.548 2.197 1.132 1.132 0 0 0 .548-2.197m7.284-3.93a1.2 1.2 0 0 0-.408-.195 1.13 1.13 0 0 0-1.17.419 1.14 1.14 0 0 0-.22.854 1.134 1.134 0 0 0 1.07.958 1.14 1.14 0 0 0 1.153-.857 1.2 1.2 0 0 0 .02-.449 1.15 1.15 0 0 0-.445-.73m11.004 2.751a1.15 1.15 0 0 0-.855-.219 1.15 1.15 0 0 0-.927.845 1.136 1.136 0 0 0 1.049 1.41 1.132 1.132 0 0 0 .733-2.036m-19.665 30.045a1.132 1.132 0 1 0-.552 2.196 1.132 1.132 0 0 0 .552-2.196m11.001 2.749a1.13 1.13 0 0 0-1.184.426 1.14 1.14 0 0 0-.06 1.256 1.13 1.13 0 0 0 1.138.538 1.14 1.14 0 0 0 .933-.844 1.14 1.14 0 0 0-.827-1.376m-6.877 4.124a1.13 1.13 0 0 0-1.184.424 1.13 1.13 0 0 0-.062 1.256 1.132 1.132 0 1 0 1.246-1.68m-11.002-2.751a1.13 1.13 0 0 0-1.183.426 1.13 1.13 0 0 0 .427 1.697 1.13 1.13 0 0 0 1.244-.184c.166-.15.284-.346.339-.563a1.14 1.14 0 0 0-.827-1.376m13.753-8.251a1.132 1.132 0 1 0-.552 2.196 1.132 1.132 0 0 0 .552-2.196m-11-2.744a1.132 1.132 0 1 0-.552 2.196 1.132 1.132 0 0 0 .552-2.196m6.876-4.124a1.14 1.14 0 0 0-1.376.826 1.136 1.136 0 0 0 2.007.957 1.14 1.14 0 0 0 .066-1.265 1.14 1.14 0 0 0-.697-.518m10.996 2.751a1.134 1.134 0 0 0-1.374.824 1.2 1.2 0 0 0-.022.438c.035.22.133.425.284.589a1.13 1.13 0 0 0 1.215.305 1.13 1.13 0 0 0 .724-.793 1.134 1.134 0 0 0-.827-1.363m-19.251 30.239a1.133 1.133 0 1 0-.545 2.199 1.133 1.133 0 0 0 .545-2.199m11.003 2.749a1.13 1.13 0 0 0-1.184.424 1.13 1.13 0 0 0-.062 1.256 1.13 1.13 0 0 0 1.137.539 1.132 1.132 0 0 0 .109-2.219m-7.509 4.15 1.002.144a1.2 1.2 0 0 0-.369-.171 1.16 1.16 0 0 0-.633.027m-10.368-2.776a1.14 1.14 0 0 0-1.377.826 1.2 1.2 0 0 0-.03.254l2.222.32v-.024a1.13 1.13 0 0 0-.815-1.376m13.753-8.245a1.132 1.132 0 1 0-.552 2.196 1.132 1.132 0 0 0 .552-2.196m-11.004-2.75a1.133 1.133 0 1 0-.552 2.197 1.133 1.133 0 0 0 .552-2.197m6.877-4.135a1.132 1.132 0 0 0-1.411 1.044 1.14 1.14 0 0 0 .648 1.083 1.137 1.137 0 0 0 1.46-1.609 1.14 1.14 0 0 0-.697-.518m11.002 2.762a1.132 1.132 0 1 0-.552 2.196 1.132 1.132 0 0 0 .552-2.196"/><path fill="#BB673C" d="M527.213 156.338a1 1 0 0 1 .16.147c-.031-.035-.068-.064-.103-.097zm3.168-9.818a1.135 1.135 0 0 0-1.299-1.398 1.14 1.14 0 0 0-.939 1.04 1.14 1.14 0 0 0 1.979.843c.125-.138.214-.305.259-.485m-6.878 4.125a1.134 1.134 0 0 0-.828-1.363 1 1 0 0 0-.158-.024l-.478 2.191c.029 0 .055.024.086.03a1.13 1.13 0 0 0 .863-.129 1.14 1.14 0 0 0 .515-.705m2.753-11.003a1.13 1.13 0 0 0-.282-1.065 1.12 1.12 0 0 0-1.055-.315l-.439 2.015q.183.133.402.188a1.137 1.137 0 0 0 1.374-.823m6.875-4.117a1.13 1.13 0 1 0-2.195-.543 1.13 1.13 0 0 0 2.195.543m-11.424 42.805a1 1 0 0 1 .16.147 1 1 0 0 0-.105-.097c-.018-.015-.033-.035-.055-.05m3.17-9.816a1.133 1.133 0 0 0-1.298-1.393 1.14 1.14 0 0 0-.936 1.038 1.137 1.137 0 0 0 1.978.839c.124-.138.212-.304.256-.484m-6.874 4.122a1.13 1.13 0 0 0-.342-1.111l-.419 1.915a1.14 1.14 0 0 0 .761-.804m2.749-10.995a1.135 1.135 0 0 0-.657-1.315l-.474 2.169a1.13 1.13 0 0 0 1.131-.854"/><path fill="#BB673C" d="M527.631 157.519a1.137 1.137 0 0 0-1.867-1.113c-.164.15-.281.346-.334.563a1.134 1.134 0 0 0 2.192.55zm-8.244 32.989a1.133 1.133 0 0 0-1.298-1.393 1.14 1.14 0 0 0-.936 1.039 1.134 1.134 0 0 0 1.522 1.145 1.14 1.14 0 0 0 .712-.791m-4.209-7.613-.289 1.314c.177-.152.304-.356.361-.583a1.1 1.1 0 0 0-.072-.731m6.756-2.978c.091-.12.156-.258.193-.405a1.2 1.2 0 0 0 .022-.449 1.15 1.15 0 0 0-.846-.927 1.135 1.135 0 0 0-1.386 1.264 1.135 1.135 0 0 0 2.028.506zm-8.059 32.584c.062-.246.04-.506-.062-.738a1.14 1.14 0 0 0-1.236-.66 1.136 1.136 0 0 0-.157 2.201 1.14 1.14 0 0 0 1.197-.319c.125-.138.213-.304.258-.484m2.555-10.591c.092-.121.158-.259.196-.405a1.14 1.14 0 0 0-.383-1.255 1.13 1.13 0 0 0-1.639.274 1.1 1.1 0 0 0-.17.431 1.2 1.2 0 0 0-.022.438 1.14 1.14 0 0 0 1.508.892c.202-.074.38-.204.51-.375m-8.059 32.591a1.13 1.13 0 0 0-.824-1.373 1.133 1.133 0 1 0 .824 1.373m2.75-11.003a1.13 1.13 0 0 0-.567-1.27 1.126 1.126 0 0 0-1.371.242 1.13 1.13 0 1 0 1.938 1.028"/><defs><linearGradient id="b" x1="34.895" x2="45.985" y1="129.956" y2="126.646" gradientUnits="userSpaceOnUse"><stop stop-color="#E3D1D0"/><stop offset="1" stop-color="#F4C5DC"/></linearGradient><pattern id="a" width="1" height="1" patternContentUnits="objectBoundingBox"><use xlink:href="#c" transform="scale(.00078 .0012)"/></pattern></defs></svg>