<svg xmlns="http://www.w3.org/2000/svg" width="212" height="240" fill="none"><g clip-path="url(#a)"><path fill="#F6F6F6" fill-rule="evenodd" d="M27.22 236.5a1.66 1.66 0 1 1 0 3.31 1.66 1.66 0 0 1-1.66-1.65c0-.91.74-1.65 1.66-1.65m12.16 0a1.66 1.66 0 1 1 0 3.3 1.66 1.66 0 0 1-1.66-1.65c0-.91.74-1.65 1.66-1.65m12.15 0a1.66 1.66 0 1 1 0 3.3 1.66 1.66 0 0 1-1.65-1.65c0-.91.74-1.65 1.65-1.65m12.16 0a1.66 1.66 0 1 1 0 3.3 1.66 1.66 0 0 1-1.65-1.65c0-.91.74-1.65 1.65-1.65m12.16 0a1.66 1.66 0 1 1 0 3.3 1.66 1.66 0 0 1-1.66-1.65c0-.91.75-1.65 1.66-1.65m12.16 0a1.66 1.66 0 1 1 0 3.3 1.66 1.66 0 0 1-1.66-1.65c0-.91.74-1.65 1.66-1.65m12.16 0a1.66 1.66 0 1 1 0 3.3 1.66 1.66 0 0 1-1.66-1.65c0-.91.74-1.65 1.66-1.65m12.16 0a1.66 1.66 0 1 1 0 3.3 1.66 1.66 0 0 1-1.66-1.65c0-.91.74-1.65 1.65-1.65m12.16 0a1.66 1.66 0 1 1 0 3.3 1.66 1.66 0 0 1-1.65-1.65c0-.91.74-1.65 1.65-1.65m12.16-.07a1.66 1.66 0 1 1 0 3.3 1.66 1.66 0 1 1 0-3.3m12.16 0a1.66 1.66 0 1 1 0 3.31 1.66 1.66 0 0 1 0-3.31m12.16 0a1.66 1.66 0 1 1 0 3.31 1.66 1.66 0 0 1 0-3.31m12.16 0a1.66 1.66 0 1 1 0 3.3 1.66 1.66 0 0 1 0-3.3m12.15 0a1.66 1.66 0 1 1 0 3.3 1.66 1.66 0 0 1 0-3.3m12.16 0a1.66 1.66 0 1 1 0 3.3 1.66 1.66 0 0 1 0-3.3m12.16 0a1.66 1.66 0 1 1 0 3.3 1.66 1.66 0 0 1 0-3.3m-85.1-12.06a1.66 1.66 0 1 1 0 3.31 1.66 1.66 0 0 1 0-3.31m12.15-.07a1.66 1.66 0 1 1 0 3.3 1.66 1.66 0 0 1-1.66-1.65c0-.91.75-1.65 1.66-1.65m12.16 0a1.66 1.66 0 1 1 0 3.3 1.66 1.66 0 0 1-1.66-1.65c0-.91.74-1.65 1.66-1.65m12.16 0a1.66 1.66 0 1 1 0 3.3 1.66 1.66 0 0 1-1.66-1.65c0-.91.74-1.65 1.66-1.65m-133.74.07a1.66 1.66 0 1 1 0 3.31 1.66 1.66 0 0 1 0-3.31m24.31 0a1.66 1.66 0 1 1 0 3.31 1.66 1.66 0 0 1 0-3.31m24.32 0a1.66 1.66 0 1 1 0 3.31 1.66 1.66 0 0 1 0-3.31m24.32 0a1.66 1.66 0 1 1 0 3.31 1.66 1.66 0 0 1 0-3.31m12.15 0a1.66 1.66 0 1 1 0 3.31 1.66 1.66 0 0 1 0-3.31m72.95-.07a1.66 1.66 0 1 1 0 3.3 1.66 1.66 0 0 1-1.65-1.65c0-.91.74-1.65 1.65-1.65m-145.9.07a1.66 1.66 0 1 1 .01 3.31 1.66 1.66 0 0 1 0-3.31m158.05-.07a1.66 1.66 0 1 1 0 3.3 1.66 1.66 0 0 1-1.66-1.65c0-.91.75-1.65 1.66-1.65m-133.74.07a1.66 1.66 0 1 1 0 3.31 1.66 1.66 0 0 1 0-3.31m145.9-.07a1.66 1.66 0 1 1 0 3.3 1.66 1.66 0 0 1-1.66-1.65c0-.91.74-1.65 1.66-1.65m-121.58.07a1.66 1.66 0 1 1 0 3.31 1.66 1.66 0 0 1 0-3.31m85.1-.07a1.66 1.66 0 1 1 0 3.3 1.66 1.66 0 0 1-1.65-1.65c0-.91.74-1.65 1.66-1.65M51.53 212.25a1.65 1.65 0 1 1 0 3.3 1.66 1.66 0 1 1 0-3.3m24.32 0a1.66 1.66 0 1 1 0 3.31 1.66 1.66 0 0 1 0-3.31m12.16 0a1.66 1.66 0 1 1 0 3.3 1.66 1.66 0 1 1 0-3.3m12.16 0a1.66 1.66 0 1 1 0 3.3 1.66 1.66 0 1 1 0-3.3m12.16 0a1.66 1.66 0 1 1 0 3.3 1.66 1.66 0 1 1 0-3.3m-85.11 0a1.66 1.66 0 1 1 0 3.3 1.66 1.66 0 1 1 0-3.3m12.16 0a1.66 1.66 0 1 1 0 3.3 1.66 1.66 0 1 1 0-3.3m24.31 0a1.66 1.66 0 1 1 0 3.31 1.66 1.66 0 0 1 0-3.31m60.8 0a1.66 1.66 0 1 1 0 3.3 1.66 1.66 0 1 1 0-3.3m12.15-.07a1.66 1.66 0 1 1 0 3.3 1.66 1.66 0 1 1 0-3.3m12.16 0a1.66 1.66 0 1 1 0 3.31 1.66 1.66 0 0 1 0-3.31m12.16 0a1.66 1.66 0 1 1 0 3.31 1.66 1.66 0 0 1 0-3.31m12.16 0a1.66 1.66 0 1 1 0 3.31 1.66 1.66 0 0 1 0-3.31m12.15 0a1.66 1.66 0 1 1 0 3.31 1.66 1.66 0 0 1 0-3.31m12.16 0a1.66 1.66 0 1 1 0 3.31 1.66 1.66 0 0 1 0-3.31m12.16 0a1.66 1.66 0 1 1 0 3.31 1.66 1.66 0 0 1 0-3.31M27.22 200.12a1.66 1.66 0 1 1 0 3.3 1.66 1.66 0 0 1-1.66-1.64c0-.92.74-1.66 1.66-1.66m12.16 0a1.66 1.66 0 1 1 0 3.3 1.66 1.66 0 0 1-1.66-1.64c0-.92.74-1.66 1.66-1.66m12.15 0a1.66 1.66 0 1 1 0 3.3 1.66 1.66 0 0 1-1.65-1.64c0-.92.74-1.66 1.65-1.66m12.16 0a1.66 1.66 0 1 1 0 3.3 1.66 1.66 0 0 1-1.66-1.64c0-.92.75-1.66 1.66-1.66m12.16 0a1.66 1.66 0 1 1 0 3.3 1.66 1.66 0 0 1-1.66-1.64c0-.92.74-1.66 1.66-1.66m12.16 0a1.66 1.66 0 1 1 0 3.3 1.66 1.66 0 0 1-1.66-1.64c0-.92.74-1.66 1.66-1.66m12.16 0a1.66 1.66 0 1 1 0 3.3 1.66 1.66 0 0 1-1.66-1.64c0-.92.74-1.66 1.66-1.66m12.15 0a1.66 1.66 0 1 1 0 3.3 1.66 1.66 0 0 1-1.65-1.64c0-.92.74-1.66 1.65-1.66m12.16 0a1.66 1.66 0 1 1 0 3.3 1.66 1.66 0 0 1-1.66-1.64c0-.92.75-1.66 1.66-1.66m12.16-.07a1.66 1.66 0 1 1 0 3.3 1.65 1.65 0 1 1 0-3.3m12.16 0a1.66 1.66 0 1 1 0 3.31 1.66 1.66 0 0 1 0-3.3m12.16 0a1.66 1.66 0 1 1 0 3.3 1.66 1.66 0 0 1 0-3.3m12.16 0a1.66 1.66 0 1 1 0 3.3 1.66 1.66 0 1 1 0-3.3m12.15 0a1.66 1.66 0 1 1 0 3.3 1.66 1.66 0 1 1 0-3.3m12.16 0a1.66 1.66 0 1 1 0 3.3 1.66 1.66 0 1 1 0-3.3m12.16 0a1.66 1.66 0 1 1 0 3.3 1.66 1.66 0 1 1 0-3.3M27.22 187.98a1.66 1.66 0 1 1 0 3.31 1.66 1.66 0 0 1 0-3.3m12.16 0a1.66 1.66 0 1 1 0 3.3 1.66 1.66 0 0 1 0-3.3m12.15 0a1.66 1.66 0 1 1 0 3.3 1.66 1.66 0 0 1 0-3.3m12.16 0a1.66 1.66 0 1 1 0 3.3 1.66 1.66 0 0 1 0-3.3m12.16 0a1.66 1.66 0 1 1 0 3.3 1.66 1.66 0 0 1 0-3.3m12.16 0a1.66 1.66 0 1 1 0 3.3 1.66 1.66 0 0 1 0-3.3m12.16 0a1.66 1.66 0 1 1 0 3.3 1.66 1.66 0 0 1 0-3.3m12.15 0a1.66 1.66 0 1 1 0 3.3 1.66 1.66 0 0 1 0-3.3m12.16 0a1.66 1.66 0 1 1 0 3.3 1.66 1.66 0 0 1 0-3.3M59.28 1.64a1.66 1.66 0 1 1-3.32 0 1.66 1.66 0 0 1 3.31 0zm0 12.13c0 .91-.75 1.65-1.67 1.65a1.66 1.66 0 1 1 0-3.3c.92 0 1.66.74 1.66 1.65zm0 12.13a1.66 1.66 0 1 1-3.32 0 1.66 1.66 0 0 1 3.31 0zm0 12.13a1.66 1.66 0 1 1-3.32 0 1.66 1.66 0 0 1 3.31 0zm0 12.13a1.66 1.66 0 1 1-3.32 0 1.66 1.66 0 0 1 3.31 0zm0 12.13a1.66 1.66 0 1 1-3.32 0 1.66 1.66 0 0 1 3.31 0zm0 12.12c0 .92-.75 1.66-1.67 1.66a1.66 1.66 0 0 1-1.65-1.66 1.66 1.66 0 0 1 3.31 0zm0 12.13a1.66 1.66 0 1 1-3.32 0 1.66 1.66 0 0 1 3.31 0zm0 12.13a1.66 1.66 0 1 1-3.32 0 1.66 1.66 0 0 1 3.31 0zm0 12.13a1.66 1.66 0 1 1-3.32 0 1.66 1.66 0 0 1 3.31 0zm0 12.13c0 .91-.75 1.65-1.67 1.65a1.66 1.66 0 0 1-1.65-1.65 1.66 1.66 0 0 1 3.31 0zm0 12.13a1.66 1.66 0 1 1-3.32 0 1.66 1.66 0 0 1 3.31 0zm0 12.13a1.66 1.66 0 1 1-3.32 0 1.66 1.66 0 0 1 3.31 0zm0 12.12c0 .92-.75 1.66-1.67 1.66a1.66 1.66 0 0 1-1.65-1.66 1.66 1.66 0 0 1 3.31 0zm12.15-84.9c0 .92-.74 1.66-1.66 1.66a1.66 1.66 0 0 1-1.66-1.66 1.66 1.66 0 0 1 3.32 0m0 12.13a1.66 1.66 0 1 1-3.31 0 1.66 1.66 0 0 1 3.31 0m0 12.13a1.66 1.66 0 1 1-3.31 0 1.66 1.66 0 0 1 3.31 0m0 12.13a1.66 1.66 0 1 1-3.31 0 1.66 1.66 0 0 1 3.31 0m0-109.16a1.66 1.66 0 1 1-3.31 0 1.66 1.66 0 0 1 3.31 0m0 24.26a1.66 1.66 0 1 1-3.31 0 1.66 1.66 0 0 1 3.31 0m0 24.26a1.66 1.66 0 1 1-3.31 0 1.66 1.66 0 0 1 3.31 0m0 12.13a1.66 1.66 0 1 1-3.31-.01 1.66 1.66 0 0 1 3.31 0m0 72.78a1.66 1.66 0 1 1-3.31 0 1.66 1.66 0 0 1 3.31 0m0 12.13a1.66 1.66 0 1 1-3.31 0 1.66 1.66 0 0 1 3.31 0m0-133.42c0 .91-.74 1.65-1.66 1.65a1.66 1.66 0 1 1 0-3.3c.92 0 1.66.74 1.66 1.65m0 145.54c0 .92-.74 1.66-1.66 1.66a1.66 1.66 0 0 1-1.66-1.66 1.66 1.66 0 0 1 3.32 0m0-121.28a1.66 1.66 0 1 1-3.31 0 1.66 1.66 0 0 1 3.31 0m0 84.9c0 .91-.74 1.65-1.66 1.65a1.66 1.66 0 0 1-1.66-1.65 1.66 1.66 0 0 1 3.32 0M83.59 1.65a1.66 1.66 0 1 1-3.31 0 1.66 1.66 0 0 1 3.3 0m0 24.26a1.66 1.66 0 1 1-3.3 0 1.66 1.66 0 0 1 3.3 0m0 12.13a1.66 1.66 0 1 1-3.3 0 1.66 1.66 0 0 1 3.3 0m0 12.13a1.66 1.66 0 1 1-3.3 0 1.66 1.66 0 0 1 3.3 0m0 12.13a1.66 1.66 0 1 1-3.3 0 1.66 1.66 0 0 1 3.3 0m0-48.52a1.66 1.66 0 1 1-3.3 0 1.66 1.66 0 0 1 3.3 0m0 60.65c0 .9-.73 1.65-1.65 1.65a1.66 1.66 0 0 1-1.66-1.65 1.66 1.66 0 0 1 3.32 0m0 12.12a1.66 1.66 0 1 1-3.31 0 1.66 1.66 0 0 1 3.3 0m0 12.13a1.66 1.66 0 1 1-3.3 0 1.66 1.66 0 0 1 3.3 0m0 12.13a1.66 1.66 0 1 1-3.3 0 1.66 1.66 0 0 1 3.3 0m0 12.13c0 .91-.73 1.65-1.65 1.65a1.66 1.66 0 0 1-1.66-1.65 1.66 1.66 0 0 1 3.32 0m0 12.13a1.66 1.66 0 1 1-3.31 0 1.66 1.66 0 0 1 3.3 0m0 12.13a1.66 1.66 0 1 1-3.3 0 1.66 1.66 0 0 1 3.3 0m0 12.13c0 .9-.73 1.65-1.65 1.65a1.66 1.66 0 0 1-1.66-1.65 1.66 1.66 0 0 1 3.32 0M95.75 1.65a1.66 1.66 0 1 1-3.32 0 1.66 1.66 0 0 1 3.32 0m0 12.13a1.66 1.66 0 1 1-3.31 0 1.66 1.66 0 0 1 3.3 0m0 12.13a1.66 1.66 0 1 1-3.3 0 1.66 1.66 0 0 1 3.3 0m0 12.13a1.66 1.66 0 1 1-3.3 0 1.66 1.66 0 0 1 3.3 0m0 12.13a1.66 1.66 0 1 1-3.3 0 1.66 1.66 0 0 1 3.3 0m0 12.13a1.66 1.66 0 1 1-3.3 0 1.66 1.66 0 0 1 3.3 0m0 12.13c0 .9-.74 1.65-1.65 1.65a1.66 1.66 0 0 1-1.66-1.65 1.66 1.66 0 0 1 3.32 0m0 12.12a1.66 1.66 0 1 1-3.31 0 1.66 1.66 0 0 1 3.3 0m0 12.13a1.66 1.66 0 1 1-3.3 0 1.66 1.66 0 0 1 3.3 0m0 12.13a1.66 1.66 0 1 1-3.3 0 1.66 1.66 0 0 1 3.3 0m0 12.13c0 .91-.74 1.65-1.65 1.65a1.66 1.66 0 0 1-1.66-1.65 1.66 1.66 0 0 1 3.32 0m0 12.13a1.66 1.66 0 1 1-3.31 0 1.66 1.66 0 0 1 3.3 0m0 12.13a1.66 1.66 0 1 1-3.3 0 1.66 1.66 0 0 1 3.3 0m0 12.13c0 .9-.74 1.65-1.65 1.65a1.66 1.66 0 0 1-1.66-1.65 1.66 1.66 0 0 1 3.32 0M107.9 1.65a1.66 1.66 0 1 1-3.3 0 1.66 1.66 0 0 1 3.3 0m0 12.13a1.66 1.66 0 1 1-3.3 0 1.66 1.66 0 0 1 3.3 0m0 12.13a1.66 1.66 0 1 1-3.3 0 1.66 1.66 0 0 1 3.3 0m0 12.13a1.66 1.66 0 1 1-3.3 0 1.66 1.66 0 0 1 3.3 0m0 12.13a1.66 1.66 0 1 1-3.3 0 1.66 1.66 0 0 1 3.3 0m0 12.13a1.66 1.66 0 1 1-3.3 0 1.66 1.66 0 0 1 3.3 0m0 12.13c0 .9-.74 1.65-1.65 1.65a1.66 1.66 0 0 1-1.66-1.65 1.66 1.66 0 0 1 3.31 0m0 12.12a1.66 1.66 0 1 1-3.3 0 1.66 1.66 0 0 1 3.3 0m0 12.13a1.66 1.66 0 1 1-3.3 0 1.66 1.66 0 0 1 3.3 0m0 12.13a1.66 1.66 0 1 1-3.3 0 1.66 1.66 0 0 1 3.3 0m0 12.13c0 .91-.74 1.65-1.65 1.65a1.66 1.66 0 0 1-1.66-1.65 1.66 1.66 0 0 1 3.31 0m0 12.13a1.66 1.66 0 1 1-3.3 0 1.66 1.66 0 0 1 3.3 0m0 12.13a1.66 1.66 0 1 1-3.3 0 1.66 1.66 0 0 1 3.3 0m0 12.13c0 .9-.74 1.65-1.65 1.65a1.66 1.66 0 0 1-1.66-1.65 1.66 1.66 0 0 1 3.31 0M120.06 1.65a1.66 1.66 0 1 1-3.31 0 1.66 1.66 0 0 1 3.31 0m0 12.13a1.66 1.66 0 1 1-3.3 0 1.66 1.66 0 0 1 3.3 0m0 12.13a1.66 1.66 0 1 1-3.3 0 1.66 1.66 0 0 1 3.3 0m0 12.13a1.66 1.66 0 1 1-3.31 0 1.66 1.66 0 0 1 3.31 0m0 12.13a1.66 1.66 0 1 1-3.3 0 1.66 1.66 0 0 1 3.3 0m0 12.13a1.66 1.66 0 1 1-3.31 0 1.66 1.66 0 0 1 3.31 0m0 12.13c0 .9-.74 1.65-1.66 1.65a1.66 1.66 0 0 1-1.65-1.65 1.66 1.66 0 0 1 3.31 0m0 12.12a1.66 1.66 0 1 1-3.3 0 1.66 1.66 0 0 1 3.3 0m0 12.13a1.66 1.66 0 1 1-3.31 0 1.66 1.66 0 0 1 3.31 0m0 12.13a1.66 1.66 0 1 1-3.3 0 1.66 1.66 0 0 1 3.3 0m0 12.13c0 .91-.74 1.65-1.66 1.65a1.66 1.66 0 0 1-1.65-1.65 1.66 1.66 0 0 1 3.31 0m0 12.13a1.66 1.66 0 1 1-3.3 0 1.66 1.66 0 0 1 3.3 0m0 12.13a1.66 1.66 0 1 1-3.3 0 1.66 1.66 0 0 1 3.3 0m0 12.13c0 .9-.74 1.65-1.66 1.65a1.66 1.66 0 0 1-1.65-1.65 1.66 1.66 0 0 1 3.31 0M132.22 1.65a1.66 1.66 0 1 1-3.31 0 1.66 1.66 0 0 1 3.31 0m0 12.13a1.66 1.66 0 1 1-3.31 0 1.66 1.66 0 0 1 3.31 0m0 12.13a1.66 1.66 0 1 1-3.31 0 1.66 1.66 0 0 1 3.31 0m0 12.13a1.66 1.66 0 1 1-3.31 0 1.66 1.66 0 0 1 3.31 0m0 12.13a1.66 1.66 0 1 1-3.31 0 1.66 1.66 0 0 1 3.31 0m0 12.13a1.66 1.66 0 1 1-3.31 0 1.66 1.66 0 0 1 3.31 0m0 12.13c0 .9-.74 1.65-1.66 1.65a1.66 1.66 0 0 1-1.66-1.65 1.66 1.66 0 0 1 3.32 0m0 12.12a1.66 1.66 0 1 1-3.31 0 1.66 1.66 0 0 1 3.31 0m0 12.13a1.66 1.66 0 1 1-3.31 0 1.66 1.66 0 0 1 3.31 0m0 12.13a1.66 1.66 0 1 1-3.31 0 1.66 1.66 0 0 1 3.31 0m0 12.13c0 .91-.74 1.65-1.66 1.65a1.66 1.66 0 0 1-1.66-1.65 1.66 1.66 0 0 1 3.32 0m0 12.13a1.66 1.66 0 1 1-3.31 0 1.66 1.66 0 0 1 3.31 0m0 12.13a1.66 1.66 0 1 1-3.31 0 1.66 1.66 0 0 1 3.31 0m0 12.13c0 .9-.74 1.65-1.66 1.65a1.66 1.66 0 0 1-1.66-1.65 1.66 1.66 0 0 1 3.32 0M144.38 1.65a1.66 1.66 0 1 1-3.31 0 1.66 1.66 0 0 1 3.3 0m0 12.13c0 .91-.73 1.65-1.65 1.65a1.66 1.66 0 1 1 0-3.3c.92 0 1.66.74 1.66 1.65m0 12.13a1.66 1.66 0 1 1-3.31 0 1.66 1.66 0 0 1 3.3 0zm0 12.13a1.66 1.66 0 1 1-3.31 0 1.66 1.66 0 0 1 3.3 0m0 12.13a1.66 1.66 0 1 1-3.3 0 1.66 1.66 0 0 1 3.3 0m0 12.13a1.66 1.66 0 1 1-3.3 0 1.66 1.66 0 0 1 3.3 0m0 12.13c0 .9-.73 1.65-1.65 1.65a1.66 1.66 0 0 1-1.66-1.65 1.66 1.66 0 0 1 3.32 0m0 12.12a1.66 1.66 0 1 1-3.31 0 1.66 1.66 0 0 1 3.3 0m0 12.13a1.66 1.66 0 1 1-3.3 0 1.66 1.66 0 0 1 3.3 0m0 12.13a1.66 1.66 0 1 1-3.3 0 1.66 1.66 0 0 1 3.3 0m0 12.13c0 .91-.73 1.65-1.65 1.65a1.66 1.66 0 0 1-1.66-1.65 1.66 1.66 0 0 1 3.32 0m0 12.13a1.66 1.66 0 1 1-3.31 0 1.66 1.66 0 0 1 3.3 0m0 12.13a1.66 1.66 0 1 1-3.3 0 1.66 1.66 0 0 1 3.3 0m0 12.13c0 .9-.73 1.65-1.65 1.65a1.66 1.66 0 0 1-1.66-1.65 1.66 1.66 0 0 1 3.32 0" clip-rule="evenodd"/><path fill="#F6F6F6" fill-rule="evenodd" d="M171.36 44.47c21.22 8.93 36.16 30.21 39.77 52.42s-4.24 45.32-19.8 61.75-38.83 26.27-62.73 32.84c-24.05 6.7-48.73 10.12-67.6 3.16-18.85-6.97-31.9-24.44-43.22-42.18C6.46 134.86-3.12 117 .96 101.75c4.25-15.24 22-27.72 39.93-37.05s35.68-15.63 58.47-20.5c22.8-4.99 50.62-8.54 72 .27" clip-rule="evenodd"/><path stroke="#E5E5E5" d="M3.31 187.7a2.9 2.9 0 0 1 2.94 2.94c0 .8-.33 1.55-.86 2.08a2.9 2.9 0 0 1-4.15 0 3 3 0 0 1-.86-2.08c0-.81.33-1.55.86-2.08a3 3 0 0 1 2.07-.87zm0 .24a2.7 2.7 0 0 0-1.9.8 2.7 2.7 0 0 0-.79 1.9c0 .74.3 1.42.79 1.9a2.7 2.7 0 0 0 3.8 0 2.7 2.7 0 0 0 0-3.8 2.7 2.7 0 0 0-1.9-.8zm171.65-38.96q.1 0 .16.07a.2.2 0 0 1 .07.16.2.2 0 0 1-.07.16l-2.55 2.55 2.55 2.56a.23.23 0 0 1-.32.32l-2.55-2.56-2.55 2.56a.2.2 0 0 1-.16.06.23.23 0 0 1-.16-.39l2.55-2.55-2.55-2.55a.23.23 0 0 1 0-.33.2.2 0 0 1 .16-.06l2.71 2.62 2.55-2.56a.2.2 0 0 1 .16-.06zm-132.5-6.64a.23.23 0 0 1 .23.23.2.2 0 0 1-.07.16l-2.55 2.55 2.55 2.56a.23.23 0 0 1 0 .32.22.22 0 0 1-.32 0l-2.55-2.56-2.55 2.56a.22.22 0 0 1-.32 0 .23.23 0 0 1 0-.32l2.55-2.56-2.55-2.55a.23.23 0 0 1 0-.32.2.2 0 0 1 .16-.07l2.71 2.62 2.55-2.55a.2.2 0 0 1 .16-.07zm129.79-56.41c.81 0 1.54.33 2.07.86a2.94 2.94 0 0 1 0 4.16 3 3 0 0 1-2.07.86 3 3 0 0 1-2.08-.86 2.94 2.94 0 0 1 0-4.16 3 3 0 0 1 2.08-.86zm0 .24a2.7 2.7 0 0 0-1.9.8 2.7 2.7 0 0 0-.8 1.9c0 .74.3 1.42.8 1.9a2.7 2.7 0 0 0 3.8 0 2.7 2.7 0 0 0 .8-1.9c0-.75-.3-1.42-.8-1.9a2.7 2.7 0 0 0-1.9-.8zm39.15-46.7a.23.23 0 0 1 .16.39L209 42.4l2.55 2.55a.23.23 0 0 1 0 .32.23.23 0 0 1-.32 0l-2.55-2.55-2.55 2.56a.23.23 0 0 1-.32 0 .23.23 0 0 1 0-.33l2.55-2.55-2.55-2.56a.23.23 0 0 1 .16-.38l2.7 2.62 2.56-2.56a.2.2 0 0 1 .16-.06zm-169.71.73c.6.53.94 1.27.99 2.02a3 3 0 0 1-.72 2.13 3 3 0 0 1-2.01 1q-1.34 0-2.14-.73a3 3 0 0 1-.99-2.02 3 3 0 0 1 .72-2.13 3 3 0 0 1 2.02-1c.75-.05 1.52.2 2.13.73zm-1.94-.49c-.75 0-1.5.31-2.02.92a2.7 2.7 0 0 0-.67 1.95 2.7 2.7 0 0 0 .91 1.85 2.7 2.7 0 0 0 1.95.67 2.7 2.7 0 0 0 2.52-2.87 2.7 2.7 0 0 0-2.69-2.52z" clip-rule="evenodd"/><path fill="#CACAFB" fill-rule="evenodd" d="M143.8 82.55a1.35 1.35 0 1 1 0-2.7 1.35 1.35 0 0 1 0 2.7m-36.45 85.05a1.35 1.35 0 1 1 0-2.7 1.35 1.35 0 0 1 0 2.7m-35.1-89.1a1.35 1.35 0 1 1 1.35-1.35c0 .74-.6 1.35-1.35 1.35" clip-rule="evenodd"/><path fill="#E1000F" d="M73.6 94.7a1.35 1.35 0 1 1 0-2.7 1.35 1.35 0 0 1 0 2.7m5.4 0a1.35 1.35 0 1 1 0-2.7 1.35 1.35 0 0 1 0 2.7m4.05-1.35a1.35 1.35 0 1 0 2.7 0 1.35 1.35 0 0 0-2.7 0M135.7 92a1.35 1.35 0 0 1 .16 2.69l-.16.01H95.2a1.35 1.35 0 0 1-.16-2.69l.16-.01z"/><path fill="#E1000F" fill-rule="evenodd" d="M121.25 132.1a4.05 4.05 0 1 0 7.02-.5l5.81-7.74.1-.14a1.35 1.35 0 0 0-2.26-1.48l-5.8 7.74a4 4 0 0 0-2.97.22l-2.7-2.7-.12-.12a1.35 1.35 0 0 0-1.78 2.03zm3.65.4a1.35 1.35 0 1 1 0 2.7 1.35 1.35 0 0 1 0-2.7" clip-rule="evenodd"/><path fill="#000091" d="M142.44 87.8a1.35 1.35 0 0 0-1.34-1.2H68.04a1.35 1.35 0 0 0-1.19 1.35v62.1l.01.16a1.35 1.35 0 0 0 1.34 1.19h32.56a1.35 1.35 0 0 0 1.19-1.35v-.16a1.35 1.35 0 0 0-1.35-1.19H69.55v-48.6h50.11a1.35 1.35 0 0 0-.16-2.7H69.55v-8.1h70.2v20.41a1.35 1.35 0 0 0 2.7-.16v-21.6z"/><path fill="#000091" d="M147.85 133.85a22.95 22.95 0 1 0-26 22.75l-.6.6-.12.12a1.35 1.35 0 0 0 2.02 1.78l2.7-2.7a1 1 0 0 0 .3-.43 1.4 1.4 0 0 0-.3-1.47l-2.7-2.7-.12-.12a1.35 1.35 0 0 0-1.78.12l-.12.12a1.35 1.35 0 0 0 .12 1.78l.08.09a20.26 20.26 0 1 1 19.28-7.16 1.35 1.35 0 0 0 2.1 1.7 23 23 0 0 0 5.14-14.48"/><path fill="#000091" d="M139.25 151.76a1.35 1.35 0 1 0-1.7-2.1 21 21 0 0 1-2.52 1.73 1.35 1.35 0 0 0-.49 1.84 1.35 1.35 0 0 0 1.85.5 23 23 0 0 0 2.86-1.97M127.9 119.3a15 15 0 0 0-3-.3 14.85 14.85 0 1 0 13.64 8.97 1.35 1.35 0 1 0-2.48 1.07 12 12 0 0 1 .99 4.81 12.15 12.15 0 1 1-12.15-12.15q1.25 0 2.46.25a1.35 1.35 0 1 0 .54-2.65m-24.6-11.1a1.35 1.35 0 0 1 .16 2.7H79a1.35 1.35 0 0 1-.16-2.7H79zm-4.05 9.45a1.35 1.35 0 0 0-1.35-1.35H78.84A1.35 1.35 0 0 0 79 119h19.06a1.35 1.35 0 0 0 1.19-1.35m-4.05 6.75a1.35 1.35 0 0 1 .16 2.7H79a1.35 1.35 0 0 1-.16-2.7H79z"/></g><defs><clipPath id="a"><path fill="#fff" d="M0 0h212v239.82H0z"/></clipPath></defs></svg>