<svg xmlns="http://www.w3.org/2000/svg" width="165" height="165" fill="none"><g clip-path="url(#a)"><path fill="#000" d="m24.62 69.88-.51-.37-1.7-32.67.28-.39 23.14-7.15.5.34.99 11.75c1.32-.42 4.99-1.4 7.3.1a4.5 4.5 0 0 1 1.93 3.82c.31 5.93-6.24 7.48-7.8 7.84l.66 8.9-.26.4-7.22 2.31-.5-.27s-1.25-4.75-4.65-4.14c-3.4.6-4.1 6.74-4.12 6.8l-.27.34zm-1.4-32.78 1.66 31.88L32 66.82c.18-1.25 1.12-6.59 4.72-7.23 3.01-.55 4.8 2.38 5.42 4.3l6.49-2.16-.66-8.88.33-.42q2.07-.3 3.93-1.25a5.9 5.9 0 0 0 3.57-5.79 3.8 3.8 0 0 0-1.57-3.2c-2.5-1.61-7.05.12-7.1.14L46.6 42l-.99-11.77z"/><path fill="#F8C49E" d="m79.26 90.62 22.65-1.65-6.69-28.84-15.66 1.14-.04 3.45-.11 10.62z"/><path fill="#000" d="M79.4 75.34a17.9 17.9 0 0 0 14.5-9.26c-4.63-.38-9.23-.94-13.86-1.33h-.52z"/><path fill="#F8C49E" d="M112.47 49.86a6.2 6.2 0 0 1-3.63 5.15 7.4 7.4 0 0 1-6.82-.58 18.6 18.6 0 0 1-5.62 10.72 18 18 0 0 1-3.45 2.5h-.08a18.2 18.2 0 0 1-13.4 1.6 17 17 0 0 1-2.5-.9A17.7 17.7 0 0 1 67 55.86c-.84-4.32 0-8.73.94-13.05a38 38 0 0 1 3-9.38q.09-.19.2-.37l.15-.27a17 17 0 0 1 1.98-2.85l.23-.25a16 16 0 0 1 10.37-4.92q1.06-.08 2.12 0A18 18 0 0 1 98.4 31a21 21 0 0 1 4.99 13.02 6.4 6.4 0 0 1 6.35.22l.36.26a6.3 6.3 0 0 1 2.38 5.35"/><path fill="#000" d="m105 51.62-.74-.2.28-5h.78l-.2 3.69a3.9 3.9 0 0 1 4.34-.69l-.33.7a3.16 3.16 0 0 0-4.13 1.41zm-24.7 3.01a1.7 1.7 0 0 1-1.5-1 3 3 0 0 1 0-1.48l.94-6.84.78.1-.95 6.84a2.5 2.5 0 0 0 0 1.15 1 1 0 0 0 .4.37 1 1 0 0 0 .65 0l.3.73a2 2 0 0 1-.62.13M82.79 58h-.3v-.77a3 3 0 0 0 2.23-.77 3 3 0 0 0 .9-2.17h.8a3.74 3.74 0 0 1-3.75 3.74zm3.45-11.63c0 .6.41 1.06.81 1.03s.69-.54.64-1.13c-.05-.6-.4-1.06-.8-1.04s-.69.6-.65 1.14m-12.62-.3c0 .6.41 1.06.81 1.03s.69-.54.64-1.13c-.05-.6-.4-1.06-.8-1.04s-.69.54-.65 1.14M88.25 43q.56.1 1.12 0c.63-.25.66-.91.1-1.34a4.4 4.4 0 0 0-2.1-.64 2.5 2.5 0 0 0-1.59.18.95.95 0 0 0-.26 1.25c.51.88 1.87.5 2.73.55m-14.84 0a3 3 0 0 1-1.11 0c-.64-.25-.66-.91-.1-1.33a4.3 4.3 0 0 1 2.12-.64 2.5 2.5 0 0 1 1.57.2.94.94 0 0 1 .26 1.25c-.54.86-1.87.48-2.74.52"/><path fill="#D4F5BD" d="M103.33 43.98c-3.46-.1-6.89-6.02-8.4-10.25a42 42 0 0 1-19.33 1.94 9 9 0 0 1-4.66-2.19l-.15-.15a6.67 6.67 0 0 1 3.63-11.22 14 14 0 0 1 9.45 2.72q1.06-.08 2.12 0a18 18 0 0 1 12.4 6.23 21 21 0 0 1 4.94 12.92"/><path fill="#A1E3D6" d="M47.7 102.24s7.65-13.36 12.6-17.56 18.96-3.47 18.96-3.47c5.58 14.84 20.85 0 20.85 0s18.57-.25 25.74 3.46 18.8 57.63 18.8 57.63H62.77"/><path fill="#A1E3D6" d="M87.52 108.67s-17.81 33.89-44.28 29.69-28.43-56.13-28.43-56.13l19.95-11.12 15.22 28.4"/><path fill="#6CC485" d="M129.12 67.8a6.4 6.4 0 0 0 6.4-6.4 6.4 6.4 0 1 0-12.8 0 6.4 6.4 0 0 0 6.4 6.4"/><path fill="#F8C49E" d="M17.66 51.44c-2.13.38-1.42 7.65-.7 12.47Z"/><path fill="#F8C49E" d="M16.99 63.86c-.95-3.51-2.86-9.3-5.1-8.73-3.43.8 1.96 23.04 1.96 23.04l1 4.11L34.8 71.16c-2.72-5.62 1.12-10.73-1.25-11.59s-4.59 5-4.59 5-2.55-12.7-5.3-12.18c-1.36.25-1.25 4.99-1.1 7.8-1.26-3.75-3.28-8.98-4.75-8.73"/><path fill="#000" d="M22.13 61.62c-.55-9.3.86-9.55 1.32-9.64l.14.76s-1.18.46-.68 8.83zm-5.57 2.3c-1.24-8.33-.9-12.48 1.03-12.86l.13.77c-1.02.17-1.65 3.42-.38 11.97z"/><path fill="#90D470" d="M59.97 136.05a31 31 0 0 1-3.82 6.23H23.09a25 25 0 0 1-5-8.44c-.88-3.25-.2-7.2 2.5-9.19a6.31 6.31 0 0 1 10.06 4.85 22.7 22.7 0 0 1 6.03-14.08 15.3 15.3 0 0 1 14.3-4.38 15.1 15.1 0 0 1 10.2 10.24 21.2 21.2 0 0 1-1.21 14.77"/><path fill="#000" d="m35.56 142.52-.57-.53c.32-.35 7.99-8.56 13.64-6.96q3.3.92 4.65 5.93a36 36 0 0 1 3.74-7.1c3.74-5.44 8.43-8.11 13.43-7.73v.78c-11.4-.89-16.8 15.36-16.86 15.52h-.76c-.76-3.74-2.23-6.02-4.39-6.62-5.26-1.43-12.74 6.62-12.88 6.71"/><path fill="#6987F3" d="M10.63 142.3s14.08-17.81 17.53 0z"/><path fill="#000" d="M130.55 70.47h-17.32l-.34-.57 8.41-15.09h.69l8.9 15.08zm-16.66-.77h15.98l-8.22-13.9zm-97.55 38a5.86 5.86 0 0 1-5.76-7 5.86 5.86 0 0 1 11.6 1.14 5.87 5.87 0 0 1-5.84 5.86m0-10.94a5.09 5.09 0 1 0 5.07 5.08 5.1 5.1 0 0 0-5.07-5.08m34.96 6.61-4.94-1.23-.11-.71 3.15-2.02-15.04-28.1.69-.38 15.21 28.43-.13.5-2.71 1.74 4.08 1.02z"/><path fill="#13BF89" d="m22.33 66.38-1.71-32.67 23.14-7.15 1.03 12.25s8.83-3.4 9.19 3.4c.34 6.48-7.83 7.49-7.83 7.49l.68 9.19-7.14 2.38s-1.38-5.1-5.12-4.42S30.14 64 30.14 64z"/><path fill="#424D99" d="M130.32 129.87H73l22.93 13.16h57.34z"/><path fill="#000" d="m87.67 132.6-.38.67 9.48 5.44.39-.67z"/><path fill="#424D99" d="M162.43 101.9h-57.34l-9.18 41.13h57.35z"/><path fill="#000" d="m104.72 101.82-9.18 41.13.77.17 9.17-41.13z"/><path fill="#fff" d="M134.43 122.46a5.25 5.25 0 0 1-3.24 4.85 5.2 5.2 0 0 1-5.73-1.14 5.25 5.25 0 0 1 3.72-8.96 5.25 5.25 0 0 1 5.25 5.25"/><path fill="#000" d="M129.18 125.98h-.2v-.79a2.7 2.7 0 0 0 1.98-.68 2.8 2.8 0 0 0 .92-1.9h.78a3.53 3.53 0 0 1-3.52 3.32z"/><path fill="#A1E3D6" d="M160.87 105.62a4.24 4.24 0 1 1-8.48.02 4.24 4.24 0 0 1 8.48-.02"/></g><defs><clipPath id="a"><path fill="#fff" d="M0 0h165v165H0z"/></clipPath></defs></svg>