<svg xmlns="http://www.w3.org/2000/svg" width="165" height="165" fill="none"><mask id="a" width="162" height="105" x="2" y="30" maskUnits="userSpaceOnUse" style="mask-type:luminance"><path fill="#fff" d="M13.73 134.72C2.7 122.45-.2 105.59 3.58 95.47a21.1 21.1 0 0 1 19.24-13.43c6.6.08 12.71 3.74 19.31 4.02 9.89.4 18.5-6.87 24.15-15s9.4-17.55 15.83-25.07c12.57-14.7 35.15-19.76 52.79-11.83 17.14 7.7 28.15 26.28 28.9 45.05.74 18.77-9.82 42.25-23.13 55.53"/></mask><g fill="#C8E9B9" mask="url(#a)"><path d="M4.85 29.65a1.16 1.16 0 1 1 0 2.31 1.16 1.16 0 0 1 0-2.32m6.92 0a1.16 1.16 0 1 1 0 2.32 1.16 1.16 0 0 1 0-2.31m6.93 0a1.16 1.16 0 1 1 0 2.31 1.16 1.16 0 0 1 0-2.31m6.92 0a1.16 1.16 0 1 1 0 2.31 1.16 1.16 0 0 1 0-2.32m6.93 0a1.16 1.16 0 1 1 0 2.32 1.16 1.16 0 0 1 0-2.32m6.92 0a1.16 1.16 0 1 1 0 2.32 1.16 1.16 0 0 1 0-2.32m6.93 0a1.16 1.16 0 1 1 0 2.32 1.16 1.16 0 0 1 0-2.32m6.92 0a1.16 1.16 0 1 1 0 2.32 1.16 1.16 0 0 1 0-2.32m6.93 0a1.16 1.16 0 1 1 0 2.32 1.16 1.16 0 0 1 0-2.32m6.93 0a1.16 1.16 0 1 1-.01 0zm13.85 0a1.16 1.16 0 1 1-.01 0zm13.85 0a1.16 1.16 0 1 1-.01 0zm13.85 0a1.16 1.16 0 0 1 1.16 1.16 1.16 1.16 0 1 1-1.17-1.15zm13.84 0a1.16 1.16 0 1 1 0 2.32 1.16 1.16 0 0 1 0-2.32m6.92 0a1.16 1.16 0 1 1-.44.1q.22-.1.44-.1m6.93 0a1.16 1.16 0 1 1-.45.1q.22-.1.45-.1m6.92 0a1.16 1.16 0 0 1 1.16 1.16 1.16 1.16 0 1 1-1.16-1.15zm6.93 0a1.16 1.16 0 0 1 1.15 1.16 1.16 1.16 0 1 1-1.15-1.15zm6.92 0a1.16 1.16 0 1 1 0 2.32 1.16 1.16 0 0 1-1.16-1.16 1.2 1.2 0 0 1 .72-1.07q.21-.08.44-.09M1.16 33.44a1.16 1.16 0 1 1 0 2.31 1.16 1.16 0 0 1 0-2.31m6.92 0a1.16 1.16 0 1 1 0 2.31 1.16 1.16 0 0 1 0-2.31m6.93 0a1.16 1.16 0 1 1 0 2.31 1.16 1.16 0 0 1 0-2.31m6.92 0a1.16 1.16 0 1 1 0 2.31 1.16 1.16 0 0 1 0-2.31m6.93 0a1.16 1.16 0 1 1 0 2.31 1.16 1.16 0 0 1 0-2.31m6.92 0a1.16 1.16 0 1 1 0 2.31 1.16 1.16 0 0 1 0-2.31m6.93 0a1.16 1.16 0 1 1 0 2.31 1.16 1.16 0 0 1 0-2.31m6.92 0a1.16 1.16 0 1 1 0 2.31 1.16 1.16 0 0 1 0-2.31m6.93 0a1.16 1.16 0 1 1-.01 0zm6.92 0a1.16 1.16 0 1 1 0 2.31 1.16 1.16 0 0 1 0-2.31m6.93 0a1.16 1.16 0 1 1 0 2.31 1.16 1.16 0 0 1 0-2.31m6.92 0a1.16 1.16 0 1 1 0 2.31 1.16 1.16 0 0 1 0-2.31m6.93 0a1.16 1.16 0 1 1 0 2.31 1.16 1.16 0 0 1 0-2.31m6.92 0a1.16 1.16 0 1 1 0 2.31 1.16 1.16 0 0 1 0-2.31m6.92 0a1.16 1.16 0 1 1 0 2.31 1.16 1.16 0 0 1 0-2.31m6.93 0a1.16 1.16 0 0 1 .82 1.97 1.16 1.16 0 0 1-1.98-.82 1.16 1.16 0 0 1 1.16-1.15m6.93 0a1.16 1.16 0 1 1 0 2.31 1.16 1.16 0 0 1 0-2.31m6.92 0a1.16 1.16 0 0 1 .82 1.97 1.16 1.16 0 0 1-1.98-.82 1.2 1.2 0 0 1 .72-1.07 1 1 0 0 1 .44-.08m6.93 0a1.16 1.16 0 1 1-.45.08q.22-.08.45-.08m6.92 0a1.16 1.16 0 1 1 0 2.31 1.16 1.16 0 0 1 0-2.31m6.93 0a1.16 1.16 0 1 1 0 2.31 1.16 1.16 0 0 1 0-2.31m6.92 0a1.16 1.16 0 1 1 0 2.31 1.16 1.16 0 0 1 0-2.31m6.92 0a1.16 1.16 0 1 1 0 2.31 1.16 1.16 0 0 1 0-2.31M4.85 37.23a1.16 1.16 0 1 1 0 2.31 1.16 1.16 0 0 1 0-2.31m6.92 0a1.16 1.16 0 1 1 0 2.31 1.16 1.16 0 0 1 0-2.31m6.93 0a1.16 1.16 0 1 1 0 2.31 1.16 1.16 0 0 1 0-2.31m6.92 0a1.16 1.16 0 1 1 0 2.31 1.16 1.16 0 0 1 0-2.31m6.93 0a1.16 1.16 0 1 1 0 2.31 1.16 1.16 0 0 1 0-2.31m6.92 0a1.16 1.16 0 1 1 0 2.31 1.16 1.16 0 0 1 0-2.31m6.93 0a1.16 1.16 0 1 1 0 2.31 1.16 1.16 0 0 1 0-2.31m6.92 0a1.16 1.16 0 1 1 0 2.31 1.16 1.16 0 0 1 0-2.31m6.92 0a1.16 1.16 0 1 1-.43.08q.21-.1.44-.08zm6.93 0a1.16 1.16 0 1 1 0 2.31 1.16 1.16 0 0 1 0-2.31m6.92 0a1.16 1.16 0 1 1 0 2.31 1.16 1.16 0 0 1 0-2.31m6.93 0a1.16 1.16 0 1 1 0 2.31 1.16 1.16 0 0 1 0-2.31m6.92 0a1.16 1.16 0 1 1 0 2.31 1.16 1.16 0 0 1 0-2.31m6.93 0a1.16 1.16 0 1 1 0 2.31 1.16 1.16 0 0 1 0-2.31m6.92 0a1.16 1.16 0 1 1 0 2.31 1.16 1.16 0 0 1 0-2.31m6.93 0a1.16 1.16 0 1 1 0 2.31 1.16 1.16 0 0 1 0-2.31m6.92 0a1.16 1.16 0 1 1 0 2.31 1.16 1.16 0 0 1 0-2.31m13.85 0a1.16 1.16 0 1 1 0 2.31 1.16 1.16 0 0 1 0-2.31m6.93 0a1.16 1.16 0 0 1 1.16 1.15 1.16 1.16 0 1 1-1.16-1.15m6.92 0a1.16 1.16 0 0 1 .82 1.97 1.16 1.16 0 0 1-1.98-.82 1.2 1.2 0 0 1 .72-1.07 1 1 0 0 1 .44-.08m6.93 0a1.16 1.16 0 0 1 1.16 1.15 1.16 1.16 0 1 1-1.16-1.15M1.16 40.99a1.16 1.16 0 1 1 0 2.32 1.16 1.16 0 0 1 0-2.32m6.92 0a1.16 1.16 0 1 1 0 2.32 1.16 1.16 0 0 1 0-2.32m6.93 0a1.16 1.16 0 1 1 0 2.32A1.16 1.16 0 0 1 15 41m6.92 0a1.16 1.16 0 1 1 0 2.32 1.16 1.16 0 0 1 0-2.32m6.93 0a1.16 1.16 0 1 1 0 2.32 1.16 1.16 0 0 1 0-2.32m6.92 0a1.16 1.16 0 1 1 0 2.32 1.16 1.16 0 0 1 0-2.32m6.93 0a1.16 1.16 0 1 1 0 2.32 1.16 1.16 0 0 1 0-2.32m6.92 0a1.16 1.16 0 1 1 0 2.32 1.16 1.16 0 0 1 0-2.32m6.92 0a1.16 1.16 0 1 1 0 2.32 1.16 1.16 0 0 1 0-2.32m6.92 0a1.16 1.16 0 1 1-.43.09 1 1 0 0 1 .44-.09zm6.93 0a1.16 1.16 0 1 1-.44.09 1 1 0 0 1 .45-.09zm6.92 0a1.16 1.16 0 1 1-.43.09q.21-.09.44-.09zm6.93 0a1.16 1.16 0 1 1-.44.09q.22-.09.45-.09zm6.92 0a1.16 1.16 0 1 1-.43.09q.21-.09.44-.09zm6.92 0a1.16 1.16 0 1 1-.43.09q.22-.09.45-.09zm6.93 0a1.16 1.16 0 1 1 0 2.32 1.16 1.16 0 1 1 .01-2.32zm6.92 0a1.16 1.16 0 1 1-.43.09q.22-.09.45-.09zm6.93 0a1.16 1.16 0 1 1 0 2.32 1.16 1.16 0 1 1 .01-2.32zm6.94 0a1.16 1.16 0 1 1 0 2.32 1.16 1.16 0 0 1 0-2.32m20.77 0a1.16 1.16 0 0 1 1.07 1.6 1.2 1.2 0 0 1-1.07.72 1.2 1.2 0 0 1-.82-.34 1 1 0 0 1-.25-.37 1.16 1.16 0 0 1 1.07-1.6zM4.85 44.8a1.16 1.16 0 1 1 0 2.32 1.16 1.16 0 0 1 0-2.32m6.92 0a1.16 1.16 0 1 1 0 2.32 1.16 1.16 0 0 1 0-2.32m6.93 0a1.16 1.16 0 1 1 0 2.32 1.16 1.16 0 0 1 0-2.32m6.92 0a1.16 1.16 0 1 1 0 2.32 1.16 1.16 0 0 1 0-2.32m6.93 0a1.16 1.16 0 1 1 0 2.32 1.16 1.16 0 0 1 0-2.32m6.92 0a1.16 1.16 0 1 1 0 2.32 1.16 1.16 0 0 1 0-2.32m6.93 0a1.16 1.16 0 1 1 0 2.32 1.16 1.16 0 0 1 0-2.32m6.92 0a1.16 1.16 0 1 1 0 2.32 1.16 1.16 0 0 1 0-2.32m6.92 0a1.16 1.16 0 1 1-.43.09 1 1 0 0 1 .44-.1zm6.93 0a1.16 1.16 0 1 1 0 2.32 1.16 1.16 0 0 1 0-2.32m6.92 0a1.16 1.16 0 1 1 0 2.32 1.16 1.16 0 0 1 0-2.32m6.93 0a1.16 1.16 0 1 1 0 2.32 1.16 1.16 0 0 1 0-2.32m6.92 0a1.16 1.16 0 1 1 0 2.32 1.16 1.16 0 0 1 0-2.32m6.93 0a1.16 1.16 0 1 1 0 2.32 1.16 1.16 0 0 1 0-2.32m6.92 0a1.16 1.16 0 1 1 0 2.32 1.16 1.16 0 0 1 0-2.32m6.93 0a1.16 1.16 0 1 1 0 2.32 1.16 1.16 0 0 1 0-2.32m6.92 0a1.16 1.16 0 1 1 0 2.32 1.16 1.16 0 0 1 0-2.32m13.85 0a1.16 1.16 0 1 1 0 2.32 1.16 1.16 0 0 1 0-2.32m6.93 0a1.16 1.16 0 1 1 0 2.32 1.16 1.16 0 0 1 0-2.32m6.92 0a1.16 1.16 0 0 1 1.16 1.16 1.16 1.16 0 1 1-1.16-1.16m6.93 0a1.16 1.16 0 0 1 1.16 1.16 1.16 1.16 0 1 1-1.16-1.16m6.92 0a1.16 1.16 0 1 1 0 2.32 1.16 1.16 0 0 1-1.07-1.6 1.2 1.2 0 0 1 1.07-.72M1.16 48.58a1.16 1.16 0 1 1 0 2.31 1.16 1.16 0 0 1 0-2.32m6.92 0a1.16 1.16 0 1 1 0 2.31 1.16 1.16 0 0 1 0-2.32m6.93 0a1.16 1.16 0 1 1 0 2.31 1.16 1.16 0 0 1 0-2.32m6.92 0a1.16 1.16 0 1 1 0 2.31 1.16 1.16 0 0 1 0-2.32m6.93 0a1.16 1.16 0 1 1 0 2.31 1.16 1.16 0 0 1 0-2.32m6.92 0a1.16 1.16 0 1 1 0 2.31 1.16 1.16 0 0 1 0-2.32m6.93 0a1.16 1.16 0 1 1 0 2.31 1.16 1.16 0 0 1 0-2.32m6.92 0a1.16 1.16 0 1 1 0 2.31 1.16 1.16 0 0 1 0-2.32m6.93 0a1.16 1.16 0 1 1-.01 0zm6.92 0a1.16 1.16 0 1 1 0 2.31 1.16 1.16 0 0 1 0-2.32m6.93 0a1.16 1.16 0 1 1 0 2.31 1.16 1.16 0 0 1 0-2.32m6.92 0a1.16 1.16 0 1 1 0 2.31 1.16 1.16 0 0 1 0-2.32m6.93 0a1.16 1.16 0 1 1 0 2.31 1.16 1.16 0 0 1 0-2.31m6.92 0a1.16 1.16 0 1 1 0 2.31 1.16 1.16 0 0 1 0-2.31m6.92 0a1.16 1.16 0 1 1 0 2.31 1.16 1.16 0 0 1 0-2.32m6.93 0a1.16 1.16 0 0 1 1.16 1.15 1.16 1.16 0 0 1-1.98.82 1.16 1.16 0 0 1 0-1.64q.34-.33.82-.34Zm6.93 0a1.16 1.16 0 1 1 0 2.31 1.16 1.16 0 0 1 0-2.32m6.92 0a1.16 1.16 0 1 1 0 2.31 1.16 1.16 0 0 1-1.07-1.6 1.2 1.2 0 0 1 1.07-.72m6.93 0a1.16 1.16 0 1 1-.45.08 1 1 0 0 1 .45-.08m6.92 0a1.16 1.16 0 1 1 0 2.31 1.16 1.16 0 0 1 0-2.32m6.93 0a1.16 1.16 0 1 1 0 2.31 1.16 1.16 0 0 1 0-2.32m6.92 0a1.16 1.16 0 1 1 0 2.31 1.16 1.16 0 0 1 0-2.32m6.92 0a1.16 1.16 0 1 1 0 2.31 1.16 1.16 0 0 1 0-2.32m6.93 0a1.16 1.16 0 0 1 1.16 1.15 1.16 1.16 0 1 1-1.16-1.15M4.85 52.38a1.16 1.16 0 1 1 0 2.31 1.16 1.16 0 0 1 0-2.32m6.92 0a1.16 1.16 0 1 1 0 2.32 1.16 1.16 0 0 1 0-2.32m6.93 0a1.16 1.16 0 1 1 0 2.32 1.16 1.16 0 0 1 0-2.32m6.92 0a1.16 1.16 0 1 1 0 2.32 1.16 1.16 0 0 1 0-2.32m6.93 0a1.16 1.16 0 1 1 0 2.32 1.16 1.16 0 0 1 0-2.32m6.92 0a1.16 1.16 0 1 1 0 2.32 1.16 1.16 0 0 1 0-2.32m6.93 0a1.16 1.16 0 1 1 0 2.32 1.16 1.16 0 0 1 0-2.32m6.92 0a1.16 1.16 0 1 1 0 2.32 1.16 1.16 0 0 1 0-2.32m6.92 0a1.16 1.16 0 1 1-.43.09q.21-.09.44-.09zm6.93 0a1.16 1.16 0 1 1 0 2.32 1.16 1.16 0 0 1 0-2.32m6.92 0a1.16 1.16 0 1 1 0 2.32 1.16 1.16 0 0 1 0-2.32m6.93 0a1.16 1.16 0 1 1 0 2.32 1.16 1.16 0 0 1 0-2.32m6.92 0a1.16 1.16 0 1 1 0 2.32 1.16 1.16 0 0 1 0-2.32m6.93 0a1.16 1.16 0 1 1 0 2.32 1.16 1.16 0 0 1 0-2.32m6.92 0a1.16 1.16 0 1 1 0 2.32 1.16 1.16 0 0 1 0-2.32m6.93 0a1.16 1.16 0 1 1 0 2.32 1.16 1.16 0 0 1 0-2.32m6.92 0a1.16 1.16 0 1 1 0 2.32 1.16 1.16 0 0 1 0-2.32m13.85 0a1.16 1.16 0 1 1 0 2.32 1.16 1.16 0 0 1 0-2.32m6.93 0a1.16 1.16 0 1 1 0 2.32 1.16 1.16 0 0 1 0-2.32m6.92 0a1.16 1.16 0 0 1 1.16 1.16 1.16 1.16 0 1 1-1.16-1.16m6.93 0a1.16 1.16 0 0 1 1.16 1.16 1.16 1.16 0 1 1-1.16-1.16m6.92 0a1.16 1.16 0 0 1 .82 1.98 1.16 1.16 0 0 1-1.89-1.26 1.2 1.2 0 0 1 1.07-.72M1.16 56.15a1.16 1.16 0 1 1 0 2.32 1.16 1.16 0 0 1 0-2.32m6.92 0a1.16 1.16 0 1 1 0 2.32 1.16 1.16 0 0 1 0-2.32m6.93 0a1.16 1.16 0 1 1 0 2.32 1.16 1.16 0 0 1 0-2.32m6.92 0a1.16 1.16 0 1 1 0 2.32 1.16 1.16 0 0 1 0-2.32m6.93 0a1.16 1.16 0 1 1 0 2.32 1.16 1.16 0 0 1 0-2.32m6.92 0a1.16 1.16 0 1 1 0 2.31 1.16 1.16 0 0 1 0-2.31m6.93 0a1.16 1.16 0 1 1 0 2.32 1.16 1.16 0 0 1 0-2.32m6.92 0a1.16 1.16 0 1 1 0 2.31 1.16 1.16 0 0 1 0-2.31m6.93 0a1.16 1.16 0 1 1-.01 0zm6.92 0a1.16 1.16 0 1 1 0 2.32 1.16 1.16 0 0 1 0-2.32m6.93 0a1.16 1.16 0 1 1 0 2.32 1.16 1.16 0 0 1 0-2.32m6.92 0a1.16 1.16 0 1 1 0 2.32 1.16 1.16 0 0 1 0-2.32m6.93 0a1.16 1.16 0 1 1 0 2.32 1.16 1.16 0 0 1 0-2.32m6.92 0a1.16 1.16 0 1 1 0 2.32 1.16 1.16 0 0 1 0-2.32m6.92 0a1.16 1.16 0 1 1 0 2.32 1.16 1.16 0 0 1 0-2.32m6.93 0a1.16 1.16 0 0 1 .82 1.98 1.16 1.16 0 0 1-1.98-.82 1.16 1.16 0 0 1 1.16-1.16m6.93 0a1.16 1.16 0 1 1 0 2.31 1.16 1.16 0 0 1 0-2.31m6.92 0a1.16 1.16 0 0 1 .82 1.97 1.16 1.16 0 0 1-1.98-.81 1.2 1.2 0 0 1 .72-1.07q.21-.1.44-.1m6.93 0a1.16 1.16 0 1 1-.45.1 1 1 0 0 1 .45-.1m6.92 0a1.16 1.16 0 1 1 0 2.32 1.16 1.16 0 0 1 0-2.31m6.93 0a1.16 1.16 0 1 1 0 2.31 1.16 1.16 0 0 1 0-2.31m6.92 0a1.16 1.16 0 1 1 0 2.31 1.16 1.16 0 0 1 0-2.31m6.92 0a1.16 1.16 0 1 1 0 2.31 1.16 1.16 0 0 1 0-2.31M4.85 59.95a1.16 1.16 0 1 1 0 2.31 1.16 1.16 0 0 1 0-2.31m6.92 0a1.16 1.16 0 1 1 0 2.31 1.16 1.16 0 0 1 0-2.31m6.93 0a1.16 1.16 0 1 1 0 2.31 1.16 1.16 0 0 1 0-2.31m6.92 0a1.16 1.16 0 1 1 0 2.31 1.16 1.16 0 0 1 0-2.31m6.93 0a1.16 1.16 0 1 1 0 2.31 1.16 1.16 0 0 1 0-2.31m6.92 0a1.16 1.16 0 1 1 0 2.31 1.16 1.16 0 0 1 0-2.31m6.93 0a1.16 1.16 0 1 1 0 2.31 1.16 1.16 0 0 1 0-2.31m6.92 0a1.16 1.16 0 1 1 0 2.31 1.16 1.16 0 0 1 0-2.31m6.92 0a1.16 1.16 0 1 1-.43.08 1 1 0 0 1 .44-.08zm6.93 0a1.16 1.16 0 1 1 0 2.31 1.16 1.16 0 0 1 0-2.31m6.92 0a1.16 1.16 0 1 1 0 2.31 1.16 1.16 0 0 1 0-2.31m6.93 0a1.16 1.16 0 1 1 0 2.31 1.16 1.16 0 0 1 0-2.31m6.92 0a1.16 1.16 0 1 1 0 2.31 1.16 1.16 0 0 1 0-2.31m6.93 0a1.16 1.16 0 1 1 0 2.31 1.16 1.16 0 0 1 0-2.31m6.92 0a1.16 1.16 0 1 1 0 2.31 1.16 1.16 0 0 1 0-2.31m6.93 0a1.16 1.16 0 1 1 0 2.31 1.16 1.16 0 0 1 0-2.31m6.92 0a1.16 1.16 0 1 1 0 2.31 1.16 1.16 0 0 1 0-2.31m13.85 0a1.16 1.16 0 1 1 0 2.31 1.16 1.16 0 0 1 0-2.31m6.93 0a1.16 1.16 0 1 1 0 2.31 1.16 1.16 0 0 1 0-2.31m6.92 0a1.16 1.16 0 0 1 1.16 1.15 1.16 1.16 0 1 1-1.16-1.15m6.93 0a1.16 1.16 0 0 1 1.16 1.15 1.16 1.16 0 1 1-1.16-1.15m6.92 0a1.16 1.16 0 0 1 .82 1.97 1.16 1.16 0 0 1-1.98-.82 1.2 1.2 0 0 1 .72-1.07 1 1 0 0 1 .44-.08M1.16 63.72a1.16 1.16 0 1 1 0 2.32 1.16 1.16 0 0 1 0-2.32m6.92 0a1.16 1.16 0 1 1 0 2.32 1.16 1.16 0 0 1 0-2.32m6.93 0a1.16 1.16 0 1 1 0 2.32 1.16 1.16 0 0 1 0-2.32m6.92 0a1.16 1.16 0 1 1 0 2.32 1.16 1.16 0 0 1 0-2.32m6.93 0a1.16 1.16 0 1 1 0 2.32 1.16 1.16 0 0 1 0-2.32m6.92 0a1.16 1.16 0 1 1 0 2.32 1.16 1.16 0 0 1 0-2.32m6.93 0a1.16 1.16 0 1 1 0 2.32 1.16 1.16 0 0 1 0-2.32m6.92 0a1.16 1.16 0 1 1 0 2.32 1.16 1.16 0 0 1 0-2.32m6.93 0a1.16 1.16 0 1 1-.01 0zm6.92 0a1.16 1.16 0 1 1 0 2.32 1.16 1.16 0 0 1 0-2.32m6.93 0a1.16 1.16 0 1 1 0 2.32 1.16 1.16 0 0 1 0-2.32m6.92 0a1.16 1.16 0 1 1 0 2.32 1.16 1.16 0 0 1 0-2.32m6.93 0a1.16 1.16 0 1 1 0 2.32 1.16 1.16 0 0 1 0-2.32m6.92 0a1.16 1.16 0 1 1 0 2.32 1.16 1.16 0 0 1 0-2.32m6.92 0a1.16 1.16 0 1 1 0 2.32 1.16 1.16 0 0 1 0-2.32m6.93 0a1.16 1.16 0 0 1 .82 1.98 1.16 1.16 0 0 1-1.98-.82 1.16 1.16 0 0 1 1.16-1.16m6.93 0a1.16 1.16 0 1 1 0 2.32 1.16 1.16 0 0 1 0-2.32m6.92 0a1.16 1.16 0 0 1 .82 1.98 1.16 1.16 0 0 1-1.98-.82 1.2 1.2 0 0 1 .72-1.07 1 1 0 0 1 .44-.09m6.93 0a1.16 1.16 0 1 1-.45.09 1 1 0 0 1 .45-.09m6.92 0a1.16 1.16 0 1 1 0 2.32 1.16 1.16 0 0 1 0-2.32m6.93 0a1.16 1.16 0 1 1 0 2.32 1.16 1.16 0 0 1 0-2.32m6.92 0a1.16 1.16 0 1 1 0 2.32 1.16 1.16 0 0 1 0-2.32m6.92 0a1.16 1.16 0 1 1 0 2.32 1.16 1.16 0 0 1 0-2.32M4.85 67.52a1.16 1.16 0 1 1 0 2.32 1.16 1.16 0 0 1 0-2.32m6.92 0a1.16 1.16 0 1 1 0 2.32 1.16 1.16 0 0 1 0-2.32m6.93 0a1.16 1.16 0 1 1 0 2.32 1.16 1.16 0 0 1 0-2.32m6.92 0a1.16 1.16 0 1 1 0 2.32 1.16 1.16 0 0 1 0-2.32m6.93 0a1.16 1.16 0 1 1 0 2.32 1.16 1.16 0 0 1 0-2.32m6.92 0a1.16 1.16 0 1 1 0 2.32 1.16 1.16 0 0 1 0-2.32m6.93 0a1.16 1.16 0 1 1 0 2.32 1.16 1.16 0 0 1 0-2.32m6.92 0a1.16 1.16 0 1 1 0 2.32 1.16 1.16 0 0 1 0-2.32m6.92 0a1.16 1.16 0 1 1-.43.09q.21-.1.44-.09zm6.93 0a1.16 1.16 0 1 1 0 2.32 1.16 1.16 0 0 1 0-2.32m6.92 0a1.16 1.16 0 1 1 0 2.32 1.16 1.16 0 0 1 0-2.32m6.93 0a1.16 1.16 0 1 1 0 2.32 1.16 1.16 0 0 1 0-2.32m6.92 0a1.16 1.16 0 1 1 0 2.32 1.16 1.16 0 0 1 0-2.32m6.93 0a1.16 1.16 0 1 1 0 2.32 1.16 1.16 0 0 1 0-2.32m6.92 0a1.16 1.16 0 1 1 0 2.32 1.16 1.16 0 0 1 0-2.32m6.93 0a1.16 1.16 0 1 1 0 2.32 1.16 1.16 0 0 1 0-2.32m6.92 0a1.16 1.16 0 1 1 0 2.32 1.16 1.16 0 0 1 0-2.32m13.85 0a1.16 1.16 0 1 1 0 2.32 1.16 1.16 0 0 1 0-2.32m6.93 0a1.16 1.16 0 0 1 1.16 1.16 1.16 1.16 0 1 1-1.16-1.16m6.92 0a1.16 1.16 0 0 1 .82 1.98 1.16 1.16 0 0 1-1.98-.82 1.2 1.2 0 0 1 .72-1.07 1 1 0 0 1 .44-.09m6.93 0a1.16 1.16 0 0 1 1.16 1.16 1.16 1.16 0 1 1-1.16-1.16M1.16 71.3a1.16 1.16 0 1 1 0 2.31 1.16 1.16 0 0 1 0-2.32m6.92 0a1.16 1.16 0 1 1 0 2.32 1.16 1.16 0 0 1 0-2.32m6.93 0a1.16 1.16 0 1 1 0 2.32 1.16 1.16 0 0 1 0-2.32m6.92 0a1.16 1.16 0 1 1 0 2.32 1.16 1.16 0 0 1 0-2.32m6.93 0a1.16 1.16 0 1 1 0 2.32 1.16 1.16 0 0 1 0-2.32m6.92 0a1.16 1.16 0 1 1 0 2.32 1.16 1.16 0 0 1 0-2.32m6.93 0a1.16 1.16 0 1 1 0 2.32 1.16 1.16 0 0 1 0-2.32m6.92 0a1.16 1.16 0 1 1 0 2.32 1.16 1.16 0 0 1 0-2.32m6.93 0a1.16 1.16 0 1 1-.01 0zm6.92 0a1.16 1.16 0 1 1 0 2.32 1.16 1.16 0 0 1 0-2.32m6.93 0a1.16 1.16 0 1 1 0 2.32 1.16 1.16 0 0 1 0-2.32m6.92 0a1.16 1.16 0 1 1 0 2.32 1.16 1.16 0 0 1 0-2.32m6.93 0a1.16 1.16 0 1 1 0 2.32 1.16 1.16 0 0 1 0-2.32m6.92 0a1.16 1.16 0 1 1 0 2.32 1.16 1.16 0 0 1 0-2.32m6.93 0a1.16 1.16 0 1 1 0 2.32 1.16 1.16 0 0 1 0-2.32m6.92 0a1.16 1.16 0 1 1 0 2.32 1.16 1.16 0 0 1 0-2.32m6.93 0a1.16 1.16 0 0 1 1.15 1.16 1.16 1.16 0 1 1-1.15-1.16m6.92 0a1.16 1.16 0 0 1 1.16 1.16 1.16 1.16 0 1 1-1.16-1.16m6.93 0a1.16 1.16 0 1 1 0 2.32 1.16 1.16 0 0 1-1.16-1.16q0-.23.09-.44a1.2 1.2 0 0 1 .62-.63q.22-.09.45-.09m6.92 0a1.16 1.16 0 1 1 0 2.32 1.16 1.16 0 0 1 0-2.32m6.93 0a1.16 1.16 0 1 1 0 2.32 1.16 1.16 0 0 1 0-2.32m6.92 0a1.16 1.16 0 1 1 0 2.32 1.16 1.16 0 0 1 0-2.32M4.85 75.1a1.16 1.16 0 1 1 0 2.32 1.16 1.16 0 0 1 0-2.31m6.92 0a1.16 1.16 0 1 1 0 2.31 1.16 1.16 0 0 1 0-2.31m6.93 0a1.16 1.16 0 1 1 0 2.31 1.16 1.16 0 0 1 0-2.31m6.92 0a1.16 1.16 0 1 1 0 2.31 1.16 1.16 0 0 1 0-2.31m6.93 0a1.16 1.16 0 1 1 0 2.31 1.16 1.16 0 0 1 0-2.31m6.92 0a1.16 1.16 0 1 1 0 2.31 1.16 1.16 0 0 1 0-2.31m6.93 0a1.16 1.16 0 1 1 0 2.31 1.16 1.16 0 0 1 0-2.31m6.92 0a1.16 1.16 0 1 1 0 2.31 1.16 1.16 0 0 1 0-2.31m6.92 0a1.16 1.16 0 1 1-.43.08q.21-.1.44-.08zm6.93 0a1.16 1.16 0 1 1 0 2.31 1.16 1.16 0 0 1 0-2.31m6.92 0a1.16 1.16 0 1 1 0 2.31 1.16 1.16 0 0 1 0-2.31m6.93 0a1.16 1.16 0 1 1 0 2.31 1.16 1.16 0 0 1 0-2.31m6.92 0a1.16 1.16 0 1 1 0 2.31 1.16 1.16 0 0 1 0-2.31m6.93 0a1.16 1.16 0 1 1 0 2.31 1.16 1.16 0 0 1 0-2.31m6.92 0a1.16 1.16 0 1 1 0 2.31 1.16 1.16 0 0 1 0-2.31m6.93 0a1.16 1.16 0 1 1 0 2.31 1.16 1.16 0 0 1 0-2.31m6.92 0a1.16 1.16 0 1 1 0 2.31 1.16 1.16 0 0 1 0-2.31m13.85 0a1.16 1.16 0 1 1 0 2.31 1.16 1.16 0 0 1 0-2.31m6.93 0a1.16 1.16 0 0 1 1.16 1.15 1.16 1.16 0 1 1-1.16-1.15m6.92 0a1.16 1.16 0 0 1 .82 1.97 1.16 1.16 0 1 1-1.64-1.63 1.2 1.2 0 0 1 .82-.34m6.93 0a1.16 1.16 0 0 1 1.16 1.15 1.16 1.16 0 1 1-1.16-1.15M1.16 78.87a1.16 1.16 0 1 1 0 2.32 1.16 1.16 0 0 1 0-2.32m6.92 0a1.16 1.16 0 1 1 0 2.32 1.16 1.16 0 0 1 0-2.32m6.93 0a1.16 1.16 0 1 1 0 2.32 1.16 1.16 0 0 1 0-2.32m6.92 0a1.16 1.16 0 1 1 0 2.32 1.16 1.16 0 0 1 0-2.32m6.93 0a1.16 1.16 0 1 1 0 2.32 1.16 1.16 0 0 1 0-2.32m6.92 0a1.16 1.16 0 1 1 0 2.32 1.16 1.16 0 0 1 0-2.32m6.93 0a1.16 1.16 0 1 1 0 2.32 1.16 1.16 0 0 1 0-2.32m6.92 0a1.16 1.16 0 1 1 0 2.32 1.16 1.16 0 0 1 0-2.32m6.93 0a1.16 1.16 0 1 1-.01 0zm6.92 0a1.16 1.16 0 1 1 0 2.32 1.16 1.16 0 0 1 0-2.32m6.93 0a1.16 1.16 0 1 1 0 2.32 1.16 1.16 0 0 1 0-2.32m6.92 0a1.16 1.16 0 1 1 0 2.32 1.16 1.16 0 0 1 0-2.32m6.93 0a1.16 1.16 0 1 1 0 2.32 1.16 1.16 0 0 1 0-2.32m6.92 0a1.16 1.16 0 1 1 0 2.32 1.16 1.16 0 0 1 0-2.32m6.93 0a1.16 1.16 0 1 1 0 2.32 1.16 1.16 0 0 1 0-2.32m6.92 0a1.16 1.16 0 1 1 0 2.32 1.16 1.16 0 0 1 0-2.32m6.93 0a1.16 1.16 0 0 1 1.15 1.16 1.16 1.16 0 1 1-1.15-1.16m6.92 0a1.16 1.16 0 0 1 1.16 1.16 1.16 1.16 0 1 1-1.16-1.16m6.93 0a1.16 1.16 0 0 1 .81 1.98 1.16 1.16 0 0 1-1.97-.82q0-.23.09-.45a1.2 1.2 0 0 1 .62-.62q.22-.09.45-.09m6.92 0a1.16 1.16 0 1 1 0 2.32 1.16 1.16 0 0 1 0-2.32m6.93 0a1.16 1.16 0 1 1 0 2.32 1.16 1.16 0 0 1 0-2.32m6.92 0a1.16 1.16 0 1 1 0 2.32 1.16 1.16 0 0 1 0-2.32M4.85 82.67a1.16 1.16 0 1 1 0 2.32 1.16 1.16 0 0 1 0-2.32m6.92 0a1.16 1.16 0 1 1 0 2.32 1.16 1.16 0 0 1 0-2.32m6.93 0a1.16 1.16 0 1 1 0 2.32 1.16 1.16 0 0 1 0-2.32m6.92 0a1.16 1.16 0 1 1 0 2.32 1.16 1.16 0 0 1 0-2.32m6.93 0a1.16 1.16 0 1 1 0 2.32 1.16 1.16 0 0 1 0-2.32m6.92 0a1.16 1.16 0 1 1 0 2.32 1.16 1.16 0 0 1 0-2.32m6.93 0a1.16 1.16 0 1 1 0 2.32 1.16 1.16 0 0 1 0-2.32m6.92 0a1.16 1.16 0 1 1 0 2.32 1.16 1.16 0 0 1 0-2.32m6.92 0a1.16 1.16 0 1 1-.43.09 1 1 0 0 1 .44-.1Zm6.93 0a1.16 1.16 0 1 1 0 2.32 1.16 1.16 0 0 1 0-2.32m6.92 0a1.16 1.16 0 1 1 0 2.32 1.16 1.16 0 0 1 0-2.32m6.93 0a1.16 1.16 0 1 1 0 2.32 1.16 1.16 0 0 1 0-2.32m6.92 0a1.16 1.16 0 1 1 0 2.32 1.16 1.16 0 0 1 0-2.32m6.93 0a1.16 1.16 0 1 1 0 2.32 1.16 1.16 0 0 1 0-2.32m6.92 0a1.16 1.16 0 1 1 0 2.32 1.16 1.16 0 0 1 0-2.32m6.93 0a1.16 1.16 0 1 1 0 2.32 1.16 1.16 0 0 1 0-2.32m6.92 0a1.16 1.16 0 1 1 0 2.32 1.16 1.16 0 0 1 0-2.32m13.85 0a1.16 1.16 0 1 1 0 2.32 1.16 1.16 0 0 1 0-2.32m6.93 0a1.16 1.16 0 0 1 1.16 1.16 1.16 1.16 0 1 1-1.16-1.16m6.92 0a1.16 1.16 0 0 1 .82 1.98 1.16 1.16 0 0 1-1.98-.82 1.2 1.2 0 0 1 .72-1.07 1 1 0 0 1 .44-.1m6.93 0a1.16 1.16 0 0 1 1.16 1.16 1.16 1.16 0 1 1-1.16-1.16M1.16 86.44a1.16 1.16 0 1 1 0 2.32 1.16 1.16 0 0 1 0-2.32m6.92 0a1.16 1.16 0 1 1 0 2.32 1.16 1.16 0 0 1 0-2.32m6.93 0a1.16 1.16 0 1 1 0 2.32 1.16 1.16 0 0 1 0-2.32m6.92 0a1.16 1.16 0 1 1 0 2.32 1.16 1.16 0 0 1 0-2.32m6.93 0a1.16 1.16 0 1 1 0 2.32 1.16 1.16 0 0 1 0-2.32m6.92 0a1.16 1.16 0 1 1 0 2.32 1.16 1.16 0 0 1 0-2.32m6.93 0a1.16 1.16 0 1 1 0 2.32 1.16 1.16 0 0 1 0-2.32m6.92 0a1.16 1.16 0 1 1 0 2.32 1.16 1.16 0 0 1 0-2.32m6.93 0a1.16 1.16 0 1 1-.01 0zm6.92 0a1.16 1.16 0 1 1 0 2.32 1.16 1.16 0 0 1 0-2.32m6.93 0a1.16 1.16 0 1 1 0 2.32 1.16 1.16 0 0 1 0-2.32m6.92 0a1.16 1.16 0 1 1 0 2.32 1.16 1.16 0 0 1 0-2.32m6.93 0a1.16 1.16 0 1 1 0 2.32 1.16 1.16 0 0 1 0-2.32m6.92 0a1.16 1.16 0 1 1 0 2.32 1.16 1.16 0 0 1 0-2.32m6.92 0a1.16 1.16 0 1 1 0 2.32 1.16 1.16 0 0 1 0-2.32m6.93 0a1.16 1.16 0 0 1 .82 1.98 1.16 1.16 0 0 1-1.98-.82 1.16 1.16 0 0 1 1.16-1.16m6.93 0a1.16 1.16 0 1 1 0 2.32 1.16 1.16 0 0 1 0-2.32m6.92 0a1.16 1.16 0 0 1 .82 1.98 1.16 1.16 0 0 1-1.89-1.26 1.2 1.2 0 0 1 1.07-.72m6.93 0a1.16 1.16 0 1 1-.45.09 1 1 0 0 1 .45-.09m6.92 0a1.16 1.16 0 1 1 0 2.32 1.16 1.16 0 0 1 0-2.32m6.93 0a1.16 1.16 0 1 1 0 2.32 1.16 1.16 0 0 1 0-2.32m6.92 0a1.16 1.16 0 1 1 0 2.32 1.16 1.16 0 0 1 0-2.32m6.92 0a1.16 1.16 0 1 1 0 2.32 1.16 1.16 0 0 1 0-2.32M4.85 90.24a1.16 1.16 0 1 1 0 2.32 1.16 1.16 0 0 1 0-2.32m6.92 0a1.16 1.16 0 1 1 0 2.32 1.16 1.16 0 0 1 0-2.32m6.93 0a1.16 1.16 0 1 1 0 2.32 1.16 1.16 0 0 1 0-2.32m6.92 0a1.16 1.16 0 1 1 0 2.32 1.16 1.16 0 0 1 0-2.32m6.93 0a1.16 1.16 0 1 1 0 2.32 1.16 1.16 0 0 1 0-2.32m6.92 0a1.16 1.16 0 1 1 0 2.32 1.16 1.16 0 0 1 0-2.32m6.93 0a1.16 1.16 0 1 1 0 2.32 1.16 1.16 0 0 1 0-2.32m6.92 0a1.16 1.16 0 1 1 0 2.32 1.16 1.16 0 0 1 0-2.32m6.92 0a1.16 1.16 0 1 1-.43.09q.21-.09.44-.09zm6.93 0a1.16 1.16 0 1 1 0 2.32 1.16 1.16 0 0 1 0-2.32m6.92 0a1.16 1.16 0 1 1 0 2.32 1.16 1.16 0 0 1 0-2.32m6.93 0a1.16 1.16 0 1 1 0 2.32 1.16 1.16 0 0 1 0-2.32m6.92 0a1.16 1.16 0 1 1 0 2.32 1.16 1.16 0 0 1 0-2.32m6.93 0a1.16 1.16 0 1 1 0 2.32 1.16 1.16 0 0 1 0-2.32m6.92 0a1.16 1.16 0 1 1 0 2.32 1.16 1.16 0 0 1 0-2.32m6.93 0a1.16 1.16 0 1 1 0 2.32 1.16 1.16 0 0 1 0-2.32m6.92 0a1.16 1.16 0 1 1 0 2.32 1.16 1.16 0 0 1 0-2.32m13.85 0a1.16 1.16 0 1 1 0 2.32 1.16 1.16 0 0 1 0-2.32m6.93 0a1.16 1.16 0 0 1 1.16 1.16 1.16 1.16 0 1 1-1.16-1.16m6.92 0a1.16 1.16 0 0 1 .82 1.98 1.16 1.16 0 0 1-1.98-.82 1.2 1.2 0 0 1 .72-1.07 1 1 0 0 1 .44-.09m6.93 0a1.16 1.16 0 0 1 1.16 1.16 1.16 1.16 0 1 1-1.16-1.16M1.16 94.02a1.16 1.16 0 1 1 0 2.32 1.16 1.16 0 0 1 0-2.32m6.92 0a1.16 1.16 0 1 1 0 2.32 1.16 1.16 0 0 1 0-2.32m6.93 0a1.16 1.16 0 1 1 0 2.32 1.16 1.16 0 0 1 0-2.32m6.92 0a1.16 1.16 0 1 1 0 2.32 1.16 1.16 0 0 1 0-2.32m6.93 0a1.16 1.16 0 1 1 0 2.32 1.16 1.16 0 0 1 0-2.32m6.92 0a1.16 1.16 0 1 1 0 2.32 1.16 1.16 0 0 1 0-2.32m6.93 0a1.16 1.16 0 1 1 0 2.32 1.16 1.16 0 0 1 0-2.32m6.92 0a1.16 1.16 0 1 1 0 2.32 1.16 1.16 0 0 1 0-2.32m6.93 0a1.16 1.16 0 1 1-.01 0zm6.92 0a1.16 1.16 0 1 1 0 2.32 1.16 1.16 0 0 1 0-2.32m6.93 0a1.16 1.16 0 1 1 0 2.32 1.16 1.16 0 0 1 0-2.32m6.92 0a1.16 1.16 0 1 1 0 2.32 1.16 1.16 0 0 1 0-2.32m6.93 0a1.16 1.16 0 1 1 0 2.32 1.16 1.16 0 0 1 0-2.32m6.92 0a1.16 1.16 0 1 1 0 2.32 1.16 1.16 0 0 1 0-2.32m6.92 0a1.16 1.16 0 1 1 0 2.32 1.16 1.16 0 0 1 0-2.32m6.93 0a1.16 1.16 0 1 1 0 2.31 1.16 1.16 0 0 1-1.16-1.15 1.16 1.16 0 0 1 1.16-1.16m6.93 0a1.16 1.16 0 1 1 0 2.32 1.16 1.16 0 0 1 0-2.32m6.92 0a1.16 1.16 0 1 1 0 2.31 1.16 1.16 0 0 1-1.07-1.6 1.2 1.2 0 0 1 .63-.62 1 1 0 0 1 .44-.1m6.93 0a1.16 1.16 0 1 1-.45.1q.22-.1.45-.1m6.92 0a1.16 1.16 0 1 1 0 2.33 1.16 1.16 0 0 1 0-2.32m6.93 0a1.16 1.16 0 1 1 0 2.32 1.16 1.16 0 0 1 0-2.32m6.92 0a1.16 1.16 0 1 1 0 2.32 1.16 1.16 0 0 1 0-2.32m6.92 0a1.16 1.16 0 1 1 0 2.32 1.16 1.16 0 0 1 0-2.32M4.85 97.82a1.16 1.16 0 1 1 0 2.31 1.16 1.16 0 0 1 0-2.31m6.92 0a1.16 1.16 0 1 1 0 2.31 1.16 1.16 0 0 1 0-2.31m6.93 0a1.16 1.16 0 1 1 0 2.31 1.16 1.16 0 0 1 0-2.31m6.92 0a1.16 1.16 0 1 1 0 2.31 1.16 1.16 0 0 1 0-2.31m6.93 0a1.16 1.16 0 1 1 0 2.31 1.16 1.16 0 0 1 0-2.31m6.92 0a1.16 1.16 0 1 1 0 2.31 1.16 1.16 0 0 1 0-2.31m6.93 0a1.16 1.16 0 1 1 0 2.31 1.16 1.16 0 0 1 0-2.31m6.92 0a1.16 1.16 0 1 1 0 2.31 1.16 1.16 0 0 1 0-2.31m6.92 0a1.16 1.16 0 1 1-.43.08 1 1 0 0 1 .44-.08zm6.93 0a1.16 1.16 0 1 1 0 2.31 1.16 1.16 0 0 1 0-2.31m6.92 0a1.16 1.16 0 1 1 0 2.31 1.16 1.16 0 0 1 0-2.31m6.93 0a1.16 1.16 0 1 1 0 2.31 1.16 1.16 0 0 1 0-2.31m6.92 0a1.16 1.16 0 1 1 0 2.31 1.16 1.16 0 0 1 0-2.31m6.93 0a1.16 1.16 0 1 1 0 2.31 1.16 1.16 0 0 1 0-2.31m6.92 0a1.16 1.16 0 1 1 0 2.31 1.16 1.16 0 0 1 0-2.31m6.93 0a1.16 1.16 0 1 1 0 2.31 1.16 1.16 0 0 1 0-2.31m6.92 0a1.16 1.16 0 1 1 0 2.31 1.16 1.16 0 0 1 0-2.31m13.85 0a1.16 1.16 0 1 1 0 2.31 1.16 1.16 0 0 1 0-2.31m6.93 0a1.16 1.16 0 0 1 1.16 1.16 1.16 1.16 0 1 1-1.16-1.16m6.92 0a1.16 1.16 0 0 1 .82 1.97 1.16 1.16 0 0 1-1.89-1.26 1.2 1.2 0 0 1 1.07-.71m6.93 0a1.16 1.16 0 0 1 1.15 1.16 1.16 1.16 0 1 1-1.15-1.16M1.16 101.59a1.16 1.16 0 1 1 0 2.32 1.16 1.16 0 0 1 0-2.32m6.92 0a1.16 1.16 0 1 1 0 2.32 1.16 1.16 0 0 1 0-2.32m6.93 0a1.16 1.16 0 1 1 0 2.32 1.16 1.16 0 0 1 0-2.32m6.92 0a1.16 1.16 0 1 1 0 2.32 1.16 1.16 0 0 1 0-2.32m6.93 0a1.16 1.16 0 1 1 0 2.32 1.16 1.16 0 0 1 0-2.32m6.92 0a1.16 1.16 0 1 1 0 2.32 1.16 1.16 0 0 1 0-2.32m6.93 0a1.16 1.16 0 1 1 0 2.32 1.16 1.16 0 0 1 0-2.32m6.92 0a1.16 1.16 0 1 1 0 2.32 1.16 1.16 0 0 1 0-2.32m6.93 0a1.16 1.16 0 1 1-.01 0zm6.92 0a1.16 1.16 0 1 1 0 2.32 1.16 1.16 0 0 1 0-2.32m6.93 0a1.16 1.16 0 1 1 0 2.32 1.16 1.16 0 0 1 0-2.32m6.92 0a1.16 1.16 0 1 1 0 2.32 1.16 1.16 0 0 1 0-2.32m6.93 0a1.16 1.16 0 1 1 0 2.32 1.16 1.16 0 0 1 0-2.32m6.92 0a1.16 1.16 0 1 1 0 2.32 1.16 1.16 0 0 1 0-2.32m6.92 0a1.16 1.16 0 0 1 0 2.32 1.16 1.16 0 0 1-1.15-1.16 1.16 1.16 0 0 1 1.15-1.16m6.93 0a1.16 1.16 0 1 1 0 2.32 1.16 1.16 0 0 1 0-2.32m6.93 0a1.16 1.16 0 1 1 0 2.32 1.16 1.16 0 0 1 0-2.32m6.92 0a1.16 1.16 0 1 1 0 2.32 1.16 1.16 0 0 1 0-2.32m6.93 0a1.16 1.16 0 1 1-.45.09q.22-.09.45-.09m6.92 0a1.16 1.16 0 1 1 0 2.32 1.16 1.16 0 0 1 0-2.32m6.93 0a1.16 1.16 0 1 1 0 2.32 1.16 1.16 0 0 1 0-2.32m6.92 0a1.16 1.16 0 1 1 0 2.32 1.16 1.16 0 0 1 0-2.32m6.92 0a1.16 1.16 0 1 1 0 2.32 1.16 1.16 0 0 1 0-2.32M4.85 105.4a1.16 1.16 0 1 1 0 2.3 1.16 1.16 0 0 1 0-2.3m6.92 0a1.16 1.16 0 1 1 0 2.3 1.16 1.16 0 0 1 0-2.3m6.93 0a1.16 1.16 0 1 1 0 2.3 1.16 1.16 0 0 1 0-2.3m6.92 0a1.16 1.16 0 1 1 0 2.3 1.16 1.16 0 0 1 0-2.3m6.93 0a1.16 1.16 0 1 1 0 2.3 1.16 1.16 0 0 1 0-2.3m6.92 0a1.16 1.16 0 1 1 0 2.3 1.16 1.16 0 0 1 0-2.3m6.93 0a1.16 1.16 0 1 1 0 2.3 1.16 1.16 0 0 1 0-2.3m6.92 0a1.16 1.16 0 1 1 0 2.3 1.16 1.16 0 0 1 0-2.3m6.93 0a1.16 1.16 0 1 1 0 2.3 1.16 1.16 0 0 1 0-2.3m6.93 0a1.16 1.16 0 1 1-.01 0zm13.85 0a1.16 1.16 0 1 1-.01 0zm13.85 0a1.16 1.16 0 1 1-.01 0zm13.85 0a1.16 1.16 0 0 1 1.16 1.15 1.16 1.16 0 1 1-1.17-1.16zm6.92 0a1.16 1.16 0 0 1 1.16 1.15 1.16 1.16 0 1 1-1.17-1.16zm6.92 0a1.16 1.16 0 1 1 0 2.3 1.16 1.16 0 0 1 0-2.3m6.92 0a1.16 1.16 0 1 1-.44.08q.22-.09.44-.09zm6.93 0a1.16 1.16 0 1 1-.45.08q.22-.09.45-.09zm6.92 0a1.16 1.16 0 0 1 1.16 1.15 1.16 1.16 0 1 1-1.16-1.16zm6.93 0a1.16 1.16 0 0 1 1.15 1.15 1.16 1.16 0 1 1-1.15-1.16zM1.16 109.16a1.16 1.16 0 1 1 0 2.31 1.16 1.16 0 0 1 0-2.31m6.92 0a1.16 1.16 0 1 1 0 2.31 1.16 1.16 0 0 1 0-2.31m6.93 0a1.16 1.16 0 1 1 0 2.31 1.16 1.16 0 0 1 0-2.31m6.92 0a1.16 1.16 0 1 1 0 2.31 1.16 1.16 0 0 1 0-2.31m6.93 0a1.16 1.16 0 1 1 0 2.31 1.16 1.16 0 0 1 0-2.31m6.92 0a1.16 1.16 0 1 1 0 2.31 1.16 1.16 0 0 1 0-2.31m6.93 0a1.16 1.16 0 1 1 0 2.31 1.16 1.16 0 0 1 0-2.31m6.92 0a1.16 1.16 0 1 1 0 2.31 1.16 1.16 0 0 1 0-2.31m6.93 0a1.16 1.16 0 1 1-.01 0zm6.92 0a1.16 1.16 0 1 1 0 2.31 1.16 1.16 0 0 1 0-2.31m6.93 0a1.16 1.16 0 1 1 0 2.31 1.16 1.16 0 0 1 0-2.31m6.92 0a1.16 1.16 0 1 1 0 2.31 1.16 1.16 0 0 1 0-2.31m6.93 0a1.16 1.16 0 1 1 0 2.31 1.16 1.16 0 0 1 0-2.31m6.92 0a1.16 1.16 0 1 1 0 2.31 1.16 1.16 0 0 1 0-2.31m6.93 0a1.16 1.16 0 1 1 0 2.31 1.16 1.16 0 0 1 0-2.31m6.92 0a1.16 1.16 0 1 1 0 2.31 1.16 1.16 0 0 1 0-2.31m6.93 0a1.16 1.16 0 0 1 1.15 1.15 1.16 1.16 0 1 1-1.15-1.15m6.92 0a1.16 1.16 0 0 1 1.16 1.15 1.16 1.16 0 1 1-1.16-1.15m6.93 0a1.16 1.16 0 1 1-.45.08q.22-.08.45-.08m6.92 0a1.16 1.16 0 1 1 0 2.31 1.16 1.16 0 0 1 0-2.31m6.93 0a1.16 1.16 0 1 1 0 2.31 1.16 1.16 0 0 1 0-2.31m6.92 0a1.16 1.16 0 1 1 0 2.31 1.16 1.16 0 0 1 0-2.31m-141.73 3.8A1.16 1.16 0 0 1 6 114.11a1.16 1.16 0 0 1-1.98.82 1.16 1.16 0 0 1 .82-1.98Zm6.92 0a1.16 1.16 0 0 1 1.16 1.15 1.16 1.16 0 0 1-1.98.82 1.16 1.16 0 0 1 .82-1.98m6.93 0a1.16 1.16 0 0 1 1.16 1.15 1.16 1.16 0 0 1-1.16 1.16 1.16 1.16 0 0 1 0-2.32m6.92 0a1.16 1.16 0 0 1 1.16 1.16 1.16 1.16 0 0 1-1.98.82 1.16 1.16 0 0 1 0-1.64q.34-.33.82-.34m6.93 0a1.16 1.16 0 0 1 1.15 1.16 1.16 1.16 0 0 1-1.97.82 1.16 1.16 0 0 1 0-1.64q.33-.33.82-.34m6.92 0a1.16 1.16 0 0 1 1.16 1.16 1.16 1.16 0 0 1-1.98.82 1.16 1.16 0 0 1 .82-1.98m6.93 0a1.16 1.16 0 0 1 1.15 1.16 1.16 1.16 0 0 1-1.97.82 1.16 1.16 0 0 1 .82-1.98m6.92 0a1.16 1.16 0 0 1 1.16 1.16 1.16 1.16 0 0 1-1.98.82 1.16 1.16 0 0 1 .82-1.98m6.92 0a1.16 1.16 0 0 1 1.16 1.16 1.16 1.16 0 0 1-1.97.82 1.16 1.16 0 0 1 .82-1.98zm6.93 0a1.16 1.16 0 0 1 1.16 1.16 1.16 1.16 0 0 1-1.98.82 1.16 1.16 0 0 1 .82-1.98m6.92 0a1.16 1.16 0 0 1 1.16 1.16 1.16 1.16 0 0 1-1.97.82 1.16 1.16 0 0 1 .81-1.98m6.93 0a1.16 1.16 0 0 1 1.16 1.16 1.16 1.16 0 0 1-1.98.82 1.16 1.16 0 0 1 .82-1.98m6.92 0a1.16 1.16 0 0 1 1.16 1.16 1.16 1.16 0 0 1-1.98.82 1.16 1.16 0 0 1 .82-1.98m6.93 0a1.16 1.16 0 0 1 1.16 1.16 1.16 1.16 0 0 1-1.98.82 1.16 1.16 0 0 1 .82-1.98m6.92 0a1.16 1.16 0 0 1 1.16 1.16 1.16 1.16 0 1 1-1.16-1.16m6.93 0a1.16 1.16 0 0 1 1.16 1.16 1.16 1.16 0 1 1-1.16-1.16m6.92 0a1.16 1.16 0 0 1 1.16 1.16 1.16 1.16 0 1 1-1.16-1.16m6.93 0a1.16 1.16 0 0 1 1.16 1.16 1.16 1.16 0 1 1-1.16-1.16m6.92 0a1.16 1.16 0 0 1 1.16 1.16 1.16 1.16 0 1 1-1.16-1.16m6.93 0a1.16 1.16 0 1 1 0 2.32 1.16 1.16 0 0 1 0-2.32m6.92 0q.47.01.82.34a1.15 1.15 0 0 1 0 1.64 1.16 1.16 0 1 1-.82-1.98m6.93 0a1.16 1.16 0 1 1 0 2.32 1.16 1.16 0 0 1 0-2.32M1.16 116.73a1.16 1.16 0 0 1 1.16 1.16 1.16 1.16 0 0 1-1.16 1.16A1.16 1.16 0 0 1 0 117.89a1.16 1.16 0 0 1 1.16-1.16m6.92 0a1.16 1.16 0 0 1 1.16 1.16 1.16 1.16 0 0 1-1.16 1.16 1.16 1.16 0 0 1-1.15-1.16 1.16 1.16 0 0 1 1.15-1.16m6.93 0a1.16 1.16 0 0 1 1.16 1.16 1.16 1.16 0 0 1-1.16 1.16 1.16 1.16 0 0 1-1.16-1.16 1.16 1.16 0 0 1 1.16-1.16m6.92 0a1.16 1.16 0 0 1 1.16 1.16 1.16 1.16 0 0 1-1.16 1.16 1.16 1.16 0 0 1-1.15-1.16 1.16 1.16 0 0 1 1.15-1.16m6.93 0a1.16 1.16 0 0 1 1.16 1.16 1.16 1.16 0 0 1-1.16 1.16 1.16 1.16 0 0 1-1.16-1.16 1.16 1.16 0 0 1 1.16-1.16m6.92 0a1.16 1.16 0 0 1 1.16 1.16 1.16 1.16 0 0 1-1.16 1.16 1.16 1.16 0 0 1-1.16-1.16 1.16 1.16 0 0 1 1.16-1.16m6.93 0a1.16 1.16 0 0 1 1.16 1.16 1.16 1.16 0 0 1-1.16 1.16 1.16 1.16 0 0 1-1.16-1.16 1.16 1.16 0 0 1 1.16-1.16m6.92 0a1.16 1.16 0 0 1 1.16 1.16 1.16 1.16 0 0 1-1.16 1.16 1.16 1.16 0 0 1-1.16-1.16 1.16 1.16 0 0 1 1.16-1.16m6.93 0a1.16 1.16 0 0 1 1.16 1.16 1.16 1.16 0 0 1-1.16 1.16 1.16 1.16 0 0 1-1.16-1.16 1.16 1.16 0 0 1 1.15-1.16zm6.92 0a1.16 1.16 0 0 1 1.16 1.16 1.16 1.16 0 0 1-1.16 1.16 1.16 1.16 0 0 1-1.16-1.16 1.16 1.16 0 0 1 1.16-1.16m6.93 0a1.16 1.16 0 0 1 1.16 1.16 1.16 1.16 0 0 1-1.16 1.16 1.16 1.16 0 0 1-1.16-1.16 1.16 1.16 0 0 1 1.16-1.16m6.92 0a1.16 1.16 0 0 1 1.16 1.16 1.16 1.16 0 0 1-1.16 1.16 1.16 1.16 0 0 1-1.16-1.16 1.16 1.16 0 0 1 1.16-1.16m6.93 0a1.16 1.16 0 0 1 1.15 1.16 1.16 1.16 0 0 1-1.15 1.16 1.16 1.16 0 0 1-1.16-1.16 1.16 1.16 0 0 1 1.16-1.16m6.92 0a1.16 1.16 0 0 1 1.16 1.16 1.16 1.16 0 0 1-1.16 1.16 1.16 1.16 0 0 1-1.16-1.16 1.16 1.16 0 0 1 1.16-1.16m6.93 0a1.16 1.16 0 0 1 1.15 1.16 1.16 1.16 0 0 1-1.15 1.16 1.16 1.16 0 0 1-1.16-1.16 1.16 1.16 0 0 1 1.16-1.16m6.92 0a1.16 1.16 0 0 1 1.16 1.16 1.16 1.16 0 0 1-1.98.82 1.16 1.16 0 0 1 .82-1.98m6.93 0a1.16 1.16 0 0 1 1.15 1.16 1.16 1.16 0 0 1-1.97.82 1.16 1.16 0 0 1 .82-1.98m6.92 0a1.16 1.16 0 0 1 1.16 1.16 1.16 1.16 0 0 1-1.98.82 1.16 1.16 0 0 1 .82-1.98m6.93 0a1.16 1.16 0 0 1 .82 1.98 1.16 1.16 0 0 1-1.64 0 1.16 1.16 0 0 1 .82-1.98m6.92 0a1.16 1.16 0 0 1 .82 1.98 1.16 1.16 0 0 1-1.64 0 1.16 1.16 0 0 1 .82-1.98m6.93 0a1.16 1.16 0 0 1 .82 1.98 1.16 1.16 0 0 1-1.64 0 1.16 1.16 0 0 1 .82-1.98m6.92 0a1.16 1.16 0 0 1 .82 1.98 1.16 1.16 0 0 1-1.64 0 1.16 1.16 0 0 1 .82-1.98m6.93 0a1.16 1.16 0 0 1 .82 1.98 1.16 1.16 0 0 1-1.64 0 1.16 1.16 0 0 1 .82-1.98m-148.66 3.8a1.16 1.16 0 1 1 0 2.33 1.16 1.16 0 0 1 0-2.32m6.92 0a1.16 1.16 0 1 1 0 2.32 1.16 1.16 0 0 1 0-2.32m6.93 0a1.16 1.16 0 1 1 0 2.32 1.16 1.16 0 0 1 0-2.32m6.92 0a1.16 1.16 0 1 1 0 2.32 1.16 1.16 0 0 1 0-2.32m6.93 0a1.16 1.16 0 1 1 0 2.32 1.16 1.16 0 0 1 0-2.32m6.92 0a1.16 1.16 0 1 1 0 2.32 1.16 1.16 0 0 1 0-2.32m6.93 0a1.16 1.16 0 1 1 0 2.32 1.16 1.16 0 0 1 0-2.32m6.92 0a1.16 1.16 0 1 1 0 2.32 1.16 1.16 0 0 1 0-2.32m6.92 0a1.16 1.16 0 1 1-.43.08q.21-.09.44-.08zm6.93 0a1.16 1.16 0 1 1 0 2.32 1.16 1.16 0 0 1 0-2.32m6.92 0a1.16 1.16 0 1 1 0 2.32 1.16 1.16 0 0 1 0-2.32m6.93 0a1.16 1.16 0 1 1 0 2.32 1.16 1.16 0 0 1 0-2.32m6.92 0a1.16 1.16 0 1 1 0 2.32 1.16 1.16 0 0 1 0-2.32m6.93 0a1.16 1.16 0 1 1 0 2.32 1.16 1.16 0 0 1 0-2.32m6.92 0a1.16 1.16 0 1 1 0 2.32 1.16 1.16 0 0 1 0-2.32m6.93 0a1.16 1.16 0 1 1 0 2.32 1.16 1.16 0 0 1 0-2.32m6.92 0a1.16 1.16 0 1 1 0 2.32 1.16 1.16 0 0 1 0-2.32m13.85 0a1.16 1.16 0 1 1 0 2.32 1.16 1.16 0 0 1 0-2.32m6.93 0a1.16 1.16 0 1 1 0 2.32 1.16 1.16 0 0 1 0-2.32m6.92 0a1.16 1.16 0 0 1 1.16 1.15 1.16 1.16 0 1 1-1.16-1.15m6.93 0a1.16 1.16 0 0 1 1.16 1.15 1.16 1.16 0 1 1-1.16-1.15m6.92 0a1.16 1.16 0 1 1 0 2.31 1.16 1.16 0 0 1 0-2.31M1.16 124.3a1.16 1.16 0 1 1 0 2.32 1.16 1.16 0 0 1 0-2.32m6.92 0a1.16 1.16 0 1 1 0 2.32 1.16 1.16 0 0 1 0-2.32m6.93 0a1.16 1.16 0 1 1 0 2.32 1.16 1.16 0 0 1 0-2.32m6.92 0a1.16 1.16 0 1 1 0 2.32 1.16 1.16 0 0 1 0-2.32m6.93 0a1.16 1.16 0 1 1 0 2.32 1.16 1.16 0 0 1 0-2.32m6.92 0a1.16 1.16 0 1 1 0 2.32 1.16 1.16 0 0 1 0-2.32m6.93 0a1.16 1.16 0 1 1 0 2.32 1.16 1.16 0 0 1 0-2.32m6.92 0a1.16 1.16 0 1 1 0 2.32 1.16 1.16 0 0 1 0-2.32m6.93 0a1.16 1.16 0 1 1-.01 0zm6.92 0a1.16 1.16 0 1 1 0 2.32 1.16 1.16 0 0 1 0-2.32m6.93 0a1.16 1.16 0 1 1 0 2.32 1.16 1.16 0 0 1 0-2.32m6.92 0a1.16 1.16 0 1 1 0 2.32 1.16 1.16 0 0 1 0-2.32m6.93 0a1.16 1.16 0 1 1 0 2.32 1.16 1.16 0 0 1 0-2.32m6.92 0a1.16 1.16 0 1 1 0 2.32 1.16 1.16 0 0 1 0-2.32m6.92 0a1.16 1.16 0 1 1 0 2.32 1.16 1.16 0 0 1 0-2.32m6.93 0a1.16 1.16 0 0 1 .82 1.98 1.16 1.16 0 0 1-1.98-.82 1.16 1.16 0 0 1 1.16-1.16m6.93 0a1.16 1.16 0 1 1 0 2.32 1.16 1.16 0 0 1 0-2.32m6.92 0a1.16 1.16 0 1 1 0 2.32 1.16 1.16 0 0 1 0-2.32m6.93 0a1.16 1.16 0 1 1-.45.09 1 1 0 0 1 .45-.09m6.92 0a1.16 1.16 0 1 1 0 2.32 1.16 1.16 0 0 1 0-2.32m6.93 0a1.16 1.16 0 1 1 0 2.32 1.16 1.16 0 0 1 0-2.32m6.92 0a1.16 1.16 0 1 1 0 2.32 1.16 1.16 0 0 1 0-2.32m6.92 0a1.16 1.16 0 1 1 0 2.32 1.16 1.16 0 0 1 0-2.32m6.93 0a1.16 1.16 0 0 1 1.16 1.16 1.16 1.16 0 1 1-1.16-1.16M4.85 128.1a1.16 1.16 0 1 1 0 2.32 1.16 1.16 0 0 1 0-2.32m6.92 0a1.16 1.16 0 1 1 0 2.32 1.16 1.16 0 0 1 0-2.32m6.93 0a1.16 1.16 0 1 1 0 2.32 1.16 1.16 0 0 1 0-2.32m6.92 0a1.16 1.16 0 1 1 0 2.32 1.16 1.16 0 0 1 0-2.32m6.93 0a1.16 1.16 0 1 1 0 2.32 1.16 1.16 0 0 1 0-2.32m6.92 0a1.16 1.16 0 1 1 0 2.32 1.16 1.16 0 0 1 0-2.32m6.93 0a1.16 1.16 0 1 1 0 2.32 1.16 1.16 0 0 1 0-2.32m6.92 0a1.16 1.16 0 1 1 0 2.32 1.16 1.16 0 0 1 0-2.32m6.92 0a1.16 1.16 0 1 1-.43.09q.21-.1.44-.09zm6.93 0a1.16 1.16 0 1 1 0 2.32 1.16 1.16 0 0 1 0-2.32m6.92 0a1.16 1.16 0 1 1 0 2.32 1.16 1.16 0 0 1 0-2.32m6.93 0a1.16 1.16 0 1 1 0 2.32 1.16 1.16 0 0 1 0-2.32m6.92 0a1.16 1.16 0 1 1 0 2.32 1.16 1.16 0 0 1 0-2.32m6.93 0a1.16 1.16 0 1 1 0 2.32 1.16 1.16 0 0 1 0-2.32m6.92 0a1.16 1.16 0 1 1 0 2.32 1.16 1.16 0 0 1 0-2.32m6.93 0a1.16 1.16 0 1 1 0 2.32 1.16 1.16 0 0 1 0-2.32m6.92 0a1.16 1.16 0 1 1 0 2.32 1.16 1.16 0 0 1 0-2.32m13.85 0a1.16 1.16 0 1 1 0 2.32 1.16 1.16 0 0 1 0-2.32m6.93 0a1.16 1.16 0 1 1 0 2.32 1.16 1.16 0 0 1 0-2.32m6.92 0a1.16 1.16 0 0 1 1.16 1.16 1.16 1.16 0 0 1-1.16 1.16 1.16 1.16 0 1 1 0-2.32m6.93 0a1.16 1.16 0 0 1 1.16 1.16 1.16 1.16 0 0 1-1.16 1.16 1.16 1.16 0 0 1 0-2.32m6.92 0a1.16 1.16 0 1 1 0 2.31 1.16 1.16 0 0 1 0-2.3m6.92 0a1.16 1.16 0 1 1 0 2.3 1.16 1.16 0 0 1 0-2.3M1.16 131.88a1.16 1.16 0 1 1 0 2.31 1.16 1.16 0 0 1 0-2.31m6.92 0a1.16 1.16 0 1 1 0 2.31 1.16 1.16 0 0 1 0-2.31m6.93 0a1.16 1.16 0 1 1 0 2.31 1.16 1.16 0 0 1 0-2.31m6.92 0a1.16 1.16 0 1 1 0 2.31 1.16 1.16 0 0 1 0-2.31m6.93 0a1.16 1.16 0 1 1 0 2.31 1.16 1.16 0 0 1 0-2.31m6.92 0a1.16 1.16 0 1 1 0 2.31 1.16 1.16 0 0 1 0-2.31m6.93 0a1.16 1.16 0 1 1 0 2.31 1.16 1.16 0 0 1 0-2.31m6.92 0a1.16 1.16 0 1 1 0 2.31 1.16 1.16 0 0 1 0-2.31m6.93 0a1.16 1.16 0 1 1-.01 0zm6.92 0a1.16 1.16 0 1 1 0 2.31 1.16 1.16 0 0 1 0-2.31m6.93 0a1.16 1.16 0 1 1 0 2.31 1.16 1.16 0 0 1 0-2.31m6.92 0a1.16 1.16 0 1 1 0 2.31 1.16 1.16 0 0 1 0-2.31m6.93 0a1.16 1.16 0 1 1 0 2.31 1.16 1.16 0 0 1 0-2.31m6.92 0a1.16 1.16 0 1 1 0 2.31 1.16 1.16 0 0 1 0-2.31m6.92 0a1.16 1.16 0 1 1 0 2.31 1.16 1.16 0 0 1 0-2.31m6.93 0a1.16 1.16 0 0 1 .82 1.97 1.16 1.16 0 0 1-1.98-.82 1.16 1.16 0 0 1 1.16-1.15m6.93 0a1.16 1.16 0 1 1 0 2.31 1.16 1.16 0 0 1 0-2.31m6.92 0a1.16 1.16 0 1 1 0 2.31 1.16 1.16 0 0 1 0-2.31m6.93 0a1.16 1.16 0 1 1-.45.08 1 1 0 0 1 .45-.08m6.92 0a1.16 1.16 0 1 1 0 2.31 1.16 1.16 0 0 1 0-2.31m6.93 0a1.16 1.16 0 1 1 0 2.31 1.16 1.16 0 0 1 0-2.31m6.92 0a1.16 1.16 0 1 1 0 2.31 1.16 1.16 0 0 1 0-2.31m6.92 0a1.16 1.16 0 1 1 0 2.31 1.16 1.16 0 0 1 0-2.31m6.93 0a1.16 1.16 0 0 1 1.16 1.15 1.16 1.16 0 0 1-1.16 1.16 1.16 1.16 0 0 1 0-2.31"/></g><path fill="#A1E3D6" d="M154.3 79.02h-44.1v55.7h44.1z"/><path fill="#000" d="M154.3 85.1h-44.1l-.39-.37v-5.71l.4-.37h44.1l.37.37v5.73zm-43.72-.74h43.36V79.4h-43.36z"/><path fill="#fff" d="M149.5 92.47H115v7.37h34.5zm0 13.44H115v7.38h34.5zm0 13.45H115v7.38h34.5z"/><path fill="#13BF89" d="M115.54 52.56H38.67v82.16h76.87z"/><path fill="#BEE9E8" d="M115.54 52.56H38.67v8.08h76.87z"/><path fill="#fff" d="M45.59 58.5a1.9 1.9 0 1 0 0-3.79 1.9 1.9 0 0 0 0 3.79m6.18 0a1.9 1.9 0 1 0 0-3.79 1.9 1.9 0 0 0 0 3.79m6.16 0a1.9 1.9 0 1 0 0-3.79 1.9 1.9 0 0 0 0 3.79m18.38 52.33a7 7 0 0 1-3.93-1.07 8.4 8.4 0 0 1-3.41-5.3 34 34 0 0 1-2.3 2.02c-1.48 1.2-6.6 4.83-10.74 2.34q-3.12-1.8-3.83-7.57a38.4 38.4 0 0 1 2.12-18.21l.7.26a37.6 37.6 0 0 0-2.07 17.86c.46 3.62 1.6 5.9 3.47 7.02.94.56 4.44 2.07 9.87-2.29a34 34 0 0 0 2.6-2.32 19 19 0 0 1-.28-3.45 37 37 0 0 1 5.07-18.6c.8-1.4 2.15-2.98 3.87-2.63 1.95.4 2.48 2.85 2.14 5.1a36 36 0 0 1-9.97 19.84 8 8 0 0 0 3.18 5.3 7.6 7.6 0 0 0 6.65.37 19 19 0 0 0 5.81-3.98 60 60 0 0 0 9.27-11.02 33 33 0 0 1 2.94-15.7 4.8 4.8 0 0 1 2.45-2.5 1.8 1.8 0 0 1 1.5.17c1.03.62 1.21 2 .67 3.9a61 61 0 0 1-6.82 14.39 32 32 0 0 0 5 15.34l-.63.41a33 33 0 0 1-5.05-14.76 60 60 0 0 1-8.85 10.35 19 19 0 0 1-6.03 4.12 10 10 0 0 1-3.4.6m.68-31.22c-1.2 0-2.24 1.41-2.76 2.3a36.4 36.4 0 0 0-4.97 18.23q0 1.4.18 2.78a35.3 35.3 0 0 0 9.4-19.04c.22-1.41.13-3.9-1.53-4.23zm23.5-2.7a1 1 0 0 0-.36 0 4 4 0 0 0-2 2.13 32 32 0 0 0-2.92 14.3 60 60 0 0 0 6.16-13.27c.22-.71.65-2.42-.33-3.02a1 1 0 0 0-.56-.13"/><path fill="#CCED9F" d="M13.3 45.09a32 32 0 0 0 4.83 12.33 14 14 0 0 0 3.13 3.36l2.56-3.27-1.07 4.26a11 11 0 0 0 7.41 1.46 16.52 16.52 0 0 0-16.9-18.1z"/><path fill="#06A787" d="m20.61 36.99 4.29.95-4.1.82.21 1.21a18 18 0 0 0 4 8.38 12.5 12.5 0 0 0 8.8 4A18.9 18.9 0 0 0 20.45 30c.04 2.16 0 4.65.17 6.99Z"/><path fill="#000" d="M39.28 91.59C34.94 69.4 28.24 60.2 21.64 53.55l.53-.53c10.55 10.61 14.69 23.32 17.3 35.7.64-13.77-3.44-34.37-12-47.59l.63-.4C37.33 55 41.37 77.77 40.02 91.53z"/><path fill="#6987F3" d="M38.8 134.72c15.07 0 27.3-10.67 27.3-23.83S53.87 87.06 38.8 87.06c-15.09 0-27.31 10.67-27.31 23.83s12.22 23.83 27.3 23.83"/><path fill="#6987F3" d="M33 92.38h11.56v-10.4H33z"/><path fill="#90D470" d="m116.03 65.21 25.64 69.5 12.64-4.66-25.64-69.5-10.8-9.82z"/><path fill="#000" d="m152.55 125.22-12.64 4.66.27.72 12.63-4.67z"/><path fill="#fff" d="m116.03 65.21 12.64-4.66-6.92-6.29-3.88-3.53-.67 5.21z"/><path fill="#000" d="m117.2 55.94 4.55-1.68-3.88-3.53z"/><path fill="#D4F5BD" d="M143.48 65.58a7.22 7.22 0 1 0 0-14.43 7.22 7.22 0 0 0 0 14.43"/><path fill="#000" d="M21.67 98.29a5.69 5.69 0 1 1 5.7-5.7 5.7 5.7 0 0 1-5.7 5.7m0-10.62a4.94 4.94 0 1 0-.02 9.88 4.94 4.94 0 0 0 .02-9.88"/><path fill="#fff" d="M59.44 134.72c0-7.25 3.8-10.22 6.72-10.74a7.9 7.9 0 0 1 7.88 3.91c2.79-5.66 6.54-10.96 11.53-13.12a10.5 10.5 0 0 1 8.1-.1 10.5 10.5 0 0 1 5.75 5.72c1.83 4.3 1.3 9.5.72 14.33"/><path fill="#000" d="m80.49 134.92-.56-.5c.25-.29 6.25-6.7 10.68-5.45q2.55.72 3.62 4.46a28 28 0 0 1 2.88-5.34c2.97-4.26 6.6-6.35 10.51-6.04v.75c-8.84-.69-13.01 11.9-13.05 12.07h-.73q-.88-4.39-3.37-5.1c-4.07-1.2-9.98 5.09-9.98 5.15M48.17 43.58l-.5-.3-1.38-8.81.5-.43 14 4.94v.73zm-1.04-8.6 1.2 7.74 11.11-3.4z"/><path fill="#6987F3" d="m106.06 53.97-4.65-2.05 3.63-3.62-5.55-8.6-4.73 1.84v-5.07l-10-2.16-2.04 4.63-3.56-3.62-8.6 5.56 1.83 4.73h-5.08l-2.15 10 4.64 2.04-3.62 3.57 5.55 8.59 4.73-1.83v5.08l10.06 2.16 2.05-4.64 3.55 3.62 8.6-5.55-1.83-4.73h5.07zm-17.44 5.44a5.5 5.5 0 1 1 1.64-7.62 5.5 5.5 0 0 1-1.64 7.62"/></svg>