<svg xmlns="http://www.w3.org/2000/svg" width="165" height="165" fill="none"><g clip-path="url(#a)"><mask id="b" width="147" height="108" x="2" y="36" maskUnits="userSpaceOnUse" style="mask-type:luminance"><path fill="#fff" d="M4.4 73c4.63-14.74 12.54-25.56 26.38-32.42 8.38-4.15 22.14-5.72 30.45-1.46 14 7.16 21.21 18.65 33.89 26.32 10.05 6.1 24.7 2.55 35.33 7.55 13.28 6.26 19.92 24.59 18.3 39.2a36.5 36.5 0 0 1-27.68 30.73c-19.54 4.3-32-11.96-50.08-16.83-13.8-3.72-37.32 8.19-55.67-7.75C4.65 109.02.54 85.39 4.4 72.99"/></mask><g fill="#A9DBFF" mask="url(#b)"><path d="M-11.5 37.7a1.18 1.18 0 1 1 0 2.35 1.18 1.18 0 0 1 0-2.35m7.04 0a1.18 1.18 0 1 1 0 2.35 1.18 1.18 0 0 1 0-2.35m7.04 0a1.18 1.18 0 1 1 0 2.35 1.18 1.18 0 0 1 0-2.35m7.04 0a1.18 1.18 0 1 1 0 2.35 1.18 1.18 0 0 1 0-2.35m7.04 0a1.18 1.18 0 1 1 0 2.35 1.18 1.18 0 0 1 0-2.35m7.03 0a1.18 1.18 0 1 1 0 2.35 1.18 1.18 0 0 1 0-2.35m7.04 0a1.18 1.18 0 1 1 0 2.35 1.18 1.18 0 0 1 0-2.35m7.04 0a1.18 1.18 0 1 1 0 2.35 1.18 1.18 0 0 1 0-2.35m14.08 0a1.18 1.18 0 1 1 0 2.35 1.18 1.18 0 0 1 0-2.35m7.04 0a1.18 1.18 0 1 1 0 2.35 1.18 1.18 0 0 1 0-2.35m7.04 0a1.18 1.18 0 1 1 0 2.35 1.18 1.18 0 0 1 0-2.35m7.04 0a1.18 1.18 0 1 1 0 2.35 1.18 1.18 0 0 1 0-2.35m7.04 0a1.18 1.18 0 1 1 0 2.35 1.18 1.18 0 0 1 0-2.35m7.04 0a1.18 1.18 0 1 1 0 2.35 1.18 1.18 0 0 1 0-2.35m7.04 0a1.18 1.18 0 1 1 0 2.35 1.18 1.18 0 0 1 0-2.35m7.04 0a1.2 1.2 0 0 1 1.17 1.18 1.2 1.2 0 0 1-1.17 1.17 1.2 1.2 0 0 1-1.18-1.17 1.2 1.2 0 0 1 1.18-1.18m7.04 0a1.18 1.18 0 1 1 0 2.35 1.18 1.18 0 0 1 0-2.35m7.03 0a1.2 1.2 0 0 1 1.18 1.18 1.2 1.2 0 0 1-1.18 1.17 1.18 1.18 0 0 1-1.08-1.62 1.2 1.2 0 0 1 1.09-.73zm7.04 0a1.2 1.2 0 0 1 1.18 1.18 1.18 1.18 0 1 1-2.35 0 1.2 1.2 0 0 1 .72-1.1q.22-.08.45-.08m7.04 0a1.18 1.18 0 0 1 .84 2 1.2 1.2 0 0 1-1.67 0 1.2 1.2 0 0 1 0-1.66 1.2 1.2 0 0 1 .83-.34m7.04 0a1.2 1.2 0 0 1 1.18 1.18 1.2 1.2 0 0 1-1.18 1.17 1.2 1.2 0 0 1-1.17-1.17 1.2 1.2 0 0 1 .72-1.1q.22-.08.45-.08m7.04 0a1.18 1.18 0 1 1 0 2.35 1.18 1.18 0 0 1 0-2.35M-7.75 41.56a1.18 1.18 0 1 1 0 2.36 1.18 1.18 0 0 1 0-2.36m7.04 0a1.18 1.18 0 1 1 0 2.36 1.18 1.18 0 0 1 0-2.36m7.04 0a1.18 1.18 0 1 1 0 2.36 1.18 1.18 0 0 1 0-2.36m7.03 0a1.18 1.18 0 1 1 0 2.36 1.18 1.18 0 0 1 0-2.36m7.04 0a1.18 1.18 0 1 1 0 2.36 1.18 1.18 0 0 1 0-2.36m7.04 0a1.18 1.18 0 1 1 0 2.36 1.18 1.18 0 0 1 0-2.36m7.04 0a1.18 1.18 0 1 1 0 2.36 1.18 1.18 0 0 1 0-2.36m7.04 0a1.18 1.18 0 1 1 0 2.36 1.18 1.18 0 0 1 0-2.36m7.04 0a1.18 1.18 0 1 1-.44.09q.22-.1.45-.09zm7.04 0a1.18 1.18 0 1 1 0 2.36 1.18 1.18 0 0 1 0-2.36m7.04 0a1.18 1.18 0 1 1 0 2.36 1.18 1.18 0 0 1 0-2.36m7.04 0a1.18 1.18 0 1 1 0 2.36 1.18 1.18 0 0 1 0-2.36m7.04 0a1.18 1.18 0 1 1 0 2.36 1.18 1.18 0 0 1 0-2.36m7.04 0a1.18 1.18 0 1 1 0 2.36 1.18 1.18 0 0 1 0-2.36m7.04 0a1.18 1.18 0 1 1 0 2.36 1.18 1.18 0 0 1 0-2.36m7.04 0a1.18 1.18 0 1 1 0 2.36 1.18 1.18 0 0 1 0-2.36m7.04 0a1.18 1.18 0 1 1 0 2.35 1.18 1.18 0 0 1 0-2.35m7.03 0a1.2 1.2 0 0 1 1.18 1.18 1.2 1.2 0 0 1-1.18 1.17 1.2 1.2 0 0 1-1.17-1.17 1.17 1.17 0 0 1 1.17-1.18m7.04 0a1.18 1.18 0 1 1 0 2.35 1.18 1.18 0 0 1 0-2.35m7.04 0a1.18 1.18 0 0 1 .83 2.01 1.2 1.2 0 0 1-1.66 0 1.2 1.2 0 0 1 0-1.66 1.2 1.2 0 0 1 .83-.35m7.04 0a1.2 1.2 0 0 1 1.18 1.18 1.2 1.2 0 0 1-1.18 1.17 1.2 1.2 0 0 1-1.18-1.17 1.2 1.2 0 0 1 .35-.84 1.2 1.2 0 0 1 .83-.34m7.04 0a1.18 1.18 0 1 1 0 2.35 1.18 1.18 0 0 1 0-2.35M-11.5 45.39a1.18 1.18 0 1 1 0 2.36 1.18 1.18 0 0 1 0-2.36m7.04 0a1.18 1.18 0 1 1 0 2.36 1.18 1.18 0 0 1 0-2.36m7.04 0a1.18 1.18 0 1 1 0 2.36 1.18 1.18 0 0 1 0-2.36m7.04 0a1.18 1.18 0 1 1 0 2.36 1.18 1.18 0 0 1 0-2.36m7.04 0a1.18 1.18 0 1 1 0 2.36 1.18 1.18 0 0 1 0-2.36m7.03 0a1.18 1.18 0 1 1 0 2.36 1.18 1.18 0 0 1 0-2.36m7.04 0a1.18 1.18 0 1 1 0 2.36 1.18 1.18 0 0 1 0-2.36m7.04 0a1.18 1.18 0 1 1 0 2.36 1.18 1.18 0 0 1 0-2.36m7.03 0a1.18 1.18 0 1 1 0 2.36 1.18 1.18 0 0 1 0-2.36m7.04 0a1.18 1.18 0 1 1-.44.09q.22-.1.45-.09zm7.04 0a1.18 1.18 0 1 1-.44.09q.22-.1.45-.09zm7.04 0a1.18 1.18 0 1 1-.44.09q.22-.1.45-.09zm7.04 0a1.18 1.18 0 1 1-.44.09q.21-.1.45-.09zm7.04 0a1.18 1.18 0 1 1-.44.09q.22-.1.45-.09zm7.04 0a1.18 1.18 0 1 1-.45.09q.22-.1.46-.09zm7.04 0a1.18 1.18 0 1 1-.45.09q.22-.1.46-.09zm7.04 0a1.2 1.2 0 0 1 1.17 1.18 1.2 1.2 0 0 1-.72 1.09 1.18 1.18 0 1 1-.44-2.27zm7.04 0a1.18 1.18 0 1 1-.45.09q.22-.1.46-.09zm7.05 0a1.2 1.2 0 0 1 1.18 1.18 1.2 1.2 0 0 1-.35.83 1.2 1.2 0 0 1-.83.35 1.18 1.18 0 1 1 0-2.36m7.04 0a1.18 1.18 0 0 1 1.08 1.63 1.2 1.2 0 0 1-1.08.72 1.2 1.2 0 0 1-.84-.34 1.2 1.2 0 0 1-.34-.83 1.2 1.2 0 0 1 1.17-1.18zm14.08 0a1.18 1.18 0 0 1 1.08 1.63 1.18 1.18 0 0 1-1.92.38 1.2 1.2 0 0 1 0-1.66q.35-.34.83-.35zM-7.75 49.26a1.18 1.18 0 1 1 0 2.35 1.18 1.18 0 0 1 0-2.35m7.04 0a1.18 1.18 0 1 1 0 2.35 1.18 1.18 0 0 1 0-2.35m7.04 0a1.18 1.18 0 1 1 0 2.35 1.18 1.18 0 0 1 0-2.35m7.03 0a1.18 1.18 0 1 1 0 2.35 1.18 1.18 0 0 1 0-2.35m7.04 0a1.18 1.18 0 1 1 0 2.35 1.18 1.18 0 0 1 0-2.35m7.04 0a1.18 1.18 0 1 1 0 2.35 1.18 1.18 0 0 1 0-2.35m7.04 0a1.18 1.18 0 1 1 0 2.35 1.18 1.18 0 0 1 0-2.35m7.04 0a1.18 1.18 0 1 1 0 2.35 1.18 1.18 0 0 1 0-2.35m7.04 0a1.18 1.18 0 1 1-.44.09 1 1 0 0 1 .45-.1zm7.04 0a1.18 1.18 0 1 1 0 2.35 1.18 1.18 0 0 1 0-2.35m7.04 0a1.18 1.18 0 1 1 0 2.35 1.18 1.18 0 0 1 0-2.35m7.04 0a1.18 1.18 0 1 1 0 2.35 1.18 1.18 0 0 1 0-2.35m7.04 0a1.18 1.18 0 1 1 0 2.35 1.18 1.18 0 0 1 0-2.35m7.04 0a1.18 1.18 0 1 1 0 2.35 1.18 1.18 0 0 1 0-2.35m7.04 0a1.18 1.18 0 1 1 0 2.35 1.18 1.18 0 0 1 0-2.35m7.04 0a1.18 1.18 0 1 1 0 2.35 1.18 1.18 0 0 1 0-2.35m7.04 0a1.18 1.18 0 1 1 0 2.35 1.18 1.18 0 0 1 0-2.35m7.03 0a1.2 1.2 0 0 1 1.18 1.18 1.18 1.18 0 0 1-2 .83 1.18 1.18 0 0 1 .82-2.01m7.04 0a1.18 1.18 0 1 1 0 2.35 1.18 1.18 0 0 1 0-2.35m7.04 0a1.18 1.18 0 1 1 0 2.35 1.18 1.18 0 0 1 0-2.35m7.04 0a1.2 1.2 0 0 1 1.18 1.18 1.18 1.18 0 1 1-1.18-1.18m7.04 0a1.18 1.18 0 1 1 0 2.35 1.18 1.18 0 0 1 0-2.35m7.04 0a1.18 1.18 0 1 1 0 2.35 1.18 1.18 0 0 1 0-2.35M-11.5 53.1a1.18 1.18 0 1 1 0 2.35 1.18 1.18 0 0 1 0-2.35m7.04 0a1.18 1.18 0 1 1 0 2.35 1.18 1.18 0 0 1 0-2.35m7.04 0a1.18 1.18 0 1 1 0 2.35 1.18 1.18 0 0 1 0-2.35m7.04 0a1.18 1.18 0 1 1 0 2.35 1.18 1.18 0 0 1 0-2.35m7.04 0a1.18 1.18 0 1 1 0 2.35 1.18 1.18 0 0 1 0-2.35m7.03 0a1.18 1.18 0 1 1 0 2.35 1.18 1.18 0 0 1 0-2.35m7.04 0a1.18 1.18 0 1 1 0 2.35 1.18 1.18 0 0 1 0-2.35m7.04 0a1.18 1.18 0 1 1 0 2.35 1.18 1.18 0 0 1 0-2.35m14.08 0a1.18 1.18 0 1 1 0 2.35 1.18 1.18 0 0 1 0-2.35m7.04 0a1.18 1.18 0 1 1 0 2.35 1.18 1.18 0 0 1 0-2.35m7.04 0a1.18 1.18 0 1 1 0 2.35 1.18 1.18 0 0 1 0-2.35m7.04 0a1.18 1.18 0 1 1 0 2.35 1.18 1.18 0 0 1 0-2.35m7.04 0a1.18 1.18 0 1 1 0 2.35 1.18 1.18 0 0 1 0-2.35m7.04 0a1.18 1.18 0 1 1 0 2.35 1.18 1.18 0 0 1 0-2.35m7.04 0a1.18 1.18 0 1 1 0 2.35 1.18 1.18 0 0 1 0-2.35m7.04 0a1.2 1.2 0 0 1 1.17 1.17 1.2 1.2 0 0 1-1.17 1.18 1.2 1.2 0 0 1-1.18-1.18 1.2 1.2 0 0 1 1.18-1.17m7.04 0a1.18 1.18 0 1 1 0 2.35 1.18 1.18 0 0 1 0-2.35m7.04 0a1.2 1.2 0 0 1 1.17 1.17 1.18 1.18 0 1 1-1.17-1.17m7.03 0a1.2 1.2 0 0 1 1.18 1.17 1.2 1.2 0 0 1-1.18 1.18 1.18 1.18 0 0 1-.83-2 1.2 1.2 0 0 1 .83-.35m7.04 0a1.18 1.18 0 1 1 0 2.35 1.18 1.18 0 0 1 0-2.35m7.04 0a1.2 1.2 0 0 1 1.18 1.17 1.18 1.18 0 1 1-1.18-1.17m7.04 0a1.18 1.18 0 1 1 0 2.35 1.18 1.18 0 0 1 0-2.35m7.04 0a1.18 1.18 0 1 1 0 2.35 1.18 1.18 0 0 1 0-2.35M-7.75 56.96a1.18 1.18 0 1 1 0 2.35 1.18 1.18 0 0 1 0-2.35m7.03 0a1.18 1.18 0 1 1 0 2.35 1.18 1.18 0 0 1 0-2.35m7.05 0a1.18 1.18 0 1 1 0 2.35 1.18 1.18 0 0 1 0-2.35m7.03 0a1.18 1.18 0 1 1 0 2.35 1.18 1.18 0 0 1 0-2.35m7.04 0a1.18 1.18 0 1 1 0 2.35 1.18 1.18 0 0 1 0-2.35m7.04 0a1.18 1.18 0 1 1 0 2.35 1.18 1.18 0 0 1 0-2.35m7.04 0a1.18 1.18 0 1 1 0 2.35 1.18 1.18 0 0 1 0-2.35m7.04 0a1.18 1.18 0 1 1 0 2.35 1.18 1.18 0 0 1 0-2.35m7.04 0a1.18 1.18 0 1 1-.44.08q.22-.08.45-.08zm7.04 0a1.18 1.18 0 1 1 0 2.35 1.18 1.18 0 0 1 0-2.35m7.04 0a1.18 1.18 0 1 1 0 2.35 1.18 1.18 0 0 1 0-2.35m7.04 0a1.18 1.18 0 1 1 0 2.35 1.18 1.18 0 0 1 0-2.35m7.04 0a1.18 1.18 0 1 1 0 2.35 1.18 1.18 0 0 1 0-2.35m7.04 0a1.18 1.18 0 1 1 0 2.35 1.18 1.18 0 0 1 0-2.35m7.04 0a1.18 1.18 0 1 1 0 2.35 1.18 1.18 0 0 1 0-2.35m7.03 0a1.18 1.18 0 1 1 0 2.35 1.18 1.18 0 0 1 0-2.35m7.05 0a1.18 1.18 0 1 1 0 2.35 1.18 1.18 0 0 1 0-2.35m7.03 0a1.18 1.18 0 0 1 .84 2 1.2 1.2 0 0 1-1.67 0 1.18 1.18 0 0 1 .83-2m7.04 0a1.18 1.18 0 1 1 0 2.35 1.18 1.18 0 0 1 0-2.35m7.04 0a1.18 1.18 0 1 1 0 2.35 1.18 1.18 0 0 1 0-2.35m7.04 0a1.18 1.18 0 0 1 .83 2 1.18 1.18 0 0 1-2-.83 1.2 1.2 0 0 1 .72-1.08q.22-.1.45-.1Zm7.04 0a1.18 1.18 0 1 1 0 2.35 1.18 1.18 0 0 1 0-2.35m7.04 0a1.18 1.18 0 1 1 0 2.35 1.18 1.18 0 0 1 0-2.35M-11.5 60.79a1.18 1.18 0 1 1 0 2.36 1.18 1.18 0 0 1 0-2.35m7.04 0a1.18 1.18 0 1 1 0 2.35 1.18 1.18 0 0 1 0-2.35m7.04 0a1.18 1.18 0 1 1 0 2.35 1.18 1.18 0 0 1 0-2.35m7.04 0a1.18 1.18 0 1 1 0 2.35 1.18 1.18 0 0 1 0-2.35m7.03 0a1.18 1.18 0 1 1 0 2.35 1.18 1.18 0 0 1 0-2.35m7.04 0a1.18 1.18 0 1 1 0 2.35 1.18 1.18 0 0 1 0-2.35m7.04 0a1.18 1.18 0 1 1 0 2.35 1.18 1.18 0 0 1 0-2.35m7.04 0a1.18 1.18 0 1 1 0 2.35 1.18 1.18 0 0 1 0-2.35m14.08 0a1.18 1.18 0 1 1 0 2.35 1.18 1.18 0 0 1 0-2.35m7.04 0a1.18 1.18 0 1 1 0 2.35 1.18 1.18 0 0 1 0-2.35m7.04 0a1.18 1.18 0 1 1 0 2.35 1.18 1.18 0 0 1 0-2.35m7.04 0a1.18 1.18 0 1 1 0 2.35 1.18 1.18 0 0 1 0-2.35m7.04 0a1.18 1.18 0 1 1 0 2.35 1.18 1.18 0 0 1 0-2.35m7.04 0a1.18 1.18 0 1 1 0 2.35 1.18 1.18 0 0 1 0-2.35m7.04 0a1.18 1.18 0 1 1 0 2.35 1.18 1.18 0 0 1 0-2.35m7.04 0a1.2 1.2 0 0 1 1.17 1.17 1.2 1.2 0 0 1-1.17 1.18 1.2 1.2 0 0 1-1.18-1.18 1.2 1.2 0 0 1 1.18-1.17m7.04 0a1.18 1.18 0 1 1 0 2.35 1.18 1.18 0 0 1 0-2.35m7.03 0a1.2 1.2 0 0 1 1.18 1.17 1.2 1.2 0 0 1-1.18 1.18 1.18 1.18 0 0 1-1.08-1.63 1.2 1.2 0 0 1 1.09-.73zm7.04 0a1.2 1.2 0 0 1 1.18 1.17 1.18 1.18 0 1 1-2.35 0 1.2 1.2 0 0 1 .72-1.08q.23-.1.45-.1m7.04 0a1.2 1.2 0 0 1 1.18 1.18 1.18 1.18 0 1 1-1.18-1.18m7.04 0a1.2 1.2 0 0 1 1.18 1.18 1.2 1.2 0 0 1-1.18 1.18 1.2 1.2 0 0 1-1.18-1.18 1.2 1.2 0 0 1 .73-1.09q.22-.09.45-.09m7.04 0a1.18 1.18 0 1 1 0 2.36 1.18 1.18 0 0 1 0-2.36M-7.75 64.66a1.18 1.18 0 1 1 0 2.35 1.18 1.18 0 0 1 0-2.35m7.03 0a1.18 1.18 0 1 1 0 2.35 1.18 1.18 0 0 1 0-2.35m7.05 0a1.18 1.18 0 1 1 0 2.35 1.18 1.18 0 0 1 0-2.35m7.03 0a1.18 1.18 0 1 1 0 2.35 1.18 1.18 0 0 1 0-2.35m7.04 0a1.18 1.18 0 1 1 0 2.35 1.18 1.18 0 0 1 0-2.35m7.04 0a1.18 1.18 0 1 1 0 2.35 1.18 1.18 0 0 1 0-2.35m7.04 0a1.18 1.18 0 1 1 0 2.35 1.18 1.18 0 0 1 0-2.35m7.04 0a1.18 1.18 0 1 1 0 2.35 1.18 1.18 0 0 1 0-2.35m7.04 0a1.18 1.18 0 1 1-.44.08q.22-.08.45-.08zm7.04 0a1.18 1.18 0 1 1 0 2.35 1.18 1.18 0 0 1 0-2.35m7.04 0a1.18 1.18 0 1 1 0 2.35 1.18 1.18 0 0 1 0-2.35m7.04 0a1.18 1.18 0 1 1 0 2.35 1.18 1.18 0 0 1 0-2.35m7.04 0a1.18 1.18 0 1 1 0 2.35 1.18 1.18 0 0 1 0-2.35m7.04 0a1.18 1.18 0 1 1 0 2.35 1.18 1.18 0 0 1 0-2.35m7.04 0a1.18 1.18 0 1 1 0 2.35 1.18 1.18 0 0 1 0-2.35m7.03 0a1.18 1.18 0 1 1 0 2.35 1.18 1.18 0 0 1 0-2.35m7.05 0a1.18 1.18 0 1 1 0 2.35 1.18 1.18 0 0 1 0-2.35m7.03 0a1.18 1.18 0 0 1 .84 2 1.2 1.2 0 0 1-1.67 0 1.18 1.18 0 0 1 .83-2m7.04 0a1.18 1.18 0 1 1 0 2.35 1.18 1.18 0 0 1 0-2.35m7.04 0a1.18 1.18 0 1 1 0 2.35 1.18 1.18 0 0 1 0-2.35m7.04 0a1.18 1.18 0 0 1 .83 2 1.18 1.18 0 0 1-2-.83 1.2 1.2 0 0 1 .72-1.08q.22-.1.45-.1m7.04 0a1.18 1.18 0 1 1 0 2.36 1.18 1.18 0 0 1 0-2.35m7.04 0a1.18 1.18 0 1 1 0 2.35 1.18 1.18 0 0 1 0-2.35M-11.5 68.49a1.18 1.18 0 1 1 0 2.36 1.18 1.18 0 0 1 0-2.36m7.04 0a1.18 1.18 0 1 1 0 2.36 1.18 1.18 0 0 1 0-2.36m7.04 0a1.18 1.18 0 1 1 0 2.36 1.18 1.18 0 0 1 0-2.36m7.04 0a1.18 1.18 0 1 1 0 2.36 1.18 1.18 0 0 1 0-2.36m7.03 0a1.18 1.18 0 1 1 0 2.36 1.18 1.18 0 0 1 0-2.36m7.04 0a1.18 1.18 0 1 1 0 2.36 1.18 1.18 0 0 1 0-2.36m7.04 0a1.18 1.18 0 1 1 0 2.36 1.18 1.18 0 0 1 0-2.36m7.04 0a1.18 1.18 0 1 1 0 2.36 1.18 1.18 0 0 1 0-2.36m14.08 0a1.18 1.18 0 1 1 0 2.36 1.18 1.18 0 0 1 0-2.36m7.04 0a1.18 1.18 0 1 1 0 2.36 1.18 1.18 0 0 1 0-2.36m7.04 0a1.18 1.18 0 1 1 0 2.36 1.18 1.18 0 0 1 0-2.36m7.04 0a1.18 1.18 0 1 1 0 2.36 1.18 1.18 0 0 1 0-2.36m7.04 0a1.18 1.18 0 1 1 0 2.36 1.18 1.18 0 0 1 0-2.36m7.04 0a1.18 1.18 0 1 1 0 2.36 1.18 1.18 0 0 1 0-2.36m7.04 0a1.18 1.18 0 1 1 0 2.36 1.18 1.18 0 0 1 0-2.36m7.04 0a1.2 1.2 0 0 1 1.17 1.18 1.2 1.2 0 0 1-1.17 1.18 1.18 1.18 0 0 1-.84-2.01q.34-.34.84-.35m7.04 0a1.18 1.18 0 1 1 0 2.36 1.18 1.18 0 0 1 0-2.36m7.03 0a1.2 1.2 0 0 1 1.18 1.18 1.2 1.2 0 0 1-1.18 1.18 1.18 1.18 0 0 1-1.08-1.63 1.2 1.2 0 0 1 1.09-.73zm7.04 0a1.2 1.2 0 0 1 1.18 1.18 1.18 1.18 0 1 1-2.35 0 1.2 1.2 0 0 1 .72-1.09q.23-.09.45-.09m7.04 0a1.2 1.2 0 0 1 1.18 1.18 1.18 1.18 0 1 1-1.18-1.18m7.04 0a1.2 1.2 0 0 1 1.18 1.18 1.2 1.2 0 0 1-1.18 1.18 1.18 1.18 0 0 1-.83-2.01 1.2 1.2 0 0 1 .83-.35m7.04 0a1.18 1.18 0 1 1 0 2.36 1.18 1.18 0 0 1 0-2.36M-7.75 72.36a1.18 1.18 0 1 1 0 2.35 1.18 1.18 0 0 1 0-2.35m7.04 0a1.18 1.18 0 1 1 0 2.35 1.18 1.18 0 0 1 0-2.35m7.04 0a1.18 1.18 0 1 1 0 2.35 1.18 1.18 0 0 1 0-2.35m7.03 0a1.18 1.18 0 1 1 0 2.35 1.18 1.18 0 0 1 0-2.35m7.04 0a1.18 1.18 0 1 1 0 2.35 1.18 1.18 0 0 1 0-2.35m7.04 0a1.18 1.18 0 1 1 0 2.35 1.18 1.18 0 0 1 0-2.35m7.04 0a1.18 1.18 0 1 1 0 2.35 1.18 1.18 0 0 1 0-2.35m7.04 0a1.18 1.18 0 1 1 0 2.35 1.18 1.18 0 0 1 0-2.35m7.04 0a1.18 1.18 0 1 1-.44.08q.22-.1.45-.08zm7.04 0a1.18 1.18 0 1 1 0 2.35 1.18 1.18 0 0 1 0-2.35m7.04 0a1.18 1.18 0 1 1 0 2.35 1.18 1.18 0 0 1 0-2.35m7.04 0a1.18 1.18 0 1 1 0 2.35 1.18 1.18 0 0 1 0-2.35m7.04 0a1.18 1.18 0 1 1 0 2.35 1.18 1.18 0 0 1 0-2.35m7.04 0a1.18 1.18 0 1 1 0 2.35 1.18 1.18 0 0 1 0-2.35m7.04 0a1.18 1.18 0 1 1 0 2.35 1.18 1.18 0 0 1 0-2.35m7.04 0a1.18 1.18 0 1 1 0 2.35 1.18 1.18 0 0 1 0-2.35m7.04 0a1.18 1.18 0 1 1 0 2.35 1.18 1.18 0 0 1 0-2.35m7.03 0a1.2 1.2 0 0 1 1.18 1.17 1.2 1.2 0 0 1-1.18 1.18 1.2 1.2 0 0 1-1.17-1.18 1.17 1.17 0 0 1 1.17-1.17m7.04 0a1.18 1.18 0 1 1 0 2.35 1.18 1.18 0 0 1 0-2.35m7.04 0a1.2 1.2 0 0 1 1.18 1.17 1.18 1.18 0 0 1-2.01.83 1.2 1.2 0 0 1 0-1.66 1.2 1.2 0 0 1 .83-.34m7.04 0a1.2 1.2 0 0 1 1.18 1.17 1.2 1.2 0 0 1-1.18 1.18 1.2 1.2 0 0 1-1.18-1.18 1.2 1.2 0 0 1 .73-1.09q.22-.08.45-.09m7.04 0a1.18 1.18 0 1 1 0 2.35 1.18 1.18 0 0 1 0-2.35M-11.5 76.19a1.18 1.18 0 1 1 0 2.36 1.18 1.18 0 0 1 0-2.36m7.04 0a1.18 1.18 0 1 1 0 2.36 1.18 1.18 0 0 1 0-2.36m7.04 0a1.18 1.18 0 1 1 0 2.36 1.18 1.18 0 0 1 0-2.36m7.04 0a1.18 1.18 0 1 1 0 2.36 1.18 1.18 0 0 1 0-2.36m7.04 0a1.18 1.18 0 1 1 0 2.36 1.18 1.18 0 0 1 0-2.36m7.03 0a1.18 1.18 0 1 1 0 2.36 1.18 1.18 0 0 1 0-2.36m7.04 0a1.18 1.18 0 1 1 0 2.36 1.18 1.18 0 0 1 0-2.36m7.04 0a1.18 1.18 0 1 1 0 2.36 1.18 1.18 0 0 1 0-2.36m14.08 0a1.18 1.18 0 1 1 0 2.36 1.18 1.18 0 0 1 0-2.36m7.04 0a1.18 1.18 0 1 1 0 2.36 1.18 1.18 0 0 1 0-2.36m7.04 0a1.18 1.18 0 1 1 0 2.36 1.18 1.18 0 0 1 0-2.36m7.04 0a1.18 1.18 0 1 1 0 2.36 1.18 1.18 0 0 1 0-2.36m7.04 0a1.18 1.18 0 1 1 0 2.36 1.18 1.18 0 0 1 0-2.36m7.04 0a1.18 1.18 0 1 1 0 2.36 1.18 1.18 0 0 1 0-2.36m7.04 0a1.18 1.18 0 1 1 0 2.36 1.18 1.18 0 0 1 0-2.36m7.04 0a1.18 1.18 0 1 1 0 2.36 1.18 1.18 0 0 1 0-2.36m7.04 0a1.18 1.18 0 1 1 0 2.36 1.18 1.18 0 0 1 0-2.36m7.04 0a1.18 1.18 0 1 1-.45.1q.22-.1.45-.1m7.03 0a1.2 1.2 0 0 1 1.18 1.18 1.18 1.18 0 1 1-1.18-1.18m7.04 0a1.18 1.18 0 1 1 0 2.36 1.18 1.18 0 0 1 0-2.36m7.04 0a1.18 1.18 0 1 1 0 2.36 1.18 1.18 0 0 1 0-2.36M-7.75 80.06a1.18 1.18 0 1 1 0 2.35 1.18 1.18 0 0 1 0-2.35m7.04 0a1.18 1.18 0 1 1 0 2.35 1.18 1.18 0 0 1 0-2.35m7.04 0a1.18 1.18 0 1 1 0 2.35 1.18 1.18 0 0 1 0-2.35m7.03 0a1.18 1.18 0 1 1 0 2.35 1.18 1.18 0 0 1 0-2.35m7.04 0a1.18 1.18 0 1 1 0 2.35 1.18 1.18 0 0 1 0-2.35m7.04 0a1.18 1.18 0 1 1 0 2.35 1.18 1.18 0 0 1 0-2.35m7.04 0a1.18 1.18 0 1 1 0 2.35 1.18 1.18 0 0 1 0-2.35m7.04 0a1.18 1.18 0 1 1 0 2.35 1.18 1.18 0 0 1 0-2.35m7.04 0a1.18 1.18 0 1 1-.44.08q.22-.08.45-.08zm7.04 0a1.18 1.18 0 1 1 0 2.35 1.18 1.18 0 0 1 0-2.35m7.04 0a1.18 1.18 0 1 1 0 2.35 1.18 1.18 0 0 1 0-2.35m7.04 0a1.18 1.18 0 1 1 0 2.35 1.18 1.18 0 0 1 0-2.35m7.04 0a1.18 1.18 0 1 1 0 2.35 1.18 1.18 0 0 1 0-2.35m7.04 0a1.18 1.18 0 1 1 0 2.35 1.18 1.18 0 0 1 0-2.35m7.04 0a1.18 1.18 0 1 1 0 2.35 1.18 1.18 0 0 1 0-2.35m7.04 0a1.18 1.18 0 1 1 0 2.35 1.18 1.18 0 0 1 0-2.35m7.04 0a1.18 1.18 0 1 1 0 2.35 1.18 1.18 0 0 1 0-2.35m7.03 0a1.2 1.2 0 0 1 1.18 1.17 1.2 1.2 0 0 1-1.18 1.18 1.2 1.2 0 0 1-1.17-1.18 1.17 1.17 0 0 1 1.17-1.17m7.04 0a1.18 1.18 0 1 1 0 2.35 1.18 1.18 0 0 1 0-2.35m7.04 0a1.18 1.18 0 0 1 .83 2 1.2 1.2 0 0 1-1.66 0 1.2 1.2 0 0 1 0-1.66 1.2 1.2 0 0 1 .83-.34m7.04 0a1.2 1.2 0 0 1 1.18 1.17 1.2 1.2 0 0 1-1.18 1.18 1.2 1.2 0 0 1-1.18-1.18 1.2 1.2 0 0 1 .35-.83 1.2 1.2 0 0 1 .83-.34m7.04 0a1.18 1.18 0 1 1 0 2.35 1.18 1.18 0 0 1 0-2.35M-11.5 83.89a1.18 1.18 0 1 1 0 2.36 1.18 1.18 0 0 1 0-2.36m7.04 0a1.18 1.18 0 1 1 0 2.36 1.18 1.18 0 0 1 0-2.36m7.04 0a1.18 1.18 0 1 1 0 2.36 1.18 1.18 0 0 1 0-2.36m7.04 0a1.18 1.18 0 1 1 0 2.36 1.18 1.18 0 0 1 0-2.36m7.04 0a1.18 1.18 0 1 1 0 2.36 1.18 1.18 0 0 1 0-2.36m7.03 0a1.18 1.18 0 1 1 0 2.36 1.18 1.18 0 0 1 0-2.36m7.04 0a1.18 1.18 0 1 1 0 2.36 1.18 1.18 0 0 1 0-2.36m7.04 0a1.18 1.18 0 1 1 0 2.36 1.18 1.18 0 0 1 0-2.36m14.08 0a1.18 1.18 0 1 1 0 2.36 1.18 1.18 0 0 1 0-2.36m7.04 0a1.18 1.18 0 1 1 0 2.36 1.18 1.18 0 0 1 0-2.36m7.04 0a1.18 1.18 0 1 1 0 2.36 1.18 1.18 0 0 1 0-2.36m7.04 0a1.18 1.18 0 1 1 0 2.36 1.18 1.18 0 0 1 0-2.36m7.04 0a1.18 1.18 0 1 1 0 2.36 1.18 1.18 0 0 1 0-2.36m7.04 0a1.18 1.18 0 1 1 0 2.36 1.18 1.18 0 0 1 0-2.36m7.04 0a1.18 1.18 0 1 1 0 2.36 1.18 1.18 0 0 1 0-2.36m7.04 0a1.18 1.18 0 1 1 0 2.36 1.18 1.18 0 0 1 0-2.36m7.04 0a1.18 1.18 0 1 1 0 2.36 1.18 1.18 0 0 1 0-2.36m7.04 0a1.18 1.18 0 1 1-.45.1 1 1 0 0 1 .45-.1m7.03 0a1.18 1.18 0 0 1 .84 2.01 1.2 1.2 0 0 1-1.67 0 1.18 1.18 0 0 1 .83-2m7.04 0a1.18 1.18 0 1 1 0 2.35 1.18 1.18 0 0 1 0-2.36m7.04 0a1.18 1.18 0 1 1 0 2.36 1.18 1.18 0 0 1 0-2.36M-7.75 87.75a1.18 1.18 0 1 1 0 2.36 1.18 1.18 0 0 1 0-2.36m7.04 0a1.18 1.18 0 1 1 0 2.36 1.18 1.18 0 0 1 0-2.36m7.04 0a1.18 1.18 0 1 1 0 2.36 1.18 1.18 0 0 1 0-2.36m7.03 0a1.18 1.18 0 1 1 0 2.36 1.18 1.18 0 0 1 0-2.36m7.04 0a1.18 1.18 0 1 1 0 2.36 1.18 1.18 0 0 1 0-2.35m7.04 0a1.18 1.18 0 1 1 0 2.35 1.18 1.18 0 0 1 0-2.36m7.04 0a1.18 1.18 0 1 1 0 2.36 1.18 1.18 0 0 1 0-2.36m7.04 0a1.18 1.18 0 1 1 0 2.36 1.18 1.18 0 0 1 0-2.36m7.04 0a1.18 1.18 0 1 1-.44.1q.22-.1.45-.1zm7.04 0a1.18 1.18 0 1 1 0 2.36 1.18 1.18 0 0 1 0-2.36m7.04 0a1.18 1.18 0 1 1 0 2.36 1.18 1.18 0 0 1 0-2.36m7.04 0a1.18 1.18 0 1 1 0 2.36 1.18 1.18 0 0 1 0-2.36m7.04 0a1.18 1.18 0 1 1 0 2.36 1.18 1.18 0 0 1 0-2.36m7.04 0a1.18 1.18 0 1 1 0 2.36 1.18 1.18 0 0 1 0-2.36m7.04 0a1.18 1.18 0 1 1 0 2.36 1.18 1.18 0 0 1 0-2.36m7.04 0a1.18 1.18 0 1 1 0 2.36 1.18 1.18 0 0 1 0-2.35m7.04 0a1.18 1.18 0 1 1 0 2.35 1.18 1.18 0 0 1 0-2.36m7.03 0a1.2 1.2 0 0 1 1.18 1.18 1.2 1.2 0 0 1-1.18 1.18 1.2 1.2 0 0 1-1.17-1.18 1.17 1.17 0 0 1 1.17-1.18m7.04 0a1.18 1.18 0 1 1 0 2.36 1.18 1.18 0 0 1 0-2.36m7.04 0a1.2 1.2 0 0 1 1.18 1.18 1.18 1.18 0 0 1-2.01.83 1.2 1.2 0 0 1 0-1.66 1.2 1.2 0 0 1 .83-.34m7.04 0a1.2 1.2 0 0 1 1.18 1.17 1.2 1.2 0 0 1-1.18 1.18 1.2 1.2 0 0 1-1.18-1.18 1.2 1.2 0 0 1 .73-1.09q.22-.08.45-.09m7.04 0a1.18 1.18 0 1 1 0 2.35 1.18 1.18 0 0 1 0-2.36M-11.5 91.6a1.18 1.18 0 1 1 0 2.36 1.18 1.18 0 0 1 0-2.36m7.04 0a1.18 1.18 0 1 1 0 2.36 1.18 1.18 0 0 1 0-2.36m7.04 0a1.18 1.18 0 1 1 0 2.36 1.18 1.18 0 0 1 0-2.36m7.04 0a1.18 1.18 0 1 1 0 2.36 1.18 1.18 0 0 1 0-2.36m7.03 0a1.18 1.18 0 1 1 0 2.36 1.18 1.18 0 0 1 0-2.36m7.04 0a1.18 1.18 0 1 1 0 2.36 1.18 1.18 0 0 1 0-2.36m7.04 0a1.18 1.18 0 1 1 0 2.36 1.18 1.18 0 0 1 0-2.36m7.04 0a1.18 1.18 0 1 1 0 2.36 1.18 1.18 0 0 1 0-2.36m14.08 0a1.18 1.18 0 1 1 0 2.36 1.18 1.18 0 0 1 0-2.36m7.04 0a1.18 1.18 0 1 1 0 2.36 1.18 1.18 0 0 1 0-2.36m7.04 0a1.18 1.18 0 1 1 0 2.36 1.18 1.18 0 0 1 0-2.36m7.04 0a1.18 1.18 0 1 1 0 2.36 1.18 1.18 0 0 1 0-2.36m7.04 0a1.18 1.18 0 1 1 0 2.36 1.18 1.18 0 0 1 0-2.36m7.04 0a1.18 1.18 0 1 1 0 2.36 1.18 1.18 0 0 1 0-2.36m7.04 0a1.18 1.18 0 1 1 0 2.36 1.18 1.18 0 0 1 0-2.36m7.04 0a1.2 1.2 0 0 1 1.17 1.18 1.2 1.2 0 0 1-1.17 1.17 1.2 1.2 0 0 1-1.18-1.17 1.2 1.2 0 0 1 1.18-1.18m7.04 0a1.18 1.18 0 1 1 0 2.35 1.18 1.18 0 0 1 0-2.35m7.03 0a1.2 1.2 0 0 1 1.18 1.18 1.2 1.2 0 0 1-1.18 1.17 1.18 1.18 0 0 1-1.08-1.62 1.2 1.2 0 0 1 1.09-.73zm7.04 0a1.2 1.2 0 0 1 1.18 1.18 1.18 1.18 0 1 1-2.35 0 1.2 1.2 0 0 1 .34-.83 1.2 1.2 0 0 1 .83-.35m7.04 0a1.18 1.18 0 0 1 .84 2.01 1.2 1.2 0 0 1-1.67 0 1.2 1.2 0 0 1 0-1.66 1.2 1.2 0 0 1 .83-.35m7.04 0a1.2 1.2 0 0 1 1.18 1.18 1.2 1.2 0 0 1-1.18 1.17 1.2 1.2 0 0 1-1.18-1.17 1.2 1.2 0 0 1 .35-.83 1.2 1.2 0 0 1 .83-.35m7.04 0a1.18 1.18 0 1 1 0 2.35 1.18 1.18 0 0 1 0-2.35M-7.75 95.45a1.18 1.18 0 1 1 0 2.36 1.18 1.18 0 0 1 0-2.36m7.04 0a1.18 1.18 0 1 1 0 2.36 1.18 1.18 0 0 1 0-2.36m7.04 0a1.18 1.18 0 1 1 0 2.36 1.18 1.18 0 0 1 0-2.36m7.03 0a1.18 1.18 0 1 1 0 2.36 1.18 1.18 0 0 1 0-2.36m7.04 0a1.18 1.18 0 1 1 0 2.36 1.18 1.18 0 0 1 0-2.36m7.04 0a1.18 1.18 0 1 1 0 2.36 1.18 1.18 0 0 1 0-2.36m7.04 0a1.18 1.18 0 1 1 0 2.36 1.18 1.18 0 0 1 0-2.36m7.04 0a1.18 1.18 0 1 1 0 2.36 1.18 1.18 0 0 1 0-2.36m7.04 0a1.18 1.18 0 1 1-.44.09q.22-.09.45-.09zm7.04 0a1.18 1.18 0 1 1 0 2.36 1.18 1.18 0 0 1 0-2.36m7.04 0a1.18 1.18 0 1 1 0 2.36 1.18 1.18 0 0 1 0-2.36m7.04 0a1.18 1.18 0 1 1 0 2.36 1.18 1.18 0 0 1 0-2.36m7.04 0a1.18 1.18 0 1 1 0 2.36 1.18 1.18 0 0 1 0-2.36m7.04 0a1.18 1.18 0 1 1 0 2.36 1.18 1.18 0 0 1 0-2.36m7.04 0a1.18 1.18 0 1 1 0 2.36 1.18 1.18 0 0 1 0-2.36m7.04 0a1.18 1.18 0 1 1 0 2.36 1.18 1.18 0 0 1 0-2.36m7.04 0a1.18 1.18 0 1 1 0 2.36 1.18 1.18 0 0 1 0-2.36m7.03 0a1.2 1.2 0 0 1 1.18 1.18 1.2 1.2 0 0 1-1.18 1.18 1.2 1.2 0 0 1-1.17-1.18 1.17 1.17 0 0 1 1.17-1.18m7.04 0a1.18 1.18 0 1 1 0 2.36 1.18 1.18 0 0 1 0-2.36m7.04 0a1.2 1.2 0 0 1 1.18 1.18 1.18 1.18 0 1 1-1.18-1.18m7.04 0a1.2 1.2 0 0 1 1.18 1.18 1.2 1.2 0 0 1-1.18 1.18 1.18 1.18 0 0 1-.83-2.01 1.2 1.2 0 0 1 .83-.35m7.04 0a1.18 1.18 0 1 1 0 2.36 1.18 1.18 0 0 1 0-2.36M-11.5 99.3a1.18 1.18 0 1 1 0 2.36 1.18 1.18 0 0 1 0-2.36m7.04 0a1.18 1.18 0 1 1 0 2.36 1.18 1.18 0 0 1 0-2.36m7.04 0a1.18 1.18 0 1 1 0 2.36 1.18 1.18 0 0 1 0-2.36m7.04 0a1.18 1.18 0 1 1 0 2.36 1.18 1.18 0 0 1 0-2.36m7.03 0a1.18 1.18 0 1 1 0 2.36 1.18 1.18 0 0 1 0-2.36m7.04 0a1.18 1.18 0 1 1 0 2.36 1.18 1.18 0 0 1 0-2.36m7.04 0a1.18 1.18 0 1 1 0 2.36 1.18 1.18 0 0 1 0-2.36m7.04 0a1.18 1.18 0 1 1 0 2.36 1.18 1.18 0 0 1 0-2.36m14.08 0a1.18 1.18 0 1 1 0 2.36 1.18 1.18 0 0 1 0-2.36m7.04 0a1.18 1.18 0 1 1 0 2.36 1.18 1.18 0 0 1 0-2.36m7.04 0a1.18 1.18 0 1 1 0 2.36 1.18 1.18 0 0 1 0-2.36m7.04 0a1.18 1.18 0 1 1 0 2.36 1.18 1.18 0 0 1 0-2.36m7.04 0a1.18 1.18 0 1 1 0 2.36 1.18 1.18 0 0 1 0-2.36m7.04 0a1.18 1.18 0 1 1 0 2.36 1.18 1.18 0 0 1 0-2.36m7.04 0a1.18 1.18 0 1 1 0 2.36 1.18 1.18 0 0 1 0-2.36m7.04 0a1.2 1.2 0 0 1 1.17 1.18 1.18 1.18 0 0 1-2.35 0 1.2 1.2 0 0 1 1.18-1.18m7.04 0a1.18 1.18 0 1 1 0 2.36 1.18 1.18 0 0 1 0-2.36m7.03 0a1.2 1.2 0 0 1 1.18 1.18 1.18 1.18 0 1 1-1.17-1.18zm7.04 0a1.2 1.2 0 0 1 1.18 1.18 1.2 1.2 0 0 1-1.18 1.18 1.18 1.18 0 0 1 0-2.36m7.04 0a1.2 1.2 0 0 1 1.18 1.18 1.2 1.2 0 0 1-1.18 1.18 1.18 1.18 0 0 1-.83-2.01 1.2 1.2 0 0 1 .83-.35m7.04 0a1.2 1.2 0 0 1 1.18 1.18 1.18 1.18 0 1 1-1.18-1.18m7.04 0a1.18 1.18 0 1 1 0 2.36 1.18 1.18 0 0 1 0-2.36m-151.11 3.86a1.18 1.18 0 1 1 0 2.35 1.18 1.18 0 0 1 0-2.35m7.03 0a1.18 1.18 0 1 1 0 2.35 1.18 1.18 0 0 1 0-2.35m7.04 0a1.18 1.18 0 1 1 0 2.35 1.18 1.18 0 0 1 0-2.35m7.04 0a1.18 1.18 0 1 1 0 2.35 1.18 1.18 0 0 1 0-2.35m7.04 0a1.18 1.18 0 1 1 0 2.36 1.18 1.18 0 0 1 0-2.36m7.04 0a1.18 1.18 0 1 1 0 2.35 1.18 1.18 0 0 1 0-2.35m7.04 0a1.18 1.18 0 1 1 0 2.35 1.18 1.18 0 0 1 0-2.35m7.04 0a1.18 1.18 0 1 1 0 2.35 1.18 1.18 0 0 1 0-2.35m7.04 0a1.18 1.18 0 1 1-.45.09q.22-.09.46-.09zm7.04 0a1.18 1.18 0 1 1 0 2.35 1.18 1.18 0 0 1 0-2.35m7.04 0a1.18 1.18 0 1 1 0 2.35 1.18 1.18 0 0 1 0-2.35m7.04 0a1.18 1.18 0 1 1 0 2.35 1.18 1.18 0 0 1 0-2.35m7.04 0a1.18 1.18 0 1 1 0 2.35 1.18 1.18 0 0 1 0-2.35m7.03 0a1.18 1.18 0 1 1 0 2.35 1.18 1.18 0 0 1 0-2.35m7.04 0a1.18 1.18 0 1 1 0 2.35 1.18 1.18 0 0 1 0-2.35m7.04 0a1.18 1.18 0 1 1 0 2.36 1.18 1.18 0 0 1 0-2.36m7.05 0a1.18 1.18 0 1 1 0 2.35 1.18 1.18 0 0 1 0-2.35m14.07 0a1.18 1.18 0 1 1 0 2.35 1.18 1.18 0 0 1 0-2.35m7.04 0a1.2 1.2 0 0 1 1.18 1.18 1.18 1.18 0 1 1-1.18-1.18m7.04 0a1.18 1.18 0 1 1 0 2.36 1.18 1.18 0 0 1 0-2.36m7.04 0a1.18 1.18 0 1 1 0 2.35 1.18 1.18 0 0 1 0-2.35M-11.5 107a1.18 1.18 0 1 1 0 2.35 1.18 1.18 0 0 1 0-2.35m7.04 0a1.18 1.18 0 1 1 0 2.35 1.18 1.18 0 0 1 0-2.35m7.04 0a1.18 1.18 0 1 1 0 2.35 1.18 1.18 0 0 1 0-2.35m7.04 0a1.18 1.18 0 1 1 0 2.35 1.18 1.18 0 0 1 0-2.35m7.03 0a1.18 1.18 0 1 1 0 2.35 1.18 1.18 0 0 1 0-2.35m7.04 0a1.18 1.18 0 1 1 0 2.35 1.18 1.18 0 0 1 0-2.35m7.04 0a1.18 1.18 0 1 1 0 2.35 1.18 1.18 0 0 1 0-2.35m7.04 0a1.18 1.18 0 1 1 0 2.35 1.18 1.18 0 0 1 0-2.35m14.08 0a1.18 1.18 0 1 1 0 2.35 1.18 1.18 0 0 1 0-2.35m7.04 0a1.18 1.18 0 1 1 0 2.35 1.18 1.18 0 0 1 0-2.35m7.04 0a1.18 1.18 0 1 1 0 2.35 1.18 1.18 0 0 1 0-2.35m7.04 0a1.18 1.18 0 1 1 0 2.35 1.18 1.18 0 0 1 0-2.35m7.04 0a1.18 1.18 0 1 1 0 2.35 1.18 1.18 0 0 1 0-2.35m7.04 0a1.18 1.18 0 1 1 0 2.35 1.18 1.18 0 0 1 0-2.35m7.04 0a1.18 1.18 0 1 1 0 2.35 1.18 1.18 0 0 1 0-2.35m7.04 0a1.18 1.18 0 0 1 .83 2 1.18 1.18 0 0 1-2.01-.82 1.2 1.2 0 0 1 1.18-1.18m7.04 0a1.18 1.18 0 1 1 0 2.35 1.18 1.18 0 0 1 0-2.35m7.03 0a1.18 1.18 0 0 1 .84 2 1.18 1.18 0 0 1-1.67-1.66 1.2 1.2 0 0 1 .84-.34zm7.04 0a1.18 1.18 0 0 1 .84 2 1.18 1.18 0 0 1-1.93-1.27 1.2 1.2 0 0 1 1.1-.73m7.03 0a1.2 1.2 0 0 1 1.18 1.18 1.2 1.2 0 0 1-1.18 1.17 1.18 1.18 0 0 1-.45-2.26q.23-.09.45-.09m7.04 0a1.18 1.18 0 0 1 .83 2 1.18 1.18 0 0 1-1.92-1.27 1.2 1.2 0 0 1 1.1-.73m7.03 0a1.18 1.18 0 1 1 0 2.35 1.18 1.18 0 0 1 0-2.35m-151.11 3.85a1.18 1.18 0 1 1 0 2.35 1.18 1.18 0 0 1 0-2.35m7.03 0a1.18 1.18 0 1 1 0 2.35 1.18 1.18 0 0 1 0-2.35m7.04 0a1.18 1.18 0 1 1 0 2.35 1.18 1.18 0 0 1 0-2.35m7.04 0a1.18 1.18 0 1 1 0 2.36 1.18 1.18 0 0 1 0-2.36m7.04 0a1.18 1.18 0 1 1 0 2.36 1.18 1.18 0 0 1 0-2.36m7.04 0a1.18 1.18 0 1 1 0 2.35 1.18 1.18 0 0 1 0-2.35m7.04 0a1.18 1.18 0 1 1 0 2.35 1.18 1.18 0 0 1 0-2.35m7.04 0a1.18 1.18 0 1 1 0 2.35 1.18 1.18 0 0 1 0-2.35m7.05 0a1.18 1.18 0 1 1 0 2.35 1.18 1.18 0 0 1 0-2.35m7.04 0a1.18 1.18 0 1 1-.01 0zm7.04 0a1.18 1.18 0 1 1-.01 0zm7.04 0a1.18 1.18 0 1 1-.01 0zm7.04 0a1.18 1.18 0 1 1-.01 0zm35.18 0a1.18 1.18 0 1 1 0 2.36 1.18 1.18 0 0 1 0-2.36m7.04 0a1.18 1.18 0 1 1-.45.09q.22-.09.45-.09m7.04 0a1.2 1.2 0 0 1 1.18 1.18 1.18 1.18 0 1 1-1.18-1.18m7.04 0a1.18 1.18 0 1 1-.45.09q.22-.09.45-.09m7.04 0a1.18 1.18 0 1 1-.45.09q.22-.09.45-.09M-11.5 114.7a1.18 1.18 0 1 1 0 2.35 1.18 1.18 0 0 1 0-2.35m7.04 0a1.18 1.18 0 1 1 0 2.35 1.18 1.18 0 0 1 0-2.35m7.04 0a1.18 1.18 0 1 1 0 2.35 1.18 1.18 0 0 1 0-2.35m7.04 0a1.18 1.18 0 1 1 0 2.35 1.18 1.18 0 0 1 0-2.35m7.03 0a1.18 1.18 0 1 1 0 2.35 1.18 1.18 0 0 1 0-2.35m7.04 0a1.2 1.2 0 0 1 1.18 1.18 1.18 1.18 0 1 1-1.18-1.18m7.04 0a1.2 1.2 0 0 1 1.18 1.18 1.18 1.18 0 1 1-1.18-1.18m7.04 0a1.2 1.2 0 0 1 1.18 1.18 1.18 1.18 0 1 1-1.18-1.18m7.04 0a1.2 1.2 0 0 1 1.18 1.18 1.18 1.18 0 1 1-1.19-1.18zm7.04 0a1.2 1.2 0 0 1 1.18 1.18 1.18 1.18 0 1 1-1.18-1.18m7.04 0a1.2 1.2 0 0 1 1.18 1.18 1.18 1.18 0 1 1-1.18-1.18m7.04 0a1.2 1.2 0 0 1 1.18 1.18 1.18 1.18 0 1 1-1.18-1.18m7.04 0a1.2 1.2 0 0 1 1.17 1.18 1.18 1.18 0 1 1-1.17-1.18m7.04 0a1.2 1.2 0 0 1 1.18 1.18 1.18 1.18 0 1 1-1.18-1.18m7.04 0a1.2 1.2 0 0 1 1.17 1.18 1.18 1.18 0 1 1-1.17-1.18m7.04 0a1.2 1.2 0 0 1 1.17 1.18 1.18 1.18 0 1 1-1.17-1.18m7.04 0a1.2 1.2 0 0 1 1.17 1.18 1.18 1.18 0 1 1-1.17-1.18m7.04 0a1.2 1.2 0 0 1 1.17 1.18 1.18 1.18 0 0 1-2.35 0 1.2 1.2 0 0 1 .73-1.1q.22-.08.45-.08m7.03 0a1.2 1.2 0 0 1 1.18 1.18 1.18 1.18 0 1 1-1.17-1.18zm7.04 0a1.18 1.18 0 0 1 0 2.35 1.18 1.18 0 0 1 0-2.35m7.04 0a1.2 1.2 0 0 1 1.18 1.18 1.18 1.18 0 1 1-1.18-1.18m7.04 0a1.2 1.2 0 0 1 1.18 1.18 1.18 1.18 0 1 1-1.18-1.18m-144.07 3.86a1.2 1.2 0 0 1 1.17 1.18 1.18 1.18 0 1 1-1.17-1.18m7.04 0a1.2 1.2 0 0 1 1.17 1.18 1.18 1.18 0 1 1-1.17-1.18m7.04 0a1.2 1.2 0 0 1 1.17 1.18 1.18 1.18 0 1 1-1.17-1.18m7.03 0a1.2 1.2 0 0 1 1.18 1.18 1.18 1.18 0 1 1-1.18-1.18m7.04 0a1.2 1.2 0 0 1 1.18 1.18 1.18 1.18 0 1 1-1.18-1.18m7.04 0a1.2 1.2 0 0 1 1.18 1.18 1.18 1.18 0 1 1-1.18-1.18m7.04 0a1.2 1.2 0 0 1 1.18 1.18 1.18 1.18 0 1 1-1.18-1.18m7.04 0a1.2 1.2 0 0 1 1.18 1.18 1.18 1.18 0 1 1-1.18-1.18m7.04 0a1.2 1.2 0 0 1 1.18 1.18 1.18 1.18 0 1 1-1.17-1.18zm7.04 0a1.2 1.2 0 0 1 1.18 1.18 1.18 1.18 0 1 1-1.18-1.18m7.04 0a1.2 1.2 0 0 1 1.18 1.18 1.18 1.18 0 1 1-1.18-1.18m7.04 0a1.2 1.2 0 0 1 1.18 1.18 1.18 1.18 0 1 1-1.18-1.18m7.04 0a1.2 1.2 0 0 1 1.17 1.18 1.18 1.18 0 1 1-1.17-1.18m7.04 0a1.2 1.2 0 0 1 1.17 1.18 1.18 1.18 0 1 1-1.17-1.18m7.04 0a1.2 1.2 0 0 1 1.17 1.18 1.18 1.18 0 1 1-1.17-1.18m7.04 0a1.2 1.2 0 0 1 1.17 1.18 1.18 1.18 0 1 1-1.18-1.18m7.04 0a1.2 1.2 0 0 1 1.17 1.18 1.18 1.18 0 1 1-1.17-1.18m7.03 0q.5 0 .84.34a1.2 1.2 0 0 1 0 1.67 1.18 1.18 0 0 1-1.67-1.67q.35-.34.83-.34m7.04 0a1.2 1.2 0 0 1 1.18 1.18 1.18 1.18 0 1 1-1.18-1.18m7.04 0a1.18 1.18 0 1 1 0 2.36 1.18 1.18 0 0 1 0-2.36m7.04 0q.48 0 .83.34a1.2 1.2 0 0 1 0 1.67 1.18 1.18 0 0 1-1.66-1.67 1.2 1.2 0 0 1 .83-.34m7.04 0a1.2 1.2 0 0 1 1.18 1.18 1.18 1.18 0 1 1-1.18-1.18m-151.57 3.83a1.18 1.18 0 1 1 0 2.35 1.18 1.18 0 0 1 0-2.35m7.04 0a1.18 1.18 0 1 1 0 2.35 1.18 1.18 0 0 1 0-2.35m7.04 0a1.18 1.18 0 1 1 0 2.35 1.18 1.18 0 0 1 0-2.35m7.04 0a1.18 1.18 0 1 1 0 2.35 1.18 1.18 0 0 1 0-2.35m7.04 0a1.18 1.18 0 1 1 0 2.35 1.18 1.18 0 0 1 0-2.35m7.03 0a1.18 1.18 0 1 1 0 2.35 1.18 1.18 0 0 1 0-2.35m7.04 0a1.18 1.18 0 1 1 0 2.35 1.18 1.18 0 0 1 0-2.35m7.04 0a1.18 1.18 0 1 1 0 2.35 1.18 1.18 0 0 1 0-2.35m14.08 0a1.18 1.18 0 1 1 0 2.35 1.18 1.18 0 0 1 0-2.35m7.04 0a1.18 1.18 0 1 1 0 2.35 1.18 1.18 0 0 1 0-2.35m7.04 0a1.18 1.18 0 1 1 0 2.35 1.18 1.18 0 0 1 0-2.35m7.04 0a1.18 1.18 0 1 1 0 2.35 1.18 1.18 0 0 1 0-2.35m7.04 0a1.18 1.18 0 1 1 0 2.35 1.18 1.18 0 0 1 0-2.35m7.04 0a1.18 1.18 0 1 1 0 2.35 1.18 1.18 0 0 1 0-2.35m7.04 0a1.18 1.18 0 1 1 0 2.35 1.18 1.18 0 0 1 0-2.35m7.04 0a1.18 1.18 0 1 1 0 2.35 1.18 1.18 0 0 1 0-2.35m7.04 0a1.18 1.18 0 1 1 0 2.35 1.18 1.18 0 0 1 0-2.35m7.04 0a1.2 1.2 0 0 1 1.18 1.18 1.2 1.2 0 0 1-1.18 1.17 1.18 1.18 0 0 1-.83-2q.35-.35.83-.35m7.04 0a1.18 1.18 0 0 1 .83 2 1.18 1.18 0 0 1-2.01-.82 1.2 1.2 0 0 1 1.17-1.18zm14.08 0a1.18 1.18 0 0 1 .83 2 1.18 1.18 0 0 1-2.01-.82 1.2 1.2 0 0 1 1.17-1.18zm-144.08 3.87a1.2 1.2 0 0 1 1.18 1.18 1.18 1.18 0 1 1-1.18-1.18m7.04 0a1.2 1.2 0 0 1 1.17 1.18 1.18 1.18 0 1 1-1.17-1.18m7.04 0a1.2 1.2 0 0 1 1.17 1.18 1.18 1.18 0 1 1-1.17-1.18m7.03 0a1.2 1.2 0 0 1 1.18 1.18 1.18 1.18 0 1 1-1.18-1.18m7.04 0a1.2 1.2 0 0 1 1.18 1.18 1.18 1.18 0 1 1-1.17-1.18Zm7.04 0a1.2 1.2 0 0 1 1.18 1.18 1.18 1.18 0 1 1-1.18-1.18m7.04 0a1.2 1.2 0 0 1 1.18 1.18 1.18 1.18 0 1 1-1.18-1.18m7.04 0a1.2 1.2 0 0 1 1.18 1.18 1.18 1.18 0 1 1-1.18-1.18m7.04 0a1.2 1.2 0 0 1 1.18 1.18 1.18 1.18 0 1 1-1.17-1.18zm7.04 0a1.2 1.2 0 0 1 1.18 1.18 1.18 1.18 0 1 1-1.18-1.18m7.04 0a1.2 1.2 0 0 1 1.18 1.18 1.18 1.18 0 1 1-1.18-1.18m7.04 0a1.2 1.2 0 0 1 1.18 1.18 1.18 1.18 0 1 1-1.18-1.18m7.04 0a1.2 1.2 0 0 1 1.18 1.18 1.18 1.18 0 1 1-1.18-1.18m7.04 0a1.2 1.2 0 0 1 1.17 1.18 1.18 1.18 0 1 1-1.17-1.18m7.04 0a1.2 1.2 0 0 1 1.17 1.18 1.18 1.18 0 1 1-1.17-1.18m7.04 0a1.2 1.2 0 0 1 1.17 1.18 1.18 1.18 0 1 1-1.17-1.18m7.04 0a1.2 1.2 0 0 1 1.17 1.18 1.18 1.18 0 1 1-1.17-1.18m14.07 0a1.2 1.2 0 0 1 1.18 1.18 1.18 1.18 0 0 1-2.35 0 1.2 1.2 0 0 1 .72-1.1 1 1 0 0 1 .45-.08m7.04 0a1.2 1.2 0 0 1 1.18 1.18 1.18 1.18 0 1 1-1.18-1.18m7.04 0a1.18 1.18 0 1 1 0 2.36 1.18 1.18 0 0 1 0-2.36m7.04 0a1.2 1.2 0 0 1 1.18 1.18 1.18 1.18 0 1 1-1.18-1.18m7.04 0a1.2 1.2 0 0 1 1.18 1.18 1.18 1.18 0 1 1-1.18-1.18m-158.61 3.84a1.18 1.18 0 1 1 0 2.35 1.18 1.18 0 0 1 0-2.35m7.04 0a1.18 1.18 0 1 1 0 2.35 1.18 1.18 0 0 1 0-2.35m7.04 0a1.18 1.18 0 1 1 0 2.35 1.18 1.18 0 0 1 0-2.35m7.04 0a1.18 1.18 0 1 1 0 2.35 1.18 1.18 0 0 1 0-2.35m7.04 0a1.18 1.18 0 1 1 0 2.35 1.18 1.18 0 0 1 0-2.35m7.03 0a1.18 1.18 0 1 1 0 2.35 1.18 1.18 0 0 1 0-2.35m7.04 0a1.18 1.18 0 1 1 0 2.35 1.18 1.18 0 0 1 0-2.35m7.04 0a1.18 1.18 0 1 1 0 2.35 1.18 1.18 0 0 1 0-2.35m14.08 0a1.18 1.18 0 1 1 0 2.35 1.18 1.18 0 0 1 0-2.35m7.04 0a1.18 1.18 0 1 1 0 2.35 1.18 1.18 0 0 1 0-2.35m7.04 0a1.18 1.18 0 1 1 0 2.35 1.18 1.18 0 0 1 0-2.35m7.04 0a1.18 1.18 0 1 1 0 2.35 1.18 1.18 0 0 1 0-2.35m7.04 0a1.18 1.18 0 1 1 0 2.35 1.18 1.18 0 0 1 0-2.35m7.04 0a1.18 1.18 0 1 1 0 2.35 1.18 1.18 0 0 1 0-2.35m7.04 0a1.18 1.18 0 1 1 0 2.35 1.18 1.18 0 0 1 0-2.35m7.04 0a1.18 1.18 0 0 1 .83 2 1.2 1.2 0 0 1-1.67 0 1.2 1.2 0 0 1 0-1.66q.34-.34.84-.34m7.04 0a1.18 1.18 0 1 1 0 2.35 1.18 1.18 0 0 1 0-2.35m7.04 0a1.2 1.2 0 0 1 1.17 1.17 1.18 1.18 0 1 1-2.26-.45 1.2 1.2 0 0 1 .64-.63q.21-.1.45-.1zm7.03 0a1.18 1.18 0 0 1 .84 2 1.2 1.2 0 0 1-1.67 0 1.18 1.18 0 0 1 .83-2m7.04 0a1.18 1.18 0 1 1 0 2.35 1.18 1.18 0 0 1 0-2.35m7.04 0a1.2 1.2 0 0 1 1.18 1.17 1.18 1.18 0 0 1-2.01.84 1.2 1.2 0 0 1 0-1.67 1.2 1.2 0 0 1 .83-.34m7.04 0a1.18 1.18 0 1 1 0 2.35 1.18 1.18 0 0 1 0-2.35m7.04 0a1.18 1.18 0 1 1 0 2.35 1.18 1.18 0 0 1 0-2.35m-158.15 3.86a1.18 1.18 0 1 1 0 2.35 1.18 1.18 0 0 1 0-2.35m7.03 0a1.18 1.18 0 1 1 0 2.35 1.18 1.18 0 0 1 0-2.35m7.04 0a1.18 1.18 0 1 1 0 2.35 1.18 1.18 0 0 1 0-2.35m7.04 0a1.18 1.18 0 1 1 0 2.35 1.18 1.18 0 0 1 0-2.35m7.04 0a1.18 1.18 0 1 1 0 2.35 1.18 1.18 0 0 1 0-2.35m7.04 0a1.18 1.18 0 1 1 0 2.35 1.18 1.18 0 0 1 0-2.35m7.04 0a1.18 1.18 0 1 1 0 2.35 1.18 1.18 0 0 1 0-2.35m7.04 0a1.18 1.18 0 1 1 0 2.35 1.18 1.18 0 0 1 0-2.35m7.04 0a1.18 1.18 0 1 1-.44.08q.22-.08.45-.08zm7.04 0a1.18 1.18 0 1 1 0 2.35 1.18 1.18 0 0 1 0-2.35m7.04 0a1.18 1.18 0 1 1 0 2.35 1.18 1.18 0 0 1 0-2.35m7.04 0a1.18 1.18 0 1 1 0 2.35 1.18 1.18 0 0 1 0-2.35m7.04 0a1.18 1.18 0 1 1 0 2.35 1.18 1.18 0 0 1 0-2.35m7.04 0a1.18 1.18 0 1 1 0 2.35 1.18 1.18 0 0 1 0-2.35m7.04 0a1.18 1.18 0 1 1 0 2.35 1.18 1.18 0 0 1 0-2.35m7.03 0a1.18 1.18 0 1 1 0 2.35 1.18 1.18 0 0 1 0-2.35m7.04 0a1.18 1.18 0 1 1 0 2.35 1.18 1.18 0 0 1 0-2.35m14.08 0a1.18 1.18 0 1 1 0 2.35 1.18 1.18 0 0 1 0-2.35m7.04 0a1.18 1.18 0 1 1 0 2.35 1.18 1.18 0 0 1 0-2.35m7.04 0a1.18 1.18 0 1 1 0 2.35 1.18 1.18 0 0 1 0-2.35m7.04 0a1.18 1.18 0 1 1 0 2.35 1.18 1.18 0 0 1 0-2.35m7.04 0a1.18 1.18 0 1 1 0 2.35 1.18 1.18 0 0 1 0-2.35m7.04 0a1.2 1.2 0 0 1 1.17 1.17 1.18 1.18 0 1 1-1.17-1.17m-165.65 3.84a1.2 1.2 0 0 1 1.18 1.17 1.18 1.18 0 1 1-1.18-1.18m7.04 0a1.2 1.2 0 0 1 1.18 1.18 1.18 1.18 0 1 1-1.18-1.18m7.04 0a1.2 1.2 0 0 1 1.17 1.18 1.18 1.18 0 1 1-1.17-1.18m7.04 0a1.2 1.2 0 0 1 1.17 1.18 1.18 1.18 0 1 1-1.17-1.18m7.04 0a1.2 1.2 0 0 1 1.17 1.18 1.18 1.18 0 1 1-1.17-1.18m7.03 0a1.2 1.2 0 0 1 1.18 1.18 1.18 1.18 0 1 1-1.18-1.18m7.04 0a1.2 1.2 0 0 1 1.18 1.18 1.18 1.18 0 1 1-1.18-1.18m7.04 0a1.2 1.2 0 0 1 1.18 1.18 1.18 1.18 0 1 1-1.18-1.18m7.04 0a1.2 1.2 0 0 1 1.18 1.18 1.18 1.18 0 1 1-1.19-1.18zm7.04 0a1.2 1.2 0 0 1 1.18 1.18 1.18 1.18 0 1 1-1.18-1.18m7.04 0a1.2 1.2 0 0 1 1.18 1.18 1.18 1.18 0 1 1-1.18-1.18m7.04 0a1.2 1.2 0 0 1 1.18 1.18 1.18 1.18 0 1 1-1.18-1.18m7.04 0a1.2 1.2 0 0 1 1.18 1.18 1.18 1.18 0 1 1-1.18-1.18m7.04 0a1.2 1.2 0 0 1 1.18 1.18 1.18 1.18 0 1 1-1.18-1.18m7.04 0a1.2 1.2 0 0 1 1.18 1.18 1.18 1.18 0 1 1-1.18-1.18m7.04 0a1.2 1.2 0 0 1 1.18 1.18 1.18 1.18 0 1 1-1.18-1.18m7.04 0q.47.01.83.35a1.2 1.2 0 0 1 0 1.66 1.18 1.18 0 0 1-1.67-1.66q.34-.34.84-.35m7.04 0a1.2 1.2 0 0 1 1.17 1.18 1.18 1.18 0 1 1-1.17-1.18m7.04 0a1.18 1.18 0 1 1-.45.1q.21-.1.45-.1m7.03 0q.5.01.84.35a1.2 1.2 0 0 1 0 1.66 1.18 1.18 0 0 1-1.67-1.66 1.2 1.2 0 0 1 .83-.35m7.04 0a1.2 1.2 0 0 1 1.18 1.18 1.18 1.18 0 1 1-1.18-1.18m7.04 0a1.18 1.18 0 1 1 0 2.36 1.18 1.18 0 0 1 0-2.35m7.04 0a1.2 1.2 0 0 1 1.18 1.17 1.18 1.18 0 1 1-1.18-1.18m7.04 0a1.2 1.2 0 0 1 1.18 1.18 1.18 1.18 0 1 1-1.18-1.18m-158.15 3.87a1.18 1.18 0 1 1 0 2.35 1.18 1.18 0 0 1 0-2.35m7.04 0a1.18 1.18 0 1 1 0 2.35 1.18 1.18 0 0 1 0-2.35m7.04 0a1.18 1.18 0 1 1 0 2.35 1.18 1.18 0 0 1 0-2.35m7.03 0a1.18 1.18 0 1 1 0 2.35 1.18 1.18 0 0 1 0-2.35m7.04 0a1.18 1.18 0 1 1 0 2.35 1.18 1.18 0 0 1 0-2.35m7.04 0a1.18 1.18 0 1 1 0 2.35 1.18 1.18 0 0 1 0-2.35m7.04 0a1.18 1.18 0 1 1 0 2.35 1.18 1.18 0 0 1 0-2.35m7.04 0a1.18 1.18 0 1 1 0 2.35 1.18 1.18 0 0 1 0-2.35m7.04 0a1.18 1.18 0 1 1-.44.08q.22-.1.45-.08zm7.04 0a1.18 1.18 0 1 1 0 2.35 1.18 1.18 0 0 1 0-2.35m7.04 0a1.18 1.18 0 1 1 0 2.35 1.18 1.18 0 0 1 0-2.35m7.04 0a1.18 1.18 0 1 1 0 2.35 1.18 1.18 0 0 1 0-2.35m7.04 0a1.18 1.18 0 1 1 0 2.35 1.18 1.18 0 0 1 0-2.35m7.04 0a1.18 1.18 0 1 1 0 2.35 1.18 1.18 0 0 1 0-2.35m7.04 0a1.18 1.18 0 1 1 0 2.35 1.18 1.18 0 0 1 0-2.35m7.04 0a1.18 1.18 0 1 1 0 2.35 1.18 1.18 0 0 1 0-2.35m7.04 0a1.18 1.18 0 1 1 0 2.35 1.18 1.18 0 0 1 0-2.35m7.03 0a1.2 1.2 0 0 1 1.18 1.17 1.2 1.2 0 0 1-1.18 1.18 1.18 1.18 0 0 1-.83-2q.35-.35.83-.35m7.04 0a1.18 1.18 0 1 1 0 2.35 1.18 1.18 0 0 1 0-2.35m7.04 0a1.18 1.18 0 1 1 0 2.35 1.18 1.18 0 0 1 0-2.35m7.04 0a1.2 1.2 0 0 1 1.18 1.17 1.2 1.2 0 0 1-1.18 1.18 1.18 1.18 0 0 1-.83-2 1.2 1.2 0 0 1 .83-.35m7.04 0a1.18 1.18 0 1 1 0 2.35 1.18 1.18 0 0 1 0-2.35m7.04 0a1.18 1.18 0 1 1 0 2.35 1.18 1.18 0 0 1 0-2.35"/></g><path fill="#000" d="M117.22 59.03a7 7 0 0 1-4.7-1.66l.46-.5c2.09 1.85 5.73 1.95 8.47.2a12.6 12.6 0 0 0 4.53-5.64 6.6 6.6 0 0 1-2.9-1.44 4.5 4.5 0 0 1-1.47-4.57 3.5 3.5 0 0 1 1.78-2.06 3 3 0 0 1 2.33-.19 3.6 3.6 0 0 1 2.21 3.02 8 8 0 0 1-.55 3.63q-.18.55-.4 1.11.35.06.7.08A10.9 10.9 0 0 0 139 37.53l.68-.16a11.6 11.6 0 0 1-2.4 10.22 11.6 11.6 0 0 1-9.66 4.1 7 7 0 0 1-.93-.1 13.3 13.3 0 0 1-4.84 6.1 8.6 8.6 0 0 1-4.64 1.34m7.58-15.33a2.3 2.3 0 0 0-1.1.28 2.8 2.8 0 0 0-1.44 1.64 3.8 3.8 0 0 0 1.28 3.85 6 6 0 0 0 2.7 1.32q.23-.59.44-1.19a8 8 0 0 0 .52-3.32 2.9 2.9 0 0 0-1.74-2.46 2 2 0 0 0-.66-.12m-6.45 83.37-90.88-21.5-.15-.6L87.1 51.25l.55.12 31.1 75.28zm-90.08-22.02 89.58 21.2-30.67-74.18z"/><path fill="#A1E3D6" d="M45.14 51.56a4.16 4.16 0 1 1-4.16-4.15 4.15 4.15 0 0 1 4.16 4.15"/><path fill="#93C3E6" d="M62.68 105.15a31 31 0 1 1-31-31 30.9 30.9 0 0 1 31 31"/><path fill="#424D99" d="M22.43 76.75c-.4 3.32-2.21 6.22-4.2 8.85a65 65 0 0 0-5.82 8.03c-1.57 2.91-2.41 6.42-1.34 9.55a8.53 8.53 0 0 0 14.14 3.2c2.55 3.06 5.72 6.11 9.62 6.92a14.2 14.2 0 0 0 11.33-2.38 11.8 11.8 0 0 0 4.66-10.42c-.53-4.67-4-8.37-6.97-12.02s-5.7-8.26-4.42-12.8"/><path fill="#F8C49E" d="M38.54 110.12h-15.3l3.08-19.7h10.6l.18 2.31.59 7.13z"/><path fill="#000" d="M37.69 99.87a12.1 12.1 0 0 1-10.19-5.53c3.1-.48 6.16-1.11 9.26-1.56l.34-.06z"/><path fill="#F8C49E" d="M45.12 86.2a12 12 0 0 1-6.1 8.91 12.2 12.2 0 0 1-10.8.28 12.5 12.5 0 0 1-6.74-8.48 3.5 3.5 0 0 1-3.94 1.72 5 5 0 0 1-3.61-3.07 5 5 0 0 1-.06-3.68 4.3 4.3 0 0 1 2.64-2.5 3.8 3.8 0 0 1 3.45.47l.14.1a14 14 0 0 1 2.7-9 12.2 12.2 0 0 1 8.05-4.75c.36 0 .74-.07 1.1-.08h.3c2.75 0 5.4 1.06 7.39 2.97a12 12 0 0 1 2.01 2.7 28 28 0 0 1 2.21 5.69 22 22 0 0 1 1.25 8.72"/><path fill="#000" d="M18.88 85.34a2 2 0 0 0-2-.96 2 2 0 0 0-.72.25l-.35-.61a2.8 2.8 0 0 1 2.03-.27q.46.15.86.4l-.3-2.21.69-.09.43 3.32zm17.12.74a1 1 0 0 1-.34-.06l.22-.65a.5.5 0 0 0 .37 0 .5.5 0 0 0 .2-.22 2 2 0 0 0-.05-.73l-.97-4.55.67-.15.98 4.55q.15.52.05 1.04a1 1 0 0 1-.55.66 1 1 0 0 1-.58.1Zm-1.59 2.39a2.6 2.6 0 0 1-2.56-2.42h.68a2 2 0 0 0 .7 1.36 2 2 0 0 0 1.47.39l.11.68zm-2.71-7.74c0 .4-.22.73-.49.73-.26 0-.48-.33-.48-.73s.2-.74.48-.74.49.36.49.74m8.47-.82c0 .41-.22.73-.49.73-.26 0-.48-.32-.48-.73s.2-.73.48-.73.49.32.49.73m.16-2.19q.42.02.82-.07c.45-.16.41-.5 0-.7a4 4 0 0 0-1.6-.22 2.5 2.5 0 0 0-1.1.17.4.4 0 0 0-.1.65c.37.46 1.35.18 1.98.17m-10.26.9a3 3 0 0 1-.82.09c-.46-.1-.48-.44-.08-.7q.72-.39 1.53-.51a2.5 2.5 0 0 1 1.11 0 .4.4 0 0 1 .21.63c-.32.5-1.32.39-1.95.49"/><path fill="#424D99" d="m32.26 66.12-.1.38A20.5 20.5 0 0 1 20.1 79.96a14 14 0 0 1 2.7-9 12.2 12.2 0 0 1 8.04-4.76c.37 0 .75-.07 1.11-.08z"/><path fill="#424D99" d="M41.66 71.79a15 15 0 0 1-5.53-1.37 9.6 9.6 0 0 1-3.99-3.92l-.2-.38h.3a10.6 10.6 0 0 1 7.38 2.97q1.22 1.2 2.04 2.7M19.6 70.23a3.3 3.3 0 0 0 3.58.56 3.7 3.7 0 0 0 1.78-4.78 4 4 0 0 0-1.06-1.43 3.4 3.4 0 0 0-3.4-.45c-2.16.96-2.56 4.5-.9 6.1"/><path fill="#C9CCE4" d="M144.73 51.07a22.4 22.4 0 0 1 20.54 19.42 22 22 0 0 1-2.1 12.4c-2.01 4.33-4.59 8.3-7.26 12.23-4.66 6.86-9.58 13.53-14.35 20.3l-1.4 1.98c-.49.66-1.05.61-1.4-.11-4.65-9.73-9.71-19.27-14.07-29.13a59 59 0 0 1-3.96-12.34c-.41-2.08-.19-4.13.2-6.18a22.6 22.6 0 0 1 5.12-10.97 22 22 0 0 1 16.06-7.64c.93-.05 1.85.02 2.62.04M142.07 84a10.5 10.5 0 0 0 11.36-9.42 10.5 10.5 0 0 0-9.52-11.43 10.57 10.57 0 0 0-11.43 9.64 10.5 10.5 0 0 0 9.6 11.2Z"/><path fill="#CCED9F" d="M59.84 118.15a31 31 0 0 1-44.12 13.65 31 31 0 0 1-11.68-12.54c1.4-3.5 3.65-8.54 5.22-9.17 2.45-.97 14.63-4.07 14.63-4.07s10.21 5.34 14.32-.16c0 0 11.77 0 14.05 1.46 1.8 1.19 5.91 7.99 7.58 10.83"/><path fill="#13BF89" d="M82.71 126a31 31 0 0 0 37.05 30.4A31 31 0 0 0 113.7 95a30.9 30.9 0 0 0-31 31"/><path fill="#B77548" d="M106.85 130.97h15.32l-3.1-19.7h-10.59l-.19 2.3-.58 7.15z"/><path fill="#000" d="M107.7 120.72a12.1 12.1 0 0 0 10.2-5.54c-3.1-.47-6.16-1.1-9.26-1.56h-.35z"/><path fill="#B77548" d="M131.46 106.4a5 5 0 0 1-3.6 3.07 3.5 3.5 0 0 1-3.95-1.72 12.4 12.4 0 0 1-6.74 8.48 12.2 12.2 0 0 1-10.8-.27 12 12 0 0 1-6.1-8.86 22 22 0 0 1 1.26-8.72q.36-1.26.8-2.51a21 21 0 0 1 1.4-3.18 12 12 0 0 1 2.02-2.7 10.7 10.7 0 0 1 7.38-2.97h.3q.56.01 1.1.09a12.2 12.2 0 0 1 8.04 4.75 14 14 0 0 1 2.6 6.46q.18 1.27.12 2.54l.13-.11a3.9 3.9 0 0 1 3.45-.47 4.3 4.3 0 0 1 2.64 2.5 5 5 0 0 1-.05 3.62"/><path fill="#000" d="m126.52 106.18-.65-.22.44-3.32.68.09-.3 2.27q.4-.28.87-.41a2.8 2.8 0 0 1 2.02.26l-.33.61a2 2 0 0 0-1.51-.2 2 2 0 0 0-1.22.91zm-17.13.73a1 1 0 0 1-.57-.15 1 1 0 0 1-.55-.65 2 2 0 0 1 0-1.05l.98-4.55.67.15-.97 4.55a2 2 0 0 0-.06.73.5.5 0 0 0 .21.22.5.5 0 0 0 .38 0l.21.65zm1.6 2.4h-.4l.1-.68a2 2 0 0 0 1.5-.37 2 2 0 0 0 .72-1.37h.68a2.6 2.6 0 0 1-2.56 2.43zm2.7-7.73c0 .4.23.73.5.73.26 0 .48-.33.48-.73s-.21-.73-.49-.73-.49.32-.49.73m-8.46-.82c0 .4.22.73.48.73.27 0 .5-.32.5-.73s-.22-.73-.5-.73c-.27 0-.48.33-.48.73m-.17-2.2a3 3 0 0 1-.82-.06c-.44-.17-.4-.5 0-.7a4 4 0 0 1 1.6-.22 2.5 2.5 0 0 1 1.11.17.4.4 0 0 1 .23.3.4.4 0 0 1-.14.35c-.39.47-1.35.18-1.98.17m10.26.9q.4.1.82.08c.47-.09.5-.43.1-.7a5 5 0 0 0-1.55-.5 3 3 0 0 0-1.1 0 .4.4 0 0 0-.28.26.4.4 0 0 0-.01.19.4.4 0 0 0 .08.18c.32.5 1.31.38 1.94.48m3.77-13.27a4.4 4.4 0 0 1-4.76.75 4.9 4.9 0 0 1-2.77-4.03 5 5 0 0 1 1.8-4.24 4.5 4.5 0 0 1 4.53-.6c2.88 1.28 3.4 6 1.2 8.12"/><path fill="#6987F3" d="M85.56 139.02a31 31 0 0 0 27.55 18.06 31 31 0 0 0 28.25-16.96c-1.4-3.5-4.34-10.16-5.92-10.79-2.44-.97-13.93-2.45-13.93-2.45s-9.85 8.47-14.32-.15c0 0-11.33.97-13.6 2.43-1.8 1.17-6.36 6.99-8.03 9.86"/><path fill="#000" d="M125.19 98.27a10 10 0 0 1-6.2-.11 10.3 10.3 0 0 1-6.83-8.6 12.5 12.5 0 0 1-9.82 6.25 21 21 0 0 1 1.4-3.18q.8-1.5 2-2.7a10.7 10.7 0 0 1 7.4-2.97h.29q.56.02 1.1.1a12.2 12.2 0 0 1 8.04 4.74 13.7 13.7 0 0 1 2.62 6.47"/><path fill="#CCED9F" d="M117.81 51.56a31 31 0 0 1-1.87 10.62 30 30 0 0 1-1.52 3.52 31 31 0 0 1-27.07 16.86h-1.1a31 31 0 0 1-27.6-18 25 25 0 0 1-.76-1.76 31 31 0 0 1-2.13-11.24 31.03 31.03 0 1 1 62.05 0"/><path fill="#F8C49E" d="M79.91 56.54h15.31l-3.09-19.7h-10.6l-.18 2.31-.59 7.13z"/><path fill="#000" d="M80.78 46.28a12 12 0 0 0 4.43-.82 12.2 12.2 0 0 0 5.75-4.7c-3.1-.48-6.16-1.1-9.25-1.55l-.35-.06z"/><path fill="#F8C49E" d="M104.52 31.98a4.9 4.9 0 0 1-3.61 3.05 3.5 3.5 0 0 1-3.94-1.7 12.4 12.4 0 0 1-6.74 8.48 12.2 12.2 0 0 1-10.8-.29 12 12 0 0 1-6.1-8.86 22 22 0 0 1 1.25-8.77 23 23 0 0 1 3-6.94q.2-.3.42-.56.37-.48.8-.9a10.8 10.8 0 0 1 8.86-2.88 12.2 12.2 0 0 1 8.02 4.76q.5.65.9 1.37a13 13 0 0 1 1.39 3.44 14 14 0 0 1 .44 4.19 3.7 3.7 0 0 1 3.57-.58 4.2 4.2 0 0 1 2.64 2.5 5 5 0 0 1-.1 3.69"/><path fill="#000" d="m99.6 31.76-.64-.22.43-3.32.69.08-.3 2.22a3 3 0 0 1 .87-.4 2.8 2.8 0 0 1 2.02.26l-.33.6a2.05 2.05 0 0 0-2.74.72zm-17.15.74a1 1 0 0 1-.58-.16 1 1 0 0 1-.54-.65 3 3 0 0 1 0-1.04l.97-4.55.69.14-.97 4.55q-.11.37-.07.73a.5.5 0 0 0 .22.23.5.5 0 0 0 .37 0l.2.65q-.14.07-.3.1m1.59 2.39h-.39l.1-.69a1.87 1.87 0 0 0 2.22-1.75h.68a2.5 2.5 0 0 1-.95 1.85 2.6 2.6 0 0 1-1.66.59m2.71-7.75c0 .41.22.74.49.74s.5-.33.5-.74-.22-.73-.5-.73-.49.33-.49.73m-8.47-.8c0 .4.23.72.49.72.27 0 .5-.33.5-.73s-.22-.73-.5-.73-.49.32-.49.73m10-1.34q.38.09.75 0c.43-.14.49-.57.13-.9a3 3 0 0 0-1.39-.53 1.7 1.7 0 0 0-1.1 0 .64.64 0 0 0-.25.83c.34.72 1.28.51 1.86.6m-9.98-.73a2 2 0 0 1-.75-.07c-.41-.2-.4-.65 0-.9a3 3 0 0 1 1.45-.32q.59-.1 1.1.2a.63.63 0 0 1 .12.85c-.44.6-1.34.25-1.92.24"/><path fill="#13BF89" d="M115.94 62.19a30 30 0 0 1-1.52 3.52 31 31 0 0 1-27.07 16.85h-1.1a31 31 0 0 1-27.6-18 25 25 0 0 1-.76-1.76c2.21-3.16 5.2-7.04 6.5-7.88 2.28-1.48 15.87-2.62 15.87-2.62 2.53 7.66 14.4.17 14.4.17s14.59 2.07 16.84 3.42c1.51.95 3.13 3.6 4.44 6.3"/><path fill="#000" d="M98.36 26.38a5.3 5.3 0 0 1-2.5-3.24 16 16 0 0 1-.52-4.2q.62.07 1.2-.19a14 14 0 0 1 1.82 7.63M77.7 16.7a4 4 0 0 0-2.21 1.3 2.3 2.3 0 0 0 .29 2.74 3.2 3.2 0 0 0 2.8.93 5 5 0 0 0 2.68-1.2 11 11 0 0 0 2.21-2.37"/><path fill="#6987F3" d="M97.72 21.46a13 13 0 0 0-2.07-4.08 12.2 12.2 0 0 0-8.02-4.76 10.8 10.8 0 0 0-8.86 2.89 9 9 0 0 0-.8.88l-8.52-2.21-.17.63 8.26 2.11 20.35 5.24a3 3 0 0 0-.17-.7"/><path fill="#000" d="m60.6 135.32-13.44-1.94 3.45-15.96zM48 132.8l11.3 1.63-8.4-15.06z"/></g><defs><clipPath id="a"><path fill="#fff" d="M0 0h165v165H0z"/></clipPath></defs></svg>