<svg xmlns="http://www.w3.org/2000/svg" width="165" height="165" fill="none"><mask id="a" width="159" height="114" x="3" y="31" maskUnits="userSpaceOnUse" style="mask-type:alpha"><path fill="#A1E3D6" d="M25.12 144.71C11.89 130.7 4.17 110.23 3.98 90.96 3.9 82.66 5.28 73.99 9.82 67s12.76-12.02 21.04-11.04 14.77 7.2 22.83 8.63c9.93 1.76 19.62-4.16 27.06-10.99s14.06-14.94 23.17-19.27c12.06-5.72 27.1-3.56 37.97 4.26s17.56 20.55 19.4 33.77-.9 26.82-6.26 39.03c-5.37 12.21-13.27 23.19-21.95 33.32"/></mask><g fill="#A1E3D6" mask="url(#a)"><path d="M-1.2 29a1.23 1.23 0 1 1 0 2.45 1.23 1.23 0 0 1 0-2.45m7.33 0a1.23 1.23 0 1 1 0 2.45 1.23 1.23 0 0 1 0-2.45m7.33 0a1.23 1.23 0 1 1 0 2.45 1.23 1.23 0 0 1 0-2.45m7.33 0a1.23 1.23 0 1 1 0 2.45 1.23 1.23 0 0 1 0-2.45m7.32 0a1.23 1.23 0 1 1 0 2.45 1.23 1.23 0 0 1 0-2.45m7.33 0a1.23 1.23 0 1 1 0 2.45 1.23 1.23 0 0 1 0-2.45m7.33 0a1.23 1.23 0 1 1 0 2.45 1.23 1.23 0 0 1 0-2.45m7.32 0a1.23 1.23 0 1 1 0 2.45 1.23 1.23 0 0 1 0-2.45m7.33 0a1.23 1.23 0 1 1-.01 0zm7.32 0a1.23 1.23 0 1 1 0 2.45 1.23 1.23 0 0 1 0-2.45m7.33 0a1.23 1.23 0 1 1 0 2.45 1.23 1.23 0 0 1 0-2.45m7.33 0a1.23 1.23 0 1 1 0 2.45 1.23 1.23 0 0 1 0-2.45m7.32 0a1.23 1.23 0 1 1 0 2.45 1.23 1.23 0 0 1 0-2.45m7.33 0a1.23 1.23 0 1 1 0 2.45 1.23 1.23 0 0 1 0-2.45m7.33 0a1.23 1.23 0 1 1 0 2.45 1.23 1.23 0 0 1 0-2.45m7.33 0a1.23 1.23 0 1 1 0 2.45 1.23 1.23 0 0 1 0-2.45m7.32 0a1.23 1.23 0 0 1 .87 2.1 1.23 1.23 0 0 1-2.1-.88 1.2 1.2 0 0 1 1.23-1.22m7.33 0a1.2 1.2 0 0 1 1.22 1.23 1.22 1.22 0 1 1-1.22-1.23m7.32 0a1.23 1.23 0 0 1 .87 2.1 1.23 1.23 0 0 1-2.1-.88 1.2 1.2 0 0 1 .37-.86 1.2 1.2 0 0 1 .87-.36zm7.33 0a1.2 1.2 0 0 1 1.22 1.23 1.22 1.22 0 1 1-1.22-1.23m7.33 0a1.2 1.2 0 0 1 1.22 1.23 1.22 1.22 0 1 1-1.22-1.23m7.32 0a1.23 1.23 0 0 1 .87 2.1 1.23 1.23 0 0 1-2-1.34 1.2 1.2 0 0 1 1.13-.76m7.33 0a1.23 1.23 0 0 1 .87 2.1 1.23 1.23 0 0 1-2-1.34 1.2 1.2 0 0 1 1.13-.76M2.71 33.01a1.23 1.23 0 1 1 0 2.45 1.23 1.23 0 0 1 0-2.45m7.32 0a1.23 1.23 0 1 1 0 2.45 1.23 1.23 0 0 1 0-2.45m7.33 0a1.23 1.23 0 1 1 0 2.45 1.23 1.23 0 0 1 0-2.45m7.32 0a1.23 1.23 0 1 1 0 2.45 1.23 1.23 0 0 1 0-2.45m7.33 0a1.23 1.23 0 1 1 0 2.45 1.23 1.23 0 0 1 0-2.45m7.33 0a1.23 1.23 0 1 1 0 2.45 1.23 1.23 0 0 1 0-2.45m7.33 0a1.23 1.23 0 1 1 0 2.45 1.23 1.23 0 0 1 0-2.45m7.32 0a1.23 1.23 0 1 1 0 2.45 1.23 1.23 0 0 1 0-2.45m7.34 0a1.23 1.23 0 1 1 0 2.45 1.23 1.23 0 0 1 0-2.45m7.33 0a1.23 1.23 0 1 1-.01 0zm14.65 0a1.23 1.23 0 1 1-.01 0zm14.65 0a1.23 1.23 0 1 1-.01 0zm7.33 0a1.23 1.23 0 1 1-.01 0zm7.32 0a1.23 1.23 0 0 1 1.23 1.23A1.23 1.23 0 1 1 112.6 33zm7.33 0a1.23 1.23 0 0 1 1.23 1.23 1.23 1.23 0 1 1-1.24-1.23zm7.31 0a1.23 1.23 0 0 1 1.23 1.23 1.23 1.23 0 1 1-1.23-1.23m7.33 0a1.23 1.23 0 0 1 1.23 1.23 1.23 1.23 0 1 1-1.22-1.23zm7.33 0a1.2 1.2 0 0 1 1.22 1.23 1.23 1.23 0 1 1-1.22-1.23m7.32 0a1.23 1.23 0 0 1 1.23 1.23 1.23 1.23 0 1 1-1.22-1.23zm7.33 0a1.23 1.23 0 0 1 1.23 1.23 1.23 1.23 0 1 1-1.23-1.23m7.33 0a1.2 1.2 0 0 1 1.22 1.23A1.23 1.23 0 1 1 163.9 33zm-165.08 4a1.23 1.23 0 1 1 0 2.46 1.23 1.23 0 0 1 0-2.46m7.32 0a1.23 1.23 0 1 1 0 2.46 1.23 1.23 0 0 1 0-2.46m7.33 0a1.23 1.23 0 1 1 0 2.46 1.23 1.23 0 0 1 0-2.46m7.33 0a1.23 1.23 0 1 1 0 2.46 1.23 1.23 0 0 1 0-2.46m7.32 0a1.23 1.23 0 1 1 0 2.46 1.23 1.23 0 0 1 0-2.46m7.33 0a1.23 1.23 0 1 1 0 2.46 1.23 1.23 0 0 1 0-2.46m7.33 0a1.23 1.23 0 1 1 0 2.46 1.23 1.23 0 0 1 0-2.46m7.32 0a1.23 1.23 0 1 1 0 2.46 1.23 1.23 0 0 1 0-2.46m7.33 0a1.23 1.23 0 1 1-.01 0zm7.32 0a1.23 1.23 0 1 1 0 2.46 1.23 1.23 0 0 1 0-2.46m7.33 0a1.23 1.23 0 1 1 0 2.46 1.23 1.23 0 0 1 0-2.46m7.33 0a1.23 1.23 0 1 1 0 2.46 1.23 1.23 0 0 1 0-2.46m7.32 0a1.23 1.23 0 1 1 0 2.46 1.23 1.23 0 0 1 0-2.46m7.33 0a1.23 1.23 0 1 1 0 2.46 1.23 1.23 0 0 1 0-2.46m7.33 0a1.23 1.23 0 1 1 0 2.45 1.23 1.23 0 0 1 0-2.45m7.33 0a1.23 1.23 0 0 1 .86 2.1 1.23 1.23 0 0 1-2.1-.87 1.23 1.23 0 0 1 1.24-1.23m7.32 0a1.23 1.23 0 0 1 1.23 1.23 1.23 1.23 0 0 1-1.23 1.22 1.2 1.2 0 0 1-1.22-1.22 1.23 1.23 0 0 1 1.22-1.23m7.33 0a1.2 1.2 0 0 1 1.22 1.23 1.22 1.22 0 1 1-1.22-1.23m7.32 0a1.23 1.23 0 0 1 1.23 1.23 1.22 1.22 0 1 1-1.22-1.23zm7.33 0a1.2 1.2 0 0 1 1.22 1.23 1.22 1.22 0 1 1-1.22-1.23m7.33 0a1.2 1.2 0 0 1 1.22 1.23 1.22 1.22 0 1 1-1.22-1.23m7.32 0a1.23 1.23 0 0 1 1.23 1.23 1.22 1.22 0 1 1-1.23-1.23m7.33 0a1.23 1.23 0 0 1 1.23 1.23 1.22 1.22 0 1 1-1.23-1.23M2.71 41.03a1.23 1.23 0 1 1 0 2.45 1.23 1.23 0 0 1 0-2.45m7.32 0a1.23 1.23 0 1 1 0 2.45 1.23 1.23 0 0 1 0-2.45m7.33 0a1.23 1.23 0 1 1 0 2.45 1.23 1.23 0 0 1 0-2.45m7.32 0a1.23 1.23 0 1 1 0 2.45 1.23 1.23 0 0 1 0-2.45m7.33 0a1.23 1.23 0 1 1 0 2.45 1.23 1.23 0 0 1 0-2.45m7.33 0a1.23 1.23 0 1 1 0 2.45 1.23 1.23 0 0 1 0-2.45m7.33 0a1.23 1.23 0 1 1 0 2.45 1.23 1.23 0 0 1 0-2.45m7.32 0a1.23 1.23 0 1 1 0 2.45 1.23 1.23 0 0 1 0-2.45m7.33 0a1.23 1.23 0 1 1-.47.1q.23-.1.48-.1zm7.33 0a1.23 1.23 0 1 1 0 2.45 1.23 1.23 0 0 1 0-2.45m7.32 0a1.23 1.23 0 1 1 0 2.45 1.23 1.23 0 0 1 0-2.45m7.33 0a1.23 1.23 0 1 1 0 2.45 1.23 1.23 0 0 1 0-2.45m7.32 0a1.23 1.23 0 1 1 0 2.45 1.23 1.23 0 0 1 0-2.45m7.33 0a1.23 1.23 0 1 1 0 2.45 1.23 1.23 0 0 1 0-2.45m7.33 0a1.23 1.23 0 1 1 0 2.45 1.23 1.23 0 0 1 0-2.45m7.32 0a1.23 1.23 0 0 1 .87 2.1 1.23 1.23 0 0 1-2.1-.87 1.2 1.2 0 0 1 .37-.87 1.2 1.2 0 0 1 .86-.36m7.33 0a1.23 1.23 0 0 1 .87 2.1 1.23 1.23 0 0 1-2-1.34 1.2 1.2 0 0 1 1.13-.76m14.66 0a1.23 1.23 0 1 1 0 2.45 1.23 1.23 0 0 1 0-2.45m7.32 0a1.23 1.23 0 0 1 .87 2.1 1.23 1.23 0 0 1-2-1.34 1.2 1.2 0 0 1 1.13-.76m7.33 0a1.23 1.23 0 1 1 0 2.45 1.23 1.23 0 0 1 0-2.45m7.32 0a1.23 1.23 0 1 1 0 2.45 1.23 1.23 0 0 1 0-2.45M-1.2 45.02a1.23 1.23 0 1 1 0 2.45 1.23 1.23 0 0 1 0-2.45m7.33 0a1.23 1.23 0 1 1 0 2.45 1.23 1.23 0 0 1 0-2.45m7.33 0a1.23 1.23 0 1 1 0 2.45 1.23 1.23 0 0 1 0-2.45m7.33 0a1.23 1.23 0 1 1 0 2.45 1.23 1.23 0 0 1 0-2.45m7.32 0a1.23 1.23 0 1 1 0 2.45 1.23 1.23 0 0 1 0-2.45m7.33 0a1.23 1.23 0 1 1 0 2.45 1.23 1.23 0 0 1 0-2.45m7.33 0a1.23 1.23 0 1 1 0 2.45 1.23 1.23 0 0 1 0-2.45m7.32 0a1.23 1.23 0 1 1 0 2.45 1.23 1.23 0 0 1 0-2.45m7.32 0a1.23 1.23 0 1 1 0 2.45 1.23 1.23 0 0 1 0-2.45m7.32 0a1.23 1.23 0 1 1-.46.09q.23-.1.47-.1zm7.33 0a1.23 1.23 0 1 1-.46.09q.23-.1.47-.1zm7.33 0a1.23 1.23 0 1 1-.46.09q.22-.1.47-.1zm7.32 0a1.23 1.23 0 1 1-.46.09q.23-.1.47-.1zm7.33 0a1.23 1.23 0 1 1-.46.09q.23-.1.47-.1zm7.32 0a1.23 1.23 0 1 1-.46.09q.23-.1.48-.1zm7.33 0a1.23 1.23 0 1 1-.46.09q.23-.1.47-.1zm7.33 0a1.23 1.23 0 0 1 .86 2.09 1.23 1.23 0 1 1-.85-2.1zm7.33 0a1.23 1.23 0 0 1 .86 2.09 1.23 1.23 0 1 1-.85-2.1zm7.34 0a1.23 1.23 0 0 1 .86 2.09 1.23 1.23 0 1 1-.87-2.1m7.33 0a1.2 1.2 0 0 1 1.23 1.23 1.2 1.2 0 0 1-.36.87 1.2 1.2 0 0 1-.87.36 1.23 1.23 0 0 1 0-2.45zm7.33 0a1.2 1.2 0 0 1 1.22 1.23 1.2 1.2 0 0 1-.36.87 1.2 1.2 0 0 1-.86.36 1.23 1.23 0 0 1 0-2.45zm7.32 0a1.23 1.23 0 0 1 .87 2.1 1.23 1.23 0 1 1-.87-2.1m7.33 0a1.23 1.23 0 0 1 .87 2.1 1.23 1.23 0 1 1-.87-2.1M2.71 49.06a1.23 1.23 0 1 1 0 2.45 1.23 1.23 0 0 1 0-2.45m7.32 0a1.23 1.23 0 1 1 0 2.45 1.23 1.23 0 0 1 0-2.45m7.33 0a1.23 1.23 0 1 1 0 2.45 1.23 1.23 0 0 1 0-2.45m7.32 0a1.23 1.23 0 1 1 0 2.45 1.23 1.23 0 0 1 0-2.45m7.33 0a1.23 1.23 0 1 1 0 2.45 1.23 1.23 0 0 1 0-2.45m7.33 0a1.23 1.23 0 1 1 0 2.45 1.23 1.23 0 0 1 0-2.45m7.33 0a1.23 1.23 0 1 1 0 2.45 1.23 1.23 0 0 1 0-2.45m7.32 0a1.23 1.23 0 1 1 0 2.45 1.23 1.23 0 0 1 0-2.45m7.33 0a1.23 1.23 0 1 1-.47.09q.23-.1.48-.1zm7.33 0a1.23 1.23 0 1 1 0 2.45 1.23 1.23 0 0 1 0-2.45m7.32 0a1.23 1.23 0 1 1 0 2.45 1.23 1.23 0 0 1 0-2.45m7.33 0a1.23 1.23 0 1 1 0 2.45 1.23 1.23 0 0 1 0-2.45m7.32 0a1.23 1.23 0 1 1 0 2.45 1.23 1.23 0 0 1 0-2.45m7.33 0a1.23 1.23 0 1 1 0 2.45 1.23 1.23 0 0 1 0-2.45m7.33 0a1.23 1.23 0 0 1 .86 2.09 1.23 1.23 0 0 1-2.09-.87 1.2 1.2 0 0 1 .36-.87 1.2 1.2 0 0 1 .87-.36m7.32 0a1.2 1.2 0 0 1 1.23 1.22 1.22 1.22 0 1 1-1.23-1.23m7.33 0a1.2 1.2 0 0 1 1.23 1.23 1.22 1.22 0 1 1-1.23-1.23m7.33 0a1.23 1.23 0 0 1 .86 2.1 1.23 1.23 0 0 1-2.09-.87 1.23 1.23 0 0 1 1.22-1.23zm7.32 0a1.23 1.23 0 0 1 .87 2.1 1.23 1.23 0 0 1-2.1-.87 1.2 1.2 0 0 1 .37-.87 1.2 1.2 0 0 1 .86-.36m7.33 0a1.2 1.2 0 0 1 1.22 1.23 1.22 1.22 0 1 1-1.22-1.23m7.32 0a1.23 1.23 0 0 1 .87 2.1 1.23 1.23 0 0 1-2.09-.87 1.2 1.2 0 0 1 .36-.87 1.2 1.2 0 0 1 .86-.36m7.33 0a1.23 1.23 0 0 1 .87 2.1 1.23 1.23 0 0 1-2.1-.87 1.2 1.2 0 0 1 .37-.87 1.2 1.2 0 0 1 .86-.36m7.33 0a1.2 1.2 0 0 1 1.22 1.23 1.22 1.22 0 1 1-1.22-1.23m-165.09 4a1.23 1.23 0 1 1 0 2.45 1.23 1.23 0 0 1 0-2.45m7.33 0a1.23 1.23 0 1 1 0 2.45 1.23 1.23 0 0 1 0-2.45m7.33 0a1.23 1.23 0 1 1 0 2.45 1.23 1.23 0 0 1 0-2.45m7.33 0a1.23 1.23 0 1 1 0 2.45 1.23 1.23 0 0 1 0-2.45m7.32 0a1.23 1.23 0 1 1 0 2.45 1.23 1.23 0 0 1 0-2.45m7.33 0a1.23 1.23 0 1 1 0 2.45 1.23 1.23 0 0 1 0-2.45m7.33 0a1.23 1.23 0 1 1 0 2.45 1.23 1.23 0 0 1 0-2.45m7.32 0a1.23 1.23 0 1 1 0 2.45 1.23 1.23 0 0 1 0-2.45m7.33 0a1.23 1.23 0 1 1-.01 0zm7.32 0a1.23 1.23 0 1 1 0 2.45 1.23 1.23 0 0 1 0-2.45m7.33 0a1.23 1.23 0 1 1 0 2.45 1.23 1.23 0 0 1 0-2.45m7.33 0a1.23 1.23 0 1 1 0 2.45 1.23 1.23 0 0 1 0-2.45m7.32 0a1.23 1.23 0 1 1 0 2.45 1.23 1.23 0 0 1 0-2.45m7.33 0a1.23 1.23 0 1 1 0 2.45 1.23 1.23 0 0 1 0-2.45m7.33 0a1.23 1.23 0 0 1 .86 2.09 1.23 1.23 0 0 1-2.09-.87 1.2 1.2 0 0 1 1.23-1.22m7.32 0a1.23 1.23 0 0 1 .87 2.09 1.23 1.23 0 0 1-2.1-.87 1.2 1.2 0 0 1 1.23-1.22m7.33 0a1.23 1.23 0 1 1 0 2.45 1.23 1.23 0 0 1 0-2.45m7.33 0a1.23 1.23 0 1 1 0 2.45 1.23 1.23 0 0 1 0-2.45m7.32 0a1.23 1.23 0 0 1 .87 2.09 1.23 1.23 0 0 1-2-1.33 1.2 1.2 0 0 1 .67-.67q.22-.1.47-.1zm7.33 0a1.23 1.23 0 1 1 0 2.45 1.23 1.23 0 0 1 0-2.45m7.33 0a1.23 1.23 0 1 1 0 2.45 1.23 1.23 0 0 1 0-2.45m7.32 0a1.23 1.23 0 0 1 .87 2.09 1.23 1.23 0 0 1-2-1.33 1.2 1.2 0 0 1 1.13-.76m7.33 0a1.23 1.23 0 0 1 .87 2.09 1.23 1.23 0 0 1-2-1.33 1.2 1.2 0 0 1 1.13-.76m7.33 0a1.23 1.23 0 1 1 0 2.45 1.23 1.23 0 0 1 0-2.45M2.7 57.06a1.23 1.23 0 1 1 0 2.45 1.23 1.23 0 0 1 0-2.45m7.32 0a1.23 1.23 0 1 1 0 2.45 1.23 1.23 0 0 1 0-2.45m7.33 0a1.23 1.23 0 1 1 0 2.45 1.23 1.23 0 0 1 0-2.45m7.32 0a1.23 1.23 0 1 1 0 2.45 1.23 1.23 0 0 1 0-2.45m7.33 0a1.23 1.23 0 1 1 0 2.45 1.23 1.23 0 0 1 0-2.45m7.33 0a1.23 1.23 0 1 1 0 2.45 1.23 1.23 0 0 1 0-2.45m7.33 0a1.23 1.23 0 1 1 0 2.45 1.23 1.23 0 0 1 0-2.45m7.32 0a1.23 1.23 0 1 1 0 2.45 1.23 1.23 0 0 1 0-2.45m7.33 0a1.23 1.23 0 1 1-.47.09q.23-.1.48-.1zm7.33 0a1.23 1.23 0 1 1 0 2.45 1.23 1.23 0 0 1 0-2.45m7.32 0a1.23 1.23 0 1 1 0 2.45 1.23 1.23 0 0 1 0-2.45m7.33 0a1.23 1.23 0 1 1 0 2.45 1.23 1.23 0 0 1 0-2.45m7.32 0a1.23 1.23 0 1 1 0 2.45 1.23 1.23 0 0 1 0-2.45m7.33 0a1.23 1.23 0 1 1 0 2.45 1.23 1.23 0 0 1 0-2.45m7.33 0a1.23 1.23 0 0 1 .86 2.09 1.23 1.23 0 0 1-2-1.34 1.2 1.2 0 0 1 1.14-.75m7.32 0a1.2 1.2 0 0 1 1.23 1.22 1.22 1.22 0 1 1-1.23-1.22m7.33 0a1.2 1.2 0 0 1 1.23 1.22 1.22 1.22 0 1 1-1.23-1.22m7.33 0a1.23 1.23 0 0 1 .86 2.09 1.23 1.23 0 0 1-2.09-.87 1.23 1.23 0 0 1 1.22-1.22zm7.32 0a1.23 1.23 0 0 1 .87 2.09 1.23 1.23 0 0 1-2-1.34 1.2 1.2 0 0 1 1.13-.75m7.33 0a1.2 1.2 0 0 1 1.23 1.22 1.22 1.22 0 1 1-1.23-1.22m7.33 0a1.23 1.23 0 0 1 .86 2.09 1.23 1.23 0 0 1-2-1.34 1.2 1.2 0 0 1 1.13-.75m7.33 0a1.23 1.23 0 0 1 .87 2.09 1.23 1.23 0 0 1-2-1.34 1.2 1.2 0 0 1 1.13-.75m7.33 0a1.2 1.2 0 0 1 1.22 1.22 1.22 1.22 0 1 1-1.22-1.22m-165.08 4a1.23 1.23 0 1 1 0 2.44 1.23 1.23 0 0 1 0-2.45m7.32 0a1.23 1.23 0 1 1 0 2.45 1.23 1.23 0 0 1 0-2.45m7.33 0a1.23 1.23 0 1 1 0 2.45 1.23 1.23 0 0 1 0-2.45m7.33 0a1.23 1.23 0 1 1 0 2.45 1.23 1.23 0 0 1 0-2.45m7.32 0a1.23 1.23 0 1 1 0 2.45 1.23 1.23 0 0 1 0-2.45m7.33 0a1.23 1.23 0 1 1 0 2.45 1.23 1.23 0 0 1 0-2.45m7.33 0a1.23 1.23 0 1 1 0 2.45 1.23 1.23 0 0 1 0-2.45m7.32 0a1.23 1.23 0 1 1 0 2.45 1.23 1.23 0 0 1 0-2.45m7.33 0a1.23 1.23 0 1 1-.01 0zm7.32 0a1.23 1.23 0 1 1 0 2.45 1.23 1.23 0 0 1 0-2.45m7.33 0a1.23 1.23 0 1 1 0 2.45 1.23 1.23 0 0 1 0-2.45m7.33 0a1.23 1.23 0 1 1 0 2.45 1.23 1.23 0 0 1 0-2.45m7.32 0a1.23 1.23 0 1 1 0 2.45 1.23 1.23 0 0 1 0-2.45m7.33 0a1.23 1.23 0 1 1 0 2.45 1.23 1.23 0 0 1 0-2.45m7.33 0a1.23 1.23 0 1 1 0 2.45 1.23 1.23 0 0 1 0-2.45m7.33 0a1.23 1.23 0 1 1 0 2.45 1.23 1.23 0 0 1 0-2.45m7.32 0a1.23 1.23 0 0 1 .87 2.1 1.23 1.23 0 0 1-2.1-.87 1.2 1.2 0 0 1 1.23-1.23m7.33 0a1.2 1.2 0 0 1 1.22 1.23 1.22 1.22 0 1 1-1.22-1.23m7.32 0a1.23 1.23 0 0 1 .87 2.1 1.23 1.23 0 0 1-2.1-.87 1.2 1.2 0 0 1 .37-.87 1.2 1.2 0 0 1 .87-.36zm7.33 0a1.2 1.2 0 0 1 1.22 1.23 1.22 1.22 0 1 1-1.22-1.23m7.33 0a1.2 1.2 0 0 1 1.22 1.23 1.22 1.22 0 1 1-1.22-1.23m7.32 0a1.23 1.23 0 0 1 .87 2.1 1.23 1.23 0 0 1-2.1-.87 1.2 1.2 0 0 1 .37-.87 1.2 1.2 0 0 1 .86-.36m7.33 0a1.23 1.23 0 0 1 .87 2.1 1.23 1.23 0 0 1-2.1-.87 1.2 1.2 0 0 1 .36-.87 1.2 1.2 0 0 1 .87-.36M2.71 65.07a1.23 1.23 0 1 1 0 2.45 1.23 1.23 0 0 1 0-2.45m7.32 0a1.23 1.23 0 1 1 0 2.45 1.23 1.23 0 0 1 0-2.45m7.33 0a1.23 1.23 0 1 1 0 2.45 1.23 1.23 0 0 1 0-2.45m7.32 0a1.23 1.23 0 1 1 0 2.45 1.23 1.23 0 0 1 0-2.45m7.33 0a1.23 1.23 0 1 1 0 2.45 1.23 1.23 0 0 1 0-2.45m7.33 0a1.23 1.23 0 1 1 0 2.45 1.23 1.23 0 0 1 0-2.45m7.33 0a1.23 1.23 0 1 1 0 2.45 1.23 1.23 0 0 1 0-2.45m7.32 0a1.23 1.23 0 1 1 0 2.45 1.23 1.23 0 0 1 0-2.45m7.33 0a1.23 1.23 0 1 1-.47.09q.23-.09.48-.09zm7.33 0a1.23 1.23 0 1 1 0 2.45 1.23 1.23 0 0 1 0-2.45m7.32 0a1.23 1.23 0 1 1 0 2.45 1.23 1.23 0 0 1 0-2.45m7.33 0a1.23 1.23 0 1 1 0 2.45 1.23 1.23 0 0 1 0-2.45m7.32 0a1.23 1.23 0 1 1 0 2.45 1.23 1.23 0 0 1 0-2.45m7.33 0a1.23 1.23 0 1 1 0 2.45 1.23 1.23 0 0 1 0-2.45m7.33 0a1.23 1.23 0 0 1 .86 2.1 1.23 1.23 0 0 1-2.09-.87 1.2 1.2 0 0 1 .36-.87 1.2 1.2 0 0 1 .87-.36m7.32 0a1.2 1.2 0 0 1 1.23 1.23 1.22 1.22 0 1 1-1.23-1.23m7.33 0a1.2 1.2 0 0 1 1.23 1.23 1.22 1.22 0 0 1-2.1.86 1.23 1.23 0 0 1 0-1.73 1.2 1.2 0 0 1 .87-.36m7.33 0a1.23 1.23 0 0 1 .86 2.1 1.23 1.23 0 0 1-2.09-.87 1.23 1.23 0 0 1 1.22-1.23zm7.32 0a1.23 1.23 0 0 1 .87 2.1 1.23 1.23 0 0 1-2.1-.87 1.2 1.2 0 0 1 .37-.87 1.2 1.2 0 0 1 .86-.36m7.33 0a1.2 1.2 0 0 1 1.22 1.23 1.22 1.22 0 0 1-2.09.86 1.23 1.23 0 0 1 0-1.73 1.2 1.2 0 0 1 .87-.36m7.32 0a1.23 1.23 0 0 1 .87 2.1 1.23 1.23 0 0 1-2.09-.87 1.2 1.2 0 0 1 .36-.87 1.2 1.2 0 0 1 .86-.36m7.33 0a1.23 1.23 0 0 1 .87 2.1 1.23 1.23 0 0 1-2.1-.87 1.2 1.2 0 0 1 .37-.87 1.2 1.2 0 0 1 .86-.36m7.33 0a1.2 1.2 0 0 1 1.22 1.23 1.22 1.22 0 0 1-2.09.86 1.23 1.23 0 0 1 0-1.73 1.2 1.2 0 0 1 .87-.36m-165.08 4a1.23 1.23 0 1 1 0 2.45 1.23 1.23 0 0 1 0-2.45m7.32 0a1.23 1.23 0 1 1 0 2.45 1.23 1.23 0 0 1 0-2.45m7.33 0a1.23 1.23 0 1 1 0 2.45 1.23 1.23 0 0 1 0-2.45m7.33 0a1.23 1.23 0 1 1 0 2.45 1.23 1.23 0 0 1 0-2.45m7.32 0a1.23 1.23 0 1 1 0 2.45 1.23 1.23 0 0 1 0-2.45m7.33 0a1.23 1.23 0 1 1 0 2.45 1.23 1.23 0 0 1 0-2.45m7.33 0a1.23 1.23 0 1 1 0 2.45 1.23 1.23 0 0 1 0-2.45m7.32 0a1.23 1.23 0 1 1 0 2.45 1.23 1.23 0 0 1 0-2.45m7.33 0a1.23 1.23 0 1 1-.01 0zm7.32 0a1.23 1.23 0 1 1 0 2.45 1.23 1.23 0 0 1 0-2.45m7.33 0a1.23 1.23 0 1 1 0 2.45 1.23 1.23 0 0 1 0-2.45m7.33 0a1.23 1.23 0 1 1 0 2.45 1.23 1.23 0 0 1 0-2.45m7.32 0a1.23 1.23 0 1 1 0 2.45 1.23 1.23 0 0 1 0-2.45m7.33 0a1.23 1.23 0 1 1 0 2.45 1.23 1.23 0 0 1 0-2.45m7.33 0a1.23 1.23 0 1 1 0 2.44 1.23 1.23 0 0 1 0-2.45Zm7.33 0a1.23 1.23 0 1 1 0 2.45 1.23 1.23 0 0 1 0-2.45m7.32 0a1.23 1.23 0 0 1 .87 2.09 1.23 1.23 0 0 1-2.1-.87 1.2 1.2 0 0 1 1.23-1.23m7.33 0a1.2 1.2 0 0 1 1.22 1.23 1.22 1.22 0 1 1-1.22-1.23m7.32 0a1.23 1.23 0 0 1 .87 2.1 1.23 1.23 0 0 1-2.1-.87 1.2 1.2 0 0 1 .37-.87 1.2 1.2 0 0 1 .87-.36zm7.33 0a1.2 1.2 0 0 1 1.22 1.23 1.22 1.22 0 1 1-1.22-1.23m7.33 0a1.2 1.2 0 0 1 1.22 1.23 1.22 1.22 0 1 1-1.22-1.23m7.32 0a1.23 1.23 0 0 1 .87 2.1 1.23 1.23 0 0 1-2-1.34 1.2 1.2 0 0 1 1.13-.75m7.33 0a1.23 1.23 0 0 1 .87 2.09 1.23 1.23 0 0 1-2-1.34 1.2 1.2 0 0 1 1.13-.75M2.71 73.08a1.23 1.23 0 1 1 0 2.46 1.23 1.23 0 0 1 0-2.46m7.32 0a1.23 1.23 0 1 1 0 2.46 1.23 1.23 0 0 1 0-2.46m7.33 0a1.23 1.23 0 1 1 0 2.46 1.23 1.23 0 0 1 0-2.46m7.32 0a1.23 1.23 0 1 1 0 2.46 1.23 1.23 0 0 1 0-2.46m7.33 0a1.23 1.23 0 1 1 0 2.45 1.23 1.23 0 0 1 0-2.45m7.33 0a1.23 1.23 0 1 1 0 2.46 1.23 1.23 0 0 1 0-2.46m7.33 0a1.23 1.23 0 1 1 0 2.46 1.23 1.23 0 0 1 0-2.46m7.32 0a1.23 1.23 0 1 1 0 2.46 1.23 1.23 0 0 1 0-2.46m7.33 0a1.23 1.23 0 1 1-.47.1q.23-.1.48-.1zm7.33 0a1.23 1.23 0 1 1 0 2.46 1.23 1.23 0 0 1 0-2.46m7.32 0a1.23 1.23 0 1 1 0 2.46 1.23 1.23 0 0 1 0-2.46m7.33 0a1.23 1.23 0 1 1 0 2.46 1.23 1.23 0 0 1 0-2.46m7.32 0a1.23 1.23 0 1 1 0 2.46 1.23 1.23 0 0 1 0-2.46m7.33 0a1.23 1.23 0 1 1 0 2.46 1.23 1.23 0 0 1 0-2.46m7.33 0a1.23 1.23 0 1 1 0 2.45 1.23 1.23 0 0 1 0-2.45m7.32 0a1.23 1.23 0 0 1 1.23 1.23 1.22 1.22 0 1 1-1.23-1.23m7.33 0a1.23 1.23 0 0 1 1.23 1.23 1.22 1.22 0 1 1-1.23-1.23m14.65 0a1.23 1.23 0 1 1 0 2.45 1.23 1.23 0 0 1 0-2.45m7.33 0a1.23 1.23 0 0 1 1.23 1.23 1.23 1.23 0 0 1-1.23 1.22 1.22 1.22 0 0 1-1.13-1.69 1.2 1.2 0 0 1 1.13-.76m7.33 0a1.23 1.23 0 1 1 0 2.45 1.23 1.23 0 0 1 0-2.45m7.32 0a1.23 1.23 0 1 1 0 2.45 1.23 1.23 0 0 1 0-2.45m-157.75 4a1.23 1.23 0 1 1 0 2.45 1.23 1.23 0 0 1 0-2.45m7.32 0a1.23 1.23 0 1 1 0 2.45 1.23 1.23 0 0 1 0-2.45m7.33 0a1.23 1.23 0 1 1 0 2.45 1.23 1.23 0 0 1 0-2.45m7.33 0a1.23 1.23 0 1 1 0 2.45 1.23 1.23 0 0 1 0-2.45m7.32 0a1.23 1.23 0 1 1 0 2.45 1.23 1.23 0 0 1 0-2.45m7.33 0a1.23 1.23 0 1 1 0 2.45 1.23 1.23 0 0 1 0-2.45m7.33 0a1.23 1.23 0 1 1 0 2.45 1.23 1.23 0 0 1 0-2.45m7.32 0a1.23 1.23 0 1 1 0 2.45 1.23 1.23 0 0 1 0-2.45m7.33 0a1.23 1.23 0 1 1-.01 0zm7.33 0a1.23 1.23 0 1 1 0 2.45 1.23 1.23 0 0 1 0-2.45m7.32 0a1.23 1.23 0 1 1 0 2.45 1.23 1.23 0 0 1 0-2.45m7.33 0a1.23 1.23 0 1 1 0 2.45 1.23 1.23 0 0 1 0-2.45m7.32 0a1.23 1.23 0 1 1 0 2.45 1.23 1.23 0 0 1 0-2.45m7.33 0a1.23 1.23 0 1 1 0 2.45 1.23 1.23 0 0 1 0-2.45m7.33 0a1.23 1.23 0 0 1 .86 2.09 1.23 1.23 0 0 1-2.09-.87 1.2 1.2 0 0 1 1.23-1.22m7.33 0a1.23 1.23 0 0 1 .86 2.09 1.23 1.23 0 0 1-2.09-.87 1.2 1.2 0 0 1 1.23-1.22m7.32 0a1.23 1.23 0 1 1 0 2.45 1.23 1.23 0 0 1 0-2.45m7.33 0a1.23 1.23 0 1 1 0 2.45 1.23 1.23 0 0 1 0-2.45m7.32 0a1.23 1.23 0 0 1 .87 2.09 1.23 1.23 0 0 1-2-1.34 1.2 1.2 0 0 1 1.14-.75zm7.33 0a1.23 1.23 0 1 1 0 2.45 1.23 1.23 0 0 1 0-2.45m7.33 0a1.23 1.23 0 1 1 0 2.45 1.23 1.23 0 0 1 0-2.45m7.32 0a1.23 1.23 0 0 1 .87 2.09 1.23 1.23 0 0 1-2-1.34 1.2 1.2 0 0 1 1.13-.75M2.71 81.1a1.23 1.23 0 1 1 0 2.45 1.23 1.23 0 0 1 0-2.45m7.32 0a1.23 1.23 0 1 1 0 2.45 1.23 1.23 0 0 1 0-2.45m7.33 0a1.23 1.23 0 1 1 0 2.45 1.23 1.23 0 0 1 0-2.45m7.32 0a1.23 1.23 0 1 1 0 2.45 1.23 1.23 0 0 1 0-2.45m7.33 0a1.23 1.23 0 1 1 0 2.45 1.23 1.23 0 0 1 0-2.45m7.33 0a1.23 1.23 0 1 1 0 2.45 1.23 1.23 0 0 1 0-2.45m7.33 0a1.23 1.23 0 1 1 0 2.45 1.23 1.23 0 0 1 0-2.45m7.32 0a1.23 1.23 0 1 1 0 2.45 1.23 1.23 0 0 1 0-2.45m7.33 0a1.23 1.23 0 1 1-.47.09q.23-.1.48-.09zm7.33 0a1.23 1.23 0 1 1 0 2.45 1.23 1.23 0 0 1 0-2.45m7.32 0a1.23 1.23 0 1 1 0 2.45 1.23 1.23 0 0 1 0-2.45m7.33 0a1.23 1.23 0 1 1 0 2.45 1.23 1.23 0 0 1 0-2.45m7.32 0a1.23 1.23 0 1 1 0 2.45 1.23 1.23 0 0 1 0-2.45m7.33 0a1.23 1.23 0 1 1 0 2.45 1.23 1.23 0 0 1 0-2.45m7.33 0a1.23 1.23 0 1 1 0 2.45 1.23 1.23 0 0 1 0-2.45m7.32 0a1.23 1.23 0 0 1 .87 2.09 1.23 1.23 0 0 1-2.1-.87 1.2 1.2 0 0 1 .37-.86 1.2 1.2 0 0 1 .86-.36m7.33 0a1.23 1.23 0 0 1 .87 2.09 1.23 1.23 0 0 1-2-1.33 1.2 1.2 0 0 1 1.13-.76m14.65 0a1.23 1.23 0 1 1 0 2.45 1.23 1.23 0 0 1 0-2.45m7.33 0a1.23 1.23 0 0 1 .87 2.09 1.23 1.23 0 0 1-2-1.33 1.2 1.2 0 0 1 1.13-.76m7.33 0a1.23 1.23 0 1 1 0 2.45 1.23 1.23 0 0 1 0-2.45m7.32 0a1.23 1.23 0 1 1 0 2.45 1.23 1.23 0 0 1 0-2.45m-157.75 4a1.23 1.23 0 1 1 0 2.44 1.23 1.23 0 0 1 0-2.45m7.32 0a1.23 1.23 0 1 1 0 2.44 1.23 1.23 0 0 1 0-2.45m7.33 0a1.23 1.23 0 1 1 0 2.44 1.23 1.23 0 0 1 0-2.45m7.33 0a1.23 1.23 0 1 1 0 2.44 1.23 1.23 0 0 1 0-2.45m7.32 0a1.23 1.23 0 1 1 0 2.46 1.23 1.23 0 0 1 0-2.46m7.33 0a1.23 1.23 0 1 1 0 2.45 1.23 1.23 0 0 1 0-2.45m7.33 0a1.23 1.23 0 1 1 0 2.45 1.23 1.23 0 0 1 0-2.45m7.32 0a1.23 1.23 0 1 1 0 2.45 1.23 1.23 0 0 1 0-2.45m7.33 0a1.23 1.23 0 1 1-.01 0zm7.33 0a1.23 1.23 0 1 1 0 2.45 1.23 1.23 0 0 1 0-2.45m7.32 0a1.23 1.23 0 1 1 0 2.45 1.23 1.23 0 0 1 0-2.45m7.33 0a1.23 1.23 0 1 1 0 2.45 1.23 1.23 0 0 1 0-2.45m7.32 0a1.23 1.23 0 1 1 0 2.45 1.23 1.23 0 0 1 0-2.45m7.33 0a1.23 1.23 0 1 1 0 2.45 1.23 1.23 0 0 1 0-2.45m7.33 0a1.23 1.23 0 0 1 1.22 1.23 1.22 1.22 0 0 1-2.09.87 1.22 1.22 0 0 1 .87-2.1m7.33 0a1.23 1.23 0 0 1 1.22 1.23 1.22 1.22 0 0 1-2.1.87 1.22 1.22 0 0 1 .88-2.1m7.32 0a1.23 1.23 0 1 1 0 2.45 1.23 1.23 0 0 1 0-2.45m7.33 0a1.23 1.23 0 1 1 0 2.45 1.23 1.23 0 0 1 0-2.45m7.32 0a1.23 1.23 0 0 1 1.23 1.23 1.22 1.22 0 0 1-2.1.87 1.22 1.22 0 0 1 .88-2.1zm7.33 0a1.23 1.23 0 1 1 0 2.45 1.23 1.23 0 0 1 0-2.45m7.33 0a1.23 1.23 0 1 1 0 2.45 1.23 1.23 0 0 1 0-2.45m7.32 0a1.23 1.23 0 0 1 1.23 1.23 1.22 1.22 0 0 1-2.1.87 1.22 1.22 0 0 1 .87-2.1M2.71 89.11a1.23 1.23 0 1 1 0 2.45 1.23 1.23 0 0 1 0-2.45m7.32 0a1.23 1.23 0 1 1 0 2.45 1.23 1.23 0 0 1 0-2.45m7.33 0a1.23 1.23 0 1 1 0 2.45 1.23 1.23 0 0 1 0-2.45m7.32 0a1.23 1.23 0 1 1 0 2.45 1.23 1.23 0 0 1 0-2.45m7.33 0a1.23 1.23 0 1 1 0 2.45 1.23 1.23 0 0 1 0-2.45m7.33 0a1.23 1.23 0 1 1 0 2.45 1.23 1.23 0 0 1 0-2.45m7.33 0a1.23 1.23 0 1 1 0 2.45 1.23 1.23 0 0 1 0-2.45m7.32 0a1.23 1.23 0 1 1 0 2.45 1.23 1.23 0 0 1 0-2.45m7.33 0a1.23 1.23 0 1 1-.47.1q.23-.1.48-.1zm7.33 0a1.23 1.23 0 1 1 0 2.45 1.23 1.23 0 0 1 0-2.45m7.32 0a1.23 1.23 0 1 1 0 2.45 1.23 1.23 0 0 1 0-2.45m7.33 0a1.23 1.23 0 1 1 0 2.45 1.23 1.23 0 0 1 0-2.45m7.32 0a1.23 1.23 0 1 1 0 2.45 1.23 1.23 0 0 1 0-2.45m7.33 0a1.23 1.23 0 1 1 0 2.45 1.23 1.23 0 0 1 0-2.45m7.33 0a1.23 1.23 0 1 1 0 2.45 1.23 1.23 0 0 1 0-2.45m7.32 0a1.23 1.23 0 0 1 .87 2.1 1.23 1.23 0 0 1-2.1-.87 1.2 1.2 0 0 1 .37-.87 1.2 1.2 0 0 1 .86-.36m7.33 0a1.23 1.23 0 0 1 .87 2.1 1.23 1.23 0 0 1-2-1.34 1.2 1.2 0 0 1 1.13-.76m14.66 0a1.23 1.23 0 1 1 0 2.45 1.23 1.23 0 0 1 0-2.45m7.32 0a1.23 1.23 0 0 1 .87 2.1 1.23 1.23 0 0 1-2-1.34 1.2 1.2 0 0 1 1.13-.76m7.33 0a1.23 1.23 0 1 1 0 2.45 1.23 1.23 0 0 1 0-2.45m7.32 0a1.23 1.23 0 1 1 0 2.45 1.23 1.23 0 0 1 0-2.45m-157.75 4a1.23 1.23 0 1 1 0 2.44 1.23 1.23 0 0 1 0-2.45m7.32 0a1.23 1.23 0 1 1 0 2.45 1.23 1.23 0 0 1 0-2.45m7.33 0a1.23 1.23 0 1 1 0 2.45 1.23 1.23 0 0 1 0-2.45m7.33 0a1.23 1.23 0 1 1 0 2.45 1.23 1.23 0 0 1 0-2.45m7.32 0a1.23 1.23 0 1 1 0 2.45 1.23 1.23 0 0 1 0-2.45m7.33 0a1.23 1.23 0 1 1 0 2.45 1.23 1.23 0 0 1 0-2.45m7.33 0a1.23 1.23 0 1 1 0 2.45 1.23 1.23 0 0 1 0-2.45m7.32 0a1.23 1.23 0 1 1 0 2.45 1.23 1.23 0 0 1 0-2.45m7.33 0a1.23 1.23 0 1 1-.01 0zm7.32 0a1.23 1.23 0 1 1 0 2.45 1.23 1.23 0 0 1 0-2.45m7.33 0a1.23 1.23 0 1 1 0 2.45 1.23 1.23 0 0 1 0-2.45m7.33 0a1.23 1.23 0 1 1 0 2.45 1.23 1.23 0 0 1 0-2.45m7.32 0a1.23 1.23 0 1 1 0 2.45 1.23 1.23 0 0 1 0-2.45m7.33 0a1.23 1.23 0 1 1 0 2.45 1.23 1.23 0 0 1 0-2.45m7.33 0a1.23 1.23 0 1 1 0 2.45 1.23 1.23 0 0 1 0-2.45m7.33 0a1.23 1.23 0 1 1 0 2.46 1.23 1.23 0 0 1 0-2.46m7.32 0a1.23 1.23 0 0 1 .87 2.1 1.23 1.23 0 0 1-2.1-.87 1.2 1.2 0 0 1 1.23-1.23m7.33 0a1.2 1.2 0 0 1 1.22 1.23 1.22 1.22 0 1 1-1.22-1.23m7.32 0a1.23 1.23 0 0 1 .87 2.1 1.23 1.23 0 0 1-2.1-.87 1.2 1.2 0 0 1 .37-.87 1.2 1.2 0 0 1 .87-.36zm7.33 0a1.2 1.2 0 0 1 1.22 1.23 1.22 1.22 0 1 1-1.22-1.23m7.33 0a1.2 1.2 0 0 1 1.22 1.23 1.22 1.22 0 1 1-1.22-1.23m7.32 0a1.23 1.23 0 0 1 .87 2.1 1.23 1.23 0 0 1-2.1-.87 1.2 1.2 0 0 1 .37-.87 1.2 1.2 0 0 1 .86-.36m7.33 0a1.23 1.23 0 0 1 .87 2.1 1.23 1.23 0 0 1-2.1-.87 1.2 1.2 0 0 1 .36-.87 1.2 1.2 0 0 1 .87-.36M2.71 97.13a1.23 1.23 0 1 1 0 2.45 1.23 1.23 0 0 1 0-2.46m7.32 0a1.23 1.23 0 1 1 0 2.46 1.23 1.23 0 0 1 0-2.46m7.33 0a1.23 1.23 0 1 1 0 2.46 1.23 1.23 0 0 1 0-2.46m7.32 0a1.23 1.23 0 1 1 0 2.46 1.23 1.23 0 0 1 0-2.46m7.33 0a1.23 1.23 0 1 1 0 2.45 1.23 1.23 0 0 1 0-2.44m7.33 0a1.23 1.23 0 1 1 0 2.45 1.23 1.23 0 0 1 0-2.46m7.33 0a1.23 1.23 0 1 1 0 2.46 1.23 1.23 0 0 1 0-2.46m7.32 0a1.23 1.23 0 1 1 0 2.46 1.23 1.23 0 0 1 0-2.46m7.33 0a1.23 1.23 0 1 1-.47.1q.23-.1.48-.1zm7.33 0a1.23 1.23 0 1 1 0 2.46 1.23 1.23 0 0 1 0-2.46m7.32 0a1.23 1.23 0 1 1 0 2.46 1.23 1.23 0 0 1 0-2.46m7.33 0a1.23 1.23 0 1 1 0 2.46 1.23 1.23 0 0 1 0-2.46m7.32 0a1.23 1.23 0 1 1 0 2.46 1.23 1.23 0 0 1 0-2.46m7.33 0a1.23 1.23 0 1 1 0 2.46 1.23 1.23 0 0 1 0-2.46m7.33 0a1.23 1.23 0 1 1 0 2.45 1.23 1.23 0 0 1 0-2.44m7.32 0a1.23 1.23 0 0 1 1.23 1.22 1.22 1.22 0 1 1-1.23-1.23m7.33 0a1.23 1.23 0 0 1 1.23 1.23 1.22 1.22 0 1 1-1.23-1.23m14.65 0a1.23 1.23 0 1 1 0 2.45 1.23 1.23 0 0 1 0-2.44m7.33 0a1.23 1.23 0 0 1 1.23 1.22 1.23 1.23 0 0 1-1.23 1.23 1.22 1.22 0 0 1-1.13-1.7 1.2 1.2 0 0 1 1.13-.76m7.33 0a1.23 1.23 0 1 1 0 2.45 1.23 1.23 0 0 1 0-2.45m7.32 0a1.23 1.23 0 1 1 0 2.45 1.23 1.23 0 0 1 0-2.45m-157.76 4a1.23 1.23 0 1 1 0 2.45 1.23 1.23 0 0 1 0-2.45m7.33 0a1.23 1.23 0 1 1 0 2.45 1.23 1.23 0 0 1 0-2.45m7.33 0a1.23 1.23 0 1 1 0 2.45 1.23 1.23 0 0 1 0-2.45m7.33 0a1.23 1.23 0 1 1 0 2.45 1.23 1.23 0 0 1 0-2.45m7.32 0a1.23 1.23 0 1 1 0 2.45 1.23 1.23 0 0 1 0-2.45m7.33 0a1.23 1.23 0 1 1 0 2.45 1.23 1.23 0 0 1 0-2.45m7.32 0a1.23 1.23 0 1 1 0 2.45 1.23 1.23 0 0 1 0-2.45m7.33 0a1.23 1.23 0 1 1 0 2.45 1.23 1.23 0 0 1 0-2.45m7.33 0a1.23 1.23 0 1 1-.01 0zm7.32 0a1.23 1.23 0 1 1 0 2.45 1.23 1.23 0 0 1 0-2.45m7.33 0a1.23 1.23 0 1 1 0 2.45 1.23 1.23 0 0 1 0-2.45m7.33 0a1.23 1.23 0 1 1 0 2.45 1.23 1.23 0 0 1 0-2.45m7.32 0a1.23 1.23 0 1 1 0 2.45 1.23 1.23 0 0 1 0-2.45m7.33 0a1.23 1.23 0 1 1 0 2.45 1.23 1.23 0 0 1 0-2.45m7.33 0a1.22 1.22 0 1 1-.87 2.09 1.2 1.2 0 0 1 0-1.73q.36-.35.87-.36m7.32 0a1.23 1.23 0 1 1 0 2.45 1.23 1.23 0 0 1 0-2.45m7.33 0a1.23 1.23 0 1 1 0 2.45 1.23 1.23 0 0 1 0-2.45m7.33 0a1.2 1.2 0 0 1 1.22 1.22 1.2 1.2 0 0 1-1.22 1.23 1.23 1.23 0 1 1 0-2.45m7.32 0a1.23 1.23 0 1 1-.46.1q.21-.1.47-.1zm7.33 0a1.2 1.2 0 0 1 1.22 1.22 1.2 1.2 0 0 1-1.22 1.23 1.23 1.23 0 1 1 0-2.45m7.33 0a1.2 1.2 0 0 1 1.22 1.22 1.2 1.2 0 0 1-1.22 1.23 1.23 1.23 0 1 1 0-2.45m7.32 0a1.23 1.23 0 1 1 0 2.45 1.23 1.23 0 0 1 0-2.45m7.33 0a1.23 1.23 0 1 1 0 2.45 1.23 1.23 0 0 1 0-2.45M2.71 105.14a1.23 1.23 0 1 1 0 2.45 1.23 1.23 0 0 1 0-2.45m7.32 0a1.23 1.23 0 1 1 0 2.45 1.23 1.23 0 0 1 0-2.45m7.33 0a1.23 1.23 0 1 1 0 2.45 1.23 1.23 0 0 1 0-2.45m7.32 0a1.23 1.23 0 1 1 0 2.45 1.23 1.23 0 0 1 0-2.45m7.33 0a1.22 1.22 0 1 1 0 2.45 1.22 1.22 0 0 1 0-2.45m7.33 0a1.23 1.23 0 1 1 0 2.45 1.23 1.23 0 0 1 0-2.45m7.33 0a1.23 1.23 0 1 1 0 2.45 1.23 1.23 0 0 1 0-2.45m7.32 0a1.23 1.23 0 1 1 0 2.45 1.23 1.23 0 0 1 0-2.45m7.33 0a1.22 1.22 0 1 1-.47.09q.23-.1.48-.1zm7.33 0a1.23 1.23 0 1 1 0 2.45 1.23 1.23 0 0 1 0-2.45m7.32 0a1.23 1.23 0 1 1 0 2.45 1.23 1.23 0 0 1 0-2.45m7.33 0a1.23 1.23 0 1 1 0 2.45 1.23 1.23 0 0 1 0-2.45m7.32 0a1.23 1.23 0 1 1 0 2.45 1.23 1.23 0 0 1 0-2.45m7.33 0a1.23 1.23 0 1 1 0 2.45 1.23 1.23 0 0 1 0-2.45m7.33 0a1.22 1.22 0 1 1-.87 2.09 1.22 1.22 0 0 1 .4-2q.22-.1.47-.1m7.32 0a1.23 1.23 0 1 1 0 2.46 1.23 1.23 0 0 1 0-2.45m7.33 0a1.23 1.23 0 1 1 0 2.45 1.23 1.23 0 0 1 0-2.45m7.33 0a1.22 1.22 0 1 1-.87 2.09 1.2 1.2 0 0 1 0-1.73q.36-.35.86-.36zm7.32 0a1.22 1.22 0 1 1-.86 2.09 1.22 1.22 0 0 1 .4-2q.22-.1.46-.1m7.33 0a1.23 1.23 0 1 1 0 2.46 1.23 1.23 0 0 1 0-2.45m7.33 0a1.22 1.22 0 1 1-.87 2.09 1.22 1.22 0 0 1 .4-2q.21-.1.47-.1m7.32 0a1.22 1.22 0 1 1-.86 2.1 1.22 1.22 0 0 1 .4-2q.22-.1.46-.1m-157.76 4a1.23 1.23 0 1 1 0 2.45 1.23 1.23 0 0 1 0-2.45m7.33 0a1.23 1.23 0 1 1 0 2.45 1.23 1.23 0 0 1 0-2.45m7.33 0a1.23 1.23 0 1 1 0 2.45 1.23 1.23 0 0 1 0-2.45m7.33 0a1.23 1.23 0 1 1 0 2.45 1.23 1.23 0 0 1 0-2.45m7.32 0a1.23 1.23 0 1 1 0 2.45 1.23 1.23 0 0 1 0-2.45m7.33 0a1.23 1.23 0 1 1 0 2.45 1.23 1.23 0 0 1 0-2.45m7.32 0a1.23 1.23 0 1 1 0 2.45 1.23 1.23 0 0 1 0-2.45m7.33 0a1.23 1.23 0 1 1 0 2.45 1.23 1.23 0 0 1 0-2.45m7.33 0a1.23 1.23 0 1 1-.01 0zm7.32 0a1.23 1.23 0 1 1 0 2.45 1.23 1.23 0 0 1 0-2.45m7.33 0a1.23 1.23 0 1 1 0 2.45 1.23 1.23 0 0 1 0-2.45m7.33 0a1.23 1.23 0 1 1 0 2.45 1.23 1.23 0 0 1 0-2.45m7.32 0a1.23 1.23 0 1 1 0 2.45 1.23 1.23 0 0 1 0-2.45m7.33 0a1.23 1.23 0 1 1 0 2.45 1.23 1.23 0 0 1 0-2.45m7.33 0a1.22 1.22 0 0 1 .86 2.1 1.23 1.23 0 0 1-1.73 0 1.23 1.23 0 0 1 .87-2.1m7.32 0a1.23 1.23 0 1 1 0 2.45 1.23 1.23 0 0 1 0-2.45m7.33 0a1.23 1.23 0 1 1 0 2.45 1.23 1.23 0 0 1 0-2.45m7.33 0a1.2 1.2 0 0 1 1.22 1.23 1.23 1.23 0 1 1-1.22-1.23m7.32 0a1.23 1.23 0 1 1-.46.1q.21-.1.47-.1zm7.33 0a1.2 1.2 0 0 1 1.22 1.23 1.23 1.23 0 1 1-1.22-1.23m7.33 0a1.2 1.2 0 0 1 1.22 1.23 1.23 1.23 0 1 1-1.22-1.23m7.32 0a1.23 1.23 0 1 1 0 2.45 1.23 1.23 0 0 1 0-2.45m7.33 0a1.23 1.23 0 1 1 0 2.45 1.23 1.23 0 0 1 0-2.45M2.71 113.14a1.23 1.23 0 1 1 0 2.45 1.23 1.23 0 0 1 0-2.45m7.32 0a1.23 1.23 0 1 1 0 2.45 1.23 1.23 0 0 1 0-2.45m7.33 0a1.23 1.23 0 1 1 0 2.45 1.23 1.23 0 0 1 0-2.45m7.32 0a1.23 1.23 0 1 1 0 2.45 1.23 1.23 0 0 1 0-2.45m7.33 0a1.23 1.23 0 1 1 0 2.45 1.23 1.23 0 0 1 0-2.45m7.33 0a1.23 1.23 0 1 1 0 2.45 1.23 1.23 0 0 1 0-2.45m7.33 0a1.23 1.23 0 1 1 0 2.45 1.23 1.23 0 0 1 0-2.45m7.32 0a1.23 1.23 0 1 1 0 2.45 1.23 1.23 0 0 1 0-2.45m7.34 0a1.23 1.23 0 1 1 0 2.45 1.23 1.23 0 0 1 0-2.45m7.33 0a1.23 1.23 0 1 1-.01 0zm14.65 0a1.23 1.23 0 1 1-.01 0zm14.65 0a1.23 1.23 0 1 1-.01 0zm7.33 0a1.23 1.23 0 1 1-.01 0zm7.32 0a1.22 1.22 0 1 1-.86 2.1 1.2 1.2 0 0 1 0-1.74q.35-.35.85-.36zm7.33 0a1.22 1.22 0 1 1-.87 2.1 1.2 1.2 0 0 1 0-1.74q.36-.35.86-.36zm7.31 0a1.22 1.22 0 1 1-.86 2.1 1.2 1.2 0 0 1 0-1.74q.36-.35.86-.36m7.33 0a1.22 1.22 0 1 1-.86 2.1 1.2 1.2 0 0 1 0-1.74 1.2 1.2 0 0 1 .87-.36zm7.33 0a1.23 1.23 0 1 1-.47.1q.23-.1.47-.1m7.32 0a1.22 1.22 0 1 1-.86 2.1 1.2 1.2 0 0 1 0-1.74 1.2 1.2 0 0 1 .87-.36zm7.33 0a1.22 1.22 0 1 1-.87 2.1 1.2 1.2 0 0 1 0-1.74 1.2 1.2 0 0 1 .87-.36m-157.75 4a1.23 1.23 0 1 1 0 2.46 1.23 1.23 0 0 1 0-2.45m7.32 0a1.23 1.23 0 1 1 0 2.45 1.23 1.23 0 0 1 0-2.45m7.33 0a1.23 1.23 0 1 1 0 2.45 1.23 1.23 0 0 1 0-2.45m7.33 0a1.22 1.22 0 1 1 0 2.44 1.22 1.22 0 0 1 0-2.44m7.32 0a1.23 1.23 0 1 1 0 2.45 1.23 1.23 0 0 1 0-2.45m7.33 0a1.22 1.22 0 1 1 0 2.44 1.22 1.22 0 0 1 0-2.44m7.33 0a1.23 1.23 0 1 1 0 2.45 1.23 1.23 0 0 1 0-2.45m7.32 0a1.23 1.23 0 1 1 0 2.45 1.23 1.23 0 0 1 0-2.45m7.33 0a1.23 1.23 0 1 1-.01 0zm7.32 0a1.23 1.23 0 1 1 0 2.45 1.23 1.23 0 0 1 0-2.45m7.33 0a1.22 1.22 0 1 1 0 2.44 1.22 1.22 0 0 1 0-2.44m7.33 0a1.23 1.23 0 1 1 0 2.45 1.23 1.23 0 0 1 0-2.45m7.32 0a1.23 1.23 0 1 1 0 2.45 1.23 1.23 0 0 1 0-2.45m7.33 0a1.23 1.23 0 1 1 0 2.45 1.23 1.23 0 0 1 0-2.45m7.33 0a1.23 1.23 0 1 1 0 2.45 1.23 1.23 0 0 1 0-2.45m7.33 0a1.23 1.23 0 1 1 0 2.45 1.23 1.23 0 0 1 0-2.45m7.32 0a1.22 1.22 0 1 1 0 2.45 1.2 1.2 0 0 1-.87-.36 1.23 1.23 0 0 1 .87-2.1m7.33 0a1.22 1.22 0 1 1 0 2.46 1.23 1.23 0 0 1 0-2.45m7.32 0a1.23 1.23 0 1 1-.46.09q.22-.1.47-.1zm7.33 0a1.22 1.22 0 1 1 0 2.45 1.23 1.23 0 0 1 0-2.45m7.33 0a1.22 1.22 0 1 1 0 2.45 1.23 1.23 0 0 1 0-2.45m7.32 0a1.23 1.23 0 1 1 0 2.45 1.23 1.23 0 0 1 0-2.45M2.71 121.16a1.23 1.23 0 0 1 1.22 1.23 1.23 1.23 0 1 1-1.22-1.23m7.32 0a1.23 1.23 0 0 1 1.23 1.23 1.23 1.23 0 1 1-1.23-1.23m7.33 0a1.23 1.23 0 0 1 1.22 1.23 1.23 1.23 0 1 1-1.22-1.23m7.32 0a1.23 1.23 0 0 1 1.23 1.23 1.23 1.23 0 1 1-1.23-1.23m7.33 0a1.23 1.23 0 0 1 1.23 1.23 1.22 1.22 0 1 1-1.23-1.23m7.33 0a1.23 1.23 0 0 1 1.22 1.23 1.23 1.23 0 1 1-1.22-1.23m7.33 0a1.23 1.23 0 0 1 1.22 1.23 1.23 1.23 0 1 1-1.22-1.23m7.32 0a1.23 1.23 0 0 1 1.23 1.23 1.23 1.23 0 1 1-1.23-1.23m7.33 0a1.23 1.23 0 0 1 1.22 1.23 1.23 1.23 0 1 1-1.21-1.23zm7.33 0a1.23 1.23 0 0 1 1.22 1.23 1.23 1.23 0 1 1-1.23-1.23m7.33 0a1.23 1.23 0 0 1 1.23 1.23 1.23 1.23 0 1 1-1.23-1.23m7.33 0a1.23 1.23 0 0 1 1.22 1.23 1.23 1.23 0 1 1-1.22-1.23m7.32 0a1.23 1.23 0 0 1 1.23 1.23 1.23 1.23 0 1 1-1.23-1.23m7.33 0a1.23 1.23 0 0 1 1.22 1.23 1.23 1.23 0 1 1-1.22-1.23m7.33 0a1.23 1.23 0 0 1 1.22 1.23 1.22 1.22 0 0 1-2.09.86 1.22 1.22 0 0 1 .87-2.09m7.32 0a1.23 1.23 0 1 1 0 2.45 1.23 1.23 0 0 1 0-2.45m7.33 0a1.23 1.23 0 1 1 0 2.45 1.23 1.23 0 0 1 0-2.45m7.33 0a1.23 1.23 0 0 1 1.22 1.23 1.22 1.22 0 0 1-2.09.86 1.22 1.22 0 0 1 .86-2.09zm7.32 0a1.23 1.23 0 0 1 1.23 1.23 1.22 1.22 0 0 1-2.1.86 1.22 1.22 0 0 1 .87-2.09m7.33 0c.32 0 .64.13.87.36a1.23 1.23 0 0 1-.87 2.1 1.2 1.2 0 0 1-1.23-1.23 1.2 1.2 0 0 1 .76-1.13q.23-.1.47-.1m7.33 0a1.23 1.23 0 0 1 1.22 1.23 1.22 1.22 0 0 1-2.1.86 1.22 1.22 0 0 1 .88-2.09m7.32 0a1.23 1.23 0 0 1 1.23 1.23 1.22 1.22 0 0 1-2.1.86 1.22 1.22 0 0 1 .87-2.09M-1.2 125.15a1.23 1.23 0 0 1 1.23 1.22 1.23 1.23 0 1 1-1.23-1.22m7.33 0a1.23 1.23 0 0 1 1.23 1.22 1.23 1.23 0 1 1-1.23-1.22m7.33 0a1.23 1.23 0 0 1 1.22 1.22 1.23 1.23 0 1 1-1.22-1.22m7.33 0a1.23 1.23 0 0 1 1.22 1.22 1.22 1.22 0 1 1-1.22-1.22m7.32 0a1.23 1.23 0 0 1 1.23 1.22 1.23 1.23 0 1 1-1.23-1.22m7.33 0a1.23 1.23 0 0 1 1.22 1.22 1.22 1.22 0 1 1-1.22-1.22m7.32 0a1.23 1.23 0 0 1 1.23 1.22 1.23 1.23 0 1 1-1.23-1.22m7.33 0a1.23 1.23 0 0 1 1.23 1.22 1.23 1.23 0 1 1-1.23-1.22m7.33 0a1.23 1.23 0 0 1 1.22 1.22 1.23 1.23 0 1 1-1.23-1.22zm7.32 0a1.23 1.23 0 0 1 1.23 1.22 1.23 1.23 0 1 1-1.23-1.22m7.33 0a1.23 1.23 0 0 1 1.23 1.22 1.23 1.23 0 1 1-1.23-1.22m7.33 0a1.23 1.23 0 0 1 1.22 1.22 1.23 1.23 0 1 1-1.22-1.22m7.32 0a1.23 1.23 0 0 1 1.23 1.22 1.23 1.23 0 1 1-1.23-1.22m7.33 0a1.23 1.23 0 0 1 1.23 1.22 1.23 1.23 0 1 1-1.23-1.22m7.33 0q.5 0 .86.36a1.23 1.23 0 0 1 0 1.73 1.23 1.23 0 1 1-.86-2.1m7.32 0a1.23 1.23 0 0 1 0 2.46 1.2 1.2 0 0 1-1.22-1.23 1.23 1.23 0 0 1 1.22-1.22m7.33 0a1.23 1.23 0 0 1 1.22 1.22 1.22 1.22 0 0 1-2.09.87 1.22 1.22 0 0 1 .87-2.1m7.33 0a1.23 1.23 0 1 1 0 2.46 1.23 1.23 0 0 1 0-2.45m7.32 0a1.23 1.23 0 1 1 0 2.45 1.23 1.23 0 0 1 0-2.45M2.71 129.18a1.23 1.23 0 0 1 1.22 1.22 1.23 1.23 0 1 1-1.22-1.22m7.32 0a1.23 1.23 0 0 1 1.23 1.22 1.23 1.23 0 1 1-1.23-1.22m7.33 0a1.23 1.23 0 0 1 1.22 1.22 1.23 1.23 0 1 1-1.22-1.22m7.32 0a1.23 1.23 0 0 1 1.23 1.22 1.23 1.23 0 1 1-1.23-1.22m7.33 0a1.23 1.23 0 0 1 1.23 1.22 1.22 1.22 0 1 1-1.23-1.22m7.33 0a1.23 1.23 0 0 1 0 2.45 1.23 1.23 0 1 1 0-2.45m7.33 0a1.23 1.23 0 0 1 1.22 1.22 1.23 1.23 0 1 1-1.22-1.22m7.32 0a1.23 1.23 0 0 1 1.23 1.22 1.23 1.23 0 1 1-1.23-1.22m7.33 0a1.23 1.23 0 0 1 1.22 1.22 1.23 1.23 0 1 1-1.21-1.22zm7.33 0a1.23 1.23 0 0 1 1.22 1.22 1.23 1.23 0 1 1-1.23-1.22m7.33 0a1.23 1.23 0 0 1 1.23 1.22 1.23 1.23 0 1 1-1.23-1.22m7.33 0a1.23 1.23 0 0 1 1.22 1.22 1.23 1.23 0 1 1-1.22-1.22m7.32 0a1.23 1.23 0 0 1 1.23 1.22 1.23 1.23 0 1 1-1.23-1.22m7.33 0a1.23 1.23 0 0 1 1.22 1.22 1.23 1.23 0 1 1-1.22-1.22m7.33 0a1.23 1.23 0 1 1 0 2.45 1.23 1.23 0 0 1 0-2.45m7.32 0a1.23 1.23 0 1 1 0 2.45 1.23 1.23 0 0 1 0-2.45m7.33 0a1.23 1.23 0 1 1 0 2.45 1.23 1.23 0 0 1 0-2.45m14.65 0a1.23 1.23 0 1 1 0 2.45 1.23 1.23 0 0 1 0-2.45m7.33 0a1.23 1.23 0 1 1 0 2.45 1.23 1.23 0 0 1 0-2.45m7.32 0a1.23 1.23 0 1 1 0 2.45 1.23 1.23 0 0 1 0-2.45m7.33 0a1.23 1.23 0 1 1 0 2.45 1.23 1.23 0 0 1 0-2.45m7.33 0a1.23 1.23 0 1 1 0 2.45 1.23 1.23 0 0 1 0-2.45m-165.09 4a1.23 1.23 0 1 1 0 2.44 1.23 1.23 0 0 1 0-2.45m7.33 0a1.23 1.23 0 1 1 0 2.45 1.23 1.23 0 0 1 0-2.45m7.33 0a1.23 1.23 0 1 1 0 2.45 1.23 1.23 0 0 1 0-2.45m7.33 0a1.23 1.23 0 1 1 0 2.45 1.23 1.23 0 0 1 0-2.45m7.32 0a1.23 1.23 0 1 1 0 2.45 1.23 1.23 0 0 1 0-2.45m7.33 0a1.23 1.23 0 1 1 0 2.45 1.23 1.23 0 0 1 0-2.45m7.32 0a1.23 1.23 0 1 1 0 2.45 1.23 1.23 0 0 1 0-2.45m7.33 0a1.23 1.23 0 1 1 0 2.45 1.23 1.23 0 0 1 0-2.45m7.33 0a1.23 1.23 0 1 1-.01 0zm7.32 0a1.23 1.23 0 1 1 0 2.45 1.23 1.23 0 0 1 0-2.45m7.33 0a1.22 1.22 0 1 1 0 2.45 1.22 1.22 0 0 1 0-2.45m7.33 0a1.23 1.23 0 1 1 0 2.45 1.23 1.23 0 0 1 0-2.45m7.32 0a1.23 1.23 0 1 1 0 2.45 1.23 1.23 0 0 1 0-2.45m7.33 0a1.23 1.23 0 1 1 0 2.45 1.23 1.23 0 0 1 0-2.45m7.33 0a1.23 1.23 0 1 1 0 2.45 1.23 1.23 0 0 1 0-2.45m7.32 0a1.23 1.23 0 1 1 0 2.45 1.23 1.23 0 0 1 0-2.45m7.33 0a1.22 1.22 0 1 1 0 2.45 1.22 1.22 0 0 1 0-2.45m7.33 0a1.22 1.22 0 1 1 0 2.45 1.22 1.22 0 0 1 0-2.45m7.32 0a1.23 1.23 0 1 1-.46.1q.22-.1.47-.1zm7.33 0a1.22 1.22 0 1 1 0 2.45 1.22 1.22 0 0 1 0-2.45m7.33 0a1.22 1.22 0 1 1 0 2.45 1.22 1.22 0 0 1 0-2.45m7.32 0a1.23 1.23 0 1 1 0 2.45 1.23 1.23 0 0 1 0-2.45m7.33 0a1.23 1.23 0 1 1 0 2.45 1.23 1.23 0 0 1 0-2.45m7.33 0a1.22 1.22 0 1 1 0 2.45 1.22 1.22 0 0 1 0-2.45M2.7 137.2a1.23 1.23 0 0 1 1.22 1.22 1.23 1.23 0 1 1-1.22-1.22m7.32 0a1.23 1.23 0 0 1 1.23 1.22 1.23 1.23 0 1 1-1.23-1.22m7.33 0a1.23 1.23 0 0 1 1.22 1.22 1.23 1.23 0 1 1-1.22-1.22m7.32 0a1.23 1.23 0 0 1 1.23 1.22 1.23 1.23 0 1 1-1.23-1.22m7.33 0a1.23 1.23 0 0 1 1.23 1.22A1.23 1.23 0 1 1 32 137.2m7.33 0a1.23 1.23 0 0 1 1.22 1.22 1.23 1.23 0 1 1-1.22-1.22m7.33 0a1.23 1.23 0 0 1 1.22 1.22 1.23 1.23 0 1 1-1.22-1.22m7.32 0a1.23 1.23 0 0 1 1.23 1.22 1.23 1.23 0 1 1-1.23-1.22m7.33 0a1.23 1.23 0 0 1 1.22 1.22 1.23 1.23 0 1 1-1.21-1.22zm7.33 0a1.23 1.23 0 0 1 1.22 1.22 1.23 1.23 0 1 1-1.22-1.22m7.32 0a1.23 1.23 0 0 1 1.23 1.22 1.23 1.23 0 1 1-1.23-1.22m7.33 0a1.23 1.23 0 0 1 1.22 1.22 1.23 1.23 0 1 1-1.22-1.22m7.32 0a1.23 1.23 0 0 1 1.23 1.22 1.22 1.22 0 1 1-1.23-1.22m7.33 0a1.23 1.23 0 0 1 1.22 1.22 1.23 1.23 0 1 1-1.22-1.22m7.33 0q.5 0 .86.36a1.23 1.23 0 0 1-.86 2.09 1.2 1.2 0 0 1-1.23-1.22 1.2 1.2 0 0 1 .36-.87 1.2 1.2 0 0 1 .87-.36m7.32 0a1.23 1.23 0 0 1 1.23 1.23 1.22 1.22 0 0 1-2.1.86 1.22 1.22 0 0 1 .87-2.1m7.33 0a1.23 1.23 0 0 1 1.23 1.24 1.22 1.22 0 0 1-2.1.86 1.22 1.22 0 0 1 .87-2.1m7.33 0q.5.01.86.37a1.23 1.23 0 0 1 0 1.73 1.23 1.23 0 1 1-.87-2.1zm7.32 0q.51.01.87.37a1.23 1.23 0 0 1 0 1.73 1.23 1.23 0 1 1-.87-2.1m7.33 0a1.23 1.23 0 0 1 1.23 1.24 1.22 1.22 0 0 1-2.1.86 1.22 1.22 0 0 1 .87-2.1m7.33 0q.5.01.86.37a1.23 1.23 0 0 1 0 1.73 1.23 1.23 0 1 1-.86-2.1m7.32 0a1.23 1.23 0 0 1 0 2.46 1.2 1.2 0 0 1-1.22-1.22 1.2 1.2 0 0 1 .36-.87 1.2 1.2 0 0 1 .86-.36m7.33 0a1.23 1.23 0 0 1 1.22 1.23 1.22 1.22 0 0 1-2.09.86 1.22 1.22 0 0 1 .87-2.1m7.32 0q.51.01.87.37a1.23 1.23 0 0 1 0 1.73 1.23 1.23 0 1 1-.87-2.1m-172.4 4a1.23 1.23 0 1 1 0 2.45 1.23 1.23 0 0 1 0-2.45m7.32 0a1.23 1.23 0 1 1 0 2.45 1.23 1.23 0 0 1 0-2.45m7.33 0a1.23 1.23 0 1 1 0 2.45 1.23 1.23 0 0 1 0-2.45m7.33 0a1.23 1.23 0 1 1 0 2.45 1.23 1.23 0 0 1 0-2.45m7.32 0a1.23 1.23 0 1 1 0 2.45 1.23 1.23 0 0 1 0-2.45m7.33 0a1.23 1.23 0 1 1 0 2.45 1.23 1.23 0 0 1 0-2.45m7.32 0a1.23 1.23 0 1 1 0 2.45 1.23 1.23 0 0 1 0-2.45m7.33 0a1.23 1.23 0 1 1 0 2.45 1.23 1.23 0 0 1 0-2.45m7.33 0a1.23 1.23 0 1 1-.01 0zm7.32 0a1.23 1.23 0 1 1 0 2.45 1.23 1.23 0 0 1 0-2.45m7.33 0a1.22 1.22 0 1 1 0 2.45 1.22 1.22 0 0 1 0-2.45m7.33 0a1.23 1.23 0 1 1 0 2.45 1.23 1.23 0 0 1 0-2.45m7.32 0a1.23 1.23 0 1 1 0 2.45 1.23 1.23 0 0 1 0-2.45m7.33 0a1.23 1.23 0 1 1 0 2.45 1.23 1.23 0 0 1 0-2.45m7.33 0a1.23 1.23 0 1 1 0 2.46 1.23 1.23 0 0 1 0-2.46m7.32 0a1.23 1.23 0 1 1 0 2.46 1.23 1.23 0 0 1 0-2.46m7.33 0a1.22 1.22 0 1 1-.87 2.1 1.2 1.2 0 0 1 0-1.74q.36-.35.87-.36m7.33 0a1.22 1.22 0 1 1-.87 2.1 1.22 1.22 0 0 1 .4-2q.22-.1.47-.1m7.32 0a1.23 1.23 0 1 1-.46.1q.22-.1.47-.1zm7.33 0a1.22 1.22 0 1 1-.87 2.1 1.22 1.22 0 0 1 .4-2q.22-.1.47-.1m7.33 0a1.22 1.22 0 1 1-.87 2.1 1.22 1.22 0 0 1 .4-2q.22-.1.47-.1m7.32 0a1.23 1.23 0 1 1 0 2.46 1.23 1.23 0 0 1 0-2.46m7.33 0a1.23 1.23 0 1 1 0 2.46 1.23 1.23 0 0 1 0-2.46m7.33 0a1.22 1.22 0 1 1-.87 2.1 1.22 1.22 0 0 1 .4-2q.21-.1.47-.1"/></g><path fill="#000" d="M31.8 129.91q-.87 0-1.5-.29a3 3 0 0 1-.98-.8 4 4 0 0 1-.54-1.17 5 5 0 0 1-.18-1.37v-3.73h1.42v3.73q0 .45.08.88.1.43.3.77t.55.53.84.2q.52 0 .86-.2.35-.2.54-.54a3 3 0 0 0 .3-.77q.1-.43.1-.87v-3.73h1.4v3.73q0 .75-.18 1.4a3 3 0 0 1-.57 1.17q-.38.5-.99.79-.6.27-1.45.27m6.35.05q-.69 0-1.32-.22a3 3 0 0 1-1.08-.67l.5-.9q.48.4.94.58.48.18.9.18.41 0 .65-.14a.5.5 0 0 0 .24-.43q0-.2-.13-.3a1 1 0 0 0-.39-.2l-.6-.18a10 10 0 0 1-1-.38q-.4-.19-.61-.47t-.2-.73q0-.53.27-.91.28-.4.76-.61.5-.22 1.15-.22.58 0 1.1.19.51.17.93.57l-.55.88a3 3 0 0 0-.79-.46 2 2 0 0 0-.75-.16q-.22 0-.41.05a1 1 0 0 0-.31.18q-.11.11-.11.33 0 .2.1.3t.33.2l.55.18q.64.18 1.09.38t.68.48.22.78q0 .8-.58 1.25-.6.45-1.58.45m5.6 0q-.64 0-1.17-.21a3 3 0 0 1-.9-.61 3 3 0 0 1-.57-.88 3 3 0 0 1-.2-1.07q0-.77.34-1.4.35-.65 1-1.03.64-.39 1.52-.39t1.51.4q.63.37.96 1.01.34.63.34 1.36l-.03.47h-4.17q.04.4.23.72.2.3.52.47a1.6 1.6 0 0 0 1.45-.04q.37-.2.5-.54l1.19.33q-.2.42-.57.74-.36.31-.85.5-.5.17-1.1.17m-1.4-3.23h2.82a2 2 0 0 0-.24-.71 1.3 1.3 0 0 0-.5-.47 1.4 1.4 0 0 0-.68-.18q-.37 0-.68.18a1.4 1.4 0 0 0-.5.47q-.18.3-.23.71m4.95-4.18 1.8 3.44 1.84-3.44h1.53l-2.66 4.76v2.55h-1.4v-2.57l-2.65-4.74zm7.39 7.41a3 3 0 0 1-1.18-.21 3 3 0 0 1-.9-.62 3 3 0 0 1-.56-.9 3 3 0 0 1-.2-1.06q0-.56.2-1.07a3 3 0 0 1 .56-.9 3 3 0 0 1 .9-.6q.52-.23 1.18-.23t1.17.23a2.6 2.6 0 0 1 1.46 1.5q.2.5.2 1.07a3 3 0 0 1-.2 1.06 3 3 0 0 1-.56.9q-.36.4-.89.62a3 3 0 0 1-1.18.21m-1.41-2.79q0 .48.18.85.19.36.5.56.33.21.73.21t.7-.2a1.5 1.5 0 0 0 .51-.58 2 2 0 0 0 .2-.85q0-.46-.2-.83a1.4 1.4 0 0 0-.5-.58 1.3 1.3 0 0 0-.71-.2q-.4 0-.72.21t-.5.58q-.2.36-.2.83m5.12.67v-3.38h1.38v3.08q0 .62.23.94.22.31.67.31a1.4 1.4 0 0 0 1-.43q.23-.22.39-.55v-3.35h1.38v3.86q0 .21.07.3.08.1.26.12v1.12l-.35.04-.25.02q-.37 0-.6-.16a.7.7 0 0 1-.27-.47l-.03-.44a2.4 2.4 0 0 1-.93.84 3 3 0 0 1-1.25.27q-.83 0-1.27-.53-.43-.55-.43-1.59m9.63-2.18q-.62 0-1.12.25a1.5 1.5 0 0 0-.71.69v3.26H64.8v-5.4h1.27v1.16q.29-.56.73-.88t.94-.35h.17l.1.01zm7.5-1.2-.26-.2a3 3 0 0 0-.46-.23 4 4 0 0 0-.6-.2 2 2 0 0 0-.64-.09q-.58 0-.88.22a.7.7 0 0 0-.28.6.6.6 0 0 0 .18.48q.19.18.56.3t.92.27q.73.17 1.25.43.54.25.81.66.3.4.3 1.07 0 .59-.22 1.01a2 2 0 0 1-.6.67 3 3 0 0 1-.87.38 5 5 0 0 1-1.03.11 5 5 0 0 1-1.09-.11 6 6 0 0 1-1.05-.32 5 5 0 0 1-.93-.51l.63-1.23q.1.1.33.25t.58.3.74.24.81.1q.58 0 .88-.19a.6.6 0 0 0 .3-.55.6.6 0 0 0-.24-.52q-.23-.19-.66-.32l-1-.3a6 6 0 0 1-1.15-.44q-.46-.25-.69-.62t-.23-.93q0-.75.35-1.25.36-.52.97-.77a3 3 0 0 1 1.35-.27q.52 0 .97.11a5 5 0 0 1 1.59.7zm4.95 5.12-.43.17q-.24.1-.53.14a3 3 0 0 1-.57.06q-.38 0-.7-.13a1 1 0 0 1-.51-.42q-.19-.3-.19-.77v-3.1h-.7v-1.07h.7v-1.75h1.38v1.75h1.13v1.07h-1.13v2.63q.01.28.16.4a.5.5 0 0 0 .36.13q.21 0 .42-.07l.33-.13zm3.93-3.92q-.63 0-1.12.25a1.5 1.5 0 0 0-.71.69v3.26h-1.38v-5.4h1.26v1.16q.29-.56.73-.88.45-.32.94-.35h.18l.1.01zm3.2 4.3q-.65 0-1.17-.21a3 3 0 0 1-.9-.61 3 3 0 0 1-.58-.88 3 3 0 0 1-.2-1.07q0-.77.35-1.4a3 3 0 0 1 .99-1.03q.65-.39 1.52-.39.89 0 1.52.4.63.37.95 1.01.34.63.34 1.36l-.03.47h-4.17q.04.4.24.72.2.3.51.47a1.6 1.6 0 0 0 1.45-.04q.37-.2.5-.54l1.2.33q-.2.42-.57.74-.36.31-.86.5-.5.17-1.09.17m-1.41-3.23H89a2 2 0 0 0-.23-.71 1.3 1.3 0 0 0-.5-.47 1.4 1.4 0 0 0-.69-.18 1.4 1.4 0 0 0-.68.18 1.4 1.4 0 0 0-.5.47q-.18.3-.22.71m10.09 3.13H94.9v-3.03q0-.64-.23-.94a.7.7 0 0 0-.62-.3q-.28 0-.57.14t-.5.4a2 2 0 0 0-.34.58v3.15h-1.38v-5.4h1.25v1q.2-.35.53-.58.32-.25.73-.37a3 3 0 0 1 .88-.14q.5 0 .83.19.33.17.5.48t.23.68.07.77zm3.31.03a2 2 0 0 1-.99-.2 2.4 2.4 0 0 1-.77-.6 3 3 0 0 1-.5-.88 3 3 0 0 1-.17-1.05q0-.58.19-1.09a3 3 0 0 1 .51-.88 2 2 0 0 1 .8-.6 2.4 2.4 0 0 1 1.01-.22q.63 0 1.1.29t.79.75v-.95h1.2v5.14q0 .8-.39 1.37a2.4 2.4 0 0 1-1.06.88q-.68.3-1.54.3-.88 0-1.49-.29a3 3 0 0 1-1.04-.82l.76-.74q.3.38.77.6a2.4 2.4 0 0 0 1 .22q.44 0 .8-.17.37-.15.59-.5.22-.32.22-.85v-.68a2 2 0 0 1-.76.73 2 2 0 0 1-1.03.24m.47-1.1q.22 0 .43-.07a1.5 1.5 0 0 0 .69-.49q.13-.17.2-.35v-1.28a2 2 0 0 0-.35-.56 2 2 0 0 0-.5-.36 1 1 0 0 0-.56-.13 1.2 1.2 0 0 0-1.02.51q-.18.24-.28.54a2 2 0 0 0-.1.6 1.7 1.7 0 0 0 .42 1.13q.21.21.48.34.28.12.59.12m7.18.8-.42.16q-.25.1-.54.14a3 3 0 0 1-.56.06q-.38 0-.7-.13a1 1 0 0 1-.52-.42q-.18-.3-.18-.77v-3.1h-.71v-1.07h.7v-1.75h1.39v1.75h1.13v1.07h-1.13v2.63q0 .28.15.4a.5.5 0 0 0 .36.13q.22 0 .43-.07t.32-.13zm5.74.27h-1.38v-3.03q0-.62-.25-.93-.24-.31-.66-.31-.25 0-.52.14-.28.15-.5.4a2 2 0 0 0-.33.58v3.15h-1.38v-7.52h1.38v3.12q.3-.51.82-.8a2.3 2.3 0 0 1 1.12-.29q.52 0 .85.19.33.17.52.48.18.3.26.68.07.37.07.77zm3.19.1q-.7 0-1.32-.22a3 3 0 0 1-1.08-.67l.49-.9q.48.4.95.58t.9.18q.4 0 .64-.14a.5.5 0 0 0 .25-.43q0-.2-.13-.3a1 1 0 0 0-.4-.2l-.6-.18a10 10 0 0 1-1-.38q-.4-.19-.61-.47t-.2-.73q0-.53.27-.91.28-.4.76-.61.5-.22 1.16-.22.57 0 1.09.19.51.17.94.57l-.56.88a3 3 0 0 0-.78-.46 2 2 0 0 0-.75-.16q-.22 0-.42.05a1 1 0 0 0-.3.18q-.12.11-.12.33 0 .2.1.3.12.1.33.2l.55.18q.65.18 1.1.38t.67.48.23.78q0 .8-.59 1.25-.58.45-1.57.45"/><path fill="#90D470" d="M54.08 81.1H3.37v55.77h50.71z"/><path fill="#000" d="M54.46 87.33H3v-6.61h51.46zm-50.71-.75h49.98v-5.12H3.75z"/><path fill="#fff" d="M49.24 93.38H8.22v8.28h41.02zm0 14.34H8.22v8.29h41.02zm0 14.16H8.22v8.28h41.02z"/><path fill="#90D470" d="M116.96 27.4a5.16 5.16 0 0 1-8.83 3.64 5.16 5.16 0 1 1 8.83-3.64"/><path fill="#000" d="M155.77 85.58a7 7 0 0 1-6.85-8.35 7 7 0 0 1 5.5-5.5 6.99 6.99 0 1 1 1.35 13.85m0-13.23a6.25 6.25 0 1 0-.02 12.5 6.25 6.25 0 0 0 .02-12.5M15.93 66.33 24.4 47.2 31 64.8zm8.4-17.17-7.2 16.3 12.83-1.3z"/><path fill="#EEB47E" d="M88.39 84.08 69.43 83l5.2-24.2 13.1.74.09 2.88.22 8.88z"/><path fill="#000" d="M88.04 71.3a15 15 0 0 1-12.23-7.54c3.87-.38 7.71-.91 11.57-1.3h.44z"/><path fill="#EEB47E" d="M98.2 54.9a14.9 14.9 0 0 1-8.16 10.6 15.2 15.2 0 0 1-13.41-.4 15.4 15.4 0 0 1-7.76-10.96 4.35 4.35 0 0 1-5 1.84 6.1 6.1 0 0 1-4.27-4.04 6.4 6.4 0 0 1 .2-4.55 5.3 5.3 0 0 1 3.43-2.94 4.8 4.8 0 0 1 4.25.82l.15.15v-1.2a17.4 17.4 0 0 1 3.94-9.8 15 15 0 0 1 10.24-5.32h2.2a13.2 13.2 0 0 1 8.52 4.15 15 15 0 0 1 2.3 3.5A30 30 0 0 1 96.7 42l.48 1.93c.92 3.63 1.65 7.34 1.03 10.96"/><path fill="#000" d="M65.8 52.04a2.56 2.56 0 0 0-3.4-1.1l-.33-.67a3.3 3.3 0 0 1 2.48-.18q.66.2 1.19.63l-.23-2.97.75-.06.3 4.14zm21.15 2.01a1 1 0 0 1-.48-.1l.27-.68a.6.6 0 0 0 .51 0 .6.6 0 0 0 .3-.28q.1-.47 0-.93l-.88-5.7.73-.13.9 5.71q.14.64 0 1.26-.2.51-.7.75-.31.12-.65.1m-2 2.85a3.1 3.1 0 0 1-3.13-3.12h.74a2.4 2.4 0 0 0 1.69 2.3q.48.16.98.12l.07.74zm7.56-10.14c0 .5-.34.9-.67.87-.33-.02-.58-.44-.54-.93s.32-.9.65-.88.58.44.56.94m-10.54 1.29c0 .77-.5 1.36-1.01 1.34s-.9-.68-.84-1.45.48-1.36 1-1.33c.5.04.88.68.85 1.44m10.92-4q.5.07 1.02 0c.55-.17.54-.6 0-.87a6 6 0 0 0-1.98-.39 3 3 0 0 0-1.44.15.47.47 0 0 0-.16.79c.53.58 1.74.3 2.56.32m-12.8.4a3 3 0 0 1-1.02 0c-.57-.13-.58-.55-.07-.86a6 6 0 0 1 1.95-.52q.72-.18 1.45 0a.48.48 0 0 1 .2.78c-.5.73-1.72.53-2.52.6m4.01-15.3q-.48 1.02-1.04 2A30.2 30.2 0 0 1 67.62 44.2a17.4 17.4 0 0 1 3.94-9.8 15 15 0 0 1 10.24-5.32h1.78z"/><path fill="#000" d="M96.78 42.07a27 27 0 0 1-13.73-10.92 26 26 0 0 1-1.19-2.01h2.2a13.2 13.2 0 0 1 8.52 4.15 15 15 0 0 1 2.3 3.49 30 30 0 0 1 1.9 5.29"/><path fill="#8893E3" d="M45.42 110.36s10.3-12.13 10.9-12.33S75.72 96 75.72 96s-11.52 59.6-38.4 46.68C13.25 131.1 46.7 81.17 50.39 79.9c3.68-1.26 19.98-1.44 19.98-1.44s9.22 9.2 18 .86c0 0 15.23-.08 18.25 2.37 3.03 2.44 23.45 63.04 23.45 63.04H44.1"/><path fill="#EEB47E" d="M77.85 80.79q.18-.76.14-1.53a1.7 1.7 0 0 0-.74-1.27 1.84 1.84 0 0 0-2.14.48 7.4 7.4 0 0 0-1.46 2.94 4.6 4.6 0 0 1-1.84 2.63 3.3 3.3 0 0 1-2.87 0 4.8 4.8 0 0 1-2.79-4.65 3.1 3.1 0 0 1 4.57-2.87c.84.22 1.66.17 2-.35a2 2 0 0 0-.1-1.98 4 4 0 0 0-1.8-1.62 5.93 5.93 0 0 0-8.62 5.54c-1.47-3.4-3.87-8.13-5.61-7.59-2.12.67-.4 7.92.95 12.65-1.43-3.43-4.13-9.02-6.34-8.18-3.35 1.27 5.08 23 5.08 23l1.56 4.04 17.9-5.93c.46-2.53 1.65-12.9 2.11-15.31"/><path fill="#000" d="m77.63 84.93-.74-.1c.28-2.18.47-3.45.6-4.11q.17-.7.14-1.42a1.3 1.3 0 0 0-.57-1l.38-.63a2 2 0 0 1 .92 1.55 6 6 0 0 1-.14 1.64c-.17.84-.42 2.73-.6 4.07m-20.44-1.7a61 61 0 0 1-1.78-7.89c-.43-3.14-.07-4.84 1.07-5.2l.22.7c-1.02.32-1.18 3.7 1.19 12.19z"/><path fill="#A1E3D6" d="m121.64 87.1-7.43 44s18.63-8.17 33.28 0l8.35-44.1s-15.6-11.57-34.2.1"/><path fill="#A1E3D6" d="m87.44 87.18-7.31 44s19.42-8.17 34.07 0l7.44-44s-15.55-11.65-34.2 0"/><path fill="#fff" d="m128.26 96.06 11.57 3.76-8.08 8.09z"/><path fill="#fff" d="m135.25 101.13-2.2 2.2 4.7 4.71 2.2-2.2z"/><path fill="#000" d="m121.37 87.06-7.46 44.02.6.1 7.45-44.02zM92 100.12l-.5-.35a13.6 13.6 0 0 1 4.8-4.35 2.6 2.6 0 0 1 2.54-.3 2.8 2.8 0 0 1 1.12 1.96q.14.76.59 1.41a2.2 2.2 0 0 0 2.32.42 8 8 0 0 0 1.67-.84l.8-.47a3.8 3.8 0 0 1 2.99-.48q.67.25 1.23.7.43.35.92.59a1.3 1.3 0 0 0 1.22-.11.5.5 0 0 0 .25-.44h.61a1.1 1.1 0 0 1-.5.98 2 2 0 0 1-1.83.15 6 6 0 0 1-1.03-.63 4 4 0 0 0-1.07-.63 3.2 3.2 0 0 0-2.5.44l-.77.45a9 9 0 0 1-1.8.9 2.8 2.8 0 0 1-2.93-.6 4 4 0 0 1-.72-1.66c-.18-.68-.33-1.28-.84-1.56s-1.1-.16-1.95.3a13 13 0 0 0-4.62 4.12"/><path fill="#D4F5BD" d="M111.4 112.24H89.02l.94-5.2h22.39z"/><path fill="#000" d="M61.82 78.14a6.36 6.36 0 0 1 9.16-5.93A4 4 0 0 1 72.94 74a2.3 2.3 0 0 1 .1 2.37l-.63-.4a1.7 1.7 0 0 0-.13-1.6 3.6 3.6 0 0 0-1.63-1.47 5.6 5.6 0 0 0-8.08 5.2zm-4.32 23.98-1.57-4.02c-.3-.77-7.3-18.98-5.6-22.73a1.3 1.3 0 0 1 .74-.77l.26.7a.6.6 0 0 0-.33.37c-1.3 2.91 3.56 16.98 5.63 22.16l1.56 4.02zm7.18-8.55a7.9 7.9 0 0 1 5.28-7.37l.24.71a7.2 7.2 0 0 0-4.75 6.66zm11.38-34.5L72.93 80.2l.73.1 3.12-21.1z"/><path fill="#8893E3" d="M45.42 110.36s10.3-12.13 10.9-12.33S75.72 96 75.72 96s-11.52 59.6-38.4 46.68C13.25 131.1 46.7 81.17 50.39 79.9"/><path fill="#000" d="M44.8 144.89a17.5 17.5 0 0 1-7.61-1.86l.32-.68a15 15 0 0 0 13.8.21c15.44-7.77 23.03-41.65 23.97-46.13-7.34.7-17.94 1.77-18.8 1.94-.73.55-6.96 7.75-10.77 12.23l-.64-.15-1.48-5.57.72-.2 1.3 4.9c3.9-4.6 10.03-11.7 10.61-11.87a930 930 0 0 1 19.48-2.03l.4.44a147 147 0 0 1-5.83 20.33c-5.3 14.23-11.56 23.25-18.62 26.8a15 15 0 0 1-6.85 1.64M77.76 59.6a8.66 8.66 0 1 1 0-17.33 8.66 8.66 0 0 1 0 17.33m0-16.62a7.92 7.92 0 1 0 7.91 7.92 7.94 7.94 0 0 0-7.91-7.88zm2.73-19.03a6.35 6.35 0 0 0-6.3-4.96 6.8 6.8 0 0 0-6.2 5.25 6.1 6.1 0 0 0 1.6 5.66c4.31 4.02 11.96-.24 10.9-5.95"/><path fill="#D4F5BD" d="M149.2 139.2a27 27 0 0 1-3.37 5.51h-29.12a22 22 0 0 1-4.36-7.44c-.8-2.87-.2-6.35 2.2-8.1a5.6 5.6 0 0 1 5.73-.53 5.6 5.6 0 0 1 2.24 1.97c.55.84.86 1.83.9 2.84a20 20 0 0 1 5.31-12.41 13.5 13.5 0 0 1 12.6-3.87 13.3 13.3 0 0 1 8.99 9.03 18.8 18.8 0 0 1-1.12 13"/><path fill="#fff" d="m97.63 146.17-.44-1.35c0-.15-4.84-14.56-14.96-13.78v-.74c8.91-.7 13.86 9.62 15.28 13.14q1.22-4.4 4.13-5.23c5.03-1.41 11.87 5.93 12.14 6.2l-.53.5c-.07-.08-6.81-7.28-11.4-5.99q-2.88.8-3.9 5.86z"/></svg>