<svg xmlns="http://www.w3.org/2000/svg" width="28" height="28" fill="none"><path fill="url(#a)" stroke="#fff" d="M20.197 16.198c-.933 2.513-2.494 4.275-5.036 5.106a2.89 2.89 0 0 0-1.987 2.47q-.04.411-.031.825a.7.7 0 0 1-.15.453.72.72 0 0 1-.927.173.74.74 0 0 1-.364-.539C10.886 18.57 17.463 10 17.463 10c-6.333 6.496-6.465 10.947-6.465 10.947C7.11 18.32 6.597 10.042 13.29 6.934c3.281-1.524 6.435-.578 6.435-.578 1.697 3.635 1.605 6.79.471 9.842z"/><defs><linearGradient id="a" x1="-5.818" x2="21.991" y1="41.734" y2="10.675" gradientUnits="userSpaceOnUse"><stop stop-color="#3D6A3E"/><stop offset="1" stop-color="#78D07A"/></linearGradient></defs></svg>