<svg xmlns="http://www.w3.org/2000/svg" fill="none" viewBox="0 0 568 312"><path fill="#7D726B" d="m171.031 104.817 1.634-11.903-7.961-1.093-1.634 11.903-8.537-1.172c-2.194-.301-4.199 1.344-4.278 3.558-.585 16.37 3.764 34.032 11.72 35.125 7.956 1.092 16.905-14.744 20.754-30.665.52-2.153-.968-4.279-3.162-4.58z"/><path fill="#2A302A" d="m163.071 103.723-1.338 9.745s-2.124-4.341-1.768-10.171zm7.959 1.095-1.338 9.745s3.215-3.607 4.443-9.318z"/><path fill="#BA885F" d="M176.065 38.623a5.774 5.774 0 0 0-6.535 5.196l-4.371 48.064 7.051.968 8.746-47.463a5.77 5.77 0 0 0-4.891-6.766"/><path fill="#2A302A" d="M165.327 90.053c.071-.776.909-1.247 1.597-.88 1.87.995 4.491 3.156 5.397 3.09l-.109.588-7.051-.968z"/><path fill="#355154" d="m232.553 78.99-.438-10.066c-.073-1.676-.161-3.412-.899-4.947-.737-1.535-2.318-2.816-3.911-2.606-2.123.28-3.046 2.804-3.382 4.987-.45 2.93-.547 5.94-.285 8.936.117 1.34.305 2.696.126 4.01-.177 1.315-.788 2.618-1.906 3.227-1.119.609-2.78.271-3.425-.93-5.184-9.641-6.617-20.668-11.196-30.604-.581-1.26-1.225-2.531-2.217-3.49-.993-.96-2.411-1.558-3.662-1.2-1.417.407-2.262 1.936-2.388 3.465-.126 1.53.325 3.075.771 4.575l5.849 19.681c.341 1.15.685 2.38.362 3.495-.324 1.114-1.699 2.082-2.629 1.336-2.26-1.812-6.403-15.814-10.203-24.796-1.301-3.073-4.097-8.152-7.06-6.445-1.746 1.006-3.091 2.961-2.053 6.781 1.109 4.08 2.254 6.654 3.778 10.146 2.752 6.307 4.215 11.059 6.66 18.036.231.659.099 1.603-.543 1.747-.546.12-1.018-.461-1.329-.97a145 145 0 0 1-2.964-5.076c-1.864-3.348-4.053-6.526-6.034-9.806-.791-1.31-1.585-2.624-2.506-3.844-.831-1.099-1.85-2.172-3.141-2.495s-2.838.45-2.898 1.8c-.062 1.403.035 2.485.575 3.81a93.5 93.5 0 0 0 5.86 11.89c.984 1.684 1.808 3.118 2.852 4.765s1.984 3.433 2.208 5.347c.053.447.039.96-.289 1.232-.276.227-.697.198-1.029.025s-.594-.466-.842-.756a39 39 0 0 1-2.674-3.503c-2.486-3.673-4.69-7.266-7.323-10.832-.794-1.076-1.843-2.257-3.104-2.15-1.233.103-1.989 1.496-1.907 2.784s.768 2.476 1.435 3.603l11.225 18.976c1.563 2.644 2.744 5.392 4.345 8.011 1.294 2.116 2.655 4.203 4.285 6.062 5.645 6.441 11.759 9.762 19.645 6.343a77 77 0 0 0 17.489-10.538c7.902-6.332 5.195-20.291 4.772-30.016"/><path fill="#2A302A" d="M189.214 101.253c3.864-2.01 8.345-2.197 12.457-1.275 2.07.463 4.062 1.244 5.937 2.252 1.863 1.03 3.621 2.298 5.117 3.879a.705.705 0 0 1-1.023.968l-.038-.044c-2.506-3.123-6.218-5.318-10.169-6.327a17.8 17.8 0 0 0-6.081-.515c-2.026.202-4.023.81-5.717 1.899a.483.483 0 1 1-.522-.814q.018-.012.039-.023m29.093-13.748c-1.401 1.42-2.499 3.15-3.139 5.05-.656 1.895-.927 3.916-.897 5.927s.295 4.022.783 5.978a26.5 26.5 0 0 0 2.085 5.654.656.656 0 0 1-.283.885.656.656 0 0 1-.929-.391c-1.218-3.958-2.237-7.985-2.208-12.126.029-2.058.304-4.13.988-6.088.685-1.95 1.752-3.783 3.198-5.284a.282.282 0 0 1 .406.391z"/><path stroke="#2A302A" stroke-linecap="round" stroke-linejoin="round" stroke-miterlimit="10" stroke-width=".967" d="M186.781 94.727a81 81 0 0 1 26.388-15.585"/><path fill="#BA885F" d="M243.402 125.906a1.566 1.566 0 0 0 .597-2.152c-3.565-6.193-7.479-12.918-10.987-19.025-.117-.204-.244-.418-.449-.531-.189-.105-.387-.103-.552.02-.973.732-1.831 1.607-2.889 2.211a659 659 0 0 1-27.84 14.999c-.477.276-.298 1.112-.037 1.598l10.179 18.964a1.584 1.584 0 0 0 2.083.681c5.501-2.677 10.697-5.809 16.171-8.824 4.552-2.506 9.162-5.369 13.724-7.941"/><path stroke="#FFF6F0" stroke-linecap="round" stroke-linejoin="round" stroke-miterlimit="10" stroke-width=".967" d="M212.741 140.155a259 259 0 0 0 28.19-16.449m-35.748-1.258 5.115 9.928c1.207 2.343 2.422 4.699 4.016 6.798"/><path stroke="#FFF6F0" stroke-linecap="round" stroke-linejoin="round" stroke-miterlimit="10" stroke-width=".967" d="M208.379 120.141c.97 2.128 2.154 4.151 3.29 6.195a160 160 0 0 1 5.661 11.19m-5.16-18.523a681 681 0 0 1 8.889 16.704m-5.177-19.009a190 190 0 0 1 8.739 16.876m-5.402-19.232 5.114 9.929c1.207 2.342 2.422 4.699 4.016 6.798m-5.934-19.034c.969 2.129 2.153 4.152 3.289 6.196a160 160 0 0 1 5.661 11.189m-5.158-18.522a679 679 0 0 1 8.889 16.704m-5.178-19.008a191 191 0 0 1 8.739 16.877"/><path stroke="#2A302A" stroke-linecap="round" stroke-linejoin="round" stroke-width=".5" d="m228.273 65.132.061.492"/><path stroke="#2A302A" stroke-dasharray=".99 1.97" stroke-linecap="round" stroke-linejoin="round" stroke-width=".5" d="M228.559 67.584c.814 7.419 2.844 29.589-.958 37.214"/><path stroke="#2A302A" stroke-linecap="round" stroke-linejoin="round" stroke-width=".5" d="M227.106 105.656a6 6 0 0 1-.293.4"/><path fill="#8D9E36" d="M225.924 38.012s10.639-1.665 6.811-11c0 0-9.056.518-6.811 11m5.642 11.497s14.203 8.602 18-6.089c0 0-11.285-8.367-18 6.09"/><path fill="#8AD8FF" d="M392.997 191.95 358.465 80.188a3.077 3.077 0 0 1 2.031-3.847l26.769-8.27a3.075 3.075 0 0 1 3.846 2.03l34.532 111.762a3.075 3.075 0 0 1-2.03 3.847l-26.769 8.271a3.076 3.076 0 0 1-3.847-2.031"/><path fill="#EEFBFF" d="M396.056 191.004 361.524 79.243a3.076 3.076 0 0 1 2.031-3.847l26.768-8.271a3.076 3.076 0 0 1 3.847 2.031l34.532 111.762a3.076 3.076 0 0 1-2.031 3.847l-26.768 8.271a3.076 3.076 0 0 1-3.847-2.032"/><path fill="#8AD8FF" d="m406.79 190.907-6.884 2.127a3.074 3.074 0 0 1-3.847-2.031L361.527 79.242a3.075 3.075 0 0 1 2.031-3.848l26.769-8.271a3.077 3.077 0 0 1 3.847 2.031l2.249 7.279-19.885 6.144a3.076 3.076 0 0 0-2.031 3.848z" opacity=".3"/><path fill="#75D1FF" d="M385.718 99.667a11.54 11.54 0 0 1-7.186-.12 11.92 11.92 0 0 1-6.915-6.248q-.345-.742-.596-1.546a12 12 0 0 1-.381-1.616 11.93 11.93 0 0 1 2.185-9.06 11.52 11.52 0 0 1 5.866-4.153 11.5 11.5 0 0 1 7.186.12 11.93 11.93 0 0 1 6.915 6.249q.347.744.597 1.549.248.805.38 1.612c.544 3.28-.31 6.54-2.185 9.06a11.54 11.54 0 0 1-5.866 4.153m10.385 33.621a11.54 11.54 0 0 1-7.187-.12 11.92 11.92 0 0 1-6.915-6.248 12.2 12.2 0 0 1-.976-3.162 11.93 11.93 0 0 1 2.185-9.06 11.52 11.52 0 0 1 5.866-4.153 11.52 11.52 0 0 1 7.186.12 11.93 11.93 0 0 1 6.915 6.249q.347.744.597 1.549.246.805.38 1.613a11.92 11.92 0 0 1-2.185 9.059 11.54 11.54 0 0 1-5.866 4.153m10.392 33.619a11.54 11.54 0 0 1-7.186-.12 11.92 11.92 0 0 1-6.915-6.248q-.345-.742-.596-1.546a12 12 0 0 1-.381-1.616c-.541-3.28.31-6.539 2.185-9.059a11.5 11.5 0 0 1 5.866-4.153 11.52 11.52 0 0 1 7.187.12 11.93 11.93 0 0 1 6.915 6.248 12.3 12.3 0 0 1 .976 3.162 11.92 11.92 0 0 1-2.185 9.06 11.54 11.54 0 0 1-5.866 4.152"/><path fill="#36A3EE" d="M375.818 98.209a11.93 11.93 0 0 1-4.205-4.906 12.2 12.2 0 0 1-.977-3.163c-.54-3.28.31-6.539 2.185-9.061a11.53 11.53 0 0 1 5.865-4.152 11.53 11.53 0 0 1 7.188.119 11.94 11.94 0 0 1 6.883 6.182 11.8 11.8 0 0 0-2.711-1.346 11.5 11.5 0 0 0-7.186-.122 11.5 11.5 0 0 0-5.867 4.155 11.94 11.94 0 0 0-2.186 9.059c.092.54.216 1.078.382 1.615.166.538.368 1.052.595 1.547zm10.387 33.619a11.93 11.93 0 0 1-4.205-4.906 12.2 12.2 0 0 1-.977-3.162c-.54-3.281.31-6.54 2.186-9.059a11.5 11.5 0 0 1 5.864-4.154 11.5 11.5 0 0 1 7.189.121 11.93 11.93 0 0 1 6.882 6.179 11.8 11.8 0 0 0-2.712-1.346 11.5 11.5 0 0 0-7.185-.122 11.52 11.52 0 0 0-5.868 4.155 11.94 11.94 0 0 0-2.185 9.059c.092.54.216 1.079.381 1.616.166.537.368 1.051.596 1.547zm10.392 33.619a11.9 11.9 0 0 1-4.204-4.906 12.2 12.2 0 0 1-.977-3.162c-.54-3.28.309-6.539 2.185-9.059a11.5 11.5 0 0 1 5.865-4.154 11.5 11.5 0 0 1 7.188.121 11.93 11.93 0 0 1 6.883 6.18 11.8 11.8 0 0 0-2.712-1.347 11.52 11.52 0 0 0-7.185-.119 11.53 11.53 0 0 0-5.868 4.152 11.94 11.94 0 0 0-2.186 9.059c.093.54.217 1.081.382 1.616.166.537.368 1.051.596 1.547z" opacity=".5"/><path fill="#36A3EE" d="m393.769 86.459-4.226 1.306-.977-3.162 4.227-1.306a12.3 12.3 0 0 1 .976 3.162m-17.927 5.539-4.226 1.306a12.2 12.2 0 0 1-.977-3.162l4.226-1.306zm4.768-14.456-3.16.976.321 1.037-4.947 1.528a11.52 11.52 0 0 1 5.867-4.152 11.5 11.5 0 0 1 7.186.12l-4.946 1.528zm5.108 22.132a11.54 11.54 0 0 1-7.186-.12l4.946-1.528.32 1.037 3.16-.976-.32-1.037 4.946-1.529a11.54 11.54 0 0 1-5.866 4.153"/><path fill="#473B54" d="M379.04 83.738c.278.9 1.221 1.408 2.106 1.134.886-.273 1.378-1.225 1.1-2.125s-1.222-1.408-2.107-1.134c-.885.273-1.378 1.224-1.099 2.125m3.123 10.111c.278.9 1.221 1.408 2.106 1.135.886-.274 1.378-1.225 1.1-2.126s-1.221-1.408-2.107-1.134c-.885.273-1.377 1.225-1.099 2.125"/><path fill="#36A3EE" d="m404.154 120.078-4.226 1.306-.977-3.162 4.226-1.306q.346.745.597 1.549.248.806.38 1.613m-17.927 5.537L382 126.921a12.2 12.2 0 0 1-.976-3.162l4.226-1.306zm4.77-14.454-3.16.976.32 1.037-4.946 1.529a11.5 11.5 0 0 1 5.866-4.153 11.52 11.52 0 0 1 7.187.12l-4.947 1.528zm5.108 22.133a11.54 11.54 0 0 1-7.187-.12l4.947-1.529.32 1.037 3.16-.976-.321-1.037 4.947-1.528a11.55 11.55 0 0 1-5.866 4.153"/><path fill="#473B54" d="M389.426 117.357c.278.9 1.222 1.408 2.107 1.134.885-.273 1.378-1.225 1.099-2.125s-1.221-1.408-2.106-1.134c-.886.273-1.378 1.225-1.1 2.125m3.127 10.113c.278.9 1.222 1.408 2.107 1.135.885-.274 1.378-1.225 1.099-2.126s-1.221-1.408-2.106-1.134c-.886.273-1.378 1.225-1.1 2.125"/><path fill="#36A3EE" d="m414.549 153.703-4.227 1.306-.977-3.162 4.227-1.306q.346.745.597 1.549.247.806.38 1.613m-17.928 5.539-4.226 1.306q-.345-.741-.596-1.546a12 12 0 0 1-.381-1.616l4.227-1.306zm4.77-14.456-3.159.976.32 1.037-4.946 1.529a11.5 11.5 0 0 1 5.866-4.153 11.5 11.5 0 0 1 7.186.12l-4.946 1.528zm5.108 22.131a11.54 11.54 0 0 1-7.186-.12l4.946-1.529.321 1.037 3.159-.976-.32-1.037 4.946-1.528a11.54 11.54 0 0 1-5.866 4.153"/><path fill="#473B54" d="M399.815 150.974c.278.9 1.221 1.408 2.107 1.134.885-.273 1.377-1.224 1.099-2.125-.278-.9-1.221-1.408-2.106-1.134-.886.273-1.378 1.225-1.1 2.125m3.123 10.113c.278.9 1.221 1.408 2.107 1.135.885-.274 1.377-1.225 1.099-2.125-.278-.901-1.221-1.408-2.106-1.135-.886.274-1.378 1.225-1.1 2.125"/><path fill="#FF6A6A" d="m402.37 184.31-2.224-7.196a.924.924 0 0 1 .609-1.155l15.58-4.814a.923.923 0 0 1 1.154.61l2.224 7.196a.924.924 0 0 1-.609 1.155l-15.58 4.813a.92.92 0 0 1-1.154-.609"/><path fill="#473B54" d="m401.659 184.523-2.219-7.182c-.274-.889.213-1.831 1.088-2.101l15.594-4.819c.874-.27 1.808.233 2.083 1.122l2.219 7.182c.275.889-.213 1.832-1.087 2.102l-15.594 4.818c-.875.27-1.809-.233-2.084-1.122m15.124-12.541a.173.173 0 0 0-.215-.115l-15.594 4.818a.17.17 0 0 0-.112.217l2.219 7.182a.173.173 0 0 0 .215.116l15.594-4.818a.173.173 0 0 0 .112-.217z"/><path fill="#EEFBFF" d="M411.416 177.574c-.36-1.166.281-2.403 1.43-2.758s2.377.304 2.737 1.47-.282 2.403-1.431 2.758-2.376-.305-2.736-1.47m3.643-1.126c-.271-.877-1.191-1.374-2.051-1.109s-1.339 1.196-1.068 2.073c.271.876 1.191 1.373 2.051 1.108.86-.266 1.339-1.196 1.068-2.072m-9.501 5.008-1.167-3.778-.438.135 1.168 3.778z"/><path fill="#FF875F" d="m350.248 90.342-.033-.034c-1.127-1.169-3.008-1.19-4.199-.048l-19.37 18.57c-1.191 1.142-1.242 3.015-.114 4.183l.032.034c1.128 1.169 3.008 1.19 4.199.048l19.37-18.57c1.192-1.142 1.243-3.015.115-4.183m6.065 8.358-.071-.073c-1.038-1.076-2.769-1.096-3.866-.044l-19.329 18.531c-1.097 1.051-1.144 2.775-.106 3.851l.071.073c1.038 1.076 2.769 1.096 3.865.044l19.33-18.531c1.097-1.051 1.144-2.775.106-3.851m6.699 8.256-.071-.073c-1.038-1.076-2.769-1.096-3.865-.045l-19.33 18.532c-1.097 1.051-1.144 2.775-.106 3.851l.071.073c1.038 1.076 2.769 1.096 3.865.044l19.33-18.531c1.097-1.051 1.144-2.776.106-3.851m6.351 8.03-.081-.062c-1.188-.909-2.907-.675-3.838.524l-16.423 21.123c-.931 1.198-.723 2.906.465 3.815l.081.062c1.189.909 2.907.675 3.839-.524l16.422-21.123c.932-1.198.724-2.906-.465-3.815"/><path fill="#FFC859" d="m350.868 91.155-.015-.038c-.584-1.52-2.301-2.26-3.837-1.654l-16.657 6.573c-1.535.606-2.306 2.329-1.722 3.849l.015.037c.584 1.52 2.302 2.26 3.837 1.654l16.657-6.573c1.535-.606 2.306-2.329 1.722-3.848m6.298 7.947-.015-.038c-.618-1.505-2.351-2.208-3.873-1.57l-25.662 10.769c-1.521.638-2.255 2.377-1.637 3.882l.015.038c.617 1.506 2.351 2.209 3.873 1.571l25.661-10.769c1.522-.639 2.255-2.377 1.638-3.883m6.533 8.291-.015-.038c-.617-1.505-2.351-2.208-3.873-1.57l-25.661 10.769c-1.522.639-2.255 2.377-1.638 3.882l.015.038c.618 1.506 2.351 2.209 3.873 1.571l25.662-10.769c1.521-.639 2.255-2.377 1.637-3.883m6.579 8.354-.016-.038c-.617-1.506-2.351-2.209-3.873-1.57l-25.661 10.768c-1.522.639-2.255 2.377-1.638 3.883l.015.038c.618 1.506 2.352 2.209 3.873 1.57l25.662-10.769c1.521-.638 2.255-2.376 1.638-3.882"/><path fill="#433651" d="M373.652 146.356a4.617 4.617 0 0 0 .771-6.483l-3.979-5.05-7.254 5.712 3.979 5.05a4.617 4.617 0 0 0 6.483.771"/><path fill="#433651" d="m374.172 124.395-21.99 17.315.034.043c4.395 5.579 12.481 6.539 18.061 2.145l1.782-1.403c5.58-4.394 6.541-12.478 2.146-18.057z"/><path fill="#433651" d="m352.744 143.592 23.125-18.209a1.704 1.704 0 1 0-2.11-2.679l-23.126 18.209a1.705 1.705 0 1 0 2.111 2.679"/><path fill="#433651" d="m350.67 140.961 23.125-18.209a1.705 1.705 0 1 0-2.111-2.679l-23.125 18.209a1.706 1.706 0 1 0 2.111 2.679"/><path fill="#272031" d="M370.047 144.078a5 5 0 0 0-.265-.393 12.85 12.85 0 0 0 2.428-6.623 12.8 12.8 0 0 0-1.721-7.436l.665-.524a1.705 1.705 0 0 0-1.842-2.853q.044-.05.083-.103a1.7 1.7 0 0 0-.029-2.071 1.7 1.7 0 0 0-2.396-.284l4.717-3.714a1.7 1.7 0 0 1 1.257-.355 1.703 1.703 0 0 1 1.085 2.813c.31-.162.656-.22.989-.18a1.707 1.707 0 0 1 .853 3.034l-.665.523c2.604 4.441 2.267 9.982-.707 14.059a4.615 4.615 0 0 1-3.887 7.374 4.6 4.6 0 0 0-.565-3.267" opacity=".5"/><path fill="#272031" d="m373.682 122.558-23.123 18.213.278.354 23.123-18.214z"/><path fill="#F1EDEA" d="M500.087 104.681a19.01 19.01 0 0 1-19.861-7.146 19 19 0 0 1-3.155-6.703L455.942 5.744a18.96 18.96 0 0 1 2.166-14.37 19 19 0 0 1 11.699-8.632 19 19 0 0 1 14.379 2.16 19 19 0 0 1 8.636 11.688l21.13 85.089a18.96 18.96 0 0 1-2.166 14.37 19 19 0 0 1-11.699 8.632"/><path fill="#D5D5D5" d="M490.246 65.868a2.42 2.42 0 0 1-2.737-1.804L471.282-1.278a2.415 2.415 0 0 1 1.774-2.893 2.42 2.42 0 0 1 2.921 1.728l16.228 65.347a2.42 2.42 0 0 1-1.766 2.929c-.065.01-.128.025-.193.035"/><path fill="#C8C8C8" d="M462.845 7.277a.486.486 0 0 1-.546-.38.484.484 0 0 1 .35-.566L487.16.247a.486.486 0 0 1 .576.355.48.48 0 0 1-.342.583L462.883 7.27zm16.952 68.248a.485.485 0 0 1-.195-.948l24.512-6.082a.483.483 0 1 1 .233.938l-24.512 6.083zm-4.24-17.059a.484.484 0 0 1-.194-.946l24.511-6.084a.48.48 0 0 1 .517.176q.058.079.082.174a.5.5 0 0 1-.059.371.48.48 0 0 1-.307.218l-24.512 6.084zm-4.239-17.059a.484.484 0 0 1-.194-.946l24.511-6.083a.484.484 0 0 1 .233.938l-24.51 6.083zm-4.232-17.064a.484.484 0 0 1-.194-.946l24.511-6.084a.486.486 0 0 1 .599.35.5.5 0 0 1 .008.192.48.48 0 0 1-.374.397l-24.511 6.082zm1.635-9.46a.484.484 0 0 1-.194-.947l16.998-4.219a.484.484 0 0 1 .233.939l-16.998 4.219zm4.241 17.058a.484.484 0 0 1-.195-.948l17-4.218a.48.48 0 0 1 .516.176.5.5 0 0 1 .091.366.485.485 0 0 1-.374.397l-17 4.218zm4.236 17.062a.484.484 0 0 1-.194-.946l16.999-4.219a.49.49 0 0 1 .517.176.477.477 0 0 1-.108.685.5.5 0 0 1-.176.078l-16.999 4.219zm4.237 17.061a.486.486 0 0 1-.545-.381.483.483 0 0 1 .35-.565l17-4.22a.48.48 0 0 1 .516.177.5.5 0 0 1 .091.365.485.485 0 0 1-.374.397l-17 4.218z"/><path fill="#FF821C" d="M497.173 95.913c4.832-.795 8.106-5.352 7.312-10.18s-5.354-8.098-10.186-7.304-8.105 5.352-7.311 10.18c.793 4.828 5.354 8.098 10.185 7.304"/><path fill="#FF821C" d="M496.123 89.557a2.42 2.42 0 0 1-2.738-1.802l-14.49-58.418a2.4 2.4 0 0 1 .258-1.85 2.42 2.42 0 0 1 2.45-1.157 2.42 2.42 0 0 1 1.593.975c.188.26.322.554.395.866l14.491 58.419a2.42 2.42 0 0 1-1.959 2.967"/><path fill="#2F4672" d="m538.215 302.89-55.422 16.93-21.85-71.527 55.422-16.93zm-55.155 16.428 54.653-16.695-21.615-70.758-54.653 16.695z"/><path fill="#4593CE" d="m512.72 238.841-44.554 13.61 18.294 59.888 44.554-13.61z" opacity=".7"/><path fill="#EEFBFF" d="m461.209 248.42 21.732 71.143 55.037-16.812-21.732-71.143zm69.808 50.304-44.554 13.61-18.295-59.887 44.555-13.61z"/><path fill="#8AD8FF" d="m533.721 300.196-48.69 14.873L465.459 251l48.69-14.874zm-47.363 12.408 44.884-13.711-18.42-60.301-44.885 13.711z" opacity=".7"/><path fill="#7AC2EA" d="M483.037 319.772a.344.344 0 0 1-.428-.228l-21.661-70.912a.342.342 0 0 1 .498-.396l6.84 3.957c.075.043.13.113.156.196l18.283 59.852a.34.34 0 0 1-.019.249l-3.462 7.104a.34.34 0 0 1-.207.178m-21.343-70.711 21.295 69.711 3.144-6.452-18.226-59.666z"/><path fill="#7AC2EA" d="m512.785 239.135-44.515 13.598a.34.34 0 0 1-.27-.03l-6.849-3.962a.341.341 0 0 1 .071-.624l54.828-16.749a.342.342 0 0 1 .408.478l-3.466 7.112a.34.34 0 0 1-.207.177M468.2 252.138l44.31-13.536 3.169-6.504-53.742 16.417z"/><path fill="#7AC2EA" d="M537.992 302.985a.34.34 0 0 1-.271-.031l-6.84-3.956a.34.34 0 0 1-.156-.197l-18.283-59.852a.34.34 0 0 1 .02-.252l3.461-7.101a.341.341 0 0 1 .634.05l21.662 70.912a.34.34 0 0 1-.031.271.34.34 0 0 1-.196.156m-6.732-4.449 6.213 3.593-21.295-69.71-3.144 6.452z"/><path fill="#7AC2EA" d="m537.959 303.073-54.828 16.749a.342.342 0 0 1-.408-.478l3.466-7.111a.34.34 0 0 1 .207-.178l44.515-13.598a.34.34 0 0 1 .272.032l6.847 3.96a.344.344 0 0 1-.071.624m-54.457 16.019 53.741-16.417-6.263-3.622-44.309 13.535z"/><path fill="#EEFBFF" d="m470.309 236.939 22.52 73.723 57.034-17.422-22.52-73.723zm26.17 66.231-18.957-62.057 46.171-14.104 18.957 62.057z"/><path fill="#4593CE" d="m523.686 227.015-46.17 14.104 18.957 62.058 46.17-14.104z" opacity=".5"/><path fill="#8AD8FF" d="m545.354 290.51-50.308 15.368-20.222-66.198 50.308-15.368zm-48.937 12.82 46.376-14.166-19.032-62.305-46.376 14.167z" opacity=".7"/><path fill="#99D6FF" d="M492.93 310.868a.343.343 0 0 1-.427-.228l-22.45-73.493a.34.34 0 0 1 .497-.395l7.094 4.103a.34.34 0 0 1 .156.196l18.946 62.023a.34.34 0 0 1-.019.249l-3.59 7.368a.34.34 0 0 1-.207.177m-22.13-73.291 22.083 72.29 3.272-6.714-18.89-61.836zm79.077 55.896a.34.34 0 0 1-.271-.032l-7.093-4.103a.34.34 0 0 1-.156-.196l-18.947-62.023a.34.34 0 0 1 .02-.25l3.59-7.367a.343.343 0 0 1 .634.05l22.45 73.493a.34.34 0 0 1-.227.428m-6.985-4.597 6.465 3.74-22.083-72.29-3.272 6.714z"/><path fill="#99D6FF" d="m523.756 227.312-46.131 14.092a.34.34 0 0 1-.271-.032l-7.102-4.108a.344.344 0 0 1 .071-.624l56.827-17.359a.343.343 0 0 1 .407.477l-3.593 7.376a.35.35 0 0 1-.208.178m-46.201 13.496 45.926-14.029 3.297-6.768-55.739 17.027zm72.285 52.751-56.827 17.359a.341.341 0 0 1-.407-.477l3.594-7.376a.34.34 0 0 1 .207-.177l46.132-14.092a.34.34 0 0 1 .271.031l7.101 4.109a.342.342 0 0 1-.071.623m-56.455 16.629 55.739-17.027-6.516-3.77-45.926 14.029z"/><path fill="#EEFBFF" d="m498.518 235.02-14.314 26.954-1.246-4.077 11.489-21.633zm30.503 10.502 1.245 4.077-14.766 27.804-2.658-1.417zm-5.559-18.113.278.91-29.689 55.906-3.51-1.461-2.984-9.77 21.94-41.319z" opacity=".5"/><path fill="#F8CD9E" d="m543.035 259.671-76.004 23.218 12.87 42.129 76.003-23.217z"/><path fill="#FB9D7E" d="m482.773 278.08-15.742 4.809 12.87 42.129 15.741-4.808zm73.508 1.58-59.916 18.303-13.199-20 59.915-18.303z"/><path fill="#FB9D7E" d="m544.052 263.045-48.469 57.186 60.31-18.423z" opacity=".3"/><path fill="#70617F" d="m541.346 303.418 7.008-2.141-.341-1.115-7.008 2.141zm3.854-7.237-.802.245 1.23 4.026.802-.245z"/><path fill="#70617F" d="m546.103 296.297-1.835-1.714-.564 2.447zm-4.17.884-.802.245 1.23 4.026.802-.245z"/><path fill="#70617F" d="m542.837 297.295-1.835-1.714-.564 2.447zm-12.695 4.168c-1.077-.184-2.182.661-2.182.661-1.052-.099-1.699.496-1.699.496s.076-2.039 3.244-3.24c3.299-.775 4.501.874 4.501.874s-.869-.132-1.686.538c0 0-1.388-.084-2.178.671.004.001-.003.003 0 0"/><path fill="#70617F" d="m531.45 306.027.192-.059-.108-.353-1.963-6.426a.097.097 0 0 0-.121-.065l-.025.008a.097.097 0 0 0-.065.121l1.933 6.326.117.383z"/><path fill="#70617F" d="m531.286 305.585.105.344a.3.3 0 0 0 .052.103v.001a.58.58 0 0 0 .631.217l.025-.007a.57.57 0 0 0 .416-.583.117.117 0 0 0-.233.011.34.34 0 0 1-.239.345l-.036.011a.34.34 0 0 1-.42-.22l-.06-.186-.033-.103zm-12.1.557a2.47 2.47 0 0 0 1.64-3.088l-.362-1.183-4.726 1.443.362 1.184a2.47 2.47 0 0 0 3.086 1.644"/><path fill="#70617F" d="m519.874 309.424.583-.178-1.272-4.163-.583.178z"/><path fill="#70617F" d="m518.945 309.577 2.348-.717a.323.323 0 0 1 .405.216.324.324 0 0 1-.215.405l-2.348.717a.325.325 0 0 1-.19-.621"/><path fill="#EA876C" d="m468.619 283.267-.654.471 26.077 36.304.654-.471z"/><path fill="#EA876C" d="m482.177 279.677-1.769 44.393.806.033 1.768-44.393z"/><path fill="#D16247" d="m467.131 306.834 15.851-4.842-.229-23.962-15.852 4.843z"/><path fill="#FB9D7E" d="m494.657 306.454 7.073-2.161-.821-2.689-7.073 2.161z"/><path fill="#FFDC62" d="M544.753 212.506c-6.471 3.863-7.325 5.652-6.574 13.769-3.914-7.151-5.622-8.157-13.147-7.745 6.471-3.862 7.326-5.652 6.575-13.769 3.913 7.151 5.621 8.158 13.146 7.745"/><path fill="#E0E0E0" d="m237.055 272.32-3.653.237.747 11.534 3.653-.236z"/><path fill="#E0E0E0" d="m241.324 282.393-10.865.703.193 2.982 10.865-.703zm54.751-13.542-3.653.237.746 11.535 3.654-.237z"/><path fill="#E0E0E0" d="m300.34 278.924-10.865.703.193 2.983 10.865-.703zm-37.452-39.053-3.654.236 2.334 36.063 3.653-.237z"/><path fill="#E0E0E0" d="m268.742 274.469-10.865.703.193 2.983 10.865-.704zm51.368-66.403-3.653.237 4.145 64.052 3.653-.236z"/><path fill="#E0E0E0" d="m327.783 270.658-10.865.703.193 2.983 10.865-.703zm-107.833 4.005-.281-4.35 21.292-61.035 79.419-5.14 1.41 4.33-17.507 60.737z"/><path fill="#455A64" d="m225.654 265.695 18.032-51.69 69.919-4.525-14.842 51.484z"/><path fill="#fff" d="M305.397 210.007c-.471.03-71.388 31.729-71.388 31.729l-6.125 17.557 81.494-35.159 4.226-14.659z" opacity=".3"/><path fill="#000" d="m219.669 270.313 82.435-5.042 18.276-61.133 1.41 4.33-17.507 60.737-84.333 5.458z" opacity=".3"/><path fill="#E0E0E0" d="m237.747 230.958 58.023-3.755 16.462-1.066c1.738-.112 1.565-2.813-.175-2.7l-58.023 3.755-16.462 1.065c-1.738.113-1.566 2.813.175 2.701m-6.629 18.821 58.023-3.755 16.462-1.065c1.738-.113 1.566-2.814-.175-2.702l-58.023 3.755-16.462 1.066c-1.738.113-1.566 2.814.175 2.701"/><path fill="#E0E0E0" d="m250.372 267.611 6.169-19.451 9.787-30.859 2.257-7.12c.527-1.661-2.129-2.194-2.651-.549l-6.168 19.451-9.787 30.859-2.258 7.12c-.527 1.661 2.13 2.194 2.651.549m24.657-2.388 5.999-18.919 9.517-30.009 2.195-6.92c.527-1.661-2.13-2.195-2.651-.55l-6 18.919-9.517 30.009-2.195 6.92c-.526 1.662 2.13 2.194 2.652.55"/><path fill="#2E194C" d="M115.954 207.79a8 8 0 0 0-2.949-.099c-.78.117-.633 1.339.15 1.222a7 7 0 0 1 2.62.095c.773.172.946-1.048.179-1.218"/><path fill="#808FFF" d="M116.026 221.014a3.13 3.13 0 0 1-2.719 3.493 3.126 3.126 0 0 1-3.482-2.727 3.13 3.13 0 0 1 2.719-3.494 3.125 3.125 0 0 1 3.482 2.728"/><path fill="#2E194C" d="M118.188 210.009c1.245.377 2.494 1.631 3.079 2.771.358.698 1.497.236 1.135-.47-.383-.747-.914-1.417-1.517-1.999-.573-.552-1.443-1.2-2.212-1.433-.749-.228-1.24.901-.485 1.131m-3.875 9.046c.255-.636.353-1.321.607-1.957.294-.736-.834-1.223-1.128-.487-.254.637-.352 1.321-.607 1.957-.294.736.833 1.223 1.128.487m-1.549 6.711c.167-.593.307-1.189.432-1.792.162-.778-1.054-.953-1.214-.18a26 26 0 0 1-.433 1.793c-.09.32.22.655.518.699.363.053.606-.198.697-.52"/><path fill="#DA5ED2" d="M114.659 228.146a3.13 3.13 0 0 0-2.852-3.386 3.127 3.127 0 0 0-3.376 2.859 3.13 3.13 0 0 0 2.851 3.387 3.13 3.13 0 0 0 3.377-2.86"/><path fill="#2E194C" d="M110.083 231.743q.474-.72.89-1.473c.161-.291-.038-.687-.321-.809-.331-.143-.645.031-.807.322a18 18 0 0 1-.729 1.202c-.183.277-.17.648.106.864.246.193.678.172.861-.106"/><path fill="#FBB436" d="M112.509 235.617c-.504-.697-1.137-1.065-1.598-1.351-.271-.169-.624-.287-.689-.621-.057-.291.091-.627.124-.915.044-.396.084-.799.058-1.198-.05-.753-.402-1.337-1.236-1.123-.724.186-1.436.446-2.148.678-.118.039-.242.078-.365.061-.2-.027-.367-.189-.534-.291l-.99-.604c-.562-.343-1.239-.643-1.822-.164-.54.443-.532 1.194-.55 1.83l-.033 1.148c-.009.296.053.634-.178.854-.399.382-.87.672-1.312.998-.288.212-.949.981-.884 1.417.07.465.945.809 1.308.932.578.196 1.182.282 1.762.467.12.038.242.084.339.166.361.301.309.633.42 1.058.173.665.406 1.616.907 2.112 1.201 1.187 2.416-.745 2.724-1.755.16-.526.231-1.13.782-1.388.622-.291 2.517-.142 3.767-.717.727-.334.535-1.059.148-1.594"/><path fill="#808FFF" d="M121.233 209.26a3.132 3.132 0 0 1-3.244 3.514 3.1 3.1 0 0 1-1.888-.751h-.002l-.024-.022a3 3 0 0 1-.436-.471 3.1 3.1 0 0 1-.609-1.504 3.13 3.13 0 0 1 .886-2.594l.032-.03a2.8 2.8 0 0 1 .562-.439l.1-.058q.045-.025.092-.048l.011-.007.11-.054.097-.042.021-.009.008-.003.07-.028q.022-.01.045-.016.046-.018.091-.032l.108-.034q.046-.014.092-.025.064-.017.128-.03l.09-.018.011-.001.061-.011q.052-.01.105-.015a3.127 3.127 0 0 1 3.483 2.728"/><path fill="#DA5ED2" d="M112.79 211.935a3.136 3.136 0 0 0 1.834-4.032 3.12 3.12 0 0 0-4.021-1.839 3.136 3.136 0 0 0-1.834 4.032 3.12 3.12 0 0 0 4.021 1.839"/><path fill="#2E194C" d="M109.153 209.288c-.564.396-1.087.829-1.609 1.28-.596.514.144 1.498.744.979a20 20 0 0 1 1.609-1.28c.647-.455-.097-1.434-.744-.979"/><path fill="#808FFF" d="M109.308 212.501a3.13 3.13 0 0 1-3.072 3.186 3.13 3.13 0 0 1-3.177-3.08 3.13 3.13 0 0 1 3.072-3.187 3.13 3.13 0 0 1 3.177 3.081"/><path fill="#FBB436" d="M104.507 212.298a2.6 2.6 0 0 0-1.096-.788 1.6 1.6 0 0 0-.688-.094c-.272.024-.518.127-.762.245l-3.024 1.479-1.498.734-.31.152a5.3 5.3 0 0 0-.903.549c-.282.22-.494.497-.628.802-.15.34-.2.715-.14 1.09q.04.257.152.51.04.09.093.173.083.456.265.887c.17.396.412.767.704 1.084.136.147.293.306.47.433.213.155.454.266.712.256.53-.02 1.073-.274 1.54-.504.488-.24.96-.51 1.435-.77l2.953-1.606c.414-.227.9-.43 1.23-.778.343-.365.423-.84.398-1.325-.049-.906-.313-1.823-.903-2.529"/><path fill="#DA5ED2" d="M97.409 217.846a3.127 3.127 0 0 1-2.72 3.495 3.1 3.1 0 0 1-1.916-.38 3.13 3.13 0 0 1-1.568-2.349 3.13 3.13 0 0 1 .784-2.483 3.11 3.11 0 0 1 3.609-.753 3.13 3.13 0 0 1 1.81 2.47"/><path fill="#2E194C" d="M92.136 218.158a82 82 0 0 0-3.165-.154c-.78-.017-.967 1.201-.18 1.218a82 82 0 0 1 3.166.154c.784.049.968-1.169.18-1.218"/><path fill="#808FFF" d="M89.584 220.72a3.14 3.14 0 0 0-1.642-4.115 3.12 3.12 0 0 0-4.102 1.647 3.14 3.14 0 0 0 1.642 4.115 3.12 3.12 0 0 0 4.102-1.647"/><path fill="#2E194C" d="M84.552 219.078c-1.231.649-2.277 1.52-3.276 2.482-.563.542.174 1.528.744.979.915-.881 1.872-1.728 3-2.322.693-.365.234-1.508-.468-1.139"/><path fill="#DA5ED2" d="M119.036 214.751a3.137 3.137 0 0 1-2.721 3.494 3.124 3.124 0 0 1-3.483-2.728 3.133 3.133 0 0 1 3.193-3.515h.051q.073.003.143.01a3.1 3.1 0 0 1 1.771.763c.559.49.948 1.18 1.046 1.976m-35.252 8.998a3.13 3.13 0 0 0-2.749-3.471 3.127 3.127 0 0 0-3.46 2.757 3.13 3.13 0 0 0 2.748 3.47 3.126 3.126 0 0 0 3.46-2.756"/><path fill="#2E194C" d="M79.116 224.758a9.6 9.6 0 0 0-1.297 4.021c-.07.787 1.145.97 1.215.18.117-1.334.538-2.562 1.21-3.715.399-.683-.734-1.162-1.128-.486"/><path fill="#808FFF" d="M79.446 233.03a3.14 3.14 0 0 0 1.445-4.188 3.12 3.12 0 0 0-4.176-1.45 3.14 3.14 0 0 0-1.446 4.189 3.12 3.12 0 0 0 4.176 1.449"/><path fill="#2E194C" d="M78.51 232.632c.3.878.668 1.722 1.1 2.541.367.694 1.506.233 1.136-.469a17.6 17.6 0 0 1-1.101-2.542c-.256-.749-1.39-.279-1.135.47"/><path fill="#FBB436" d="M84.59 231.656c-.33-.43-.897-.62-1.43-.709-1.58-.263-2.452.844-2.91 2.186q-.138.401-.241.814c-.58-.138-1.196-.15-1.79-.112-1.713.112-4.026 1.849-2.279 4.06 1.845 2.335 6.753 3.567 8.386.996.59-.93.94-2.098 1.154-3.179.25-1.269-.135-3.073-.89-4.056"/><path fill="#2E194C" d="M82.886 239.921c.482.509.955 1.029 1.48 1.496.247.221.666.144.86-.106.216-.277.143-.643-.105-.864-.447-.398-.849-.839-1.259-1.273-.228-.241-.577-.333-.86-.116-.242.185-.345.62-.116.863"/><path fill="#DA5ED2" d="M89.783 242.135a3.13 3.13 0 0 0-2.9-3.345 3.13 3.13 0 0 0-3.335 2.908 3.13 3.13 0 0 0 2.9 3.345 3.13 3.13 0 0 0 3.335-2.908"/><path fill="#2E194C" d="M102.438 239.641a19 19 0 0 0 2.243-1.733c.585-.524-.153-1.508-.744-.979a19.4 19.4 0 0 1-2.243 1.733c-.66.437.086 1.415.744.979m-14.015 3.592c.791.178 1.59.281 2.4.32.783.037.968-1.18.18-1.218a14 14 0 0 1-2.401-.32c-.772-.173-.946 1.046-.18 1.218"/><path fill="#808FFF" d="M96.383 242.996a3.135 3.135 0 0 0-2.043-3.929 3.12 3.12 0 0 0-3.918 2.049 3.136 3.136 0 0 0 2.043 3.93 3.124 3.124 0 0 0 3.918-2.05"/><path fill="#DA5ED2" d="M102.103 242.321a3.14 3.14 0 0 0 0-4.432 3.12 3.12 0 0 0-4.419 0 3.14 3.14 0 0 0 0 4.432 3.12 3.12 0 0 0 4.419 0"/><path fill="#2E194C" d="M95.356 242.608c1.033-.128 1.984-.301 2.911-.796.69-.369.23-1.512-.468-1.138-.837.447-1.66.596-2.593.712-.784.097-.635 1.319.15 1.222m26.502-30.624c-1.012.103-1.979.24-2.917.655-.412.183-.802.402-1.192.626-.303.175-.617.472-.921.618-.709.341-.247 1.482.468 1.138.261-.125.457-.332.7-.486.383-.244.788-.464 1.197-.659.91-.432 1.823-.569 2.815-.67.787-.08.637-1.302-.15-1.222"/><path fill="#808FFF" d="M112.545 218.288a3.1 3.1 0 0 0-1.606.692c.464.529.934 1.057 1.342 1.628.235.328.445.672.609 1.041.169.383.29.787.377 1.195s.144.821.191 1.236l.031.287.012.111a3.13 3.13 0 0 0 2.526-3.462 3.125 3.125 0 0 0-3.482-2.728"/><path fill="#D5CEE3" d="M122.893 207.516c-.378-.839-.927-1.549-1.546-1.997a3 3 0 0 0-.157-.107c.374-.985.305-2.219-.261-3.412a1.11 1.11 0 0 0-1.646-.421l-.446.318-.441-.674 1.603-1.13c.385-.174.678-.628.397-1.013l-9.349-12.801q-.027-.037-.057-.068a3 3 0 0 0-.117-.17c-1.243-1.703-3.842-1.919-5.806-.484-1.964 1.434-2.547 3.978-1.304 5.681q.061.084.127.162.02.038.046.075l9.057 12.399c.262.48.793.609 1.188.32l1.628-1.147.451.689-.709.506a1.12 1.12 0 0 0-.466.823c-.026.327.092.646.324.875.859.848 1.887 1.315 2.86 1.363.007.664.174 1.391.489 2.089.731 1.622 2.023 2.618 3.111 2.484q.23-.028.444-.124v-.001c1.159-.526 1.414-2.386.58-4.235m-13.13-11.343c-.192.136-.451.102-.577-.077l-4.085-5.571c-.908-1.289-.512-2.69.909-3.697 1.421-1.006 2.87-.913 3.778.376l4.048 5.747c.126.179.072.435-.12.571zm6.316 9.085a.15.15 0 0 1-.042-.116.16.16 0 0 1 .067-.12l.681-.485.381.582c.482.736 3.124-1.003 2.642-1.74l-.446-.681.475-.34a.14.14 0 0 1 .073-.028.2.2 0 0 1 .062.004c.03.008.072.028.095.078.439.924.503 1.889.232 2.633a1.6 1.6 0 0 0-.961.111c-.457.207-.783.62-.948 1.186-.766-.017-1.613-.394-2.311-1.084m5.84 5.621c-.566.257-1.647-.452-2.291-1.882-.272-.601-.415-1.24-.405-1.788a2.8 2.8 0 0 0 .935-.436c.212-.151.396-.331.556-.529l.074.051c.479.347.929.936 1.236 1.615.644 1.43.462 2.712-.105 2.969"/><path fill="#000" d="m116.127 203.133 2.289-1.578c.108-.074-.016-.238-.125-.163l-2.288 1.578c-.109.074.015.238.124.163m.028.935c.031.093.08.18.129.265a.8.8 0 0 0 .175.225c.042.033.112.027.144-.018a.105.105 0 0 0-.018-.144l-.019-.016c-.012-.01.015.016.007.007l-.01-.011q-.02-.023-.038-.047a1 1 0 0 1-.078-.12c-.01-.017.007.014.001.002l-.01-.017-.017-.032-.031-.062a1 1 0 0 1-.046-.111c-.017-.051-.086-.078-.134-.055-.053.024-.073.079-.055.134m2.813-2.002c.097.174.22.328.334.489a.104.104 0 0 0 .144.02.106.106 0 0 0 .019-.144l-.165-.226-.079-.114-.035-.054-.019-.032q-.009-.015 0-.001l-.009-.016c-.026-.047-.08-.081-.134-.056-.045.022-.083.084-.056.134m-.19 4.197c.199-.212.505-.272.785-.253.267.018.595.092.797.279.097.09.222-.072.126-.161-.236-.22-.63-.312-.943-.324-.345-.013-.684.076-.926.333-.091.096.071.221.161.126m-.288 1.299c.202-.017.403-.021.597-.085.051-.016.078-.086.056-.134-.025-.053-.079-.073-.134-.055a1 1 0 0 1-.126.031 2 2 0 0 1-.138.019c-.093.009-.187.013-.28.021a.103.103 0 0 0-.089.114c.01.057.057.094.114.089m2.034-2.55q.075.01.148.028l.02.005c.015.004-.016-.005-.002 0l.035.011a1 1 0 0 1 .169.075c.01.005.006.003-.001-.001l.017.01q.065.042.123.093c.04.036.112.026.143-.018a.105.105 0 0 0-.017-.144 1.13 1.13 0 0 0-.605-.262c-.053-.006-.11.031-.116.087-.005.054.03.109.086.116m-6.264-11.925a2.7 2.7 0 0 1 .544-.37q.128-.063.252-.134a.6.6 0 0 0 .196-.163c.075-.109-.086-.235-.161-.126a.5.5 0 0 1-.161.127c-.078.045-.159.083-.239.124a2.8 2.8 0 0 0-.555.379c-.099.086.024.25.124.163m-4.034-5.557c.113.021.22-.009.333-.008.111.002.194.063.275.134.155.137.28.304.436.44.299.264.645.35 1.037.306.131-.015.106-.219-.025-.204-.182.021-.37.021-.543-.045a1.3 1.3 0 0 1-.446-.315c-.137-.139-.259-.3-.42-.413a.53.53 0 0 0-.281-.106c-.113-.006-.224.028-.336.008-.13-.024-.159.179-.03.203m4.048 8.669c-.348-.375-.246-1.011.065-1.378.344-.406 1.017-.475 1.449-.175.678.471.539 1.585-.204 1.919-.23.104-.504.125-.747.054-.28-.081-.473-.296-.634-.528-.076-.109-.238.016-.163.124.164.236.364.456.636.565.258.103.556.109.824.034.461-.13.792-.528.901-.987a1.29 1.29 0 0 0-.389-1.266c-.469-.406-1.227-.402-1.699-.001-.478.405-.653 1.276-.202 1.763.089.096.253-.027.163-.124m-15.839 23.132c.629-.667.564-1.701.289-2.511a3.1 3.1 0 0 0-.76-1.234c-.191-.189-.404-.38-.657-.481-.255-.101-.532-.121-.784-.232-.12-.054-.201.135-.08.188.228.101.473.127.708.205.245.082.443.248.628.424.343.325.584.721.741 1.166.266.754.342 1.724-.246 2.349-.09.096.071.222.161.126"/><path fill="#D5CEE3" d="m79.674 200.576-2.176 4.448-5.333 10.897-6.7 13.69-.72 1.472-5.2-2.561a.137.137 0 0 0-.184.063l-2.018 4.125a.14.14 0 0 0 .062.184l3.013 1.482a.14.14 0 0 1 .062.184l-.68 1.39a.137.137 0 0 1-.183.063l-3.013-1.483a.137.137 0 0 0-.183.063l-5.407 11.05a.14.14 0 0 0 .063.184l3.012 1.482a.14.14 0 0 1 .062.184l-1.305 2.668a.14.14 0 0 0 .062.184l1.923.946c-.116.223-.232.452-.279.693-.214 1.117 1.566 2.04 2.373 1.382.23-.186.403-.468.551-.772l5.473 2.693c.068.034.15.006.183-.063l3.409-6.965a.14.14 0 0 0-.063-.184l-3.012-1.483a.137.137 0 0 1-.063-.184l.68-1.39a.136.136 0 0 1 .184-.062l3.012 1.482c.068.034.15.005.183-.063l.62-1.267a.14.14 0 0 0-.062-.184l-3.012-1.482a.14.14 0 0 1-.063-.184l.681-1.392a.136.136 0 0 1 .183-.062l3.012 1.482c.068.034.15.006.184-.063l3.9-7.971a.14.14 0 0 0-.062-.184l-5.567-2.74 6.492-13.266 5.694-11.636 2.706-5.531.036-.073a.54.54 0 0 0 .044-.327c-.12-.781-1.996-2.1-2.574-.919"/><path fill="#2E194C" d="M91.167 185.829c-.64-.494-1.34-.931-2.093-1.303-6.119-3.012-13.513-.476-16.515 5.659-3.004 6.137-.48 13.553 5.64 16.565a12.26 12.26 0 0 0 7.113 1.153 12.33 12.33 0 0 0 9.403-6.811c2.633-5.38 1.016-11.746-3.548-15.263m-3.925 6.27a2.81 2.81 0 0 1-3.844-2.265 2.815 2.815 0 0 1 2.444-3.14 2.806 2.806 0 0 1 3.131 2.452 2.816 2.816 0 0 1-1.731 2.953"/><path fill="#200F38" d="M91.168 185.83a11.8 11.8 0 0 0-1.981 1.755q-.265.296-.507.608a2.816 2.816 0 0 1-1.437 3.907 1.7 1.7 0 0 1-.264.199 1.4 1.4 0 0 1-.034.171c-.073.273-.228.523-.382.756-.159.24-.335.467-.513.692-.182.231-.366.46-.536.7a7 7 0 0 0-.463.769 11 11 0 0 0-.7 1.615c-.372 1.097-.554 2.265-.472 3.423.04.583.147 1.161.32 1.719.497 1.591 1.07 3.218 1.22 4.378.054.418-.056.85-.106 1.382a12.33 12.33 0 0 0 9.403-6.812c2.633-5.38 1.016-11.745-3.548-15.262"/><path fill="#9F99BF" d="M108.731 172.702c.269.412 1.521 3.333 1.938 4.585.859.927 2.014.192 2.087 0 .154-.408-2.087-5.842-3.143-6.885-3.262-4.198-8.579-6.629-14.219-5.932-8.535 1.054-14.624 8.876-13.573 17.436q.091.742.248 1.456a12 12 0 0 1 2.083-.091 14 14 0 0 1-.3-1.616c-.914-7.437 4.376-14.233 11.792-15.149 5.349-.66 10.364 1.917 13.087 6.196M83.856 187.92a15.7 15.7 0 0 0 3.009 3.689q.662-.788 1.468-1.435a13.6 13.6 0 0 1-2.787-3.426 2.8 2.8 0 0 0-1.69 1.172m25.303-1.361c-2.032 3.68-5.73 6.372-10.203 6.924a13.4 13.4 0 0 1-5.274-.392 2.8 2.8 0 0 0-.51 1.987c1.909.528 3.95.699 6.034.441 4.855-.599 8.918-3.389 11.326-7.258l-.743-1.055a2.7 2.7 0 0 0-.63-.647"/><path fill="#9F99BF" d="m112.588 176.948-.014-.021q-.02-.028-.043-.052l-.019-.021-.05-.042q-.01-.01-.02-.016a.5.5 0 0 0-.079-.045c-.269-.12-.605-.308-.899-.306q-.09.001-.169.013l-.048.009q-.054.01-.103.023l-.049.016q-.044.016-.086.035l-.042.021a1 1 0 0 0-.195.147l-.011.01q-.094.099-.162.222l-.003.006a2 2 0 0 0-.061.126q.136.62.215 1.261a13.54 13.54 0 0 1-.902 6.785 3.4 3.4 0 0 1 1.144 1.094l.057.068.325.445a15.6 15.6 0 0 0 1.229-9.752z"/><path fill="#000" d="M54.863 251.074q.978-1.959 1.952-3.921l1.568-3.166 1.547-3.129a2989 2989 0 0 1 4.768-9.598c.059-.119-.13-.199-.188-.081a4206 4206 0 0 0-4.556 9.168l-1.568 3.171q-.775 1.569-1.553 3.138-.941 1.898-1.887 3.794l-.27.543c-.06.119.129.199.187.081m2.834 1.336a2378 2378 0 0 0 3.513-7.074l1.541-3.117a3839 3839 0 0 1 4.388-8.834l.372-.748c.06-.119-.129-.199-.188-.081a3619 3619 0 0 0-4.548 9.154l-1.562 3.159a2391 2391 0 0 1-3.704 7.46c-.059.119.13.199.188.081"/><path fill="#000" d="M52.655 242.891c1.626.804 3.27 1.568 4.896 2.372.118.058.198-.13.08-.189-1.625-.804-3.27-1.567-4.895-2.371-.118-.059-.198.13-.08.188m2.66-5.314 4.803 2.377c.118.058.198-.131.08-.189l-4.802-2.377c-.118-.058-.198.13-.08.189m10.637-1.313 4.909 2.43c.118.058.198-.13.08-.189l-4.908-2.429c-.118-.059-.198.13-.08.188m-7.168 14.07 5.15 2.55c.119.058.2-.13.081-.189l-5.15-2.549c-.118-.059-.198.13-.08.188m24.994-63.292a7.13 7.13 0 0 0-5.212 1.542c-1.435 1.153-2.44 2.794-2.927 4.563a8.95 8.95 0 0 0 .277 5.579 9.4 9.4 0 0 0 3.376 4.329c1.525 1.06 3.371 1.613 5.23 1.485q.363-.026.722-.083c.13-.021.105-.225-.025-.204a7.93 7.93 0 0 1-5.248-1.006c-1.56-.912-2.818-2.323-3.59-3.955a8.78 8.78 0 0 1-.712-5.366c.33-1.771 1.196-3.465 2.496-4.716 1.306-1.257 3.025-2.006 4.843-2.006q.37.001.74.041c.13.013.16-.19.03-.203"/></svg>