<svg xmlns="http://www.w3.org/2000/svg" width="82" height="33" fill="none"><g fill="#26827C" clip-path="url(#a)"><path fill-rule="evenodd" d="M33.52 0v33H.07V0zM12.9 1.57h19.04v18.78a8.6 8.6 0 0 0-5.54-.62 10 10 0 0 0 .54-3.23c0-5.53-4.55-10.01-10.16-10.01q-1.73 0-3.27.53a8 8 0 0 0 .2-1.85 8 8 0 0 0-.82-3.6M1.66 10.03V1.57h8.45a6 6 0 0 1 1.2 3.6c0 3.31-2.72 6-6.08 6a6 6 0 0 1-3.57-1.14m0 2.72v18.68h18.92a8 8 0 0 1-.8-3.54q0-.98.22-1.9-1.53.52-3.22.52A10.1 10.1 0 0 1 6.62 16.5a10 10 0 0 1 .53-3.19 9 9 0 0 1-1.92.22 9 9 0 0 1-3.57-.78m21.68 18.68h8.6v-8.34a6 6 0 0 0-3.68-1.2 6.05 6.05 0 0 0-6.09 6c0 1.32.44 2.54 1.17 3.54" clip-rule="evenodd"/><path d="M40.64 14.77h2.18V6.3h-2.18zm4.17 0h1.96v-3.8c.13-.21.38-.75 1-.75.55 0 .83.38.83.93v3.62h1.97v-3.86c.1-.15.35-.68.97-.68.55 0 .83.37.83.92v3.62h1.97v-3.7c0-1.78-1.03-2.65-2.27-2.65-.94 0-1.52.47-1.93.97a2.1 2.1 0 0 0-1.85-.97 2.3 2.3 0 0 0-1.52.56v-.32H44.8zm11.07 2.99h1.96v-3.27q.65.52 1.72.52c1.98 0 3.12-1.51 3.12-3.3s-1.14-3.29-3.12-3.29a2.7 2.7 0 0 0-1.72.52v-.28h-1.96zm1.97-5.32-.01.02v-1.48.01c.38-.5.8-.76 1.43-.76.86 0 1.4.59 1.4 1.49s-.54 1.49-1.4 1.49c-.62 0-1.05-.27-1.42-.77m7.7 2.58c.65 0 1.33-.3 1.67-.7v.45h1.97v-3.85c0-1.34-.9-2.5-2.88-2.5a3.2 3.2 0 0 0-2.66 1.24l1.42 1.06a1.3 1.3 0 0 1 1.18-.64c.57 0 .95.35.97.81l-1.72.3c-1.35.22-2.07.95-2.07 1.9 0 1.2.87 1.92 2.12 1.92m-.2-2.02c0-.28.17-.45.68-.53l1.2-.2v.55a1.4 1.4 0 0 1-1.25.68c-.38 0-.64-.2-.64-.5m8.48.22c-.84 0-1.43-.58-1.43-1.5 0-.89.6-1.48 1.4-1.48a1.3 1.3 0 0 1 1.1.58l1.56-1.17a3.2 3.2 0 0 0-2.65-1.22c-2.18 0-3.44 1.52-3.44 3.3s1.26 3.3 3.44 3.3c1.15 0 2.07-.48 2.65-1.23l-1.55-1.16a1.3 1.3 0 0 1-1.08.58m4.14-.81c0 1.5.7 2.5 2.38 2.5.58 0 .96-.08 1.3-.22v-1.66q-.28.12-.94.13-.78-.01-.78-.75v-2h1.7V8.67h-1.7V7.13h-1.96v1.53H76.8v1.75h1.16zM44.5 24.69c-1.38 0-2.36-1.03-2.36-2.46 0-1.42.98-2.46 2.36-2.46.86 0 1.5.41 1.91 1l1.74-1.32a4.5 4.5 0 0 0-3.65-1.7c-2.74 0-4.61 2.05-4.61 4.48s1.87 4.48 4.6 4.48A4.5 4.5 0 0 0 48.17 25l-1.74-1.3a2.3 2.3 0 0 1-1.91 1m8.93-6.95a4.46 4.46 0 0 0-4.61 4.49 4.46 4.46 0 0 0 4.6 4.48c2.74 0 4.6-2.06 4.6-4.48s-1.86-4.49-4.6-4.49m0 6.95c-1.37 0-2.35-1.03-2.35-2.46 0-1.42.98-2.46 2.36-2.46 1.36 0 2.35 1.03 2.35 2.46 0 1.42-.99 2.46-2.35 2.46m5.68 1.78h3.66v-1.1h-2.13l1.1-1.02c.42-.38.9-.93.9-1.63 0-.9-.75-1.48-1.69-1.48-.97 0-1.65.48-2.1 1.2l1 .62c.26-.42.52-.73.98-.73.31 0 .54.2.54.53 0 .32-.23.6-.49.83l-1.77 1.68z"/></g><defs><clipPath id="a"><path fill="#fff" d="M.07 0h81.71v33H.07z"/></clipPath></defs></svg>