<svg xmlns="http://www.w3.org/2000/svg" width="132" height="117" fill="none"><path fill="#fff" d="M0 0h55v20H0z"/><path fill="#000091" d="M17.77 17.59v-.01l.16-.15h-.02q-.08.06-.14.16m7.35-2.48-.11.1q.1-.01.11-.1"/><path fill="#000091" fill-rule="evenodd" d="M22.74 17.64q.33-.32.64-.67c.4-.46.78-.9 1.25-1.29q.21-.2.4-.33l.04-.08.04-.07a1 1 0 0 0-.24.15 1 1 0 0 1-.25.15q-.08-.01-.04-.08l.4-.3h-.02q-.05-.01-.04-.08c-.48-.08-.85.25-1.18.54l-.02.02q-.08.03-.14-.02l-.05-.02c-.3.1-.54.28-.8.46q-.34.27-.74.45v-.08l-.27.11a2 2 0 0 1-.4.16q-.39.07-.72.04h-.22q-.61.06-1.23.21l-.13.03H19l-.02.01a3 3 0 0 0-.7.29l-.02.01-.03.04-.03.03a1 1 0 0 1-.25.23q-.24.13-.44.33l-.18.15-.06.02q-.3.3-.61.58-.03.02-.12.01h.01l.02-.04.1-.16.05-.09q.02-.05.06-.08.07-.12.16-.23.02-.03 0-.05l-.05-.02q.28-.27.63-.48-.05 0-.05-.04l.05-.08.02-.03v-.01l.01-.02-.01-.01-.01-.02-.04.02a1 1 0 0 0-.22.2c-.06.07-.12.15-.22.15H17q-.03 0-.04-.02s.01-.01.01-.02l.02-.02v-.02l.02-.02v-.01l.01-.01v-.02l.02-.01.01-.04.01-.02.01-.01.03-.04.03-.05.02-.04.02-.03.02-.04q.02-.05-.03-.06a1 1 0 0 1 .26-.23h-.01l.27-.15.16-.09.07-.05a2 2 0 0 0-.6.3l-.06.03q0 .02-.1-.03v-.03q.04-.06.12-.1l.1-.09q.08-.01.08.04a5 5 0 0 1 2.58-.85 8 8 0 0 0 1.66-.36l.17-.11.17-.11q.14-.07.27-.18.12-.11.29-.2c.3-.23.52-.49.64-.87q-.02-.07-.04-.08a6 6 0 0 1-1.65 1.25c-.58.3-1.19.35-1.8.39l-.68.06q.07-.09.19-.07 0-.13.1-.19l.05-.04h.1q.04 0 .05-.04 0-.03.04-.04c.07 0 .18-.04.14-.04-.05-.07-.14-.04-.24-.01s-.19.07-.28.01l.06-.12q0-.08.05-.1h.15c0-.08.08-.16.08-.16l.98-.55.63-.35q-.06 0-.11.04c-.06.02-.12.05-.18 0q.04-.01.03-.05-.01-.05.04-.06.36-.1.68-.28l.48-.21-.14.02q-.13.06-.27-.02l.07-.05q.05-.05.16-.06v-.11q.01-.05.07-.04-.06-.02-.07-.04.04-.05.1-.06l.12-.05c-.04 0-.1 0-.1-.04.1-.15.29-.2.48-.23q-.03-.05-.1-.04-.04.01-.05-.04 0-.06.08-.04h-.08q-.07-.05-.04-.12v-.03c.15-.17.2-.39.25-.6l.09-.3q-.07.01-.08-.04c-.36.4-.94.56-1.49.7l-.05.02h-.19a.7.7 0 0 1-.63-.04 1 1 0 0 1-.23-.17l-.15-.13a5 5 0 0 0-.94-.46 8 8 0 0 0-2.88-.41c.27-.15.56-.21.85-.27a6 6 0 0 0 .74-.2c.54-.16 1.06-.32 1.63-.28l-.26-.01h-.11c-.44-.03-.87.07-1.33.17l-.29.06-.52.15-.57.15-.22.13c-.11.08-.22.16-.38.14v-.12c.37-.45.83-.9 1.43-.94.58-.1 1.12-.03 1.7.04l.29.04c.46.03.9.14 1.37.25l.05.01c.1 0 .16.1.22.18q.06.12.16.16.14.04.27.04.2 0 .4.11v-.08q-.02-.08 0-.15c.09-.08.18-.06.28-.04q.1.04.2 0c.21-.12.02-.32-.17-.51l-.23-.28c0-.04.04-.08.04-.08l.24.24q.28.3.65.52c.19.08.64.19.56-.04-.13-.3-.36-.55-.58-.81l-.28-.32v-.15q-.07 0-.1-.05l-.01-.03v-.15q-.13-.09-.14-.2l-.05-.14a1 1 0 0 1-.07-.36q0-.17-.04-.32a4 4 0 0 1-.15-.64l-.14-.67q-.12-.58-.2-1.14c-.06-.55.22-1.02.5-1.5l.25-.43c.27-.45.56-.9 1.05-1.2.11-.45.4-.82.7-1.18l.01-.03c.29-.36.77-.58 1.12-.74l.04-.02a10 10 0 0 1 1-.38H0v20h18.4c.5-.36.99-.58 1.57-.85l1.1-.52a8 8 0 0 0 1.67-.99m-5.84-2.7c-.07.01-.15.02-.12-.04.03-.13.16-.17.3-.21l.15-.06h.02l.02-.01c.07-.04.16-.09.23-.06q.07.08.15.1.06 0 .11.05c-.14.14-.3.15-.47.16a1 1 0 0 0-.32.07zm-5.71-.91q.02.07.04.08a13 13 0 0 1 2.89-2.59c-.02.03-.05.08.03.05.39-.08.56-.41.73-.73l.13-.25q.29-.4.68-.65.28-.2.52-.44.01.05-.04.11.06.05.12.04.1-.07.22-.1.13-.01.23-.13a1.4 1.4 0 0 0-.97-.03c-.79.37-1.46.98-2.1 1.66-.39.4-.79.8-1.28 1.06a12 12 0 0 1-1.2 1.92m3.15-2.41-.06.08-.05.06a.3.3 0 0 1-.15.15q-.06.01-.07-.04c.03-.14.14-.3.3-.33q.04.01.03.07M16 17.38l.1-.1c.03-.09-.17-.07-.2-.05l-.08.08-.1.1-.06.06-.28.26c-.06.06.15.09.2.05l.13-.13h.06a1 1 0 0 0 .26-.2h.02q.04-.05-.05-.07m-.58-.42-.12.09-.3.2-.32.16-.19.09q-.03-.04-.07-.02a2 2 0 0 0-.37.3l-.05.04-.06.06-.09.1-.01.02-.04.03c-.02.01-.09.01-.08-.03l-.07.03-.03.02-.02.01h-.05l-.05.04-.1.08-.21.24h-.01v.01l-.02.02v.01h-.02q0 .03-.02.05l-.03.01-.02-.02v-.01l-.01-.01-.02-.03-.01-.03v-.02l.1-.14h.01l.02-.03.02-.02.04-.04.03-.04v-.02l.02-.01.11-.17q.02-.01.02-.03l.05-.08.04-.07v-.02l.03-.06.02-.04v-.03l.01-.02v-.02l.01-.04.01-.03v-.02l.14-.2h-.01l-.09.07-.06.06c-.04.03-.12-.02-.06-.06l.08-.08.08-.08.12-.12.12-.09.02-.01.08-.1c.23-.22.54-.3.86-.37q.3-.07.59-.19.16-.04.33 0 .14.02.27 0 .16-.02.33.08l-.74.45zm.8-2.65q-.04 0-.03.03c.11.1.34.07.5-.02.1-.08.22-.08.37-.08.04 0 .04-.07.04-.1a1 1 0 0 0 .3.03c.9-.19 1.76-.37 2.58-.79a8 8 0 0 0-2.87-1.22l-.5-.14.1.03c.08.02.15.05.23-.03a1 1 0 0 0-.33-.11q-.14-.01-.27-.08h.03q.08.04.12-.03-.3-.14-.59-.17l-.3-.06a.4.4 0 0 0 .3-.38c0-.04-.08-.04-.12-.04-.44.23-.75.65-.94 1.13.17.1.35.09.53.08h.3q-.13.1-.32.12l-.13.03c-.12.03-.23.11-.19.19l.08.05-.23.14c.1.08.22.06.33.05l.12-.01q0 .05.07.08l.04.03a.7.7 0 0 0-.37.33q-.08.17-.22.26l-.16.16v.12q-.18.16-.37.3-.4.28-.72.68.05.01.04.07l-.13.13q-.1.06-.13.14-.01.07.04.08.34-.13.64-.34.27-.19.56-.3.24-.06.43-.19.18-.1.35-.15l.3-.08.3-.07q-.01.07.04.08h.3q-.04.05-.11.05" clip-rule="evenodd"/><path fill="#E1000F" d="M55 0H33.49s.04 0 .2.1c.18.08.4.2.54.28.28.14.55.32.72.6.08.11.19.34.12.49-.08.19-.12.5-.3.56-.24.12-.53.12-.8.08q-.22-.01-.46-.08c.57.23 1.1.5 1.48 1.02.04.08.19.12.34.12.04 0 .04.07.04.1-.08.09-.15.12-.11.24h.1c.2-.08.16-.46.42-.34.2.1.27.37.15.56q-.22.22-.45.38a.3.3 0 0 0 0 .27q.14.23.19.45c.11.27.15.57.26.83.15.57.3 1.14.27 1.7 0 .3-.15.57-.04.88.08.3.27.52.42.8.15.22.3.37.41.6.23.37.65.75.46 1.2-.11.27-.53.23-.8.38-.22.2-.03.5.08.68.2.34-.22.57-.5.69.09.11.24.08.28.15.03.19.22.3.1.5-.14.22-.6.33-.37.67.15.27.05.56-.04.84-.11.33-.42.48-.68.56a1.5 1.5 0 0 1-.72.04q-.12-.07-.23-.08c-.64-.07-1.28-.26-1.92-.26q-.3.05-.53.15-.26.2-.45.4v.01l-.1.1-.04.05-.03.04-.3.44-.02.02q0 .03-.03.05a4 4 0 0 0-.29.7c-.26.87-.14 1.6.04 1.79.05.05 1.25.42 2.08.8.4.17.66.3.9.44h21.11z"/><path fill="gray" d="M34.77 7.3c.15.03.37.03.37.11-.07.3-.52.38-.75.68h-.12c-.1.08-.08.27-.19.27q-.16-.04-.33.04c.15.15.33.26.56.23.04 0 .11.07.11.15q.01.01.08-.04.07-.01.08.04v.14c-.11.15-.3.08-.46.11q.46.12.87 0c.23-.07 0-.45.15-.64-.07 0 0-.12-.07-.12.07-.07.15-.18.22-.22.08 0 .2-.04.23-.12 0-.08-.15-.1-.12-.19.23-.15.42-.37.34-.6-.04-.12-.34-.12-.52-.19-.2-.07-.42 0-.65.04-.19 0-.38.12-.56.15-.27.08-.5.23-.72.37.27-.1.53-.14.83-.22.23 0 .42-.05.65 0"/><path fill="#161616" d="M2.06 47H4.9v-5.66h1.46L10.1 47h3.34l-4.38-6.2a3.8 3.8 0 0 0 2.26-3.62c0-2.6-1.9-4.18-4.98-4.18H2.06zM6.5 35.36c1.2 0 1.9.72 1.9 1.78 0 1.14-.7 1.84-1.9 1.84H4.9v-3.62zm14.38-3.56 2.6-2.7h-2.92l-2.26 2.7zM15.54 47h8.16v-2.36h-5.32v-3.6h4.52v-2.36h-4.52v-3.32h5.32V33h-8.16zm11.76 0h2.84v-5.66h1.78c3.08 0 4.96-1.58 4.96-4.16 0-2.6-1.88-4.18-4.96-4.18H27.3zm4.74-11.64c1.2 0 1.92.72 1.92 1.78 0 1.14-.72 1.84-1.92 1.84h-1.9v-3.62zm15.74 6.4c0 1.88-1.08 2.98-2.82 2.98-1.78 0-2.84-1.1-2.84-2.98V33h-2.84v8.52c0 3.68 2.16 5.88 5.66 5.88 3.52 0 5.68-2.2 5.68-5.88V33h-2.84zM54.45 47h4.42c3.22 0 5.2-1.56 5.2-4.12 0-1.46-.82-2.66-2.3-3.32a3.2 3.2 0 0 0 1.5-2.76c0-2.36-1.78-3.8-4.7-3.8h-4.12zm4.18-11.64c1.08 0 1.72.58 1.72 1.56 0 1.02-.64 1.6-1.72 1.6H57.3v-3.16zm.4 5.52c1.32 0 2.12.68 2.12 1.88 0 1.18-.8 1.88-2.12 1.88H57.3v-3.76zM67.3 47h8.16v-2.58h-5.32V33H67.3zm10.96 0h2.84V33h-2.84zm18.79-.36-.84-.8A7.4 7.4 0 0 0 98.96 40c0-4-3.02-7.4-7.42-7.4-4.42 0-7.44 3.4-7.44 7.4s3.02 7.4 7.44 7.4q1.02 0 1.92-.24l1.66 1.48a6.6 6.6 0 0 0 4.38 1.84 4 4 0 0 0 1.48-.26v-2.4c-.3.12-.7.16-1 .16-.9 0-1.86-.36-2.94-1.34m-5.5-1.9c-2.64 0-4.52-2.06-4.52-4.74s1.88-4.74 4.52-4.74c2.62 0 4.5 2.06 4.5 4.74s-1.88 4.74-4.5 4.74m18.7-2.98c0 1.88-1.08 2.98-2.82 2.98-1.78 0-2.84-1.1-2.84-2.98V33h-2.84v8.52c0 3.68 2.16 5.88 5.66 5.88 3.52 0 5.68-2.2 5.68-5.88V33h-2.84zM116.9 47h8.16v-2.36h-5.32v-3.6h4.52v-2.36h-4.52v-3.32h5.32V33h-8.16zM2.06 71H4.9v-5.96h4.52v-2.36H4.9v-3.32h5.32V57H2.06zm10.96 0h2.84v-5.66h1.46L21.06 71h3.34l-4.38-6.2a3.8 3.8 0 0 0 2.26-3.62c0-2.6-1.9-4.18-4.98-4.18h-4.28zm4.44-11.64c1.2 0 1.9.72 1.9 1.78 0 1.14-.7 1.84-1.9 1.84h-1.6v-3.62zM25.34 71h3.02l1.34-3.64h5.6L36.64 71h3.02l-5.3-14h-3.72zm5.24-6.06 1.92-5.26 1.92 5.26zM42.13 71h2.84V60.88L51.23 71h3.64V57h-2.84v10.12L45.77 57h-3.64zm23.2-2.26c-2.65 0-4.53-2.06-4.53-4.74s1.88-4.74 4.52-4.74c1.6 0 2.86.78 3.66 1.92l2.24-1.74a7.3 7.3 0 0 0-5.9-2.84 7.3 7.3 0 0 0-7.44 7.4c0 3.56 2.4 6.64 6.04 7.28l-1.76 2.94h2.52l1.74-2.9a7 7 0 0 0 4.8-2.78l-2.24-1.72a4.4 4.4 0 0 1-3.66 1.92m6.8 2.26h3.03l1.34-3.64h5.6L83.43 71h3.02l-5.3-14h-3.72zm5.25-6.06 1.92-5.26 1.92 5.26zM88.9 71h2.84V57H88.9zm5.8-1.94a6.3 6.3 0 0 0 5.17 2.34c2.58 0 4.62-1.58 4.66-4.22 0-4.8-6.36-4.08-6.36-6.62 0-.84.66-1.48 1.66-1.48 1.06 0 1.98.7 2.8 1.76l2.08-1.88a6.2 6.2 0 0 0-4.9-2.36c-2.68 0-4.52 1.84-4.52 4.06 0 4.74 6.36 4.04 6.36 6.62 0 1-.68 1.6-1.8 1.6a4 4 0 0 1-3.1-1.72zM107.81 71h8.16v-2.36h-5.32v-3.6h4.52v-2.36h-4.52v-3.32h5.32V57h-8.16z"/><path fill="#000" fill-rule="evenodd" d="m51.96 107.7-1.86 1.7h-.48l1.1-1.94h1.24zm-1.34 6.58h-.4c-.5.6-1.06 1.08-1.6 1.08q-.84.02-.84-1.08 0-.47.1-.9l3.26-1.08c.64-1.52-.12-2.18-1.02-2.18-1.54 0-3.3 2.7-3.3 4.86 0 1.02.48 1.58 1.24 1.58.88-.02 1.8-.88 2.56-2.28M49.5 111c.44 0 .82.34.62 1.12l-2.02.54c.32-.96.92-1.66 1.4-1.66m-6.36.04h1.08l-1.72 4.72c-.16.4.06.8.48.8 1.22 0 2.68-1.04 3.24-2.52h-.3a4 4 0 0 1-2.12 1.42l1.58-4.42H47l.2-.68h-1.58l.6-1.7h-.62l-1.12 1.7-1.34.18zm-1.5-.9c.22 0 .52.24.38.68l-1.94 4.7c.5-.08 1.02-.56 1.32-1h.32c-.46 1.18-1.5 2.04-2.4 2.04-.22 0-.54-.24-.38-.68l1.8-4.7c-.5.08-1.02.56-1.32 1h-.3c.46-1.2 1.58-2.04 2.52-2.04m.56-1.2a.74.74 0 1 0 0-1.48.74.74 0 1 0 0 1.48m-8.74 3.9c.44-.96.28-1.4 0-1.4q-.37.01-.8.74h-.3c.46-1.02 1.06-2.04 1.72-2.04.56 0 .76.56.76 1.18v.88l.26-.3v-.01c.85-1 1.5-1.75 2.24-1.75.58 0 .88.36.88.9q0 .5-.32 1.14l-1.66 3.34c.5-.08 1.02-.56 1.32-1h.3c-.46 1.2-1.58 2.04-2.52 2.04-.42 0-.66-.44-.48-.8l1.92-3.7c.22-.42.26-.7-.08-.7-.46 0-1.54.76-2.12 1.46l-1.26 3.32c-.14.34-.28.42-.6.42-.52 0-.78-.34-.54-.88zm-1.3-1.28c.22-.76.1-1.44-.48-1.44-.72 0-.95.48-1.65 1.96l-.05.1v-.88c0-.62-.2-1.18-.76-1.18-.66 0-1.26 1.02-1.72 2.04h.3c.32-.46.62-.74.86-.74.28 0 .44.44 0 1.4l-1.28 2.84c-.24.54.02.88.54.88.32 0 .46-.08.6-.42l1.26-3.32c.36-.44.68-.82 1.08-1.24zm-6.32.56c.2-.78-.18-1.12-.62-1.12-.48 0-1.08.7-1.4 1.66zm.5 2.16h-.4c-.5.6-1.06 1.08-1.6 1.08q-.84.02-.84-1.08 0-.47.1-.9l3.26-1.08c.64-1.52-.12-2.18-1.02-2.18-1.54 0-3.3 2.7-3.3 4.86 0 1.02.48 1.58 1.24 1.58.88-.02 1.8-.88 2.56-2.28m-6.4-3.24h-1.08v-.5l1.34-.18 1.12-1.7h.62l-.6 1.7h1.58l-.2.68H21.1l-1.58 4.42a4 4 0 0 0 2.12-1.42h.3c-.56 1.48-2.02 2.52-3.24 2.52-.42 0-.64-.4-.48-.8zm-6.8 3.66c0-1.46 1.62-3.42 2.52-3.42q.31 0 .56.08l-.94 2.52c-.54.66-1.38 1.46-1.78 1.46q-.35.01-.36-.64m4.46-4.88.5.04-1.74 4c-.42.96-.24 1.4 0 1.4s.54-.28.86-.74h.3c-.46 1.02-1.06 2.04-1.72 2.04-.56 0-.9-.6-.8-1.68l.04-.38-.1.15c-.72 1-1.37 1.9-2.04 1.9-.58 0-.88-.35-.88-.9 0-2.31 2.54-5.27 4.92-5.27h.1zm-4.58 1.74c.22-.76.1-1.44-.48-1.44-.72 0-.95.48-1.65 1.96l-.05.1v-.88c0-.62-.2-1.18-.76-1.18-.66 0-1.26 1.02-1.72 2.04h.3c.32-.46.62-.74.84-.74.28 0 .44.44 0 1.4l-1.28 2.86c-.24.54.02.88.54.88.32 0 .46-.08.6-.42l1.26-3.32c.36-.44.68-.82 1.08-1.24h1.32zm-8.24 4.4-.12.36H0l.12-.38c1.44-.26 1.68-.38 2.28-2l1.3-3.48c.58-1.62.46-1.74-.8-2l.12-.36h6.06l-.36 1.94h-.44c0-1.16-.12-1.46-1.22-1.46h-.28c-1.08 0-1.22.16-1.52 1l-.86 2.34h1.26c.84 0 1.16-.52 1.54-1.2h.44l-1.04 2.84h-.44c.1-.86.1-1.2-.68-1.2H4.22l-.58 1.6c-.63 1.66-.45 1.7 1.04 1.98zM8.74 92.4l-1.86 1.34v.02H6.4l1.1-1.6h1.24zm13 9.38 2.98-7.92-.1-.12-2.06.24v.24l.4.3c.34.27.25.51-.03 1.29l-.05.13-2.28 6.08c-.18.36.06.8.48.8.94 0 1.94-.86 2.4-2.04h-.3c-.32.44-.96.92-1.44 1m13.66-6.1 1.86-1.7v-.24h-1.24l-1.1 1.94zm.12 4.86h.4c-.74 1.42-1.66 2.28-2.54 2.28-.76 0-1.24-.56-1.24-1.58 0-2.16 1.76-4.86 3.3-4.86.88 0 1.66.66 1.02 2.18l-3.28 1.08q-.1.44-.1.9 0 1.1.84 1.08c.54 0 1.1-.48 1.6-1.08m-.1-2.16c.2-.76-.18-1.1-.62-1.1-.46 0-1.06.7-1.4 1.64zm-5.88-1.06h-1.08v-.5l1.34-.18 1.12-1.7h.62l-.6 1.7h1.58l-.2.68H30.7l-1.58 4.42a4 4 0 0 0 2.12-1.42h.3c-.56 1.48-2.02 2.52-3.24 2.52-.42 0-.64-.4-.48-.8zm-2.2-.24c.12-.44-.16-.68-.4-.68-.94 0-2.06.86-2.52 2.04h.3c.3-.44.82-.92 1.32-1l-1.8 4.7c-.16.44.16.68.38.68.9 0 1.94-.86 2.4-2.04h-.3c-.3.44-.82.92-1.32 1zm.92-2.6c0 .4-.34.74-.74.74s-.74-.34-.74-.74a.74.74 0 1 1 1.48 0m-10.1 3.08c-.9 0-2.52 1.96-2.52 3.42q.01.65.38.64c.38 0 1.22-.8 1.76-1.46l.94-2.52a2 2 0 0 0-.56-.08m2.44-1.42-.5-.04-.56.56h-.1c-2.38 0-4.92 2.96-4.92 5.28 0 .54.3.9.88.9.67 0 1.32-.9 2.03-1.9l.11-.16-.04.38c-.1 1.08.24 1.68.8 1.68.66 0 1.26-1.02 1.72-2.04h-.3c-.32.46-.62.74-.86.74s-.42-.44 0-1.4zm-10.08 6.48c-.86.34-1.46.74-1.46 1.36 0 .58.54.82 1.66.82 1.5 0 2.32-.44 2.32-1.02 0-.26-.34-.38-1.24-.68q-.87-.27-1.28-.48m1-2.46c-.4 0-.54-.34-.54-.7 0-1.16.56-2.6 1.46-2.6.4 0 .54.34.54.7-.02 1.18-.58 2.6-1.46 2.6m.76 1.88c1.1.34 1.78.6 1.78 1.36 0 .98-1.8 2.14-3.98 2.12-1.26 0-2.34-.34-2.34-1.16 0-.78.72-1.42 2.48-1.94a.7.7 0 0 1-.34-.64c0-.48.44-.86 1.2-1.22-.74-.1-1.22-.66-1.22-1.48 0-1.26 1.04-2.7 2.68-2.7q.51 0 .88.24h1.8l-.2.68h-1.06q.1.27.1.6c0 1.22-.98 2.62-2.54 2.7-.4.22-.6.52-.6.76 0 .28.33.38 1.05.59zm-6.34-3.42c.78 0 .8.34.68 1.2h.44l1.04-2.84h-.44c-.38.68-.7 1.2-1.54 1.2H4.4l.84-2.34c.3-.84.44-1 1.52-1h.76c1.1 0 1.22.3 1.22 1.46h.44l.36-1.94H3.02l-.12.36c1.26.26 1.38.38.8 2l-1.3 3.5c-.6 1.62-.84 1.74-2.3 2l-.1.38h7.24l1.3-2.06h-.5c-.84.82-1.68 1.58-3.32 1.58-1.8 0-1.77-.09-1.23-1.58l.11-.3.6-1.6h1.74zm5.98-17.14c.4 0 .74-.34.74-.74s-.34-.74-.74-.74a.74.74 0 0 0-.74.74c0 .42.32.74.74.74M17.84 84c0-.96-.24-1.32-.92-1.32-.84 0-1.62.9-2.4 1.98l1.68-4.5-.1-.14-2.06.24v.24l.4.3c.35.27.25.54-.05 1.34l-.03.08-1.82 4.76c-.16.4-.34.88-.34 1 0 .56.76 1.1 1.46 1.1 1.56.02 4.18-2.86 4.18-5.08m17.34-2.04 1.86-1.7v-.24H35.8l-1.1 1.94zm.12 4.86h.4c-.76 1.42-1.68 2.28-2.56 2.26-.76 0-1.24-.54-1.24-1.56 0-2.16 1.76-4.86 3.3-4.86.88 0 1.66.66 1.02 2.18l-3.26 1.08q-.1.44-.1.9 0 1.1.84 1.08c.54 0 1.1-.48 1.6-1.08m-.1-2.16c.2-.76-.18-1.1-.62-1.1-.48 0-1.08.7-1.4 1.64zm-5.9-1.06h-1.08v-.5l1.34-.18 1.12-1.7h.62l-.6 1.7h1.58l-.2.68h-1.62l-1.58 4.42A4 4 0 0 0 31 86.6h.3c-.56 1.48-2.02 2.52-3.24 2.52-.42 0-.64-.4-.48-.8zm-1.64.52c.22-.76.1-1.44-.48-1.44-.72 0-.95.48-1.65 1.96l-.05.1v-.88c0-.62-.2-1.18-.76-1.18-.66 0-1.26 1.02-1.72 2.04h.3c.32-.46.62-.74.84-.74.28 0 .44.44 0 1.4l-1.28 2.84c-.24.54.02.88.54.88.32 0 .46-.08.6-.42l1.26-3.32c.36-.44.68-.82 1.08-1.24zm-6.34.54c.2-.76-.18-1.1-.62-1.1-.48 0-1.06.7-1.4 1.64zm.5 2.16h-.4c-.5.6-1.06 1.08-1.6 1.08q-.84.02-.84-1.08 0-.47.1-.9l3.26-1.08c.64-1.52-.12-2.18-1.02-2.18-1.54 0-3.3 2.7-3.3 4.86 0 1.02.48 1.56 1.24 1.56.88.02 1.8-.84 2.56-2.26m-8.4.76c0 .26.46.56.78.56 1.3 0 2.52-2.34 2.5-3.64 0-.44-.22-.62-.52-.62-.48 0-1.36.72-1.92 1.4l-.52 1.4c-.18.46-.32.82-.32.9m-2.1-4.9c.24 0 .52.24.4.68l-1.92 4.7c.5-.08 1.02-.56 1.32-1h.3c-.46 1.18-1.5 2.04-2.4 2.04-.24 0-.56-.24-.4-.68l1.8-4.7c-.5.08-1.02.56-1.32 1h-.3c.46-1.18 1.58-2.04 2.52-2.04m-8.3-2.08h4.3l-.12.38c-1.46.26-1.7.38-2.3 2L3.62 86.5c-.62 1.68-.46 1.88.64 1.88 1.36 0 2.25-.99 3.03-1.85l.17-.2h.5l-1.42 2.53H0l.12-.36c1.44-.26 1.68-.38 2.28-2l1.3-3.54c.58-1.62.46-1.74-.8-2z" clip-rule="evenodd"/></svg>