<svg xmlns="http://www.w3.org/2000/svg" width="72" height="99" fill="none"><path fill="#F1E4C9" d="M88.24 55.94c-2.74-4.8-5.89-9.5-7.7-14.4-2.04-5.51-2.39-11.31-4.1-16.9-1.52-4.93-3.86-9.72-7.44-13.5S60.52 4.6 55.26 4.25c-7.12-.49-13.9 3.35-18.98 8.27-2.67 2.6-5 5.49-7.65 8.1-2.57 2.54-5.5 4.25-8.45 6.23-6.28 4.2-14.52 4.63-21.4 7.53a33.5 33.5 0 0 0-18.18 18.8c-1.66 4.44-2.29 9.53-.24 13.8 3.22 6.73 11.84 9.22 19.42 8.94s15.05-2.58 22.62-2.2c7 .35 13.67 2.97 19.99 5.93s12.5 6.3 19.2 8.3 14.14 2.56 20.6-.09c5.34-2.19 9.88-6.95 10.96-12.62 1.33-7.03-1.47-13.25-4.91-19.3M-.66 30.72c-2.53.94-5.34 1.4-7.9.57a7.6 7.6 0 0 1-4.18-3.23 6.5 6.5 0 0 1-.7-5.17 6 6 0 0 1 1.34-2.3 6 6 0 0 1 2.24-1.45c1.55-.52 3.24-.3 4.88-.27A20 20 0 0 0 4 16.89c.9-.44 1.8-.95 2.8-1.08a4 4 0 0 1 2.2.43 4 4 0 0 1 1.57 1.6c1.11 2.2-.52 4.58-1.9 6.25a22 22 0 0 1-5.58 4.82 22 22 0 0 1-3.75 1.81"/><path fill="#DBBC78" d="M60.18 71.52a4 4 0 0 0 2.83.27 6 6 0 0 0 1.52-.63c.4-.23.84-.73 1.32-.64 1.1.2 2.18.4 3.32.26a4.5 4.5 0 0 0 3.16-1.72q.23-.33.39-.7.37-.95.4-1.97c.04-.93-.07-1.9-.55-2.7-.5-.77-1.43-1.35-2.36-1.18a2.24 2.24 0 0 0-1.34-3.58 12 12 0 0 0-.26-2.35 4 4 0 0 0-1.13-2.04 3.3 3.3 0 0 0-3.17-.62 4 4 0 0 0-2.41 2.2 5.3 5.3 0 0 0-.32 3.3 2.9 2.9 0 0 0-1.42 4.59 7 7 0 0 0-.61.7c-.7.92-1.18 2-1.25 3.14-.08 1.44.6 2.98 1.88 3.67"/><path fill="#CFAD65" d="M60.18 71.51a4 4 0 0 0 2.83.28 6 6 0 0 0 1.52-.63c.4-.23.84-.73 1.32-.64 1.1.2 2.18.4 3.32.26a4.5 4.5 0 0 0 3.16-1.72q.23-.33.39-.7a5.44 5.44 0 0 1-6.96-.67 5.7 5.7 0 0 1-4.61-1.02 6 6 0 0 1-1.6-1.95c-.7.91-1.17 2-1.24 3.13-.09 1.44.6 2.98 1.87 3.66"/><path fill="#C09A47" d="m63.06 65.43.02-.01.04.01v.03a2.4 2.4 0 0 0-.03 1.32q.08.31.25.59.16.26.38.48l.12.1.12.09q.13.08.27.14l.27.12.28.11.39.15.03-.75.03-1.18v-1.19a68 68 0 0 0-.18-4.77.1.1 0 0 1 .07-.1l.07.01.04.06q.44 1.76.72 3.54l.05-.04a1 1 0 0 1 .25-.18q.14-.07.25-.17.12-.1.2-.22.1-.12.18-.26.15-.3.13-.64v-.02l.02-.02a.04.04 0 0 1 .05.02q.19.35.14.75a2 2 0 0 1-.09.4q-.07.19-.18.36l-.24.34a1 1 0 0 1-.32.24 1 1 0 0 1-.34.1l.08.53.14 1.2.13 1.22.08 1.21.04 1.22q0 .6.04 1.21l.03 1.22q0 .61-.05 1.22-.06.6-.17 1.2l-.12.6-.13.6q-.16.6-.34 1.18c-.18.58-.27.77-.43 1.15q-.24.58-.54 1.12l-.07.05a.1.1 0 0 1-.1-.08 12 12 0 0 1-.1-1.23l-.02-1.21.02-1.2.01-.58.03-.6q.02-.58.08-1.17t.14-1.17l.16-1.18.12-1.18.06-1.02a3 3 0 0 1-.56-.05 2 2 0 0 1-.72-.31 3 3 0 0 1-.56-.56 3 3 0 0 1-.4-.66 3 3 0 0 1-.16-.74 2.4 2.4 0 0 1 .32-1.4"/><path fill="#fff" d="M68.08 60.65c0 .37.2.67.45.67s.45-.3.45-.68-.2-.67-.45-.67-.45.3-.45.68m-3.23-2.6c.25 0 .45-.3.45-.68 0-.37-.2-.68-.45-.68s-.45.3-.45.68.2.68.45.68m1.97-1.13c.14 0 .25-.17.25-.38 0-.22-.11-.39-.25-.39s-.26.17-.26.39.11.38.26.38m-2.42 2.72c0 .21.12.39.25.39.14 0 .26-.17.26-.39 0-.21-.11-.38-.26-.38s-.25.17-.25.38m3.03-1.22c0 .15.08.27.17.27s.17-.12.17-.27-.08-.26-.17-.26-.17.12-.17.26" opacity=".3" style="mix-blend-mode:overlay"/><path fill="#DBBC78" d="M69.8 79.03a1.1 1.1 0 0 0-.94-.22c.3-.56.6-1.14.67-1.77s-.18-1.35-.73-1.65c-.59-.34-1.37-.13-1.87.33s-.75 1.12-.93 1.78a.68.68 0 0 0-1.34-.1 4 4 0 0 0-.5-1.04 1.3 1.3 0 0 0-.98-.53c-.46.01-.86.39-1 .83a2.5 2.5 0 0 0-.02 1.37.8.8 0 0 0-.85-.32c.01-.57.02-1.18-.2-1.7-.24-.52-.77-.97-1.34-.9s-.95.56-1.16 1.08a3.6 3.6 0 0 0-.02 2.62 1.1 1.1 0 0 0-1.24 0 1 1 0 0 0-.36 1.15h13.26a1.2 1.2 0 0 0-.45-.93"/><path fill="#DBBC78" d="M68.23 79.48a.6.6 0 0 0-.48-.12 2.4 2.4 0 0 0 .34-.9.9.9 0 0 0-.38-.85.8.8 0 0 0-.96.17q-.36.39-.47.91a.35.35 0 0 0-.7-.04 2 2 0 0 0-.25-.54.6.6 0 0 0-.5-.28.6.6 0 0 0-.52.43 1.3 1.3 0 0 0 0 .7.4.4 0 0 0-.44-.16 2 2 0 0 0-.1-.87.7.7 0 0 0-.7-.47c-.28.04-.48.3-.6.55q-.26.68 0 1.36a.55.55 0 0 0-.64 0 .5.5 0 0 0-.18.58h6.82a.6.6 0 0 0-.24-.47" style="mix-blend-mode:multiply"/><path fill="#DBBC78" d="M1.31 79.03a1.1 1.1 0 0 1 .95-.22 5 5 0 0 1-.68-1.77c-.06-.64.18-1.35.73-1.65.6-.34 1.37-.13 1.87.33s.75 1.12.93 1.77a.68.68 0 0 1 1.34-.08q.17-.57.5-1.05a1.3 1.3 0 0 1 .99-.54c.46.02.85.4 1 .83q.2.69.01 1.38a.8.8 0 0 1 .86-.32A4 4 0 0 1 10 76c.23-.52.77-.97 1.34-.9s.95.56 1.16 1.07a3.6 3.6 0 0 1 .02 2.63 1.1 1.1 0 0 1 1.24 0 1 1 0 0 1 .36 1.14H.87a1.2 1.2 0 0 1 .44-.92"/><path fill="#DBBC78" d="M2.88 79.48a.6.6 0 0 1 .49-.12 2.4 2.4 0 0 1-.34-.9.9.9 0 0 1 .38-.85.8.8 0 0 1 .96.17q.36.39.47.91a.35.35 0 0 1 .7-.04q.08-.3.25-.54a.6.6 0 0 1 .5-.28.6.6 0 0 1 .52.43q.1.36 0 .7a.4.4 0 0 1 .44-.16q-.04-.46.11-.87a.7.7 0 0 1 .68-.47c.29.04.5.3.6.55q.27.68.01 1.36a.55.55 0 0 1 .64 0 .5.5 0 0 1 .18.58H2.65a.6.6 0 0 1 .23-.47" style="mix-blend-mode:multiply"/><path fill="#DBBC78" d="M20.28 70.55a5 5 0 0 1-3.67 1.64 11 11 0 0 1-3.4-.45c-.2-.05-.49-.2-.7-.2s-.52.2-.74.28q-.78.3-1.59.52a9 9 0 0 1-1.8.3c-1.1.05-2.26-.2-3.18-.8A3.72 3.72 0 0 1 6.9 65a6.07 6.07 0 1 1 10.05-2.1c.55-.26 1.25-.32 1.72.05.48.38.5 1.27-.06 1.52q.37.13.7.33a3.84 3.84 0 0 1 .97 5.74z"/><path fill="#CFAD65" d="M20.28 70.55a5 5 0 0 1-3.67 1.64 11 11 0 0 1-3.4-.45c-.2-.05-.49-.2-.7-.2s-.52.2-.74.28q-.78.3-1.59.52a9 9 0 0 1-1.8.3c-1.1.05-2.26-.2-3.18-.8a12 12 0 0 0 2.25-.13c1.95-.3 3.89-1.28 4.87-2.99 1.1.11 2.23.2 3.33.03s2.2-.62 2.93-1.46a3.2 3.2 0 0 0 .8-1.9 3 3 0 0 0-.06-.58 3.84 3.84 0 0 1 .96 5.73z"/><path fill="#C09A47" d="m14.77 66.25-.01-.01h-.03l-.02.04q.18.6.03 1.2a2 2 0 0 1-.22.54 2 2 0 0 1-.35.44l-.1.09a2 2 0 0 1-.36.2q-.12.07-.25.12l-.26.1-.35.13-.03-.68-.03-1.08v-1.08q.01-2.17.17-4.34a.1.1 0 0 0-.06-.09.1.1 0 0 0-.1.06 37 37 0 0 0-.66 3.23l-.04-.04a1 1 0 0 0-.23-.17l-.24-.14-.19-.2-.15-.24a1 1 0 0 1-.12-.59v-.02h-.01l-.02-.01-.03.01a1 1 0 0 0-.13.69q.02.18.08.36t.17.33q.1.17.21.31a1 1 0 0 0 .3.22q.14.07.3.09l-.07.49-.13 1.1-.1 1.1-.08 1.1-.04 1.1q0 .56-.03 1.1l-.03 1.12q0 .55.05 1.1.05.56.15 1.1l.1.55.13.54q.14.54.3 1.07.17.53.39 1.05.23.53.5 1.02l.07.04.06-.01.03-.06q.07-.56.08-1.12.03-.56.02-1.1l-.01-1.08-.01-.54-.03-.54-.07-1.07-.13-1.06-.14-1.07-.11-1.07-.06-.93q.26 0 .5-.04.37-.08.66-.3t.5-.5q.23-.27.36-.6t.16-.67a2.2 2.2 0 0 0-.29-1.29"/><path fill="#fff" d="M9.07 60.86c0 .53-.34.97-.76.97-.4 0-.74-.44-.74-.97s.33-.97.75-.97c.4 0 .74.43.74.97m1.17-3.2c.27 0 .5-.3.5-.65s-.23-.63-.5-.63-.5.28-.5.63.23.64.5.64m1.32.98a.3.3 0 0 1-.36.18.28.28 0 0 1 .1-.53.3.3 0 0 1 .26.35m-4.03 3.9a.28.28 0 1 1-.26-.34.3.3 0 0 1 .26.35m.39-4.26a.15.15 0 1 1-.15-.19.17.17 0 0 1 .15.2m3.44-1.27c.17 0 .3-.18.3-.39s-.13-.38-.3-.38-.3.17-.3.38.14.39.3.39" opacity=".3" style="mix-blend-mode:overlay"/><path fill="#DBBC78" d="M57.3 28.35h-43v9.3h43z"/><path fill="#DBBC78" d="M57.3 28.35h-43v.77h43z" style="mix-blend-mode:multiply"/><path fill="#DBBC78" d="M56.99 25.2H14.6v2.19H57z"/><path fill="#DBBC78" d="M56.99 25.2H14.6v.42H57z" style="mix-blend-mode:multiply"/><path fill="#B48F4B" d="M57.82 26.94H13.78a.23.23 0 0 0-.23.23v1.28q.02.2.23.22h44.04a.23.23 0 0 0 .22-.22v-1.28a.23.23 0 0 0-.22-.23m.01-3.43H13.77a.2.2 0 0 0-.2.21v1.31q.02.2.2.21h44.08a.2.2 0 0 0 .2-.2v-1.32a.2.2 0 0 0-.2-.21"/><path fill="#DBBC78" d="M57.3 49.4H15.1v30.54h42.2z"/><path fill="#C7A355" d="M57.6 75.36H14.81a.25.25 0 0 0-.25.25v4.09c0 .14.1.25.24.25h42.8c.14 0 .25-.11.25-.25v-4.09a.25.25 0 0 0-.25-.25"/><path fill="#D2C29F" d="M57.3 49.4v3.95h-.11a1.8 1.8 0 0 1-1.8-1.79 1.8 1.8 0 0 1-1.78 1.8h-.48a1.8 1.8 0 0 1-1.79-1.8 1.8 1.8 0 0 1-1.78 1.8h-.49a1.8 1.8 0 0 1-1.79-1.8 1.8 1.8 0 0 1-1.78 1.8H45a1.8 1.8 0 0 1-1.78-1.8 1.8 1.8 0 0 1-1.79 1.8h-.48a1.8 1.8 0 0 1-1.79-1.8 1.8 1.8 0 0 1-1.78 1.8h-.49a1.8 1.8 0 0 1-1.79-1.8 1.8 1.8 0 0 1-1.78 1.8h-.49a1.8 1.8 0 0 1-1.79-1.8 1.8 1.8 0 0 1-1.78 1.8h-.48a1.8 1.8 0 0 1-1.79-1.8 1.8 1.8 0 0 1-1.78 1.8h-.48a1.8 1.8 0 0 1-1.8-1.8 1.8 1.8 0 0 1-1.78 1.8h-.48a1.8 1.8 0 0 1-1.79-1.8 1.8 1.8 0 0 1-1.78 1.8h-.49a1.8 1.8 0 0 1-1.51-.83V49.4z" style="mix-blend-mode:multiply"/><path fill="#E09764" d="M27.85 55.39h-10.6v21.68h10.6z"/><path fill="#F2F1D0" d="M27.28 55.97h-9.45v20.52h9.45z"/><path fill="#fff" d="M27.28 55.97v.83L21.8 76.49h-2l5.7-20.52z" opacity=".5" style="mix-blend-mode:overlay"/><path fill="#E09764" d="M27.28 66.44H25.8a.2.2 0 0 1-.19-.3.2.2 0 0 1 .2-.12h1.45zm27.87-11.05H29.43v14.07h25.72z"/><path fill="#F2F1D0" d="M54.48 55.97H30.1v12.9h24.38z"/><path fill="#fff" d="m39.88 55.97-3.4 12.9H35.4l3.4-12.9zm9.26 0-3.39 12.9h-1.1l3.4-12.9z" opacity=".5" style="mix-blend-mode:overlay"/><path fill="#B55134" d="M29.49 78.44H15.62v1.5h13.87z"/><path fill="#CE6F54" d="M29.49 78.44H15.62l.61-.36h12.65z"/><path fill="#B55134" d="M28.48 77.23H16.63v.85h11.85z"/><path fill="#CE6F54" d="M28.48 77.22H16.63l.53-.2h10.79z"/><path fill="#F2F1D0" d="M14.44 48.68h-3.96l1.98-10.6h3.65z"/><path fill="#CE6F54" d="M18.4 48.68h-3.96l1.67-10.6h3.66z"/><path fill="#F2F1D0" d="M22.35 48.68H18.4l1.37-10.6h3.66z"/><path fill="#CE6F54" d="M26.31 48.68h-3.96l1.07-10.6h3.65z"/><path fill="#F2F1D0" d="M30.27 48.68H26.3l.76-10.6h3.65z"/><path fill="#CE6F54" d="M34.23 48.68h-3.96l.45-10.6h3.66z"/><path fill="#F2F1D0" d="M38.18 48.68h-3.95l.15-10.6h3.65z"/><path fill="#CE6F54" d="M42.14 48.68h-3.96l-.15-10.6h3.65z"/><path fill="#F2F1D0" d="M46.1 48.68h-3.96l-.46-10.6h3.66z"/><path fill="#CE6F54" d="M50.05 48.68H46.1l-.76-10.6h3.65z"/><path fill="#F2F1D0" d="M54.01 48.68h-3.96L49 38.08h3.65z"/><path fill="#CE6F54" d="M57.97 48.68H54l-1.37-10.6h3.65z"/><path fill="#F2F1D0" d="M61.93 48.68h-3.96l-1.67-10.6h3.65z"/><path fill="#E5D995" d="M10.48 48.68h3.96v1.65A1.7 1.7 0 0 1 12.76 52h-.59a1.7 1.7 0 0 1-1.68-1.68z"/><path fill="#B55134" d="M14.44 48.68h3.96v1.65A1.7 1.7 0 0 1 16.72 52h-.6a1.7 1.7 0 0 1-1.67-1.68z"/><path fill="#E5D995" d="M18.4 48.68h3.95v1.65A1.7 1.7 0 0 1 20.67 52h-.58a1.7 1.7 0 0 1-1.68-1.68z"/><path fill="#B55134" d="M22.35 48.68h3.96v1.65A1.7 1.7 0 0 1 24.63 52h-.59a1.7 1.7 0 0 1-1.68-1.68z"/><path fill="#E5D995" d="M26.31 48.68h3.96v1.65A1.7 1.7 0 0 1 28.59 52H28a1.7 1.7 0 0 1-1.68-1.68v-1.65z"/><path fill="#B55134" d="M30.27 48.68h3.96v1.65A1.7 1.7 0 0 1 32.55 52h-.6a1.7 1.7 0 0 1-1.67-1.68z"/><path fill="#E5D995" d="M34.23 48.68h3.95v1.65A1.7 1.7 0 0 1 36.5 52h-.6a1.7 1.7 0 0 1-1.67-1.68z"/><path fill="#B55134" d="M38.18 48.68h3.95v1.65A1.7 1.7 0 0 1 40.45 52h-.58a1.7 1.7 0 0 1-1.68-1.68z"/><path fill="#E5D995" d="M42.14 48.68h3.96v1.65A1.7 1.7 0 0 1 44.42 52h-.6a1.7 1.7 0 0 1-1.67-1.68z"/><path fill="#B55134" d="M46.1 48.68h3.95v1.65A1.7 1.7 0 0 1 48.37 52h-.58a1.7 1.7 0 0 1-1.68-1.68z"/><path fill="#E5D995" d="M50.05 48.68h3.96v1.65A1.7 1.7 0 0 1 52.33 52h-.59a1.7 1.7 0 0 1-1.68-1.68zm7.92 0h3.96v1.65A1.7 1.7 0 0 1 60.25 52h-.6a1.7 1.7 0 0 1-1.67-1.68z"/><path fill="#B55134" d="M54.01 48.68h3.96v1.65A1.7 1.7 0 0 1 56.29 52h-.59a1.7 1.7 0 0 1-1.68-1.68z"/><path fill="#F2F1D0" d="M61.93 48.68H10.48l.03-.15c8.33-.13 16.7-.38 24.86-2.05a62 62 0 0 0 8.53-2.35 47 47 0 0 0 11.75-6.05h4.3z" style="mix-blend-mode:multiply"/><path fill="#CE6F54" d="M59.96 38.26H12.44a.43.43 0 0 1-.3-.74.4.4 0 0 1 .3-.13h47.52a.44.44 0 0 1 0 .86"/><path fill="#E09764" d="M56.11 30.2H15.96v5.6h40.15z"/><path fill="#F2F1D0" d="M55.53 30.71H16.54v4.58h39z"/><path fill="#F2F1D0" d="M16.54 30.71v.33H55.2v4.25h.33V30.7z" style="mix-blend-mode:multiply"/><path fill="#fff" d="m36.66 30.71-2.32 4.58h-1.79l2.31-4.58zm7.94 0-2.3 4.58h-.83l2.3-4.58z" opacity=".5" style="mix-blend-mode:overlay"/><path fill="#DBBC78" d="M52.78 71.52h-3.45v1.22h3.45zm-2.87 1.9h-3.46v1.22h3.45zm-6.29-3.27h-3.45v1.21h3.45zm-26.78-9.48H15.1v1.21h1.73zm.42 7.15h-1.4v1.22h1.4zm40.03-14.17h-1.9v1.21h1.9z" style="mix-blend-mode:multiply"/><path fill="#F9A66A" d="M53.55 76.44h-1.86v.68h1.86zm-6.17 1.33h-1.86v.67h1.86zm-1.18-.9h-1.86v.67h1.86zm-3.26 1h-1.86v.67h1.86zM30.42 75.8h-1.86v.68h1.86z" style="mix-blend-mode:multiply"/><path fill="#B55134" d="M10.19 69.42h-.57V47.95a2.15 2.15 0 0 0-4.3 0v.97h-.58v-.97a2.72 2.72 0 1 1 5.44 0z"/><path fill="#CE6F54" d="M7.8 45.8h-.17a2.15 2.15 0 0 1 1.99 2.15v21.47h.33V47.95A2.15 2.15 0 0 0 7.8 45.8"/><path fill="#F9A66A" d="m7.18 50.17-.06.01H2.87a2.82 2.82 0 1 0 4.31 0"/><path fill="#fff" d="M4.14 53.18a1.3 1.3 0 0 1-.71-.61v.03l-.05-.24.02-.24a.3.3 0 0 0-.21-.28.3.3 0 0 0-.35.2 1.3 1.3 0 0 0 .28 1.1q.36.4.86.6a.3.3 0 0 0 .35-.2.3.3 0 0 0-.18-.34z" opacity=".3" style="mix-blend-mode:overlay"/><g style="mix-blend-mode:multiply"><path fill="#F2F1D0" d="m2.94 50.19-.07-.02-.01.02z"/><path fill="#F9A66A" d="m7.18 50.17-.06.01h-.84a2.81 2.81 0 0 1-1.71 4.58 2.81 2.81 0 0 0 2.61-4.59"/></g><path fill="#DBBC78" d="M6.48 49.61h-2.9a.84.84 0 0 1 .84-.84h1.2a.84.84 0 0 1 .85.84z"/><path fill="#9AC3B1" d="M7.12 49.31H2.94a.3.3 0 0 0-.28.28v.31c0 .16.12.28.28.28h4.18a.3.3 0 0 0 .28-.28v-.3a.3.3 0 0 0-.28-.29"/><path fill="#CE6F54" d="M9.39 69.2h1.03a.1.1 0 0 1 .08.1v.23H9.3v-.24a.1.1 0 0 1 .09-.09"/><path fill="#B55134" d="M9.55 69.45h.7a.76.76 0 0 1 .77.76v9.51H8.79v-9.51a.76.76 0 0 1 .76-.76"/><path fill="#CE6F54" d="M10.26 69.45h-.71a.76.76 0 0 1 .75.76v9.51h.72v-9.51a.76.76 0 0 0-.76-.76"/><path fill="#B55134" d="M11.75 79.58h-3.7a.18.18 0 1 0 0 .36h3.7a.18.18 0 0 0 0-.36"/><path fill="#D2B067" d="M60.78 74.63q-.07.2-.2.35a1 1 0 0 1-.5.18 12 12 0 0 1-4.46.22 1 1 0 0 1-.6-.2c-.22-.17-.3-.46-.35-.73l-.06-.4a2 2 0 0 1 .02-.46.8.8 0 0 1 .52-.64.74.74 0 0 1 .5-1.32 3 3 0 0 1 .12-1.34 1.7 1.7 0 0 1 .85-1.02 1.6 1.6 0 0 1 1.81.41 2.2 2.2 0 0 1 .46 1.86.6.6 0 0 1 .5.69q.21 0 .41.06a1.7 1.7 0 0 1 1.05.91 1.7 1.7 0 0 1-.07 1.43"/><path fill="#AA7729" d="M60.78 74.63q-.07.2-.2.35a1 1 0 0 1-.5.19q-.72.17-1.47.26-1.5.16-3-.05a1 1 0 0 1-.6-.2c-.2-.17-.28-.46-.34-.73l-.06-.4c1.4.03 2.81-.22 4.13-.72q.52-.15.9-.58a1 1 0 0 0 .16-.46 1.7 1.7 0 0 1 1.05.9 1.7 1.7 0 0 1-.07 1.44"/><path fill="#F2F1D0" d="m60.79 75.4-.14.98-.51 3.63h-4.6l-.51-3.63-.14-.97z"/><path fill="#F2F1D0" d="m60.79 75.4-.14.98h-5.62l-.14-.97z" style="mix-blend-mode:multiply"/><path fill="#F2F1D0" d="M60.96 76h-6.25l-.16-1.59h6.58z"/><path fill="#fff" d="M56.8 70.93c0 .26-.14.47-.31.47s-.32-.2-.32-.47.14-.47.32-.47.32.21.32.47m.63.56c0 .13-.07.24-.16.24q-.16-.02-.17-.24c0-.13.07-.24.16-.24s.17.1.17.24m-1.21.42q-.02.22-.17.24c-.15.02-.17-.1-.17-.24s.07-.24.17-.24.17.1.17.24m1.14-1.77q0 .12-.09.13c-.09 0-.09-.06-.09-.13s.04-.12.1-.12.07.05.07.12" opacity=".3" style="mix-blend-mode:overlay"/><path fill="#D2B067" d="M14.6 73.92q-.02.64-.24 1.24c-.08.21-.18.56-.4.67-.3.13-.7.15-1.02.2q-1.17.16-2.35.13h-.17a2 2 0 0 1-1.14-.33l-.18-.16a2.4 2.4 0 0 1-.47-.89 3 3 0 0 1-.17-.64 2 2 0 0 1 .02-.68c.12-.43.52-.82.97-.78a.82.82 0 0 1 1-1.28 1.4 1.4 0 0 1 2.56-1.03c.25.45.3.98.16 1.48a.4.4 0 0 1 .4.6 1 1 0 0 1 .44.13q.24.14.37.38.24.46.21.96"/><path fill="#CFAD65" d="M14.6 73.92q-.02.64-.24 1.23c-.08.22-.18.57-.4.68-.3.13-.7.15-1.02.2a14 14 0 0 1-2.35.13h-.17a4 4 0 0 1-1.3-.5 2.4 2.4 0 0 1-.48-.87 3 3 0 0 1-.17-.64c1.2.33 2.5.27 3.73.03a3 3 0 0 0 1.32-.52q.3-.25.42-.58c.05-.16.03-.34.09-.5q.23.15.36.38.23.46.2.96" style="mix-blend-mode:multiply"/><path fill="#F2F1D0" d="m14.23 75.72-.13.9-.47 3.33H9.41l-.48-3.34-.12-.88z"/><path fill="#F2F1D0" d="m14.23 75.72-.13.9H8.94l-.12-.9z" style="mix-blend-mode:multiply"/><path fill="#F2F1D0" d="M14.39 76.26H8.65l-.16-1.45h6.05z"/><path fill="#fff" d="M11.53 71.61c0 .24-.13.43-.3.43-.15 0-.29-.19-.29-.43s.13-.43.3-.43.3.2.3.43m.58.51q-.01.2-.15.22c-.14.02-.16-.1-.16-.22q.02-.2.15-.22.15.02.16.22m-2.2.24c.12 0 .21-.14.21-.32s-.1-.31-.21-.31-.22.14-.22.31.1.32.22.32m1.08.15q-.01.2-.16.22c-.14.02-.14-.1-.14-.22s.06-.22.15-.22q.13.02.15.22m1.07-1.63q-.01.15-.1.16-.13-.01-.11-.16.01-.14.1-.15.13 0 .11.15" opacity=".3" style="mix-blend-mode:overlay"/><path fill="#2832EF" d="M0 0h73v99H0z" style="mix-blend-mode:soft-light"/></svg>