<svg xmlns="http://www.w3.org/2000/svg" viewBox="0 0 56 50"><path d="M51.08 50c-12.64-4.06-22.91-3.29-24.46-18.19-.73-7.04 2.09-14.35 8.23-18.15-3.15.05-12.13 1.75-10.18-3.38a5 5 0 0 1-3.92 1.59C17.98-.68 35.91 6.33 39.42 2.17c-4.69-3.45-15.62-.44-20.05 2.74-3.92 2.82-6.36 7.7-8.27 11.88-1.75 3.83-1.21 7.23-4.23 10.06-3.11 2.91-6.4 9.55-4.88 10.19-5.25 2.17 1.03 9.3 5.24 9.42 5.07.14 9.66.52 14.68 1.23A209 209 0 0 0 51.07 50Z" style="fill:#48bff4"/><path d="M39.61 19.93c-.88 0-1.6.71-1.6 1.59s.72 1.59 1.6 1.59 1.6-.71 1.6-1.59-.72-1.59-1.6-1.59m0 2.6c-.56 0-1.02-.45-1.02-1.01s.46-1.01 1.02-1.01 1.02.45 1.02 1.01-.46 1.01-1.02 1.01m-4.92 3.21c.61 0 1.1-.49 1.1-1.09s-.49-1.09-1.1-1.09-1.1.49-1.1 1.09.49 1.09 1.1 1.09m0-1.61c.29 0 .52.23.52.52s-.23.52-.52.52-.52-.23-.52-.52.23-.52.52-.52"/><path d="m14.29 16.09.07-.21.02-.06a26 26 0 0 1 2.99-4.54c5.3-6.39 13.6-9.62 24.65-9.63h.02l1.35.08c2.35 0 4.26 1.9 4.26 4.23a4.25 4.25 0 0 1-6.37 3.68l-.21-.12.11-.21a4.9 4.9 0 0 0-.95-5.82.85.85 0 0 0-1.18.01.83.83 0 0 0 .01 1.17 3.3 3.3 0 0 1 1.01 2.37 3.33 3.33 0 0 1-5.48 2.53l-.07-.06-.02-.09a4 4 0 0 0-1.22-2.22.8.8 0 0 0-.59-.23q-.34.01-.58.26c-.24.25-.24.37-.23.59q.01.34.26.58c.49.47.77 1.1.79 1.78s-.24 1.32-.71 1.81-1.11.77-1.79.78-1.33-.23-1.83-.7a2.5 2.5 0 0 1-.08-3.59.8.8 0 0 0 .23-.59.8.8 0 0 0-.26-.58 1 1 0 0 0-.57-.23 1 1 0 0 0-.6.25 4.17 4.17 0 0 0-.22 5.54l.1.12-.06.14a24 24 0 0 0-2.07 9.16c-.24 7.77 2.59 14.54 7.98 19.05q1.48 1.23 3.21 2.23l.08.06q.17.14.35.18c5.31 2.86 11.9 3.69 18.47 2.38a.83.83 0 0 0 .65-.97.84.84 0 0 0-.98-.65q-1.63.33-3.39.47l-.27.02v-7.77l.92.79c.35.3.87.26 1.17-.09a.8.8 0 0 0-.09-1.16l-9.19-7.88-9.19 7.88a.8.8 0 0 0-.09 1.16c.29.33.84.37 1.17.09l.92-.79v4.56l-.42-.38c-3.94-3.59-6.09-8.1-6.04-12.7.05-4.7 2.39-9.08 6.59-12.32a17 17 0 0 1 5.95-2.95l.21-.05.09.2a5 5 0 0 0 9.6-1.95c0-2.11-1.35-4-3.36-4.69l-.19-.07.03-.2q.06-.43.06-.78a5.9 5.9 0 0 0-5.9-5.88L42.05 0C30.46 0 21.72 3.44 16.09 10.23a28 28 0 0 0-4.06 6.63c-2.47 4.64-6.15 9.58-9.09 9.6a1 1 0 0 0-.59.24.8.8 0 0 0-.24.58c0 .45.38.82.83.82q2.86-.01 6.07-3.7l.46-.53-.02.7c-.07 2.64-.78 11.33-6.88 12.21a.3.3 0 0 0 .04.58q3.88-.56 5.8-4.79l.49-1.09v1.19q-.03 1.21.01 2.36v.05l-.02.05q-1.8 4.44-5.52 4.98-.12.02-.19.11-.1.12-.05.21a.3.3 0 0 0 .29.25q3.24-.47 5.15-3.6l.41-.67.06.78c.18 2.44.48 4.09.54 4.4.02.23.06 1.3-.72 2.13-.77.82-2.2 1.21-4.14 1.12-.45 0-.85.33-.87.79q-.01.34.22.59c.23.25.35.26.58.27q3.76.17 5.46-1.67c1.38-1.49 1.14-3.37 1.13-3.45v-.06c-.03-.12-2.46-12.92 2.39-23.92q.37-.71.64-1.27l.03-.06Zm31.4 28.86-.29-.04q-1.52-.2-2.93-.58l-.19-.05v-3.3a1.7 1.7 0 0 1 3.4 0zm-7.22-9.06 5.52-4.73 5.52 4.73v9.27h-.45q-1.3 0-2.56-.12l-.23-.02v-4.04c0-1.25-1.02-2.26-2.28-2.26s-2.28 1.02-2.28 2.26v3.13l-.33-.1q-1.46-.47-2.76-1.07l-.14-.07zm-10.23-4.11a24 24 0 0 1-1.51-9.43c.09-2.8.69-5.6 1.73-8.09l.1-.23.23.09q.75.3 1.58.3h.1q.72-.02 1.43-.29l.77-.3-.47.67c-2.29 3.27-4.76 8.89-3.47 17.14l.37 2.35-.85-2.22Zm13.54-19.67a18 18 0 0 0-5.87 3.05 19 19 0 0 0-6.08 7.81l-.48-.14c1.17-6.2 4.52-9.72 5.91-10.94l.1-.09.13.03c1.6.41 3.15.04 4.37-.93l.14-.11.15.1q.77.5 1.63.74l.83.23-.82.25Zm6.93-3.58.21.07a3.3 3.3 0 0 1 2.19 3.1c0 1.83-1.5 3.31-3.34 3.31a3.36 3.36 0 0 1-3.33-3.04l-.02-.22.21-.05a6 6 0 0 0 3.97-2.99l.1-.19Z"/><path d="M18.56 18.19c.06-.15 0-.32-.15-.38q-.05-.03-.11-.02-.07 0-.11.02a.3.3 0 0 0-.16.15c-.07.15-6.48 15.58 4.46 29.23.08.11.22.2.41.05q.1-.08.11-.19c.01-.11-.01-.15-.06-.21-10.72-13.38-4.46-28.46-4.38-28.65Zm12.5 25.49c4.76 3.99 11.15 6.19 17.98 6.19q3.35 0 6.72-.68.12-.03.18-.12.07-.1.04-.22a.3.3 0 0 0-.34-.23 34 34 0 0 1-6.61.66c-6.7 0-12.95-2.15-17.61-6.05-5.98-5.01-9.13-12.47-8.86-21.01.15-4.81 1.5-8.52 2.61-10.79a.3.3 0 0 0-.14-.38l-.13-.03-.1.02a.3.3 0 0 0-.17.15 27 27 0 0 0-2.67 11.02c-.27 8.72 2.95 16.35 9.07 21.47Z"/></svg>