<svg xmlns="http://www.w3.org/2000/svg" viewBox="0 0 47 50"><path d="M27.12 10.04c-4.28 0-6.67 1.13-8.81 4.84-1.42 2.45-.51 6.84 1.3 8.9 2.32 2.65 6.88 3.64 9.81 1.81 2.19-1.36 3.18-4.1 3.04-6.81-.11-2.06-.68-3.59-1.82-5.34-.6-.92-1.82-3.07-3.51-3.41Z" style="fill:#d3bd36"/><path d="M46.09 29.47h-6.87V13.76l2.91 2.52c.36.32.97.27 1.28-.09.33-.38.29-.96-.09-1.29L26.16 0 9.01 14.9c-.38.33-.42.91-.09 1.29s.9.42 1.28.09l2.9-2.52v15.71H.91c-.5 0-.91.41-.91.91s.41.91.91.91h45.18c.5 0 .91-.41.91-.91s-.41-.91-.91-.91m-8.68-.11H14.92V12.18l11.24-9.77 11.25 9.77z"/><path d="M16.7 18.55c0 2.55.98 4.94 2.76 6.74a9.34 9.34 0 0 0 6.68 2.79h.02c2.53 0 4.9-.99 6.69-2.78a9.5 9.5 0 0 0 2.78-6.73c0-2.54-.98-4.93-2.77-6.73a9.4 9.4 0 0 0-6.69-2.79c-2.53 0-4.91.99-6.7 2.78s-2.77 4.18-2.78 6.72Zm9.47-8.08c4.44.02 8.05 3.65 8.05 8.1 0 2.17-.84 4.2-2.36 5.73a8 8 0 0 1-5.69 2.36h-.02c-4.44 0-8.04-3.65-8.04-8.11 0-4.45 3.62-8.08 8.06-8.09Z"/><path d="M28.37 18.61c.17.04 4.64.04 4.82 0 0-.03.01-.06.01-.09-.01-.28-.01-.55-.05-.83a7.2 7.2 0 0 0-1.72-3.79c-.34-.39-.73-.74-1.15-1.04-.17-.12-.35-.23-.54-.36-.83 1.41-1.64 2.8-2.46 4.19.69.46 1.05 1.09 1.09 1.91Zm-9.22.02h4.73c.06 0 .09-.04.1-.1 0-.08 0-.16.01-.23.11-.64.42-1.15.95-1.52.04-.02.07-.06.1-.08-.01-.03-.02-.04-.03-.06-.35-.59-.7-1.18-1.04-1.78-.44-.74-.87-1.49-1.31-2.23-.02-.04-.06-.07-.09-.11-2.54 1.5-3.55 4.29-3.42 6.1Zm5.91 1.92c-.26.38-2.36 4.06-2.4 4.21 2.04 1.27 4.96 1.25 6.96.02-.79-1.41-1.58-2.81-2.37-4.22q-1.11.555-2.19 0Zm1.1-.82c.64 0 1.16-.52 1.16-1.17s-.53-1.16-1.17-1.16c-.63 0-1.14.52-1.15 1.16 0 .64.51 1.17 1.16 1.17m8.32 14.3c-.7 0-1.27.57-1.27 1.28s.57 1.28 1.27 1.28 1.27-.57 1.27-1.28-.57-1.28-1.27-1.28m0 2.2c-.51 0-.92-.42-.92-.93s.41-.93.92-.93.92.42.92.93-.41.93-.92.93"/><path d="M34.48 34.47c-.46 0-.83.38-.83.84s.37.84.83.84.83-.38.83-.84-.37-.84-.83-.84m0 1.32c-.27 0-.48-.22-.48-.49s.22-.49.48-.49.48.22.48.49-.22.49-.48.49m-28-1.65c-.58 0-1.05.47-1.05 1.06s.47 1.06 1.05 1.06 1.05-.47 1.05-1.06-.47-1.06-1.05-1.06m0 1.76c-.39 0-.7-.32-.7-.71s.31-.71.7-.71.7.32.7.71-.31.71-.7.71"/><path d="M6.48 34.58a.621.621 0 0 0 0 1.24.621.621 0 0 0 0-1.24m0 .88c-.14 0-.26-.12-.26-.26s.12-.26.26-.26.26.12.26.26-.12.26-.26.26m2.85 7.42a1.65 1.65 0 0 0 0 3.3c.9 0 1.64-.74 1.64-1.65s-.73-1.65-1.64-1.65m0 2.94c-.71 0-1.29-.58-1.29-1.29s.58-1.29 1.29-1.29 1.29.58 1.29 1.29-.58 1.29-1.29 1.29"/><path d="M9.33 43.32c-.66 0-1.2.54-1.2 1.21s.54 1.21 1.2 1.21 1.2-.54 1.2-1.21-.54-1.21-1.2-1.21m0 2.06a.85.85 0 1 1-.001-1.699.85.85 0 0 1 .001 1.699m3.87-9.4c-.9 0-1.64.74-1.64 1.65s.73 1.65 1.64 1.65 1.64-.74 1.64-1.65-.74-1.65-1.64-1.65m0 2.94c-.71 0-1.29-.58-1.29-1.29s.58-1.29 1.29-1.29 1.29.58 1.29 1.29-.58 1.29-1.29 1.29"/><path d="M13.2 36.42c-.66 0-1.2.54-1.2 1.21s.54 1.21 1.2 1.21 1.2-.54 1.2-1.21-.54-1.21-1.2-1.21m0 2.06a.85.85 0 1 1-.001-1.699.85.85 0 0 1 .001 1.699m25.18 1.83c-1.23 0-2.22 1-2.22 2.23s1 2.23 2.22 2.23a2.23 2.23 0 0 0 0-4.46m0 4.12c-1.03 0-1.87-.84-1.87-1.88s.84-1.88 1.87-1.88 1.87.84 1.87 1.88-.84 1.88-1.87 1.88"/><path d="M38.38 40.75c-.98 0-1.78.8-1.78 1.79s.8 1.79 1.78 1.79 1.78-.8 1.78-1.79-.8-1.79-1.78-1.79m0 3.23c-.79 0-1.43-.65-1.43-1.44s.64-1.44 1.43-1.44 1.43.65 1.43 1.44-.64 1.44-1.43 1.44m-8.95-3.89c-.58 0-1.05.47-1.05 1.06s.47 1.06 1.05 1.06 1.05-.47 1.05-1.06-.47-1.06-1.05-1.06m0 1.76c-.39 0-.7-.32-.7-.71s.31-.71.7-.71.7.32.7.71-.31.71-.7.71"/><path d="M29.43 40.53a.621.621 0 0 0 0 1.24.621.621 0 0 0 0-1.24m0 .88c-.14 0-.26-.12-.26-.26s.12-.26.26-.26.26.12.26.26-.12.26-.26.26m-4.75-7.01c-.9 0-1.64.74-1.64 1.65s.73 1.65 1.64 1.65 1.64-.74 1.64-1.65-.74-1.65-1.64-1.65m0 2.94c-.71 0-1.29-.58-1.29-1.29s.58-1.29 1.29-1.29 1.29.58 1.29 1.29-.58 1.29-1.29 1.29"/><path d="M24.68 34.84c-.66 0-1.2.54-1.2 1.21s.54 1.21 1.2 1.21 1.2-.54 1.2-1.21-.54-1.21-1.2-1.21m0 2.06a.85.85 0 1 1-.001-1.699.85.85 0 0 1 .001 1.699m-5.77 4.95c-.58 0-1.05.47-1.05 1.06s.47 1.06 1.05 1.06 1.05-.47 1.05-1.06-.47-1.06-1.05-1.06m0 1.76c-.39 0-.7-.32-.7-.71s.31-.71.7-.71.7.32.7.71-.31.71-.7.71"/><path d="M18.91 42.29a.621.621 0 0 0 0 1.24.621.621 0 0 0 0-1.24m0 .88c-.14 0-.26-.12-.26-.26s.12-.26.26-.26.26.12.26.26-.12.26-.26.26m5.77 3.54c-.9 0-1.64.74-1.64 1.65s.73 1.65 1.64 1.65 1.64-.74 1.64-1.65-.74-1.65-1.64-1.65m0 2.94c-.71 0-1.29-.58-1.29-1.29s.58-1.29 1.29-1.29 1.29.58 1.29 1.29-.58 1.29-1.29 1.29"/><path d="M24.68 47.15c-.66 0-1.2.54-1.2 1.21s.54 1.21 1.2 1.21 1.2-.54 1.2-1.21-.54-1.21-1.2-1.21m0 2.06a.85.85 0 1 1-.001-1.699.85.85 0 0 1 .001 1.699M43.54 35.9c-.58 0-1.05.47-1.05 1.06s.47 1.06 1.05 1.06 1.05-.47 1.05-1.06-.47-1.06-1.05-1.06m0 1.76c-.39 0-.7-.32-.7-.71s.31-.71.7-.71.7.32.7.71-.31.71-.7.71"/><path d="M43.54 36.35a.621.621 0 0 0 0 1.24.621.621 0 0 0 0-1.24m0 .88c-.14 0-.26-.12-.26-.26s.12-.26.26-.26.26.12.26.26-.12.26-.26.26"/></svg>