<svg xmlns="http://www.w3.org/2000/svg" width="16" height="9" fill="none"><path fill="#E8FBC6" d="M.63.6h14.39v6.84H.63z"/><path fill="#54B586" d="M15.59 6.24v.75-.23h-.01l-.05.26q-.02.15-.08.29a2 2 0 0 1-.4.47c-.25.2-.55.24-.86.24H1.14a1.4 1.4 0 0 1-.92-.61l-.09-.16c-.02-.05-.05-.18-.09-.2H0V1.44Q0 .68.6.23.9 0 1.31 0l11.85.01.97-.01q.3 0 .44.04c.56.14.95.67 1 1.23v4.96zM2.66 2q-.52.83-1.51.75L.9 2.69H.89v2.84l.03.01q.45-.1.87.02.23.07.4.2.72.53.72 1.42l.02.03h9.75V7.2q0-.8.55-1.31a1.6 1.6 0 0 1 1.46-.35l.02-.02V2.71q0-.02-.01-.01c-.55.13-1.1.04-1.52-.38q-.4-.4-.47-.96l-.02-.45-.02-.02H2.93L2.9.92a2 2 0 0 1-.07.7q-.07.22-.16.38z"/><path fill="#344E5E" d="M9.47 2.6q-.24-.02-.53 0h-.56a.3.3 0 0 1-.24-.12.24.24 0 0 1 .11-.36l.16-.02h1.32q.13 0 .19.02a.24.24 0 0 1 .13.3q-.09.18-.3.17zm-2.67.3-.04.04h-.3l-.15.03h-.02v-.01l-.05-.11-.02-.03h-.03c-.1 0-.24 0-.32-.02a.24.24 0 0 1-.14-.36q.1-.13.28-.12h.92c.16 0 .27-.01.37.1.13.16-.02.36-.2.39h-.24l-.06.02q-.01.03 0 .07"/><path fill="#54B586" d="M9.47 2.6q.2.56.37.95.01.02.04.02-.02 0-.02.03v.03l.15.32q0 .04.04.05v.05l.21.51.06.1.16.2c.14.35-.35.57-.55.29-.05-.08-.07-.21-.11-.3l-.25-.58q-.02-.03-.05-.03.03-.06.01-.1l-.12-.28q-.01-.06-.07-.06.03-.08-.06-.13h-.01l-.38.41-.27.3-.75.8q-.02.02-.01.03l.01.02-.08-.02q-.34.02-.7.01a.2.2 0 0 0-.12.04q-.18-.05-.22.04l-.01-.06q0-.02-.02-.01l-.45.04-.05-.02h-.58l-.31.03q-.27.02-.34-.23c-.04-.13.05-.28.17-.33l.19-.02h.9q.2.04.43.04.06 0 .06-.06.04.05.16.02.03 0 .02-.04L6.3 3.08l-.03-.11q0-.02.01 0l.02.01q.07-.03.15-.03h.3l.04-.04.21.04h2.05l.01-.02-.12-.34zm-2.42.88.48 1.26v.01h.01L8.7 3.49z"/><path fill="#344E5E" d="M6.74 4.68q0 .05-.05.06a2 2 0 0 1-.44-.04 1 1 0 0 0-.33-.48 1 1 0 0 0-1.3.07.97.97 0 0 0 0 1.39 1 1 0 0 0 1.03.24q.46-.18.61-.65l.46-.04.02.01v.06q-.2.7-.81 1.01-.3.15-.66.14l-.3-.05A1.5 1.5 0 0 1 4 5.59a1.45 1.45 0 0 1 1.29-2.05q.4-.02.74.18c.36.2.61.55.72.96zm2.6-.88q.06 0 .07.06.04.12.12.28.02.04 0 .1-.28.25-.35.62a1 1 0 0 0 .4.91.97.97 0 0 0 1.3-.1.97.97 0 0 0-.2-1.52 1 1 0 0 0-.63-.15q-.04-.01-.04-.05l-.14-.32V3.6l.01-.03q.2-.04.35-.03.78.06 1.2.7.16.26.2.58a1.5 1.5 0 0 1-1.25 1.62 1.5 1.5 0 0 1-1.06-.27 1.4 1.4 0 0 1-.61-1.22c0-.46.26-.87.63-1.15M7.87 5.23c.17.09.2.31.03.42a.3.3 0 0 1-.19.05l-.49-.01q-.22.01-.3-.17-.05-.12.05-.26l.06-.03h.07l.69-.02z"/><path fill="#386C69" d="M15.59 6.99q0 .47-.03.8a1.4 1.4 0 0 1-1.12 1.19c-.21.03-.54.02-.75.02H1.68l-.46-.01a1.4 1.4 0 0 1-.75-.35 1.4 1.4 0 0 1-.4-.61 1 1 0 0 1-.06-.3v-.67l.02-.02h.02c.04.03.07.15.08.2l.09.17a1.4 1.4 0 0 0 .92.6l.46.01h12.6c.3 0 .6-.05.84-.25a2 2 0 0 0 .4-.46q.07-.14.1-.3l.04-.26zM2.75 2.94l-.08.4q-.12-.13-.35-.13a.5.5 0 0 0-.37.17l-.12.23h.77l-.04.22h-.75V4h.71l-.04.22h-.64q.03.15.1.23.14.17.37.17a.6.6 0 0 0 .43-.17v.43a1 1 0 0 1-.43.1 1 1 0 0 1-.67-.29 1 1 0 0 1-.24-.47h-.2L1.23 4h.14v-.19h-.19l.05-.21h.17a1 1 0 0 1 .23-.47q.27-.28.7-.28.23 0 .4.08m11.39.04-.09.39q-.12-.12-.34-.12a.5.5 0 0 0-.37.16l-.12.24h.77l-.04.21h-.76v.19h.72l-.04.22h-.64q.03.15.1.23.14.17.37.17a.6.6 0 0 0 .43-.17v.43a1 1 0 0 1-.43.1 1 1 0 0 1-.67-.29 1 1 0 0 1-.24-.47h-.2l.04-.22h.14v-.19h-.19l.05-.21h.17a1 1 0 0 1 .23-.47q.27-.28.7-.28.23 0 .4.08"/></svg>