<svg xmlns="http://www.w3.org/2000/svg" width="116" height="116" fill="none"><path fill="#F5EFE2" d="M0 0h116v116H0z"/><path fill="#F1E4C9" d="M109.24 64.94c-2.74-4.8-5.89-9.5-7.7-14.4-2.04-5.51-2.39-11.32-4.1-16.9-1.52-4.93-3.86-9.72-7.44-13.5s-8.48-6.53-13.74-6.9c-7.12-.48-13.9 3.36-18.98 8.28-2.67 2.6-5 5.49-7.65 8.1-2.57 2.54-5.5 4.25-8.45 6.23-6.28 4.2-14.52 4.63-21.4 7.52A33.5 33.5 0 0 0 1.6 62.2C-.07 66.63-.69 71.72 1.36 76c3.22 6.72 11.84 9.22 19.42 8.93s15.05-2.58 22.62-2.2c7 .35 13.67 2.97 19.99 5.92s12.5 6.31 19.2 8.31 14.14 2.56 20.6-.1c5.34-2.18 9.88-6.94 10.96-12.6 1.33-7.04-1.47-13.26-4.91-19.3"/><path fill="#F6E0D1" d="M101.51 46.38c-.16-1.08-.06-2.28.73-3.1a3.8 3.8 0 0 1 2.24-1.07 8 8 0 0 1 2.58.17 10 10 0 0 1 3.72 1.57 5.5 5.5 0 0 1 2.15 3.06 3.8 3.8 0 0 1-.9 3.47c-.76.82-1.9 1.3-3.06 1.53-1.24.24-3.22.62-4.25-.2a9 9 0 0 1-2.58-3.3 8 8 0 0 1-.63-2.13"/><path fill="#F1E4C9" d="M20.33 39.72c-2.51.94-5.33 1.4-7.9.57a7.6 7.6 0 0 1-4.17-3.23 6.5 6.5 0 0 1-.7-5.17 6 6 0 0 1 1.34-2.3 6 6 0 0 1 2.24-1.45c1.55-.52 3.24-.3 4.88-.27a20 20 0 0 0 8.97-1.98c.9-.44 1.8-.95 2.8-1.08a4 4 0 0 1 2.2.43 4 4 0 0 1 1.57 1.6c1.11 2.2-.52 4.58-1.9 6.25a22 22 0 0 1-5.58 4.81 22 22 0 0 1-3.75 1.82"/><path fill="#DBBC78" d="M81.18 80.52a4 4 0 0 0 2.83.27 6 6 0 0 0 1.52-.63c.4-.23.84-.73 1.32-.64 1.1.2 2.18.4 3.32.25a4.5 4.5 0 0 0 3.16-1.71q.23-.33.39-.7.37-.95.4-1.97c.04-.93-.07-1.9-.56-2.7-.48-.78-1.42-1.35-2.35-1.19a2.24 2.24 0 0 0-1.34-3.57 12 12 0 0 0-.26-2.35 4 4 0 0 0-1.14-2.04 3.3 3.3 0 0 0-3.16-.63 4 4 0 0 0-2.41 2.21 5.3 5.3 0 0 0-.32 3.3 2.9 2.9 0 0 0-1.42 4.59 7 7 0 0 0-.61.7c-.7.92-1.18 2-1.25 3.14-.08 1.44.6 2.98 1.88 3.66"/><path fill="#CFAD65" d="M81.18 80.52a4 4 0 0 0 2.83.27 6 6 0 0 0 1.52-.63c.4-.23.84-.73 1.32-.64 1.1.2 2.18.4 3.32.26a4.5 4.5 0 0 0 3.16-1.72 4 4 0 0 0 .39-.7 5.44 5.44 0 0 1-6.96-.67 5.7 5.7 0 0 1-4.61-1.02 6 6 0 0 1-1.6-1.95c-.7.92-1.17 2-1.24 3.13a3.9 3.9 0 0 0 1.87 3.67"/><path fill="#C09A47" d="M84.06 74.43a.04.04 0 0 1 .06 0v.03a2.4 2.4 0 0 0-.03 1.32q.08.31.25.59.16.26.38.48l.12.1.12.09q.13.08.27.14l.27.12.28.11.39.15.03-.75.03-1.18v-1.19a68 68 0 0 0-.18-4.77.1.1 0 0 1 .1-.1l.06.04.02.03a41 41 0 0 1 .72 3.54l.05-.04q.1-.1.25-.18.13-.06.25-.17.12-.1.2-.22.1-.12.18-.26.15-.3.13-.64l.02-.04a.04.04 0 0 1 .05.02q.18.35.14.75a2 2 0 0 1-.09.4q-.07.19-.18.36l-.24.34a1 1 0 0 1-.32.24 1 1 0 0 1-.34.1l.08.53.14 1.2.13 1.22.08 1.21.04 1.22q0 .6.04 1.21l.03 1.22q0 .6-.05 1.22c-.05.62-.1.8-.17 1.2l-.12.6-.14.6q-.14.6-.33 1.18t-.43 1.15q-.24.58-.54 1.12l-.07.05a.1.1 0 0 1-.1-.08 12 12 0 0 1-.1-1.23l-.02-1.21.02-1.2.01-.58.03-.6q.02-.58.08-1.17l.14-1.17.16-1.18.12-1.18.06-1.02a3 3 0 0 1-.56-.05 2 2 0 0 1-.73-.31 3 3 0 0 1-.56-.56 3 3 0 0 1-.39-.66 3 3 0 0 1-.17-.74q-.04-.75.33-1.4"/><path fill="#fff" d="M89.08 69.65c0 .37.2.67.45.67s.45-.3.45-.68-.2-.67-.45-.67-.45.3-.45.68m-3.23-2.6c.25 0 .45-.3.45-.68s-.2-.68-.45-.68-.45.3-.45.68.2.68.45.68m1.96-1.13c.15 0 .26-.17.26-.38 0-.22-.11-.39-.26-.39s-.25.17-.25.39.11.38.25.38m-2.41 2.72c0 .22.12.39.25.39.14 0 .26-.17.26-.39s-.11-.38-.26-.38c-.14 0-.25.17-.25.38m3.03-1.22c0 .15.08.27.17.27s.17-.12.17-.27-.08-.26-.17-.26-.17.12-.17.26" opacity=".3" style="mix-blend-mode:overlay"/><path fill="#DBBC78" d="M90.8 88.03a1.1 1.1 0 0 0-.94-.22c.3-.56.6-1.14.67-1.77.06-.64-.18-1.35-.73-1.65-.6-.34-1.37-.13-1.87.33s-.75 1.12-.93 1.77a.68.68 0 0 0-1.34-.08 4 4 0 0 0-.5-1.05 1.3 1.3 0 0 0-.98-.53c-.46.01-.86.39-1 .83a2.5 2.5 0 0 0-.02 1.37.8.8 0 0 0-.85-.32c.01-.57.02-1.17-.2-1.7s-.77-.97-1.34-.9-.95.56-1.16 1.08a3.6 3.6 0 0 0-.02 2.62 1.1 1.1 0 0 0-1.24 0 1 1 0 0 0-.36 1.15h13.26a1.2 1.2 0 0 0-.45-.93"/><path fill="#DBBC78" d="M89.23 88.48a.6.6 0 0 0-.48-.11q.26-.43.34-.92a.9.9 0 0 0-.38-.84.8.8 0 0 0-.96.17q-.36.4-.47.91a.35.35 0 0 0-.7-.04 2 2 0 0 0-.25-.54.6.6 0 0 0-.5-.28.6.6 0 0 0-.52.43 1.3 1.3 0 0 0 0 .7.4.4 0 0 0-.44-.16 2 2 0 0 0-.1-.87.7.7 0 0 0-.7-.47c-.28.04-.48.3-.6.55q-.25.68 0 1.36a.55.55 0 0 0-.64 0 .5.5 0 0 0-.18.58h6.82a.6.6 0 0 0-.24-.47" style="mix-blend-mode:multiply"/><path fill="#DBBC78" d="M22.31 88.03a1.1 1.1 0 0 1 .95-.22 5 5 0 0 1-.68-1.77c-.06-.64.18-1.35.73-1.65.6-.34 1.37-.13 1.87.33s.75 1.12.93 1.77a.68.68 0 0 1 1.34-.08q.17-.57.5-1.05a1.3 1.3 0 0 1 .99-.54c.46.02.85.4 1 .83q.2.69.01 1.38a.8.8 0 0 1 .86-.32A4 4 0 0 1 31 85c.23-.52.77-.97 1.34-.9s.95.56 1.16 1.07a3.6 3.6 0 0 1 .02 2.63 1.1 1.1 0 0 1 1.24 0 1 1 0 0 1 .36 1.14H21.87a1.2 1.2 0 0 1 .44-.92"/><path fill="#DBBC78" d="M23.88 88.48a.6.6 0 0 1 .49-.11 2.4 2.4 0 0 1-.34-.92.9.9 0 0 1 .38-.84.8.8 0 0 1 .96.17q.36.4.47.91a.35.35 0 0 1 .7-.04 2 2 0 0 1 .25-.54.6.6 0 0 1 .5-.28.6.6 0 0 1 .52.43q.1.36 0 .7a.4.4 0 0 1 .44-.16q-.03-.46.11-.87a.7.7 0 0 1 .69-.47c.28.04.48.3.6.55q.26.68 0 1.36a.55.55 0 0 1 .64 0 .5.5 0 0 1 .18.58h-6.82a.6.6 0 0 1 .23-.47" style="mix-blend-mode:multiply"/><path fill="#DBBC78" d="M41.28 79.55a5 5 0 0 1-3.67 1.64 11 11 0 0 1-3.4-.45c-.2-.05-.49-.2-.7-.2s-.52.2-.74.28q-.78.3-1.59.53a9 9 0 0 1-1.8.29c-1.1.05-2.26-.2-3.18-.8a3.72 3.72 0 0 1 1.7-6.82 6.07 6.07 0 1 1 10.05-2.11c.55-.26 1.25-.32 1.72.05.48.38.5 1.27-.06 1.52q.37.13.7.33a3.84 3.84 0 0 1 .97 5.74"/><path fill="#CFAD65" d="M41.28 79.55a5 5 0 0 1-3.67 1.64 11 11 0 0 1-3.4-.45c-.2-.05-.49-.2-.7-.2s-.52.2-.74.28q-.78.3-1.59.53a9 9 0 0 1-1.8.29c-1.1.05-2.26-.2-3.18-.8a12 12 0 0 0 2.25-.13c1.95-.3 3.89-1.28 4.87-2.99 1.11.11 2.23.2 3.33.03s2.2-.62 2.93-1.46a3.2 3.2 0 0 0 .8-1.9 3 3 0 0 0-.06-.58 3.84 3.84 0 0 1 .96 5.73z"/><path fill="#C09A47" d="m35.77 75.26-.04-.02-.02.04q.18.6.03 1.2a2 2 0 0 1-.22.53 2 2 0 0 1-.35.45l-.1.09a2 2 0 0 1-.36.21l-.25.1-.25.11-.36.13-.03-.68-.03-1.08v-1.08q.01-2.16.17-4.34a.1.1 0 0 0-.06-.09.1.1 0 0 0-.1.06 37 37 0 0 0-.66 3.23l-.04-.04a1 1 0 0 0-.23-.17l-.24-.14-.18-.2-.16-.24a1 1 0 0 1-.12-.59l-.01-.03h-.03l-.02.01a1 1 0 0 0-.13.7q.02.17.08.35t.17.34.22.3a1 1 0 0 0 .29.22q.14.07.3.09l-.07.49-.13 1.1-.1 1.1-.07 1.1-.05 1.1q0 .56-.03 1.1l-.03 1.11q0 .56.05 1.11.05.56.15 1.1l.1.55.13.54q.14.54.3 1.07.17.53.39 1.05.22.53.5 1.02l.07.04a.1.1 0 0 0 .1-.07q.06-.56.07-1.12.03-.56.02-1.1l-.01-1.08-.01-.54-.03-.54-.07-1.07-.13-1.06-.15-1.07-.1-1.07-.06-.93q.25 0 .5-.04a2 2 0 0 0 .66-.29q.29-.22.5-.5.23-.28.36-.6.13-.33.16-.68a2.2 2.2 0 0 0-.29-1.29"/><path fill="#fff" d="M30.07 69.86c0 .53-.34.97-.75.97-.42 0-.75-.44-.75-.97 0-.54.33-.97.75-.97.4 0 .75.43.75.97m1.16-3.2c.27 0 .5-.3.5-.65s-.23-.63-.5-.63-.5.28-.5.63c0 .36.23.64.5.64m1.32.98a.28.28 0 1 1-.27-.35.3.3 0 0 1 .27.35m-4.03 3.9a.28.28 0 1 1-.26-.34.3.3 0 0 1 .26.35m.39-4.26a.15.15 0 0 1-.3-.02.15.15 0 0 1 .15-.17.17.17 0 0 1 .15.2m3.44-1.27c.17 0 .3-.18.3-.39s-.13-.38-.3-.38-.3.17-.3.38.14.39.3.39" opacity=".3" style="mix-blend-mode:overlay"/><path fill="#DBBC78" d="M78.3 37.35h-43v9.3h43z"/><path fill="#DBBC78" d="M78.3 37.35h-43v.77h43z" style="mix-blend-mode:multiply"/><path fill="#DBBC78" d="M77.99 34.2H35.6v2.19H78z"/><path fill="#DBBC78" d="M77.99 34.2H35.6v.42H78z" style="mix-blend-mode:multiply"/><path fill="#B48F4B" d="M78.82 35.94H34.78a.23.23 0 0 0-.23.23v1.28c0 .12.1.22.23.22h44.04a.23.23 0 0 0 .22-.22v-1.28a.23.23 0 0 0-.22-.23m.01-3.43H34.76a.2.2 0 0 0-.2.2v1.32q.02.2.2.21h44.08a.2.2 0 0 0 .2-.2v-1.32a.2.2 0 0 0-.2-.21"/><path fill="#DBBC78" d="M78.3 58.4H36.1v30.54h42.2z"/><path fill="#C7A355" d="M78.6 84.36H35.81a.25.25 0 0 0-.25.25v4.09c0 .13.1.24.25.24h42.77c.14 0 .25-.1.25-.24v-4.1a.25.25 0 0 0-.25-.24"/><path fill="#D2C29F" d="M78.3 58.4v3.95h-.12a1.8 1.8 0 0 1-1.78-1.79 1.8 1.8 0 0 1-1.79 1.8h-.48a1.8 1.8 0 0 1-1.79-1.8 1.8 1.8 0 0 1-1.79 1.8h-.48a1.8 1.8 0 0 1-1.79-1.8 1.8 1.8 0 0 1-1.78 1.8H66a1.8 1.8 0 0 1-1.78-1.8 1.8 1.8 0 0 1-1.79 1.8h-.48a1.8 1.8 0 0 1-1.79-1.8 1.8 1.8 0 0 1-1.79 1.8h-.48a1.8 1.8 0 0 1-1.79-1.8 1.8 1.8 0 0 1-1.78 1.8h-.49a1.8 1.8 0 0 1-1.79-1.8 1.8 1.8 0 0 1-1.78 1.8h-.48a1.8 1.8 0 0 1-1.79-1.8 1.8 1.8 0 0 1-1.78 1.8h-.48a1.8 1.8 0 0 1-1.8-1.8 1.8 1.8 0 0 1-1.78 1.8h-.48a1.8 1.8 0 0 1-1.79-1.8 1.8 1.8 0 0 1-1.78 1.8h-.49a1.8 1.8 0 0 1-1.51-.83V58.4z" style="mix-blend-mode:multiply"/><path fill="#E09764" d="M48.85 64.39h-10.6v21.68h10.6z"/><path fill="#F2F1D0" d="M48.28 64.97h-9.45v20.52h9.45z"/><path fill="#fff" d="M48.28 64.97v.83L42.8 85.49h-2l5.7-20.52z" opacity=".5" style="mix-blend-mode:overlay"/><path fill="#E09764" d="M48.27 75.44h-1.46a.2.2 0 0 1 0-.42h1.46zm27.88-11.05H50.43v14.06h25.72z"/><path fill="#F2F1D0" d="M75.48 64.97H51.1v12.9h24.38z"/><path fill="#fff" d="m60.88 64.97-3.4 12.9H56.4l3.4-12.9zm9.26 0-3.39 12.9h-1.1l3.4-12.9z" opacity=".5" style="mix-blend-mode:overlay"/><path fill="#B55134" d="M50.49 87.44H36.62v1.5h13.87z"/><path fill="#CE6F54" d="M50.49 87.44H36.62l.61-.36h12.65z"/><path fill="#B55134" d="M49.48 86.23H37.63v.85h11.85z"/><path fill="#CE6F54" d="M49.48 86.23H37.63l.53-.2h10.79z"/><path fill="#F2F1D0" d="M35.44 57.68h-3.96l1.98-10.6h3.65z"/><path fill="#CE6F54" d="M39.4 57.68h-3.96l1.67-10.6h3.66z"/><path fill="#F2F1D0" d="M43.35 57.68H39.4l1.36-10.6h3.66z"/><path fill="#CE6F54" d="M47.31 57.68h-3.96l1.07-10.6h3.65z"/><path fill="#F2F1D0" d="M51.27 57.68H47.3l.76-10.6h3.65z"/><path fill="#CE6F54" d="M55.23 57.68h-3.96l.45-10.6h3.66z"/><path fill="#F2F1D0" d="M59.18 57.68h-3.95l.15-10.6h3.65z"/><path fill="#CE6F54" d="M63.14 57.68h-3.96l-.15-10.6h3.65z"/><path fill="#F2F1D0" d="M67.1 57.68h-3.96l-.46-10.6h3.66z"/><path fill="#CE6F54" d="M71.05 57.68H67.1l-.76-10.6h3.65z"/><path fill="#F2F1D0" d="M75.01 57.68h-3.96L70 47.08h3.65z"/><path fill="#CE6F54" d="M78.97 57.68H75l-1.37-10.6h3.65z"/><path fill="#F2F1D0" d="M82.93 57.68h-3.96l-1.67-10.6h3.65z"/><path fill="#E5D995" d="M31.48 57.68h3.96v1.65A1.7 1.7 0 0 1 33.76 61h-.59a1.7 1.7 0 0 1-1.68-1.68z"/><path fill="#B55134" d="M35.44 57.68h3.96v1.65A1.7 1.7 0 0 1 37.72 61h-.6a1.7 1.7 0 0 1-1.67-1.68z"/><path fill="#E5D995" d="M39.4 57.68h3.95v1.65A1.7 1.7 0 0 1 41.67 61h-.58a1.7 1.7 0 0 1-1.68-1.68z"/><path fill="#B55134" d="M43.35 57.68h3.96v1.65A1.7 1.7 0 0 1 45.63 61h-.59a1.7 1.7 0 0 1-1.68-1.68z"/><path fill="#E5D995" d="M47.31 57.68h3.96v1.65A1.7 1.7 0 0 1 49.59 61H49a1.7 1.7 0 0 1-1.68-1.68z"/><path fill="#B55134" d="M51.27 57.68h3.96v1.65A1.7 1.7 0 0 1 53.55 61h-.6a1.7 1.7 0 0 1-1.67-1.68z"/><path fill="#E5D995" d="M55.23 57.68h3.95v1.65A1.7 1.7 0 0 1 57.5 61h-.6a1.7 1.7 0 0 1-1.67-1.68z"/><path fill="#B55134" d="M59.18 57.68h3.95v1.65A1.7 1.7 0 0 1 61.45 61h-.58a1.7 1.7 0 0 1-1.68-1.68z"/><path fill="#E5D995" d="M63.14 57.68h3.96v1.65A1.7 1.7 0 0 1 65.42 61h-.6a1.7 1.7 0 0 1-1.67-1.68z"/><path fill="#B55134" d="M67.1 57.68h3.95v1.65A1.7 1.7 0 0 1 69.37 61h-.58a1.7 1.7 0 0 1-1.68-1.68z"/><path fill="#E5D995" d="M71.05 57.68h3.96v1.65A1.7 1.7 0 0 1 73.33 61h-.59a1.7 1.7 0 0 1-1.68-1.68zm7.92 0h3.96v1.65A1.7 1.7 0 0 1 81.25 61h-.6a1.7 1.7 0 0 1-1.67-1.68z"/><path fill="#B55134" d="M75.01 57.68h3.96v1.65A1.7 1.7 0 0 1 77.29 61h-.59a1.7 1.7 0 0 1-1.68-1.68z"/><path fill="#F2F1D0" d="M82.93 57.68H31.48l.03-.15c8.33-.13 16.7-.38 24.86-2.05a62 62 0 0 0 8.53-2.35 47 47 0 0 0 11.75-6.05h4.3z" style="mix-blend-mode:multiply"/><path fill="#CE6F54" d="M80.96 47.26H33.44a.43.43 0 0 1-.3-.74.4.4 0 0 1 .3-.13h47.52a.44.44 0 1 1 0 .87"/><path fill="#E09764" d="M77.11 39.2H36.97v5.6H77.1z"/><path fill="#F2F1D0" d="M76.53 39.71H37.54v4.58h39z"/><path fill="#F2F1D0" d="M37.54 39.71v.33H76.2v4.25h.33V39.7z" style="mix-blend-mode:multiply"/><path fill="#fff" d="m57.66 39.71-2.32 4.58h-1.79l2.31-4.58zm7.94 0-2.3 4.58h-.83l2.3-4.58z" opacity=".5" style="mix-blend-mode:overlay"/><path fill="#DBBC78" d="M73.78 80.52h-3.45v1.22h3.45zm-2.87 1.9h-3.46v1.22h3.46zm-6.29-3.27h-3.45v1.21h3.45zm-26.78-9.48H36.1v1.21h1.73zm.42 7.16h-1.4v1.21h1.4zm40.03-14.18h-1.9v1.21h1.9z" style="mix-blend-mode:multiply"/><path fill="#F9A66A" d="M74.55 85.45h-1.86v.67h1.86zm-6.17 1.32h-1.86v.67h1.86zm-1.18-.9h-1.86v.67h1.86zm-3.26 1h-1.86v.67h1.86zM51.42 84.8h-1.86v.68h1.86z" style="mix-blend-mode:multiply"/><path fill="#B55134" d="M31.19 78.42h-.57V56.95a2.15 2.15 0 1 0-4.3 0v.97h-.58v-.97a2.72 2.72 0 0 1 5.44 0z"/><path fill="#CE6F54" d="M28.8 54.8h-.17a2.15 2.15 0 0 1 1.99 2.15v21.47h.33V56.95a2.15 2.15 0 0 0-2.15-2.15"/><path fill="#F9A66A" d="m28.18 59.17-.07.01h-4.17l-.07-.01a2.82 2.82 0 1 0 4.31 0"/><path fill="#fff" d="M25.14 62.18a1.3 1.3 0 0 1-.71-.61v.03l-.05-.24.02-.24a.3.3 0 0 0-.21-.28.3.3 0 0 0-.35.2 1.3 1.3 0 0 0 .28 1.1q.35.4.87.6a.3.3 0 0 0 .35-.2.3.3 0 0 0-.18-.34z" opacity=".3" style="mix-blend-mode:overlay"/><g style="mix-blend-mode:multiply"><path fill="#F2F1D0" d="m23.94 59.18-.07-.01-.01.01z"/><path fill="#F9A66A" d="m28.18 59.17-.07.01h-.84a2.81 2.81 0 0 1-1.7 4.58 2.81 2.81 0 0 0 2.61-4.59"/></g><path fill="#DBBC78" d="M27.48 58.61h-2.9a.84.84 0 0 1 .84-.84h1.2a.84.84 0 0 1 .85.84z"/><path fill="#9AC3B1" d="M28.12 58.31h-4.18a.3.3 0 0 0-.28.28v.31c0 .16.12.28.28.28h4.18a.3.3 0 0 0 .28-.28v-.3a.3.3 0 0 0-.28-.29"/><path fill="#CE6F54" d="M30.39 78.2h1.03a.1.1 0 0 1 .08.1v.23h-1.2v-.24a.1.1 0 0 1 .09-.09"/><path fill="#B55134" d="M30.55 78.45h.7a.76.76 0 0 1 .76.76v9.51H29.8v-9.5a.76.76 0 0 1 .76-.77"/><path fill="#CE6F54" d="M31.25 78.45h-.7a.76.76 0 0 1 .75.76v9.51h.72v-9.5a.76.76 0 0 0-.77-.77"/><path fill="#B55134" d="M32.75 88.58h-3.7a.18.18 0 1 0 0 .36h3.7a.18.18 0 1 0 0-.36"/><path fill="#D2B067" d="M81.78 83.63q-.07.2-.2.35a1 1 0 0 1-.5.18q-.72.18-1.47.27-1.5.16-3-.05a1 1 0 0 1-.6-.2c-.2-.17-.28-.46-.34-.73l-.06-.4a2 2 0 0 1 .02-.46.8.8 0 0 1 .52-.64.74.74 0 0 1 .5-1.32 3 3 0 0 1 .12-1.34 1.7 1.7 0 0 1 .85-1.02 1.6 1.6 0 0 1 1.81.41 2.2 2.2 0 0 1 .46 1.86.6.6 0 0 1 .5.69q.21 0 .41.06a1.7 1.7 0 0 1 1.05.91 1.7 1.7 0 0 1-.07 1.43"/><path fill="#AA7729" d="M81.78 83.63q-.07.2-.2.35a1 1 0 0 1-.5.18 12 12 0 0 1-4.46.22 1 1 0 0 1-.6-.2c-.22-.17-.3-.46-.35-.73l-.06-.4q2.13.04 4.13-.72.52-.17.9-.58a1 1 0 0 0 .16-.47 1.7 1.7 0 0 1 1.05.92 1.7 1.7 0 0 1-.07 1.43"/><path fill="#F2F1D0" d="m81.79 84.4-.14.97-.51 3.64h-4.6l-.52-3.64-.13-.96z"/><path fill="#F2F1D0" d="m81.79 84.4-.14.97h-5.62l-.14-.96z" style="mix-blend-mode:multiply"/><path fill="#F2F1D0" d="M81.96 84.99h-6.24l-.17-1.58h6.58z"/><path fill="#fff" d="M77.8 79.93c0 .26-.14.47-.31.47s-.32-.2-.32-.47.14-.47.32-.47.32.21.32.47m.63.56c0 .13-.07.24-.16.24s-.17-.1-.17-.24.07-.24.17-.24.16.1.16.24m-1.21.42q-.02.22-.17.24c-.15.02-.17-.1-.17-.24s.07-.24.17-.24.17.11.17.24m1.13-1.77q0 .12-.08.13-.1-.01-.09-.13c.01-.12.04-.12.1-.12s.07.05.07.12" opacity=".3" style="mix-blend-mode:overlay"/><path fill="#D2B067" d="M35.6 82.92q-.01.64-.24 1.24c-.08.21-.18.56-.4.67-.3.14-.7.15-1.02.2q-1.17.16-2.35.13h-.17a2 2 0 0 1-1.14-.33l-.18-.16a2.4 2.4 0 0 1-.47-.89 3 3 0 0 1-.17-.64 2 2 0 0 1 .02-.68c.12-.43.52-.82.97-.78a.81.81 0 0 1 1-1.28 1.4 1.4 0 0 1 2.56-1.03c.25.45.3.98.16 1.48a.4.4 0 0 1 .4.6 1 1 0 0 1 .44.13q.24.14.37.38.24.46.21.96"/><path fill="#CFAD65" d="M35.6 82.92q-.01.64-.24 1.24c-.08.21-.18.56-.4.67-.3.14-.7.15-1.02.2q-1.17.16-2.35.13h-.17a4 4 0 0 1-1.3-.49 2.4 2.4 0 0 1-.48-.88 3 3 0 0 1-.17-.64c1.2.33 2.5.27 3.73.03.47-.1.95-.22 1.32-.52q.3-.24.41-.58c.06-.16.04-.34.1-.5q.22.15.36.38.23.46.2.96" style="mix-blend-mode:multiply"/><path fill="#F2F1D0" d="m35.23 84.73-.12.88-.48 3.34h-4.22l-.48-3.34-.12-.89z"/><path fill="#F2F1D0" d="m35.23 84.73-.12.88h-5.18l-.12-.89z" style="mix-blend-mode:multiply"/><path fill="#F2F1D0" d="M35.39 85.26h-5.74l-.15-1.45h6.04z"/><path fill="#fff" d="M32.53 80.61c0 .24-.13.43-.3.43s-.28-.19-.28-.43.13-.43.29-.43.3.2.3.43m.58.51q-.01.2-.15.22c-.14.02-.15-.1-.15-.22q0-.2.15-.22.13.02.15.23m-2.2.23c.12 0 .21-.14.21-.32s-.1-.31-.21-.31c-.12 0-.22.14-.22.31s.1.32.22.32m1.08.15q-.02.2-.15.22c-.13.02-.15-.1-.15-.22q0-.2.15-.22.13.02.15.22m1.07-1.63q0 .15-.1.16c-.1 0-.1-.07-.1-.16q0-.14.1-.15.1.01.1.15" opacity=".3" style="mix-blend-mode:overlay"/></svg>