<svg xmlns="http://www.w3.org/2000/svg" fill="none" viewBox="0 0 588 312"><path fill="#5ED59E" d="m456.023 195.18 20.465 43.929 13.956 99.445-62.471 8.767-19.771-140.88 13.397-6.43z"/><path fill="#55B686" d="m455.336 343.259-13.38-99.525 34.504-4.842 13.955 99.444zm-6.003 1.06 1.558-.218-13.972-99.563-19.917-42.317-1.424.669 19.816 42.105z"/><path fill="#141038" d="m422.339 256.363 5.534-.777-2.779-19.806-5.535.776z"/><path fill="#3E7056" d="m456.025 195.177-5.13 14.238-23.405 3.285-5.888-12.692z"/><path fill="#55B686" d="m450.89 209.417 8.939 22.601 16.656 7.091-20.466-43.93z"/><path fill="#103952" d="m448.045 212.443 6.983 17.108-16.711 2.345-7.631-17.017z"/><path fill="#5ED59E" d="m476.489 239.106-34.503 4.842-4.593-9.901 22.021-3.091z"/><path fill="#DEF4F6" d="m442.388 215.621-3.843.539 4.249 5.014-2.687.376 4.725 7.039-2.007-5.423 3.541-.497z"/><path fill="#55B686" d="m441.665 244.223-19.598-42.248a.79.79 0 0 1 .605-1.11l33.097-4.644a.785.785 0 0 1 .822.446l19.678 42.237a.787.787 0 0 1-.604 1.112l-33.175 4.655a.784.784 0 0 1-.825-.448m13.744-46.363-31.468 4.416 18.907 40.756 31.544-4.427z"/><path fill="#5ED59E" d="m482.003 278.405-34.735 4.874.218 1.558 34.735-4.874zm-5.293-37.721-34.735 4.875.218 1.558 34.735-4.875z"/><path fill="#55B686" d="m441.678 284.066-22.143 3.108.219 1.558 22.142-3.107z"/><path fill="#1A123D" d="m376.448 358.544 13.699-1.922c19.278-2.706 32.659-21.304 29.831-41.46l-5.833-41.566c-2.035-14.499.754-21.011 3.453-23.92 2.78-3 5.938-2.835 6.072-2.826l.112-1.57c-.161-.013-3.991-.251-7.301 3.287-4.291 4.585-5.602 13.081-3.895 25.248l5.834 41.566c2.707 19.295-10.074 37.098-28.492 39.683l-13.699 1.922c-18.418 2.585-35.606-11.012-38.314-30.308l-8.945 12.951c-.065-.462-1.662-11.267-8.532-10.303l.219 1.559c5.328-.748 6.741 8.866 6.754 8.963l8.946-12.951c2.829 20.154 20.813 34.353 40.091 31.647"/><path fill="#F4EBE1" d="m171.365 47.122 2.609-2.227-1.384-.199-1.509 1.287-4.516-1.027-.107 1.05zm26.622 64.079 1.277.424 3.585-2.363-.044-1.238zm14.953-9.859-5.567 3.67.059 1.228 5.796-3.822 7.55.438-.099-1.064zM143.889 40.87l.25.057 18.983 4.318.046-1.063-10.004-2.276-10.397-1.493-7.642 6.008c.005.444.003.89.004 1.335zm-15.265 10.66-.867.682.828.165c.009-.282.025-.564.039-.846m103.575 21.532 1.069.213-4.556-17.174-1.005.03zm-47.145-37.62-.118-1.28-9.874 8.424 1.397.188zm52.249 56.85 1.062.184-4.064-15.317-1.07-.216zm-16.467-62.06 1.389 5.234 1.041.107-1.676-6.317-2.612-.293.099 1.072zm6.08 22.918 1.007-.023-3.864-14.564-1.039-.096zm13.208 49.773-14.392-.837.098 1.065 15.607.907-1.923-7.248-1.078-.247zm-109.175-.579c-.108.844-.223 1.686-.336 2.528l5.498 20.517.275-2.752zm10.048 27.498 2.874-.706 9.175-6.352.199-1.422zm-3.466.849.389-.095zM124.433 55l-.108 1.25 1.287-1.012zm-1.978 15.644c-.182.486-.391.954-.639 1.396l2.862 10.682q.248-.978.488-1.959zm66.017 46.834-1.014.668-23.787-4-6.033 4.177-.186 1.413 6.474-4.482 21.665 3.644 4.115-1.01z"/><path fill="#73D586" d="m191.905 29.595-.21-1.2-4.431 3.78.118 1.28zm22.097-.13-.099-1.072-7.52-.844-.014 1.06z"/><path fill="#62C3EA" d="m129.774 97.958-1.112-.37 1.952 7.284c.112-.842.228-1.684.335-2.527zm-4.608-17.196q-.241.981-.488 1.959l1.206 4.504 1.112.37zm3.949-28.278 6.014-4.728c-.001-.445.001-.891-.004-1.335l-6.502 5.11c-.013.283-.029.564-.039.847z"/><path fill="#fff" d="m220.68 101.793.099 1.065 5.05.293-.098-1.064zm-1.602-71.76-.099-1.071-3.416-.384.101 1.073zm-3.415-.382-.1-1.072-1.661-.187.099 1.073zm-30.26 5.491-.118-1.279-.35.3.118 1.279zm1.979-1.687-.118-1.279-1.978 1.688.118 1.278zm-61.768 21.782 2.955-2.323.015-.535-.828-.165-3.305 2.598-.016.187zm107.617 21.707 1.07.216-1.031-3.885-1.069-.213z"/><path fill="#fff" d="M128.584 52.378q-.01.268-.016.535l.546-.429z"/><path fill="#73D586" d="m119.595 59.967 4.732-3.72.108-1.25-.176-.035-5.797 4.557 3.355 12.52c.248-.442.457-.91.639-1.395z"/><path fill="#73D586" d="m124.45 54.81-.193.152.177.036z"/><path fill="#fff" d="m176.459 42.774-1.397-.188-2.472 2.11 1.384.198zm-32.156-2.884-.675-.152-.86.676 10.396 1.493zm22.156 6.115.106-1.05-3.396-.772-.047 1.063zm71.976 50.558 1.077.247-1.149-4.333-1.062-.185zM223.02 38.468l1.039.096-.794-2.99-1.041-.107zm4.689 17.664 1.004-.03-.789-2.975-1.006.023zm-74.464 65.23-.199 1.422 4.406-3.05.186-1.413zm-14.763 9.097-2.096-7.822-.275 2.752 1.421 5.303.389-.095zm64.323-22.433.044 1.237 4.583-3.022-.059-1.227z"/><path fill="#F4EBE1" d="m194.608 27.288.23.026 11.529 1.294.014-1.06-11.434-1.283-1.062.26-2.191 1.87.21 1.2z"/><path fill="#F7CA2E" d="m194.758 113.33.11 1.194 4.396-2.899-1.277-.424zm-6.287 4.146 1.235.411.102-.025 2.693-1.776-.11-1.194zm-61.474-29.882-1.112-.37 2.776 10.363 1.112.37z"/><path fill="#F7CA2E" d="m192.39 114.892.11 1.194 2.368-1.561-.11-1.194z"/><path fill="#F4EBE1" d="m142.597 92.781 13.994 4.654 1.405-10.055-14.465-3.384zm79.628-57.315-1.389-5.233-1.759-.198.476 5.157zm-60.184 48.805 28.203 7.384-2.2-23.827-23.134-4.667zm25.667-20.091-1.621-17.547-12.113-1.74-2.609 2.227-4.907-1.116-1.387 13.657zm37.151 28.464.872 9.442 14.393.837-1.688-6.36-13.5-3.092zm-39.806-57.202-8.594 7.333 9.388 1.262zm37.826 35.76 9.322 1.86-4.492-16.93-6.204.187zM141.625 101.9l-3.704 28.698.251 2.485 15.073-11.719 2.084-14.907zm79.598-48.616 5.693-.133-3.896-14.684-3.193-.295z"/><path fill="#F4EBE1" d="m140.701 79.551 17.84 3.72 2.937-20.801 2.582.52-29.189-5.888c-.313 6.01-.841 11.999-1.231 17.73q-.498 7.297-1.223 14.565l7.063 2.348zm20.905 8.675-1.374 10.42 31.63 10.518-1.308-14.165zM128.512 55.82l-2.899-.584-1.287 1.012-.68 7.838c-.193 2.215-.437 4.545-1.191 6.558l2.711 10.12c1.596-6.513 2.918-13.126 3.231-19.898.078-1.677.093-3.362.115-5.046m2.908 42.687q-.228 1.92-.472 3.839l5.437 20.292 2.179-21.756zm93.203-8.425 12.68 2.21-4.072-15.348-10.007-2.018zm-66.987 28.24 6.034-4.177 23.786 4 1.014-.668-29.432-9.787zm48.119-46.918 1.618 33.611 5.567-3.67 7.739.449-2.576-27.9zm-43.24-12.251.606-13.906-18.983-4.319-.25-.057-8.76 6.887q.004 2.943-.103 5.907zm28.089 9.194 3.849 41.68 3.535 1.176 4.818-3.177-1.329-37.486z"/><path fill="#73D586" d="M217.76 70.18 214 29.466l-7.633-.856-.213 16.577-12.177-3.76-2.073-11.83-4.523 3.859 2.885 31.236z"/><path fill="#62C3EA" d="m129.773 97.957 1.176 4.387q.244-1.918.472-3.84zm3.866-23.123c.39-5.732.918-11.72 1.231-17.73l-6.359-1.283c-.021 1.684-.037 3.368-.114 5.046-.314 6.772-1.635 13.384-3.231 19.897l1.831 6.832 5.42 1.802q.724-7.267 1.222-14.565m1.49-27.078-6.014 4.728 5.911 1.18q.108-2.965.103-5.908"/><path fill="#fff" d="m224.623 90.082-1.4-15.157-5.119-1.033 2.577 27.9 5.05.294-.872-9.442zm-1.745-18.88-1.374-14.883-1.813.054 1.13-3.08.402-.01-1.395-15.111-.721-.067.446-2.913-.476-5.157-3.415-.383 3.842 40.876z"/><path fill="#fff" d="m219.504 70.527-3.841-40.876-1.662-.186 3.76 40.714zM186.469 46.69l-.383-.055 1.62 17.547.385.077zm-.239-2.601-.826-8.946-.351.3.794 8.594zm4.373 24.258-2.559-.516 2.2 23.826 1.817.562-.325 3.058-1.183-.277 1.308 14.166 2.591.862zm-4.176-24.232.659 2.662-.615-.088 1.623 17.568 2.174.434-2.885-31.236-1.978 1.687.826 8.946zm36.797 30.812 10.007 2.018-1.03-3.882-9.321-1.86zm-32.843-9.001.223 2.42 10.874 2.194-.024-.662 4.18-1.019.122 2.544 12.348 2.49-.247-2.683zm-61.813-13.013-2.955 2.323 2.898.585q.017-1.455.057-2.908"/><path fill="#fff" d="m164.911 63.163 23.134 4.667-.337-3.65-22.636-4.518-2.556-.51-27.49-5.487a208 208 0 0 1-.155 3.439l29.19 5.888zm52.945 8.047-.095-1.03-27.494-5.488.114 1.234z"/><path fill="#fff" d="M134.869 57.102q.092-1.719.155-3.439l-5.911-1.18-.545.43c-.029.967-.045 1.936-.057 2.907zm82.988 14.107.248 2.684 5.119 1.033-.344-3.724-3.375-.674.096 1.017z"/><path fill="#fff" d="m219.599 71.544-.095-1.016-1.744-.349.095 1.03zm-28.995-3.2-.224-2.42-2.172-.417-.115-1.25-.386-.077.337 3.648z"/><path fill="#fff" d="m190.381 65.926-.114-1.235-2.173-.433.115 1.25z"/><path fill="#73D586" d="m124.325 56.248-4.732 3.72 2.861 10.676c.755-2.013.999-4.343 1.191-6.559z"/><path fill="#fff" d="m185.848 44.036-9.389-1.262-2.484 2.12 12.113 1.739z"/><path fill="#fff" d="m186.23 44.088-.383-.052.24 2.597.383.055zm.855 2.69-.659-2.663-.195-.026.24 2.6zM165.07 59.662l1.387-13.658-3.337-.759-1.08 14.027zm59.789 32.982.182 1.628 13.395 2.29-1.134-4.27-12.68-2.21zm.001.001-.237-2.562zm-5.032-54.473 3.193.295-.797-3.001-2.671-.275zm-.276-2.98-.445 2.913.72.067zm1.952 21.126 6.204-.187-.791-2.981-5.693.133zm-.683-3.026-1.131 3.08 1.814-.054-.281-3.035zm-62.826 34.09-1.406 10.054 3.642 1.21 1.374-10.42zm-2.666 19.073-2.084 14.907 4.393-3.041 1.402-10.632zm6.965-23.443 2.617-19.849-.85-.171-2.582-.521-2.719 19.448zm2.617-19.85-.85-.172zm-23.285 38.737-3.061-1.018L136 123.084l1.951 7.282.186.693zm-.924-22.347-1.222 12.194 3.116 1.036.935-8.785 14.465 3.384.546-4.109zm20.904 8.675 28.948 6.772-.309-3.343-28.204-7.383zm30.131 7.049.325-3.058-1.817-.562.309 3.343z"/><path fill="#fff" d="m158.758 81.918-.764 5.463 3.61.844.688-5.214zm42.72-11.38 1.328 37.486 4.568-3.012-1.618-33.611z"/><path fill="#fff" d="m201.454 69.878.024.661 4.278.863-.123-2.543z"/><path fill="#F4EBE1" d="m206.155 45.187.213-16.578-11.529-1.293-.23-.026-2.704 2.307 2.073 11.83z"/><path fill="#F7CA2E" d="m191.862 109.165-31.63-10.518-1.192 9.042 29.432 9.787 3.919-2.584zm2.897 4.164 3.229-2.129-3.534-1.175zm-62.342-23.932a461 461 0 0 1-.996 9.107l7.144 2.376.915-9.135zm10.179 3.385-.97 9.116 13.704 4.557 1.26-9.02z"/><path fill="#F7CA2E" d="m132.416 89.398-5.42-1.802 2.777 10.362 1.647.548q.543-4.546.996-9.108m59.446 19.767.529 5.727 2.368-1.561-.306-3.305zm-36.533-2.709 3.71 1.234 1.192-9.043-3.641-1.211zm-15.85-14.71-.915 9.134 3.061 1.018.97-9.116z"/><path fill="#000" d="m213.494 101.446 26.625 1.715-19.359-72.947-25.64-3.062zm-49.471 12.833 23.847 4.205-16.171-71.151-27.56-6.52z" opacity=".1"/><path fill="#DDD" d="m221.349 28.927-2.591-.288-23.554-2.617c-1.653-.184-2.522 1.045-3.764 2.102l-4.366 3.716-8.652 7.362-3.803 3.237-2.339 1.99c-.325.277-.758.536-1.024.872a1.6 1.6 0 0 1-.196.183 1 1 0 0 1-.315-.08c-1.856-.751-4.166-.942-6.111-1.382l-5.102-1.154-12.086-2.732c-.861-.195-1.722-.393-2.584-.585-.995-.221-1.154-.14-1.983.51l-4.801 3.765-19.401 15.214c-.216.17-.345.428-.265.73l7.435 27.744 8.036 29.993 4.03 15.041c.107.398.576.644.906.416l18.687-12.908 4.491-3.103c.669-.462 1.427-1.23 2.19-1.543h.046c.245-.004.525.088.768.129l14.146 2.361 5.825.972c1.128.189 2.323.672 3.34.146 3.226-1.665 6.241-4.107 9.291-6.113l9.315-6.128 4.507-2.966c.443-.292.917-.563 1.342-.883.154-.116.594-.295.467-.305.846-.095 1.909.144 2.727.19l25.041 1.432c.399.023.684-.408.577-.813l-7.625-28.738-7.768-29.279-4.242-15.989a.67.67 0 0 0-.595-.5m-50.22 16.56c.133-.005.137-.054 0 0m44.426 55.992c-.791-.046-1.788-.299-2.56-.147-.583.115-1.12.616-1.611.938l-3.292 2.167-8.945 5.885-9.024 5.938c-.683.449-1.376.884-2.049 1.348-.601.415-.523.343-.752.347-.556.009-1.211-.202-1.766-.295l-3.666-.612-15.056-2.513c-.908-.152-2.223-.656-3.108-.364-.711.234-1.431.988-2.051 1.416l-3.412 2.357-19.414 13.411-7.275-27.151-7.853-29.306-4.022-15.01 16.425-12.881 5.636-4.42 1.684-1.32c.777-.61.585-.578 1.514-.368q5.696 1.286 11.391 2.576l11.181 2.528c1.052.238 2.368.78 3.438.777.798 0 1.216-.573 1.844-1.107l3.373-2.87 9.414-8.012 4.039-3.437c1.368-1.165 2.98-3.041 4.554-3.876 1.059-.561 3.764.16 5.206.32l6.88.765 12.498 1.388 2.116.235 7.122 26.847 8.457 31.874 3.709 13.979-20.865-1.193z"/><path fill="#380326" d="M534.99 82.418c-1.472.394-2.999.693-4.565.73-2.682.066-5.072-.701-6.731-2.159-1.656-1.457-2.619-3.662-2.575-5.898.039-1.981.852-3.846 1.461-5.077 1.346-2.724 2.907-4.441 4.769-5.249l.148.338c-1.78.771-3.279 2.431-4.586 5.075-.593 1.198-1.384 3.012-1.422 4.92-.042 2.13.873 4.228 2.45 5.614 1.588 1.395 3.889 2.13 6.478 2.067 2.392-.058 4.705-.74 6.873-1.435l.112.352c-.786.252-1.59.502-2.412.722"/><path fill="#380326" d="M532.994 82.6a9 9 0 0 1-2.562.313c-2.33-.064-4.494-1.129-5.792-2.849-.675-.893-1.175-2.04-1.488-3.41-.53-2.321-.4-4.725.365-6.77.832-2.226 2.443-4.085 4.42-5.102l.169.328c-1.896.976-3.443 2.762-4.243 4.902-.739 1.978-.864 4.308-.35 6.559.301 1.32.779 2.42 1.422 3.27 1.231 1.632 3.29 2.641 5.508 2.702 2.018.056 4.127-.66 5.937-2.011l.221.295a10.7 10.7 0 0 1-3.607 1.773"/><path fill="#380326" d="M534.771 78.375a8.3 8.3 0 0 1-3.07.232c-.924-.104-2.229-.424-3.209-1.356-1.039-.987-1.591-2.527-1.642-4.578-.083-3.349 1.061-6.779 3.137-9.409l.29.23c-2.024 2.562-3.138 5.905-3.058 9.17.049 1.948.563 3.402 1.526 4.32.907.861 2.131 1.158 2.997 1.256a7.93 7.93 0 0 0 5.129-1.185l.199.311a8.3 8.3 0 0 1-2.299 1.01"/><path fill="#7891E2" d="m531.385 61.457 7.833-9.46 4.913 3.04-9.677 9.039c-.538.502-1.278.75-2.003.625-.707-.122-1.461-.489-1.609-1.481-.095-.633.136-1.271.543-1.763"/><path fill="#380326" d="m531.385 61.457 7.833-9.46 4.913 3.04-9.677 9.039c-.538.502-1.278.75-2.003.625-.707-.122-1.461-.489-1.609-1.481-.095-.633.136-1.271.543-1.763" opacity=".23"/><path fill="#380326" d="M539.218 51.996s.099 1.827 1.652 2.647 3.26.394 3.26.394zm.153 14.657-13.004-1.198.88-2.057 11.995.835.752 1.167z"/><path fill="#380326" d="m536.281 71.024 1.018-6.035a1.362 1.362 0 0 1 2.693.41l-.803 5.92z"/><path fill="#FCCB7E" d="m564.931 93.327 31.061 42.055-2.364 2.095-33.903-45.454z"/><path fill="#9A74EA" d="m595.703 101.951-.092-.029-7.295-2.646-46.797-16.875-2.803-1.02-.101-.035-2.223-.796-.025-.008-.288-.106 2.751-.287.075-.004.564-.06 1.577-.162 49.805-5.123a70 70 0 0 0-1.682-4.196l-48.914 5.166-.678.067-.021.005-3.174.393-1.442.18-.501.066-.145 1.627-.035.384-.117 1.246-.247-.094.033 2.26.012.387-.007.002.002.007.008.372.018 1.18 3.99 1.43.16.056 4.27 1.531 18.43 6.61 5.757 2.063 20.577 7.378 8.141 2.916.059.023-1.785 19.919-.097 1.035-.289 3.226-.121 1.316-.003.047-.14 1.589-.082.893-.096 1.095.001.031-.061.628a1.8 1.8 0 0 0 .006.395l.004.014c.005.076.015.142.034.213l.027.1c.076.254.199.488.377.694.069.088.162.178.251.254q.116.093.252.169l.088.044q.23.133.466.197c.354.096.715.076 1.046-.029.383-.11.732-.348.971-.681.205-.261.338-.595.376-.964-.001-.007.005-.008.003-.016l.094-1.049.093-1.08.14-1.528.124-1.393.215-2.419.097-1.118.099-1.058 1.705-19.164.075.025.22.079.541.191-3.575-13.34z"/><path fill="#380326" d="m538.825 80.153 2.223-.226-.795-4.152-.681.066zm-.875 5.128 4.432 1.592-.86-4.473-2.903-1.051zm49.197 17.642 8.138 2.914.325-3.913-7.293-2.644zm-58.806 35.468-2.035-.168c.287-3.472 2.819-33.973 3.21-35.881.398-1.948 5.015-15.17 5.211-15.733l1.928.674c-1.324 3.791-4.831 13.962-5.139 15.468-.277 1.353-2.051 22.056-3.175 35.64"/><path fill="#9A74EA" d="m540.197 71.616-2.675 17.63-5.46-.651 2.94-16.644z"/><path fill="#F7DFDF" d="m540.67 72.506-5.662.288a1.606 1.606 0 0 1-1.682-1.728l.025-.329c.065-.84.77-1.488 1.613-1.481l5.636.04a1.605 1.605 0 0 1 .07 3.21m-47.609 71.829-3.547 1.038c-1.456.426-2.865-.809-2.616-2.305.902-5.422 3.726-17.215 15.102-26.559 13.941-11.45 31.232-10.049 36.274-8.527a2.06 2.06 0 0 1 1.464 2.158l-.35 3.964s-21.24-3.22-32.111 6.241-13.418 24.133-13.418 24.133z"/><path fill="#380326" d="M557.811 126.713c-4.622-6.671-11.142-11.267-18.332-13.574 0 0-.007.002-.008-.005a35.5 35.5 0 0 0-10.869-1.719 36 36 0 0 0-6.478.582l-.006.002c-1.288.216-2.55.523-3.806.913l-.015.004a35.2 35.2 0 0 0-10.022 4.833c-9.157 6.351-14.411 16.264-15.191 26.584l.002.006c-.599 7.864 1.395 15.988 6.234 22.952 5.418 7.818 13.553 13.051 22.916 14.738.522.096 1.034.181 1.54.244 1.524.211 3.042.316 4.559.33 7.242 0 11.179-1.109 18.238-4.887a34 34 0 0 0 2.283-1.46c7.822-5.435 13.055-13.57 14.75-22.926 1.688-9.357-.381-18.821-5.795-26.617m2.491 14.914c.62 3.625.605 7.365-.069 11.092a32.5 32.5 0 0 1-1.709 6.059c-.007.002-.005.008-.005.008-.141.359-.278.702-.437 1.05a31.9 31.9 0 0 1-10.504 13.132l-.007.001c-.216.165-.435.316-.66.476-.085.053-.173.123-.263.185l-.007.002c-4.104 2.796-8.695 4.569-13.49 5.242l-.007.002c-.364.067-.745.1-1.125.134l-.007.001a31.7 31.7 0 0 1-9.163-.342c-1.828-.32-3.6-.8-5.292-1.44l-.007.002a9 9 0 0 1-1.07-.401 31.54 31.54 0 0 1-11.994-8.486l-.002-.007c-.255-.267-.495-.563-.743-.863a29 29 0 0 1-1.612-2.136c-2.376-3.421-4.053-7.197-4.95-11.145l-.002-.007a30 30 0 0 1-.237-1.113 31.7 31.7 0 0 1-.568-5.854c-.01-1.977.161-3.963.525-5.941a32.6 32.6 0 0 1 1.671-5.942l-.002-.007c.127-.355.273-.692.428-1.054 2.307-5.395 6.057-10.052 10.959-13.521.081-.067.169-.138.267-.201.218-.158.439-.301.667-.446a32 32 0 0 1 8.223-3.878l.007-.001a30 30 0 0 1 3.148-.798l.007-.002c.214-.058.434-.094.648-.12l.007-.002c.639-.125 1.29-.208 1.934-.282.384-.049.751-.079 1.136-.098a30 30 0 0 1 2.301-.112c.686-.007 1.372.015 2.055.053.846.048 1.685.129 2.533.246.46.06.939.138 1.392.231 2.189.384 4.309.993 6.312 1.793.361.148.705.292 1.046.454a29.3 29.3 0 0 1 4.347 2.335 32 32 0 0 1 7.328 6.496c.239.296.469.585.711.888.329.431.667.891.981 1.35a32 32 0 0 1 5.091 11.841q.127.559.208 1.121z"/><path fill="#380326" d="M536.951 140.294c3.298 4.752 2.118 11.277-2.633 14.574-4.752 3.298-11.277 2.119-14.575-2.633s-2.118-11.277 2.634-14.574 11.276-2.119 14.574 2.633"/><path fill="#380326" d="m510.452 119.507-.936.649 38.086 54.889.936-.65z"/><path fill="#380326" d="m524.752 114.126 7.43 66.395 1.132-.126-7.429-66.396z"/><path fill="#380326" d="m541.04 116.085-25.042 61.94 1.057.428 25.042-61.941z"/><path fill="#380326" d="m554.419 125.522-51.474 42.593.726.878 51.474-42.594z"/><path fill="#380326" d="m496.163 153.214.222 1.118 65.53-13.007-.222-1.118z"/><path fill="#380326" d="m498.379 134.006-.434 1.053 61.784 25.436.433-1.053zm99.061-7.62a9.54 9.54 0 0 0-5.846-.29 9.3 9.3 0 0 0-1.911.741 9.5 9.5 0 0 0-2.557 1.923 9.56 9.56 0 0 0 .025 13.184l.002.006c.241.242.486.474.744.695a9.57 9.57 0 0 0 8.648 1.932c5.099-1.366 8.131-6.619 6.765-11.716a9.56 9.56 0 0 0-5.87-6.475m4.327 12.665q-.232.462-.496.889a8.5 8.5 0 0 1-4.504 3.499 5.6 5.6 0 0 1-.984.264 8.52 8.52 0 0 1-5.65-.779 11 11 0 0 1-.874-.522 9 9 0 0 1-.664-.51 7 7 0 0 1-.744-.695 8.35 8.35 0 0 1-1.939-3.332c-.044-.103-.072-.21-.101-.317a7 7 0 0 1-.149-.671 8.56 8.56 0 0 1 .817-5.477c.157-.302.33-.593.521-.881.227-.321.471-.638.745-.925a8.5 8.5 0 0 1 2.548-1.929 7.4 7.4 0 0 1 1.076-.433 6 6 0 0 1 .984-.264 6 6 0 0 1 1.113-.153 8.4 8.4 0 0 1 3.874.628q.22.088.44.188.462.229.892.502a8.56 8.56 0 0 1 3.652 4.99c.029.107.057.214.072.325.455 1.95.178 3.911-.629 5.603"/><path fill="#380326" d="m586.579 130.281-.511.885 15.389 8.885.511-.885z"/><path fill="#380326" d="m602.472 132.375-17.165 4.6.264.985 17.165-4.599z"/><path fill="#380326" d="m593.73 134.918-14.168 15.125.746.698 14.167-15.125z"/><path fill="#380326" d="m573.639 146.682-.412.933 11.786 5.209.412-.934z"/><path fill="#7891E2" d="m525.766 63.55 7.833-9.462 4.913 3.042-9.677 9.037c-.538.503-1.278.751-2.004.626-.707-.122-1.461-.49-1.608-1.482-.095-.631.135-1.27.543-1.762"/><path fill="#380326" d="M533.599 54.088s.099 1.828 1.652 2.647c1.553.82 3.26.395 3.26.395z"/><path fill="#F7DFDF" d="m534.68 78.293.58-4.193a.694.694 0 0 1 .664-.598l.038-.001a.694.694 0 0 1 .709.793l-.619 4.195a.692.692 0 0 1-1.372-.196m10.435-1.86.009-.13a.64.64 0 0 1 .57-.591l6.56-.695a.64.64 0 0 1 .148 1.27l-6.569.826a.64.64 0 0 1-.718-.68m8.352-.826a.54.54 0 0 0 .587.467l.881-.088a.54.54 0 0 0 .483-.585l-.003-.024a.537.537 0 0 0-.603-.484l-.879.112a.54.54 0 0 0-.466.603"/><path fill="#96582A" d="m271.105 163.649-13.732 3.229c-5.102 1.2-8.279 6.327-7.079 11.429l1.065 4.533.234.991 1.3 5.52 32.24-7.578-1.297-5.522-.234-.991-1.066-4.533c-1.199-5.102-6.329-8.277-11.431-7.078m9.742 13.304.597 2.536-26.268 6.178-.595-2.537-.233-.992-1.066-4.532c-.817-3.458 1.337-6.931 4.794-7.743l13.731-3.23c3.457-.812 6.929 1.339 7.745 4.797l1.066 4.532z"/><path fill="#36383C" d="m271.105 163.649-13.732 3.229c-5.102 1.2-8.279 6.327-7.079 11.429l1.065 4.533.234.991 1.3 5.52 32.24-7.578-1.297-5.522-.234-.991-1.066-4.533c-1.199-5.102-6.329-8.277-11.431-7.078m9.742 13.304.597 2.536-26.268 6.178-.595-2.537-.233-.992-1.066-4.532c-.817-3.458 1.337-6.931 4.794-7.743l13.731-3.23c3.457-.812 6.929 1.339 7.745 4.797l1.066 4.532z"/><path fill="#96582A" d="m311.011 177.096 5.699 24.241.024.098-.002.001.251 1.056.029.121 5.093 21.669a7.043 7.043 0 0 1-5.242 8.469L247.2 249.129a7.04 7.04 0 0 1-8.31-4.692 6 6 0 0 1-.158-.554l-5.096-21.668.003-.002-.28-1.176.003-.002-.024-.097-5.699-24.241a7.04 7.04 0 0 1 5.243-8.467l18.711-4.398 2.988-.702 26.266-6.177 2.988-.702 18.711-4.398a7.04 7.04 0 0 1 8.465 5.243"/><path fill="#96582A" d="m317.647 201.221-85.092 20.005-6.768-28.789a3.49 3.49 0 0 1 2.597-4.194l78.3-18.408a3.49 3.49 0 0 1 4.194 2.597z"/><path fill="#36383C" d="m316.709 201.338.024.097-.003.002.252 1.055.028.121-.228.056-31.16 7.325-20.598 4.843-31.387 7.377-.002.001-.277-1.178.002-.001-.024-.097 31.389-7.379 20.599-4.843z"/><path fill="#E39334" d="m284.573 205.528.584 2.488.961 4.081-20.599 4.84-.933-3.969-.612-2.598z"/><path fill="#36383C" d="m285.158 208.016.961 4.081-20.599 4.841-.933-3.97z"/><path fill="#7F97C3" d="M373.202 82.355c-.407.502-.58 1.168-.405 1.793l5.138 18.357c.467 1.669 2.819 4.011 3.046 4.821.304 1.088-.424 3.663-.04 5.033.524 1.874 3.726 5.21 3.726 5.21.79 2.821 1.418 4.48 1.979 5.428l-.378-.088.839.731c.113.123.224.217.335.291l.01.009-.001-.003c.551.363 1.082.17 1.705-.054 1.504-.539 2.482-.858.458-8.089 0 0 .921-4.814.396-6.688-.384-1.371-2.289-3-2.593-4.088-.227-.811.504-4.258.037-5.927l-5.138-18.357c-.28-1-1.34-1.505-2.377-1.134l-2.888 1.036-2.887 1.036c-.389.14-.718.382-.962.683"/><path fill="#373F5E" d="M356.639 62.762c-1.32 1.468-2.015 3.405-1.702 5.215l3.395 19.623c.11.633.334 1.196.65 1.68l-.353-.107.893.769q.218.218.466.401l.001.001c1.236.907 2.996 1.147 4.823.483l7.161-2.568 13.109-4.702 7.16-2.567c3.088-1.108 4.718-4.168 3.656-6.862l-7.207-18.255a4.8 4.8 0 0 0-1.343-1.883h.001l-.038-.033-.924-.8.016.18c-1.477-.805-3.383-.981-5.202-.33l-1.326.477-18.944 6.793-1.327.476a7.34 7.34 0 0 0-2.965 2.009m5.008.148a2.55 2.55 0 0 1 1.092-.786l3.829-1.373 8.939-3.206 3.829-1.373c.975-.35 2.095.02 2.512.831l.536 1.043c.416.81-.033 1.745-1.008 2.094l-5.517 1.978-7.252 2.601-5.516 1.978c-.975.35-1.818-.12-1.89-1.054l-.092-1.202c-.041-.526.171-1.083.538-1.531"/><path fill="#505A79" d="M360.377 61.808a3 3 0 0 0-.123.161c-.31.441-.482.962-.443 1.467l.093 1.203c.039.505.294.903.675 1.115.198.11.426.17.672.177a1.5 1.5 0 0 1-.049-.273 1.2 1.2 0 0 1-.491-.14c-.303-.168-.505-.472-.538-.9l-.092-1.203c-.033-.428.123-.891.402-1.288a2.43 2.43 0 0 1 1.139-.892l3.829-1.373 8.94-3.206 3.828-1.372c.916-.329 1.968.027 2.347.765l.024.046q.188.042.361.114l-.145-.283c-.454-.883-1.644-1.268-2.678-.897l-3.828 1.373-8.94 3.206-3.829 1.373a2.7 2.7 0 0 0-1.154.827m26.009-8.651.015.18-.056-.029c.453.45.818.987 1.059 1.598l7.208 18.257c1.031 2.618-.549 5.6-3.576 6.685l-7.161 2.567-13.109 4.702-7.162 2.568c-1.512.55-2.967.465-4.102-.102a4 4 0 0 1-.53-.318l.009.015-.353-.107.76.654c1.207.6 2.738.682 4.308.111l7.161-2.568 13.109-4.7 7.16-2.57c3.148-1.128 4.828-4.267 3.736-7.038l-7.207-18.255a5 5 0 0 0-.569-1.045z"/><path fill="#7F97C3" fill-rule="evenodd" d="m382.126 83.185 1.161 1.016-1.236.897z" clip-rule="evenodd"/><path fill="#ACBFE0" d="M380.932 79.503c.036.08.07.162.094.25l5.139 18.357c.222.794.163 2.07.067 3.238-.048.585-.104 1.144-.133 1.611s-.04.834.029 1.078c.167.598.729 1.272 1.29 1.985s1.123 1.461 1.302 2.104c.249.888.159 2.562-.005 3.994s-.393 2.632-.393 2.632a.13.13 0 0 0 .003.061c1.01 3.61 1.262 5.491 1.09 6.494-.085.502-.265.779-.513.979-.247.199-.575.318-.951.453-.377.135-.706.251-1.005.249a1 1 0 0 1-.333-.054l.034.06-.378-.088.353.308q.162.042.323.044c.368.002.722-.131 1.098-.266.375-.134.733-.258 1.029-.496.296-.239.515-.594.609-1.143.187-1.095-.085-2.986-1.09-6.582.006-.027.229-1.194.392-2.621.165-1.443.273-3.112-.003-4.098-.203-.728-.786-1.482-1.35-2.197-.563-.716-1.105-1.401-1.243-1.891-.044-.161-.048-.529-.019-.989s.084-1.019.132-1.606c.096-1.174.169-2.457-.075-3.333l-5.139-18.356q-.016-.05-.033-.096a2 2 0 0 0-.321-.081"/><path fill="#9AB2D4" d="M373.002 80.654c-1.037.372-1.646 1.477-1.367 2.477l5.138 18.357c.467 1.669 2.819 4.01 3.046 4.821.304 1.088-.424 3.662-.041 5.032.525 1.874 3.727 5.21 3.727 5.21 2.024 7.23 2.986 6.854 4.49 6.315 1.503-.54 2.481-.859.457-8.09 0 0 .921-4.814.397-6.688-.384-1.37-2.289-3-2.593-4.088-.227-.81.504-4.258.037-5.927l-5.139-18.357c-.28-1-1.34-1.505-2.377-1.133l-2.888 1.036z"/><path fill="#ACBFE0" d="m374.516 93.418 1.985 7.091 9.948-.666c.013-.665-.021-1.291-.155-1.77l-1.496-5.344z"/><path fill="#7F97C3" d="m373.354 80.53 5.621 20.082-2.223.798.022.079q.047.162.114.332l2.434-.873.228-.082v-.001l.002-.001-.058-.207-5.68-20.292zm2.306-.827 12.105 43.246.23-.082.23-.083-12.105-43.246-.23.083zm2.307-.827 5.68 20.291.058.208h.002l.229-.081 2.434-.873a4 4 0 0 0-.076-.346l-.022-.08-2.224.798-5.621-20.082zm1.856 27.449q.05.192.064.437l.735-.264 2.786 9.95.098.105c.769 2.75 1.386 4.397 1.936 5.356l-4.418-15.785-.058-.208-.002.001v-.001l-.229.082zm5.296-1.898.058.208 4.418 15.784c-.038-1.143-.372-2.891-1.142-5.641l.028-.15-2.785-9.95.735-.263a2 2 0 0 1-.17-.4l-.912.328-.228.082v.001z"/><path fill="#879FC9" d="M371.888 81.554c-.294.468-.404 1.037-.253 1.576l2.078 7.424 10.282-.689-2.506-8.954zm7.222 23.623c.357.477.639.882.709 1.132.304 1.088-.424 3.663-.04 5.033.222.794.924 1.848 1.66 2.801l7.2-.481c.238-1.533.577-4.26.21-5.573-.31-1.109-1.617-2.387-2.265-3.412z"/><path fill="#7185B5" d="m373.609 81.44 2.506 8.954.497-.033-2.506-8.955zm2.491-.167 2.506 8.954.497-.033-2.506-8.954zm2.491-.167 2.507 8.954.497-.033-2.507-8.954zm1.232 25.219.001.002q.05.19.064.435l.735-.264 2.116 7.56.497-.034-2.212-7.9-.058-.207h-.002v-.001l-.228.082zm2.901-1.389 2.506 8.955.497-.034-2.507-8.954zm2.491-.166 2.506 8.954.497-.033-2.506-8.955z"/><path fill="#505A79" d="M358.444 59.738c-3.088 1.107-5.169 4.33-4.666 7.224l3.395 19.623c.502 2.895 3.396 4.348 6.479 3.227l7.161-2.568 13.109-4.7 7.161-2.569c3.088-1.107 4.718-4.167 3.656-6.861l-7.208-18.256c-1.062-2.694-4.403-3.972-7.49-2.865l-1.327.476-18.944 6.793zm3.134 1.371 3.829-1.373 8.939-3.206 3.829-1.373c.975-.35 2.096.021 2.512.832l.536 1.043c.416.81-.033 1.744-1.008 2.094l-5.516 1.978-7.252 2.6-5.516 1.979c-.976.35-1.818-.121-1.89-1.055l-.092-1.202c-.073-.934.654-1.967 1.629-2.317"/><path fill="#414C6D" fill-rule="evenodd" d="M389.72 60.407c-3.103 10.603-24.288 20.957-34.034 17.6l1.485 8.58c.502 2.894 3.396 4.346 6.48 3.226l7.161-2.568 13.108-4.7 7.161-2.569c3.088-1.107 4.718-4.167 3.656-6.862z" clip-rule="evenodd"/><path fill="#373F5E" d="M394.702 73.026c.369 2.411-1.218 4.885-3.927 5.857l-7.16 2.568-13.11 4.7-7.161 2.569c-2.705.983-5.263-.015-6.19-2.228l.016.093c.503 2.895 3.396 4.348 6.48 3.227l7.161-2.568 13.109-4.701 7.16-2.568c3.088-1.108 4.718-4.168 3.657-6.862z"/><path fill="#778EA9" d="M356.3 61.951a7 7 0 0 0-.693.905c-.819 1.268-1.199 2.765-.948 4.216l1.47 8.496c.111.555 1.136.676 1.046-.28l-1.453-8.4h.001c-.197-1.139.128-2.378.818-3.446.691-1.069 1.747-1.965 3.008-2.418l1.186-.426 6.442-2.31c.833-.323.95-1.38-.348-1.021l-6.458 2.316-1.186.426a7.2 7.2 0 0 0-2.885 1.942"/><path fill="#97AAD6" d="m376.916 93.258 1.985 7.091.497-.033-1.985-7.092zm2.491-.167 1.985 7.092.497-.033-1.985-7.092zm2.492-.167 1.747 6.243.059.207h.002v.001l.228-.082 2.434-.873-.003-.018-.016-.085-.002-.012-.01-.05-.015-.06q-.013-.062-.029-.12l-.014-.05-.008-.03-2.223.797-1.652-5.901z"/><path fill="#9BAADA" d="M444.216 100.931c-1.063-.658-2.533-.313-3.192.751l-.366.591c-.026.043.012-.019-.006.012-.019.029.018-.031-.008.011l-.053.085q-.66-.218-1.317-.453c-1.762-1.736-2.953-4.97-8.335-8.303a23 23 0 0 0-.599-.356 18 18 0 0 0-1.117-.592c-.953-.46-1.903-.806-2.874-.975a17.5 17.5 0 0 0-2.459-.25 21 21 0 0 0-1.205-.004q-.997.027-1.956.133a29 29 0 0 0-2.233.33 47 47 0 0 0-3.329.758c-2.418-.926-4.337-1.657-5.818-2.052a13 13 0 0 0-1.044-.23l-.225-.034c-.049-.007-.132-.02-.259-.03a2 2 0 0 0-.188-.009 3.6 3.6 0 0 0-.587.055h-.007l-.002.001-.079.016h-.004a4 4 0 0 0-.242.057h-.004q-.096.029-.186.061l-.024.007-.11.037h-.001c-.002.001.002 0-.001.001.015-.006.038-.014-.003.001l-.002.001-.004.001-.005.002h-.002l-.012.005a2 2 0 0 0-.246.107l-.03.014-.002.001-.012.006-.049.025a3.907 3.907 0 1 0-2.693 4.092c-.189 1.33.175 2.744 1.234 3.888.369.426.638.606 1.059.924.438.332.985.721 1.633 1.168.262.18.564.293.881.329.305.463.709.87 1.216 1.184.436.27.902.426 1.374.512.155.288.38.532.654.709 5.824 3.767 14.224 8.921 19.965 12.232.228.132.48.216.742.246.297.422.672.798 1.142 1.089.6.371 1.251.54 1.903.57.17.238.392.435.649.575l.222.121c.838.468 1.568.859 2.171 1.154.581.284.794.506 1.664.619 1.273.225 2.313-.26 3.111-.836a5.94 5.94 0 0 0 1.821-2.114c.11-.159.221-.319.32-.491q.032-.054.061-.109l-.021.035.02-.035h.001l.074-.152.042-.086c.333-.727.567-1.613.286-2.625a2 2 0 0 0-.07-.205q-.074-.187-.162-.387c-.031-.072-.07-.151-.106-.227l.018-.028q.158-.263.307-.529c.597-1.061 1.079-2.119 1.381-3.133q.056-.194.102-.384l.001-.004q.017-.059.031-.119.023-.097.04-.187l.002-.008.013-.059q.017-.088.031-.177l.014-.078c.024-.152.026-.311.037-.467q.026-.16.026-.319c.037-.05.08-.093.113-.146l.366-.592c.032-.051-.015.025.007-.012.023-.036-.024.04.008-.011v-.001l.366-.59v-.001a2.34 2.34 0 0 0-.081-2.562 2.3 2.3 0 0 0-.67-.629zm-40.898-11.763h.002a2.257 2.257 0 1 1-.002 0"/><path fill="#fff" d="M448.364 105.331q-.033.061-.068.119h-.001l-.363.588-.003.003-.007.01-.001.004-.007.011-.001.003-.365.588c-.022.037-.062.077-.107.138a.13.13 0 0 0-.025.077q0 .14-.022.277l.3-.483c.031-.052-.015.024.006-.012.023-.036-.024.04.008-.011v-.001l.314-.507-.068.049-.031-.078.101.027.05-.082a2.3 2.3 0 0 0 .289-.718zm-6.826-4.221a2.2 2.2 0 0 0-.514.572l-.034.055.002.002-.005.005.01-.001.015.01-.025-.007-.003.004-.002-.001-.133.215.029.01a.13.13 0 0 0 .15-.055l.052-.083.001-.002.001-.001.006-.009.002-.004.006-.009.001-.003.365-.589q.036-.056.075-.109zm6.513 4.896h-.003v-.001zm-6.974-4.208.018.012-.002.005-.001.002-.051-.032zm5.732 7.749c-.28.72-.638 1.456-1.053 2.196q-.15.264-.306.526l-.017.028a.13.13 0 0 0-.006.121l.028.062.083-.142c.529-.942.968-1.881 1.271-2.791m-43.094-21.02a2.39 2.39 0 0 0-3.283.774 2.4 2.4 0 0 0-.298.738q.037-.07.079-.139c.139-.224.316-.422.523-.585a2.124 2.124 0 0 1 2.843-.568l.002.001a2.124 2.124 0 0 1 .76 2.798 2.2 2.2 0 0 1-.379.862 2.388 2.388 0 0 0-.245-3.88zm41.804 27.13-.041.096-.001.001-.04.081-.001.003q-.037.078-.072.147v.001h-.001l-.01.02-.007.012-.001.003-.001.002-.036.065-.002.003a7 7 0 0 1-.314.482l-.009.015a5.8 5.8 0 0 1-1.781 2.068c-.782.564-1.783 1.031-3.012.813l-.007-.001c-.851-.111-1.03-.316-1.624-.607-.6-.293-1.328-.683-2.165-1.151l-.002-.002q-.113-.06-.221-.12a1.8 1.8 0 0 1-.606-.537.13.13 0 0 0-.099-.054 3.8 3.8 0 0 1-1.841-.55 3.8 3.8 0 0 1-1.104-1.054.13.13 0 0 0-.091-.053 1.8 1.8 0 0 1-.693-.23c-5.737-3.31-14.137-8.464-19.959-12.229a1.8 1.8 0 0 1-.61-.662.13.13 0 0 0-.091-.065 3.8 3.8 0 0 1-1.329-.495 3.8 3.8 0 0 1-1.177-1.145.13.13 0 0 0-.093-.057 1.8 1.8 0 0 1-.821-.308 46 46 0 0 1-1.629-1.164c-.424-.32-.679-.49-1.04-.906l-.002-.004c-1.033-1.116-1.385-2.487-1.201-3.781a.13.13 0 0 0-.168-.141 3.777 3.777 0 0 1-4.082-5.985 3.9 3.9 0 0 0-.961 1.303 4.04 4.04 0 0 0 1.762 4.517 4.03 4.03 0 0 0 3.186.447 4.8 4.8 0 0 0 1.272 3.814c.377.436.659.626 1.077.942q.663.5 1.639 1.171c.263.181.565.293.88.338a4.1 4.1 0 0 0 1.221 1.179c.435.269.899.424 1.365.514.163.283.387.528.661.706 5.827 3.768 14.227 8.922 19.97 12.235.227.131.478.213.737.251.301.416.675.791 1.144 1.082a4 4 0 0 0 1.906.579c.176.233.396.429.652.569.07.039.147.08.222.12.839.469 1.57.861 2.177 1.158.568.278.815.515 1.701.63 1.314.232 2.394-.272 3.206-.858q.341-.248.641-.535.45-.524.774-1.152c.11-.159.221-.319.32-.492l.061-.108-.021.035.021-.035v-.001l.074-.151q.022-.042.042-.086.149-.323.255-.683"/><path fill="#DBE8F7" d="M444.546 100.399c-1.063-.658-2.534-.312-3.192.751l-.366.591c-.027.043.011-.019-.007.012-.019.029.018-.031-.008.011v.001l-.053.085a66 66 0 0 1-1.317-.454c-1.762-1.735-2.952-4.969-8.335-8.302a21 21 0 0 0-.598-.357 18 18 0 0 0-1.118-.591c-.953-.46-1.903-.806-2.873-.976a17.5 17.5 0 0 0-2.459-.249 21 21 0 0 0-1.206-.004c-.663.016-1.317.064-1.956.132a29 29 0 0 0-2.232.33 47 47 0 0 0-3.33.759c-2.418-.926-4.336-1.658-5.817-2.053a14 14 0 0 0-.494-.121 10 10 0 0 0-.775-.142c-.049-.007-.132-.02-.259-.031a2 2 0 0 0-.189-.008 3.6 3.6 0 0 0-.586.054h-.005l-.002.001h-.003l-.078.016h-.004a4 4 0 0 0-.243.057h-.004q-.096.028-.187.061l-.023.007-.107.036-.004.001c-.002.001.002 0-.001.001.014-.006.038-.014-.003.001l-.001.001q-.003 0-.004.002c-.021.008-.017.006-.005.001h-.001l-.013.006a2 2 0 0 0-.276.121h-.002l-.012.006-.049.026a3.908 3.908 0 0 0-7.211-1.684c-1.147 1.827-.618 4.225 1.209 5.373.014.01.028.018.056.006a3.9 3.9 0 0 0 3.253.397c-.189 1.33.175 2.744 1.234 3.888.368.426.637.606 1.058.924q.66.498 1.634 1.168c.262.18.564.293.88.329.305.463.71.87 1.216 1.184.437.27.902.426 1.374.512.155.288.38.532.654.709 5.824 3.766 14.225 8.921 19.965 12.232.228.132.481.216.742.246.297.422.672.798 1.143 1.089.599.371 1.25.539 1.902.569.17.238.392.435.65.575l.222.121a47 47 0 0 0 2.17 1.154c.582.285.795.506 1.665.619 1.272.225 2.313-.26 3.11-.836a5.9 5.9 0 0 0 1.821-2.113c.111-.16.222-.319.32-.492q.033-.054.061-.109l-.02.036.02-.036.075-.151.042-.087c.333-.727.567-1.613.286-2.625a2 2 0 0 0-.07-.205q-.074-.187-.162-.387c-.031-.072-.07-.151-.106-.227l.018-.028q.157-.263.307-.529c.597-1.061 1.079-2.119 1.381-3.133q.056-.194.102-.384l.001-.004q.017-.059.031-.119.023-.097.04-.187l.002-.009.013-.058q.017-.088.031-.177l.014-.078c.024-.153.026-.311.037-.468a2 2 0 0 0 .026-.319c.036-.05.08-.093.113-.146l.366-.591c.032-.052-.015.024.007-.013.023-.036-.024.041.008-.011l.366-.591v-.001a2.34 2.34 0 0 0-.081-2.562 2.3 2.3 0 0 0-.67-.629zm-40.899-11.763.002.001a2.256 2.256 0 1 1-.002-.001"/><path fill="#BDCEE7" fill-rule="evenodd" d="M447.615 102.302c-8.45 5.965-19.506 8.397-38.633-1.083q.31.307.698.55c.436.269.902.426 1.374.511.155.288.38.532.654.71 5.824 3.766 14.224 8.92 19.964 12.232.228.131.481.215.743.246.296.421.672.797 1.142 1.088a3.9 3.9 0 0 0 1.902.57c.17.238.393.435.65.575l.222.121c.838.468 1.567.859 2.171 1.154.581.284.794.506 1.664.619 1.272.225 2.313-.26 3.111-.836a5.9 5.9 0 0 0 1.82-2.114 7 7 0 0 0 .382-.6l-.021.036.021-.036a7 7 0 0 0 .116-.238h.001c.332-.727.567-1.613.285-2.625a2 2 0 0 0-.07-.206q-.074-.186-.162-.387c-.031-.072-.07-.15-.105-.226l.017-.028q.158-.263.308-.53c.596-1.061 1.079-2.118 1.38-3.133q.056-.192.102-.384l.001-.003q.018-.059.032-.119v-.001l.04-.186.002-.009.012-.058q.017-.089.031-.177l.014-.078c.024-.153.026-.311.037-.468a2 2 0 0 0 .026-.319c.037-.05.08-.093.113-.146l.366-.591c.032-.052-.015.024.007-.012.023-.036-.024.04.008-.012l.366-.591a2.34 2.34 0 0 0-.081-2.563 2.3 2.3 0 0 0-.67-.628z" clip-rule="evenodd"/><path fill="#373F5E" d="M443.143 102.662a.38.38 0 0 0-.523.123l-.365.592a.38.38 0 0 0 .122.522l.794.492-.821.772c-1.25-.497-2.69-.908-4.186-1.466-2.436-2.145-3.076-5.105-8.298-8.34-1.39-.86-2.733-1.457-3.902-1.661-3.882-.678-7.89.271-10.964 1.087-3.647-1.396-6.08-2.324-7.406-2.445a1.7 1.7 0 0 0-1.175.492c-.96.907-1.205 2.859-.087 4.042.233.276 1.083.913 2.351 1.786l.38-.615-.173-.235q.11-.282.27-.54c.593-.957 1.62-1.538 2.675-1.513-.705.098-1.349.529-1.744 1.166-.697 1.126-.424 2.558.609 3.198l.001.001c1.034.639 2.437.246 3.134-.88.395-.637.493-1.406.267-2.08.492.933.429 2.112-.163 3.069a3.3 3.3 0 0 1-.486.609l-.311-.091-.381.614c5.787 3.743 14.186 8.896 19.88 12.181l.381-.615-.185-.237q.114-.304.285-.581c.509-.82 1.343-1.373 2.25-1.49a2.5 2.5 0 0 0-1.402 1.091c-.698 1.126-.425 2.558.609 3.198 1.033.64 2.437.247 3.134-.879.448-.723.511-1.61.166-2.33.678.958.687 2.296.022 3.37a3 3 0 0 1-.253.354l-.229-.038-.381.615.21.114c1.665.931 2.871 1.534 3.245 1.574 1.508.28 3.524-1.992 3.14-3.37a7.7 7.7 0 0 0-.722-1.414c1.695-2.491 2.853-5.442 2.062-6.199a6 6 0 0 0-1.038-.777l.682-.64.871.539a.38.38 0 0 0 .523-.123l.366-.591a.38.38 0 0 0-.123-.522z"/><path fill="#505A79" d="M406.799 92.216c-.96.907-1.205 2.858-.087 4.041.233.277 1.083.913 2.351 1.787a3.3 3.3 0 0 1 .477-1.39c.593-.957 1.62-1.538 2.674-1.513-.704.097-1.349.528-1.743 1.165-.697 1.127-.425 2.559.609 3.199s2.438.246 3.135-.88c.394-.637.493-1.406.267-2.08.492.933.429 2.112-.164 3.069-.294.474-.7.866-1.177 1.133 5.787 3.742 14.186 8.895 19.88 12.18.045-.503.21-.995.481-1.432.508-.821 1.342-1.373 2.25-1.491a2.5 2.5 0 0 0-1.402 1.091c-.698 1.126-.425 2.558.609 3.198 1.033.64 2.437.247 3.134-.879.448-.723.511-1.61.166-2.33.679.958.687 2.296.022 3.37-.226.365-.52.682-.863.931l.21.113c1.664.932 2.871 1.534 3.244 1.575 1.509.28 3.524-1.993 3.141-3.37a7.7 7.7 0 0 0-.723-1.414c1.695-2.491 2.854-5.442 2.062-6.199a5.8 5.8 0 0 0-1.037-.777l.682-.641.872.54a.38.38 0 0 0 .523-.123l.366-.591a.38.38 0 0 0-.123-.523l-3.11-1.926a.38.38 0 0 0-.523.123l-.366.591a.38.38 0 0 0 .123.523l.794.491-.822.773c-1.249-.498-2.69-.909-4.185-1.467-2.436-2.145-3.076-5.105-8.299-8.34-1.389-.86-2.732-1.457-3.901-1.661-3.882-.678-7.89.271-10.964 1.087-3.647-1.396-6.08-2.325-7.406-2.445-.457.003-.857.19-1.177.492"/><path fill="#7686AD" fill-rule="evenodd" d="M429.8 95.59c-1.009-.602-2.086-1.073-3.208-1.318-5.137-1.123-8.737.874-8.737.874l.028.01c-.927.44-1.335.966-1.823 1.731-.346.542-.722 1.269-1.097 2.064l-.276-.17q-.045.153-.104.305l.246.152q-.132.284-.262.574l-.27-.167a3 3 0 0 1-.181.258l.322.199c-.171.385-.339.775-.501 1.155l.112.071c.162-.381.33-.771.501-1.157l9.713 6.016q-.378.494-.812 1.026l.111.067q.433-.53.811-1.025l8.958 5.547q.069-.141.15-.277l-8.916-5.521c.131-.173.253-.34.374-.505l8.916 5.522q.108-.12.227-.23l-8.961-5.549c1.013-1.415 1.672-2.554 2.069-3.355.219-.44.378-1.119.462-1.768.055-.425.077-.832.059-1.155zm1.299.871-2.002 3.231 7.79 3.093c-.909-1.402-3.019-4.264-5.788-6.324m-3.515 2.63c.007.291-.012.646-.06 1.012-.083.639-.243 1.312-.449 1.727-.395.796-1.052 1.931-2.063 3.344l-9.937-6.154c.376-.798.751-1.526 1.094-2.063.506-.79.894-1.294 1.879-1.733zm16.446 10.222c-.597-.37-1.505-.296-2.036.166s-.478 1.132.119 1.502l-3.377-2.091a.093.093 0 0 0-.129.031l-.043.069a.093.093 0 0 0 .031.129l4.816 2.983.149-.225a19 19 0 0 0 1.185-2.123zm-19.04-9.758a.33.33 0 1 0-.348.563l1.223.757a.33.33 0 1 0 .349-.562zm-17.285-7.806c-.559.096-1.017.475-1.321.994l2.097 1.299c.379.234.943.18 1.265-.123s.276-.735-.103-.97zm5.204 4.802c-.463-.288-1.093-.111-1.406.394s-.19 1.148.273 1.435c.464.287 1.093.11 1.406-.395s.191-1.147-.273-1.434m23.878 14.787c-.464-.287-1.093-.11-1.406.395s-.19 1.147.273 1.435c.464.287 1.093.11 1.406-.395s.191-1.147-.273-1.435m-30.7-17.884a3 3 0 0 0-.072.325l3.879 2.402q.108-.12.228-.229zm32.562 20.166q-.045.154-.104.306l4.11 2.545q.128-.101.25-.214zm-23.708-14.313 9.888 6.124c-.121.165-.243.332-.374.505l-9.776-6.055q.13-.29.262-.574m-8.964-4.815q.01.2.048.4l3.345 2.071a3 3 0 0 1 .149-.277zm32.282 19.993a3 3 0 0 1-.181.258l3.637 2.252a3 3 0 0 0 .357-.148z" clip-rule="evenodd"/><path fill="#414C6D" fill-rule="evenodd" d="M445.884 103.51c-7.704 4.108-15.916 5.188-24.844 2.218 4.204 2.6 8.575 5.234 11.982 7.199.044-.503.21-.996.481-1.433.508-.821 1.342-1.373 2.25-1.491a2.52 2.52 0 0 0-1.402 1.091c-.698 1.126-.425 2.558.608 3.199 1.034.64 2.437.246 3.135-.879.448-.723.511-1.61.166-2.33.678.958.686 2.296.021 3.37a3.3 3.3 0 0 1-.862.931l.21.113c1.664.932 2.87 1.534 3.244 1.575 1.509.28 3.524-1.993 3.14-3.371a7.7 7.7 0 0 0-.722-1.413c1.695-2.491 2.853-5.442 2.062-6.2a5.8 5.8 0 0 0-1.038-.776l.682-.641.872.54a.38.38 0 0 0 .523-.123l.365-.592a.38.38 0 0 0-.123-.522z" clip-rule="evenodd"/><path fill="#9FB4D9" d="M428.749 95.029q-.465-.223-.946-.4l-3.383 3.18.958.388zm-1.337-.535a9 9 0 0 0-.821-.221 14.6 14.6 0 0 0-3.22-.342l-2.566 2.412 3.242 1.314zm5.704 3.7-2.314 2.175 3.262 1.295 1.188-1.118a27 27 0 0 0-2.136-2.352"/><path fill="#4E5A7E" fill-rule="evenodd" d="M444.03 109.313c-.597-.37-1.505-.296-2.036.166-.531.463-.478 1.132.119 1.502l-3.377-2.091a.093.093 0 0 0-.129.031l-.043.069a.093.093 0 0 0 .031.129l4.817 2.983.039-.06.111-.168c.452-.702.855-1.426 1.183-2.12zm-7.243 2.025c-.463-.287-1.093-.11-1.406.395s-.19 1.147.273 1.435c.464.287 1.093.11 1.406-.395s.191-1.147-.273-1.435m-8.347-4.04a44 44 0 0 1-.715-.073l6.131 3.796.001-.001q.09-.1.188-.192l.038-.035zm10.209 6.322-.031.103-.016.046-.001.005-.016.046-.002.004-.017.046-.002.004-.017.046-.002.005 4.11 2.546.002-.001.123-.102.002-.002.02-.017q.053-.046.104-.093zm-12.459-6.61a32 32 0 0 1-.84-.15l7.981 4.943q.037-.076.077-.15l.053-.093.02-.034zm12.069 7.475-.008.014-.021.031-.009.014-.021.031-.009.013-.022.032-.009.013-.022.031-.01.013-.022.03-.01.013-.017.023 3.636 2.252q.18-.058.356-.147l.002-.001zm-14.15-7.89-.138-.033q-.248.317-.518.649l.111.068q.285-.35.545-.684" clip-rule="evenodd"/><path fill="#768BB2" d="M430.245 94.743c-1.389-.86-2.732-1.458-3.901-1.661-3.882-.678-7.89.27-10.964 1.087-3.647-1.397-6.08-2.325-7.406-2.445a1.7 1.7 0 0 0-1.175.492c-.27.255-.481.595-.624.975q.103-.137.223-.255c.318-.31.718-.506 1.177-.517 1.341.1 3.814.994 7.52 2.34 3.089-.878 7.119-1.906 11.049-1.29 1.183.186 2.55.765 3.968 1.61 5.329 3.174 6.027 6.151 8.523 8.274 1.52.536 2.981.926 4.251 1.406l.816-.794-.215-.128-.757.712c-1.25-.497-2.69-.908-4.186-1.466-2.436-2.145-3.076-5.105-8.299-8.34"/><path fill="#9FB4D9" d="M407.707 91.749h-.002a1.7 1.7 0 0 0-.576.217l-.012.007a2 2 0 0 0-.327.253q-.067.065-.13.138l-.031.035a2 2 0 0 0-.108.139q-.028.039-.054.079l-.039.062-.04.066.133.082a1.7 1.7 0 0 1 1.056-.408c.469.034 1.08.169 1.831.383z"/><path fill="#fff" d="M431.124 93.01q-.21-.13-.42-.251l-.035-.02a18 18 0 0 0-1.118-.592c-.953-.46-1.903-.806-2.874-.975a17.5 17.5 0 0 0-2.459-.249 21 21 0 0 0-1.205-.005q-.997.028-1.956.133a29 29 0 0 0-2.232.33 47 47 0 0 0-3.33.758c-2.418-.925-4.337-1.657-5.818-2.052a13 13 0 0 0-.493-.122 10 10 0 0 0-.776-.142c-.049-.006-.131-.02-.258-.031a2 2 0 0 0-.19-.008 3.5 3.5 0 0 0-.586.054l-.004.001h-.003l-.002.001-.083.017a4 4 0 0 0-.243.056h-.004q-.096.03-.186.062l-.024.006-.107.036-.003.002h-.002c.015-.005.038-.015-.003.001l-.001.001-.004.001-.005.002h-.001l-.012.005c.025-.011.007-.008-.119.047a2 2 0 0 0-.158.074l-.002.001-.012.006-.049.025a3.907 3.907 0 0 0-7.111-1.836l-.058.11c1.568-1.436 3.349-1.636 4.89-.733 1.078.631 1.694 1.9 1.844 3.14l.049-.028.012-.006.002-.001.031-.016a2 2 0 0 1 .249-.116l.012-.005h.002l.005-.002.003-.002h.002c.041-.017.018-.008.003-.001.003-.002 0 0 .001 0h.001l.003-.002q.054-.022.109-.04l.024-.007c.063-.023.123-.047.19-.067h.003l.001-.001q.123-.036.246-.064h.004l.08-.019h.005l.005-.001c.166-.033.367-.064.598-.07q.096-.004.193.003c.131.008.215.02.266.025q.114.012.23.028.277.04.566.097.235.047.508.112c1.525.366 3.507 1.066 6.004 1.951a48 48 0 0 1 3.387-.86q.366-.076.741-.147.75-.142 1.534-.247a24 24 0 0 1 2.405-.203 21 21 0 0 1 1.241-.002q1.044.029 2.106.185c.996.148 1.977.478 2.964.924q.128.059.047.023.553.252 1.111.554l.036.02q.116.062.231.13z"/><path fill="#DEEAFF" d="m173.583 332.722-41.647 17.02a2.88 2.88 0 0 1-3.755-1.577L88.249 250.44a2.88 2.88 0 0 1 1.576-3.756l41.647-17.019a2.88 2.88 0 0 1 3.755 1.577l39.932 97.725a2.88 2.88 0 0 1-1.576 3.755"/><path fill="#DEEAFF" d="M162.871 326.401 122.6 346.46a2.88 2.88 0 0 1-3.861-1.294l-47.063-94.498a2.88 2.88 0 0 1 1.293-3.862l40.272-20.059a2.88 2.88 0 0 1 3.861 1.294l47.063 94.498a2.88 2.88 0 0 1-1.294 3.862"/><path fill="#fff" d="m162.637 325.046-40.271 20.059a2.88 2.88 0 0 1-3.862-1.295l-47.063-94.497a2.88 2.88 0 0 1 1.294-3.862l40.271-20.059a2.88 2.88 0 0 1 3.862 1.294l47.063 94.498a2.88 2.88 0 0 1-1.294 3.862"/><path fill="#C8C1D9" d="m162.637 325.046-5.259 2.619-49.631-99.654 5.259-2.619a2.88 2.88 0 0 1 3.862 1.294l47.063 94.498a2.88 2.88 0 0 1-1.294 3.862m-38.252 19.053-2.456 1.224a2.88 2.88 0 0 1-3.862-1.294l-47.063-94.498a2.88 2.88 0 0 1 1.294-3.862l2.456-1.223z"/><path fill="#fff" d="M117.524 236.554s-3.042-1.586-3.396-.659 4.438 2.751 4.438 2.751z"/><path fill="#fff" d="m119.585 240.586.192-.402c.195-.406.191-.88-.01-1.284l-2.927-5.877.068-.203a1.74 1.74 0 0 0-.092-1.322l-.083-.167-1.258 1.391a1 1 0 0 0-.154 1.118l3.363 6.753a.502.502 0 0 0 .901-.007"/><path fill="#37322E" d="m117.411 238.746-1.55-3.112a.165.165 0 0 1 .296-.147l1.55 3.111a.167.167 0 0 1-.074.222.167.167 0 0 1-.222-.074"/><path fill="#fff" d="m130.586 260.285-8.701-17.473-2.426 1.208 8.702 17.473zm7.121 14.3-6.244-12.538-2.425 1.208 6.243 12.538zm21.642 43.459-6.244-12.538-2.425 1.208 6.244 12.538z"/><path fill="#B1E0FF" d="m121.811 266.643-8.702-17.473-5.294 2.637 8.702 17.472zm7.118 14.297-6.243-12.538-5.295 2.637 6.244 12.538z"/><path fill="#587D91" d="m101.861 276.578-8.7-17.473-5.295 2.637 8.701 17.473zm7.119 14.298-6.244-12.538-5.294 2.637 6.244 12.537z"/><path fill="#B1E0FF" d="m120.197 285.289-15.82-31.768-5.294 2.637 15.82 31.768zm-7.381 3.678-15.82-31.768-.801.399 15.82 31.768zm-1.682.838-15.82-31.768-.801.399 15.82 31.768z"/><path fill="#587D91" d="m116.055 244.727-.188-.377-32.996 16.434.188.377zm-36.033 1.218-.561.28 4.854 9.746.56-.279zm6.181-3.109-.56.279 4.853 9.746.56-.279zm-4.58 2.313-.986.492 4.854 9.746.986-.491zm2.182-1.119-.987.491 4.854 9.746.987-.491zm1.35-.641-.987.492 4.854 9.747.987-.492zm-2.869 1.429-.27.135 4.853 9.747.27-.135zm4.543-2.263-.27.134 4.853 9.747.27-.135zm2.443-1.217-.561.279 4.854 9.747.56-.279zm-1.08.54-.987.491 4.854 9.747.987-.492zm1.672-.837-.27.135 4.854 9.746.27-.134zm.576-.285-.27.135 4.854 9.746.27-.134zm.992-.494-.56.279 4.853 9.747.56-.279zm6.215-3.094-.561.279 4.854 9.747.56-.279zm-4.613 2.294-.987.491L96.9 249.7l.986-.492zm2.216-1.1-.986.492 4.854 9.746.986-.491zm1.315-.654-.987.491 4.854 9.747.987-.492zm-2.902 1.417-.27.135 4.853 9.745.27-.134zm4.576-2.254-.27.135 4.854 9.747.27-.135zm2.443-1.217-.561.28 4.854 9.746.56-.279zm-1.08.54-.987.492 4.854 9.746.987-.491zm1.672-.836-.27.134 4.854 9.747.27-.135zm.543-.293-.27.134 4.854 9.746.27-.135zm2.41-1.176-.561.279 4.854 9.747.56-.28zm-1.08.539-.987.492 4.854 9.747.987-.492zm1.674-.836-.27.135 4.854 9.746.27-.134zm1.361-.675-.987.491 4.854 9.747.987-.492z"/><path fill="#fff" d="M174.747 331.281 133.1 348.3a2.88 2.88 0 0 1-3.755-1.576l-39.932-97.726a2.88 2.88 0 0 1 1.577-3.755l41.646-17.02a2.88 2.88 0 0 1 3.755 1.577l39.932 97.726a2.88 2.88 0 0 1-1.576 3.755"/><path fill="#C8C1D9" d="m174.747 331.281-5.439 2.223-42.111-103.058 5.439-2.223a2.88 2.88 0 0 1 3.755 1.577l39.932 97.726a2.88 2.88 0 0 1-1.576 3.755m-39.56 16.166-2.54 1.038a2.88 2.88 0 0 1-3.756-1.577L88.96 249.183a2.88 2.88 0 0 1 1.576-3.756l2.54-1.038z"/><path fill="#fff" d="m138.069 243.86.221-.386c.224-.391.256-.863.085-1.281l-2.484-6.078.083-.197c.178-.424.18-.9.006-1.325l-.07-.173-1.358 1.293a1 1 0 0 0-.236 1.104l2.854 6.984a.501.501 0 0 0 .899.059m9.525 20.469-7.383-18.069-2.508 1.025 7.383 18.069zm6.04 14.783-5.298-12.966-2.508 1.025 5.298 12.966zm18.363 44.944-5.298-12.966-2.508 1.025 5.298 12.966z"/><path fill="#587D91" d="m156.594 314.819-7.383-18.069-5.475 2.237 7.384 18.07zm-20.414-42.056-7.383-18.07-5.475 2.238L130.705 275zm6.042 14.785-5.298-12.966-5.475 2.237 5.298 12.966z"/><path fill="#C8C1D9" d="m124.935 271.409-5.298-12.966-5.475 2.238 5.298 12.966zm-7.748 3.201-5.298-12.965-5.475 2.237 5.298 12.966z" opacity=".5"/><path fill="#587D91" d="m146.19 285.926-13.424-32.852-.829.339 13.424 32.852zm-1.741.711-13.424-32.852-.828.339 13.424 32.852z"/><path fill="#C8C1D9" d="m134.257 247.738-.159-.39-34.123 13.945.159.39z"/><path fill="#587D91" d="m98.218 246.259-.58.237 4.119 10.08.58-.237zm6.428-2.625-.58.237 4.119 10.08.58-.237zm-4.768 1.953-1.02.417 4.118 10.079 1.021-.417zm2.289-.94-1.021.417 4.119 10.08 1.021-.417zm1.361-.558-1.02.417 4.118 10.079 1.021-.417zm-2.967 1.221-.28.114 4.119 10.079.28-.114zm4.697-1.922-.279.114 4.118 10.079.28-.114zm2.527-1.031-.58.237 4.119 10.079.579-.237zm-1.116.451-1.021.417 4.119 10.079 1.021-.417zm1.73-.704-.28.115 4.119 10.079.279-.114zm.593-.25-.279.115 4.119 10.079.279-.114zm1.027-.417-.58.237 4.119 10.079.58-.237zm6.428-2.627-.58.237 4.119 10.079.58-.237zm-4.77 1.951-1.021.417 4.119 10.079 1.02-.417zm2.291-.934-1.021.417 4.119 10.08 1.02-.417zm1.359-.557-1.02.418 4.118 10.079 1.021-.417zm-2.967 1.215-.28.115 4.119 10.079.279-.114zm4.697-1.92-.28.115 4.119 10.079.28-.114zm2.529-1.034-.58.237 4.119 10.079.579-.237zm-1.118.452-1.021.417 4.119 10.08 1.02-.417zm1.73-.701-.28.114 4.119 10.08.279-.114zm.593-.238-.279.114 4.118 10.08.28-.115zm2.461-1.011-.58.237 4.119 10.079.579-.237zm-1.118.456-1.021.417 4.119 10.08 1.02-.417zm1.73-.707-.28.114 4.119 10.08.279-.114zm1.41-.576-1.02.417 4.119 10.079 1.02-.417z"/><path fill="#C8C1D9" d="m132.806 228.392-.16-.39-41.942 17.116.16.39zm-22.323-1.503-.188-.377-35.65 17.755.189.378z"/><path fill="#C8C1D9" d="m153.866 339.784-10.316 4.241a1.25 1.25 0 0 1-1.631-.681l-24.375-59.307c-.798-1.941 1.092-3.904 3.062-3.182l2.082.764.262.098a24.55 24.55 0 0 1 9.194 6.158 24.6 24.6 0 0 1 4.81 7.474l17.593 42.804a1.25 1.25 0 0 1-.681 1.631" opacity=".5"/><path fill="#E25134" d="m151.405 338.534-16.739-40.727-.271-.67a23 23 0 0 0-.181-.428l-.007-.017a26.1 26.1 0 0 0-7.32-9.722l-.332-.273c-.503-.415-2.732-1.96-4.032-2.655-.126-.068-.268.061-.214.193l1.753 4.264 4.365 10.568 17.197 41.842a.956.956 0 0 0 1.248.521l4.012-1.649a.956.956 0 0 0 .521-1.247"/><path fill="#2F3D53" d="m149.356 339.28-1.764.725a.734.734 0 0 1-.962-.395l-21.192-51.559c-.056-.136.11-.256.224-.162l.333.277a25.1 25.1 0 0 1 7.154 9.737l16.613 40.42a.734.734 0 0 1-.406.957"/><path fill="#A4C4DB" d="M118.121 281.966a.082.082 0 0 1 .158-.034l25.237 61.403a.08.08 0 0 1-.044.107.08.08 0 0 1-.108-.044l-25.237-61.403a.1.1 0 0 1-.006-.029"/><path fill="#1D2B40" d="m136.656 306.443-.062-.152-3.133 1.288.063.152zm1.198 2.865-.063-.152-3.132 1.288.063.152zm-5.01-12.068-.063-.152-3.109 1.278.063.152zm-1.395-2.619-.062-.152-2.841 1.168.062.152zm-2.513-3.487-.063-.152-1.9.781.063.152z"/><path fill="#A4C4DB" d="m127.867 303.256 1.959-.805.063.152-1.807.742 1.059 2.576 2.053-.844.062.152-2.205.906z"/><path fill="#C73E1C" d="m134.269 300.624 1.334-.549 1.183 2.88-1.334.548-.062-.152 1.182-.486-1.059-2.575-1.182.486z"/><path fill="#1D2B40" d="m134.336 300.758-.063-.153-3.132 1.288.063.152z"/><path fill="#C73E1C" d="m131.211 302.084-.063-.152-1.316.541.062.152zm1.107 2.689-.062-.152-1.317.541.063.152z"/><path fill="#1D2B40" d="m135.457 303.523-.062-.152-3.133 1.288.063.152z"/><path fill="#A4C4DB" d="M118.087 284.946a.08.08 0 0 1 .063-.083c1.578-.399 2.877-1.798 3.158-3.402a.083.083 0 0 1 .096-.066c.044.007.074.05.066.095-.292 1.666-1.641 3.118-3.28 3.533a.083.083 0 0 1-.1-.06z"/><path fill="#2F3D53" d="M132.145 287.875c-.355-.113-.704-.306-1.022-.495l-6.524-3.889c-.581-.347-1.613-.979-1.649-1.774a24.56 24.56 0 0 1 9.195 6.158"/><path fill="#A4C4DB" d="M134.463 291.854a.082.082 0 0 1 .158-.034l19.399 47.2a.08.08 0 0 1-.044.107.084.084 0 0 1-.108-.045l-19.399-47.199a.1.1 0 0 1-.006-.029"/></svg>