<svg xmlns="http://www.w3.org/2000/svg" width="114" height="76" fill="none"><path fill="#5C6671" d="M55.13 66.45h-9.55v2.73h9.55z"/><path fill="#5C6671" d="M46.85 80.94h-1.03a.8.8 0 0 1-.79-.77v-10.4c0-.43.35-.78.79-.78h1.03c.43 0 .78.35.78.78v10.4c0 .43-.35.77-.78.77"/><path fill="#758392" d="M56.87 70.94h-4.34a1.7 1.7 0 0 1-1.73-1.7v-2.77c0-.95.77-1.71 1.73-1.71h4.34c.95 0 1.72.76 1.72 1.7v2.77c0 .94-.77 1.7-1.72 1.7"/><path fill="#000" d="M46.85 69h-1.03a.8.8 0 0 0-.79.77v1.82c.07.01.12.08.19.08h2.23c.07 0 .11-.07.18-.08v-1.82a.8.8 0 0 0-.78-.78" opacity=".3"/><path fill="#758392" d="M47.45 70.78h-2.23c-.67 0-1.22-.54-1.22-1.21v-3.51c0-.67.55-1.2 1.22-1.2h2.23c.67 0 1.22.53 1.22 1.2v3.51c0 .67-.55 1.2-1.22 1.2"/><path fill="#000" d="M49.35 66.45h-.69v2.73h.7zm1.45 0h-.69v2.73h.7z" opacity=".2"/><path fill="#CDE6FF" d="M46.36 70.78h1.09c.27 0 .5-.14.71-.3v-5.34a1.2 1.2 0 0 0-.71-.29h-1.1z" opacity=".2"/><path fill="#000" d="M52.23 70.88q.15.05.3.06h1.25v-6.18h-1.25l-.3.06z" opacity=".3"/><path fill="#758392" d="M57.04 19.84h-6.22a.7.7 0 0 1-.7-.7v-5.56c0-.39.31-.7.7-.7h6.21a.7.7 0 0 1 .72.7v5.56a.7.7 0 0 1-.72.7"/><path fill="#fff" d="M57.03 19.4h-6.2a.7.7 0 0 1-.72-.7v.44c0 .39.32.7.71.7h6.21a.7.7 0 0 0 .72-.7v-.44a.7.7 0 0 1-.72.7" opacity=".3"/><path fill="#3F454C" d="M57.03 18.08h-6.2a.7.7 0 0 1-.72-.7v1.76c0 .39.32.7.71.7h6.21a.7.7 0 0 0 .72-.7v-1.77a.7.7 0 0 1-.72.7" opacity=".2"/><path fill="#CDE6FF" d="M57.75 13.76H50.1v1.89h7.64z" opacity=".3"/><path fill="#3F454C" d="M53.71 12.88h-.72v6.96h.72z" opacity=".2"/><path fill="#758392" d="M142.56 9.64H55.5v65.88h87.06z"/><path fill="#E5F2FF" d="M63.82 76.29h-9.3a.8.8 0 0 1-.81-.8V9.54c0-.44.36-.8.8-.8h9.3a.8.8 0 0 1 .81.8V75.5a.8.8 0 0 1-.8.8"/><path fill="#fff" d="M63.82 8.75h-9.3c-.38 0-.65.27-.74.62l.03-.01h9.3c.45 0 .8.36.8.8V76.1q-.02.09-.07.18a.8.8 0 0 0 .78-.8V9.55a.8.8 0 0 0-.8-.8" opacity=".4"/><path fill="#9CCBFF" d="M64.56 75.03h-9.3a.8.8 0 0 1-.8-.8V8.77a.8.8 0 0 0-.75.77V75.5c0 .44.36.8.8.8h9.3a.8.8 0 0 0 .81-.8V75z" opacity=".2"/><path fill="#fff" d="M63.92 76.2h-9.3a.8.8 0 0 1-.8-.8V9.45a1 1 0 0 1 .2-.5.8.8 0 0 0-.31.6v65.94c0 .44.36.8.8.8h9.3a.8.8 0 0 0 .6-.3q-.2.18-.49.2" opacity=".4"/><path fill="#E5F2FF" d="M75.1 76.29h-9.3a.8.8 0 0 1-.8-.8V9.54c0-.44.36-.8.8-.8h9.3a.8.8 0 0 1 .81.8V75.5a.8.8 0 0 1-.8.8"/><path fill="#fff" d="M75.1 8.75h-9.3c-.37 0-.64.27-.73.62l.03-.01h9.3c.45 0 .8.36.8.8V76.1q-.02.09-.07.18a.8.8 0 0 0 .78-.8V9.55a.8.8 0 0 0-.8-.8" opacity=".4"/><path fill="#9CCBFF" d="M75.85 75.03h-9.3a.8.8 0 0 1-.8-.8V8.77a.8.8 0 0 0-.75.77V75.5c0 .44.36.8.8.8h9.3a.8.8 0 0 0 .81-.8V75z" opacity=".2"/><path fill="#fff" d="M75.21 76.2h-9.3a.8.8 0 0 1-.8-.8V9.45q.02-.3.2-.5a.8.8 0 0 0-.3.6v65.94c0 .44.35.8.8.8h9.3q.36-.02.6-.3-.21.18-.5.2" opacity=".4"/><path fill="#E5F2FF" d="M86.4 76.29h-9.3a.8.8 0 0 1-.8-.8V9.54c0-.44.35-.8.8-.8h9.3c.44 0 .8.36.8.8V75.5a.8.8 0 0 1-.8.8"/><path fill="#fff" d="M86.4 8.75h-9.3c-.38 0-.65.27-.73.62l.02-.01h9.3c.45 0 .8.36.8.8V76.1q-.02.09-.07.18a.8.8 0 0 0 .78-.8V9.55a.8.8 0 0 0-.8-.8" opacity=".4"/><path fill="#9CCBFF" d="M87.14 75.03h-9.3a.8.8 0 0 1-.8-.8V8.77a.8.8 0 0 0-.75.77V75.5c0 .44.36.8.8.8h9.3a.8.8 0 0 0 .81-.8V75z" opacity=".2"/><path fill="#fff" d="M86.5 76.2h-9.3a.8.8 0 0 1-.8-.8V9.45q.02-.3.2-.5a.8.8 0 0 0-.3.6v65.94c0 .44.35.8.8.8h9.3a.8.8 0 0 0 .6-.3q-.21.18-.5.2" opacity=".4"/><path fill="#E5F2FF" d="M97.69 76.29h-9.3a.8.8 0 0 1-.8-.8V9.54c0-.44.35-.8.8-.8h9.3c.44 0 .8.36.8.8V75.5a.8.8 0 0 1-.8.8"/><path fill="#fff" d="M97.69 8.75h-9.3c-.38 0-.65.27-.73.62l.02-.01h9.3c.45 0 .8.36.8.8V76.1q-.02.09-.07.18a.8.8 0 0 0 .78-.8V9.55a.8.8 0 0 0-.8-.8" opacity=".4"/><path fill="#9CCBFF" d="M98.43 75.03h-9.3a.8.8 0 0 1-.8-.8V8.77a.8.8 0 0 0-.75.77V75.5c0 .44.36.8.8.8h9.3a.8.8 0 0 0 .81-.8V75z" opacity=".2"/><path fill="#fff" d="M97.8 76.2h-9.3a.8.8 0 0 1-.81-.8V9.45q.02-.3.21-.5a.8.8 0 0 0-.32.6v65.94c0 .44.36.8.8.8h9.3q.38-.02.6-.3-.2.18-.49.2" opacity=".4"/><path fill="#E5F2FF" d="M108.98 76.29h-9.3a.8.8 0 0 1-.8-.8V9.54c0-.44.35-.8.8-.8h9.3a.8.8 0 0 1 .8.8V75.5a.8.8 0 0 1-.8.8"/><path fill="#fff" d="M108.98 8.75h-9.3c-.38 0-.65.27-.73.62l.02-.01h9.3c.45 0 .8.36.8.8V76.1c0 .07-.05.11-.06.18a.8.8 0 0 0 .77-.8V9.55a.8.8 0 0 0-.8-.8" opacity=".4"/><path fill="#9CCBFF" d="M109.72 75.03h-9.3a.8.8 0 0 1-.8-.8V8.77a.8.8 0 0 0-.75.77V75.5a.8.8 0 0 0 .8.8h9.31a.8.8 0 0 0 .8-.8V75z" opacity=".2"/><path fill="#fff" d="M109.09 76.2h-9.3a.8.8 0 0 1-.81-.8V9.45a1 1 0 0 1 .21-.5.8.8 0 0 0-.32.6v65.94a.8.8 0 0 0 .8.8h9.31q.38-.02.6-.3-.2.18-.5.2" opacity=".4"/><path fill="#E5F2FF" d="M120.27 76.29h-9.3a.8.8 0 0 1-.8-.8V9.54c0-.44.35-.8.8-.8h9.3c.45 0 .8.36.8.8V75.5a.8.8 0 0 1-.8.8"/><path fill="#fff" d="M120.27 8.75h-9.3c-.38 0-.64.27-.73.62l.02-.01h9.3c.45 0 .8.36.8.8V76.1c0 .07-.05.11-.06.18a.8.8 0 0 0 .78-.8V9.55a.8.8 0 0 0-.81-.8" opacity=".4"/><path fill="#9CCBFF" d="M121.01 75.03h-9.3a.8.8 0 0 1-.8-.8V8.77a.8.8 0 0 0-.75.77V75.5a.8.8 0 0 0 .81.8h9.3a.8.8 0 0 0 .8-.8V75z" opacity=".2"/><path fill="#fff" d="M120.38 76.2h-9.3a.8.8 0 0 1-.81-.8V9.45a1 1 0 0 1 .21-.5.8.8 0 0 0-.32.6v65.94a.8.8 0 0 0 .81.8h9.3q.38-.02.6-.3-.2.18-.5.2" opacity=".4"/></svg>