<svg xmlns="http://www.w3.org/2000/svg" width="114" height="76" fill="none"><g clip-path="url(#a)"><path fill="#7F97C3" d="M106.65 36.6c.46.56.65 1.3.45 2l-5.72 20.44c-.52 1.85-3.14 4.46-3.39 5.36-.34 1.21.47 4.08.05 5.6-.59 2.1-4.15 5.8-4.15 5.8-.88 3.15-1.58 5-2.2 6.05l.41-.1-.93.82q-.2.2-.37.32l-.01.01c-.62.4-1.2.19-1.9-.06-1.68-.6-2.76-.96-.51-9 0 0-1.03-5.37-.44-7.46.42-1.52 2.55-3.34 2.88-4.55.26-.9-.56-4.74-.04-6.6L96.5 34.8c.32-1.12 1.5-1.68 2.65-1.27l3.22 1.16 3.21 1.15a2.4 2.4 0 0 1 1.07.76"/><path fill="#373F5E" d="M125.1 14.79a7 7 0 0 1 1.89 5.8l-3.78 21.85a5 5 0 0 1-.72 1.87l.39-.12-1 .86a5 5 0 0 1-.51.44 5.7 5.7 0 0 1-5.38.54l-7.97-2.86-14.6-5.23-7.97-2.86c-3.43-1.23-5.25-4.64-4.07-7.64l8.03-20.32a5.4 5.4 0 0 1 1.5-2.1l.03-.04 1.03-.89-.01.2a7 7 0 0 1 5.79-.36l1.47.53 21.1 7.56 1.47.53a8 8 0 0 1 3.3 2.24m-5.57.16a3 3 0 0 0-1.22-.87l-4.26-1.53-9.95-3.57-4.27-1.53c-1.08-.4-2.33.02-2.8.92l-.59 1.17c-.46.9.04 1.94 1.12 2.33l6.14 2.2 8.08 2.9 6.14 2.2c1.09.39 2.02-.14 2.1-1.18l.1-1.34a2.4 2.4 0 0 0-.6-1.7"/><path fill="#505A79" d="m120.93 13.72.14.18q.53.77.5 1.64l-.11 1.34a1.5 1.5 0 0 1-1.5 1.43q.04-.14.05-.3.31-.03.55-.16.53-.27.6-1l.1-1.34c.04-.47-.14-.99-.45-1.43a2.7 2.7 0 0 0-1.26-1l-4.27-1.52-9.95-3.57-4.26-1.53c-1.02-.37-2.2.03-2.62.85l-.02.05q-.21.05-.4.13l.16-.32c.5-.98 1.83-1.4 2.98-1l4.26 1.53 9.95 3.57 4.27 1.53a3 3 0 0 1 1.28.92M91.97 4.1l-.01.2.06-.03a5 5 0 0 0-1.18 1.78l-8.02 20.33c-1.15 2.91.6 6.23 3.98 7.44l7.97 2.86 14.6 5.23 7.97 2.86c1.68.61 3.3.52 4.56-.11a5 5 0 0 0 .6-.36l-.01.02.39-.12-.85.73a6 6 0 0 1-4.8.12l-7.97-2.86-14.6-5.23-7.97-2.86c-3.5-1.26-5.37-4.75-4.16-7.84l8.03-20.32q.25-.62.63-1.16z"/><path fill="#7F97C3" fill-rule="evenodd" d="m96.72 37.53-1.3 1.13 1.38 1z" clip-rule="evenodd"/><path fill="#ACBFE0" d="m98.05 33.43-.1.27-5.73 20.44c-.25.89-.18 2.3-.07 3.6q.09 1 .14 1.8c.05.8.05.93-.03 1.2-.18.67-.81 1.42-1.43 2.21a8 8 0 0 0-1.45 2.34c-.28 1-.18 2.86 0 4.45s.44 2.93.44 2.93v.07c-1.13 4.02-1.41 6.11-1.22 7.23.1.56.3.87.57 1.09s.64.35 1.06.5.79.28 1.12.28q.2 0 .37-.06l-.04.07.42-.1-.39.34q-.18.05-.36.05c-.4 0-.8-.14-1.22-.3a4 4 0 0 1-1.15-.55 2 2 0 0 1-.67-1.27c-.21-1.22.09-3.32 1.2-7.33a43 43 0 0 1-.43-2.92c-.18-1.6-.3-3.46 0-4.56.23-.8.88-1.65 1.5-2.45s1.24-1.55 1.4-2.1c.04-.18.05-.59.01-1.1l-.14-1.79c-.11-1.3-.2-2.74.08-3.7l5.72-20.45.04-.1q.17-.06.36-.1"/><path fill="#9AB2D4" d="M106.88 34.7c1.15.42 1.83 1.65 1.52 2.77l-5.72 20.43c-.52 1.86-3.14 4.47-3.4 5.37-.33 1.21.48 4.08.05 5.6-.58 2.1-4.15 5.8-4.15 5.8-2.25 8.05-3.32 7.64-5 7.03-1.67-.6-2.76-.95-.5-9 0 0-1.03-5.36-.45-7.45.43-1.52 2.55-3.34 2.89-4.55.25-.9-.56-4.74-.04-6.6l5.72-20.44c.3-1.1 1.49-1.67 2.64-1.26l3.22 1.16z"/><path fill="#ACBFE0" d="m105.19 48.92-2.21 7.9-11.08-.75a7 7 0 0 1 .18-1.97l1.66-5.95z"/><path fill="#7F97C3" d="m106.48 34.57-6.26 22.36 2.48.89-.02.08-.13.38-2.71-.98-.26-.09.07-.23 6.32-22.6zm-2.56-.92L90.44 81.8l-.26-.1-.25-.09 13.47-48.15.26.1zm-2.57-.92-6.33 22.6-.06.22-.26-.09-2.7-.97q.03-.2.08-.39l.02-.08 2.48.88 6.25-22.36zm-2.07 30.56q-.06.22-.07.49l-.82-.3-3.1 11.08-.11.12c-.86 3.06-1.54 4.9-2.16 5.96l4.92-17.57.07-.23.25.08zm-5.9-2.11-.06.23-4.92 17.57c.04-1.27.42-3.22 1.27-6.28l-.03-.17 3.1-11.07-.82-.3q.13-.23.2-.44l1 .36z"/><path fill="#879FC9" d="M108.12 35.71c.32.52.44 1.15.28 1.76l-2.32 8.26-11.44-.77L97.42 35zm-8.05 26.3c-.4.53-.7.98-.79 1.26-.34 1.21.48 4.08.05 5.6A11 11 0 0 1 97.48 72l-8.02-.53c-.26-1.7-.64-4.74-.23-6.2.35-1.24 1.8-2.67 2.52-3.8z"/><path fill="#7185B5" d="m106.2 35.58-2.8 9.97-.54-.03 2.79-9.98zm-2.77-.18-2.8 9.97-.55-.04 2.8-9.97zm-2.78-.19-2.79 9.97-.55-.04 2.79-9.97zM99.28 63.3q-.05.22-.07.49l-.82-.3-2.36 8.42-.55-.04 2.46-8.8.07-.22.25.09zm-3.23-1.55-2.79 9.97-.55-.03 2.79-9.97zm-2.77-.18-2.8 9.97-.55-.04 2.8-9.97z"/><path fill="#505A79" d="M123.08 11.42c3.44 1.23 5.76 4.82 5.2 8.04l-3.78 21.85c-.56 3.22-3.78 4.84-7.22 3.6l-7.97-2.87-14.6-5.23-7.97-2.86c-3.43-1.23-5.25-4.64-4.07-7.64L90.7 6c1.18-3 4.9-4.43 8.34-3.2l1.47.54 21.1 7.56zm-3.49 1.53-4.26-1.53-9.95-3.57-4.27-1.53c-1.08-.39-2.33.02-2.8.93l-.59 1.16c-.46.9.04 1.94 1.12 2.33l6.15 2.2 8.07 2.9 6.14 2.2c1.09.39 2.02-.14 2.1-1.18l.1-1.33c.09-1.04-.72-2.2-1.8-2.58"/><path fill="#414C6D" fill-rule="evenodd" d="M88.26 12.16c3.46 11.8 27.04 23.34 37.9 19.6l-1.66 9.55c-.56 3.22-3.78 4.84-7.21 3.6l-7.98-2.87-14.6-5.23-7.96-2.86c-3.44-1.23-5.26-4.64-4.07-7.64z" clip-rule="evenodd"/><path fill="#373F5E" d="M82.71 26.22c-.4 2.68 1.36 5.44 4.38 6.52l7.97 2.85 14.6 5.24 7.97 2.86c3 1.1 5.86-.02 6.89-2.48l-.02.1c-.56 3.22-3.78 4.84-7.21 3.6l-7.98-2.86-14.6-5.24-7.96-2.86c-3.44-1.23-5.26-4.64-4.07-7.64z"/><path fill="#778EA9" d="M125.47 13.88q.43.48.77 1.01a6.6 6.6 0 0 1 1.06 4.7l-1.64 9.45c-.12.62-1.26.76-1.16-.3l1.62-9.36c.21-1.27-.15-2.65-.92-3.84s-1.94-2.18-3.35-2.69l-1.32-.47-7.17-2.57c-.92-.37-1.06-1.54.39-1.14l7.19 2.58 1.32.47a8 8 0 0 1 3.21 2.16"/><path fill="#97AAD6" d="m102.52 48.74-2.21 7.9-.56-.04 2.21-7.9zm-2.78-.19-2.2 7.9-.56-.04 2.2-7.9zm-2.77-.18-1.95 6.95-.06.23-.26-.09-2.7-.97v-.02l.01-.1v-.01l.02-.06.01-.06.04-.14.01-.05.01-.04 2.48.9 1.84-6.58z"/><path fill="#9BAADA" d="M17.6 37.34a2.63 2.63 0 0 1 3.55.84l.4.66.02.01v.01l.06.1 1.47-.5c1.96-1.94 3.29-5.54 9.28-9.25l.63-.38.04-.02a20 20 0 0 1 1.24-.66c1.06-.5 2.12-.9 3.2-1.08a20 20 0 0 1 2.74-.28h1.34a27 27 0 0 1 2.18.14 32 32 0 0 1 2.48.37q2 .39 3.71.84a74 74 0 0 1 6.48-2.28l.55-.14.86-.15.29-.04h.2q.39 0 .66.05H59l.09.02.27.07.22.06.02.01.13.04q.04.03.01 0l.02.02.3.13h.02l.06.04a4.35 4.35 0 1 1 3 4.55 5.2 5.2 0 0 1-1.38 4.33c-.41.48-.71.68-1.18 1.03q-.74.55-1.82 1.3-.45.3-.98.37-.51.77-1.35 1.31a4 4 0 0 1-1.53.57q-.26.49-.73.8a590 590 0 0 1-22.23 13.61q-.38.22-.82.28-.49.71-1.28 1.2a4.4 4.4 0 0 1-2.11.64q-.3.41-.73.64l-.24.14q-1.41.78-2.42 1.28c-.65.32-.89.57-1.85.7a4.5 4.5 0 0 1-3.47-.94 6.6 6.6 0 0 1-2.03-2.35l-.35-.55-.07-.12.02.04-.02-.04-.08-.17-.05-.1a4.2 4.2 0 0 1-.32-2.92l.08-.23.18-.43.12-.25-.02-.03-.34-.59a17 17 0 0 1-1.54-3.49l-.11-.43-.04-.13-.04-.21v-.01l-.02-.06-.04-.2-.01-.09-.04-.52-.03-.35-.13-.17-.4-.66h-.01l-.01-.02-.4-.66a2.6 2.6 0 0 1-.17-2.42 2.6 2.6 0 0 1 1-1.13zm45.53-13.1"/><path fill="#fff" d="m12.98 42.24.07.13.41.66.01.01v.02h.01l.4.66.13.15.02.09q0 .15.03.3l-.34-.53c-.03-.06.02.02 0-.02s.02.05-.01-.01l-.35-.57.07.06.04-.09-.11.03-.06-.09a3 3 0 0 1-.32-.8m7.6-4.7q.34.27.57.64l.04.06h-.01l-.02.02.03-.01.15.24-.03.01a.14.14 0 0 1-.16-.06l-.06-.1h-.01v-.01l-.01-.01-.4-.66zm.51.77h-.02v.02l.06-.04zm-6.38 8.62q.46 1.21 1.17 2.45l.34.58.02.03a.2.2 0 0 1 0 .14l-.02.07-.1-.16a18 18 0 0 1-1.41-3.1m47.98-23.41a2.66 2.66 0 0 1 3.66.86q.24.4.33.82a3 3 0 0 0-.67-.8 2.37 2.37 0 0 0-3.17-.64 2.36 2.36 0 0 0-.85 3.12 3 3 0 0 0 .42.96 3 3 0 0 1-.58-.66 2.66 2.66 0 0 1 .86-3.66m-46.54 30.2.04.11.05.1.08.16.01.02v.02h.01l.04.08.36.55a6.5 6.5 0 0 0 1.99 2.3 4.3 4.3 0 0 0 3.35.91c.95-.12 1.15-.35 1.81-.68a52 52 0 0 0 2.42-1.28l.24-.13q.4-.22.68-.6a.1.1 0 0 1 .1-.06 4 4 0 0 0 2.06-.61 4 4 0 0 0 1.23-1.18.1.1 0 0 1 .1-.06q.4-.05.77-.25A592 592 0 0 0 53.71 39.5q.44-.28.68-.73a.1.1 0 0 1 .1-.08 4 4 0 0 0 1.48-.55 4 4 0 0 0 1.31-1.27.1.1 0 0 1 .1-.07q.5-.06.92-.34a51 51 0 0 0 1.81-1.3c.48-.35.76-.54 1.16-1a5 5 0 0 0 1.34-4.22.14.14 0 0 1 .19-.16 4.2 4.2 0 0 0 4.54-6.66 4 4 0 0 1 1.07 1.45 4.5 4.5 0 0 1-1.96 5.03 4.5 4.5 0 0 1-3.55.5 5.3 5.3 0 0 1-1.41 4.24c-.42.49-.74.7-1.2 1.05q-.74.56-1.83 1.3-.44.3-.98.38a4.5 4.5 0 0 1-1.36 1.32q-.73.44-1.52.57a2 2 0 0 1-.73.78 592 592 0 0 1-22.24 13.63 2 2 0 0 1-.82.27 5 5 0 0 1-1.27 1.21c-.67.42-1.4.6-2.12.65a2 2 0 0 1-.73.63l-.24.13q-1.41.8-2.43 1.3c-.63.3-.9.57-1.9.7a4.6 4.6 0 0 1-3.56-.96 7 7 0 0 1-.72-.6 7 7 0 0 1-.86-1.28l-.35-.55-.07-.12.02.04-.02-.04-.08-.17-.05-.1a6 6 0 0 1-.28-.75"/><path fill="#DBE8F7" d="M17.23 36.75a2.63 2.63 0 0 1 3.55.84l.41.66c.03.04-.01-.02 0 .01.03.03-.01-.04.02.01l.06.1 1.46-.5c1.97-1.94 3.3-5.54 9.28-9.25l.67-.4a20 20 0 0 1 1.24-.66c1.06-.5 2.12-.9 3.2-1.08a19 19 0 0 1 2.74-.28h1.34q1.11.03 2.18.14a32 32 0 0 1 2.49.37q2 .39 3.7.84a74 74 0 0 1 6.48-2.28l.55-.14.86-.15.3-.04h.2q.38 0 .65.05h.01l.1.02.27.06.21.07.03.01.12.04h.01q.03.02 0 0l.02.01.3.14h.01q-.04-.02.01 0l.06.04a4.35 4.35 0 0 1 8.03-1.88 4.33 4.33 0 0 1-1.35 5.98q-.02.02-.06.01a4.4 4.4 0 0 1-3.62.44 5.2 5.2 0 0 1-1.38 4.33c-.4.48-.7.68-1.18 1.03a52 52 0 0 1-1.81 1.3q-.45.3-.98.37a4.4 4.4 0 0 1-1.36 1.32q-.73.44-1.53.57-.26.49-.73.79a592 592 0 0 1-22.22 13.61q-.4.22-.83.28a4 4 0 0 1-1.27 1.2 4.3 4.3 0 0 1-2.12.64 2 2 0 0 1-.72.64l-.25.14q-1.4.78-2.42 1.28c-.65.32-.88.57-1.85.7a4.5 4.5 0 0 1-3.46-.94 6.6 6.6 0 0 1-2.03-2.35l-.36-.55-.07-.12.03.04-.03-.04-.08-.17-.05-.1a4.2 4.2 0 0 1-.32-2.92l.08-.23.18-.43.12-.25-.02-.03-.34-.6a17 17 0 0 1-1.54-3.48l-.11-.43-.04-.13-.04-.21v-.01L14 45.1l-.03-.2-.02-.08-.04-.52-.03-.36q-.07-.07-.12-.16l-.41-.66c-.04-.05.01.03-.01-.01s.03.04 0-.01l-.42-.66a2.6 2.6 0 0 1-.15-2.42 2.6 2.6 0 0 1 .99-1.13zm45.54-13.1a2.51 2.51 0 1 0 2.64 4.28 2.51 2.51 0 0 0-2.64-4.27"/><path fill="#BDCEE7" fill-rule="evenodd" d="M13.81 38.87c9.41 6.64 21.72 9.35 43.02-1.2q-.35.34-.78.6a4 4 0 0 1-1.53.57q-.26.49-.73.8a592 592 0 0 1-22.23 13.61q-.38.22-.82.28-.49.72-1.28 1.21a4.4 4.4 0 0 1-2.11.63 2 2 0 0 1-.73.64l-.24.14q-1.41.79-2.42 1.28c-.65.32-.89.57-1.85.7a4.5 4.5 0 0 1-3.47-.94 6.6 6.6 0 0 1-2.02-2.35l-.43-.67.02.04-.02-.04-.08-.17-.05-.1a4.2 4.2 0 0 1-.32-2.92l.08-.23.18-.43.12-.25-.02-.03-.34-.59a17 17 0 0 1-1.54-3.49l-.11-.43-.04-.13-.04-.21v-.01l-.02-.06-.04-.2-.01-.09q-.04-.26-.04-.52l-.03-.35-.13-.17-.4-.66h-.01l-.01-.02-.4-.66a2.6 2.6 0 0 1-.17-2.42 2.6 2.6 0 0 1 1-1.13z" clip-rule="evenodd"/><path fill="#373F5E" d="M18.8 39.27a.4.4 0 0 1 .57.14l.41.66a.4.4 0 0 1-.14.58l-.88.55.92.86c1.39-.56 2.99-1.02 4.66-1.64 2.7-2.39 3.42-5.68 9.23-9.28a13 13 0 0 1 4.35-1.85c4.32-.76 8.78.3 12.2 1.2 4.07-1.55 6.78-2.58 8.25-2.71q.76.02 1.3.54a3.34 3.34 0 0 1 .1 4.5c-.25.31-1.2 1.02-2.61 2l-.42-.7.19-.25a4 4 0 0 0-.3-.6 3.5 3.5 0 0 0-2.98-1.69c.78.1 1.5.59 1.94 1.3.78 1.25.47 2.85-.68 3.56s-2.71.27-3.49-.98a2.8 2.8 0 0 1-.3-2.32 3.5 3.5 0 0 0 .19 3.42q.23.37.54.68l.34-.1.43.68c-6.44 4.17-15.8 9.9-22.14 13.56l-.42-.68.2-.26a4 4 0 0 0-.31-.65 3.5 3.5 0 0 0-2.5-1.66A2.8 2.8 0 0 1 29 49.34c.78 1.26.48 2.85-.67 3.56-1.15.72-2.72.28-3.5-.97-.5-.8-.56-1.8-.18-2.6a3.4 3.4 0 0 0-.02 3.75q.13.21.28.4l.25-.04.43.68-.23.13c-1.86 1.03-3.2 1.7-3.62 1.75-1.68.31-3.92-2.22-3.5-3.75.2-.5.42-.97.81-1.58-1.89-2.77-3.18-6.06-2.3-6.9a6 6 0 0 1 1.16-.86l-.76-.72-.97.6a.4.4 0 0 1-.58-.13l-.41-.66a.4.4 0 0 1 .14-.58z"/><path fill="#505A79" d="M59.26 27.64a3.34 3.34 0 0 1 .1 4.5 21 21 0 0 1-2.62 1.99 4 4 0 0 0-.54-1.55 3.5 3.5 0 0 0-2.97-1.68c.78.1 1.5.58 1.94 1.3.77 1.25.47 2.84-.68 3.55-1.15.72-2.71.28-3.49-.98a2.8 2.8 0 0 1-.3-2.31 3.5 3.5 0 0 0 .18 3.42q.5.8 1.31 1.26A600 600 0 0 1 30.06 50.7a4 4 0 0 0-.53-1.6 3.5 3.5 0 0 0-2.51-1.66 2.8 2.8 0 0 1 1.56 1.22c.78 1.25.47 2.85-.68 3.56s-2.71.27-3.49-.98c-.5-.8-.57-1.8-.18-2.6a3.4 3.4 0 0 0-.03 3.76q.39.61.96 1.03l-.23.13c-1.85 1.04-3.2 1.7-3.61 1.75-1.68.32-3.92-2.21-3.5-3.75.2-.5.42-.97.8-1.57-1.88-2.78-3.17-6.06-2.29-6.9a7 7 0 0 1 1.16-.87l-.76-.71-.97.6a.4.4 0 0 1-.59-.14l-.4-.66a.4.4 0 0 1 .13-.58l3.47-2.14a.4.4 0 0 1 .58.13l.4.66a.4.4 0 0 1-.13.58l-.89.55.92.86c1.39-.55 3-1.01 4.66-1.63 2.71-2.4 3.42-5.69 9.24-9.29a13 13 0 0 1 4.34-1.85c4.32-.75 8.79.3 12.21 1.21 4.06-1.55 6.77-2.58 8.25-2.72q.76.02 1.3.55"/><path fill="#7686AD" fill-rule="evenodd" d="M33.65 31.4c1.12-.67 2.32-1.2 3.57-1.47 5.72-1.25 9.73.97 9.73.97l-.03.02a4.5 4.5 0 0 1 2.03 1.92c.38.6.8 1.42 1.22 2.3l.3-.19.12.34-.28.17.3.64.3-.19.2.29-.36.22q.3.64.56 1.29l-.13.08-.55-1.3-10.82 6.7q.42.56.9 1.15l-.12.08-.9-1.15-9.98 6.18-.16-.3 9.92-6.16-.41-.56-9.93 6.15-.25-.26 9.98-6.17a28 28 0 0 1-2.3-3.74 7 7 0 0 1-.52-1.97 7 7 0 0 1-.07-1.28zm-1.45.97 2.23 3.6-8.67 3.44a29 29 0 0 1 6.44-7.04m3.91 2.93q0 .5.07 1.12c.1.72.27 1.46.5 1.93.44.88 1.17 2.15 2.3 3.72l11.06-6.85a22 22 0 0 0-1.22-2.3 4.3 4.3 0 0 0-2.09-1.93zm-18.3 11.38a2 2 0 0 1 2.26.18c.6.52.53 1.26-.13 1.68l3.76-2.33a.1.1 0 0 1 .14.03l.05.08a.1.1 0 0 1-.04.14l-5.36 3.32-.16-.25A21 21 0 0 1 17 47.17zM39 35.8a.37.37 0 1 1 .38.63l-1.36.84a.37.37 0 1 1-.4-.62zm19.24-8.69c.62.11 1.13.53 1.47 1.11l-2.34 1.45a1.2 1.2 0 0 1-1.4-.14c-.36-.34-.31-.82.1-1.08zm-5.8 5.35c.52-.32 1.22-.12 1.57.44s.21 1.28-.3 1.6-1.22.12-1.57-.44-.21-1.28.3-1.6M25.87 48.93c.51-.32 1.21-.12 1.56.44s.22 1.28-.3 1.6-1.22.12-1.57-.44-.2-1.28.3-1.6m34.19-19.91.08.36-4.32 2.68-.25-.26zM23.8 51.47q.04.18.11.34l-4.58 2.84-.27-.24zm26.39-15.93-11.01 6.81.42.57 10.88-6.74zm9.98-5.36-.05.44-3.73 2.3-.16-.3zM24.23 52.44l.2.28-4.05 2.51-.4-.16z" clip-rule="evenodd"/><path fill="#414C6D" fill-rule="evenodd" d="M15.74 40.22c8.58 4.57 17.72 5.77 27.66 2.46a537 537 0 0 1-13.34 8.02 4 4 0 0 0-.53-1.6 3.5 3.5 0 0 0-2.5-1.66 2.8 2.8 0 0 1 1.55 1.22c.78 1.25.48 2.85-.67 3.56-1.16.71-2.72.27-3.5-.98-.5-.8-.57-1.79-.18-2.6a3.4 3.4 0 0 0-.02 3.76q.38.61.96 1.04l-.24.12c-1.85 1.04-3.2 1.71-3.61 1.76-1.68.3-3.92-2.22-3.5-3.76.2-.5.42-.97.8-1.57-1.88-2.77-3.17-6.06-2.29-6.9a7 7 0 0 1 1.16-.87l-.76-.71-.97.6a.4.4 0 0 1-.58-.14l-.41-.66a.4.4 0 0 1 .14-.58z" clip-rule="evenodd"/><path fill="#9FB4D9" d="M34.82 30.77a12 12 0 0 1 1.05-.44l3.77 3.54-1.07.43zm1.49-.6q.45-.14.9-.24a16 16 0 0 1 3.6-.38l2.85 2.69-3.6 1.46zm-6.36 4.13 2.58 2.42-3.63 1.44-1.32-1.24a30 30 0 0 1 2.37-2.62"/><path fill="#4E5A7E" fill-rule="evenodd" d="M17.8 46.68c.67-.41 1.68-.33 2.27.18s.53 1.26-.13 1.68l3.76-2.33a.1.1 0 0 1 .14.03l.05.08a.1.1 0 0 1-.04.14l-5.36 3.32-.04-.06-.13-.19a21 21 0 0 1-1.31-2.36zm8.07 2.25c.51-.32 1.21-.12 1.56.44s.22 1.28-.3 1.6-1.22.12-1.57-.44-.2-1.28.3-1.6m9.3-4.5.8-.08-6.83 4.23-.21-.21-.04-.04zm-11.37 7.04.04.12.02.05.02.06.02.05.02.06-4.58 2.84-.14-.12-.02-.02-.12-.1zm13.88-7.36.93-.16-8.89 5.5-.14-.27-.02-.04zm-13.44 8.33.03.04.01.01.02.04.01.01.03.04v.01l.03.04.01.01.03.03v.02l.03.02-4.05 2.51-.4-.16zm15.75-8.79.16-.03.57.72-.12.07z" clip-rule="evenodd"/><path fill="#768BB2" d="M33.15 30.45a13 13 0 0 1 4.35-1.85c4.32-.75 8.78.3 12.2 1.21 4.06-1.55 6.77-2.58 8.25-2.72.5 0 .95.21 1.3.55q.45.43.7 1.09l-.25-.29c-.35-.34-.8-.56-1.3-.57-1.5.1-4.25 1.1-8.38 2.6-3.44-.98-7.93-2.12-12.3-1.43-1.32.2-2.84.85-4.42 1.79-5.93 3.53-6.71 6.85-9.49 9.2-1.7.6-3.32 1.04-4.73 1.58l-.91-.89.24-.14.84.8c1.4-.56 3-1.02 4.66-1.64 2.71-2.39 3.43-5.69 9.24-9.29"/><path fill="#9FB4D9" d="M58.25 27.12q.17.03.33.1a2 2 0 0 1 .5.27l.01.01a2 2 0 0 1 .32.3l.04.05.26.38-.14.1a2 2 0 0 0-1.18-.46q-.78.06-2.04.42z"/><path fill="#fff" d="m32.17 28.53.47-.28.04-.03a20 20 0 0 1 1.25-.65q1.58-.8 3.2-1.09a20 20 0 0 1 2.73-.28h1.34q1.11.03 2.18.14a32 32 0 0 1 2.49.37q2 .39 3.7.85a74 74 0 0 1 6.48-2.29l.55-.13.86-.16.3-.04h.2q.38 0 .66.05l.1.02.27.07.21.07h.03l.12.04.01.01h.02l.31.14.02.01.05.03a4.35 4.35 0 0 1 7.92-2.05l.06.13c-1.75-1.6-3.73-1.83-5.44-.82a4.7 4.7 0 0 0-2.06 3.5l-.05-.04h-.01l-.04-.02L60 26l-.14-.06h-.01q.01 0 0 0l-.01-.01q-.06-.02 0 0h-.01l-.12-.05h-.03l-.21-.08-.28-.07-.1-.02a4 4 0 0 0-.67-.08h-.22l-.3.03-.25.03-.63.1-.57.13c-1.7.41-3.9 1.19-6.68 2.17a54 54 0 0 0-3.77-.95 33 33 0 0 0-2.53-.44 27 27 0 0 0-2.68-.23H39.4a20 20 0 0 0-2.35.2q-1.65.28-3.3 1.03l-.05.03q-.62.28-1.24.62l-.04.02z"/></g><defs><clipPath id="a"><path fill="#fff" d="M0 0h114v76H0z"/></clipPath></defs></svg>