<svg xmlns="http://www.w3.org/2000/svg" data-name="flatten icons" viewBox="0 0 112 112"><path d="M0 0h112v112H0z" style="fill:none;stroke-width:0"/><path d="M58.16 39.24q3.22 1 6 2.65 3.22.19 6.45 1.17c14.7 4.51 24.15 20.53 18.43 34.82-7.9 19.74-26.81 24.79-43.1 22.02a8 8 0 0 1-2.35-.72C25.93 88.2 16.88 75.02 23.37 57.73c5.41-14.42 20.1-23 34.79-18.48Z" style="stroke-width:0;fill:#ff9c4a"/><path d="M84.91 52.92c.5 3.89.07 7.91-1.49 11.81-7.9 19.74-26.81 24.79-43.1 22.02a8 8 0 0 1-2.35-.72C30.99 81.69 25.35 77 21.49 71.85c1.41 10.67 9.59 19.55 22.1 27.33.54.34 1.72.61 2.35.72 16.29 2.77 35.2-2.28 43.1-22.02 3.47-8.67 1.35-17.97-4.13-24.95Z" style="stroke-width:0;fill:#f48660"/><path d="M58.5 103.13q-6.24 0-12.92-2.06l-.67-.19c-.63-.18-1.34-.38-1.85-.59-21.28-8.68-26.11-28.46-21.6-43.16A29.7 29.7 0 0 1 36.01 39.5a29.6 29.6 0 0 1 28.75.42q3.3.26 6.44 1.22c15.68 4.81 24.37 21.19 19.77 37.28a35 35 0 0 1-16.54 20.79 33 33 0 0 1-15.93 3.92M49.97 40c-4.17 0-8.3 1.02-12.09 3.03a25.7 25.7 0 0 0-12.6 15.27c-4 13.02.34 30.55 19.29 38.28.3.12.95.31 1.43.44l.76.22c9.54 2.95 18.45 2.41 25.77-1.55a31 31 0 0 0 14.6-18.37c3.99-13.98-3.52-28.19-17.1-32.36a26 26 0 0 0-5.99-1.08 2 2 0 0 1-.89-.27 26 26 0 0 0-5.57-2.46 26 26 0 0 0-7.6-1.15Z" style="fill:#004241"/><path d="M39.76 77.25a2 2 0 0 1-1.93-1.49 34 34 0 0 1-.92-9.84c.47-13.66 11.13-24.83 24.49-25.95-.98-4.48-.14-11.29 7.71-16.45a2 2 0 0 1 2.77.57 2 2 0 0 1-.57 2.77c-9.18 6.03-5.52 13.81-5.36 14.14a2.02 2.02 0 0 1-1.9 2.89c-.04 0-.5-.02-1.26 0-11.86.43-21.47 10.17-21.89 22.17-.12 3.35.15 6.27.79 8.68a2 2 0 0 1-1.93 2.52Z" style="fill:#004241"/><path d="M66.39 25.54s3.97-17.28-38.36-14.36c0 0 11.4 23.91 38.36 14.36" style="stroke-width:0;fill:#aad681"/><path d="M54.24 29.79c-19.29 0-27.92-17.53-28.02-17.74a2 2 0 0 1 1.67-2.86c19.45-1.35 32.15 1.29 37.75 7.84 3.71 4.34 2.75 8.77 2.7 8.95a2 2 0 0 1-1.28 1.44 38 38 0 0 1-12.82 2.36ZM31.4 12.99c3.7 5.54 14.06 17.18 33.08 11.08a7.5 7.5 0 0 0-1.98-4.54c-3.13-3.56-11.09-7.48-31.1-6.54m34.99 12.55" style="fill:#004241"/><circle cx="65.44" cy="55.14" r="2.21" style="fill:#f7c39f"/><circle cx="57.86" cy="61.86" r="3.96" style="fill:#f7c39f"/></svg>