<svg xmlns="http://www.w3.org/2000/svg" data-name="flatten icons" viewBox="0 0 112 112"><path d="M0 0h112v112H0z" style="fill:none;stroke-width:0"/><path d="M75.95 59.59C82.87 79.35 64.88 87.32 44.47 92S1.12 98.02 2.03 76.52c.75-17.58 12.74-20.33 20.46-43.93 3.82-11.66-6.53-16.6 4.03-19.02 10.91-2.5 3.35 7.45 12.49 16.28 3.47 3.35 10.3 9.86 16.82 13.4 8.45 4.58 16.73 6.67 20.12 16.34" style="stroke-width:0;fill:#f4ece4"/><path d="M23.36 96.84c-7.79 0-13.57-1.63-17.5-4.9C1.7 88.48-.26 83.26.03 76.43c.42-9.97 4.31-15.54 8.82-21.98 3.86-5.52 8.24-11.78 11.74-22.49 1.5-4.59.53-8-.24-10.74-.64-2.26-1.24-4.39-.09-6.34.92-1.55 2.71-2.56 5.81-3.27s5.17-.57 6.71.45c1.97 1.31 2.37 3.62 2.8 6.07.52 3.01 1.17 6.75 4.82 10.28 2.96 2.86 9.88 9.55 16.39 13.08q2.43 1.29 4.81 2.43c6.81 3.32 13.25 6.45 16.25 15.01 2.35 6.71 2.14 12.66-.64 17.69-4.34 7.86-14.3 13.21-32.28 17.33q-12.59 2.89-21.56 2.89Zm6.06-81.66c-.55 0-1.34.08-2.45.34-2.54.58-3.13 1.18-3.26 1.41-.28.47.11 1.86.49 3.21.83 2.92 2.07 7.33.19 13.07-3.69 11.28-8.44 18.07-12.26 23.54-4.32 6.17-7.72 11.04-8.1 19.85-.24 5.59 1.2 9.61 4.4 12.26 5.84 4.86 17.81 5.26 35.6 1.18 10.42-2.38 24.82-6.57 29.68-15.36 2.23-4.04 2.35-8.77.36-14.44-2.46-7.01-7.65-9.54-14.22-12.74q-2.43-1.15-4.96-2.51C47.9 41.2 40.7 34.24 37.63 31.27c-4.59-4.43-5.39-9.08-5.98-12.47-.27-1.57-.53-3.06-1.07-3.42-.13-.09-.45-.22-1.15-.22Z" style="fill:#004241"/><path d="m29.4 96.49-.31-.02c-3.94-.61-11.15-2.65-15.15-9.5-3.68-6.29-3.55-14.79.38-25.26 1.66-4.42 3.1-7.99 4.38-11.14 4.78-11.79 6.22-15.35 2.87-25.24a2 2 0 0 1 1.25-2.54 2 2 0 0 1 2.54 1.25c3.83 11.29 1.98 15.85-2.95 28.02a395 395 0 0 0-4.34 11.05c-3.48 9.29-3.71 16.64-.67 21.84 3.17 5.41 9.07 7.06 12.31 7.56a2 2 0 0 1 1.67 2.28c-.15.99-1 1.69-1.97 1.69Z" style="fill:#004241"/><path d="M40.07 94.79a7 7 0 0 1-3.22-.83l-.46-.21C19.48 86.2 22.9 69.78 26.53 52.39l.81-3.94c2.28-11.21-7.41-29.77-7.51-29.95a2 2 0 0 1 .84-2.7 2 2 0 0 1 2.7.84c.43.81 10.45 20.02 7.89 32.61l-.82 3.96c-3.57 17.13-6.39 30.65 7.57 36.89l.51.23c1.08.5 1.41.66 3.51.18a2 2 0 0 1 2.4 1.5 2 2 0 0 1-1.5 2.4c-1.19.27-2.1.39-2.86.39Zm11.32-2.55a2 2 0 0 1-1.44-3.39c.21-.23 4.6-5.05 2.09-14.47-.92-3.46-3.25-8.32-5.95-13.96-5.4-11.28-12.78-26.73-14.8-43.41a2 2 0 0 1 1.75-2.23 2 2 0 0 1 2.23 1.75c1.93 16.03 9.16 31.13 14.43 42.16 2.78 5.82 5.18 10.84 6.2 14.65 3.14 11.75-2.82 18.03-3.08 18.29a2 2 0 0 1-1.43.6Z" style="fill:#004241"/><path d="M62.21 88.4a2 2 0 0 1-.93-3.77c2.98-1.57 7.85-5.34 6.96-12.96-.81-6.91-1.81-10.91-13.96-19.42-13.18-9.23-20.51-23.53-20.82-24.14a2 2 0 0 1 3.57-1.81c.07.14 7.2 14.02 19.54 22.67 12.79 8.96 14.65 13.88 15.64 22.23.86 7.3-2.44 13.49-9.07 16.97q-.46.23-.93.23" style="fill:#004241"/><path d="M32.05 14.04s.01 1.76-.59 15.01-3.2 24.9-3.2 24.9 3.23-11.75 0-20.29-7.83-18.28-7.83-18.28-2.67-4.36 2.67-4.78 8.44.68 8.95 3.44" style="fill:#aad681"/><path d="M28.25 55.95q-.24 0-.48-.06a2 2 0 0 1-1.47-2.37c.01-.05.45-2.04 1-5.27.52-3.95.75-9.45-.92-13.88a289 289 0 0 0-7.73-18.05c-.34-.59-1.54-2.97-.44-5.12q1.18-2.3 4.73-2.58c8.26-.65 10.58 2.4 11.08 5.07q.03.17.03.35c0 .07 0 1.97-.6 15.12a166 166 0 0 1-2.17 19.63 47 47 0 0 1-1.09 5.7 2 2 0 0 1-1.93 1.47Zm-3.08-43.44q-1.05.01-1.93.08c-1.06.08-1.44.34-1.48.41-.08.17.08.86.36 1.34l.09.18c.04.09 3.98 8.44 7.12 16.41l.11-1.98c.5-10.87.58-13.96.59-14.7-.41-1.41-2.75-1.74-4.87-1.74Zm9.1 89.49h-.19a2 2 0 0 1-1.8-2.18c.58-6.18 6.01-8.55 6.24-8.65a2 2 0 0 1 1.57 3.68c-.17.08-3.48 1.59-3.83 5.34a2 2 0 0 1-1.99 1.81" style="fill:#004241"/><path d="M42.24 103.49a2 2 0 0 1-1.98-1.72c-.04-.25-.83-6.16 2.58-10.93a2 2 0 0 1 2.79-.46 2 2 0 0 1 .46 2.79c-2.45 3.43-1.88 8-1.87 8.04a2 2 0 0 1-1.7 2.26z" style="fill:#004241"/><path d="M53.16 99a2 2 0 0 1-1.95-1.55c-.02-.07-.71-2.52-4.27-4.47a2 2 0 0 1 1.91-3.51c5.14 2.81 6.16 6.66 6.25 7.09a2 2 0 0 1-1.95 2.45Zm8.75-3.33c-.49 0-.99-.18-1.37-.55-2.89-2.74-6.7-3.56-6.73-3.57a2 2 0 0 1 .81-3.91c.2.04 4.93 1.04 8.68 4.58a2 2 0 0 1-1.37 3.46Z" style="fill:#004241"/><path d="M87.25 94.34a4.24 4.24 0 0 1-4.38-4.81c.79-5.69.09-12.66 7.12-17.07 4.73-2.97 6.68-3.78 12.25-3.58a8.08 8.08 0 0 1 7.59 9.7c-.77 3.8-2.35 7.9-5.53 10.34-5.88 4.5-10.15 5.14-17.05 5.42" style="stroke-width:0;fill:#f4efcb"/><path d="M87.07 96.34a6.2 6.2 0 0 1-4.62-2.05 6.2 6.2 0 0 1-1.56-5.04q.18-1.35.3-2.86c.46-5.09 1.04-11.44 7.74-15.63 5.1-3.2 7.48-4.1 13.39-3.88a10.1 10.1 0 0 1 9.47 12.1c-1.07 5.28-3.18 9.16-6.28 11.53-6.53 5-11.44 5.56-18.18 5.83zm13.64-25.5c-3.95 0-5.63.78-9.66 3.3-5.02 3.15-5.43 7.74-5.88 12.61q-.13 1.52-.32 3.04c-.09.67.11 1.31.56 1.8s1.09.77 1.76.73c6.73-.28 10.5-.86 15.91-5.01q3.48-2.67 4.79-9.15a6 6 0 0 0-1.19-5.01 6 6 0 0 0-4.51-2.29l-1.46-.03Z" style="fill:#004241"/><path d="M83.14 87.12s.36 1.63-.06 2.07c-1.27 1.3-2.9 2.46-2.96 4.92-.07 2.89 3.09 2.11 4.91 1.64 1.02-.27 2.33-.72 4.15-1.2 1.65-.43 5-.87 5-.87" style="fill:#aad681"/><path d="M82.31 98.21c-.99 0-1.99-.21-2.81-.86a3.8 3.8 0 0 1-1.38-3.29c.07-2.93 1.77-4.56 3-5.75l.15-.15-.09-.61a2 2 0 1 1 3.9-.86q.6 2.7-.58 3.9l-.61.6c-1.12 1.08-1.75 1.74-1.78 2.97v.06a9 9 0 0 0 2.41-.4q.63-.17 1.44-.42 1.13-.35 2.7-.78c1.75-.46 5.11-.9 5.25-.92a2 2 0 1 1 .52 3.96 57 57 0 0 0-4.76.82q-1.49.4-2.56.73-.9.28-1.6.46c-.86.22-2.04.53-3.22.53Z" style="fill:#004241"/></svg>