<svg xmlns="http://www.w3.org/2000/svg" data-name="flatten icons" viewBox="0 0 112 112"><path d="M0 0h112v112H0z" style="fill:none;stroke-width:0"/><path d="M40.44 34.49s26.62 39.99 35.07 67.27a6.27 6.27 0 0 0 8.03 4.11 14 14 0 0 0 4.76-2.92 6.3 6.3 0 0 0 1.55-7.13c-4.06-9.43-16.92-36.13-43.65-65.98" style="fill:#aad681"/><path d="M81.5 108.22c-1.26 0-2.52-.3-3.68-.88a8.4 8.4 0 0 1-4.21-4.98c-8.27-26.69-34.56-66.35-34.83-66.75a2 2 0 1 1 3.33-2.21c1.09 1.64 26.88 40.54 35.32 67.79a4.3 4.3 0 0 0 2.19 2.6c1.03.52 2.19.59 3.27.22q2.15-.75 4.08-2.51a4.3 4.3 0 0 0 1.07-4.87c-4.25-9.88-16.98-36.04-43.31-65.44a2 2 0 0 1 .16-2.82 2 2 0 0 1 2.82.16c26.72 29.84 39.67 56.46 44 66.53a8.3 8.3 0 0 1-2.04 9.4 16 16 0 0 1-5.45 3.33 8 8 0 0 1-2.71.46Z" style="fill:#004241"/><path d="M36.04 41.42c-2.15-2.66-2.37-12.78-2.37-12.78s9.85 2.34 12 5 1.74 6.56-.92 8.7-6.56 1.74-8.7-.92Z" style="fill:#aad681"/><path d="M40.86 45.72a8.2 8.2 0 0 1-6.38-3.04c-2.45-3.04-2.77-12.19-2.81-13.99-.01-.62.26-1.21.74-1.6s1.12-.53 1.72-.39c1.76.42 10.64 2.65 13.09 5.69 1.37 1.7 2 3.84 1.77 6.01a8 8 0 0 1-3 5.51 8 8 0 0 1-5.14 1.82Zm-3.27-5.55a4.2 4.2 0 0 0 5.89.62c.87-.7 1.41-1.7 1.53-2.82a4 4 0 0 0-.91-3.08c-.86-1.06-4.58-2.54-8.32-3.63.28 3.88.94 7.83 1.8 8.89Z" style="fill:#004241"/><path d="M56.88 52.12c-2.15-2.66-2.37-12.78-2.37-12.78s9.85 2.34 12 5 1.74 6.56-.92 8.7-6.56 1.74-8.7-.92Z" style="fill:#aad681"/><path d="M61.71 56.42q-.44 0-.88-.05a8 8 0 0 1-5.51-3c-2.45-3.04-2.77-12.19-2.81-14-.01-.62.26-1.21.74-1.6s1.12-.54 1.72-.39c1.76.42 10.64 2.65 13.09 5.69a8.2 8.2 0 0 1-1.22 11.52 8 8 0 0 1-5.13 1.82Zm-3.27-5.56a4.17 4.17 0 0 0 5.9.62 4.2 4.2 0 0 0 .63-5.89c-.86-1.06-4.58-2.54-8.32-3.62.28 3.88.94 7.83 1.8 8.89Z" style="fill:#004241"/><path d="M58.32 73.61c-2.15-2.66-2.37-12.78-2.37-12.78s9.85 2.34 12 5 1.74 6.56-.92 8.7-6.56 1.74-8.7-.92Z" style="fill:#aad681"/><path d="M63.15 77.9a8.2 8.2 0 0 1-6.38-3.04c-2.45-3.04-2.77-12.19-2.81-13.99-.01-.62.26-1.21.74-1.6s1.12-.53 1.72-.39c1.76.42 10.64 2.65 13.09 5.69a8 8 0 0 1 1.77 6.01 8 8 0 0 1-3 5.51 8 8 0 0 1-5.14 1.82Zm-5.07-14.45c.28 3.88.94 7.83 1.8 8.89a4.2 4.2 0 0 0 5.89.62c.87-.7 1.41-1.7 1.53-2.82a4 4 0 0 0-.91-3.07c-.86-1.06-4.58-2.54-8.32-3.63Z" style="fill:#004241"/><path d="M24 31.13c-2.15-2.66-2.37-12.78-2.37-12.78s9.85 2.34 12 5 1.74 6.56-.92 8.7-6.56 1.74-8.7-.92Z" style="fill:#aad681"/><path d="M28.83 35.43a7 7 0 0 1-.88-.05 8 8 0 0 1-5.51-3c-2.45-3.04-2.77-12.19-2.81-13.99-.01-.62.26-1.21.74-1.6s1.12-.53 1.72-.39c1.76.42 10.64 2.65 13.09 5.69a8 8 0 0 1 1.77 6.01 8 8 0 0 1-3 5.51 8 8 0 0 1-5.13 1.82Zm-5.07-14.45c.28 3.88.94 7.83 1.8 8.89a4.17 4.17 0 0 0 7.43-2.2 4 4 0 0 0-.91-3.07c-.86-1.06-4.58-2.54-8.32-3.63Z" style="fill:#004241"/><path d="M25.53 18.56c-2.15-2.66-2.37-12.78-2.37-12.78s9.85 2.34 12 5 1.74 6.56-.92 8.7-6.56 1.74-8.7-.92Z" style="fill:#aad681"/><path d="M30.35 22.86a8.2 8.2 0 0 1-6.38-3.04c-2.45-3.04-2.77-12.19-2.81-13.99-.01-.62.26-1.21.74-1.6s1.12-.54 1.72-.39c1.76.42 10.64 2.65 13.09 5.69a8.2 8.2 0 0 1-1.22 11.52 8 8 0 0 1-5.14 1.82Zm-3.27-5.55a4.2 4.2 0 0 0 5.89.62 4.2 4.2 0 0 0 .62-5.89c-.86-1.06-4.58-2.54-8.32-3.62.28 3.88.94 7.83 1.8 8.89Z" style="fill:#004241"/><path d="M42.78 30.06c-2.15-2.66-2.37-12.78-2.37-12.78s9.85 2.34 12 5 1.74 6.56-.92 8.7-6.56 1.74-8.7-.92Z" style="fill:#aad681"/><path d="M47.6 34.36a8.2 8.2 0 0 1-6.38-3.04c-2.45-3.04-2.77-12.19-2.81-13.99-.01-.62.26-1.21.74-1.6s1.12-.53 1.72-.39c1.76.42 10.64 2.65 13.09 5.69 1.37 1.7 2 3.84 1.77 6.01a8 8 0 0 1-3 5.51 8 8 0 0 1-5.14 1.82Zm-3.27-5.55a4.18 4.18 0 1 0 6.51-5.28c-.86-1.06-4.58-2.54-8.32-3.63.28 3.88.94 7.83 1.8 8.89Z" style="fill:#004241"/><path d="M36.87 19.05C34.72 16.39 34.5 6.27 34.5 6.27s9.85 2.34 12 5 1.74 6.56-.92 8.7-6.56 1.74-8.7-.92Z" style="fill:#aad681"/><path d="M41.7 23.35q-.43 0-.88-.05a8 8 0 0 1-5.51-3c-2.45-3.04-2.77-12.19-2.81-13.99-.01-.62.26-1.21.74-1.6s1.12-.53 1.72-.39c1.76.42 10.64 2.65 13.09 5.69 1.37 1.7 2 3.84 1.77 6.01a8 8 0 0 1-3 5.51 8 8 0 0 1-5.13 1.82ZM36.63 8.9c.28 3.88.94 7.83 1.8 8.89a4.23 4.23 0 0 0 5.9.62c.87-.7 1.41-1.7 1.53-2.82a4 4 0 0 0-.91-3.08c-.86-1.06-4.58-2.54-8.32-3.63Z" style="fill:#004241"/><path d="M33.45 28.36c-2.15-2.66-2.37-12.78-2.37-12.78s9.85 2.34 12 5a6.18 6.18 0 1 1-9.62 7.78Z" style="fill:#aad681"/><path d="M38.28 32.66q-.43 0-.88-.05a8 8 0 0 1-5.51-3c-2.45-3.04-2.77-12.19-2.81-13.99-.01-.62.26-1.21.74-1.6s1.12-.53 1.72-.39c1.76.42 10.64 2.65 13.09 5.69 1.37 1.7 2 3.84 1.77 6.01a8 8 0 0 1-3 5.51 8 8 0 0 1-5.13 1.82Zm-5.07-14.45c.28 3.88.94 7.83 1.8 8.89a4.18 4.18 0 1 0 6.52-5.28c-.86-1.06-4.58-2.54-8.32-3.63Z" style="fill:#004241"/></svg>