<svg xmlns="http://www.w3.org/2000/svg" data-name="flatten icons" viewBox="0 0 112 112"><path d="M0 0h112v112H0z" style="fill:none;stroke-width:0"/><path d="M82.55 56.95C70.15 52.43 61 41.56 54.32 30.33c-.27-.46-.86-1.52-1.13-1.95q-.04-.07-.04-.04l-.03.02C45.02 4.15 10.05 14.34 16.2 39.09c.49 2.19 1.12 4.92 1.71 7.06 4.26 15.4 10.99 29.75 21.31 42.36l3.22 3.75c1.66 1.78 3.63 3.64 5.37 5.39 2.2 1.9 4.43 4.12 6.84 5.74 18.81 12.65 35.64 6 42.38-10.57a27.36 27.36 0 0 0-14.47-35.88Z" style="stroke-width:0;fill:#9a82d6"/><path d="M97.02 92.83a28 28 0 0 0 1.83-6.31c-2.81 3.39-3.25 14.32-26.98 12.29-8.74-.75-17.02-6.39-24.12-14-4.32-4.63-5.43-9.99-8.72-15.41-2.01-3.32-6.57-6.66-8.1-9.88-.81-1.71-.54-5.75-1.2-7.36-3.42-8.38-5.71-12.82-4.11-14.87 3.83-4.88 5.96-16.36 5.96-16.36l-3.11-5.3c-8.59 2.9-15.26 11.47-12.28 23.46.49 2.19 1.12 4.92 1.71 7.06 4.26 15.4 10.99 29.75 21.31 42.36l3.22 3.75c1.66 1.78 3.63 3.64 5.37 5.39 2.2 1.9 4.44 4.12 6.84 5.74 18.81 12.65 35.64 6 42.38-10.57Z" style="stroke-width:0;fill:#735daa"/><path d="M73.71 112.01c-6.48 0-13.34-2.34-20.19-6.95a48 48 0 0 1-5.24-4.3q-.9-.82-1.79-1.59l-.11-.1q-.87-.89-1.81-1.79a112 112 0 0 1-3.6-3.65l-3.27-3.81c-9.96-12.16-17.05-26.26-21.72-43.13-.63-2.31-1.29-5.17-1.73-7.16-3.48-13.99 5.08-23.34 14.51-26.08 9.32-2.71 21.4.49 26.1 13.84l.02.04c.17.27.45.77.72 1.23l.44.76c7.99 13.43 17.14 22.1 27.2 25.76l.1.04a29 29 0 0 1 15.74 16.04 29.2 29.2 0 0 1-.21 22.47c-3.56 8.76-9.82 14.91-17.63 17.29a26 26 0 0 1-7.51 1.11ZM49.16 96.19q.89.78 1.79 1.6c1.56 1.4 3.17 2.85 4.8 3.95 8.53 5.74 16.94 7.58 24.3 5.33 6.63-2.02 12-7.35 15.1-15a25.2 25.2 0 0 0 .19-19.44A25.2 25.2 0 0 0 81.79 58.8c-10.93-4-20.75-13.24-29.21-27.46l-.47-.82-.47-.81q-.3-.31-.44-.73c-2.63-7.86-10.43-14.88-21.34-11.71S16.12 30.55 18.12 38.6c.45 2 1.09 4.8 1.69 7.02 4.51 16.32 11.36 29.93 20.93 41.62l3.19 3.72c1.01 1.09 2.24 2.29 3.42 3.46l1.79 1.77Z" style="fill:#004241"/><path d="M30.92 20.93s13.04 8.62 21.16 2.02c0 0-2.29-9.03-12.64-12.02-6.35-1.84-7.88-4.82-8.12-6.85A2.35 2.35 0 0 0 28.94 2a2.3 2.3 0 0 0-2.2 2.29c0 1.09-.21 2.54-.91 4.25a13.8 13.8 0 0 1-5.91 6.56c-6.5 3.8-8.06 8.03-6.67 16.78 0 0 8.69 2 17.66-10.95Z" style="fill:#aad681"/><path d="M14.59 33.99c-1.04 0-1.68-.14-1.78-.16a2 2 0 0 1-1.53-1.64c-1.54-9.7.46-14.63 7.63-18.82a11.7 11.7 0 0 0 5.07-5.59q.75-1.83.76-3.51a4.3 4.3 0 0 1 8.58-.43c.25 2.15 2.62 3.99 6.69 5.16 11.32 3.28 13.91 13.04 14.02 13.45.19.75-.07 1.55-.68 2.04-7.41 6.02-17.85 1.3-21.87-.92-6.94 9.18-13.74 10.41-16.88 10.41ZM29.04 4c-.16 0-.28.14-.28.3a14 14 0 0 1-1.06 5 15.7 15.7 0 0 1-6.75 7.53c-5.32 3.11-6.79 6.2-5.93 13.17 2.49-.1 8.18-1.42 14.26-10.21a2 2 0 0 1 2.75-.53c.14.09 10.71 6.93 17.67 2.92-1-2.35-3.86-7.32-10.8-9.33-7.31-2.12-9.23-5.81-9.55-8.54-.02-.16-.17-.31-.3-.31Z" style="fill:#004241"/><path d="M32 14.78s.96 4.12-2.28 7.79" style="fill:#aad681"/><path d="M29.72 24.57a2 2 0 0 1-1.5-3.32 7.4 7.4 0 0 0 1.83-6.02 2 2 0 0 1 3.9-.9c.05.21 1.15 5.17-2.73 9.57a2 2 0 0 1-1.5.68Z" style="fill:#004241"/><path d="M88.54 83.68q-.15 0-.29-.02a2 2 0 0 1-1.69-2.27 11.6 11.6 0 0 0-5.68-12.16 2 2 0 0 1-.87-2.69 2 2 0 0 1 2.67-.88 15.6 15.6 0 0 1 7.83 16.31 2 2 0 0 1-1.98 1.71Z" style="stroke-width:0;fill:#fff"/></svg>