<svg xmlns="http://www.w3.org/2000/svg" data-name="flatten icons" viewBox="0 0 112 112"><path d="M0 0h112v112H0z" style="fill:none;stroke-width:0"/><path d="M24.37 19.11s-12.14 7.86-8.23 24.93c3.19 13.95 3.7 13.92 3.7 24.44s-1.23 23.48 14.4 33.35 40.83-.21 47.26-5.34" style="fill:#4a7c38"/><path d="M50.49 108.01c-6.12 0-12.18-1.24-17.32-4.49-15.52-9.8-15.42-22.61-15.34-32.9l.01-2.14c0-8.49-.3-9.75-2.23-17.93l-1.42-6.07c-2.17-9.48.38-16.31 2.9-20.37a23 23 0 0 1 6.19-6.69c.93-.6 2.17-.33 2.77.59.6.93.34 2.16-.59 2.76-.45.3-10.9 7.39-7.37 22.81l1.41 6.04c1.94 8.19 2.34 9.9 2.34 18.85l-.01 2.17c-.08 9.78-.16 20.87 13.48 29.49 7.97 5.03 18.31 4.24 25.6 2.69 8.36-1.78 16.21-5.4 19.35-7.9a2 2 0 0 1 2.81.32 2 2 0 0 1-.32 2.81C77.87 101.94 64.03 108 50.5 108Z" style="fill:#004241"/><path d="M60.9 23.72a22 22 0 0 0-2.13-3.79 21.5 21.5 0 0 0-27.94-6.36 21.4 21.4 0 0 0-5.59 32.91c5.59 6.33 9.11 14.31 8.97 22.75a31 31 0 0 0 6.29 19.29 31.33 31.33 0 0 0 41.01 7.96A31.2 31.2 0 0 0 91.66 52.8a31 31 0 0 0-13.63-11.65A33.5 33.5 0 0 1 60.91 23.7Z" style="stroke-width:0;fill:#7dbc68"/><path d="M65.57 102.88a33.4 33.4 0 0 1-26.68-13.14c-4.5-6-6.82-13.09-6.69-20.53.13-7.48-2.88-15.08-8.47-21.4a24 24 0 0 1-2.15-2.84 23.5 23.5 0 0 1-3.04-18.34 23.3 23.3 0 0 1 11.31-14.8 23.6 23.6 0 0 1 30.56 6.96q1.38 1.96 2.33 4.14a31.6 31.6 0 0 0 16.09 16.42 33 33 0 0 1 14.51 12.39 33 33 0 0 1 4.44 25.51 33 33 0 0 1-32.2 25.63ZM41.15 12.89a19.3 19.3 0 0 0-18.74 14.69 19.2 19.2 0 0 0 4.31 17.57c6.25 7.07 9.61 15.63 9.47 24.11a29 29 0 0 0 5.89 18.06c8.86 11.8 25.72 15.07 38.38 7.45 6.85-4.12 11.61-10.67 13.41-18.44s.42-15.74-3.91-22.44a29 29 0 0 0-12.76-10.9 35.6 35.6 0 0 1-18.15-18.48 19 19 0 0 0-1.94-3.44 19.6 19.6 0 0 0-15.98-8.19Z" style="fill:#004241"/><path d="M78.17 90.97c5.8-3.5 9.84-9.05 11.37-15.63a24.6 24.6 0 0 0-3.31-19.03 24.7 24.7 0 0 0-10.81-9.24A40 40 0 0 1 54.99 26.3q-.6-1.4-1.5-2.66a15.1 15.1 0 0 0-19.52-4.44 15 15 0 0 0-7.24 9.47 14.8 14.8 0 0 0 3.33 13.55c6.99 7.9 10.75 17.54 10.59 27.13a24.6 24.6 0 0 0 5 15.31 24.97 24.97 0 0 0 32.53 6.31Z" style="stroke-width:0;fill:#c6eaa0"/><path d="M76.04 87.42a20.5 20.5 0 0 0 9.47-13.02 20.5 20.5 0 0 0-2.76-15.84 20.5 20.5 0 0 0-9-7.69 44 44 0 0 1-22.56-22.9q-.44-1.01-1.09-1.93a10.9 10.9 0 0 0-14.11-3.21 10.8 10.8 0 0 0-5.25 6.85 10.7 10.7 0 0 0 1.41 8.48q.45.7 1 1.32c7.68 8.68 11.81 19.32 11.63 29.95a20.5 20.5 0 0 0 4.17 12.76 20.8 20.8 0 0 0 27.08 5.24Z" style="stroke-width:0;fill:#e3f4b5"/><circle cx="65.84" cy="68.48" r="14.22" style="stroke-width:0;fill:#d3b062"/><path d="M77.73 60.68q.07.7.07 1.42a14.22 14.22 0 0 1-26.11 7.79 14.21 14.21 0 1 0 26.04-9.22Z" style="stroke-width:0;fill:#b79249"/><path d="M65.84 84.7c-8.94 0-16.22-7.28-16.22-16.22s7.28-16.22 16.22-16.22 16.22 7.28 16.22 16.22S74.78 84.7 65.84 84.7m0-28.44a12.23 12.23 0 0 0 0 24.44 12.23 12.23 0 0 0 0-24.44" style="fill:#004241"/><path d="m28.2 14.91-.99-1.45A23.6 23.6 0 0 0 18.86 6" style="fill:#4a7c38"/><path d="M28.2 16.91c-.64 0-1.26-.3-1.65-.87l-.99-1.45a21.6 21.6 0 0 0-7.64-6.83 2 2 0 0 1-.82-2.71 2 2 0 0 1 2.71-.82 26 26 0 0 1 9.06 8.09l.99 1.45a2 2 0 0 1-1.65 3.13Z" style="fill:#004241"/></svg>