<svg xmlns="http://www.w3.org/2000/svg" viewBox="0 0 112 112"><path d="M0 0h112v112H0z" style="fill:none;stroke-width:0"/><path d="m50.6 23.14.03.1c.02.07-3.72 45.99 41.44 57 28.32 6.9 20.7 29.07-6.15 25.78-30.79-3.77-55.44-26.03-61.34-56.1a76 76 0 0 1-.8-26.64l.37-2.17c5.3-22.36 28.19-25.89 26.42 2.06 0 0 .03-.05.04-.03Z" style="stroke-width:0;fill:#f4f0df"/><path d="M90.74 108.32q-2.54 0-5.07-.31c-31.71-3.89-57.05-27.07-63.06-57.7a78 78 0 0 1-.82-27.33l.37-2.2.03-.13C25.49 6.73 34.76.33 41.83 1.39c2.79.42 11.75 3.19 10.75 21.45q.06.32.04.6c-.27 4.55-1.41 44.79 39.92 54.87 13.16 3.21 20.73 10.36 19.29 18.22-1.48 8.08-11.03 11.8-21.09 11.8ZM26.1 21.51l-.35 2.11a74 74 0 0 0 .79 25.92c5.67 28.93 29.63 50.83 59.62 54.51 12.85 1.58 20.79-3.07 21.74-8.23 1.16-6.38-7.35-11.43-16.31-13.62C48.14 71.61 48.31 30.09 48.6 23.61q-.06-.27-.04-.56c.64-10.15-2.16-16.93-7.32-17.7-5.36-.81-12.48 5.03-15.14 16.17Z" style="stroke-width:0;fill:#004241"/><path d="M85.92 106.02c26.85 3.29 34.46-18.88 6.15-25.78C77.2 76.61 67.63 69.2 61.49 60.89L32.76 71.57c10.95 18.72 30.37 31.66 53.17 34.45Z" style="stroke-width:0;fill:#f4d553"/><path d="M90.74 108.32q-2.54 0-5.07-.31c-23.23-2.85-43.15-15.76-54.65-35.43a2 2 0 0 1 1.03-2.88l28.73-10.68a2 2 0 0 1 2.3.69c6.83 9.24 16.74 15.5 29.45 18.59 9.99 2.44 21.04 8.67 19.29 18.22-1.48 8.08-11.03 11.79-21.09 11.8ZM35.72 72.6c11.02 17.43 29.27 28.84 50.44 31.43 12.85 1.58 20.79-3.07 21.74-8.23 1.16-6.38-7.35-11.43-16.31-13.62-13.09-3.19-23.44-9.55-30.8-18.9z" style="stroke-width:0;fill:#004241"/><path d="M91.09 95.63q1.42.14 2.89.2" style="stroke-width:0;fill:#f4d553"/><path d="M93.98 97.84h-.09q-1.5-.06-2.99-.21a2 2 0 0 1-1.8-2.18 2 2 0 0 1 2.19-1.8q1.39.14 2.78.2a2 2 0 0 1 1.91 2.08 2 2 0 0 1-2 1.91" style="stroke-width:0;fill:#004241"/><path d="M43.25 67.67S58.56 88.09 82.8 94.19" style="stroke-width:0;fill:#f4d553"/><path d="M82.8 96.19q-.24 0-.49-.06c-24.64-6.2-40.02-26.4-40.66-27.26-.66-.88-.48-2.14.4-2.8s2.14-.48 2.8.4c.15.2 15.21 19.94 38.44 25.78a2 2 0 0 1-.49 3.94" style="stroke-width:0;fill:#004241"/><path d="M47.51 66.09s-18.69-15.21-32.2-5.19C-1.33 73.23 11.98 97.43 2 106.36c0 0 3.74 7.38 16.22-3.91s4.03-26.98 14.53-30.88z" style="stroke-width:0;fill:#efe8c7"/><path d="M6.52 110.73q-.78 0-1.51-.14a6.8 6.8 0 0 1-4.79-3.33 2 2 0 0 1 .45-2.39c3.68-3.29 3.61-9.49 3.52-16.66-.12-10.01-.26-21.36 9.93-28.91 6.11-4.53 14.1-5.02 23.1-1.41a49 49 0 0 1 11.55 6.66 2 2 0 0 1-.57 3.43l-14.76 5.48c-3.81 1.42-4.4 4.62-5.18 10.63-.79 6.05-1.77 13.58-8.7 19.86-4.99 4.52-9.37 6.79-13.05 6.79Zm-1.75-4.41q.42.24 1.06.35c1.51.25 4.95-.18 11.05-5.71 5.84-5.29 6.68-11.72 7.42-17.41.74-5.67 1.5-11.54 7.75-13.86l11.2-4.16c-5.54-3.56-17.67-9.77-26.76-3.03-8.55 6.34-8.43 16.16-8.32 25.65.08 6.98.17 13.62-3.42 18.17Z" style="stroke-width:0;fill:#004241"/><path d="M47.51 66.09s.26-21.77 15.51-25.81 23.93 7.82 29.51 15.75c4.14 5.88 14.67 15.81-1.82 10.95-4.05-1.19-7.23-4.29-10.13-7.35-7.02-7.42-19.1 1.26-19.1 1.26l-13.97 5.19Z" style="stroke-width:0;fill:#efe8c7"/><path d="M97.36 70.29c-1.74 0-4.08-.46-7.21-1.39-4.53-1.34-7.93-4.63-11.02-7.9-5.73-6.05-16.37 1.44-16.48 1.51q-.21.16-.47.25l-13.97 5.19a2 2 0 0 1-1.85-.24 2 2 0 0 1-.85-1.66c0-.24.09-5.83 2.14-12 2.8-8.45 7.94-13.89 14.86-15.72 16.89-4.47 26.5 9.2 31.66 16.54a68 68 0 0 0 2.47 3.21c3.38 4.24 6.29 7.9 4.49 10.58-.72 1.08-1.9 1.61-3.77 1.61ZM73.39 54.63c3.43 0 6.37 1.22 8.65 3.62 2.72 2.87 5.67 5.75 9.24 6.81 3.72 1.09 5.47 1.24 6.24 1.22-.59-1.39-2.77-4.13-4.01-5.7a70 70 0 0 1-2.61-3.41C84.24 47.7 76.64 38.74 63.54 42.2c-10.38 2.74-13.08 15.12-13.78 20.91l10.8-4.01c.82-.56 3.68-2.39 7.24-3.53q2.97-.95 5.59-.95Z" style="stroke-width:0;fill:#004241"/><path d="M91.33 67.17c15.6 4.42 5.28-5.32 1.2-11.13-2.7-3.83-6.12-8.58-10.66-12.01a8 8 0 0 0-4.74-1.61c-16 .07-20.86 20.42-20.86 20.42l5.21-1.94s13.05-9.38 19.9-.31a18.8 18.8 0 0 0 9.94 6.57Z" style="stroke-width:0;fill:#f4d553"/><path d="M97.34 70.28c-1.63 0-3.76-.4-6.55-1.19A21 21 0 0 1 79.8 61.8c-5.6-7.4-16.67.39-17.14.72q-.21.15-.47.25l-5.21 1.94a2 2 0 0 1-2.7-1.87c0-.22 4.95-22.34 22.85-22.42h.04c2.09 0 4.19.71 5.91 2.02 4.58 3.46 7.99 8.05 11.09 12.46a68 68 0 0 0 2.47 3.21c3.37 4.23 6.28 7.89 4.5 10.57-.72 1.08-1.91 1.61-3.79 1.61Zm-5.46-5.04c3.31.94 4.91 1.08 5.64 1.04-.59-1.39-2.77-4.13-4.01-5.7a75 75 0 0 1-2.61-3.4c-2.29-3.26-5.76-8.19-10.23-11.57a6 6 0 0 0-3.5-1.21h-.02c-10.17.05-15.45 9.59-17.65 15.09l1.05-.39c5.16-3.61 16.18-8.02 22.44.27a17 17 0 0 0 8.89 5.86Z" style="stroke-width:0;fill:#004241"/><path d="M31.31 36.14a2 2 0 0 1-2-2 59 59 0 0 1 1.51-13.37 2 2 0 0 1 2.43-1.45 2 2 0 0 1 1.45 2.43c-.01.06-1.4 5.67-1.39 12.39a2 2 0 0 1-2 2" style="stroke-width:0;fill:#fff"/></svg>