<svg xmlns="http://www.w3.org/2000/svg" data-name="flatten icons" viewBox="0 0 112 112"><path d="M0 0h112v112H0z" style="fill:none;stroke-width:0"/><path d="m33.03 52.76 19.82 18.53c0-5.84-5.12-20.09-5.12-20.09l5.81-1.78 8.44 24.45c.89-10.02 9.21-23.42 9.21-23.42l7.99 1.5c-4.91 6.14-9.03 20.15-8.51 32.66.42 10.18 5.12 19.82 5.12 19.82s-2.23 5.62-14.03 5.57c-13.16-.05-11.14-6.01-11.14-6.01s2.92-15.37-4.46-26.95C40.27 67.79 27.9 60.33 27.9 60.33" style="fill:#aad681"/><path d="M61.9 112h-.15c-6.23-.03-10.34-1.36-12.2-3.96a5.4 5.4 0 0 1-.88-4.49c.19-1.14 2.4-15.07-4.19-25.43-5.56-8.74-17.49-16-17.61-16.07a2 2 0 0 1 2.06-3.43c.52.31 12.85 7.81 18.92 17.35 7.71 12.11 4.86 27.74 4.73 28.4l-.07.27c0 .04-.11.56.34 1.15.51.66 2.4 2.2 8.91 2.23h.14c7.6 0 10.61-2.52 11.61-3.73-1.24-2.82-4.49-10.95-4.85-19.58-.45-10.97 2.52-23.71 7.12-31.35l-3.59-.67c-1.98 3.41-7.53 13.6-8.22 21.37a2 2 0 0 1-1.75 1.81 2 2 0 0 1-2.13-1.33l-7.81-22.63-1.98.61c1.43 4.2 4.55 13.97 4.55 18.79a2 2 0 0 1-3.36 1.46L31.67 54.24a2 2 0 1 1 2.73-2.92l15.66 14.64a140 140 0 0 0-4.21-14.06 2 2 0 0 1 1.29-2.59l5.81-1.78a2 2 0 0 1 2.48 1.26l6.11 17.69c2.66-8.48 7.68-16.62 7.95-17.06a2 2 0 0 1 2.07-.91l7.99 1.5a2 2 0 0 1 1.2 3.22c-4.38 5.47-8.6 18.69-8.07 31.33.4 9.65 4.88 18.94 4.92 19.03.25.5.27 1.09.06 1.61-.11.28-2.86 6.83-15.75 6.83Z" style="fill:#004241"/><path d="M86.9 36.55a14.67 14.67 0 0 0-3.45-19.72 15 15 0 0 0-5.32-2.51l.01-.25a7.1 7.1 0 0 0-7.08-7.08q-1.2.01-2.27.38a12.53 12.53 0 0 0-22.11 3.1 14.66 14.66 0 0 0-12.44 26.49l-.11.14a12.53 12.53 0 0 0 17.18 17.79q.88 1.05 2.02 1.91a12.5 12.5 0 0 0 17.16-2.01A12.52 12.52 0 0 0 86.9 36.55" style="fill:#73cc64"/><path d="M60.85 61.32a14.5 14.5 0 0 1-9.86-3.89 14.5 14.5 0 0 1-15.6-1.2 14.4 14.4 0 0 1-5.64-9.58c-.45-3.17.15-6.33 1.69-9.08l-.23-.17a16.7 16.7 0 0 1-3.28-23.35 16.7 16.7 0 0 1 17.63-6.06q.59-1.17 1.37-2.21a14.55 14.55 0 0 1 22.65-.67q.74-.12 1.48-.12c4.58 0 8.37 3.4 8.99 7.81q2.51.86 4.6 2.43a16.7 16.7 0 0 1 4.61 21.25 14.6 14.6 0 0 1-.82 16.27 14.5 14.5 0 0 1-17.53 4.51 14.5 14.5 0 0 1-10.07 4.06Zm-9.54-8.44a2 2 0 0 1 1.53.71q.79.92 1.69 1.61a10.5 10.5 0 0 0 14.41-1.69 2 2 0 0 1 2.56-.44 10.5 10.5 0 0 0 13.75-2.73c2.79-3.7 2.81-8.88.04-12.6a2 2 0 0 1-.07-2.29 12.6 12.6 0 0 0-7.57-19.19 2 2 0 0 1-1.52-2.01v-.17a5.07 5.07 0 0 0-6.7-4.82 2 2 0 0 1-2.29-.75 10.47 10.47 0 0 0-17.03-.33q-1 1.33-1.55 2.93a2 2 0 0 1-2.64 1.21 12.7 12.7 0 0 0-14.82 4.13 12.7 12.7 0 0 0 4.07 18.75 2 2 0 0 1 1 1.35 2 2 0 0 1-.51 1.79 10.5 10.5 0 0 0 2.11 14.69 10.5 10.5 0 0 0 12.37.21q.54-.36 1.15-.36Z" style="fill:#004241"/><path d="M49.29 46.04a6.76 6.76 0 0 0-6.2-6.74q.35-1.2.36-2.52a9.25 9.25 0 0 0-18.2-2.29l-.52.21a6.75 6.75 0 1 0-9.11 9.9 10.7 10.7 0 1 0 14.92 14.41 6.76 6.76 0 0 0 12-4.27" style="fill:#73cc64"/><path d="M21.21 66.44a12.72 12.72 0 0 1-8.59-22.07 8.7 8.7 0 0 1-1.63-5.09 8.77 8.77 0 0 1 13.17-7.56 11.2 11.2 0 0 1 10.03-6.17A11.27 11.27 0 0 1 45.4 37.78a8.8 8.8 0 0 1 5.89 8.27c0 1.1-.9 2-2 2s-2-.9-2-2a4.8 4.8 0 0 0-4.37-4.74 2 2 0 0 1-1.76-2.53 7.26 7.26 0 0 0-6.97-9.22 7.2 7.2 0 0 0-7.01 5.45 2 2 0 0 1-1.22 1.37l-.11.04-.32.13a2 2 0 0 1-2.28-.48 4.7 4.7 0 0 0-3.5-1.54 4.76 4.76 0 0 0-2.92 8.52 2 2 0 0 1-.18 3.28 8.72 8.72 0 1 0 12.13 11.71 2 2 0 0 1 3.29-.27 4.7 4.7 0 0 0 3.69 1.76 4.76 4.76 0 0 0 4.76-4.76c0-1.1.9-2 2-2s2 .9 2 2a8.77 8.77 0 0 1-13.67 7.26 12.7 12.7 0 0 1-9.64 4.43Z" style="fill:#004241"/><path d="M72.44 49.61A9.7 9.7 0 0 0 79.98 46a8.27 8.27 0 0 0 14.38-7.65 9.68 9.68 0 0 0-3.96-18.91v-.12a8.27 8.27 0 0 0-16.13-2.55 8.26 8.26 0 0 0-10.07 7.67 8.26 8.26 0 0 0-7.34 8.21" style="fill:#73cc64"/><path d="M72.44 51.61c-1.1 0-2-.9-2-2s.9-2 2-2a7.7 7.7 0 0 0 5.98-2.87c.38-.47.98-.77 1.57-.74.61 0 1.19.29 1.56.77a6.27 6.27 0 0 0 10.9-5.8 2 2 0 0 1 1.38-2.55 7.7 7.7 0 0 0 5.67-7.41 7.7 7.7 0 0 0-8.82-7.6 2 2 0 0 1-1.61-.47 2 2 0 0 1-.68-1.53v-.18a6.27 6.27 0 0 0-6.27-6.19 6.2 6.2 0 0 0-5.96 4.34 2 2 0 0 1-2.34 1.33 6.22 6.22 0 0 0-7.64 5.81 2 2 0 0 1-1.78 1.89 6.26 6.26 0 0 0-5.56 6.23c0 1.1-.9 2-2 2s-2-.9-2-2c0-4.69 3.15-8.7 7.54-9.9 1-4.89 5.46-8.49 10.63-8.17a10.2 10.2 0 0 1 9.11-5.53c4.98 0 9.15 3.56 10.08 8.28A11.7 11.7 0 0 1 103.5 29c0 4.61-2.73 8.74-6.82 10.62q.08.64.08 1.3a10.29 10.29 0 0 1-16.79 7.93 11.6 11.6 0 0 1-7.54 2.76Z" style="fill:#004241"/><path d="M49.29 78.52s-5-1.48-8.55 1.19 1.97 6.5 8.55 4.02" style="fill:#aad681"/><path d="M45.08 86.53c-3.32 0-5.97-1.34-6.98-3.17-.98-1.79-.42-3.85 1.43-5.25 4.31-3.24 10.08-1.58 10.33-1.51a2 2 0 0 1 1.35 2.49 2 2 0 0 1-2.48 1.35c-.06-.02-4.12-1.15-6.79.87q-.19.15-.26.23c.55.68 3.31 1.67 6.91.32A2 2 0 0 1 50 85.61a14 14 0 0 1-4.91.93Z" style="fill:#004241"/><path d="M70.28 83.54s4.38-2.84 4.65-7.28-6.22-2.72-8.61 3.89" style="fill:#aad681"/><path d="M70.28 85.54a2 2 0 0 1-1.1-3.67c.05-.03 3.54-2.38 3.75-5.72v-.35c-.88.02-3.42 1.43-4.73 5.04a2 2 0 0 1-2.56 1.2 2 2 0 0 1-1.2-2.56c1.98-5.48 6.44-8.21 9.43-7.58 2 .42 3.2 2.18 3.06 4.49-.33 5.38-5.35 8.69-5.56 8.83q-.52.32-1.09.32" style="fill:#004241"/></svg>