<svg xmlns="http://www.w3.org/2000/svg" data-name="flatten icons" viewBox="0 0 112 112"><path d="M0 0h112v112H0z" style="fill:none;stroke-width:0"/><path d="m59.36 9.06 1.47 1.92a64 64 0 0 1 11.5 24.35 3.8 3.8 0 0 0 2.82 2.05l5.4.02c5.75.02 11.47.81 17.01 2.36l6.58 1.84a3.75 3.75 0 0 1 2.08 6.39l-7.23 8.31a64 64 0 0 1-9.42 8.83l-4.33 3.31a3.8 3.8 0 0 0-1.08 3.32l1.76 5.44A64 64 0 0 1 89 95.44l.12 5.19a3.75 3.75 0 0 1-5.44 3.95l-7.16-2.75a64 64 0 0 1-13.92-7.45l-4.85-3.43a3.8 3.8 0 0 0-3.49 0l-2.8 2.13a64 64 0 0 1-17.11 9.33l-6.03 2.17a3.75 3.75 0 0 1-5.44-3.95l.29-6.52c.23-5.22 1.1-10.4 2.6-15.41l2.07-6.95a3.7 3.7 0 0 0-1.08-3.32l-4.57-3.33A64 64 0 0 1 9.03 52.23l-3.24-4.24a3.75 3.75 0 0 1 2.08-6.39l6.5-1.82a64 64 0 0 1 17-2.37l5.5-.02a3.7 3.7 0 0 0 2.82-2.05l.2-.78a64 64 0 0 1 9.87-21.41l2.9-4.08a3.74 3.74 0 0 1 6.72 0Z" style="stroke-width:0;fill:#fff594"/><path d="M56.07 21.68a54 54 0 0 1 6.52 15.92l.26 1.12.51 1.03c2 4.06 5.87 6.87 10.35 7.52l.7.1h.71l5.4.02q5.97.02 11.79 1.34l-.87.99a54 54 0 0 1-7.94 7.45l-4.33 3.31-.48.37-.43.42a13.7 13.7 0 0 0-3.95 12.17l.12.7.22.68 1.76 5.44a54 54 0 0 1 2.39 11.7 54 54 0 0 1-10.43-5.76l-4.85-3.43-.54-.38-.58-.31c-1.97-1.03-4.18-1.58-6.4-1.58s-4.43.55-6.4 1.58l-.74.39-.67.51-2.8 2.13a54 54 0 0 1-12.06 6.95q.48-5.37 2.02-10.53l2.07-6.95.17-.57.1-.59c.77-4.46-.71-9.01-3.95-12.17l-.51-.5-.58-.42L28.08 57a54 54 0 0 1-8.91-8.17c4-.95 8.11-1.44 12.23-1.45l5.5-.02h.7l.7-.1a13.7 13.7 0 0 0 10.35-7.52l.47-.95.26-1.03.2-.78a54 54 0 0 1 6.5-15.31m-.07-14.71a3.7 3.7 0 0 0-3.36 2.09l-2.9 4.08a64 64 0 0 0-9.87 21.41l-.2.78a3.8 3.8 0 0 1-2.82 2.05l-5.5.02c-5.75.02-11.46.82-17 2.37l-6.5 1.82a3.75 3.75 0 0 0-2.08 6.39l3.24 4.24a64 64 0 0 0 13.16 12.87l4.57 3.33c.88.86 1.29 2.1 1.08 3.32l-2.07 6.95a65 65 0 0 0-2.6 15.41l-.29 6.52a3.75 3.75 0 0 0 5.44 3.95l6.03-2.17a64 64 0 0 0 17.11-9.33l2.8-2.13a3.7 3.7 0 0 1 3.48 0l4.85 3.43a64 64 0 0 0 13.92 7.45l7.16 2.75q.87.44 1.75.44a3.75 3.75 0 0 0 3.69-4.39l-.12-5.19a64 64 0 0 0-3.08-18.24l-1.76-5.44a3.7 3.7 0 0 1 1.08-3.32l4.33-3.31a65 65 0 0 0 9.42-8.83l7.23-8.31a3.75 3.75 0 0 0-2.08-6.39l-6.58-1.84a64 64 0 0 0-17.01-2.36l-5.4-.02a3.7 3.7 0 0 1-2.82-2.05 64 64 0 0 0-11.5-24.35l-1.47-1.92a3.7 3.7 0 0 0-3.36-2.09Z" style="stroke-width:0;fill:#feda00"/><path d="M26.57 107.02a5.7 5.7 0 0 1-3.37-1.1 5.7 5.7 0 0 1-2.31-5.49l.28-6.4a66 66 0 0 1 2.68-15.89l2.03-6.81c.06-.5-.1-1-.44-1.37L21 66.73A67 67 0 0 1 7.42 53.46l-3.16-4.14a5.7 5.7 0 0 1-1.34-5.78 5.7 5.7 0 0 1 4.5-3.89l6.39-1.79a66 66 0 0 1 17.53-2.44l5.33-.02c.47-.1.87-.38 1.12-.79l.14-.54c2-7.96 5.43-15.38 10.18-22.08l2.81-3.96c1-1.88 2.93-3.05 5.07-3.05s4.05 1.15 5.06 3.01l1.36 1.78A65.5 65.5 0 0 1 74.2 34.61c.25.4.65.68 1.11.77l5.23.02c5.93.02 11.83.84 17.54 2.43l6.47 1.81a5.7 5.7 0 0 1 4.5 3.89 5.7 5.7 0 0 1-1.39 5.83l-7.19 8.26a66 66 0 0 1-9.71 9.11l-4.21 3.22c-.34.37-.5.87-.45 1.36l1.71 5.28a66 66 0 0 1 3.18 18.81l.11 5.06a5.7 5.7 0 0 1-2.31 5.46 5.7 5.7 0 0 1-5.94.5l-7.06-2.72a66 66 0 0 1-14.36-7.68l-4.73-3.34c-.45-.2-.96-.21-1.41-.01l-2.64 2.01a66 66 0 0 1-17.64 9.62l-5.91 2.13q-1.23.6-2.54.6ZM56 8.97c-.33 0-1.13.1-1.57.97q-.07.15-.16.27l-2.9 4.08a62 62 0 0 0-9.56 20.74l-.2.79a2 2 0 0 1-.15.4 5.8 5.8 0 0 1-4.33 3.15l-.28.02-5.5.02c-5.56.02-11.1.79-16.46 2.3l-6.5 1.82-.25.05c-.97.14-1.31.88-1.41 1.19s-.26 1.11.44 1.79l.19.22 3.24 4.25A62 62 0 0 0 23.35 63.5l4.57 3.33.22.18a5.8 5.8 0 0 1 1.65 5.09l-.05.23-2.07 6.95a62 62 0 0 0-2.51 14.93l-.29 6.52q0 .13-.03.25c-.17.97.43 1.52.7 1.71s.97.59 1.84.13l.25-.11 6.03-2.17a62 62 0 0 0 16.57-9.03l2.8-2.13q.13-.1.28-.18a5.8 5.8 0 0 1 5.35 0l.22.14 4.85 3.43a62 62 0 0 0 13.49 7.22l7.16 2.75.21.1c.87.46 1.58.06 1.84-.13s.86-.74.7-1.71l-.03-.29-.11-5.19a62 62 0 0 0-2.98-17.67l-1.76-5.44-.07-.28a5.8 5.8 0 0 1 1.83-5.25l4.33-3.31a62 62 0 0 0 9.12-8.56l7.23-8.31.11-.12c.7-.69.54-1.48.44-1.79s-.44-1.05-1.41-1.19l-.25-.05L97 41.71a62 62 0 0 0-16.48-2.28l-5.4-.02-.28-.02a5.8 5.8 0 0 1-4.33-3.15 2 2 0 0 1-.15-.43 62 62 0 0 0-11.14-23.59l-1.47-1.92q-.12-.15-.21-.33A1.7 1.7 0 0 0 55.97 9Z" style="fill:#004241"/><path d="M50.14 58.84s-7.07 2.11-6.82 8.93 10.61.58 6.82-8.93" style="fill:#aad681"/><path d="M45.53 72.65q-.78 0-1.49-.28c-.78-.3-2.6-1.35-2.72-4.53-.25-6.62 5.29-10.04 8.25-10.92A2 2 0 0 1 52 58.1c2.18 5.48.39 10.01-2.01 12.43a6.5 6.5 0 0 1-4.45 2.11Zm3.33-11.02c-1.61.97-3.66 2.85-3.54 6.07.03.76.22.97.22.98.12.02.94-.18 1.83-1.19a7 7 0 0 0 1.49-5.86" style="fill:#004241"/><path d="M62.32 58.84s7.07 2.11 6.82 8.93-10.61.58-6.82-8.93" style="fill:#aad681"/><path d="M66.92 72.65a6.5 6.5 0 0 1-4.45-2.11c-2.4-2.42-4.19-6.95-2.01-12.43a2 2 0 0 1 2.43-1.18c2.96.88 8.49 4.3 8.25 10.92-.12 3.17-1.94 4.22-2.72 4.53a4 4 0 0 1-1.49.28Zm-3.33-11.02a7 7 0 0 0 1.49 5.86c.88 1 1.68 1.21 1.87 1.17-.01-.01.15-.25.18-.95.12-3.22-1.93-5.1-3.54-6.07Z" style="fill:#004241"/></svg>