<svg xmlns="http://www.w3.org/2000/svg" data-name="flatten icons" viewBox="0 0 112 112"><path d="M0 0h112v112H0z" style="fill:none;stroke-width:0"/><path d="M24.25 40.67s-10.35 5.61-16.9-2.46c-3.65-4.49-.07-7.74 3.82-9.73a7.3 7.3 0 0 0 4.02-7.54c-.41-2.53.17-5.64 3.72-8.51 3.11-2.51 5.79-2.7 7.89-2.02 2.33.76 4.87.12 6.45-1.74a18 18 0 0 1 5.03-3.86c8.83-4.84 5.71 17.09 5.71 17.09" style="stroke-width:0;fill:#aad681"/><path d="M16.63 44.56c-3.71 0-7.72-1.25-10.84-5.09q-2.48-3.06-1.84-6.14.81-3.81 6.3-6.63a5.3 5.3 0 0 0 2.96-5.44c-.45-2.74-.04-6.77 4.44-10.39 4.04-3.26 7.54-3.09 9.76-2.37 1.6.52 3.29.07 4.3-1.13q1.98-2.33 5.59-4.32c2.8-1.53 4.74-.92 5.87-.13 1.18.82 4.86 4.62 2.78 19.26a2 2 0 0 1-2.26 1.7 2 2 0 0 1-1.7-2.26c.91-6.44.69-14.17-1.09-15.4-.4-.27-1.22.1-1.67.35a16 16 0 0 0-4.46 3.39 8 8 0 0 1-8.6 2.36c-1.89-.61-3.86-.07-6.01 1.67-2.43 1.96-3.41 4.13-3 6.63a9.2 9.2 0 0 1-5.08 9.64c-2.45 1.26-3.95 2.64-4.21 3.89-.06.3-.26 1.22 1.03 2.8 5.41 6.66 14.04 2.16 14.4 1.96.97-.52 2.19-.16 2.71.81s.16 2.18-.81 2.71a19 19 0 0 1-8.57 2.13" style="fill:#004241"/><path d="m105.78 92.2.38 8.53a6.7 6.7 0 0 1-7.78 7.09l-7.44-1.03a81 81 0 0 1-37.85-15.98l-.7-.54a86 86 0 0 1-22.8-26.1l-1.35-2.39c-3.88-6.85-4.95-14.71-2.98-21.76l.1-.36a23.7 23.7 0 0 1 17.71-16.94l2.4-.55c7.16-1.65 14.99-.14 21.64 4.16a86 86 0 0 1 27.28 28.41 81 81 0 0 1 11.38 37.46Z" style="stroke-width:0;fill:#f59455"/><path d="M55.21 49.48a2 2 0 0 1-.98-.23 2 2 0 0 1-1.19-.48 2 2 0 0 1-.21-2.81c.81-.94 1.65-1.05 2.21-.97q.39.04.83.3.63.1 1.12.56a2 2 0 0 1 .01 2.82c-.64.64-1.27.82-1.78.82Zm6.36-5.28a2 2 0 0 1-1.13-3.65c11.69-7.99 21.09-4.8 21.48-4.66a2 2 0 0 1-1.32 3.77c-.35-.12-8-2.58-17.89 4.19q-.54.36-1.13.35Zm11.12 26.26a2 2 0 0 1-1.4-3.43c16.56-16.24 26.19-9.99 26.59-9.72a2 2 0 0 1 .53 2.78 2 2 0 0 1-2.75.54c-.12-.07-1.88-1.11-5.26-.61-3.34.48-8.88 2.59-16.3 9.86a2 2 0 0 1-1.4.57Z" style="fill:#004241"/><path d="m28.24 61.78 1.35 2.39a86 86 0 0 0 22.8 26.1l.7.54a81 81 0 0 0 37.85 15.98l7.44 1.03-17.73-10.68a7 7 0 0 1-2.26-2.22L67.25 77.24a6.9 6.9 0 0 0-5.81-3.21 6.9 6.9 0 0 1-6.79-5.81l-.43-2.73c-.53-3.39-3.4-6.06-6.83-6.02-2.57.03-5.44-1.02-7.29-4.98-4.03-8.66 0-29.43 0-29.43l-.43-1.29a23.7 23.7 0 0 0-14.32 15.89l-.1.36c-1.97 7.05-.9 14.92 2.98 21.76Z" style="fill:#e5764e"/><path d="M93.15 88.29c-.59 0-1.18-.26-1.57-.76a2 2 0 0 1 .33-2.81c9.64-7.6 13.96-3.31 14.42-2.8l-2.98 2.67.07.08c-.02-.02-2.43-2.01-9.04 3.2q-.57.43-1.24.43Z" style="fill:#004241"/><path d="M99.42 109.89q-.65 0-1.3-.09l-7.44-1.03A83 83 0 0 1 51.9 92.4l-.7-.54a89 89 0 0 1-23.33-26.71l-1.35-2.38c-4.12-7.28-5.27-15.76-3.17-23.29l.1-.36a25.7 25.7 0 0 1 19.19-18.35l2.4-.55c7.66-1.76 16.1-.15 23.17 4.43a88.5 88.5 0 0 1 27.92 29.07 83 83 0 0 1 11.65 38.39l.38 8.53a8.8 8.8 0 0 1-2.82 7 8.8 8.8 0 0 1-5.93 2.25ZM51.26 23.52q-2.71 0-5.33.6l-2.4.55A21.7 21.7 0 0 0 27.3 40.2l-.1.36c-1.82 6.51-.8 13.88 2.79 20.24l1.35 2.38a85 85 0 0 0 22.27 25.5l.7.54a79 79 0 0 0 36.91 15.59l7.44 1.03c1.53.21 2.94-.2 3.99-1.15s1.58-2.33 1.51-3.86l-.38-8.53a79 79 0 0 0-11.1-36.54 84.4 84.4 0 0 0-26.65-27.75 27.4 27.4 0 0 0-14.78-4.48Z" style="fill:#004241"/><path d="M36.57 63.18a6.61 6.61 0 1 1-6.61-6.61" style="fill:#e5764e"/><path d="M29.96 71.79a8.61 8.61 0 0 1 0-17.2c1.1 0 2 .9 2 2s-.9 2-2 2a4.6 4.6 0 1 0 4.6 4.6c0-1.1.9-2 2-2s2 .9 2 2c0 4.74-3.86 8.6-8.6 8.6" style="fill:#004241"/></svg>