<svg xmlns="http://www.w3.org/2000/svg" data-name="flatten icons" viewBox="0 0 112 112"><path d="M0 0h112v112H0z" style="fill:none;stroke-width:0"/><path d="M105.79 27.77s-40.59-.51-35.55 39.59c0 0 40.35 3.7 35.55-39.59" style="fill:#aad681"/><path d="M72.66 69.45c-1.49 0-2.44-.08-2.6-.09a2 2 0 0 1-1.8-1.74c-1.56-12.4.94-22.36 7.42-29.62 11-12.32 29.35-12.22 30.13-12.22a2 2 0 0 1 1.96 1.78c1.55 13.93-1.29 24.69-8.42 31.96-8.73 8.9-21.3 9.94-26.7 9.94Zm-.62-4.02c4.36.03 16.51-.6 24.48-8.75 5.93-6.06 8.44-15.09 7.46-26.85-4.67.31-17.43 1.97-25.33 10.84-5.38 6.03-7.6 14.36-6.61 24.76" style="fill:#004241"/><path d="M11.01 16.63s5.6 40.2 44.49 29.19c0 0-2.41-40.45-44.49-29.19" style="fill:#aad681"/><path d="M42.82 49.73q-9.7 0-17.18-4.87C11.81 35.83 9.13 17.68 9.03 16.91a2 2 0 0 1 1.46-2.21c13.54-3.63 24.6-2.44 32.86 3.52 12.91 9.31 14.1 26.74 14.14 27.48.06.94-.55 1.79-1.45 2.04a49 49 0 0 1-13.22 1.99m-29.5-31.62c1.01 4.57 4.56 16.93 14.52 23.42 6.77 4.41 15.34 5.35 25.47 2.81-.61-4.31-3.08-16.23-12.33-22.88-6.88-4.95-16.18-6.07-27.66-3.34ZM11 16.63" style="fill:#004241"/><ellipse cx="29.64" cy="50.97" rx="14.79" ry="13.74" style="fill:#555570" transform="rotate(-35.17 29.63 50.97)"/><path d="M43.56 46.32q-.32.84-.75 1.67c-3.8 7.09-12.56 10.23-19.59 7.01a12.8 12.8 0 0 1-7.06-8.19c-2.6 6.69.12 14.03 6.6 17 7.02 3.22 15.79.08 19.59-7.01a14 14 0 0 0 1.21-10.48" style="fill:#494260"/><path d="M28.36 66.9a16 16 0 0 1-6.39-1.25c-4.42-1.9-7.3-4.71-8.57-8.35-1.36-3.88-.75-8.41 1.76-13.09 4.12-7.7 13.18-10.51 21.54-6.68 7.73 3.54 10.62 11.19 7.54 19.94-1.13 3.21-4.02 6.03-7.94 7.75a20 20 0 0 1-7.94 1.69Zm.83-27.06c-4.37 0-8.35 2.23-10.51 6.25-1.37 2.56-2.75 6.36-1.51 9.89q1.35 3.82 6.38 6c3.17 1.36 7.43 1.2 11.14-.43 2.91-1.27 5.01-3.25 5.77-5.41 2.4-6.83.42-12.29-5.43-14.98a14 14 0 0 0-5.84-1.32" style="fill:#004241"/><ellipse cx="20.75" cy="83.25" rx="14.79" ry="13.74" style="fill:#555570" transform="rotate(-35.17 20.74 83.24)"/><path d="M34.68 78.6q-.32.84-.75 1.67c-3.8 7.09-12.56 10.23-19.59 7.01a12.8 12.8 0 0 1-7.06-8.19c-2.6 6.69.12 14.03 6.6 17 7.02 3.22 15.79.08 19.59-7.01a14 14 0 0 0 1.21-10.48" style="fill:#494260"/><path d="M19.48 99.17a16 16 0 0 1-6.39-1.25q-6.65-2.87-8.57-8.35c-1.36-3.88-.75-8.41 1.76-13.09 4.12-7.7 13.18-10.51 21.54-6.68 7.73 3.54 10.62 11.18 7.54 19.94-1.13 3.21-4.02 6.03-7.94 7.75a20 20 0 0 1-7.94 1.69Zm.83-27.06c-4.37 0-8.35 2.23-10.51 6.25-1.37 2.56-2.75 6.36-1.51 9.89q1.35 3.83 6.38 6c3.17 1.36 7.43 1.2 11.14-.43 2.91-1.27 5.01-3.25 5.77-5.41 2.4-6.84.42-12.3-5.43-14.98a14 14 0 0 0-5.84-1.32m13.16 16.96" style="fill:#004241"/><ellipse cx="63.22" cy="47.73" rx="13.86" ry="12.83" style="fill:#555570"/><path d="M76.45 43.95q-.28.75-.67 1.49c-3.42 6.34-11.74 8.91-18.59 5.75a13 13 0 0 1-7.04-7.7c-2.28 6.01.56 12.8 6.88 15.72 6.85 3.17 15.17.59 18.59-5.75a12 12 0 0 0 .83-9.51" style="fill:#494260"/><path d="M63.02 62.39c-2.39 0-4.73-.45-6.8-1.35-4.5-1.96-7.42-4.79-8.66-8.39-1.22-3.53-.7-7.54 1.49-11.61 3.77-6.99 12.44-9.31 20.61-5.54 7.55 3.49 10.55 10.62 7.84 18.59-.95 2.79-3.36 5.17-6.79 6.68a19 19 0 0 1-7.7 1.6Zm-1.17-24.66c-3.96 0-7.45 1.84-9.27 5.22-1.15 2.13-2.29 5.32-1.23 8.4q1.3 3.77 6.48 6.03c3.28 1.43 7.7 1.33 11.28-.25 2.36-1.04 4.04-2.61 4.62-4.31 2.06-6.06-.03-11.04-5.73-13.68a15 15 0 0 0-6.14-1.41Z" style="fill:#004241"/><circle cx="58.78" cy="73.39" r="14.82" style="fill:#555570"/><path d="M69.49 63.16q.12.92.13 1.86a14.82 14.82 0 0 1-25.53 10.23 14.82 14.82 0 1 0 25.4-12.09" style="fill:#494260"/><path d="M58.78 90.21c-9.27 0-16.82-7.55-16.82-16.82s7.07-15.43 16.82-15.43S75.6 64.45 75.6 73.39s-7.55 16.82-16.82 16.82m0-28.25c-7.55 0-12.82 4.7-12.82 11.43 0 7.07 5.75 12.82 12.82 12.82S71.6 80.46 71.6 73.39s-5.27-11.43-12.82-11.43" style="fill:#004241"/><path d="m65.62 36.87 2.32-7.07" style="fill:#aad681"/><path d="M65.62 38.87a2 2 0 0 1-1.9-2.62l2.32-7.07a2 2 0 0 1 2.52-1.28 2 2 0 0 1 1.28 2.52l-2.32 7.07a2 2 0 0 1-1.9 1.38" style="fill:#004241"/><path d="m73.6 80.95 8.37 1.79c3.94.85 8.04.62 11.87-.67l3.37-1.13" style="fill:#aad681"/><path d="M86.69 85.25q-2.59 0-5.13-.54l-8.37-1.79a2 2 0 0 1-1.54-2.37 2 2 0 0 1 2.38-1.54l8.37 1.79c3.59.77 7.33.56 10.81-.61l3.37-1.13a2 2 0 0 1 1.27 3.79l-3.37 1.13a25 25 0 0 1-7.79 1.27" style="fill:#004241"/><path d="m32.38 91.16 8.55 4.66" style="fill:#aad681"/><path d="M40.93 97.82a2 2 0 0 1-.96-.24l-8.54-4.66a2 2 0 1 1 1.91-3.51l8.54 4.66a2 2 0 0 1-.96 3.75Z" style="fill:#004241"/><path d="M57.02 45.77a2 2 0 0 1-1.71-.96 2 2 0 0 1 .66-2.75c.61-.37 3.77-2.19 6.43-1.54a2 2 0 1 1-.96 3.88c-.76-.19-2.48.51-3.39 1.06a2 2 0 0 1-1.04.29ZM16.46 80.59a2 2 0 0 1-1.05-3.71c.61-.37 3.77-2.19 6.43-1.53a2 2 0 0 1-.96 3.88c-.76-.19-2.45.5-3.39 1.07q-.49.3-1.04.29Zm38.05-10.67a2 2 0 0 1-.87-3.81c.64-.31 3.98-1.8 6.56-.87a2 2 0 0 1 1.21 2.56 2 2 0 0 1-2.56 1.21c-.74-.26-2.52.25-3.48.71q-.42.2-.86.2M25.34 47.87a2 2 0 0 1-1.8-1.12 2 2 0 0 1 .92-2.67c.29-.14 2.95-1.41 5.6-1.29a2 2 0 0 1-.16 4 10 10 0 0 0-3.68.89q-.43.2-.87.2Z" style="stroke-width:0;fill:#fff"/></svg>