<svg xmlns="http://www.w3.org/2000/svg" data-name="flatten icons" viewBox="0 0 112 112"><path d="M0 0h112v112H0z" style="fill:none;stroke-width:0"/><path d="M36.37 88.73S57.9 73.1 91.99 63.82a22 22 0 0 1 13.26.49l1.91.67a4.26 4.26 0 0 1 2.73 4.98 4.3 4.3 0 0 1-4.04 3.3l-3 .08-.11 2.73a4.26 4.26 0 0 1-3.88 4.07l-9.39.83z" style="stroke-width:0;fill:#73cc64"/><path d="M36.37 90.73a2 2 0 0 1-1.85-1.25 2 2 0 0 1 .68-2.37c.89-.65 22.22-15.96 56.27-25.22a24 24 0 0 1 14.45.54l1.91.67a6.26 6.26 0 0 1 4.02 7.32 6.25 6.25 0 0 1-5.94 4.84l-1.13.03-.04.87a6.3 6.3 0 0 1-5.7 5.98l-9.33.83-53.04 7.74zm61.47-25.7q-2.68 0-5.32.71a198 198 0 0 0-47.14 19.65L89.18 79l.11-.01 9.39-.83a2.3 2.3 0 0 0 2.06-2.16l.11-2.74a2 2 0 0 1 1.95-1.92l3-.08a2.26 2.26 0 0 0 2.14-1.75 2.3 2.3 0 0 0-1.45-2.65l-1.9-.67a20 20 0 0 0-6.74-1.16Z" style="stroke-width:0;fill:#004241"/><path d="M5.92 36.46a38 38 0 0 1 7.18-10.8c.75-.78 3.08.36 3.88-.34 1.17-1.03.85-3.85 2.13-4.71a33.8 33.8 0 0 1 28.24-4.45c.65.19.86 1.4 1.51 1.62.85.3 2.08.16 2.99 0 2.61-.45 3.58.91 4.65 2.46.45.65.88 1.86 1.52 2.32.98.7 2.35.45 3.25 1.24a38 38 0 0 1 6.89 8.06c.9 1.41-.75 3-.05 4.51.65 1.41 3.65 2.73 4.12 4.2a34.6 34.6 0 0 1-1.16 24.58c-7.93 17.99-21.76 29.32-45.93 18.67S-2.01 54.45 5.92 36.46" style="stroke-width:0;fill:#fbe4ac"/><path d="M42.31 89.91q-8.29 0-17.96-4.25C1.84 75.75-5.54 57.52 4.09 35.65a39 39 0 0 1 7.57-11.38c1.08-1.13 2.64-.93 3.67-.8l.46.05c.09-.28.19-.71.26-1 .29-1.21.65-2.71 1.97-3.59a36 36 0 0 1 29.9-4.71c1.08.31 1.61 1.18 1.92 1.69l.01.02c.29.03.81.02 1.67-.13 3.9-.68 5.55 1.72 6.64 3.3q.32.49.58 1.01c.15.28.39.74.52.87.07.04.45.12.76.19.73.15 1.72.36 2.58 1.12a39 39 0 0 1 7.26 8.5c.94 1.48.53 2.94.27 3.9-.08.29-.2.72-.18.86.14.23.92.84 1.39 1.2 1.17.9 2.38 1.84 2.81 3.21a36.8 36.8 0 0 1-1.23 26C65.93 81.84 55.51 89.9 42.31 89.9ZM7.75 37.26C2.69 48.75-1.67 69.83 25.96 82c20.02 8.82 34.18 3.04 43.29-17.65a32.7 32.7 0 0 0 1.08-23.17c-.13-.24-.96-.88-1.45-1.26-1.02-.79-2.07-1.6-2.58-2.71-.65-1.4-.28-2.71-.04-3.59.07-.24.16-.58.17-.75a35 35 0 0 0-6.49-7.58c-.1-.07-.5-.16-.77-.21a6 6 0 0 1-2.33-.9 6 6 0 0 1-1.66-2.2q-.18-.34-.34-.6c-1.04-1.51-1.33-1.85-2.66-1.63-1.71.29-2.97.27-3.99-.09-.99-.35-1.49-1.17-1.79-1.66q0-.03-.03-.04a32 32 0 0 0-26.08 4.25c-.13.23-.28.86-.37 1.25-.26 1.09-.58 2.44-1.63 3.35-1.07.94-2.47.76-3.49.63l-.59-.07a36 36 0 0 0-6.48 9.89Z" style="stroke-width:0;fill:#004241"/><path d="m63.8 60.74.26.48 1.93-6.78a5.2 5.2 0 0 1 3.7-3.61l.45-.12a5.2 5.2 0 0 1 6.43 4.28l.14.96 4.07-4.49a4.36 4.36 0 0 1 6.31-.16 4.4 4.4 0 0 1 1.08 4.43 17.8 17.8 0 0 1-7.75 9.8l-6.17 3.71s-3.52 3.05-21.55 10.5c8.18-2.01 24.7-1.61 24.7-1.61l7.17-.59c4.29-.35 8.56.86 12.02 3.42a4.4 4.4 0 0 1 1.71 4.22 4.37 4.37 0 0 1-5.22 3.56l-5.93-1.26.45.87a5.2 5.2 0 0 1-2.72 7.23l-.43.17a5.2 5.2 0 0 1-5.11-.77l-5.53-4.37.07.54a4.98 4.98 0 0 1-5.56 5.57 5 5 0 0 1-4.03-3.12l-2.17-5.51a1.7 1.7 0 0 0-1.5-1.05c-3.43-.08-14.18.08-22.94 4.63-10.57 5.5-15.95 5.47-15.95 5.47-3.55.56-5.35-4.82-5.35-4.82s-5.09-8.2 15.28-10.8c9.79-1.25 22.64-10.59 22.66-15.57 0-.89.13-1.77.1-2.66a5 5 0 0 1 9.37-2.55Z" style="stroke-width:0;fill:#aad681"/><path d="M21.21 99.18c-3.53 0-5.78-3.62-6.65-6.03a6.7 6.7 0 0 1-.08-5.89c1.87-3.93 7.57-6.52 16.95-7.71 9.73-1.24 20.9-10.42 20.91-13.59q.01-.65.05-1.29.06-.69.04-1.3a7 7 0 0 1 2.24-5.35 7 7 0 0 1 5.88-1.77q1.4.23 2.57.96l.94-3.3a7.2 7.2 0 0 1 5.12-5l.45-.12a7.2 7.2 0 0 1 7.95 3.25l1.72-1.89a6.3 6.3 0 0 1 4.55-2.08 6.2 6.2 0 0 1 4.65 1.85 6.3 6.3 0 0 1 1.57 6.46 19.8 19.8 0 0 1-8.62 10.9l-6.05 3.64c-.64.5-3.02 2.17-9.81 5.39 5.76-.25 10.87-.16 11.74-.14l7.07-.59c4.77-.39 9.52.95 13.37 3.8a6.4 6.4 0 0 1 2.5 6.16 6.3 6.3 0 0 1-2.69 4.22 6.3 6.3 0 0 1-4.91.97l-2.5-.53a7.2 7.2 0 0 1-4.56 7.28l-.43.17a7.2 7.2 0 0 1-7.08-1.06l-2.69-2.13a7 7 0 0 1-1.53 2.29 7 7 0 0 1-5.8 2 7 7 0 0 1-5.65-4.38l-2.09-5.3c-3.3-.07-13.54.15-21.74 4.41-9.96 5.18-15.62 5.65-16.7 5.69q-.36.05-.7.05Zm38.2-39.04a3 3 0 0 0-2.98 3.09q.01.9-.05 1.68-.04.52-.05 1.05c-.02 5.83-12.88 16.08-24.4 17.54-10.32 1.31-13.08 3.95-13.81 5.41a2.6 2.6 0 0 0 0 2.38c.06.11.14.27.18.39.25.74 1.62 3.7 3.14 3.48l.32-.02c.03 0 5.15-.11 15.01-5.24 8.99-4.68 19.71-4.96 23.91-4.86 1.47.03 2.77.94 3.32 2.32l2.17 5.51a3 3 0 0 0 2.42 1.87 3 3 0 0 0 3.33-3.33l-.07-.54a2 2 0 0 1 3.22-1.82l5.53 4.37c.89.7 2.09.88 3.14.47l.43-.17a3.2 3.2 0 0 0 1.67-4.45l-.45-.87a2 2 0 0 1 .18-2.13 2 2 0 0 1 2.01-.75l5.93 1.26c.64.13 1.29 0 1.83-.36q.82-.57 1-1.57a2.4 2.4 0 0 0-.93-2.29 15.7 15.7 0 0 0-10.66-3.03l-7.17.59h-.21c-.16 0-16.35-.38-24.17 1.55a2 2 0 0 1-1.24-3.79c17.16-7.09 20.88-10.06 21.02-10.18q.12-.1.26-.18l6.17-3.71a15.8 15.8 0 0 0 6.88-8.69c.27-.85.05-1.77-.58-2.4a2.36 2.36 0 0 0-3.42.09l-4.07 4.49c-.52.57-1.33.79-2.06.57a2 2 0 0 1-1.4-1.62l-.14-.96a3.2 3.2 0 0 0-1.39-2.2 3.2 3.2 0 0 0-2.57-.43l-.45.12A3.2 3.2 0 0 0 67.94 55l-1.93 6.78a2 2 0 0 1-3.68.41l-.26-.48a3 3 0 0 0-2.63-1.56Z" style="stroke-width:0;fill:#004241"/><path d="M17.09 39.39a2 2 0 0 1-1.04-3.71c.27-.16 6.68-3.96 12.96-2.42a2 2 0 0 1 1.47 2.42 2 2 0 0 1-2.42 1.47c-4.62-1.13-9.9 1.93-9.95 1.96q-.5.29-1.03.29ZM41.6 63.56c-.63 0-1.26-.3-1.65-.86-1.19-1.72-3.09-3.74-4.02-4a2 2 0 0 1-1.39-2.46A2 2 0 0 1 37 54.85c2.81.79 5.68 4.79 6.23 5.58a2 2 0 0 1-1.65 3.13Zm13.47-17.2q-.4 0-.81-.17l-.57-.25a2 2 0 0 1-1.02-2.64 2 2 0 0 1 2.64-1.02l.57.25a2 2 0 0 1-.81 3.83M16.69 64.9q-.4 0-.81-.17l-.57-.25a2 2 0 0 1-1.02-2.64 2 2 0 0 1 2.64-1.02l.57.25a2 2 0 0 1-.81 3.83m21.35-37.26q-.4 0-.81-.17l-.57-.25a2 2 0 0 1-1.02-2.64 2 2 0 0 1 2.64-1.02l.57.25a2 2 0 0 1-.81 3.83" style="stroke-width:0;fill:#c9a275"/></svg>