<svg xmlns="http://www.w3.org/2000/svg" data-name="flatten icons" viewBox="0 0 112 112"><path d="M0 0h112v112H0z" style="fill:none;stroke-width:0"/><circle cx="39" cy="78.2" r="18.12" style="fill:#b74656"/><path d="M47.98 70.37a18 18 0 0 0-3.07-10.09 18.12 18.12 0 0 0-22.27 26.71 18.12 18.12 0 0 0 25.34-16.62" style="fill:#ea5c67"/><path d="M39 98.33c-11.1 0-20.12-9.03-20.12-20.12S27.91 58.09 39 58.09s20.12 9.03 20.12 20.12S50.09 98.33 39 98.33m0-36.25c-8.89 0-16.12 7.23-16.12 16.12S30.11 94.32 39 94.32s16.12-7.23 16.12-16.12S47.89 62.08 39 62.08" style="fill:#004241"/><circle cx="87.88" cy="68.56" r="18.12" style="fill:#b74656"/><path d="M96.86 60.72a18 18 0 0 0-3.07-10.09 18.12 18.12 0 0 0-22.27 26.71 18.12 18.12 0 0 0 25.34-16.62" style="fill:#ea5c67"/><path d="M87.88 88.68c-11.1 0-20.12-9.03-20.12-20.12s9.03-20.12 20.12-20.12S108 57.47 108 68.56s-9.03 20.12-20.12 20.12m0-36.25c-8.89 0-16.12 7.23-16.12 16.12s7.23 16.12 16.12 16.12S104 77.44 104 68.55s-7.23-16.12-16.12-16.12" style="fill:#004241"/><path d="M36.89 67.83c-1.1 0-2-.89-2-2s.2-27.2 17.9-49.39a2 2 0 0 1 1.85-.73c.7.1 1.3.57 1.57 1.23.12.31 12.49 30.73 27.35 40.09.93.59 1.21 1.82.63 2.76a2 2 0 0 1-2.76.63C68.31 52.16 57.57 30 53.87 21.64 39.1 42.12 38.89 65.59 38.89 65.83a2 2 0 0 1-2 2" style="fill:#004241"/><path d="M54.03 17.55S27.62 9.17 6 27.83c0 0 30.17 17.89 48.03-10.28" style="stroke-width:0;fill:#aad681"/><path d="M26.98 35.37c-11.95 0-21.82-5.71-22-5.82a2 2 0 0 1-.28-3.23C26.91 7.15 53.52 15.28 54.64 15.64a2 2 0 0 1 1.08 2.98c-8.31 13.1-19.19 16.75-28.74 16.75M9.66 27.44a45 45 0 0 0 13.98 3.84c11.2 1.05 20.32-3.14 27.12-12.47-6.74-1.38-25.04-3.56-41.1 8.63" style="fill:#004241"/><path d="M28.92 79.2a2 2 0 0 1-2-2c0-4.83 3.62-8.07 3.77-8.21a2 2 0 0 1 2.65 3c-.06.06-2.42 2.25-2.42 5.22a2 2 0 0 1-2 2Zm49.2-5.28a2 2 0 0 1-1.92-1.43c-1.33-4.48 0-7.88.06-8.03a2 2 0 0 1 2.6-1.11 2 2 0 0 1 1.11 2.59 9 9 0 0 0 .06 5.41 2 2 0 0 1-1.35 2.49q-.28.09-.57.08Z" style="stroke-width:0;fill:#fff"/></svg>