<svg xmlns="http://www.w3.org/2000/svg" data-name="flatten icons" viewBox="0 0 112 112"><path d="M0 0h112v112H0z" style="fill:none;stroke-width:0"/><path d="M45.97 81.87S55.81 83.4 56 91.86s-.49 17.59 11.93 18.12 19.09-9.41 14.14-18.12-7.56-19.34-7.56-19.34l-26.49-2.25z" style="stroke-width:0;fill:#efe8c7"/><path d="m72.09 111.74-.32-.02c-7.04-1.12-8.75-11.93-8.92-13.16a2 2 0 0 1 1.7-2.26 2 2 0 0 1 2.26 1.7c.33 2.36 2.08 9.2 5.58 9.76a2 2 0 0 1-.31 3.98Z" style="fill:#dbba82"/><path d="m68.87 112-1.02-.02c-13.52-.58-13.68-10.51-13.81-18.49l-.03-1.59c-.15-6.71-8.26-8.04-8.34-8.06-.53-.08-1.01-.38-1.32-.81s-.44-.98-.34-1.51l2.05-11.6a2 2 0 0 1 2.14-1.65l26.49 2.25a2 2 0 0 1 1.77 1.51c.03.1 2.61 10.47 7.36 18.83 2.56 4.51 2.55 9.5-.01 13.7-2.87 4.7-8.4 7.43-14.93 7.43Zm-20.6-31.64c4.09 1.24 9.58 4.64 9.74 11.46l.03 1.61c.15 9.03.68 14.16 9.98 14.56 5.5.24 10.12-1.82 12.37-5.5 1.79-2.92 1.77-6.44-.05-9.64-4.02-7.07-6.5-15.23-7.39-18.45l-23.27-1.98-1.4 7.94Z" style="fill:#004241"/><path d="M27.54 3.98C18.95 7.09 18 31.02 20.51 46.87S19.29 85.1 33.27 85.1s16.78-9.32 29.84-9.32 25.18-2.8 28.91-12.12-8.39-32.64-19.58-40.1C61.24 16.1 50.71-4.41 27.54 3.98" style="fill:#dbba82"/><path d="M20.99 46.82a1.5 1.5 0 0 1-.91-2.69l6.16-4.68.46-.42.28-.25c.02-.19.02-.57.02-.76q0-.14.02-.27l.61-3.34a4.6 4.6 0 0 0-3.52-4.33l-4.45-1.06a1.5 1.5 0 1 1 .7-2.92l4.45 1.06a7.56 7.56 0 0 1 5.82 7.38q0 .14-.02.27L30 38.17c0 1.59-.15 2.09-1.3 3.11l-.46.42-.12.1-6.22 4.73q-.42.31-.91.31Zm8.14-12.29" style="fill:#ede5b4"/><path d="M67.93 77.14a1.5 1.5 0 0 1-1.5-1.5v-8.37a.7.7 0 0 0-.35-.59l-13.5-7.44a7.6 7.6 0 0 1-3.92-6.64v-1.2a4.6 4.6 0 0 0-4.58-4.58h-6.66a7.5 7.5 0 0 1-5.82-2.73l-3.62-4.34a1.5 1.5 0 0 1 .19-2.11 1.5 1.5 0 0 1 2.11.19l3.62 4.34a4.6 4.6 0 0 0 3.52 1.65h6.66c4.18 0 7.58 3.4 7.58 7.58v1.2c0 1.67.91 3.21 2.37 4.01l13.5 7.44a3.7 3.7 0 0 1 1.9 3.21v8.37c0 .83-.67 1.5-1.5 1.5Zm-27.2-13.28a1.5 1.5 0 0 1-.76-.21l-6.56-3.88a4.6 4.6 0 0 0-3.43-.5l-8.01 1.98a1.5 1.5 0 1 1-.72-2.92l8.01-1.98a7.5 7.5 0 0 1 5.67.83l6.56 3.88a1.5 1.5 0 0 1-.76 2.79Z" style="fill:#ede5b4"/><path d="M32.03 58.72a1.5 1.5 0 0 1-1.46-1.81l2.54-11.9a1.5 1.5 0 0 1 1.78-1.15 1.5 1.5 0 0 1 1.15 1.78l-2.54 11.9a1.5 1.5 0 0 1-1.47 1.19Zm18.13-5.82a1.5 1.5 0 0 1-1.5-1.5V38.44a5 5 0 0 1 4.09-4.9l8.1-1.47a4.6 4.6 0 0 0 3.76-4.51v-9.29a1.5 1.5 0 1 1 3 0v9.29c0 3.67-2.62 6.8-6.22 7.46l-8.1 1.47c-.94.17-1.63.99-1.63 1.95V51.4c0 .83-.67 1.5-1.5 1.5m-8.87-34.16a7.6 7.6 0 0 1-4.44-1.45l-4.07-2.94a5 5 0 0 0-2.74-.87l-8.41.1c-.8 0-1.51-.65-1.52-1.48s.65-1.51 1.48-1.52l8.41-.1a7.6 7.6 0 0 1 4.54 1.44l4.07 2.94a4.6 4.6 0 0 0 4.76.37l11.96-6.07a1.5 1.5 0 0 1 2.02.66 1.5 1.5 0 0 1-.66 2.02l-11.96 6.07a8 8 0 0 1-3.44.83" style="fill:#ede5b4"/><path d="M32.03 13.46a1.5 1.5 0 0 1-1.28-2.28l6.09-9.96a1.5 1.5 0 1 1 2.56 1.56l-6.09 9.96a1.5 1.5 0 0 1-1.28.72m-5.95 69.87a1.5 1.5 0 0 1-.81-2.77l11.83-7.52a4.6 4.6 0 0 0 2.12-3.87v-5.55c0-1.3.65-2.5 1.74-3.21l8.07-5.28.43-.32 14.7-12.3a4.6 4.6 0 0 0 1.63-3.89l-5.53-3.86a1.5 1.5 0 0 1-.37-2.09 1.5 1.5 0 0 1 2.09-.37l6.06 4.23q.48.35.61.92a7.6 7.6 0 0 1-2.56 7.36l-14.7 12.3q-.35.29-.71.53l-8.07 5.28a.8.8 0 0 0-.38.7v5.55c0 2.61-1.31 5-3.51 6.4l-11.83 7.52q-.39.23-.8.23Z" style="fill:#ede5b4"/><path d="M88.13 45.05h-.17l-20.2-2.22a1.5 1.5 0 0 1 .33-2.99l20.2 2.22a1.5 1.5 0 0 1-.16 3Z" style="fill:#ede5b4"/><path d="M67.93 67.49a1.5 1.5 0 0 1-.8-2.78l12.77-7.92a.7.7 0 0 0 .29-.74l-3.61-13.22a1.5 1.5 0 1 1 2.89-.79l3.61 13.21a3.7 3.7 0 0 1-1.6 4.08l-12.77 7.92q-.38.23-.79.23Z" style="fill:#ede5b4"/><path d="M92.01 65.16a1.5 1.5 0 0 1-.81-.24l-9.95-6.44a1.5 1.5 0 0 1-.44-2.07 1.5 1.5 0 0 1 2.07-.44l9.95 6.44a1.5 1.5 0 0 1-.82 2.75M52.06 80.01q-.36 0-.7-.17l-11.33-5.99a1.5 1.5 0 1 1 1.41-2.65l11.33 5.99a1.5 1.5 0 0 1 .62 2.03c-.27.51-.79.8-1.33.8ZM29.13 36.03a1.5 1.5 0 0 1-1.29-.73 1.5 1.5 0 0 1 .51-2.06l7.56-4.55a6.9 6.9 0 0 0 3.31-5.86v-4.58a1.5 1.5 0 1 1 3 0v4.58a9.9 9.9 0 0 1-4.77 8.43l-7.56 4.55q-.37.22-.77.21Z" style="fill:#ede5b4"/><path d="M43.56 39.52a6.5 6.5 0 0 1-5.87-3.76l-2.36-5.15a1.5 1.5 0 0 1 2.73-1.25l2.36 5.15a3.45 3.45 0 0 0 3.9 1.92l5.48-1.26 3.36-5.74a6.4 6.4 0 0 0-.53-5.64l-5.38-8.71a1.5 1.5 0 1 1 2.55-1.57l5.38 8.71a9.4 9.4 0 0 1 .72 8.43l-.1.2-3.75 6.4c-.21.36-.56.61-.96.7l-6.11 1.4a6 6 0 0 1-1.43.16Z" style="fill:#ede5b4"/><path d="M33.27 87.1c-12.33 0-13.55-14.57-14.28-23.28a7 7 0 0 1 .45-2.63c.13-.39.28-.84.27-1.05-.02-.01-.19-.3-.31-.49-.36-.6-.82-1.34-.88-2.29-.12-1.76-.27-3.8-.45-5.77-.13-1.37.48-2.5.98-3.41.19-.34.46-.86.48-1.05-.06-.34-.33-.92-.59-1.49a9 9 0 0 1-1.01-3.05c-1.34-12.4-1.2-36.82 8.93-40.49 18.57-6.72 29.63 4.02 38.51 12.66 2.85 2.77 5.54 5.38 8.17 7.14 11.64 7.76 24.57 31.91 20.33 42.5-3.55 8.88-13.9 13.38-30.76 13.38-5.88 0-9.52 2.08-13.37 4.28-4.14 2.37-8.83 5.05-16.47 5.05Zm4.68-83.07c-2.97 0-6.19.56-9.73 1.84-4.74 1.71-8.5 16.08-6.32 36.3.05.49.36 1.15.66 1.79.36.78.77 1.66.92 2.61.22 1.41-.41 2.58-.92 3.52-.19.35-.51.94-.51 1.15.19 2 .33 4.07.46 5.86.02.01.19.3.31.49.36.6.82 1.34.88 2.29.07 1.01-.23 1.89-.46 2.6-.12.37-.28.83-.26 1.03 1.2 14.3 3.99 19.61 10.3 19.61s10.42-2.2 14.49-4.52c4.13-2.36 8.41-4.81 15.35-4.81 15.06 0 24.17-3.66 27.05-10.87 3.19-7.97-8.08-30.52-18.83-37.69-2.94-1.96-5.76-4.7-8.74-7.6-6.65-6.46-14-13.6-24.64-13.6Zm-10.41-.04" style="fill:#004241"/></svg>