<svg xmlns="http://www.w3.org/2000/svg" data-name="flatten icons" viewBox="0 0 112 112"><path d="M0 0h112v112H0z" style="fill:none;stroke-width:0"/><path d="M90.09 90.33s8.32 4.59 13.61.59c6.3-4.78 6.08-8.36 6.3-11.85.09-1.51-.67-6.25-2.87-7.91s-9.63 3.68-9.63 3.68-14.51 11.37-7.4 15.5Z" style="fill:#f2efdf"/><path d="M98.37 94.55c-4.69 0-8.99-2.33-9.25-2.47l-.04-.02a5.5 5.5 0 0 1-2.94-4.46c-.07-1.02.09-6.49 10.11-14.34 3.29-2.37 9.13-5.92 12.07-3.7 3.07 2.32 3.77 7.95 3.66 9.63l-.04.66c-.18 3.4-.41 7.63-7.05 12.67a10.6 10.6 0 0 1-6.53 2.04Zm-7.3-5.97c.4.21 7.35 3.82 11.42.74 5.16-3.91 5.3-6.59 5.47-9.69l.04-.69c.08-1.29-.69-4.98-1.99-6.12-1.06-.09-4.5 1.58-7.35 3.63-3.62 2.84-8.71 8.14-8.52 10.87.03.37.16.8.94 1.27Zm15.01-15.75" style="fill:#004241"/><path d="M41.58 71.3a21.8 21.8 0 0 1 3.13 18.85c-.38 1.29-.18 5.01.29 6.29 1.82 4.93-6.71 10.23-8.51 11.51-3.39 2.41-7.27-2.53-11.14-2.26A21.8 21.8 0 1 1 41.58 71.3" style="fill:#bbdd80"/><path d="M34.46 110.62c-1.84 0-3.6-.88-5.13-1.64-1.35-.67-2.75-1.37-3.84-1.29A23.7 23.7 0 0 1 4.4 97.73C.72 92.55-.73 86.24.33 79.97s4.5-11.75 9.68-15.44 11.49-5.13 17.76-4.07 11.75 4.5 15.44 9.68a23.7 23.7 0 0 1 3.42 20.58c-.25.83-.09 4.12.25 5.03 2.21 6-5.72 11.42-8.7 13.46l-.53.37a5.4 5.4 0 0 1-3.19 1.04m-8.8-6.94c2 0 3.83.91 5.45 1.72 2.25 1.12 3.33 1.54 4.21.92l.59-.41c6.89-4.72 7.72-7.38 7.21-8.78-.59-1.59-.86-5.77-.33-7.55a19.7 19.7 0 0 0-2.84-17.12 19.7 19.7 0 0 0-12.84-8.06c-5.22-.88-10.47.32-14.78 3.39s-7.17 7.63-8.05 12.84.32 10.46 3.39 14.78a19.7 19.7 0 0 0 17.55 8.29l.45-.02Z" style="fill:#004241"/><path d="M35.26 97.47a2 2 0 0 1-1.99-1.88c-.31-4.97-4.09-7.04-10.28-9.84-3.92-1.77-6.43-4.12-8.44-6-1.28-1.19-2.38-2.23-3.58-2.9-2.54-1.43-6.3.26-6.34.28a2 2 0 1 1-1.7-3.62c.23-.11 5.64-2.59 10-.14 1.62.91 2.95 2.15 4.35 3.46 1.99 1.86 4.05 3.78 7.36 5.28 5.69 2.58 12.14 5.5 12.62 13.23a2 2 0 0 1-1.87 2.12h-.13Z" style="fill:#004241"/><path d="M24.93 85.28c-.71 0-1.39-.38-1.76-1.04-5.11-9.34 3.1-22.19 3.45-22.73a2 2 0 1 1 3.35 2.17c-.07.11-7.26 11.39-3.3 18.63a2 2 0 0 1-1.76 2.96Z" style="fill:#004241"/><circle cx="85.47" cy="68.52" r="21.81" style="fill:#bbdd80"/><path d="M85.47 92.32a23.8 23.8 0 0 1-16.72-6.85c-4.53-4.46-7.05-10.43-7.09-16.79s2.39-12.36 6.86-16.88c9.22-9.35 24.32-9.45 33.67-.23s9.45 24.32.23 33.67a23.7 23.7 0 0 1-16.95 7.08m0-43.6a19.77 19.77 0 0 0-19.81 19.94 19.7 19.7 0 0 0 5.9 13.97c7.78 7.67 20.34 7.58 28.01-.2s7.58-20.34-.19-28.01a19.7 19.7 0 0 0-13.91-5.7" style="fill:#004241"/><path d="M99.36 86.59q-.3 0-.61-.1a2 2 0 0 1-1.3-2.51s.32-1.62-.64-5.62c-1.17-4.85-5.25-6.22-11.83-7.91-4.16-1.07-7.04-2.94-9.35-4.44-1.47-.95-2.73-1.78-4.03-2.23-2.3-.81-5.25.72-6.2 1.38a2 2 0 0 1-2.78-.5 2 2 0 0 1 .49-2.78c.21-.14 5.1-3.54 9.82-1.88 1.75.62 3.27 1.61 4.89 2.66 2.28 1.48 4.64 3.02 8.17 3.92 6.05 1.55 12.91 3.31 14.73 10.84 1.25 5.17.69 7.38.57 7.77a2 2 0 0 1-1.91 1.39Z" style="fill:#004241"/><path d="M86.46 70.62c-.59 0-1.17-.26-1.56-.75-6.63-8.29-.81-23.25-.56-23.88a2 2 0 0 1 2.59-1.12 2 2 0 0 1 1.12 2.59c-.05.13-5.22 13.43-.03 19.91a2 2 0 0 1-1.56 3.25" style="fill:#004241"/><path d="M46.67 46.93c-.79 1.21-2.92 2.59-4.44 3.47a6.5 6.5 0 0 1-3.82.85c-1.72-.14-4.1-.53-5.61-1.59-2.58-1.82-4.55-5.15-4.4-7.73s.76-6.64.76-6.64z" style="fill:#f2efdf"/><path d="M38.96 53.27q-.36 0-.72-.03-4.33-.35-6.6-1.95c-3.23-2.28-5.43-6.26-5.24-9.48.16-2.64.75-6.65.78-6.82.1-.68.54-1.25 1.17-1.53a2 2 0 0 1 1.92.16l17.51 11.65c.92.61 1.17 1.84.56 2.76-.3.46-1.2 1.84-5.11 4.11a8.5 8.5 0 0 1-4.26 1.14Zm-8.24-14.55a66 66 0 0 0-.32 3.32c-.11 1.81 1.52 4.55 3.55 5.98.87.62 2.56 1.06 4.62 1.23a4.5 4.5 0 0 0 2.65-.59q1.4-.81 2.26-1.46l-12.77-8.49Z" style="fill:#004241"/><circle cx="48.5" cy="25.19" r="21.81" style="fill:#bbdd80"/><path d="M48.47 48.99c-5 0-10.04-1.57-14.33-4.81a23.83 23.83 0 0 1-4.62-33.35C37.43.36 52.39-1.71 62.86 6.21s12.54 22.88 4.62 33.35A23.8 23.8 0 0 1 48.46 49Zm.05-43.6a19.8 19.8 0 0 0-11.97 35.6c8.71 6.59 21.16 4.86 27.75-3.85s4.86-21.16-3.85-27.75a19.7 19.7 0 0 0-11.93-4m17.37 32.96" style="fill:#004241"/><path d="M38.54 43.3c-2.65 0-4.35-.25-4.46-.27a2 2 0 0 1 .6-3.96c.03 0 3.46.5 8.1-.01 7.95-.87 9.18-6.04 10.05-13.25.38-3.17-.24-5.74-.83-8.22-.56-2.33-1.09-4.52-.61-6.79.5-2.38-1.4-5.11-2.17-5.97a2 2 0 0 1 2.95-2.7c.17.19 4.17 4.6 3.14 9.49-.29 1.39.12 3.08.59 5.03.62 2.56 1.39 5.75.92 9.63-.7 5.79-1.87 15.47-13.59 16.75q-2.64.27-4.68.25Z" style="fill:#004241"/><path d="M54.95 26.01a2 2 0 0 1-1.44-3.39c6.18-6.43 14.36-3.6 17.83-1.21a2 2 0 0 1 .51 2.78 2 2 0 0 1-2.78.51c-.32-.22-7.33-4.88-12.67.68-.39.41-.92.61-1.44.61Z" style="fill:#004241"/><path d="M36.49 107.95c1.8-1.28 10.33-6.58 8.51-11.51a10 10 0 0 1-.39-2.09l-9.36 1.12s.73 2.75-2.32 5.75a18 18 0 0 1-7.59 4.48c3.86-.27 7.75 4.66 11.14 2.26Z" style="fill:#f2efdf"/><path d="M34.46 110.62c-1.84 0-3.6-.88-5.13-1.64-1.35-.67-2.76-1.38-3.84-1.29a2 2 0 0 1-.57-3.95l.49-.14a16 16 0 0 0 6.13-3.81c2.1-2.07 1.79-3.79 1.77-3.87-.15-.56-.04-1.13.29-1.61s.85-.76 1.42-.83l9.36-1.12a2 2 0 0 1 2.23 1.79c.09.92.21 1.43.27 1.59 2.21 6-5.72 11.42-8.7 13.47l-.53.37a5.3 5.3 0 0 1-3.19 1.04m-3.48-5.29.14.07c2.25 1.12 3.33 1.55 4.21.92l.59-.41c6.89-4.72 7.72-7.38 7.21-8.78l-.17-.56-5.68.68c-.2 1.45-.9 3.4-2.93 5.4-1.13 1.12-2.29 2-3.37 2.69Z" style="fill:#004241"/></svg>