<svg xmlns="http://www.w3.org/2000/svg" data-name="flatten icons" viewBox="0 0 112 112"><path d="M0 0h112v112H0z" style="fill:none;stroke-width:0"/><path d="M99.39 60.01c2.94-2.91 2.86-7.66.19-10.81a8 8 0 0 0-2.61-2.14 3.3 3.3 0 0 1-1.87-3.37q.03-.4.04-.82a9.3 9.3 0 0 0-4.33-7.85 8.7 8.7 0 0 0-6.5-11.84 8.8 8.8 0 0 0-7.79 2.39 9.3 9.3 0 0 0-15.94-6.35 9.3 9.3 0 0 0-14.43-5.06 5.6 5.6 0 0 1-5.34.88q-1.5-.63-3.27-.5a7 7 0 0 0-5.49 3.71q-.45.81-.65 1.59a5.6 5.6 0 0 1-2.96 3.67c-1.15.54-2.42 1.62-3.88 3.67a5 5 0 0 0-.94 2.84 7 7 0 0 0 .33 2.11l-.3-.02a10.76 10.76 0 0 0-9.88 15.02 4.4 4.4 0 0 1-.56 4.38 7 7 0 0 0-1.31 4.06A7 7 0 0 0 16.18 62l29.9 37.62h27.19l23.69-38.14A5.5 5.5 0 0 0 99.39 60Z" style="stroke-width:0;fill:#efe8c7"/><path d="M73.27 101.63H46.08a2 2 0 0 1-1.57-.76l-29.6-37.25a9 9 0 0 1-5.01-8.05c0-1.89.58-3.7 1.69-5.23a2.4 2.4 0 0 0 .34-2.41 12.78 12.78 0 0 1 9.69-17.66v-.25c0-1.4.46-2.82 1.31-4.01q2.3-3.23 4.66-4.32a3.6 3.6 0 0 0 1.88-2.38q.29-1.04.83-2.04a9 9 0 0 1 7.07-4.73 9 9 0 0 1 4.2.65c1 .41 2.27.18 3.39-.64a11.3 11.3 0 0 1 16.43 3.49 11 11 0 0 1 5.83-1.62c4.94 0 9.19 3.24 10.7 7.71a10.79 10.79 0 0 1 15.21 12.14 11.2 11.2 0 0 1 3.95 9.6c-.05.61.22 1.15.7 1.36a10 10 0 0 1 3.32 2.67c3.41 4.03 3.27 9.98-.31 13.53a8 8 0 0 1-2.51 1.71l-23.32 37.54c-.36.59-1.01.94-1.7.94Zm-26.23-4h25.11l23.1-37.19q.42-.66 1.18-.88a3.6 3.6 0 0 0 1.55-.97c2.11-2.09 2.15-5.65.07-8.1a6 6 0 0 0-1.9-1.61 5.25 5.25 0 0 1-3.04-5.37 7.3 7.3 0 0 0-3.37-6.8 2 2 0 0 1-.78-2.43 6.73 6.73 0 0 0-11.01-7.3c-.57.56-1.42.74-2.16.43a2 2 0 0 1-1.25-1.82 7.33 7.33 0 0 0-7.29-7.18c-1.98 0-3.83.78-5.22 2.2a2 2 0 0 1-3.36-.87 7.3 7.3 0 0 0-7.03-5.38c-1.56 0-3.04.48-4.29 1.4-2.26 1.65-4.98 2.07-7.29 1.11a5 5 0 0 0-2.33-.35 5.1 5.1 0 0 0-3.91 2.68 5 5 0 0 0-.47 1.14 7.6 7.6 0 0 1-4.05 4.97q-1.42.66-3.1 3.02a3 3 0 0 0-.57 1.68q0 .76.24 1.5c.2.62.08 1.29-.31 1.81s-1.02.84-1.66.8h-.22v-.01a8.78 8.78 0 0 0-8.07 12.23c.9 2.07.61 4.44-.77 6.34a4.95 4.95 0 0 0 2.12 7.47q.47.2.79.6z" style="fill:#004241"/><path d="m46.08 99.63-13.65-.15c-12.74-.17-24.06-8.82-26.87-21.25q-.15-.68-.27-1.35L2 58.09l19.7 4.45a28.4 28.4 0 0 1 21.86 23.87c.5 3.71 1.13 7.41 2 11.05z" style="fill:#aad681"/><path d="m46.08 99.63-13.65-.15c-12.74-.17-24.06-8.82-26.87-21.25q-.15-.68-.27-1.35L2 58.09s9.49 28.14 41.49 38.72a3.9 3.9 0 0 1 2.58 2.76z" style="fill:#92bf62"/><path d="M46.08 101.63h-.02l-13.65-.15c-13.97-.19-25.81-9.56-28.8-22.81q-.16-.72-.29-1.44L.03 58.44a2 2 0 0 1 2.41-2.29l19.7 4.45a30.5 30.5 0 0 1 23.4 25.55c.55 4.12 1.2 7.67 1.97 10.85l.52 2.16a2 2 0 0 1-1.94 2.46ZM4.49 60.7l2.78 15.83q.11.63.25 1.25c2.54 11.25 13.03 19.53 24.94 19.69l11.08.12c-.77-3.23-1.41-6.81-1.96-10.92a26.45 26.45 0 0 0-20.32-22.18zm53.05-18.32a2 2 0 0 1-1.95-1.57c-1.25-5.66 1.85-8.96 4.49-10.39a8.5 8.5 0 0 1 4.83-7.29c6.72-3.52 12.56.64 12.8.82a2 2 0 0 1-2.35 3.23c-.18-.12-4.13-2.86-8.6-.51-3.1 1.63-2.7 4.32-2.64 4.62.19 1-.4 2.01-1.37 2.31-.71.23-4.29 1.67-3.26 6.35a2 2 0 0 1-1.95 2.43m39.43 6.67q-.57 0-1.07-.31c-4.16-2.64-9.64-.67-9.7-.65a2 2 0 0 1-2.69-2.03c.03-.73-.17-3.26-4.32-3.69-.77-.08-4.66-.25-5.57 4.23a2 2 0 0 1-2.34 1.58 2 2 0 0 1-1.59-2.32c.54-2.88 3.31-8.14 9.91-7.46 4.69.49 6.78 3.01 7.54 5.32 2.63-.52 7.03-.81 10.9 1.65a2 2 0 0 1-1.07 3.69Z" style="fill:#004241"/><path d="M74.99 61.58a2 2 0 0 1-1.63-3.16 6.3 6.3 0 0 0 1.16-3.64 6.3 6.3 0 0 0-6.28-6.28 6.3 6.3 0 0 0-3.39 1c-.56.36-1.26.42-1.87.15a2 2 0 0 1-1.17-1.47 6.3 6.3 0 0 0-6.17-5.12 6.3 6.3 0 0 0-6.28 6.28l.02.46c.05.62-.19 1.23-.65 1.64-.46.42-1.08.6-1.69.49a4.6 4.6 0 0 0-4.91 2.42 2 2 0 0 1-2.69.86 2 2 0 0 1-.86-2.69 8.6 8.6 0 0 1 6.89-4.63 10.27 10.27 0 0 1 19.51-2.86q1.58-.53 3.27-.54a10.29 10.29 0 0 1 8.37 16.24 2 2 0 0 1-1.63.84ZM32.04 36.86q-.61 0-1.15-.37c-5.15-3.62-11.01-1.53-11.07-1.5a2 2 0 0 1-1.39-3.76c.32-.12 7.92-2.83 14.76 1.99a2 2 0 0 1-1.16 3.64Z" style="fill:#004241"/><path d="M32.74 36.86a2 2 0 0 1-1.79-2.87 9.1 9.1 0 0 1 8.12-5.08c2.8 0 5.4 1.27 7.12 3.48a2 2 0 0 1-3.16 2.46 5 5 0 0 0-3.96-1.94 5 5 0 0 0-4.52 2.83 2 2 0 0 1-1.8 1.13Zm24.57 42.85q-.35 0-.68-.12a8.37 8.37 0 0 1-.71-15.43 8.3 8.3 0 0 1 6.09-.39 11.5 11.5 0 0 1 13.93-5.2 11.5 11.5 0 0 1 6.8 6.63 2 2 0 1 1-3.72 1.45 7.5 7.5 0 0 0-4.43-4.32 7.5 7.5 0 0 0-9.59 4.5l-.07.24a2 2 0 0 1-3.02 1.05 4.3 4.3 0 0 0-4.28-.34 4.4 4.4 0 0 0-2.25 2.46A4.36 4.36 0 0 0 58 75.82a2 2 0 0 1 1.2 2.56 2 2 0 0 1-1.88 1.32Z" style="fill:#004241"/><path d="m65.92 99.63 13.65-.15c12.74-.17 24.06-8.82 26.87-21.25q.15-.68.27-1.35L110 58.09l-19.7 4.45a28.4 28.4 0 0 0-21.86 23.87 112 112 0 0 1-2 11.05z" style="fill:#aad681"/><path d="m65.92 99.63 13.65-.15c12.74-.17 24.06-8.82 26.87-21.25q.15-.68.27-1.35L110 58.09s-9.49 28.14-41.49 38.72a3.9 3.9 0 0 0-2.58 2.76z" style="fill:#92bf62"/><path d="M65.92 101.63a2 2 0 0 1-1.56-.75 2 2 0 0 1-.38-1.71l.52-2.16c.77-3.19 1.41-6.74 1.97-10.85a30.5 30.5 0 0 1 23.4-25.55l19.7-4.45a2 2 0 0 1 2.41 2.29l-3.29 18.79q-.12.73-.29 1.44c-2.99 13.24-14.83 22.62-28.79 22.81l-13.65.15h-.02Zm41.59-40.92L90.74 64.5a26.5 26.5 0 0 0-20.32 22.18 113 113 0 0 1-1.96 10.92l11.08-.12c11.91-.16 22.4-8.44 24.94-19.69q.14-.62.25-1.25z" style="fill:#004241"/><circle cx="26.17" cy="45.83" r="2.12" style="fill:#d6ceae"/><circle cx="71.72" cy="34.88" r="2.12" style="fill:#d6ceae"/><circle cx="53.16" cy="87.5" r="2.12" style="fill:#d6ceae"/><circle cx="51.97" cy="57.19" r="3.05" style="fill:#d6ceae"/></svg>