<svg xmlns="http://www.w3.org/2000/svg" data-name="flatten icons" viewBox="0 0 112 112"><path d="M0 0h112v112H0z" style="fill:none;stroke-width:0"/><path d="M45.59 24.5S50.1-.44 93.1 7.05c0 0-24.27 23.01-47.51 17.46Z" style="fill:#aad681"/><path d="M53.02 27.35q-4.1 0-7.9-.91a2 2 0 0 1-1.5-2.3c.05-.29 1.34-7.03 8.34-12.73 9.1-7.42 23.06-9.55 41.49-6.34a2 2 0 0 1 1.03 3.42 85 85 0 0 1-15.44 11.1c-9.1 5.13-17.95 7.75-26.02 7.75Zm-4.87-4.38c16.46 2.66 33.39-9.07 40.32-14.61-30.01-3.92-38.29 9.51-40.32 14.61" style="fill:#004241"/><path d="M50.06 19.41a9 9 0 0 0-5.51-.47 9 9 0 0 0-6.83 7.25 9 9 0 0 0-.07 2.52c.44 3.9-.23 7.86-1.54 11.56-4.48 12.66-1.48 28.61 9.04 41.14 14.79 17.62 38.82 21.79 53.68 9.32s14.91-36.86.12-54.48C88.42 23.71 73.22 17.99 59.97 20.23c-3.33.56-6.79.5-9.91-.81Z" style="fill:#ffe948"/><path d="m105.72 46.78-10.05 8.19a2.9 2.9 0 0 0-.81 3.36l1.1 2.48a2.85 2.85 0 0 1-3.69 3.79l-2.15-.88a2.85 2.85 0 0 0-3.93 2.63v2.84c0 2.02-2.04 3.4-3.92 2.64l-1.64-.66a2.85 2.85 0 0 0-3.86 2.06l-1.51 7.23a2.85 2.85 0 0 1-5.25.86l-.33-.56a2.85 2.85 0 0 0-4.27-.76 2.85 2.85 0 0 1-4.66-2.2v-.5a2.85 2.85 0 0 0-4.12-2.55l-2.4 1.2a2.85 2.85 0 0 1-4.03-1.81l-.51-1.9a2.85 2.85 0 0 0-3.03-2.1l-8.24.82a49 49 0 0 0 6.71 10.45c14.79 17.62 38.82 21.79 53.68 9.32 12.06-10.12 14.36-28.1 6.89-43.94Z" style="stroke-width:0;fill:#f2de2a"/><path d="M78.45 99.92a40 40 0 0 1-6.83-.6c-10.6-1.84-20.55-7.75-28-16.63-10.7-12.74-14.3-29.25-9.39-43.09a24 24 0 0 0 1.44-10.67q-.16-1.52.08-3.07a10.98 10.98 0 0 1 15.09-8.3q3.68 1.55 8.8.68c14.49-2.45 30.14 3.95 40.84 16.71 7.46 8.88 11.55 19.7 11.52 30.46-.02 10.89-4.25 20.42-11.89 26.84a33.3 33.3 0 0 1-21.66 7.66ZM46.59 20.71q-.8 0-1.6.18a6.94 6.94 0 0 0-5.34 7.6c.44 3.93-.11 8.12-1.65 12.45-4.43 12.51-1.1 27.52 8.69 39.18 6.85 8.16 15.95 13.58 25.62 15.26 9.55 1.66 18.51-.54 25.24-6.19s10.44-14.09 10.46-23.78c.02-9.82-3.74-19.72-10.59-27.88-9.8-11.67-24.02-17.55-37.11-15.33-4.16.71-7.87.39-11.02-.94a7 7 0 0 0-2.69-.54Z" style="fill:#004241"/><path d="M87.38 89.35s4.83 2.75 11.45 1.38" style="fill:#aad681"/><path d="M95.1 93.11c-5.08 0-8.53-1.92-8.71-2.02a2 2 0 0 1 1.97-3.48c.09.05 4.36 2.35 10.06 1.16a2 2 0 0 1 .82 3.92q-2.2.44-4.13.43Z" style="fill:#004241"/><path d="M75.98 34.22q-.65 0-1.21-.41c-4.65-3.53-13.1-2.55-15.96-1.87-3.52.83-7.87.05-8.05.02a2 2 0 0 1-1.61-2.33 2 2 0 0 1 2.33-1.61c.1.02 3.75.65 6.42.02.5-.12 12.21-2.79 19.29 2.58a2 2 0 0 1-1.21 3.59Z" style="fill:#fff"/><path d="M63.55 76.09s-2.84 30.26-30.33 30.26S2 76.09 2 76.09" style="fill:#ffe948"/><path d="M8.78 77.01c1.89 7.26 7.74 21.77 24.36 21.77s22.07-14.51 23.75-21.77z" style="fill:#fff"/><path d="m40.73 79.76 7.25 5.45c.99.74 2.41.36 2.92-.77a30 30 0 0 0 1.89-5.81 1.92 1.92 0 0 0-1.88-2.33h-9.03a1.92 1.92 0 0 0-1.15 3.46m-10.42 2.82-8.34 7.66c-.92.84-.8 2.33.24 3.02a18.6 18.6 0 0 0 8.49 2.98 1.9 1.9 0 0 0 2.09-1.92V83.67a1.48 1.48 0 0 0-2.47-1.09Zm7.09-1.14a.73.73 0 0 0-1.19.63l1.13 11.56a1.94 1.94 0 0 0 2.59 1.62 17 17 0 0 0 6.2-3.84 1.9 1.9 0 0 0-.14-2.83l-8.6-7.14Zm-9.48-1.74a1.92 1.92 0 0 0-1.22-3.4H14.72a1.92 1.92 0 0 0-1.87 2.38 30 30 0 0 0 2.9 7.4 2.42 2.42 0 0 0 3.65.67l8.52-7.06Z" style="fill:#ffe948"/><path d="M33.23 108.36C4.3 108.36.05 76.66.02 76.34a2 2 0 0 1 1.99-2.24h61.55a2 2 0 0 1 1.99 2.18c-.03.32-3.35 32.08-32.32 32.08M4.41 78.1c.6 2.71 1.94 7.51 4.7 12.24 5.42 9.31 13.54 14.03 24.13 14.03s18.59-4.74 23.72-14.09a42 42 0 0 0 4.28-12.17H4.4Z" style="fill:#004241"/><path d="M81.42 38.63a2 2 0 0 1-2-2c0-.53.21-1.04.58-1.42a2.1 2.1 0 0 1 2.83 0 2 2 0 0 1 0 2.83c-.38.38-.88.59-1.41.59" style="fill:#fff"/></svg>