<svg xmlns="http://www.w3.org/2000/svg" data-name="flatten icons" viewBox="0 0 112 112"><path d="M0 0h112v112H0z" style="fill:none;stroke-width:0"/><path d="M90.65 64.01c1.65 11.86-3.31 21.18-12.54 26.84-1.04.64-3.36 4.75-4.32 5.58-4.19 3.61-7.96 3.61-11.94 3.56-3.38-.04-6.84-3.55-10.07-3.16-15.71 1.9-28.45-8.72-30.47-23.17-2.44-17.52 11.99-27.52 31.13-30.19s35.74 2.83 38.2 20.52Z" style="stroke-width:0;fill:#f28840"/><path d="M78.11 90.85c9.23-5.66 14.19-14.98 12.54-26.84q-.7-4.8-2.66-8.43a2.77 2.77 0 0 0-4.21-.76l-6.33 5.31a2.8 2.8 0 0 0-.68 3.41l2.49 4.82a2.79 2.79 0 0 1-2.97 4.02l-6.14-1.12A2.78 2.78 0 0 0 67 74.84l.09.28a2.78 2.78 0 0 1-3.25 3.56l-3.12-.69c-1.51-.33-3 .63-3.32 2.14a2.78 2.78 0 0 1-5.05.93l-.7-1.07a2.8 2.8 0 0 0-4.09-.64l-6.01 4.91a2.78 2.78 0 0 1-4.35-1.14l-.94-2.42a2.78 2.78 0 0 0-4.19-1.26l-4.68 3.29a2.8 2.8 0 0 0-.59 4c5.55 7.15 14.62 11.35 24.98 10.09 3.23-.39 6.68 3.12 10.07 3.16 3.98.04 7.75.04 11.94-3.56.96-.83 3.28-4.94 4.32-5.58Z" style="stroke-width:0;fill:#e57e38"/><path d="M63.06 102h-1.23c-2.07-.02-4-.98-5.71-1.82-1.54-.76-3-1.49-4.1-1.35-16.38 1.98-30.44-8.71-32.69-24.88-2.35-16.86 10.23-29.29 32.84-32.44 10.42-1.45 19.58-.48 26.49 2.8 7.89 3.75 12.72 10.47 13.97 19.43 1.7 12.22-3.08 22.45-13.47 28.82-.3.25-1.26 1.67-1.84 2.52a16 16 0 0 1-2.22 2.87c-4.32 3.71-8.38 4.06-12.04 4.06Zm-10.78-7.2c2.01 0 3.91.94 5.6 1.78 1.45.72 2.83 1.4 3.98 1.41 3.73.05 6.95.08 10.62-3.08.26-.25 1.02-1.36 1.52-2.09 1.31-1.92 2.16-3.13 3.06-3.68 8.95-5.49 13.07-14.32 11.6-24.86-1.07-7.67-5.01-13.18-11.72-16.37-6.21-2.95-14.58-3.79-24.22-2.45-20.47 2.85-31.47 13.29-29.43 27.93 1.94 13.95 14.09 23.17 28.25 21.46q.38-.04.75-.04Z" style="stroke-width:0;fill:#004241"/><path d="M47.96 49.75a2 2 0 0 1-1.93-1.5 31 31 0 0 0-3.82-8.17c-3.47-5.16-7.86-7.85-13.05-7.98a2 2 0 0 1 .05-4h.05c15.59.39 20.44 18.38 20.64 19.15a2 2 0 0 1-1.43 2.44 2 2 0 0 1-.5.06Z" style="stroke-width:0;fill:#004241"/><path d="M40.91 33.88S45.07 18.46 76.02 12c0 0-2.07 20.8-35.11 21.88" style="stroke-width:0;fill:#aad681"/><path d="M40.91 35.88a2 2 0 0 1-1.93-2.52c.18-.68 4.84-16.68 36.64-23.32a2 2 0 0 1 2.4 2.16c-.02.23-2.65 22.55-37.04 23.68zm32.36-21.21c-13.3 3.25-20.77 8.19-24.76 11.89a25 25 0 0 0-4.32 5.13c20.82-1.66 27.19-11.92 29.08-17.02m-21.5 84.17a2 2 0 0 1-.19-3.99c.1 0 10.52-1.04 15.93-4.32a2 2 0 0 1 2.75.67c.57.94.27 2.17-.67 2.75-6.19 3.76-17.16 4.83-17.62 4.88h-.19ZM48.08 56c-4.27 0-6.26-2.44-6.37-2.58a2 2 0 0 1 .33-2.81 2 2 0 0 1 2.78.29c.13.15 2.12 2.2 7.08.29a2 2 0 0 1 1.43 3.73 15 15 0 0 1-5.25 1.07Z" style="stroke-width:0;fill:#004241"/><path d="m29.21 69.3-.24-.01a2 2 0 0 1-1.75-2.22 11.6 11.6 0 0 1 6.86-9.56 2 2 0 0 1 2.57 1.18 2 2 0 0 1-1.16 2.57c-.19.07-3.73 1.55-4.3 6.29a2 2 0 0 1-1.98 1.76Z" style="stroke-width:0;fill:#fff"/></svg>