<svg xmlns="http://www.w3.org/2000/svg" data-name="flatten icons" viewBox="0 0 112 112"><path d="M0 0h112v112H0z" style="fill:none;stroke-width:0"/><path d="M14.65 24.82a39 39 0 0 1-3.9 11.08c-5.7 10.23-3.63 15.88-2.07 24.33 1.81 9.73-.67 11.42 1.77 22.92 2.44 11.49 16.29 21.61 26.52 24.08s19.02 4.76 30.7 0c2.69-1.1 5.89-3.33 7.71-6.59a5.3 5.3 0 0 1 4.54-2.62c3.65-.06 7.24-1.82 11.23-2.45C100.78 94.05 105 84.72 105 70.42s-8.43-36.93-26.49-39.16-27.69-7.45-34.31-8.45-15.21-5.55-21.84-3.74c-3.56.97-6.92 1.96-7.71 5.76Z" style="stroke-width:0;fill:#edcc29"/><path d="M44.2 22.8c-2.59-.39-5.49-1.33-8.46-2.21.57 4.28 2.58 11.4 9.51 14.78 10.27 5.02 35.61-3.65 35.61-3.65l-.41-.13q-.95-.2-1.93-.33c-18.06-2.23-27.69-7.45-34.31-8.45Zm48.44 15.62c5.26 7.82 7.81 17.28 7.81 24.58 0 14.3-11.93 22.49-23.06 24.01-4.61.63 0 2.25-3.52 5.85-1.51 1.55-5.69 1.06-6.75 2.69s-5.18 2.29-6.98 2.81 2.19 3.2.64 3.75c-13.23 4.67-26.72.25-38.25-2.16 4.65 3.56 9.91 6.17 14.46 7.27 10.23 2.47 19.02 4.76 30.7 0a16 16 0 0 0 7.71-6.59 5.3 5.3 0 0 1 4.54-2.62c3.65-.06 7.24-1.82 11.23-2.45 9.63-1.52 13.85-10.85 13.85-25.15 0-9.84-3.99-23.63-12.37-31.99Z" style="stroke-width:0;fill:#ccbc29"/><path d="M54 111.99c-5.81 0-11.22-1.3-16.8-2.65l-.69-.17C25.02 106.4 11.03 95.45 8.5 83.56c-1.36-6.39-1.25-9.88-1.15-13.25.09-2.78.17-5.41-.63-9.72l-.51-2.63c-1.42-7.12-2.64-13.28 2.8-23.04a37 37 0 0 0 3.69-10.51c1.06-5.07 5.54-6.3 9.15-7.28 4.93-1.34 10.4.31 15.69 1.9 2.51.76 4.87 1.47 6.97 1.79 2.55.39 5.35 1.3 8.9 2.46 5.91 1.93 14 4.58 25.37 5.98 19.27 2.38 28.24 25.96 28.24 41.14 0 20.39-8.45 26-15.53 27.12-1.55.25-3.1.69-4.61 1.13-2.22.64-4.52 1.31-6.91 1.35-1.2.02-2.28.63-2.82 1.6a18 18 0 0 1-8.7 7.47 38 38 0 0 1-14.44 2.91ZM25.75 20.64q-1.5 0-2.85.35c-3.89 1.06-5.78 1.82-6.28 4.24a41 41 0 0 1-4.11 11.64c-4.72 8.48-3.74 13.44-2.37 20.31l.52 2.68c.88 4.73.79 7.7.7 10.57-.1 3.28-.2 6.38 1.06 12.29 2.18 10.26 14.94 20.12 25.04 22.55l.69.17c9.64 2.33 17.97 4.34 28.79-.07a14 14 0 0 0 6.72-5.71 7.3 7.3 0 0 1 6.25-3.65c1.85-.03 3.8-.59 5.86-1.19 1.62-.47 3.29-.95 5.09-1.24 8.07-1.27 12.16-9.07 12.16-23.17s-8.6-35.18-24.73-37.17c-11.75-1.45-20.06-4.17-26.12-6.15-3.37-1.1-6.03-1.97-8.25-2.31-2.38-.36-4.88-1.12-7.53-1.92-3.63-1.1-7.36-2.22-10.63-2.22Zm-11.1 4.18" style="stroke-width:0;fill:#004241"/><path d="M35.53 12.34s11.09-10.79 27.65-1.99c16.57 8.81 17.26 16.81 27.3 20.13 0 0-5.87 3.46-21.06 2.7S35.53 12.34 35.53 12.34" style="stroke-width:0;fill:#aad681"/><path d="M73.59 35.3q-2.01 0-4.28-.11c-15.82-.79-34.46-20.64-35.25-21.48a2 2 0 0 1 .07-2.79c.12-.12 12.34-11.71 29.99-2.32 8.86 4.71 13.35 9.23 16.97 12.87 3.28 3.3 5.64 5.68 10.02 7.13.75.25 1.28.91 1.36 1.69s-.3 1.54-.97 1.94c-.24.14-5.4 3.09-17.9 3.09ZM38.5 12.52c4.66 4.63 19.2 18.08 31.01 18.67 7.34.36 12.41-.29 15.6-1.01-2.62-1.63-4.64-3.67-6.86-5.9-3.6-3.62-7.68-7.73-16.01-12.16-11.73-6.23-20.33-1.96-23.74.4" style="stroke-width:0;fill:#004241"/><path d="M22.37 21.06q-.42 0-.82-.17c-.39-.18-9.63-4.49-9.63-18.88 0-1.11.9-2.01 2-2.01s2 .9 2 2c0 6.09 1.91 9.94 3.77 12.25a5 5 0 0 1 .75-1.43c3.28-4.29 13.49-2.36 15.51-1.93a2 2 0 0 1 1.54 2.37 2 2 0 0 1-2.37 1.54c-4.63-.99-10.36-1.04-11.5.45-.52.68.2 2.26.53 2.9a2 2 0 0 1-1.78 2.91m55.65 79.12c-5.02 0-8.59-2.95-8.76-3.09a2 2 0 0 1 2.56-3.07c.08.07 3.49 2.79 7.75 2.02a2 2 0 1 1 .71 3.93q-1.17.2-2.27.2Zm-25.37 11.79a2 2 0 0 1-2-1.95 2 2 0 0 1 1.94-2.05c.08 0 3.62-.16 5.27-2.45q1.62-2.25.35-6.6a2 2 0 1 1 3.83-1.13c1.22 4.15.9 7.55-.96 10.1-2.84 3.9-8.17 4.06-8.39 4.07z" style="stroke-width:0;fill:#004241"/><path d="M68.42 97.74c-1.17 0-1.94-.29-2.04-.32a2 2 0 0 1-1.13-2.59 2 2 0 0 1 2.55-1.15c.25.07 4.1 1.08 7.74-7.45a2 2 0 0 1 2.62-1.05 2 2 0 0 1 1.05 2.62c-3.65 8.55-8.21 9.95-10.8 9.95Zm-24.62-.18q-.58 0-1.09-.33c-.05-.03-4.7-3.07-8.32-5.55-2.13-1.46-3.32-3.58-4.48-5.64-1.13-2.01-2.2-3.92-4.1-5.23-4.97-3.43-5.38-16.13-5.41-18.64a2 2 0 0 1 1.97-2.02h.03a2 2 0 0 1 2 1.97c.07 5.39 1.26 13.73 3.68 15.4 2.66 1.84 4.07 4.35 5.32 6.56 1.02 1.81 1.89 3.37 3.25 4.3 3.58 2.46 8.2 5.47 8.24 5.5a2 2 0 0 1-1.1 3.68Z" style="stroke-width:0;fill:#004241"/><path d="M21.28 47.52a2 2 0 0 1-1.99-1.82c-.52-5.69 3.41-13.4 3.58-13.73a2 2 0 1 1 3.55 1.83c-.99 1.93-3.5 7.78-3.15 11.53a2 2 0 0 1-1.81 2.17h-.19Z" style="stroke-width:0;fill:#fff"/></svg>