<svg xmlns="http://www.w3.org/2000/svg" data-name="flatten icons" viewBox="0 0 112 112"><path d="M0 0h112v112H0z" style="fill:none;stroke-width:0"/><path d="M96.4 40.71 68.57 78.82l-6.78-4.95a9 9 0 0 0-4.14-1.64 8.9 8.9 0 0 1-7.26-5.83l-.08-.22a9 9 0 0 0-4.22-4.88l-5.43-2.86c-2.63-1.92-5.63-4.67-8.53-7.87s-7.85-5.7-10.08-9.45c-1.09-1.83.43-4.96-.14-6.9-1.77-6-3.43-10.92-.52-14.9 2.74-3.75 8.17-5.67 14.5-6.25 1.61-.15 3.58-2.98 5.29-2.96 1.42.02 6.13 3.27 7.57 3.39 9.08.78 14.72 3.16 19.74 6.83l2.07 1.51c1.19.87 2.54 1.5 3.97 1.84 2.84.69 5.29 2.46 6.85 4.93l.17.28a11 11 0 0 0 2.88 3.09l11.96 8.73Z" style="fill:#579660"/><path d="M68.57 80.82a2 2 0 0 1-1.18-.38l-6.78-4.95a7 7 0 0 0-3.2-1.27 10.8 10.8 0 0 1-8.9-7.15l-.08-.22a7 7 0 0 0-3.27-3.78l-5.43-2.86-.25-.15a61 61 0 0 1-8.83-8.15c-1.06-1.17-2.48-2.28-3.97-3.45-2.37-1.85-4.82-3.77-6.34-6.32-.97-1.63-.7-3.5-.46-5.15.12-.83.25-1.76.12-2.2l-.25-.83c-1.71-5.77-3.33-11.21.03-15.81 2.87-3.93 8.38-6.38 15.93-7.06.24-.07.97-.66 1.42-1.01 1.16-.93 2.46-1.96 4.08-1.96 1.17.01 2.61.76 4.86 1.98a22 22 0 0 0 2.92 1.43c8.58.73 14.78 2.89 20.69 7.2l2.07 1.51a9 9 0 0 0 3.26 1.52c3.36.82 6.23 2.88 8.07 5.81l.17.27a9 9 0 0 0 2.37 2.54l11.96 8.73a2 2 0 0 1 .44 2.8L70.19 80.02c-.39.54-1 .82-1.62.82ZM41.72 56.74l5.3 2.79a11 11 0 0 1 5.18 5.98l.08.22a6.8 6.8 0 0 0 5.62 4.52c1.83.23 3.58.92 5.07 2.01l5.16 3.77L93.6 41.15 83.25 33.6a13 13 0 0 1-3.39-3.63l-.17-.27a9.2 9.2 0 0 0-5.63-4.05 13 13 0 0 1-4.68-2.17l-2.07-1.51c-5.27-3.85-10.87-5.78-18.73-6.45-1.06-.09-2.37-.77-4.42-1.88-.93-.5-2.46-1.33-3.04-1.49-.29.1-1.04.7-1.5 1.07-1.07.86-2.18 1.74-3.55 1.87-4.45.41-10.32 1.68-13.07 5.44-2.18 2.99-.97 7.1.58 12.31l.25.84c.38 1.27.18 2.61 0 3.9-.13.9-.3 2.12-.06 2.54 1.13 1.91 3.28 3.59 5.36 5.21a36 36 0 0 1 4.48 3.92 58 58 0 0 0 8.11 7.52Z" style="fill:#004241"/><path d="M96.4 40.71c4.94 3.61 7.2 9.75 6.68 16.33-.11 1.41.83 2.84.46 4.27-.32 1.26-1.93 2.51-2.45 3.76a29 29 0 0 1-3.32 5.86 29 29 0 0 1-5.08 5.37 26 26 0 0 1-7.47 4.27c-5.83 2.1-11.96 1.67-16.65-1.75-8.44-6.16-9.05-19.69-1.37-30.21.79-1.09 1.64-.92 2.54-1.85 1.59-1.65 3.32-4.25 5.14-5.4 7.1-4.5 15.49-5.04 21.51-.64Z" style="fill:#d8f99b"/><path d="M78.19 83.85a18 18 0 0 1-10.8-3.42c-4.58-3.35-7.26-8.67-7.55-15-.28-6.16 1.76-12.56 5.75-18.01a5 5 0 0 1 2.08-1.65c.34-.16.48-.24.64-.4q.72-.77 1.53-1.76c1.23-1.48 2.5-3 3.98-3.94 8.1-5.14 17.21-5.35 23.76-.57 5.36 3.92 8.1 10.52 7.49 18.1-.02.3.09.76.21 1.24.23.93.52 2.08.19 3.36a8 8 0 0 1-1.67 2.82c-.35.43-.75.92-.87 1.22a31.4 31.4 0 0 1-8.98 12.01 28 28 0 0 1-8.05 4.6c-2.6.94-5.2 1.4-7.71 1.4m8.57-44.19c-3.51 0-7.25 1.13-10.8 3.38-.95.6-2.02 1.88-3.05 3.12a31 31 0 0 1-1.72 1.97c-.66.68-1.3 1-1.76 1.23-.4.2-.48.24-.61.42C65.37 54.5 63.6 60 63.84 65.25c.23 5.09 2.33 9.33 5.91 11.95 3.97 2.9 9.36 3.44 14.79 1.49 2.43-.88 4.75-2.2 6.88-3.94a27 27 0 0 0 7.83-10.46c.35-.83.94-1.55 1.46-2.19.33-.41.84-1.03.9-1.29.08-.3-.06-.83-.2-1.39a7 7 0 0 1-.32-2.54c.49-6.17-1.65-11.48-5.87-14.56a14 14 0 0 0-8.46-2.66" style="fill:#004241"/><path d="M90.84 51.54a2 2 0 0 1-1.58-3.23l1.68-2.17a2 2 0 0 1 3.17 2.45l-1.68 2.17a2 2 0 0 1-1.58.78Zm-15.45 23.8a2 2 0 0 1-1.58-3.23l1.68-2.17a2 2 0 0 1 3.17 2.45l-1.68 2.17a2 2 0 0 1-1.58.78Zm-4.98-11.83a2 2 0 0 1-.53-3.93l1.53-.42a2 2 0 0 1 2.46 1.4 2 2 0 0 1-1.4 2.46l-1.53.42q-.27.07-.53.07m8.24-10.13a2 2 0 0 1-1.72-.98l-.81-1.36A2 2 0 0 1 79.56 49l.81 1.36a2 2 0 0 1-1.72 3.02m10.69 18.39q-.21 0-.44-.05l-.81-.18a2 2 0 1 1 .87-3.91l.81.18a2 2 0 0 1-.43 3.96m3.35-9a2 2 0 0 1-.9-3.79l1.99-1a2 2 0 1 1 1.8 3.58l-1.99 1q-.44.22-.9.21" style="fill:#fff"/><path d="m41.9 25.58 8.8 3.68s5.32-3.07 6.34 0 1.06 4.3 1.06 4.3l5.48 4.91 8.36 3.68" style="fill:#579660"/><path d="M71.94 44.15q-.4 0-.81-.17l-8.36-3.68a2 2 0 0 1-.53-.34l-5.48-4.91c-.41-.36-.65-.88-.67-1.42s-.09-1.12-.96-3.72c-.56-.13-2.24.39-3.45 1.09a2 2 0 0 1-1.77.11l-8.8-3.68a2 2 0 1 1 1.55-3.69l7.93 3.32c1.41-.67 4-1.64 6.03-.87a3.8 3.8 0 0 1 2.3 2.44c.63 1.89.92 3.16 1.05 3.93l4.7 4.2 8.07 3.56a2 2 0 0 1-.81 3.83Z" style="fill:#004241"/><path d="m36.78 39.51 7.4 5.56c2.38 1.79 4.38-.61 7.82 1.32.97.55 2.34 3.18 3.22 4.3 2.38 3.04 5.37 2.43 7.48 4.52" style="fill:#579660"/><path d="M62.71 57.22c-.51 0-1.02-.19-1.41-.58-.61-.61-1.41-.9-2.43-1.27-1.57-.57-3.53-1.28-5.22-3.45-.35-.45-.73-1.03-1.12-1.65-.43-.67-1.22-1.91-1.56-2.17-1.15-.64-2.04-.54-3.16-.42-1.28.14-3.04.33-4.82-1.01l-7.4-5.56a2 2 0 0 1-.4-2.8 2 2 0 0 1 2.8-.4l7.4 5.56c.47.36.8.36 1.98.23 1.39-.15 3.28-.36 5.62.95 1.01.56 1.81 1.74 2.91 3.47.34.54.67 1.05.91 1.35.98 1.26 2.06 1.65 3.43 2.15 1.24.45 2.64.96 3.88 2.19a2 2 0 0 1-1.41 3.42Z" style="fill:#004241"/><path d="M55.12 83.76c0 10.01-10.44 18.13-23.32 18.13S8.48 93.78 8.48 83.76c0-1.12-.25-7.32 0-8.39 1.99-8.44 11.88-9.74 23.32-9.74s21.7.96 23.32 9.74c.16.85 0 7.5 0 8.39" style="fill:#579660"/><path d="M31.8 103.89c-13.96 0-25.32-9.03-25.32-20.13l-.03-1.53c-.11-4.24-.12-6.42.09-7.32C8.87 65 20.06 63.63 31.81 63.63S55.16 64.51 57.1 75c.12.65.13 2.46.05 7.45l-.02 1.3c0 11.1-11.36 20.13-25.32 20.13Zm0-36.25c-11.67 0-19.77 1.39-21.37 8.2-.13.73-.02 4.77.02 6.3l.03 1.63c0 8.89 9.56 16.13 21.32 16.13s21.32-7.23 21.32-16.13c0-.2 0-.7.02-1.37.03-1.64.1-5.99 0-6.7-1.25-6.73-8.77-8.06-21.35-8.06Z" style="fill:#004241"/><ellipse cx="31.8" cy="75.38" rx="23.32" ry="18.13" style="fill:#d8f99b"/><path d="M31.8 95.5c-13.96 0-25.32-9.03-25.32-20.13S17.84 55.25 31.8 55.25s25.32 9.03 25.32 20.12S45.76 95.5 31.8 95.5m0-36.25c-11.76 0-21.32 7.23-21.32 16.12S20.04 91.5 31.8 91.5s21.32-7.23 21.32-16.13-9.56-16.12-21.32-16.12" style="fill:#004241"/><path d="M30.87 68.77a2 2 0 0 1-1.99-1.81l-.26-2.68a2 2 0 1 1 3.98-.38l.26 2.68a2 2 0 0 1-1.8 2.18h-.19Zm3.37 20.1a2 2 0 0 1-1.99-1.81L32 84.38a2 2 0 1 1 3.98-.38l.25 2.68a2 2 0 0 1-1.8 2.18zm-15.07-4.9a2 2 0 0 1-1.06-3.69l1.21-.76a2 2 0 1 1 2.13 3.39l-1.21.76q-.5.31-1.06.31Zm.11-10.43-.38-.04-2.2-.42a2 2 0 0 1 .75-3.93l2.2.42a2 2 0 0 1 1.59 2.34 2 2 0 0 1-1.96 1.63m21.03-2.27a2 2 0 0 1-.95-3.76l2.48-1.34a2 2 0 0 1 2.71.81 2 2 0 0 1-.81 2.71l-2.48 1.34q-.46.24-.95.24m5.17 7.98q-.24 0-.49-.06l-2.02-.5a2 2 0 0 1-1.46-2.43 2 2 0 0 1 2.43-1.46l2.02.5a2 2 0 0 1-.48 3.95" style="fill:#fff"/></svg>