<svg xmlns="http://www.w3.org/2000/svg" data-name="flatten icons" viewBox="0 0 112 112"><path d="M0 0h112v112H0z" style="fill:none;stroke-width:0"/><path d="m12 30.69-4.19 2.59c-.2-.32-2.73-14.42-2.73-14.42q0-.42-.17-.82l-2.76-6.2c-.58-1.31.35-2.81 1.77-2.81h1.4c.6 0 1.16-.28 1.53-.76l2.68-3.49c.62-.8 1.73-1 2.57-.45l2.51 1.63c.86.56 2 .34 2.61-.5a1.92 1.92 0 0 1 3.38.46l2.12 5.7q.12.32.33.57l3.03 3.7a2 2 0 0 1 .41 1.7l-.52 2.45a2 2 0 0 1-.98 1.33L9.37 29.9c-.89.49 3.21 1.67 2.66.8Z" style="fill:#aad681"/><path d="M7.81 35.29c-.65 0-1.29-.33-1.66-.93-.26-.42-.41-.65-3.01-15.14q-.03-.18-.03-.36L.35 12.67C-.2 11.43-.1 10 .62 8.85s1.95-1.83 3.29-1.83h1.4l2.66-3.48a3.83 3.83 0 0 1 5.17-.9l2.5 1.63a3.8 3.8 0 0 1 3.64-1.6 3.9 3.9 0 0 1 3.13 2.54l2.12 5.7 3.02 3.69c.77.94 1.08 2.22.82 3.42l-.52 2.45a4 4 0 0 1-1.98 2.68l-12.13 6.62c.4.75.35 1.65-.13 2.32-.41.58-.98.83-1.54.9L8.82 35q-.49.3-1.02.29Zm-.77-16.65c.49 2.74 1.16 6.39 1.7 9.29l15.28-8.34.51-2.43-3.02-3.67a4 4 0 0 1-.65-1.14l-2.13-5.7a3.8 3.8 0 0 1-5.2 1.02l-2.5-1.63-2.64 3.49a3.9 3.9 0 0 1-3.07 1.53h-1.4l2.79 6.16q.3.68.35 1.44Z" style="fill:#004241"/><path d="M20.12 17.48c-17.61 2.04-14.85 23.47-.98 38.4s23.52 15.8 38.59 34.57 34.42 23.66 47.65 8.84c11.03-12.36 1.39-34.79-17.33-37.61-18.71-2.81-33.56-10.06-41.39-21.24-7.83-11.19-11.99-24.65-26.54-22.97Z" style="fill:#579660"/><path d="M105.37 99.29c11.03-12.36 1.39-34.79-17.33-37.61S54.48 51.62 46.66 40.44c-1.4-2-2.68-4.07-3.93-6.12-.35.38-.57.89-.55 1.47l.46 14.34a2 2 0 0 0 2 1.98h2.11a2 2 0 0 1 1.83 1.21l4.05 9.24a2 2 0 0 0 1.83 1.21h12.4q.45 0 .86.2l9.7 4.72c.94.46 2.06.1 2.59-.81a1.98 1.98 0 0 1 3.36-.14l4.62 6.69.13.22 1.65 3.16a2.06 2.06 0 0 1-1.52 3l-3.38.43c-1.78.23-2.4 2.55-.97 3.66l1.71 1.34c.67.52.94 1.42.7 2.24l-1.14 3.76c-.27.89.08 1.85.85 2.35l1.13.72c.69.44 1.05 1.26.91 2.08l-.59 3.57a2.06 2.06 0 0 0 1.4 2.31l8.1 2.5a27 27 0 0 0 8.4-6.47Z" style="stroke-width:0;fill:#67a367"/><path d="m107.57 79.52-3.93-2.54a4.7 4.7 0 0 0-6.28 1.04 5 5 0 0 0-1.08 3.1v1.13c0 1.42-.6 2.77-1.65 3.7l-1.83 1.63a5 5 0 0 0-1.65 3.7v5.83a4.9 4.9 0 0 0 3.68 4.77l2.96.72q.55.13 1.11.13h2.84q1.88-1.5 3.63-3.45c4.34-4.87 5.47-11.29 4.11-17.47l-.27-.51a5 5 0 0 0-1.64-1.79Z" style="stroke-width:0;fill:#d3ddba"/><path d="M87.24 110h-.68c-10.35-.28-21.13-6.76-30.37-18.26-8.26-10.29-14.69-14.97-21.51-19.92C29.4 67.98 23.93 64 17.69 57.28 8.19 47.02 3.73 33.75 6.85 24.99c1.36-3.81 4.72-8.56 13.05-9.52 12.81-1.48 18.48 7.86 23.96 16.89 1.39 2.29 2.83 4.67 4.4 6.9 7.26 10.38 21.49 17.63 40.07 20.42a28 28 0 0 1 22.22 18.62c2.85 8.18 1.46 16.53-3.72 22.34-5.47 6.13-12.23 9.35-19.58 9.35Zm-66.9-90.52q-7.64.9-9.79 6.89c-2.58 7.26 1.63 19.09 10.01 28.12 5.98 6.44 11.05 10.13 16.42 14.03 6.72 4.89 13.67 9.94 22.27 20.65 8.5 10.58 18.24 16.55 27.43 16.79 6.52.18 12.33-2.53 17.25-8.03 4.18-4.68 5.27-11.51 2.92-18.27a24.3 24.3 0 0 0-19.08-15.99c-19.93-3-34.7-10.63-42.7-22.06a128 128 0 0 1-4.54-7.12c-5.5-9.05-9.84-16.2-20.18-15.01Z" style="fill:#004241"/><path d="M14.24 31.49s2.75 6.43 5.45 9.83" style="fill:#579660"/><path d="M19.69 43.33c-.57 0-1.14-.25-1.53-.74-2.84-3.57-5.61-10.02-5.73-10.29a2.03 2.03 0 0 1 1.01-2.65c1-.45 2.16.02 2.59 1.04.03.06 2.68 6.22 5.17 9.37.69.86.56 2.13-.29 2.83q-.56.45-1.24.45Z" style="fill:#004241"/><path d="m26.5 47.69 2.64 2.79" style="fill:#579660"/><path d="M29.14 52.5a2 2 0 0 1-1.42-.61l-2.64-2.79c-.76-.8-.73-2.08.05-2.85s2.03-.75 2.78.05l2.64 2.79c.76.8.73 2.08-.05 2.85-.38.38-.88.57-1.37.57Z" style="fill:#004241"/><path d="m14.59 5.96 2.37 4.87" style="fill:#579660"/><path d="M16.96 12.84c-.72 0-1.42-.41-1.76-1.12l-2.37-4.87c-.49-1-.09-2.21.88-2.7s2.16-.09 2.64.9l2.37 4.87c.49 1 .09 2.21-.88 2.7q-.43.21-.88.21Z" style="fill:#004241"/><path d="m6.83 8.27.98 3.72" style="fill:#579660"/><path d="M7.81 14.01c-.87 0-1.66-.59-1.9-1.49L4.93 8.8a2.03 2.03 0 0 1 1.39-2.47c1.05-.3 2.13.35 2.41 1.42l.98 3.72a2.03 2.03 0 0 1-1.9 2.54" style="fill:#004241"/><path d="M27.68 28.28c-.42 0-.85-.14-1.21-.43-1.07-.85-1.81-1.14-1.81-1.14-1.01-.38-1.54-1.53-1.18-2.57s1.46-1.59 2.48-1.23c.21.07 1.36.51 2.94 1.77.86.68 1.01 1.95.34 2.83-.39.51-.97.78-1.55.78Z" style="fill:#aad681"/></svg>