<svg xmlns="http://www.w3.org/2000/svg" data-name="flatten icons" viewBox="0 0 112 112"><path d="M0 0h112v112H0z" style="fill:none;stroke-width:0"/><path d="M79.93 31.75q.35-2.45.17-5.04C79.28 14.8 68.87 7.41 56.96 6.59c-14.12-.97-25.11 7.92-25.11 21.83q0 1.79.25 3.5c1.51 10.44-.68 21.08-5.54 30.44a33 33 0 0 0-3.63 17.67C24.11 96.76 34.37 110 55.47 110s33.7-13.64 33.7-32.38c0-5.57-1.37-10.82-3.8-15.43a50.6 50.6 0 0 1-5.43-30.44Z" style="stroke-width:0;fill:#eda87a"/><path d="M85.36 62.19a50.6 50.6 0 0 1-5.43-30.44q.35-2.46.17-5.04a19.6 19.6 0 0 0-4.81-11.69c1.2 5.18 2.46 13.74.2 17.37-4.16 6.67-9.46 18.23-.34 27.13 10.13 9.88 12.53 37.94-12.86 41.97-19.17 3.04-31.3-9.12-38.55-15.63 2.97 13.88 13.14 24.15 31.72 24.15 21.1 0 33.7-13.64 33.7-32.38 0-5.57-1.37-10.82-3.8-15.43Z" style="fill:#d8936c"/><path d="M55.46 112c-20.22 0-33.13-11.9-34.53-31.83-.46-6.52.87-13 3.85-18.74 4.9-9.43 6.74-19.54 5.34-29.23a27 27 0 0 1-.27-3.78c0-6.84 2.56-13 7.19-17.33C42.11 6.36 49.23 4.06 57.1 4.6c13.9.96 24.18 9.99 25 21.98q.19 2.76-.18 5.46a49 49 0 0 0 5.22 29.23 35 35 0 0 1 4.03 16.37c0 20.56-14.35 34.38-35.7 34.38Zm-.6-103.49c-5.96 0-11.26 1.92-15.09 5.5-3.88 3.62-5.92 8.6-5.92 14.41a23 23 0 0 0 .23 3.21c1.53 10.53-.46 21.47-5.75 31.65a31 31 0 0 0-3.41 16.61C26.18 97.76 37.32 108 55.46 108c19.26 0 31.7-11.93 31.7-30.38 0-5.05-1.24-10.06-3.57-14.5a53 53 0 0 1-5.64-31.64q.31-2.3.16-4.63c-.58-8.4-7.38-17.3-21.29-18.26q-.99-.06-1.96-.07Z" style="fill:#004241"/><path d="M51.98 6.49 53.24 2h5.66l5.41 1.72V8.4c0 1.04-.71 1.94-1.72 2.17-1.59.37-3.93.75-5.43.3a23 23 0 0 1-4.11-1.84 2.2 2.2 0 0 1-1.07-2.56Z" style="stroke-width:0;fill:#fbe4ac"/><path d="M58.84 13.08q-1.29 0-2.25-.29a24 24 0 0 1-4.49-2 4.2 4.2 0 0 1-2.03-4.85l1.26-4.49a2 2 0 0 1 1.93-1.46h5.66q.31 0 .61.09l5.41 1.72a2 2 0 0 1 1.39 1.91v4.68a4.2 4.2 0 0 1-3.27 4.12 19 19 0 0 1-4.2.55Zm-4.93-6.06q-.04.17.1.26c1.47.81 2.76 1.39 3.72 1.67.81.24 2.45.12 4.41-.33q.16-.05.17-.23V5.17l-3.72-1.18h-3.83zM40.59 95.67a2 2 0 0 1-1.94-1.53c-4.41-18.23-.74-25.29 2.21-30.96a28 28 0 0 0 1.87-4.1c1.68-5.15.77-16.25.23-22.88-.14-1.7-.26-3.16-.31-4.23-.31-5.98 3.06-11.42 3.2-11.65a2 2 0 1 1 3.39 2.12c-.05.08-2.84 4.64-2.6 9.32.05 1.04.17 2.45.3 4.11.6 7.38 1.51 18.53-.42 24.44a31 31 0 0 1-2.13 4.71c-2.64 5.08-5.93 11.4-1.87 28.17a2 2 0 0 1-1.94 2.48Zm32.01 0q-.3 0-.6-.09a2 2 0 0 1-1.31-2.5q.78-2.5 1.31-4.78a40 40 0 0 0 1.15-8.85 2 2 0 1 1 3.99.02 44 44 0 0 1-1.25 9.74 67 67 0 0 1-1.39 5.07 2 2 0 0 1-1.91 1.41Zm1.37-22.04a2 2 0 0 1-1.9-1.37c-.95-2.84-2.38-4.98-3.77-7.04-1.06-1.58-2.06-3.06-2.76-4.74-2.52-6.01-1.34-17.22-.56-24.65.17-1.65.32-3.08.39-4.09.3-4.55-3.26-9.05-3.3-9.09a2 2 0 0 1 .3-2.81 2 2 0 0 1 2.81.3c.19.23 4.59 5.74 4.18 11.87-.07 1.09-.23 2.55-.4 4.24-.69 6.59-1.85 17.62.27 22.68.56 1.32 1.41 2.59 2.39 4.06 1.46 2.18 3.12 4.65 4.24 8.01a2 2 0 0 1-1.9 2.63Z" style="fill:#004241"/><circle cx="30.44" cy="79.98" r="2.17" style="fill:#d8936c"/><path d="M51.9 75.39a2 2 0 0 1-2-2v-.99c0-1.1.9-2 2-2s2 .9 2 2v.99a2 2 0 0 1-2 2m12.42 16.59-.29-.02a2 2 0 0 1-1.7-2.26l.14-.99a2 2 0 0 1 2.26-1.7 2 2 0 0 1 1.7 2.26l-.14.99a2 2 0 0 1-1.98 1.72Z" style="fill:#004241"/></svg>