<svg xmlns="http://www.w3.org/2000/svg" data-name="flatten icons" viewBox="0 0 112 112"><path d="M0 0h112v112H0z" style="fill:none;stroke-width:0"/><path d="M61.03 17.37c2.51 8.9-3.38 15.62-12.27 18.13s-17.43-.14-19.94-9.04S30.54 4.95 39.43 2.44s19.09 6.03 21.6 14.93" style="stroke-width:0;fill:#73cc64"/><path d="M42.56 38.41c-7.66 0-13.62-4.14-15.67-11.4-1.35-4.79-.94-10.66 1.1-15.7C30.26 5.69 34.13 1.86 38.88.52s10.05-.09 14.93 3.5c4.37 3.23 7.79 8.02 9.14 12.81 2.62 9.27-2.87 17.55-13.66 20.59q-3.53.98-6.74.98Zm.09-34.4q-1.36 0-2.68.36c-7.64 2.16-11.46 13.65-9.23 21.55 2.43 8.6 10.93 9.5 17.47 7.66 6.54-1.85 13.32-7.06 10.89-15.66-1.97-6.99-9.46-13.91-16.45-13.91" style="fill:#004241"/><path d="M54.92 87.18h-.2a2 2 0 0 1-1.79-2.19c2.48-24.64-2.33-39.98-4.52-45.43a111 111 0 0 1-3.59-10.55l-3.15-11.09a2 2 0 1 1 3.85-1.09l3.15 11.09c1 3.51 2.16 6.93 3.45 10.16 2.85 7.11 7.26 22.72 4.78 47.32a2 2 0 0 1-1.99 1.8Z" style="fill:#004241"/><path d="M46 27.83q-.45 0-.89-.21l-8.54-4.23a2 2 0 1 1 1.78-3.58l7.13 3.53 6.06-7.26a2 2 0 1 1 3.07 2.57l-7.07 8.47a2 2 0 0 1-1.54.72Z" style="fill:#004241"/><path d="M98.11 45.9c-2.61 8.87-11.17 11.42-20.04 8.82C69.2 52.11 63.39 45.33 66 36.46s12.9-17.3 21.76-14.69 12.95 15.27 10.35 24.13" style="fill:#aad681"/><path d="M84.47 57.69q-3.35 0-6.97-1.06c-4.98-1.47-8.93-4.07-11.4-7.54-2.74-3.83-3.44-8.4-2.03-13.2 1.4-4.78 4.88-9.53 9.28-12.71 4.92-3.54 10.23-4.73 14.96-3.34s8.56 5.27 10.77 10.91c1.99 5.06 2.33 10.93.93 15.71-1.41 4.8-4.47 8.26-8.85 10.01a18 18 0 0 1-6.7 1.22Zm-.07-34.4c-6.96 0-14.45 6.8-16.49 13.73-1.07 3.63-.58 6.91 1.44 9.75 1.92 2.69 5.22 4.83 9.28 6.03s7.99 1.18 11.06-.04q4.87-1.95 6.49-7.42c1.16-3.95.86-8.86-.81-13.12-1.75-4.47-4.66-7.5-8.18-8.53a10 10 0 0 0-2.79-.39Z" style="fill:#004241"/><path d="M56.85 102.06q-.66 0-1.23-.42a2 2 0 0 1-.35-2.81c14.66-18.84 19.04-33.69 20.35-40.87.65-3.55 1.51-7.2 2.58-10.84l3.23-11.07a2 2 0 0 1 3.84 1.12l-3.23 11.07a104 104 0 0 0-2.48 10.44c-1.37 7.54-5.94 23.1-21.13 42.61-.39.51-.98.77-1.58.77" style="fill:#004241"/><path d="M80.89 47.06c-.68 0-1.33-.35-1.71-.96l-4.98-8.13a2 2 0 1 1 3.41-2.09l4.15 6.78 8.99-2.92a2 2 0 0 1 1.24 3.8L81.5 46.95q-.3.1-.62.1Z" style="fill:#004241"/><path d="M42.51 49.97c6.98 6.06 5.75 14.91-.31 21.89s-14.64 9.45-21.63 3.39-10.37-18.92-4.32-25.9c6.06-6.98 19.27-5.44 26.25.62Z" style="fill:#aad681"/><path d="M29.24 80.69c-3.58 0-6.98-1.33-9.98-3.93-3.76-3.26-6.64-8.39-7.7-13.72-1.18-5.94-.05-11.27 3.18-15s8.35-5.61 14.4-5.27c5.43.3 10.91 2.42 14.67 5.68 3.78 3.28 5.66 7.5 5.42 12.21-.21 4.25-2.12 8.58-5.53 12.5-3.4 3.92-7.41 6.43-11.6 7.24q-1.45.28-2.88.28Zm-1.42-33.92c-3.96 0-7.7 1.19-10.05 3.9-2.41 2.77-3.22 6.89-2.28 11.6.89 4.49 3.28 8.78 6.4 11.48 2.86 2.48 6.05 3.4 9.47 2.74 3.25-.63 6.56-2.74 9.34-5.93 2.77-3.2 4.39-6.78 4.56-10.08q.25-5.24-4.05-8.99c-3.4-2.95-8.56-4.71-13.38-4.71Z" style="fill:#004241"/><path d="M74.63 112c-.95 0-1.8-.69-1.97-1.66-6.23-35.93-44.95-48.78-45.34-48.91a2 2 0 0 1-1.29-2.52 2 2 0 0 1 2.51-1.29c.41.13 41.42 13.68 48.06 52.03a2 2 0 0 1-1.97 2.34Z" style="fill:#004241"/><path d="M25.13 68.44a2 2 0 0 1-.63-3.9l9.35-3.12v-7.09c0-1.1.9-2 2-2s2 .9 2 2v8.53a2 2 0 0 1-1.37 1.9l-10.72 3.57q-.32.1-.63.1Z" style="fill:#004241"/></svg>