<svg xmlns="http://www.w3.org/2000/svg" data-name="flatten icons" viewBox="0 0 112 112"><path d="M0 0h112v112H0z" style="fill:none;stroke-width:0"/><path d="M43.68 75.69c2.96-7.6 7.96-15.94 13.17-19.83a44 44 0 0 0 4.55-3.81c4.32-4.25 12.87-12.41 16.02-13.48 4.29-1.46 16.44-2.92 25.73-3.65s6.43 5.83 6.43 10.94-2.14 12.4-5 17.5c-2.38 4.25-10.72 13.57-17.57 16.56a29 29 0 0 0-7.78 4.84c-5.59 5.02-16.51 12.85-28.31 10.61-3.52-.67-5.66-3.19-6.96-5.94a17.4 17.4 0 0 1-.28-13.74" style="fill:#b2754b"/><path d="M109.6 37.37q-.13 1.23-.15 2.41c0 5.11-2.14 12.4-5 17.5-2.38 4.25-10.72 13.57-17.57 16.56a29 29 0 0 0-7.78 4.84c-5.59 5.02-16.51 12.85-28.31 10.61-3.52-.67-5.66-3.19-6.96-5.94a17 17 0 0 1-1.22-3.69 17 17 0 0 0 1.34 9.78c1.3 2.76 3.44 5.28 6.96 5.94 11.8 2.24 22.72-5.59 28.31-10.61A29 29 0 0 1 87 79.93c6.85-2.99 15.19-12.31 17.57-16.56 2.86-5.11 5-12.4 5-17.5 0-2.89.92-6.26.02-8.49Z" style="fill:#845332"/><path d="M55.12 97.77q-2.26.01-4.58-.43c-3.64-.69-6.54-3.13-8.39-7.05a19.4 19.4 0 0 1-.33-15.32c2.76-7.08 7.85-16.24 13.84-20.7A41 41 0 0 0 60 50.63c8.48-8.36 14.12-13.05 16.78-13.95 5.09-1.73 18.88-3.17 26.22-3.75 3.41-.26 5.8.35 7.3 1.88 2.11 2.16 1.78 5.38 1.49 8.22-.1 1.01-.2 1.96-.2 2.84 0 5.35-2.16 12.95-5.26 18.48-2.35 4.19-11.01 14.15-18.52 17.42a27 27 0 0 0-7.25 4.5c-5.06 4.54-14.6 11.52-25.44 11.52Zm-9.58-21.35c-1.59 4.07-1.5 8.5.23 12.16q1.96 4.15 5.52 4.83c11 2.09 21.39-5.45 26.61-10.13a30 30 0 0 1 8.32-5.18c6.43-2.8 14.42-11.76 16.62-15.71 2.75-4.91 4.75-11.86 4.75-16.53 0-1.08.11-2.18.22-3.24.21-2.06.43-4.2-.37-5.01-.59-.61-2.06-.85-4.12-.69-9.57.75-21.32 2.21-25.24 3.55-1.52.52-6.32 4.2-15.26 13.01a44 44 0 0 1-4.76 3.99c-4.38 3.26-9.29 10.7-12.5 18.95Z" style="fill:#004241"/><path d="M58.75 86.58a2 2 0 0 1-.7-3.87c4.07-1.54 9.05-4.06 9.98-5.46 2.31-3.45 7.97-7.38 13.09-7.72a2 2 0 0 1 .27 3.99c-4.07.27-8.52 3.69-10.03 5.95-2.12 3.17-10.28 6.36-11.89 6.97q-.35.13-.71.13Zm9.37-16.16q-.55 0-1.05-.3a2 2 0 0 1-.65-2.75c.56-.9 5.65-8.87 11.67-9.93 4.46-.78 7.5-4.52 7.53-4.56.69-.86 1.95-1 2.81-.32a2 2 0 0 1 .33 2.8c-.16.2-3.98 4.96-9.97 6.01-3.62.63-7.69 6.06-8.96 8.09a2 2 0 0 1-1.7.95Zm-17.5 11.19a2 2 0 0 1-1-.27 2 2 0 0 1-.73-2.73c.84-1.44 5.2-8.72 9.03-10.45a2 2 0 0 1 1.65 3.65c-1.96.89-5.4 5.69-7.22 8.81a2 2 0 0 1-1.73 1Zm52.19-28.27a2 2 0 0 1-1.88-1.31 2 2 0 0 1 1.18-2.56c.23-.09 4.88-1.98 5.91-8.69a2 2 0 0 1 3.95.61c-1.41 9.14-8.19 11.72-8.48 11.83q-.34.12-.69.12Z" style="fill:#004241"/><path d="M13.56 79.61C1.87 77.68-.18 62.91 3.97 54.13s3.84-19.92 7.99-24.37 12.47-13.99 19.82-13.99 11.83 7.63 11.83 16.21-5.75 15.58-6.07 25.11-6.07 19.02-10.23 20.95-6.39 2.78-13.75 1.56Z" style="fill:#b2754b"/><path d="m43.12 27.14-.06.35c-1.62 8.43-8.59 14.23-10.7 23.54s-9.55 17.55-13.99 18.68c-4.45 1.13-6.8 1.54-13.8-1.02q-1.17-.44-2.17-1.02c1.12 5.8 4.64 10.88 11.16 11.96 7.35 1.22 9.59.37 13.75-1.56s9.91-11.42 10.23-20.95 6.07-16.53 6.07-25.11q0-2.52-.5-4.85Z" style="fill:#845332"/><path d="M19.28 82.18c-1.65 0-3.59-.18-6.05-.59a14.7 14.7 0 0 1-10.89-7.97c-3.08-5.88-3.16-14.06-.18-20.34 1.8-3.81 2.72-8.09 3.6-12.23 1.13-5.27 2.1-9.83 4.74-12.65l.87-.93c4.74-5.12 12.67-13.69 20.42-13.69s13.83 7.66 13.83 18.21c0 4.64-1.54 8.82-3.03 12.86-1.42 3.86-2.9 7.86-3.05 12.32-.34 10.11-6.29 20.33-11.39 22.7-3.01 1.4-5.2 2.31-8.87 2.31m12.51-64.41c-6 0-13.47 8.07-17.48 12.41l-.88.95c-1.88 2.01-2.79 6.26-3.75 10.76-.89 4.16-1.9 8.87-3.9 13.1-2.42 5.13-2.38 12.03.11 16.78a10.6 10.6 0 0 0 8 5.88c7.06 1.17 8.9.31 12.58-1.4 3.45-1.61 8.78-10.38 9.08-19.21.17-5.1 1.76-9.41 3.29-13.57 1.43-3.88 2.78-7.55 2.78-11.48 0-7.06-3.38-14.21-9.83-14.21Z" style="fill:#004241"/><path d="M63.42 56.81s11.83-11.53 14.23-12.84 11.59-3.43 15.75-3.67 10.71-1.71 9.4 0c-.94 1.23-4.82 3.34-6.93 4.43a3 3 0 0 0-1.61 2.25l-.03.22a3.05 3.05 0 0 1-5.08 1.79 3.1 3.1 0 0 0-4.03-.09l-4.71 3.94q-.58.48-1.33.65L63.41 56.8Zm-33.2-36.17c-5.79-.18-13.66 8.7-14.01 10.97a29 29 0 0 1-1.43 4.53 1.81 1.81 0 0 0 2.18 2.39l3.15-.85a1.81 1.81 0 0 1 2.12 2.52l-2.37 4.97a1.8 1.8 0 0 0 .24 1.92l1.52 1.84c1.01 1.22 3 .66 3.21-.91l.5-3.7c.1-.74.65-1.34 1.38-1.52l5.62-1.35a1.8 1.8 0 0 0 1.38-1.97l-.95-8.04a1.82 1.82 0 0 1 2.02-2.01l1.44.17a1.8 1.8 0 0 0 2-2.15c-.53-2.67-2.29-6.64-8-6.82Z" style="stroke-width:0;fill:#e0af73"/><path d="M11.31 75.04a2 2 0 0 1-1.89-1.35c-2.48-7.26-.24-16.8 1.61-19.66 1.01-1.56 1.12-4.79 1.08-5.8a2 2 0 0 1 1.92-2.08c1.1-.09 2.03.82 2.08 1.92.02.53.15 5.24-1.72 8.12-1.34 2.08-3.19 10.35-1.19 16.2a2 2 0 0 1-1.25 2.54q-.32.1-.65.11Zm11.7-4.62a2 2 0 0 1-2-2V65.8c0-2.21.57-4.4 1.66-6.33l2.05-3.63a2 2 0 0 1 3.48 1.96l-2.05 3.63A9 9 0 0 0 25 65.8v2.62a2 2 0 0 1-2 2Z" style="fill:#004241"/></svg>