<svg xmlns="http://www.w3.org/2000/svg" data-name="flatten icons" viewBox="0 0 112 112"><path d="M0 0h112v112H0z" style="fill:none;stroke-width:0"/><path d="m99.7 41.87-9.73-4.84-6.36 12.78A22 22 0 0 1 68.5 61.38a40 40 0 0 0-12.12 5.03 40 40 0 0 0-12.12-5.03 22 22 0 0 1-15.11-11.57l-6.36-12.78-9.73 4.84 7.83 15.75a21.2 21.2 0 0 1 1.37 15.8c-2.63 8.3-1.13 18.64 2.31 24.81 5.3 9.51 14.43 11.78 31.13 11.78q.36 0 .68-.03l.68.03c16.7 0 25.83-2.26 31.13-11.78 3.44-6.18 4.93-16.51 2.31-24.81a21.2 21.2 0 0 1 1.37-15.8z" style="fill:#f4f0df"/><path d="M57.07 112q-.28 0-.55-.02h-.26l-.55.02c-16.3 0-26.91-2.09-32.88-12.8-4.06-7.29-5.08-18.14-2.47-26.39a19 19 0 0 0-1.25-14.3l-7.83-15.75a2 2 0 0 1 .9-2.68l9.73-4.84a2 2 0 0 1 2.68.9l6.36 12.78A20 20 0 0 0 44.7 59.43a42 42 0 0 1 11.69 4.66 42 42 0 0 1 11.69-4.66 20 20 0 0 0 13.75-10.51l6.36-12.78a2 2 0 0 1 2.68-.9l9.73 4.84q.74.38 1.01 1.15c.27.77.13 1.05-.11 1.53l-7.83 15.75a19 19 0 0 0-1.25 14.3c2.61 8.25 1.59 19.1-2.47 26.39-5.97 10.71-16.57 12.8-32.88 12.8m-.68-4.03h.38q.16.03.31.03c17.49 0 24.9-2.71 29.38-10.75 3.01-5.4 4.71-15.12 2.15-23.23a23 23 0 0 1 1.48-17.29l6.94-13.96-6.15-3.06-5.47 10.99a23.9 23.9 0 0 1-16.47 12.63 38 38 0 0 0-11.5 4.78c-.64.39-1.45.39-2.09 0a38 38 0 0 0-11.5-4.78A24 24 0 0 1 27.38 50.7l-5.47-10.99-6.15 3.06 6.94 13.96a23 23 0 0 1 1.48 17.29c-2.57 8.12-.86 17.83 2.15 23.23C30.81 105.29 38.22 108 55.71 108l.31-.01h.29z" style="fill:#004241"/><path d="M63.31 39.78V23.24H52.44v15.04c0 10.26-3.98 20.01-10.76 27.71-5.9 6.7-9.68 16.36-9.68 24.43 0 13.93 11.29 19.57 25.23 19.57s25.23-5.64 25.23-19.57c0-8.01-3.73-17.59-9.55-24.28-6.33-7.28-9.58-16.73-9.58-26.37Z" style="fill:#f4f0df"/><path d="M57.23 112C40.18 112 30 103.94 30 90.43c0-8.61 4-18.72 10.18-25.75 6.62-7.52 10.26-16.89 10.26-26.39V23.25c0-1.1.9-2 2-2h10.87a2 2 0 0 1 2 2v16.54c0 9.41 3.23 18.31 9.09 25.05 6.1 7.02 10.05 17.07 10.05 25.6 0 13.51-10.18 21.57-27.23 21.57Zm-2.78-86.76v13.04c0 10.47-4 20.78-11.25 29.03-5.49 6.25-9.19 15.53-9.19 23.11 0 6.56 3.02 17.57 23.23 17.57s23.23-11.01 23.23-17.57c0-7.62-3.56-16.64-9.06-22.97-6.5-7.47-10.07-17.3-10.07-27.68V25.23h-6.87Z" style="fill:#004241"/><path d="M41.51 84.99s.67 22.09 21.96 24.6" style="fill:#f4f0df"/><path d="m63.48 111.58-.24-.01c-22.74-2.68-23.72-26.29-23.73-26.52a2 2 0 0 1 1.94-2.06c1.09-.08 2.02.83 2.06 1.93.03.83.91 20.41 20.2 22.68a2 2 0 0 1 1.75 2.22 2 2 0 0 1-1.98 1.77Z" style="fill:#004241"/><path d="M57.22 59.54s3.32 11.03 9.37 16.51c6.06 5.48 8.07 18.46 1.15 23.65" style="fill:#f4f0df"/><path d="M67.75 101.69a2 2 0 0 1-1.2-3.6c2.13-1.6 3.39-4.35 3.54-7.75.22-4.77-1.77-10.04-4.84-12.81-6.4-5.79-9.81-16.94-9.95-17.42a2 2 0 1 1 3.83-1.15c.03.11 3.24 10.57 8.8 15.6 3.95 3.58 6.43 9.99 6.15 15.96-.21 4.62-2.04 8.44-5.14 10.77q-.56.4-1.2.4Z" style="fill:#004241"/><path d="M52.49 39.78v-28.8h10.82v28.8" style="fill:#aad681"/><path d="M63.31 41.78a2 2 0 0 1-2-2v-26.8h-6.82v26.8c0 1.1-.9 2-2 2s-2-.9-2-2v-28.8c0-1.1.9-2 2-2h10.82a2 2 0 0 1 2 2v28.8a2 2 0 0 1-2 2" style="fill:#004241"/><path d="M16.07 47.92 4.19 25.38l11.88-6.35 11.3 27.19" style="fill:#aad681"/><path d="M16.07 49.92a2 2 0 0 1-1.77-1.07L2.42 26.31a2 2 0 0 1 .83-2.7l11.88-6.35a2 2 0 0 1 2.79 1l11.3 27.18a2 2 0 1 1-3.69 1.53L15.08 21.82l-8.19 4.37 10.96 20.78a2 2 0 0 1-1.77 2.93Z" style="fill:#004241"/><path d="m83.61 49.81 11.53-26.32 12.67 3.61-15.94 30.52" style="fill:#aad681"/><path d="M91.87 59.62a2 2 0 0 1-.92-.23 2 2 0 0 1-.85-2.7l14.81-28.34-8.63-2.46-10.83 24.72a2 2 0 0 1-2.63 1.03 2 2 0 0 1-1.03-2.63L93.32 22.7a2 2 0 0 1 2.38-1.12l12.67 3.61c.58.17 1.05.58 1.29 1.13s.21 1.18-.06 1.72L93.65 58.55a2 2 0 0 1-1.77 1.07ZM52.49 36.23c-.73 0-1.44-.4-1.79-1.11l-10.55-21.1-5.01-1.09a2 2 0 0 1-1.53-2.38 2 2 0 0 1 2.38-1.53l5.94 1.29a2 2 0 0 1 1.36 1.06l10.98 21.95a2 2 0 0 1-1.78 2.89Zm10.82-10.99a2 2 0 0 1-1.79-2.87L71.84 1.13a2 2 0 0 1 2.67-.92 2 2 0 0 1 .92 2.67L65.11 24.12a2 2 0 0 1-1.8 1.13Z" style="fill:#004241"/><path d="M78.08 10.39h-7.54c-.87 0-1.64-.56-1.9-1.39l-2.06-6.39a2 2 0 0 1 3.81-1.23l1.61 5h6.08c1.1 0 2 .9 2 2s-.9 2-2 2Zm7.65 36.56a2 2 0 0 1-1.95-1.58l-2-9.22-3.96-4.03a2 2 0 0 1 .02-2.83 2 2 0 0 1 2.83.02l4.37 4.44q.4.41.53.98l2.13 9.79a2 2 0 0 1-1.96 2.43ZM16.07 21.03q-.24 0-.48-.06a2 2 0 0 1-1.46-2.42l1.7-6.89-4.11-3.74a2 2 0 0 1-.13-2.83 2 2 0 0 1 2.83-.13l4.99 4.54c.54.49.77 1.25.6 1.96l-1.98 8.05a2 2 0 0 1-1.94 1.52Z" style="fill:#004241"/><path d="m83.61 37.16-.31-.02a2 2 0 0 1-1.67-2.28l1.01-6.54a2 2 0 0 1 3.95.61l-1.01 6.54a2 2 0 0 1-1.97 1.7ZM18.05 12.98q-.59 0-1.11-.34a2 2 0 0 1-.55-2.77l3.04-4.54a2 2 0 1 1 3.32 2.22l-3.04 4.54a2 2 0 0 1-1.67.89Zm23.46 1.3a2 2 0 0 1-.86-.2 2 2 0 0 1-.94-2.67l3.4-7.08a2 2 0 1 1 3.61 1.73l-3.4 7.08a2 2 0 0 1-1.8 1.13Zm6.01 12.01q-.14 0-.26-.02l-6.01-.79a2 2 0 0 1-1.72-2.24 2 2 0 0 1 2.25-1.72l6.01.79a2 2 0 0 1 1.72 2.24 2 2 0 0 1-1.98 1.74Z" style="fill:#004241"/></svg>