<svg xmlns="http://www.w3.org/2000/svg" data-name="flatten icons" viewBox="0 0 112 112"><path d="M0 0h112v112H0z" style="fill:none;stroke-width:0"/><path d="M34.61 36.94c-22.02 12.16-1.87 36.93 4.95 42.52C46.94 85.51 52.9 104 66.71 104c19.51 0 15.58-17.23 17.5-30.76s9.45-35.43-8.64-39.71c-26.03-6.15-40.97 3.41-40.97 3.41Z" style="stroke-width:0;fill:#e5554e"/><path d="M34.61 39.38a23 23 0 0 0-5.45 4.08c.21-.03 6.3-.9 11.8-2 5.6-1.12 11.57 11.57 13.07 8.58 1.49-2.98 1.49-6.47 4.48-4.54s5.6 4.58 6.35 1.2 0-6.14 3.73-5.32 7-5.41 7-5.41c-26.03-6.15-40.97 3.41-40.97 3.41Z" style="stroke-width:0;fill:#f4ece4"/><path d="M66.72 106c-10.36 0-16.65-9.2-21.71-16.59-2.33-3.4-4.52-6.61-6.71-8.41-5.37-4.4-16.75-18.21-15.62-30.59.58-6.39 4.26-11.5 10.92-15.2 1.23-.77 16.46-9.77 42.44-3.63 17.17 4.06 13.78 22.12 11.31 35.31-.44 2.36-.86 4.6-1.15 6.63-.37 2.6-.52 5.43-.66 8.17-.6 11.39-1.29 24.31-18.82 24.31M58.7 33.49c-14.65 0-22.9 5.07-23.01 5.14l-.11.06c-5.46 3.02-8.47 7.08-8.92 12.09-1.01 11.01 10.04 23.74 14.18 27.13 2.63 2.16 4.99 5.6 7.48 9.24C53.08 94.11 58.48 102 66.73 102c13.07 0 14.15-7.8 14.82-20.52.15-2.82.3-5.74.7-8.52.3-2.12.73-4.39 1.18-6.8 2.92-15.58 4.17-27.73-8.3-30.68a71 71 0 0 0-16.43-1.99m-24.08 3.45" style="fill:#004241"/><path d="M49.3 35.76c-1.36.15-12.79-.23-16.93-4.29a11 11 0 0 1-2.95-4.63 3.64 3.64 0 0 1 3.03-4.68l3.06-.4a3.7 3.7 0 0 0 3.09-2.8l1.86-8.12a3.65 3.65 0 0 1 5.72-2.13l8.44 6.2c1.37 1 3.24.94 4.53-.16l4.23-3.6a3.65 3.65 0 0 1 5.96 2.13l.94 5.16c.32 1.74 1.83 3 3.59 3 3.56 0 5.02 4.58 2.12 6.63-4.79 3.38-10.37 6.76-13.38 6.67-5.46-.17-13.18 1.02-13.31 1.03Z" style="fill:#aad681"/><path d="M48.56 37.78c-3.28 0-13.26-.63-17.59-4.88a13 13 0 0 1-3.46-5.45 5.6 5.6 0 0 1 .62-4.69 5.7 5.7 0 0 1 4.05-2.58l3.06-.4c.68-.09 1.24-.6 1.4-1.27l1.86-8.12a5.6 5.6 0 0 1 3.54-4.03 5.7 5.7 0 0 1 5.32.74l8.44 6.2c.62.46 1.46.43 2.05-.07l4.23-3.6a5.6 5.6 0 0 1 5.57-1.02 5.6 5.6 0 0 1 3.66 4.31l.94 5.16c.14.79.83 1.36 1.63 1.36a5.6 5.6 0 0 1 5.39 3.95 5.54 5.54 0 0 1-2.12 6.31c-10.17 7.17-13.5 7.07-14.6 7.03-4.55-.14-10.97.72-12.83 1l-.2.03h-.01q-.25.03-.95.03Zm.53-4.01.21 1.99zM44.03 10q-.4.02-.59.11c-.25.09-.85.4-1.04 1.18l-1.86 8.12a5.7 5.7 0 0 1-4.78 4.34l-3.06.4c-.49.06-.93.34-1.2.76-.15.24-.37.72-.18 1.33a9.4 9.4 0 0 0 2.44 3.81c3.4 3.34 13.78 3.87 15.29 3.73h.08c2.49-.37 8.78-1.2 13.53-1.05.94.04 3.98-.53 12.16-6.3.91-.64.7-1.57.61-1.83a1.6 1.6 0 0 0-1.58-1.16 5.65 5.65 0 0 1-5.56-4.64l-.94-5.16c-.15-.85-.8-1.16-1.07-1.26s-.97-.26-1.63.3l-4.23 3.6a5.6 5.6 0 0 1-7.01.25l-8.44-6.2a1.6 1.6 0 0 0-.96-.32Z" style="fill:#004241"/><path d="M35.51 21.76s7.9.42 9.39 3.4" style="fill:#aad681"/><path d="M44.91 27.16c-.73 0-1.44-.4-1.79-1.11-.55-1.1-4.53-2.12-7.71-2.3a2 2 0 0 1 .21-4c2.13.11 9.21.77 11.08 4.5a2 2 0 0 1-1.78 2.89Z" style="fill:#004241"/><path d="M61.24 25.16s2.96-5.08 12.63-3.73" style="fill:#aad681"/><path d="M61.24 27.16q-.52 0-1.01-.27a2 2 0 0 1-.72-2.74c.15-.25 3.77-6.23 14.64-4.7a2 2 0 0 1 1.7 2.26 2 2 0 0 1-2.26 1.7c-8.11-1.14-10.6 2.72-10.63 2.76-.37.64-1.04.99-1.73.99Z" style="fill:#004241"/><path d="M59.15 14.75s-4.78 3.97-5.08 7.15" style="fill:#aad681"/><path d="M54.07 23.89h-.19a2 2 0 0 1-1.8-2.18c.36-3.8 4.89-7.75 5.8-8.5a2 2 0 0 1 2.81.26 2 2 0 0 1-.26 2.82c-1.72 1.44-4.22 4.19-4.37 5.8a2 2 0 0 1-1.99 1.81Z" style="fill:#004241"/><path d="m39.48 56.86 1.22 1.22" style="fill:#aad681"/><path d="M40.7 60.08a2 2 0 0 1-1.41-.59l-1.22-1.22a2 2 0 0 1 2.83-2.83l1.22 1.22a2 2 0 0 1-1.41 3.42Z" style="fill:#004241"/><path d="m51.76 75.47 1.22 1.22" style="fill:#aad681"/><path d="M52.98 78.69a2 2 0 0 1-1.41-.59l-1.22-1.22a2 2 0 0 1 2.83-2.83l1.22 1.22a2 2 0 0 1-1.41 3.42Z" style="fill:#004241"/><path d="m73.62 62.64-.59 1.89" style="fill:#aad681"/><path d="M73.03 66.53q-.3 0-.6-.09a2 2 0 0 1-1.31-2.51l.59-1.89a2 2 0 0 1 2.51-1.31 2 2 0 0 1 1.31 2.51l-.59 1.89a2 2 0 0 1-1.91 1.4m-6.57 13.92a2 2 0 0 1-2-2v-1.42c0-1.1.9-2 2-2s2 .9 2 2v1.42a2 2 0 0 1-2 2" style="fill:#004241"/><path d="m68.76 92.03.02 1.22" style="fill:#aad681"/><path d="M68.77 95.25a2 2 0 0 1-2-1.98v-1.22a2 2 0 0 1 1.96-2.02 2 2 0 0 1 2.02 1.98v1.22a2 2 0 0 1-1.96 2.02z" style="fill:#004241"/><path d="m56.59 59.06.02 1.22" style="fill:#aad681"/><path d="M56.61 62.28a2 2 0 0 1-2-1.98l-.02-1.22a2 2 0 0 1 1.98-2.02c1.11.02 2.01.87 2.02 1.98l.02 1.22a2 2 0 0 1-1.98 2.02z" style="fill:#004241"/><path d="m75.57 47.45.02 1.22" style="fill:#aad681"/><path d="M75.59 50.67a2 2 0 0 1-2-1.98l-.02-1.22a2 2 0 0 1 1.98-2.02 1.97 1.97 0 0 1 2.02 1.98l.02 1.22a2 2 0 0 1-1.98 2.02h-.03Z" style="fill:#004241"/></svg>