<svg xmlns="http://www.w3.org/2000/svg" data-name="flatten icons" viewBox="0 0 112 112"><path d="M0 0h112v112H0z" style="fill:none;stroke-width:0"/><path d="M36.54 55.78s-.4-14.47-2.37-19.82c-1.48-4.01-4.32-5.58-5.87-8.67a4.3 4.3 0 0 0-4.57-2.3l-6.31 1.13 4.52-3.94c1.59-1.38 2.55-5.34 2.67-7.44l-2.63-5.22 6.11-3.42s3.62 4.43 5.69 9.24 5.41 9.73 5.41 9.73l10.77-2.86-7.12 9.17 7.85 11.5" style="stroke-width:0;fill:#aad681"/><path d="M36.54 57.78a2 2 0 0 1-2-1.95c-.11-3.93-.72-15.05-2.24-19.18-.72-1.95-1.83-3.24-3.01-4.6-.98-1.14-2-2.32-2.77-3.87a2.25 2.25 0 0 0-2.43-1.22l-6.31 1.13a2 2 0 0 1-2.16-1.1 2 2 0 0 1 .49-2.37l4.52-3.94c.85-.74 1.72-3.51 1.94-5.54l-2.38-4.71A2 2 0 0 1 21 7.78l6.11-3.42a2 2 0 0 1 2.53.48c.15.19 3.82 4.7 5.98 9.71a64 64 0 0 0 4.46 8.21l9.37-2.49a2 2 0 0 1 2.09 3.16l-6.23 8.02 7.03 10.29a2 2 0 0 1-3.3 2.26l-7.85-11.5a2 2 0 0 1 .07-2.35l3.49-4.49L39.71 27a2 2 0 0 1-2.17-.81c-.14-.21-3.47-5.14-5.59-10.06a41 41 0 0 0-4.39-7.43l-2.92 1.64 1.77 3.51a2 2 0 0 1 .21 1.02c-.08 1.45-.75 5.7-2.65 8.09a6.3 6.3 0 0 1 6.14 3.45c.55 1.1 1.33 2 2.22 3.04 1.29 1.5 2.76 3.21 3.73 5.83 2.06 5.59 2.47 19.85 2.49 20.46a2 2 0 0 1-1.94 2.05h-.06Z" style="fill:#004241"/><path d="M73.05 34.54a9.04 9.04 0 0 0-12.75-.87 9 9 0 0 0-2.99 5.47 9.04 9.04 0 0 0-14.32 10.72 9.03 9.03 0 0 0-13.17 11.85 9.04 9.04 0 0 0 .75 17.97 8.5 8.5 0 0 0 10.67 8.81 8.5 8.5 0 0 0 11.77 8.55 8.5 8.5 0 0 0 2.08 5.94 8.5 8.5 0 0 0 12.02.82 8.5 8.5 0 0 0 2.41-3.53 8.52 8.52 0 0 0 12.97 2.14 8.5 8.5 0 0 0 2.86-5.51 8.49 8.49 0 0 0 6.66-14.1q-.18-.2-.38-.39l.02-.02a8.5 8.5 0 0 0 .82-12.02 8.5 8.5 0 0 0-6.32-2.91 8.5 8.5 0 0 0-1.48-8.76 8.5 8.5 0 0 0-4.96-2.79 8.5 8.5 0 0 0-1.03-9.7 8.5 8.5 0 0 0-3.99-2.56 9 9 0 0 0-1.65-9.12Z" style="stroke-width:0;fill:#c14269"/><path d="M61.53 107.9q-.37 0-.73-.03a10.4 10.4 0 0 1-7.21-3.58 10.5 10.5 0 0 1-2.35-4.7c-3.48.51-7.05-.75-9.44-3.5a10.5 10.5 0 0 1-2.47-5.32c-3.1.09-6.09-1.2-8.18-3.6a10.5 10.5 0 0 1-2.53-5.74 11.04 11.04 0 0 1-1.56-21.07 11.02 11.02 0 0 1 12.86-14.03 11 11 0 0 1 3.74-9.14 11.1 11.1 0 0 1 12.57-1.34c.65-1.4 1.58-2.66 2.76-3.68A11 11 0 0 1 67 29.48a11.04 11.04 0 0 1 10.1 13.01q1.78.91 3.1 2.43a10.5 10.5 0 0 1 2.19 9.73 10.44 10.44 0 0 1 6.28 11.17 10.46 10.46 0 0 1 7.88 10.9 10.4 10.4 0 0 1-2.25 5.81 10.5 10.5 0 0 1-1.8 13.82 10.5 10.5 0 0 1-5.49 2.49 10.54 10.54 0 0 1-17.17 4.98 10.5 10.5 0 0 1-8.31 4.09Zm-8.52-12.86q.61 0 1.14.36c.56.39.88 1.04.86 1.72a6.5 6.5 0 0 0 1.59 4.55 6.5 6.5 0 0 0 4.47 2.22 6.5 6.5 0 0 0 4.73-1.59 6.5 6.5 0 0 0 1.84-2.7 2 2 0 0 1 3.61-.32q.33.55.73 1.02a6.5 6.5 0 0 0 9.19.63 6.5 6.5 0 0 0 2.19-4.21 2 2 0 0 1 2.05-1.79 6.52 6.52 0 0 0 4.9-10.99l-.1-.1a2 2 0 0 1-.58-1.49 2 2 0 0 1 .75-1.48 6.5 6.5 0 0 0 2.18-4.43 6.5 6.5 0 0 0-1.59-4.73 6.6 6.6 0 0 0-4.84-2.23c-.66 0-1.27-.34-1.64-.89s-.44-1.24-.19-1.85a6.5 6.5 0 0 0-1.13-6.71 6.4 6.4 0 0 0-3.79-2.13 2 2 0 0 1-1.41-2.94 6.54 6.54 0 0 0-3.84-9.38 2 2 0 0 1-1.22-1.03 2 2 0 0 1-.08-1.59 7 7 0 0 0-1.28-7.11 7 7 0 0 0-4.82-2.4 7 7 0 0 0-5.1 1.72 7 7 0 0 0-2.33 4.26 2 2 0 0 1-1.36 1.6c-.72.24-1.51.05-2.04-.49a7.05 7.05 0 0 0-9.6-.35 7.1 7.1 0 0 0-1.54 8.7 2 2 0 0 1-2.95 2.57 7.1 7.1 0 0 0-8.82.34 7 7 0 0 0-1.43 8.88 2 2 0 0 1-1.46 3 7 7 0 0 0-3.7 1.67 7.05 7.05 0 0 0-.68 9.93 7 7 0 0 0 4.96 2.4c.54.03 1.04.27 1.4.67s.54.93.5 1.47a6.48 6.48 0 0 0 8.16 6.74 2 2 0 0 1 2.5 2.1 6.5 6.5 0 0 0 1.58 4.81 6.5 6.5 0 0 0 7.43 1.73q.38-.15.77-.16Z" style="fill:#004241"/><circle cx="31.09" cy="70" r="3.71" style="fill:#e589af"/><circle cx="37.74" cy="57.14" r="3.71" style="fill:#e589af"/><circle cx="42.66" cy="77.63" r="3.71" style="fill:#e589af"/><circle cx="61.28" cy="75.35" r="3.71" style="fill:#e589af"/><circle cx="71.94" cy="82.04" r="3.71" style="fill:#e589af"/><circle cx="83.24" cy="76.35" r="3.71" style="fill:#e589af"/><circle cx="75.38" cy="94.58" r="3.71" style="fill:#e589af"/><circle cx="83.99" cy="87.53" r="3.71" style="fill:#e589af"/><circle cx="75.61" cy="66.62" r="3.71" style="fill:#e589af"/><circle cx="53.19" cy="86.17" r="3.71" style="fill:#e589af"/><circle cx="61.94" cy="94.1" r="3.71" style="fill:#e589af"/><circle cx="46.92" cy="66.06" r="3.71" style="fill:#e589af"/><circle cx="59.37" cy="60.81" r="3.71" style="fill:#e589af"/><circle cx="70.8" cy="53.1" r="3.71" style="fill:#e589af"/><circle cx="52.05" cy="47.75" r="3.71" style="fill:#e589af"/><circle cx="66.21" cy="42.17" r="3.71" style="fill:#e589af"/></svg>