<svg xmlns="http://www.w3.org/2000/svg" data-name="flatten icons" viewBox="0 0 112 112"><path d="M0 0h112v112H0z" style="fill:none;stroke-width:0"/><circle cx="39.68" cy="58.37" r="37.68" style="fill:#e5554e"/><path d="M71.84 38.74q.62 3.42.63 7.03a40.18 40.18 0 0 1-65.6 31.11 37.68 37.68 0 1 0 64.98-38.14Z" style="stroke-width:0;fill:#d14343"/><path d="M39.68 98.04C17.8 98.04 0 80.25 0 58.37s17.8-39.68 39.68-39.68 39.68 17.8 39.68 39.68-17.8 39.68-39.68 39.68Zm0-75.35C20 22.69 4 38.7 4 58.37s16 35.68 35.68 35.68 35.68-16 35.68-35.68-16.01-35.68-35.68-35.68" style="fill:#004241"/><path d="M13.2 38.72c.47-3.38-1.82-4.96-1.82-4.96l-6.51-5.13c-.93-.73-.39-2.22.78-2.2l6.87.13a2.44 2.44 0 0 0 2.49-2.44v-5.27a1.23 1.23 0 0 1 1.97-.98l4.24 3.18c.64.48 1.57.23 1.87-.52l2.86-6.97c.46-1.13 2.12-.96 2.35.24l2.29 11.96s1 3.27 4.06 3.27" style="fill:#e5554e"/><path d="M13.21 40.72q-.14 0-.27-.02a2 2 0 0 1-1.71-2.25c.29-2.11-.96-3.04-.97-3.04l-.1-.07-6.51-5.13a3.2 3.2 0 0 1-1.04-3.62 3.2 3.2 0 0 1 3.04-2.15h.06l6.87.13c.15 0 .26-.07.32-.13s.13-.16.13-.32v-5.27a3.23 3.23 0 0 1 5.16-2.59l3.44 2.58 2.48-6.04a3.2 3.2 0 0 1 3.31-1.99 3.2 3.2 0 0 1 2.85 2.61l2.26 11.82c.14.37.75 1.78 2.12 1.78 1.1 0 2 .9 2 2s-.9 2-2 2c-3.59 0-5.44-2.94-5.97-4.68l-.05-.21-1.8-9.42-1.88 4.57a3.2 3.2 0 0 1-2.13 1.89 3.2 3.2 0 0 1-2.79-.53l-3.01-2.25v3.73c0 1.2-.47 2.33-1.33 3.17s-2 1.26-3.2 1.27l-4.57-.09 4.67 3.68a7.2 7.2 0 0 1 2.6 6.84c-.14 1-1 1.73-1.98 1.73" style="fill:#004241"/><path d="M15.48 67.01a2 2 0 0 1-1.93-1.48c-.1-.39-2.49-9.61 2.45-16.72a2 2 0 1 1 3.28 2.28c-3.87 5.57-1.89 13.33-1.87 13.41a2 2 0 0 1-1.93 2.51" style="stroke-width:0;fill:#fff"/><path d="M110 61.53a37.68 37.68 0 0 1-75.36 0l6.72-.17a30.95 30.95 0 0 0 61.9 0l6.72.17Z" style="stroke-width:0;fill:#ede5b4"/><path d="M72.32 101.21a39.7 39.7 0 0 1-39.68-39.68 2 2 0 0 1 1.95-2l6.72-.17c.55-.05 1.06.19 1.45.57s.6.89.6 1.43c0 15.96 12.99 28.95 28.95 28.95s28.95-12.99 28.95-28.95a2 2 0 0 1 2.05-2l6.72.17a2 2 0 0 1 1.95 2 39.7 39.7 0 0 1-39.68 39.68ZM36.7 63.48c1.02 18.77 16.61 33.73 35.62 33.73s34.61-14.96 35.62-33.73l-2.73-.07a33 33 0 0 1-32.89 30.9 33 33 0 0 1-32.89-30.9z" style="fill:#004241"/><path d="m34.65 61.53 6.72-.17a30.95 30.95 0 0 0 61.9 0l6.72.17" style="fill:#e5554e"/><path d="M72.32 94.32a33 33 0 0 1-32.89-30.9l-4.74.12a2 2 0 1 1-.1-4l6.72-.17c.55-.05 1.06.19 1.45.57s.6.89.6 1.43c0 15.96 12.99 28.95 28.95 28.95s28.95-12.99 28.95-28.95a2 2 0 0 1 2.05-2l6.72.17a2 2 0 0 1-.05 4h-.05l-4.74-.12a33 33 0 0 1-32.89 30.9Z" style="fill:#004241"/><circle cx="47.82" cy="64.2" r="6.45" style="fill:#f47373"/><path d="M47.82 72.65a8.46 8.46 0 1 1 .02-16.92 8.46 8.46 0 0 1-.02 16.92m0-12.89a4.46 4.46 0 0 0 0 8.9 4.45 4.45 0 0 0 0-8.9" style="fill:#004241"/><circle cx="55.29" cy="76.64" r="6.45" style="fill:#f47373"/><path d="M55.29 85.08a8.46 8.46 0 1 1 .02-16.92 8.46 8.46 0 0 1-.02 16.92m0-12.89a4.46 4.46 0 0 0 0 8.9 4.45 4.45 0 0 0 0-8.9" style="fill:#004241"/><circle cx="68.18" cy="64.2" r="6.45" style="fill:#f47373"/><path d="M68.18 72.65a8.46 8.46 0 1 1 .02-16.92 8.46 8.46 0 0 1-.02 16.92m0-12.89a4.46 4.46 0 0 0 0 8.9 4.45 4.45 0 0 0 0-8.9" style="fill:#004241"/><circle cx="72.32" cy="83.08" r="6.45" style="fill:#f47373"/><path d="M72.32 91.53a8.46 8.46 0 1 1 .02-16.92 8.46 8.46 0 0 1-.02 16.92m0-12.89a4.46 4.46 0 0 0 0 8.9 4.45 4.45 0 0 0 0-8.9" style="fill:#004241"/><circle cx="82.57" cy="67.81" r="6.45" style="fill:#e5554e"/><path d="M82.57 76.26a8.46 8.46 0 1 1 .02-16.92 8.46 8.46 0 0 1-.02 16.92m0-12.89a4.45 4.45 0 1 0 0 8.9 4.45 4.45 0 0 0 0-8.9" style="fill:#004241"/><circle cx="95.47" cy="64.2" r="6.45" style="fill:#e5554e"/><path d="M95.47 72.65a8.46 8.46 0 1 1 .02-16.92 8.46 8.46 0 0 1-.02 16.92m0-12.89a4.46 4.46 0 0 0 0 8.9 4.45 4.45 0 0 0 0-8.9" style="fill:#004241"/><circle cx="85.22" cy="80.29" r="6.45" style="fill:#f47373"/><path d="M85.22 88.73a8.46 8.46 0 1 1 .02-16.92 8.46 8.46 0 0 1-.02 16.92m0-12.89a4.46 4.46 0 0 0 0 8.9 4.45 4.45 0 1 0 0-8.9" style="fill:#004241"/><circle cx="78.77" cy="54.92" r="6.45" style="fill:#f47373"/><path d="M78.77 63.37a8.46 8.46 0 1 1 .02-16.92 8.46 8.46 0 0 1-.02 16.92m0-12.89a4.46 4.46 0 0 0 0 8.9 4.46 4.46 0 0 0 0-8.9" style="fill:#004241"/></svg>