<svg xmlns="http://www.w3.org/2000/svg" data-name="flatten icons" viewBox="0 0 112 112"><path d="M0 0h112v112H0z" style="fill:none;stroke-width:0"/><path d="M44.6 46.36s8.44-39.7 46.45-25.96c0 0-5.28 40.18-46.45 25.96" style="stroke-width:0;fill:#aad681"/><path d="M60.86 51.41q-7.75 0-16.91-3.16a2 2 0 0 1-1.3-2.31c.16-.76 4.12-18.68 18.56-26.7 8.51-4.73 18.78-4.97 30.53-.72a2 2 0 0 1 1.3 2.14c-.1.73-2.51 18.04-16.06 26.41q-7.03 4.34-16.12 4.34m-13.84-6.36c11.26 3.54 20.61 3.08 27.83-1.37 9.7-5.98 13.01-17.7 13.92-21.95-9.92-3.26-18.53-2.92-25.6.99-10.39 5.76-14.82 17.84-16.15 22.33" style="fill:#004241"/><ellipse cx="76.76" cy="57.25" rx="16.04" ry="17.27" style="fill:#ea5c67" transform="rotate(-54.83 76.77 57.25)"/><path d="M60.5 51.82q.37.97.88 1.95c4.43 8.28 14.67 11.94 22.87 8.19a15 15 0 0 0 8.24-9.56c3.03 7.81-.14 16.38-7.7 19.85-8.2 3.76-18.44.09-22.87-8.19a16.3 16.3 0 0 1-1.42-12.23Z" style="fill:#b74656"/><path d="M78.25 75.52a23 23 0 0 1-9.13-1.95c-4.49-1.97-7.8-5.2-9.09-8.85-3.53-10.05-.23-18.81 8.63-22.87 9.59-4.39 19.99-1.17 24.71 7.66 2.88 5.39 3.59 10.58 2.03 15.02-1.46 4.16-4.76 7.38-9.83 9.55a19 19 0 0 1-7.33 1.43Zm-.96-31.6c-2.28 0-4.65.51-6.96 1.57-7.01 3.21-9.39 9.74-6.52 17.91.92 2.61 3.44 4.99 6.92 6.51 4.41 1.93 9.49 2.12 13.27.5 3.99-1.72 6.56-4.14 7.63-7.2 1.48-4.24-.15-8.76-1.78-11.81a14 14 0 0 0-12.56-7.48" style="fill:#004241"/><ellipse cx="35.87" cy="44.18" rx="18.07" ry="16.73" style="fill:#ea5c67"/><path d="M18.62 39.25q.37.99.87 1.95c4.46 8.27 15.31 11.62 24.24 7.49a17 17 0 0 0 9.18-10.04c2.98 7.84-.73 16.68-8.97 20.49-8.93 4.13-19.78.77-24.24-7.49a15.5 15.5 0 0 1-1.08-12.4" style="fill:#b74656"/><path d="M36.13 62.69c-3.32 0-6.72-.68-9.79-2.04-4.31-1.91-7.34-4.87-8.52-8.35-3.43-10.08.37-19.09 9.91-23.5 10.36-4.79 21.33-1.86 26.08 6.95 2.78 5.15 3.43 10.21 1.9 14.65-1.56 4.53-5.25 8.09-10.96 10.58a22 22 0 0 1-8.62 1.71M21.6 51.01c.81 2.37 3.12 4.55 6.35 5.98 4.81 2.13 10.78 2.25 15.19.32 4.64-2.02 7.59-4.79 8.77-8.21 1.46-4.23-.09-8.56-1.64-11.44-3.72-6.9-12.51-9.09-20.88-5.22-7.75 3.58-10.59 10.35-7.8 18.58Z" style="fill:#004241"/><circle cx="40.89" cy="76.42" r="18.07" style="fill:#ea5c67"/><path d="M27.83 63.95q-.15 1.12-.16 2.27A18.07 18.07 0 0 0 58.8 78.69a18.06 18.06 0 1 1-30.96-14.74Z" style="fill:#b74656"/><path d="M40.89 96.49c-11.07 0-20.07-9-20.07-20.07s8.44-18.38 20.07-18.38 20.07 7.73 20.07 18.38-9 20.07-20.07 20.07m0-34.45c-9.46 0-16.07 5.91-16.07 14.38s7.21 16.07 16.07 16.07 16.07-7.21 16.07-16.07-6.61-14.38-16.07-14.38" style="fill:#004241"/><path d="M27.52 42.55q-.42 0-.83-.18a2 2 0 0 1-.99-2.65c1.13-2.5 4.52-3.85 5.19-4.1a2 2 0 0 1 1.39 3.76c-1.02.38-2.61 1.29-2.94 2a2 2 0 0 1-1.82 1.17m6.7 29.05a2 2 0 0 1-1.6-3.21c1.66-2.19 5.26-2.76 5.97-2.85a2 2 0 1 1 .52 3.96c-1.08.15-2.83.68-3.3 1.3-.39.52-.99.79-1.6.79Zm37.91-18.12q-.65 0-1.21-.41a2 2 0 0 1-.39-2.8c1.66-2.18 5.26-2.76 5.96-2.85a2 2 0 1 1 .53 3.96c-1.08.15-2.83.68-3.3 1.3-.39.52-.99.79-1.6.79Z" style="stroke-width:0;fill:#fff"/></svg>