<svg xmlns="http://www.w3.org/2000/svg" data-name="flatten icons" viewBox="0 0 112 112"><path d="M0 0h112v112H0z" style="fill:none;stroke-width:0"/><path d="M46.51 17.68h-.17a2 2 0 0 1-1.83-2.16c.6-7.25-7.51-11.71-7.59-11.75a2 2 0 0 1-.81-2.71 2 2 0 0 1 2.71-.81c.43.23 10.5 5.77 9.68 15.6a2 2 0 0 1-1.99 1.83" style="fill:#004241"/><path d="M28.51 23.49s-5.97 7.67-5.36 17.28 3.9 11.97 3.8 20.31c-.11 8.91 5.1 13.16 5.94 17.22s.51 10.82 2.82 16.69c1.44 3.65 1.48 9.45 1.31 13.3a1.58 1.58 0 0 0 2.84 1.07c1.79-2.2 5.15-4.9 6.47-12.25 2.42-13.48-.93-14.73-1.45-19.72s.24-13.53-4.27-18.5c-2.85-3.14-3.45-13.27-3.43-20.94.01-9.27-8.68-14.47-8.68-14.47Z" style="stroke-width:0;fill:#9ec96f"/><path d="M38.6 112a3.6 3.6 0 0 1-3.57-3.8c.25-5.5-.17-9.94-1.17-12.48-1.63-4.14-2.03-8.66-2.35-12.29-.16-1.78-.31-3.46-.57-4.73-.23-1.1-.97-2.41-1.84-3.91-1.78-3.12-4.23-7.39-4.15-13.74.05-3.97-.73-6.45-1.62-9.31-.87-2.79-1.86-5.95-2.17-10.85-.65-10.25 5.52-18.3 5.78-18.63a2 2 0 0 1 2.61-.49c.39.24 9.66 5.9 9.65 16.19-.02 10.24 1.07 17.57 2.91 19.59 4.06 4.47 4.35 11.27 4.57 16.23.05 1.25.11 2.42.21 3.4.13 1.23.47 2.22.86 3.37 1.05 3.05 2.37 6.86.56 16.91-1.21 6.77-4.11 10.01-6.02 12.16q-.48.52-.87 1A3.6 3.6 0 0 1 38.6 112m-9.58-85.67c-1.57 2.6-4.27 8.06-3.88 14.31a38 38 0 0 0 2 9.91c.96 3.06 1.86 5.94 1.81 10.55-.06 5.26 1.89 8.68 3.62 11.7.99 1.73 1.92 3.36 2.28 5.09.31 1.5.47 3.29.64 5.19.31 3.55.67 7.58 2.09 11.18 1.41 3.57 1.61 8.82 1.49 12.97l.23-.26a18.4 18.4 0 0 0 5.07-10.2c1.62-9.03.54-12.15-.41-14.9a18 18 0 0 1-1.06-4.26 70 70 0 0 1-.23-3.64c-.2-4.6-.45-10.32-3.54-13.72-2.64-2.91-3.97-10.41-3.95-22.29 0-5.76-3.91-9.79-6.16-11.63" style="fill:#004241"/><path d="M46.55 15.77s-3.91 7.71 0 15.98 9.97 9.92 11.63 17.63 9.37 9.92 11.57 13.22 4.24 9.37 8.46 13.77 2.49 14.88 2.49 14.88 8.21-3.59 8.21-16.48-6-12.67-8.22-16.89-6.89-12.67-10.45-14.89-7.02-8.81-9.68-15.57c-3.21-8.17-14.01-11.65-14.01-11.65" style="fill:#aad681"/><path d="M80.69 93.24a2 2 0 0 1-1.98-2.32c.43-2.64.92-10.16-1.96-13.17-2.98-3.12-4.94-6.98-6.51-10.08a40 40 0 0 0-2.17-3.96c-.55-.82-1.83-1.75-3.2-2.73-3.13-2.25-7.41-5.33-8.66-11.18-.79-3.69-2.7-5.75-5.12-8.36-2.09-2.26-4.46-4.81-6.36-8.83-4.28-9.05-.15-17.39.02-17.74a2 2 0 0 1 2.4-1c.48.15 11.73 3.87 15.25 12.82 3.01 7.64 6.24 12.96 8.87 14.61 2.92 1.83 6.57 6.95 11.16 15.65.48.92 1.27 1.6 2.26 2.46 2.61 2.27 6.19 5.38 6.19 15.36 0 14.04-9.02 18.14-9.41 18.31q-.4.17-.8.17Zm-33-74.88c-.79 2.5-1.74 7.44.67 12.52 1.64 3.46 3.69 5.68 5.68 7.82 2.5 2.7 5.08 5.48 6.1 10.24.93 4.34 4.2 6.7 7.09 8.78 1.67 1.2 3.24 2.33 4.19 3.76a44 44 0 0 1 2.41 4.37c1.53 3.02 3.26 6.44 5.83 9.13 2.9 3.03 3.46 8.08 3.41 11.84 1.86-2.17 3.84-5.92 3.84-12.05 0-8.16-2.45-10.28-4.82-12.34-1.15-1-2.34-2.04-3.18-3.62-5.49-10.43-8.45-13.33-9.73-14.12-3.49-2.18-7.02-7.75-10.48-16.54-2.09-5.31-8.02-8.48-11-9.78Zm-19.18 7.13-.23-.01a2 2 0 0 1-1.76-2.21c.01-.1.95-9.78-3.92-11.04a2 2 0 0 1-1.44-2.44 2 2 0 0 1 2.44-1.44c8.31 2.14 6.95 14.82 6.89 15.36a2 2 0 0 1-1.98 1.77Zm2.17 32a2 2 0 0 1-.41-.04c-3.73-.78-6.21-4.16-6.48-4.54a2 2 0 0 1 3.26-2.32c.49.69 2.18 2.55 4.04 2.94a2 2 0 0 1 1.55 2.37 2 2 0 0 1-1.96 1.59m6.39 25.15c-3.1 0-5.12-2.92-5.83-4.69a2 2 0 0 1 3.71-1.5c.29.71 1.24 2.26 2.17 2.19a2 2 0 0 1 2.09 1.9 2 2 0 0 1-1.9 2.09h-.24Z" style="fill:#004241"/><path d="M68.95 61.65s3.87 1.05 5.43.49" style="fill:#aad681"/><path d="M73.11 64.3c-1.85 0-3.92-.51-4.68-.72a2 2 0 0 1-1.41-2.45 2 2 0 0 1 2.45-1.41c1.68.45 3.7.71 4.24.53 1.04-.33 2.18.22 2.53 1.25s-.16 2.15-1.19 2.51a6 6 0 0 1-1.95.27Z" style="fill:#004241"/><path d="M68.95 42s-3.39-.71-4.51 0" style="fill:#aad681"/><path d="M64.44 44a2 2 0 0 1-1.07-3.69c1.57-1 4.43-.6 5.99-.27a2 2 0 0 1 1.55 2.37 2 2 0 0 1-2.36 1.55 10 10 0 0 0-3.11-.22q-.47.27-.99.26Zm1.07-.31" style="fill:#004241"/></svg>