<svg xmlns="http://www.w3.org/2000/svg" data-name="flatten icons" viewBox="0 0 112 112"><path d="M0 0h112v112H0z" style="fill:none;stroke-width:0"/><ellipse cx="35.11" cy="54.61" rx="33.11" ry="40.71" style="fill:#c6a76a"/><path d="m60.75 44.05.7 5.03a2.2 2.2 0 0 1-2.16 2.49h-1.72a2.18 2.18 0 0 0-2.14 2.59l1.6 8.33a2.18 2.18 0 0 1-2.7 2.52l-1.75-.47a2.18 2.18 0 0 0-2.74 2.11v3.26a2.18 2.18 0 0 1-3.51 1.73l-2.25-1.73a2.18 2.18 0 0 0-3.48 2.11l1.37 7.77a2.19 2.19 0 0 1-3.23 2.28l-4.04-2.3a2.2 2.2 0 0 0-2.52.26l-2.27 2a2.18 2.18 0 0 1-3.55-1.08l-.7-2.67a2.2 2.2 0 0 0-2.67-1.55l-4.57 1.22a2.17 2.17 0 0 1-2.74-2.11c0-1.21-.98-2.18-2.18-2.18H6.49q-.3 0-.59.08c5.57 12.85 16.57 21.6 29.24 21.6 18.29 0 33.11-18.23 33.11-40.71a61 61 0 0 0-1.41-13.35l-4.08.31a2.2 2.2 0 0 0-2 2.48Z" style="stroke-width:0;fill:#a58a59"/><path d="M35.11 97.32C15.75 97.32 0 78.16 0 54.61 0 28.26 13.46 11.9 35.11 11.9s35.12 16.37 35.12 42.71c0 23.55-15.75 42.71-35.12 42.71m0-81.43C12.17 15.9 4 35.89 4 54.61c0 21.35 13.96 38.71 31.11 38.71s31.12-17.37 31.12-38.71c0-18.71-8.17-38.71-31.12-38.71Z" style="fill:#004241"/><path d="M37.09 22.4q-.33 0-.66-.11l-.29-.1a11.6 11.6 0 0 1-7.24-7.44 2 2 0 1 1 3.81-1.21 7.7 7.7 0 0 0 4.74 4.88l.29.1a2 2 0 0 1 1.23 2.55 2 2 0 0 1-1.89 1.34Z" style="fill:#004241"/><circle cx="81.58" cy="69.68" r="28.42" style="fill:#c6a76a"/><path d="M81.58 100.1c-16.78 0-30.42-13.65-30.42-30.42s13.65-30.42 30.42-30.42S112 52.91 112 69.68 98.35 100.1 81.58 100.1m0-56.85c-14.57 0-26.42 11.85-26.42 26.42s11.85 26.42 26.42 26.42S108 84.24 108 69.67 96.15 43.25 81.58 43.25" style="fill:#004241"/><circle cx="81.58" cy="69.68" r="21.74" style="stroke-width:0;fill:#c1e583"/><circle cx="81.58" cy="69.68" r="8.02" style="fill:#f4f0df"/><path d="M81.58 79.7a10.03 10.03 0 0 1 0-20.04 10.02 10.02 0 0 1 0 20.04m0-16.03a6.03 6.03 0 1 0 .01 12.05 6.03 6.03 0 0 0-.01-12.05" style="fill:#004241"/><path d="M81.58 63.67a2 2 0 0 1-2-2v-8c0-1.1.9-2 2-2s2 .9 2 2v8a2 2 0 0 1-2 2m0 24.89a2 2 0 0 1-2-2v-8.87c0-1.1.9-2 2-2s2 .9 2 2v8.87a2 2 0 0 1-2 2m15.81-16.88h-7.8c-1.1 0-2-.9-2-2s.9-2 2-2h7.8c1.1 0 2 .9 2 2s-.9 2-2 2m-23.83 0h-7.39c-1.1 0-2-.9-2-2s.9-2 2-2h7.39c1.1 0 2 .9 2 2s-.9 2-2 2" style="fill:#004241"/><path d="m87.61 64 4.06-4.06" style="fill:#f4f0df"/><path d="M87.61 66a2 2 0 0 1-1.41-3.42l4.05-4.05a2 2 0 0 1 2.83 2.83l-4.05 4.05a2 2 0 0 1-1.41.59Z" style="fill:#004241"/><path d="m75.38 76.23-4.62 4.62" style="fill:#f4f0df"/><path d="M70.76 82.85a2 2 0 0 1-1.41-3.42l4.61-4.61a2 2 0 0 1 2.83 2.83l-4.61 4.61a2 2 0 0 1-1.41.59Z" style="fill:#004241"/><path d="m87.61 75.33 5.52 4.26" style="fill:#f4f0df"/><path d="M93.13 81.59q-.66 0-1.22-.42l-5.52-4.26a2 2 0 0 1-.36-2.81 2 2 0 0 1 2.81-.36L94.35 78a2 2 0 0 1-1.22 3.59" style="fill:#004241"/><path d="m75.38 63.09-4.33-4.32" style="fill:#f4f0df"/><path d="M75.38 65.09a2 2 0 0 1-1.41-.59l-4.33-4.32a2 2 0 0 1 2.83-2.83l4.33 4.32a2 2 0 0 1-1.41 3.42Z" style="fill:#004241"/></svg>