<svg xmlns="http://www.w3.org/2000/svg" data-name="flatten icons" viewBox="0 0 112 112"><path d="M0 0h112v112H0z" style="fill:none;stroke-width:0"/><path d="M80.87 57.39a5 5 0 0 0-.36-.55 4.2 4.2 0 0 1-.41-4.59l.17-.32a5.5 5.5 0 0 0-1.16-6.4c-.88-.83-1-2.3-.42-3.36q.44-.77.64-1.93a5.6 5.6 0 0 0-1.28-4.78 5 5 0 0 0-.52-.48 3.6 3.6 0 0 1-1.28-3.65 5.5 5.5 0 0 0-3.24-6.35c-1.34-.55-2.14-1.84-2.11-3.29s-.51-2.9-1.61-4c-.92-.92-2.62-1.13-4.21-1.12a4.4 4.4 0 0 1-4.02-2.76 5.5 5.5 0 0 0-1.88-2.28 5.6 5.6 0 0 0-6.31 0 5.5 5.5 0 0 0-1.62 1.78 6.1 6.1 0 0 1-4.91 3.26c-1.3.06-2.58.33-3.34 1.08-1.1 1.1-1.64 2.55-1.62 3.99s-.78 2.73-2.12 3.28a5.5 5.5 0 0 0-3.15 6.75 2.7 2.7 0 0 1-1.06 2.99q-.47.31-.86.73a5.6 5.6 0 0 0-1.29 4.78q.19 1.13.62 1.9c.65 1.2.27 2.64-.66 3.64q-.4.43-.72.97a5.5 5.5 0 0 0-.19 5.21l.14.27a4.1 4.1 0 0 1-.27 4.43 5.7 5.7 0 0 0-.3 6.45 5.4 5.4 0 0 0 3.88 2.43c.3 18.47 2.69 32.3 20.6 32.32 17.9.02 20.33-13.79 20.68-32.26a5.47 5.47 0 0 0 4.2-8.15Z" style="stroke-width:0;fill:#efda48"/><path d="M56.03 99.8h-.05c-19.74-.02-22.18-15.98-22.57-32.77a7.4 7.4 0 0 1-3.58-2.88 7.7 7.7 0 0 1 .36-8.74 2.1 2.1 0 0 0 .13-2.27l-.18-.35a7.5 7.5 0 0 1 1.24-8.43c.33-.35.59-.92.37-1.32q-.6-1.12-.84-2.54a7.5 7.5 0 0 1 1.82-6.48 8 8 0 0 1 1.18-1.01.7.7 0 0 0 .28-.74 7.5 7.5 0 0 1 1.85-7.58 8 8 0 0 1 2.44-1.63c.56-.23.89-.75.88-1.4a7.4 7.4 0 0 1 2.21-5.44q1.53-1.53 4.66-1.67c1.27-.06 2.49-.9 3.26-2.25a7.5 7.5 0 0 1 10.82-2.43 7.5 7.5 0 0 1 2.56 3.12c.42.97 1.25 1.57 2.16 1.57h.17c2.55 0 4.35.56 5.49 1.71a7.5 7.5 0 0 1 2.19 5.45c-.01.65.31 1.17.87 1.4q1.38.57 2.44 1.63a7.4 7.4 0 0 1 1.98 7.03 1.6 1.6 0 0 0 .59 1.63q.38.3.72.66a7.5 7.5 0 0 1 1.8 6.48 8 8 0 0 1-.87 2.59c-.17.31-.12.77.05.93q.77.72 1.32 1.66a7.5 7.5 0 0 1 .27 7.07l-.23.43c-.47.84-.16 1.8.29 2.42q.25.35.48.73a7.46 7.46 0 0 1-3.97 10.74c-.43 16.76-2.92 32.67-22.6 32.67Zm0-87.26c-.71 0-1.42.21-2 .63q-.66.46-1.04 1.14a8 8 0 0 1-6.56 4.27c-1.5.07-1.94.43-2.01.5a3.5 3.5 0 0 0-1.03 2.54 5.4 5.4 0 0 1-3.36 5.17q-.64.26-1.13.76a3.5 3.5 0 0 0-.86 3.54 4.7 4.7 0 0 1-1.84 5.25q-.3.2-.54.46a3.6 3.6 0 0 0-.76 3.08q.12.75.4 1.26a5.1 5.1 0 0 1-.95 5.96q-.26.28-.47.63a3.5 3.5 0 0 0-.11 3.3l.09.18a6.1 6.1 0 0 1-.41 6.59 3.7 3.7 0 0 0-.24 4.17 3.5 3.5 0 0 0 2.48 1.55c.98.13 1.72.96 1.73 1.95.42 25.5 6.86 30.34 18.6 30.35h.04c15.18 0 18.26-10.65 18.64-30.3a2 2 0 0 1 1.78-1.95 3.5 3.5 0 0 0 2.46-5.54 6.2 6.2 0 0 1-.53-6.75l.11-.22a3.5 3.5 0 0 0-.75-4.07 4.8 4.8 0 0 1-.78-5.78q.29-.51.41-1.28c.2-1.22-.08-2.38-.76-3.09l-.33-.31a5.6 5.6 0 0 1-1.97-5.67 3.5 3.5 0 0 0-2.05-4.04 5.4 5.4 0 0 1-3.35-5.17 3.5 3.5 0 0 0-1.03-2.55c-.09-.09-.66-.55-2.78-.53a6.5 6.5 0 0 1-5.87-3.96 3.5 3.5 0 0 0-3.2-2.07Z" style="fill:#004241"/><path d="M97.14 65.36A33.1 33.1 0 0 0 66.3 69.6a22 22 0 0 0-6.25 7.01l-.33.59a4.24 4.24 0 0 1-7.45 0l-.33-.59a22 22 0 0 0-6.25-7.01 33.1 33.1 0 0 0-30.84-4.24L1.99 70.11l9.95 2.18a20 20 0 0 1 12.79 9.17l8.35 13.61c2 3.26 5.48 5.23 9.22 5.23h7.15q.37 0 .73-.04 5.8-.63 11.6 0 .36.04.73.04h7.15c3.74 0 7.22-1.97 9.22-5.23l8.35-13.61a20 20 0 0 1 12.79-9.17l9.95-2.18-12.86-4.75Z" style="fill:#aad681"/><path d="M69.68 102.3h-7.15a10 10 0 0 1-.94-.05c-3.71-.4-7.47-.4-11.18 0a10 10 0 0 1-.94.05h-7.15c-4.46 0-8.55-2.31-10.93-6.19L23.04 82.5a18.2 18.2 0 0 0-11.52-8.27l-9.95-2.18A2 2 0 0 1 0 70.23a2 2 0 0 1 1.3-2.01l12.86-4.75a35.1 35.1 0 0 1 32.7 4.49 24 24 0 0 1 6.83 7.66l.33.58a2.23 2.23 0 0 0 3.96 0l.33-.59a24 24 0 0 1 6.83-7.66 35.1 35.1 0 0 1 32.7-4.49l12.86 4.75a2 2 0 0 1-.27 3.83l-9.95 2.18a18.2 18.2 0 0 0-11.52 8.27L80.61 96.1a12.8 12.8 0 0 1-10.93 6.19ZM56 97.95q3.02 0 6.02.32.25.03.51.03h7.15c3.06 0 5.87-1.6 7.52-4.28l8.35-13.61a22.2 22.2 0 0 1 14.07-10.08l3.27-.71-6.44-2.38a31.2 31.2 0 0 0-28.98 3.98 20 20 0 0 0-5.67 6.37l-.33.59c-1.14 2.03-3.18 3.24-5.47 3.24s-4.33-1.21-5.47-3.24l-.33-.58a20 20 0 0 0-5.67-6.37 31.1 31.1 0 0 0-28.98-3.98l-6.44 2.38 3.27.71a22.2 22.2 0 0 1 14.07 10.08l8.35 13.61a8.8 8.8 0 0 0 7.52 4.28h7.15q.26 0 .51-.03 2.99-.32 6.01-.32Z" style="fill:#004241"/><path d="M54.77 88.91s1.23-6.38 5.28-12.77" style="fill:#aad681"/><path d="M54.77 90.91q-.19 0-.38-.04a2 2 0 0 1-1.58-2.34c.05-.28 1.35-6.83 5.56-13.46a2 2 0 0 1 3.38 2.14 40 40 0 0 0-5.01 12.07 2 2 0 0 1-1.96 1.62Z" style="fill:#004241"/><circle cx="55.86" cy="22.03" r="2.87" style="fill:#fff"/><circle cx="47.91" cy="28.44" r="2.87" style="fill:#fff"/><circle cx="44.79" cy="37.51" r="2.87" style="fill:#fff"/><circle cx="43.4" cy="46.05" r="2.87" style="fill:#fff"/><circle cx="64.28" cy="47.88" r="2.87" style="fill:#ffeea4"/><circle cx="65.36" cy="58.72" r="2.87" style="fill:#ffeea4"/><circle cx="66.7" cy="37.51" r="2.87" style="fill:#ffeea4"/><circle cx="43.4" cy="55.92" r="2.87" style="fill:#ffeea4"/><circle cx="58.87" cy="30.57" r="2.87" style="fill:#fff"/><circle cx="54.77" cy="41.37" r="2.87" style="fill:#ffeea4"/><circle cx="53.13" cy="51.3" r="2.87" style="fill:#ffeea4"/><circle cx="53.13" cy="62.78" r="2.87" style="fill:#ffeea4"/></svg>