<svg xmlns="http://www.w3.org/2000/svg" data-name="flatten icons" viewBox="0 0 112 112"><path d="M0 0h112v112H0z" style="fill:none;stroke-width:0"/><path d="M50.51 9.2a4 4 0 0 1-3.44-3.16c-.57-2.88-.89-5.9-2.89-6.03-3.16-.2-3.36 2.77-3.36 2.77 1.38 5.14-4.35 6.9-4.35 6.9C16.42 13.71 1.4 29.46 2.02 50.85c.65 22.32 18.25 38.73 40.93 38.67 24.69-.06 45.02-15.53 45.02-39.95 0-21.87-16.33-37.66-37.46-40.38Z" style="stroke-width:0;fill:#c9d478"/><path d="M42.84 91.52C19.09 91.52.69 74.08.02 50.91-.6 29.57 13.83 12.25 35.94 7.75c.76-.25 3.75-1.47 2.95-4.45a2 2 0 0 1-.06-.65 4.9 4.9 0 0 1 5.48-4.63c3.34.21 4.01 3.83 4.55 6.73l.17.91a2 2 0 0 0 1.73 1.56c23.08 2.96 39.21 20.38 39.21 42.36 0 24.24-19.77 41.88-47.01 41.95h-.12ZM37.2 11.55q-.15.06-.33.09C16.66 15.7 3.46 31.43 4.02 50.79c.61 20.96 17.29 36.73 38.82 36.73h.11c24.93-.06 43.02-16.02 43.02-37.95 0-19.91-14.69-35.69-35.71-38.39a6 6 0 0 1-5.15-4.76l-.18-.95c-.21-1.13-.56-3-.96-3.48q-.95-.03-1.11.67c1.14 5.18-3.08 8.03-5.65 8.88Z" style="stroke-width:0;fill:#004241"/><path d="M58.4 80.88a2 2 0 0 1-1.51-3.32c11.6-13.25 15.15-27.5 10.53-42.34-3.46-11.14-10.4-18.41-10.47-18.49a2 2 0 0 1 2.88-2.78c.3.32 30.09 31.96.06 66.24a2 2 0 0 1-1.51.68Zm-25.54 0c-.6 0-1.18-.26-1.58-.77-26.67-34.2-.21-65.75.06-66.07a2 2 0 0 1 3.04 2.61c-1.01 1.19-24.57 29.43.06 61a2 2 0 0 1-1.58 3.23m12.13 0a2 2 0 0 1-.51-.07 2 2 0 0 1-1.42-2.45c8.56-32.34.1-62.17.01-62.46a2 2 0 0 1 3.84-1.12c.37 1.26 8.87 31.15.01 64.61a2 2 0 0 1-1.93 1.49" style="stroke-width:0;fill:#579660"/><path d="M10 57.95a50 50 0 0 0 100 0H96.62c-7.31 14.95-20.97 25-36.62 25S30.69 72.9 23.38 57.96z" style="stroke-width:0;fill:#adcf6c"/><path d="M60 109.95c-28.67 0-52-23.33-52-52a2.03 2.03 0 0 1 2-2h13.38c.76 0 1.46.44 1.8 1.13C32.39 71.81 45.73 80.95 60 80.95s27.62-9.15 34.82-23.87a2 2 0 0 1 1.8-1.12H110a2.03 2.03 0 0 1 2 2c0 28.67-23.33 52-52 52ZM12.04 59.96c1.05 25.54 22.16 46 47.96 46s46.91-20.46 47.96-46H97.85c-8.01 15.46-22.41 25-37.85 25s-29.85-9.54-37.85-24.99H12.04Z" style="stroke-width:0;fill:#004241"/><path d="M29.35 57.96S40.51 70.11 60 68.15s30.65-10.19 30.65-10.19-3.1 25.52-27.68 25.52-33.63-25.52-33.63-25.52Z" style="stroke-width:0;fill:#e38044"/><path d="M18.15 57.95a41.85 41.85 0 0 0 83.7 0H91.62C85.5 70.46 73.09 78.88 60 78.88s-25.5-8.41-31.62-20.92z" style="stroke-width:0;fill:#f59455"/><path d="M60 101.8a43.9 43.9 0 0 1-43.85-43.85 2.03 2.03 0 0 1 2-2h11.2a2 2 0 0 1 1.47.65c.1.11 10.78 11.38 28.98 9.55 18.73-1.88 29.56-9.73 29.67-9.81q.53-.38 1.19-.39h11.2a2.03 2.03 0 0 1 2 2 43.9 43.9 0 0 1-43.85 43.85ZM20.2 59.96C21.25 81.01 38.7 97.81 60 97.81s38.76-16.8 39.8-37.85h-8.52c-2.55 1.72-13.48 8.42-31.08 10.18-17.83 1.79-28.96-7.57-31.68-10.18z" style="stroke-width:0;fill:#004241"/></svg>