<svg xmlns="http://www.w3.org/2000/svg" data-name="flatten icons" viewBox="0 0 112 112"><path d="M0 0h112v112H0z" style="fill:none;stroke-width:0"/><path d="M53.47 37.24s13.78-4.44 18.36-7.84c3.43-2.54 6.06-6.28 8.6-8.63a4.3 4.3 0 0 0 .92-5.04l-2.86-5.74 5.05 3.23a7.8 7.8 0 0 0 5.97 1.03l7.81-1.8 2.65 6.39s-4.42 1.04-8.46 4.38c-4.03 3.34-8.78 8.2-8.78 8.2l6.73 9.25-10.8-4.26-8.83 10.76" style="stroke-width:0;fill:#aad681"/><path d="M69.83 49.19a2 2 0 0 1-1.55-3.26l8.83-10.76a2 2 0 0 1 2.28-.59l4.41 1.74-2.69-3.7a2 2 0 0 1 .19-2.57c.2-.2 4.87-4.98 8.93-8.35a25 25 0 0 1 7.06-4.07l-1.17-2.82-6.16 1.42a10 10 0 0 1-6.57-.77 6.3 6.3 0 0 1-1.61 6.8c-.89.83-1.83 1.88-2.83 3-1.71 1.91-3.64 4.07-5.93 5.77-4.79 3.55-18.36 7.95-18.93 8.13a2 2 0 0 1-1.23-3.81c3.75-1.21 14.24-4.92 17.78-7.54a38 38 0 0 0 5.33-5.22 52 52 0 0 1 3.09-3.27c.75-.69.94-1.77.49-2.68l-2.86-5.74a2 2 0 0 1 .45-2.38 2 2 0 0 1 2.41-.2l5.05 3.23a5.8 5.8 0 0 0 4.44.77l7.81-1.8a2 2 0 0 1 2.3 1.18l2.65 6.39a2.02 2.02 0 0 1-1.39 2.72c-.04 0-4.05 1-7.64 3.98a119 119 0 0 0-7.43 6.87l5.73 7.88a2 2 0 0 1-.04 2.4c-.54.7-1.49.96-2.32.64l-9.45-3.72-7.91 9.63c-.4.48-.97.73-1.55.73Z" style="fill:#004241"/><path d="M84.1 66.32a9.04 9.04 0 0 0-2.74-12.48 9 9 0 0 0-6.09-1.34 9.03 9.03 0 0 0-14.31-10.73c1.45-3.9.05-8.42-3.6-10.76s-8.55-1.68-11.47 1.44a9 9 0 0 0-3.39-3.95 9.04 9.04 0 0 0-12.48 2.74 9 9 0 0 0-1.17 6.98 8.5 8.5 0 0 0-5.46 12.71 8.5 8.5 0 0 0-5.46 3.75 8.5 8.5 0 0 0 .56 9.95 8.5 8.5 0 0 0-5.12 3.67 8.5 8.5 0 0 0 2.58 11.76 8.4 8.4 0 0 0 4.06 1.32A9 9 0 0 0 19 82.66a8.5 8.5 0 0 0 2.58 11.76 8.5 8.5 0 0 0 6.09 1.2c.52 2 1.76 3.82 3.64 5.02a8.5 8.5 0 0 0 11.76-2.58l.27-.48.02.02a8.5 8.5 0 0 0 12.78-9.47 8.5 8.5 0 0 0 9.29-9.42 8.5 8.5 0 0 0 10.36-8.27 9 9 0 0 0 8.29-4.14Z" style="stroke-width:0;fill:#555196"/><path d="M35.9 104a10.5 10.5 0 0 1-9.58-6.24 10.52 10.52 0 0 1-9.6-15.08q-.96-.37-1.84-.93a10.53 10.53 0 0 1 .66-18.11 10.5 10.5 0 0 1 5.13-13.91 10.4 10.4 0 0 1 1.16-8.86 10.5 10.5 0 0 1 4.8-4.04 11 11 0 0 1 8.64-11.5 11 11 0 0 1 11.15 4.08 11.04 11.04 0 0 1 17.08 8.4 11.1 11.1 0 0 1 9.83 1.02 11.1 11.1 0 0 1 4.82 11.69 11.05 11.05 0 0 1 7.66 16.86 11 11 0 0 1-8.17 5.03q-.38 1.97-1.46 3.66a10.5 10.5 0 0 1-8.73 4.84 11 11 0 0 1-1.58 4.42 10.5 10.5 0 0 1-7.37 4.74 10.6 10.6 0 0 1-1.64 6.03 10.5 10.5 0 0 1-12.81 4.08 10.5 10.5 0 0 1-8.12 3.81Zm-8.21-10.36a2 2 0 0 1 1.93 1.5 6.5 6.5 0 0 0 2.78 3.84 6.5 6.5 0 0 0 9-1.98l.15-.26.06-.11a2 2 0 0 1 2.76-.75l.12.08a6.5 6.5 0 0 0 8.97-2c1-1.55 1.28-3.48.78-5.27a2 2 0 0 1 .39-1.82c.42-.5 1.06-.77 1.73-.71 2.45.24 4.8-.9 6.12-2.97a6.5 6.5 0 0 0 .98-4.24 2 2 0 0 1 2.42-2.17 6.5 6.5 0 0 0 6.9-2.84 6.5 6.5 0 0 0 1.02-3.48 2 2 0 0 1 2.15-1.99 7 7 0 0 0 6.46-3.23 7.05 7.05 0 0 0-2.14-9.72 7 7 0 0 0-4.74-1.04 2 2 0 0 1-1.92-.85 2 2 0 0 1-.1-2.1 7.05 7.05 0 0 0-2.36-9.32 7.1 7.1 0 0 0-8.78.96 2 2 0 0 1-2.5.27 2 2 0 0 1-.8-2.38 7.06 7.06 0 0 0-2.8-8.37 7 7 0 0 0-8.93 1.12c-.46.49-1.13.73-1.79.61a2 2 0 0 1-1.5-1.16 7 7 0 0 0-2.64-3.08 7 7 0 0 0-5.3-.95 7 7 0 0 0-4.42 3.08 7 7 0 0 0-.91 5.44c.13.52.04 1.07-.25 1.53s-.74.78-1.27.89a6.5 6.5 0 0 0-4.09 2.85 6.5 6.5 0 0 0-.09 6.87 2 2 0 0 1-1.31 2.99 6.5 6.5 0 0 0-4.18 2.87 6.5 6.5 0 0 0 .43 7.61c.43.53.56 1.25.34 1.89a2 2 0 0 1-1.42 1.31 6.5 6.5 0 0 0-3.92 2.8 6.52 6.52 0 0 0 5.09 10.01 2 2 0 0 1 1.33 3.37q-.44.47-.77.98a6.51 6.51 0 0 0 6.64 9.92l.35-.03Z" style="fill:#004241"/><circle cx="38.29" cy="36" r="3.71" style="fill:#9595ce"/><circle cx="52.5" cy="38.77" r="3.71" style="fill:#9595ce"/><circle cx="34.22" cy="49.25" r="3.71" style="fill:#9595ce"/><circle cx="41.63" cy="66.47" r="3.71" style="fill:#9595ce"/><circle cx="38.21" cy="78.59" r="3.71" style="fill:#9595ce"/><circle cx="46.83" cy="87.83" r="3.71" style="fill:#9595ce"/><circle cx="27.14" cy="85.4" r="3.71" style="fill:#9595ce"/><circle cx="36.32" cy="91.69" r="3.71" style="fill:#9595ce"/><circle cx="54.03" cy="77.78" r="3.71" style="fill:#9595ce"/><circle cx="28.98" cy="61.75" r="3.71" style="fill:#9595ce"/><circle cx="23.83" cy="72.37" r="3.71" style="fill:#9595ce"/><circle cx="46.52" cy="50.08" r="3.71" style="fill:#9595ce"/><circle cx="55.05" cy="60.56" r="3.71" style="fill:#9595ce"/><circle cx="65.66" cy="69.37" r="3.71" style="fill:#9595ce"/><circle cx="65.53" cy="49.87" r="3.71" style="fill:#9595ce"/><circle cx="74.86" cy="61.89" r="3.71" style="fill:#9595ce"/></svg>