<svg xmlns="http://www.w3.org/2000/svg" data-name="flatten icons" viewBox="0 0 112 112"><path d="M0 0h112v112H0z" style="fill:none;stroke-width:0"/><path d="M65.81 49.47s-5.6-40.2-44.49-29.19c0 0 2.41 40.45 44.49 29.19" style="stroke-width:0;fill:#aad681"/><path d="M52.07 53.45q-10.87 0-18.61-5.57c-12.91-9.31-14.1-26.74-14.14-27.48a2 2 0 0 1 1.45-2.04c12.02-3.41 22.25-2.43 30.4 2.88C65 30.27 67.68 48.42 67.78 49.19a2 2 0 0 1-1.46 2.21 55 55 0 0 1-14.25 2.05M23.49 21.77c.61 4.31 3.08 16.23 12.33 22.88C42.7 49.6 52 50.72 63.48 47.99c-1.01-4.57-4.56-16.93-14.52-23.42-6.77-4.41-15.34-5.35-25.47-2.81Z" style="fill:#004241"/><ellipse cx="37.41" cy="57.49" rx="18.07" ry="16.73" style="fill:#7277dd"/><path d="M54.66 52.55q-.37.99-.87 1.95c-4.45 8.27-15.3 11.63-24.24 7.51a17 17 0 0 1-9.19-10.03c-2.97 7.84.74 16.68 8.98 20.49 8.93 4.12 19.78.76 24.24-7.51a15.6 15.6 0 0 0 1.08-12.4Z" style="fill:#594fba"/><path d="M37.15 76c-3.03 0-5.99-.57-8.6-1.7-5.71-2.49-9.4-6.04-10.96-10.57-1.53-4.44-.88-9.5 1.89-14.65 4.75-8.82 15.72-11.75 26.08-6.97 9.54 4.4 13.34 13.4 9.92 23.49-1.18 3.48-4.21 6.45-8.52 8.35a24.5 24.5 0 0 1-9.81 2.04Zm-1.53-32.15c-5.38 0-10.14 2.51-12.62 7.13-1.55 2.88-3.1 7.21-1.63 11.44 1.18 3.43 4.14 6.19 8.78 8.21 4.42 1.93 10.38 1.79 15.19-.33 3.23-1.43 5.54-3.61 6.35-5.98 2.79-8.23-.06-15-7.81-18.57a20 20 0 0 0-8.26-1.9m17.96 21.11" style="fill:#004241"/><ellipse cx="75.24" cy="38.85" rx="18.07" ry="16.73" style="fill:#7277dd" transform="rotate(-15.76 75.22 38.83)"/><path d="M90.5 29.41q-.08 1.05-.31 2.11c-2.04 9.17-11.57 15.35-21.29 13.81-5-.79-9.07-3.49-11.57-7.16-.73 8.35 5.24 15.86 14.21 17.28 9.72 1.54 19.25-4.64 21.29-13.81.99-4.45.02-8.77-2.33-12.23" style="fill:#594fba"/><path d="M73.89 57.6q-1.32 0-2.62-.17c-6.17-.84-10.69-3.26-13.42-7.19-2.68-3.85-3.43-8.91-2.16-14.61 2.18-9.78 11.93-15.58 23.21-13.79 10.38 1.65 16.48 9.28 15.93 19.91-.19 3.67-2.3 7.35-5.93 10.35a24 24 0 0 1-15.01 5.5m1.03-32.09c-7.63 0-13.83 4.28-15.32 10.98-.71 3.2-1.02 7.78 1.54 11.46 2.07 2.98 5.66 4.83 10.68 5.52 4.78.65 10.48-1.09 14.53-4.45 2.72-2.25 4.36-4.98 4.49-7.48.45-8.67-4.13-14.42-12.56-15.75q-1.71-.27-3.36-.27Z" style="fill:#004241"/><circle cx="60.13" cy="75.56" r="18.07" style="stroke-width:0;fill:#7c84e8"/><path d="M73.18 63.09q.15 1.12.16 2.27a18.07 18.07 0 0 1-31.13 12.47 18.06 18.06 0 1 0 30.96-14.74Z" style="fill:#594fba"/><path d="M60.13 95.63c-11.07 0-20.07-9-20.07-20.07s8.44-18.38 20.07-18.38S80.2 64.91 80.2 75.56s-9 20.07-20.07 20.07m0-34.45c-9.46 0-16.07 5.91-16.07 14.38s7.21 16.07 16.07 16.07S76.2 84.42 76.2 75.56s-6.61-14.38-16.07-14.38" style="fill:#004241"/><path d="M54 67.56a2 2 0 0 1-1.45-3.39l6.13-6.38a2 2 0 0 1 2.89 2.77l-6.13 6.38c-.39.41-.92.61-1.44.61Z" style="fill:#004241"/><path d="M61.61 69.06a2 2 0 0 1-1.44-.61l-6.13-6.38a2 2 0 0 1 2.89-2.77l6.13 6.38a2 2 0 0 1-1.45 3.39Zm13.47-30.92c-.46 0-.92-.16-1.3-.48l-5.81-4.97a2 2 0 1 1 2.6-3.04l5.81 4.97a2 2 0 0 1-1.3 3.52" style="fill:#004241"/><path d="M68.69 38.78a2 2 0 0 1-1.38-3.45l5.98-5.74a2 2 0 0 1 2.77 2.89l-5.98 5.74c-.39.37-.89.56-1.38.56Z" style="fill:#004241"/></svg>