<svg xmlns="http://www.w3.org/2000/svg" data-name="flatten icons" viewBox="0 0 112 112"><path d="M0 0h112v112H0z" style="fill:none;stroke-width:0"/><path d="M95.51 46.65c6.37 18.42-5.39 44.04-28.11 51.9-16.6 5.75-44.35-6.21-50.72-24.62-6.37-18.42 3.43-38.52 26.15-46.39s46.31.69 52.69 19.11Z" style="fill:#f4ece4"/><path d="M42.83 27.54c-17.31 5.99-27.11 19.08-27.99 33.12 2.47 2.71 6.39 5.09 12.49 6.62 13.51 3.38 21.13-2.05 29.95 3.12 5.56 3.26 14.12 3.6 19.3-10.54 2.96-8.08 10.49-14.57 16.39-18.64-8.75-14.59-29.79-20.73-50.14-13.69Z" style="stroke-width:0;fill:#d6809f"/><path d="M58.23 101.95c-16.69 0-37.73-10.86-43.45-27.37a35.5 35.5 0 0 1 2.3-28.76c4.93-9.12 13.84-16.28 25.09-20.18 23.73-8.21 48.51.91 55.23 20.34 6.46 18.67-4.72 45.92-29.35 54.45a30 30 0 0 1-9.82 1.51Zm1.65-75.33c-5.33 0-10.89.9-16.4 2.81C33.18 33 25.05 39.49 20.6 47.73a31.5 31.5 0 0 0-2.03 25.55c6.14 17.75 33.21 28.57 48.18 23.39C89.22 88.9 99.47 64.2 93.63 47.31c-4.47-12.93-18.12-20.68-33.74-20.68Z" style="fill:#004241"/><path d="M39.36 39.94h-.17c-3.03 0-4.6-1.3-5.39-2.38-2.03-2.8-.83-6.76-.68-7.2a2 2 0 0 1 2.52-1.29 2 2 0 0 1 1.29 2.51c-.25.79-.55 2.72.12 3.63q.53.72 2.15.73h.16c8.67 0 14.18-1.57 14.24-1.59a2 2 0 0 1 1.12 3.84c-.24.07-6.07 1.75-15.36 1.75" style="fill:#004241"/><path d="M36.95 29.72s-2.4-3.8-2.4-7.37 3.83-2.44 3.83-2.44l4.07 2.44v-6.13s.48-2.79 2.88-3.96 3.88 2.07 3.88 2.07l2.35 3.29s5.47-.79 5.71 3.44-3.62 6.11-3.62 6.11-9.51 4.19-16.7 2.56Z" style="fill:#aad681"/><path d="M40.58 32.09q-2.08.02-4.08-.42a2 2 0 0 1-1.25-.88c-.11-.18-2.7-4.34-2.7-8.44 0-2.05.91-3.17 1.67-3.74 1.84-1.38 4.26-.76 4.73-.62q.24.08.46.2l1.04.63v-2.6q0-.17.03-.34c.24-1.41 1.35-4.15 3.97-5.42a4 4 0 0 1 3.29-.21c1.81.65 2.84 2.38 3.18 3.05l1.61 2.26c1.3 0 3.29.23 4.8 1.47a5.3 5.3 0 0 1 1.91 3.92c.31 5.49-4.54 7.92-4.74 8.02-.4.18-7.21 3.14-13.94 3.14Zm-2.35-4.17c6.36.98 14.53-2.56 14.61-2.6.02-.02 2.59-1.36 2.43-4.17-.04-.63-.25-.89-.44-1.04-.73-.6-2.33-.62-2.99-.53a2 2 0 0 1-1.9-.82l-2.35-3.29q-.11-.16-.19-.33c-.21-.45-.69-1.04-.99-1.15-.02 0-.06-.02-.19.04-1.2.58-1.64 1.96-1.75 2.38v5.92a1.98 1.98 0 0 1-3.02 1.71l-3.81-2.28c-.41-.07-.87-.05-1 .03 0 0-.07.14-.07.54 0 2.11 1.07 4.43 1.68 5.58Zm28.21 22.52a2 2 0 0 1-1.97-1.68 2 2 0 0 1 1.65-2.29c.12-.02 11.9-2.03 21.57-10.58a2 2 0 0 1 2.82.17 2 2 0 0 1-.17 2.82 51.3 51.3 0 0 1-23.58 11.53z" style="fill:#004241"/><path d="M16.55 52s10.29 4.05 21.55 3.27" style="fill:#aad681"/><path d="M35.13 57.37a58 58 0 0 1-19.32-3.51 2 2 0 0 1-1.13-2.59 2 2 0 0 1 2.59-1.13c.1.04 10.03 3.88 20.68 3.14a2 2 0 0 1 2.13 1.86 2 2 0 0 1-1.86 2.13q-1.58.1-3.11.11Z" style="fill:#004241"/><path d="M66.44 81.89c-5.86 1.03-14.92 1.99-23.55.35" style="fill:#aad681"/><path d="M52.96 85.12c-3.4 0-6.95-.26-10.44-.92a2 2 0 0 1-1.59-2.34 2 2 0 0 1 2.34-1.59c8.26 1.57 16.97.68 22.83-.35a2 2 0 0 1 2.32 1.62 2 2 0 0 1-1.62 2.32 81 81 0 0 1-13.83 1.26Z" style="fill:#004241"/><path d="M16.67 73.93s7.54 2.84 10.65 3.08" style="fill:#aad681"/><path d="M27.33 79.01h-.16c-3.3-.25-10.4-2.9-11.2-3.2a2 2 0 0 1 1.41-3.75c2.03.76 7.79 2.78 10.1 2.96a2 2 0 0 1 1.84 2.15 2 2 0 0 1-1.99 1.85Z" style="fill:#004241"/><path d="M83.87 62.31s6.13-1.44 13.37-4.75" style="fill:#aad681"/><path d="M83.86 64.31a2 2 0 0 1-.45-3.94c.06-.01 6.04-1.44 12.99-4.62a2 2 0 1 1 1.66 3.64 82 82 0 0 1-13.74 4.88 2 2 0 0 1-.46.05Z" style="fill:#004241"/><path d="m60.65 63.13-.56-.02a2 2 0 0 1-1.8-2.18 2 2 0 0 1 2.16-1.8c.07 0 1.42.07 4.05-.55a2 2 0 0 1 2.41 1.49 2 2 0 0 1-1.49 2.41c-2.39.57-3.98.66-4.77.66Z" style="fill:#f4ece4"/></svg>