<svg xmlns="http://www.w3.org/2000/svg" data-name="flatten icons" viewBox="0 0 112 112"><path d="M0 0h112v112H0z" style="fill:none;stroke-width:0"/><path d="M58.2 24.6q-4.17.92-7.85 2.73-4.1-.15-8.28.74C23.02 32.16 9.16 51.98 15.25 71.23c6.48 20.48 17.46 37.64 49.35 36.15a29 29 0 0 0 10.49-2.94c27.06-14.56 29.33-32.64 25.28-51.49S77.25 20.51 58.2 24.6" style="stroke-width:0;fill:#ff8164"/><path d="M100.37 52.95a37.5 37.5 0 0 0-8.14-16.52q.35 1.22.62 2.46c4.05 18.85 1.77 36.93-25.28 51.49a30 30 0 0 1-10.49 2.94c-20.21.94-32.01-5.61-39.6-15.74 6.81 17.54 18.6 31.13 47.12 29.8a29 29 0 0 0 10.49-2.94c27.06-14.56 29.33-32.64 25.28-51.49" style="stroke-width:0;fill:#e07873"/><path d="M60.86 109.47c-31.27 0-41.59-18.92-47.52-37.64-2.88-9.1-1.72-18.84 3.28-27.44a38.4 38.4 0 0 1 25.03-18.28 36 36 0 0 1 8.27-.79 36 36 0 0 1 7.87-2.67c20.1-4.32 40.08 9.09 44.55 29.89 3.54 16.5 3.75 37.5-26.29 53.67-3.02 1.62-8 3.02-11.35 3.17q-1.97.09-3.83.09ZM49.23 29.31q-3.43 0-6.74.71A35 35 0 0 0 20.08 46.4c-4.42 7.61-5.46 16.21-2.92 24.22 5.99 18.92 15.85 36.24 47.35 34.76a27 27 0 0 0 9.64-2.7c27.54-14.82 27.73-33.24 24.28-49.31-4-18.64-21.86-30.67-39.8-26.82a32 32 0 0 0-7.39 2.57q-.45.22-.94.2l-1.05-.02Z" style="fill:#004241"/><path d="M79.28 50.83c-.84 0-1.61-.53-1.9-1.36-6.44-19.11-26.91-20.14-27.11-20.14a2 2 0 1 1 .16-4c.23 0 23.44 1.17 30.75 22.86a2 2 0 0 1-1.9 2.64" style="fill:#004241"/><path d="M49.2 28.53c-.66 0-1.3-.32-1.68-.91C40.57 16.9 43.8 4.53 43.94 4.01a2 2 0 0 1 2.45-1.41 2 2 0 0 1 1.41 2.45c-.03.11-2.88 11.21 3.07 20.4a2 2 0 0 1-1.68 3.09Z" style="fill:#004241"/><path d="M45.56 15.86s-11.1-14.65-35.5 11.47c0 0 23.05 3.63 35.49-11.47Z" style="fill:#aad681"/><path d="M16.33 29.73a45 45 0 0 1-6.58-.43 2 2 0 0 1-1.15-3.34C19.03 14.8 28.52 9.35 36.82 9.79c6.84.35 10.19 4.68 10.33 4.86a2 2 0 0 1-.05 2.48c-8.91 10.82-22.66 12.6-30.77 12.6m-1.86-4.06c6.62.21 19.74-.67 28.31-9.7a11 11 0 0 0-6.3-2.19c-4.42-.19-11.72 1.82-22.02 11.89Z" style="fill:#004241"/><path d="M47.09 14.24s.44-16.54 32.18-1.39c0 0-15.78 12.06-32.18 1.39" style="fill:#aad681"/><path d="M61.47 20.61A28 28 0 0 1 46 15.91a2 2 0 0 1-.91-1.73c0-.2.19-5.01 4.78-7.82C55.82 2.72 66 4.29 80.13 11.04a2 2 0 0 1 .36 3.4c-.12.09-8.26 6.17-19.02 6.17m-12.18-7.36c10.7 6.27 20.88 2.5 25.77-.13-14.34-6.25-20.55-4.87-23.04-3.38a6 6 0 0 0-2.73 3.51" style="fill:#004241"/><path d="M28.71 55.73a2 2 0 0 1-1.95-2.44c2.06-9.15 10.03-14.7 10.36-14.93a2 2 0 0 1 2.26 3.3c-.07.05-7.02 4.92-8.73 12.5a2 2 0 0 1-1.95 1.56Z" style="stroke-width:0;fill:#fff"/></svg>