<svg xmlns="http://www.w3.org/2000/svg" data-name="flatten icons" viewBox="0 0 112 112"><path d="M0 0h112v112H0z" style="fill:none;stroke-width:0"/><path d="M41.05 73.42s-18.94-3.67-22.32-8.87l4.41-2.74S5.62 54.57 4.26 47.16l4.28-.39s-7.36-8.98-6.47-19.46c0 0 19.32-1.31 22.32-1.2l-1.61-4.14s23.72-1.91 27.63 5.12l2.8-6.8s23.21 12.59 20.66 36.3-32.83 16.82-32.83 16.82Z" style="fill:#aad681"/><path d="M50.42 76.36c-5.21 0-9.26-.87-9.78-.98-3.37-.66-19.94-4.13-23.59-9.74a1.97 1.97 0 0 1 .62-2.78l1.23-.77C13.39 59.42 3.44 53.8 2.29 47.52a2 2 0 0 1 1.78-2.35l.87-.08C2.69 41.41-.56 34.69.08 27.14a2 2 0 0 1 1.86-1.83c.65-.04 13.32-.9 19.56-1.14l-.57-1.47a2 2 0 0 1 .17-1.79c.34-.54.9-.88 1.53-.93 3.63-.29 20.05-1.31 27.09 3.56l1.65-4a2 2 0 0 1 2.8-.99c.24.13 24.36 13.52 21.7 38.27-.7 6.53-3.43 11.54-8.11 14.88-5.22 3.72-11.9 4.67-17.34 4.67ZM21.94 64.91c4 2.77 13.52 5.39 19.49 6.55l.06.01c.15.03 15.08 3.3 23.95-3.04 3.7-2.65 5.87-6.7 6.45-12.04 1.95-18.14-12.43-29.57-17.72-33.13l-1.9 4.61a2 2 0 0 1-1.73 1.23 2 2 0 0 1-1.86-1.02c-2.06-3.7-13.9-4.68-23.03-4.27l.62 1.59a2 2 0 0 1-1.94 2.72c-2.14-.09-14.09.66-20.32 1.07.05 8.79 6.03 16.23 6.09 16.31a2 2 0 0 1-1.36 3.26l-1.55.14c2.88 4.18 11.28 8.81 16.73 11.06a2 2 0 0 1 .29 3.54l-2.26 1.4Z" style="fill:#004241"/><path d="M59.02 56.25a2 2 0 0 1-1.4-.57C44.46 42.82 21.21 39.82 20.98 39.79a2 2 0 0 1-1.74-2.23 2 2 0 0 1 2.23-1.74c1.01.12 24.81 3.18 38.95 17a2 2 0 0 1-1.4 3.43" style="fill:#6eb77b"/><path d="M40.13 53.22a2 2 0 0 1-1.05-3.7l6.69-4.13-1.65-8.44a2 2 0 0 1 1.58-2.35c1.08-.21 2.13.5 2.35 1.58l1.91 9.79a2 2 0 0 1-.91 2.09l-7.87 4.86q-.5.3-1.05.3" style="fill:#6eb77b"/><path d="M14.95 80.64c0 4.42 4.27 7.68 4.27 7.68" style="fill:#aad681"/><path d="M19.22 90.32q-.65 0-1.21-.41c-.21-.16-5.05-3.92-5.05-9.27 0-1.1.9-2 2-2s2 .9 2 2c0 3.34 3.45 6.07 3.48 6.09a2 2 0 0 1-1.21 3.59Z" style="fill:#004241"/><path d="M83.23 18.64a4.8 4.8 0 0 0-6.24.84c-5.47 6.16-17.24 20.28-17.75 28.49-.66 10.71-.75 31.19 12.86 34.45s26.86 4 31.55-6.2c4.69-10.21 3.87-21.25 1.8-33.67-1.57-9.43-15.57-19.57-22.22-23.91" style="stroke-width:0;fill:#ad866a"/><path d="M82.81 20.52a4.8 4.8 0 0 0-6.24.84l-.06.06c.89.85 1.9 1.55 3.01 1.85 1.73.48 3.67-.21 5.34-1.38q-1.11-.77-2.06-1.38Z" style="fill:#e8d2a3"/><path d="M87.41 86.6c-5.32 0-10.93-1.07-15.77-2.23-10.88-2.6-15.73-14.89-14.39-36.52.53-8.58 11.66-22.29 18.25-29.7a6.8 6.8 0 0 1 8.83-1.19c7.92 5.16 21.45 15.31 23.1 25.26 2.24 13.46 2.77 24.53-1.96 34.83-3.37 7.33-10.43 9.54-18.07 9.54ZM80.6 19.86c-.78 0-1.55.33-2.11.96C68.02 32.6 61.57 42.8 61.24 48.11c-1.2 19.4 2.62 30.3 11.33 32.38 16.55 3.96 25.85 2.34 29.26-5.09 4.3-9.38 3.77-19.77 1.65-32.5-1.46-8.75-15.41-18.7-21.34-22.56a3 3 0 0 0-1.54-.46Z" style="fill:#004241"/><path d="M73.06 73.48q-1.83.09-3.45.36c-4.84.78-6.39 5.41-2.52 7.6q2.12 1.22 5.05 1.73c10.66 1.78 21.12 2.41 27.43-1.08 3.55-1.96 2.9-6.01-1.1-7.23-6.87-2.1-18.28-1.73-25.41-1.37Z" style="fill:#e8d2a3"/><path d="M86.9 86.59a94 94 0 0 1-15.09-1.46 17 17 0 0 1-5.71-1.96c-2.34-1.32-3.53-3.6-3.11-5.94.49-2.73 2.96-4.83 6.3-5.37q1.76-.29 3.67-.38c7.86-.4 19.12-.68 26.1 1.45 2.72.83 4.56 2.82 4.81 5.2.24 2.28-1 4.41-3.32 5.7-3.34 1.85-7.8 2.76-13.64 2.76ZM73.16 75.47q-1.69.09-3.23.33c-1.86.3-2.85 1.29-3 2.13-.16.87.65 1.47 1.15 1.75q1.91 1.08 4.39 1.49c12.71 2.12 21.26 1.84 26.14-.86.88-.49 1.35-1.14 1.28-1.78-.08-.75-.84-1.44-2-1.79-6.37-1.95-17.17-1.66-24.73-1.28Zm-.1-2" style="fill:#004241"/><path d="M70.37 56.04a2 2 0 0 1-1.99-1.85c-.87-11.68 3.76-20.06 3.96-20.41a2 2 0 0 1 3.48 1.96c-.04.08-4.23 7.72-3.46 18.15a2 2 0 0 1-1.85 2.14zm27.57 9.2a2 2 0 0 1-1.96-2.4c1.4-6.96-.5-12.98-.52-13.04a2 2 0 0 1 3.8-1.24c.09.28 2.26 7.04.64 15.07a2 2 0 0 1-1.96 1.6ZM94.77 42.8a2 2 0 0 1-1.74-1.01l-1.02-1.78a2 2 0 1 1 3.48-1.98l1.02 1.78a2 2 0 0 1-1.74 2.99M82.45 66.5a2 2 0 0 1-1.98-1.75c-.69-5.36-.46-20.16-.45-20.79a2 2 0 0 1 2-1.97h.03c1.1.02 1.98.93 1.97 2.03 0 .15-.24 15.14.41 20.21a2 2 0 0 1-1.73 2.24l-.26.02Z" style="fill:#d1a788"/><path d="M18.69 54.1c-7.1 4.68-7.07 10.26-10.42 17.7s-2.64 18.26 2.64 20.15 13.33 3.41 18.9.78c0 0 16.01 1.34 21.44-5.87s-4.17-23.54-12.1-28.1-11.69-8.18-11.69-8.18l-8.76 3.53Z" style="fill:#e8d2a3"/><path d="M22.6 96.14a39 39 0 0 1-12.38-2.31c-2.02-.73-3.64-2.4-4.68-4.85-2.06-4.85-1.69-12.26.9-18.01.86-1.92 1.49-3.71 2.1-5.44 1.69-4.79 3.28-9.31 9.04-13.11q.16-.11.36-.19l8.77-3.53a2 2 0 0 1 2.13.42c.03.03 3.72 3.53 11.3 7.89 6.17 3.55 12.72 13.09 14.3 20.84.85 4.16.3 7.68-1.6 10.2-5.49 7.29-19.69 6.87-22.67 6.69-2.37 1.02-5 1.38-7.57 1.38Zm-2.98-40.26c-4.5 3.03-5.68 6.38-7.31 10.99a72 72 0 0 1-2.23 5.75c-2.1 4.66-2.47 11.02-.86 14.8.41.97 1.15 2.22 2.35 2.64 5.27 1.89 12.61 3.11 17.37.85q.49-.22 1.02-.19c4.15.34 15.78.1 19.67-5.08 1.5-1.99 1.3-4.9.87-6.99-1.36-6.67-7.15-15.17-12.38-18.17a76 76 0 0 1-11.09-7.6l-7.43 2.99Z" style="fill:#004241"/><path d="M16.54 72a2 2 0 0 1-2-2 6.8 6.8 0 0 1 3.68-6.27 2 2 0 0 1 2.64 1 2 2 0 0 1-.97 2.63c-.16.08-1.35.76-1.35 2.63a2 2 0 0 1-2 2Z" style="stroke-width:0;fill:#fff"/><path d="M29.56 82.64a2 2 0 0 1-1.23-3.58c1.84-1.43 1.35-6.36.82-8.52-.26-1.07.4-2.16 1.47-2.42s2.16.4 2.42 1.47c.23.94 2.1 9.24-2.25 12.63-.36.28-.8.42-1.23.42" style="fill:#d1a788"/><path d="M54.3 67.57s5.55 16.72 24.5 17.03 24.03-2.08 31.2-11.4c0 0-4.95-5.41-12.64-5.63 0 0-1.92-10.07-10.24-10 0 0-7.4 3.29-7.63 10 0 0-8.71-10.69-14.59-11.35 0 0-1.42 9.73 0 11.35 0 0-8.75-1.86-10.6 0" style="fill:#aad681"/><path d="M81.83 86.63q-1.47 0-3.07-.03c-20.14-.33-26.3-18.22-26.36-18.4a2 2 0 0 1 .48-2.04c1.73-1.74 5.91-1.6 9.42-1.09q-.22-3.35.62-9.14a2 2 0 0 1 2.2-1.7c4.57.51 10.1 5.68 13.32 9.12 2.23-5.05 7.58-7.48 7.86-7.61q.38-.17.8-.17h.1c6.93 0 10.48 5.94 11.74 10.11a21.4 21.4 0 0 1 12.53 6.17 2 2 0 0 1 .11 2.57c-7.41 9.64-13.29 12.21-29.75 12.21M56.97 68.77c1.98 4.1 8.05 13.61 21.86 13.84 17.44.29 22.38-1.73 28.44-9.17a17 17 0 0 0-9.97-3.86 2 2 0 0 1-1.91-1.62c-.06-.33-1.65-8.07-7.82-8.36-1.33.71-5.92 3.46-6.08 8.06a2 2 0 0 1-3.55 1.2c-2.67-3.28-7.65-8.29-11.35-10.03-.38 3.49-.43 6.72-.09 7.56a2 2 0 0 1-2.01 3.16 31 31 0 0 0-7.52-.76Zm9.55-2.36" style="fill:#004241"/><path d="M78.28 96.14a2 2 0 0 1-1.21-3.59c3.83-2.92 4.83-5.2 5-6.59a3 3 0 0 0-.52-2.27c-.74-.82-.66-2.07.16-2.81s2.1-.66 2.84.16c.19.21 1.8 2.09 1.52 5.19-.3 3.21-2.51 6.41-6.57 9.51-.36.28-.79.41-1.21.41Z" style="fill:#004241"/></svg>