<svg xmlns="http://www.w3.org/2000/svg" data-name="flatten icons" viewBox="0 0 112 112"><path d="M0 0h112v112H0z" style="fill:none;stroke-width:0"/><path d="M2.75 84.62s13.61 19.13 43.74-.42c0 0-11-20.38-43.74.42" style="fill:#aad681"/><path d="M21.59 94.94c-13.7 0-20.36-9.03-20.46-9.16a2 2 0 0 1 .56-2.84c13.08-8.32 24.46-11.3 33.81-8.86 8.99 2.34 12.61 8.89 12.76 9.17.49.92.2 2.06-.67 2.63-10.48 6.8-19.12 9.07-25.99 9.07ZM5.83 85.07c3.93 3.81 15.92 11.95 37.82-1.45a17.5 17.5 0 0 0-9.27-5.71c-7.76-1.98-17.36.43-28.55 7.15Zm-3.07-.45" style="fill:#004241"/><path d="M2 58.42s4.2 23.1 39.78 18.19c0 0-1.3-23.13-39.78-18.19" style="fill:#aad681"/><path d="M32.45 79.28C4.12 79.28.07 59 .03 58.78c-.1-.54.03-1.1.35-1.54s.82-.73 1.36-.8c15.37-1.97 26.94.16 34.37 6.33 7.14 5.94 7.64 13.41 7.66 13.72a2 2 0 0 1-1.72 2.09q-5.21.71-9.6.7M4.59 60.13c1.94 5.12 9.34 17.58 34.85 14.75a17.5 17.5 0 0 0-5.97-9.1c-6.19-5.09-15.9-6.98-28.89-5.65ZM2 58.42" style="fill:#004241"/><path d="M14.75 36.73S8.98 59.49 43.38 69.79c0 0 8.42-21.58-28.63-33.06" style="fill:#aad681"/><path d="M43.38 71.79q-.28 0-.57-.08c-35.83-10.74-30.06-35.23-30-35.48a2 2 0 0 1 2.53-1.42c14.81 4.59 24.44 11.33 28.64 20.04 4.03 8.37 1.38 15.37 1.27 15.66a2 2 0 0 1-1.86 1.27ZM16.39 39.36c-.36 5.46 1.19 19.87 25.58 27.89.39-2.21.57-6.21-1.65-10.76-3.52-7.2-11.56-12.95-23.93-17.13" style="fill:#004241"/><path d="M108.46 61.21c-4.4 8.51-10.65 17.12-18.35 23.34-1.39 1.12-2.33 2.41-3.81 3.36-.59.38-1.67.49-2.27.84-7.28 4.2-15.58 6.15-24.65 4.22-.81-.17-1.38-.86-2.21-1.1s-2.21.45-3.08.13c-1.69-.62-3.16-1.85-4.9-2.75-12.43-6.42-18.09-16.25-19.54-27-.12-.91.52-2.06.46-2.98-.12-1.74-.87-3.27-.8-5.04.43-10.23 3.93-20.73 8.49-29.56" style="stroke-width:0;fill:#c49469"/><path d="M87.59 63.5c-1.93 2.84.75.72-.25 2.97-.33.75.56 2.76.13 3.48-.82 1.4 2.59 2.46.89 3.84-1.44 1.16-.45 2.74-1.99 3.73-.61.39-1.74.51-2.36.87a40 40 0 0 1-8.21 3.62c-1.05.32-.9 1.72-1.98 1.94-.58.12-2.37-.89-2.96-.8-3.98.62-8.15.55-12.49-.37-.85-.18-1.44-.9-2.3-1.14-.89-.25-2.3.46-3.2.14-1.76-.64-3.29-1.93-5.1-2.86-3.7-1.91-7.34-2.4-9.95-4.84 0 0-.44-2.63-.89-3.1a34 34 0 0 1-6.96-10.63c-.16.65-.39 1.32-.31 1.9 1.45 10.75 7.11 20.58 19.54 27 1.74.9 3.21 2.14 4.9 2.75.87.31 2.23-.38 3.08-.13.83.24 1.4.93 2.21 1.1 9.07 1.93 17.37-.02 24.65-4.22.6-.35 1.68-.46 2.27-.84 1.48-.95 2.43-2.24 3.81-3.36 7.7-6.22 13.95-14.83 18.35-23.34z" style="stroke-width:0;fill:#af7152"/><path d="M66.39 95.72q-3.7 0-7.44-.79a5 5 0 0 1-1.81-.83l-.47-.28c-.15.01-.42.06-.62.1-.76.14-1.7.32-2.66-.03a17 17 0 0 1-3.3-1.76q-.93-.6-1.84-1.09c-11.96-6.18-18.89-15.77-20.6-28.51-.12-.87.1-1.68.27-2.33.07-.26.17-.65.17-.78-.04-.59-.19-1.21-.35-1.86-.24-.99-.51-2.12-.46-3.39.4-9.5 3.49-20.29 8.71-30.39a2 2 0 0 1 3.56 1.83c-4.96 9.59-7.9 19.79-8.27 28.72-.03.72.15 1.45.35 2.29.18.75.38 1.6.45 2.52.05.77-.13 1.47-.3 2.08-.07.26-.17.65-.17.79 1.53 11.34 7.75 19.92 18.47 25.47q1.14.61 2.14 1.27a14 14 0 0 0 2.42 1.34c.15 0 .46-.06.66-.1a5 5 0 0 1 2.38-.04c.68.19 1.19.52 1.6.79.16.1.4.26.48.28 7.91 1.68 15.72.33 23.23-4a6 6 0 0 1 1.54-.58c.22-.06.56-.16.67-.22.68-.43 1.25-1 1.91-1.66q.76-.77 1.7-1.56c6.75-5.44 13.08-13.51 17.83-22.71a2 2 0 1 1 3.56 1.84c-3.54 6.85-9.69 16.57-18.87 23.98q-.72.6-1.41 1.3c-.75.74-1.54 1.51-2.58 2.19-.56.36-1.18.53-1.72.69-.21.06-.54.15-.64.21-6.03 3.48-12.27 5.24-18.62 5.24Z" style="fill:#004241"/><path d="M109.23 59.7c-2.61 5.05-11.4 6.13-22.52 3.6-1.89-.43-3.35-1.94-5.36-2.57-2.3-.73-5.17-.63-7.56-1.63a100 100 0 0 1-14.24-7.36c-.93-.58-1.58-1.65-2.46-2.25-1.21-.82-2.63-1.17-3.74-2.01a61 61 0 0 1-10.26-9.59c-.87-1.06-1.39-2.59-2.05-3.62-2.87-4.43-4.05-8.03-2.46-11.1 1.04-2.02 3.08-3.41 5.85-4.18.92-.26 2.4 1.02 3.48.9 1.44-.16 2.54-1.68 4.22-1.61q3.44.16 7.4.94c1.13.23 2.54 0 3.73.32a89 89 0 0 1 18.29 7.13c2.44 1.26 4.51 3.08 6.71 4.48a77 77 0 0 1 13.69 10.83c1.25 1.27 1.63 2.77 2.62 4.02.54.69 1.78 1.14 2.23 1.82 3.06 4.55 4.09 8.74 2.46 11.89Z" style="stroke-width:0;fill:#fff"/><path d="M97.27 66.64q-4.88 0-11-1.38c-1.31-.3-2.4-.95-3.36-1.53-.74-.44-1.43-.86-2.16-1.09-.85-.27-1.87-.42-2.95-.57-1.57-.23-3.2-.46-4.78-1.12a99 99 0 0 1-14.53-7.51c-.7-.44-1.23-1-1.7-1.5-.3-.32-.59-.63-.82-.79q-.66-.42-1.51-.79c-.73-.33-1.55-.71-2.32-1.29a62 62 0 0 1-10.6-9.92 13 13 0 0 1-1.53-2.57c-.23-.47-.45-.91-.65-1.23-2.42-3.73-4.89-8.59-2.56-13.1q1.95-3.74 7.09-5.19c1.16-.32 2.22.14 3.07.52.25.11.6.27.78.31.23-.06.61-.28.95-.48.84-.5 2-1.19 3.52-1.12q3.6.15 7.7.98c.34.07.83.08 1.33.09.77.01 1.63.03 2.5.25a92 92 0 0 1 18.71 7.29 35 35 0 0 1 4.46 2.89q1.23.91 2.41 1.67a80 80 0 0 1 14.04 11.11c.92.93 1.44 1.92 1.91 2.78.29.54.54 1.01.85 1.4.08.09.41.31.63.45.58.38 1.23.8 1.69 1.49 4.56 6.79 3.92 11.32 2.58 13.92-2.05 3.97-6.87 6.02-13.74 6.02ZM44.72 20.99q-3.28.98-4.38 3.1c-1.08 2.09-.35 4.9 2.37 9.09q.48.78.88 1.63c.33.67.67 1.35 1.04 1.81a59 59 0 0 0 9.92 9.27c.41.31.98.57 1.57.84.65.29 1.38.63 2.09 1.11.61.41 1.08.92 1.5 1.37.33.35.64.68.9.84a96 96 0 0 0 6.83 3.89 95 95 0 0 0 7.12 3.32c1.11.46 2.42.65 3.81.85 1.19.17 2.42.35 3.59.72s2.15.96 3.01 1.47c.81.48 1.51.9 2.19 1.06 10.31 2.35 18.27 1.34 20.3-2.57 1.2-2.32.37-5.82-2.34-9.85l-.56-.37a6 6 0 0 1-1.59-1.33c-.52-.67-.9-1.37-1.23-1.98-.39-.72-.72-1.35-1.24-1.87a76 76 0 0 0-13.33-10.54c-.9-.57-1.77-1.2-2.61-1.81-1.27-.92-2.58-1.87-3.95-2.58a87 87 0 0 0-17.87-6.97 7 7 0 0 0-1.57-.13c-.66-.01-1.35-.02-2.05-.16a47 47 0 0 0-7.09-.91c-.34 0-.79.25-1.31.56-.68.41-1.53.91-2.6 1.03-1.06.12-2.01-.3-2.78-.64-.19-.08-.45-.2-.62-.26Zm64.52 38.72" style="fill:#004241"/><path d="M101.43 55.06c-1.38 2.68-6.15 2.64-12.93 1.16-2.39-.52-4.74-1.76-7.48-2.74-1.86-.67-4.29-.47-6.25-1.34a105 105 0 0 1-5.14-2.46c-3.52-1.82-6.53-4.26-9.42-6.25-2.28-1.57-4.59-2.68-6.37-4.24-5.6-4.91-8.44-9.54-6.99-12.34q.48-.9 1.46-1.47c1.15-.66 3.03-.26 5.06-.27 1.09 0 2.05-.66 3.34-.49q2.23.3 4.79.93c.86.21 2.24-.51 3.14-.24 4.46 1.33 8.93 4.31 14 6.93a80 80 0 0 1 15.81 10.5c.88.78 1.44 2.03 2.18 2.78.82.84 1.8 1.18 2.43 1.97 2.38 3.03 3.32 5.7 2.36 7.56Z" style="stroke-width:0;fill:#c9d3d3"/><path d="M99.08 47.49c-.63-.8-1.61-1.14-2.43-1.97-.74-.75-1.3-2.01-2.18-2.78a80 80 0 0 0-15.81-10.5c-5.07-2.62-9.54-5.6-14-6.93-.9-.27-2.28.46-3.14.24q-2.55-.63-4.79-.93c-1.29-.17-2.25.48-3.34.49-2.03.01-3.91-.39-5.06.27q-.87.51-1.34 1.28c.84.02 1.76.11 2.73.1 1.09 0 2.05-.66 3.34-.49q2.23.3 4.79.93c.86.21 2.24-.51 3.14-.24 4.46 1.33 8.94 4.31 14 6.93a80 80 0 0 1 15.81 10.5c.88.77 1.44 2.03 2.18 2.78.82.84 1.8 1.18 2.43 1.97 2.38 3.03 3.32 5.7 2.36 7.56q-.12.23-.28.44c1.94-.2 3.31-.85 3.95-2.09.96-1.86.03-4.54-2.36-7.56" style="stroke-width:0;fill:#d3dddd"/><path d="M42.78 52.49s-.7 3.7-1.99 3.85-2.43.77-2.46 2.79" style="fill:#b58055"/><path d="M38.34 61.13h-.03a2 2 0 0 1-1.97-2.03c.03-2.55 1.39-4.23 3.74-4.68.25-.46.58-1.46.74-2.3a2 2 0 0 1 3.93.74c-.44 2.35-1.45 5.21-3.73 5.46-.57.06-.67.08-.68.83a2 2 0 0 1-2 1.97Zm2.23-6.78" style="fill:#004241"/><path d="M63.41 78.58s.88.25-.83 1.6-2.45 2.39-2.45 2.39" style="fill:#b58055"/><path d="M60.12 84.56q-.62 0-1.17-.38a2 2 0 0 1-.46-2.77c.09-.13.96-1.32 2.84-2.8l.07-.05q0-.27.08-.53a2 2 0 0 1 2.47-1.37c.83.24 1.47.93 1.63 1.78.33 1.66-1.2 2.87-1.78 3.32-1.42 1.12-2.06 1.98-2.07 1.99-.39.53-1 .82-1.62.82Zm1.7-6.39" style="fill:#004241"/><path d="M86.79 67.52s-.52 2.57.6 3.56-.2 3.14-.2 3.14" style="fill:#b58055"/><path d="M87.18 76.22q-.55 0-1.04-.29a2 2 0 0 1-.66-2.75c.15-.25.29-.61.34-.84-1.59-1.71-1.11-4.62-.99-5.21a2 2 0 0 1 2.36-1.57 2 2 0 0 1 1.57 2.35c-.12.61-.11 1.44.02 1.72 1.68 1.55 1.12 4 .12 5.63a2 2 0 0 1-1.71.96Zm1.52-6.64" style="fill:#004241"/><path d="M63.4 55.43s.14 1.7-1.33 2.56-1.82 3.52-1.82 3.52" style="fill:#b58055"/><path d="m60.25 63.52-.28-.02a2 2 0 0 1-1.71-2.24c.08-.6.6-3.68 2.78-4.98.34-.2.35-.64.35-.73a2 2 0 0 1 1.83-2.13c1.1-.07 2.07.75 2.16 1.86a4.8 4.8 0 0 1-2.3 4.45c-.31.18-.74 1.21-.86 2.08a2 2 0 0 1-1.98 1.72Z" style="fill:#004241"/><path d="M43.02 76.78s-1.23 1.6-.62 3.94-.28 3.98-.28 3.98" style="fill:#b58055"/><path d="M42.12 86.7a2 2 0 0 1-1.75-2.97s.49-1.02.1-2.51a6.7 6.7 0 0 1 .97-5.67 2 2 0 0 1 2.81-.36c.86.67 1.03 1.9.39 2.78-.05.08-.63.96-.29 2.25a7.7 7.7 0 0 1-.46 5.44 2 2 0 0 1-1.76 1.04Z" style="fill:#004241"/></svg>