<svg xmlns="http://www.w3.org/2000/svg" data-name="flatten icons" viewBox="0 0 112 112"><path d="M0 0h112v112H0z" style="fill:none;stroke-width:0"/><path d="m94.95 15.92-.03-.23a1.59 1.59 0 0 0-2.65-1c-2.19 2-5.09 3.09-8.05 2.86a27.95 27.95 0 0 0-28.9 19.67c-4.08 13.23-2.85 30.35 13.04 38.38 20.4 10.31 34.05-5.18 39.79-20.22 4.5-11.77.5-24.7-8.97-32.04a11 11 0 0 1-4.23-7.42" style="fill:#ad866a"/><path d="M81.12 80.95q-6.61 0-13.67-3.56c-7.73-3.91-12.93-10.31-15.04-18.53-1.72-6.68-1.36-14.58 1-22.23a29.8 29.8 0 0 1 30.97-21.08 8.8 8.8 0 0 0 6.54-2.34c1-.92 2.42-1.19 3.69-.71s2.16 1.62 2.3 2.97l.03.23a9 9 0 0 0 3.47 6.06 29.8 29.8 0 0 1 9.61 34.34c-4.38 11.48-11.77 19.95-20.26 23.23a24 24 0 0 1-8.64 1.62m.86-61.49a25.8 25.8 0 0 0-24.75 18.35c-3.86 12.51-2.73 28.54 12.03 36 6.81 3.44 13.22 4.04 19.06 1.78 10.57-4.09 16.09-16 17.97-20.93a25.8 25.8 0 0 0-8.33-29.75c-2.69-2.09-4.43-5-4.92-8.24a12.8 12.8 0 0 1-8.97 2.87q-1.05-.09-2.09-.08" style="fill:#004241"/><path d="M79.89 71.31c-4.46 2.03-9.16 2.95-13.13 3.43" style="fill:#ad866a"/><path d="M66.76 76.74a2 2 0 0 1-1.98-1.76 2 2 0 0 1 1.75-2.23c4.92-.6 9.03-1.66 12.54-3.26a2 2 0 0 1 1.66 3.64c-3.89 1.77-8.38 2.95-13.72 3.59l-.24.01Z" style="fill:#004241"/><path d="M92.27 14.7s-1.22 7.53 1.23 9.8c1.48 1.37 3.85 7.78 3.69 16.26-.02 1.21-.76 2.46-.9 3.75-.07.69.5 1.39.39 2.1q-.46 3.04-1.45 6.24c-.99 3.2-2.19 3.63-3.27 5.8-.49.98-.37 2.57-.94 3.43a25 25 0 0 1-6.18 6.38" style="fill:#ad866a"/><path d="M84.85 70.46a2 2 0 0 1-1.17-3.62 23 23 0 0 0 5.68-5.87c.07-.14.16-.66.21-1a8 8 0 0 1 .6-2.21c.5-1 1.08-1.86 1.59-2.63a11 11 0 0 0 1.56-2.87q.89-2.86 1.36-5.83l-.09-.26c-.15-.44-.38-1.1-.29-1.87.09-.81.33-1.54.54-2.19.18-.54.34-1.04.35-1.39.15-8.11-2.15-13.92-3.05-14.76-3.08-2.86-2.08-10.15-1.84-11.59.18-1.09 1.2-1.83 2.29-1.65s1.83 1.2 1.66 2.29c-.49 3.06-.36 7.11.62 8.02 2.2 2.05 4.48 9.42 4.33 17.76-.02.95-.3 1.8-.55 2.56q-.24.7-.35 1.26l.09.25c.16.48.41 1.2.28 2.05a44 44 0 0 1-1.52 6.53c-.48 1.53-1.28 2.73-2.06 3.9-.49.73-.95 1.42-1.34 2.2-.09.18-.17.69-.23 1.06a6 6 0 0 1-.83 2.59 27 27 0 0 1-6.67 6.89q-.54.38-1.17.38" style="fill:#004241"/><path d="M61.95 57.94c3.59-1.91 5.86-3.95 7.94-4.44s2.15-3.51 3.44-5.5q.36-.55.82-.96a8.4 8.4 0 0 0 2.92-6.24v-.27" style="fill:#ad866a"/><path d="M61.95 59.94c-.72 0-1.41-.39-1.77-1.06a2 2 0 0 1 .83-2.7c1.39-.74 2.6-1.52 3.67-2.21 1.71-1.1 3.18-2.05 4.75-2.42.3-.07.72-1.22.97-1.91.31-.86.67-1.84 1.25-2.73q.48-.75 1.16-1.36a6.4 6.4 0 0 0 2.26-4.76v-.27c0-1.1.9-2 2-2s2 .9 2 2v.27c0 2.86-1.31 5.68-3.58 7.73a3 3 0 0 0-.48.56c-.33.51-.58 1.2-.85 1.92-.6 1.63-1.41 3.86-3.81 4.43-.9.21-2.1.99-3.5 1.89a53 53 0 0 1-3.96 2.38q-.45.23-.94.23Z" style="fill:#004241"/><path d="M68.38 30.94c-1.32 1.46-.19 4.69 1.89 4.02s3.06-3.31 3.06-3.31" style="fill:#ad866a"/><path d="M69.73 37.05c-1.24 0-2.4-.64-3.14-1.79a4.8 4.8 0 0 1 .3-5.66c.74-.82 2.01-.88 2.83-.14s.88 2 .14 2.82c-.09.12-.06.46.02.68.75-.4 1.37-1.5 1.58-2.02a2 2 0 0 1 2.58-1.16 2 2 0 0 1 1.17 2.56c-.14.37-1.4 3.59-4.33 4.52q-.57.18-1.15.18Z" style="fill:#004241"/><path d="M91.03 34.11s-3.56 2.09-3.56 4.26-.19 4.63-.76 6.14-1.86 3.5-1.86 3.5" style="fill:#ad866a"/><path d="M84.85 50q-.57 0-1.09-.33a2 2 0 0 1-.58-2.77c.33-.5 1.27-2.04 1.67-3.11.39-1.05.63-3.08.63-5.44 0-3.16 3.78-5.54 4.54-5.98a2 2 0 0 1 2.03 3.45c-1.38.82-2.57 2.08-2.57 2.53 0 2.05-.15 4.89-.88 6.84-.63 1.67-1.92 3.67-2.06 3.89-.38.59-1.02.91-1.68.91Z" style="fill:#004241"/><path d="m77.64 60.96-.57.56" style="fill:#ad866a"/><path d="M77.07 63.52a2 2 0 0 1-1.42-3.42l.56-.56a2 2 0 0 1 2.83 2.83l-.56.56c-.39.39-.9.58-1.41.58Z" style="fill:#004241"/><path d="M104.84 29.26s.92 9.67 0 11.8-1.11 5.31-1.11 5.31" style="fill:#ad866a"/><path d="M103.73 48.37h-.12a2 2 0 0 1-1.88-2.11c.02-.36.24-3.61 1.27-5.99.42-1.06.26-6.45-.16-10.81a2 2 0 1 1 3.98-.38c.29 3.06.86 10.44-.16 12.78-.64 1.47-.9 3.84-.95 4.64a2 2 0 0 1-1.99 1.88Z" style="fill:#004241"/><path d="m14.6 28.18-.24-.13a1.87 1.87 0 0 0-2.72 1.94c.52 3.46-.33 7.02-2.5 9.76a33 33 0 0 0 .22 41.23c10.25 12.7 27.81 22.77 46.13 12.51 23.52-13.17 17.35-36.72 6.42-52.25a33 33 0 0 0-37.26-12.32c-3.33 1.1-6.94.88-10.04-.74Z" style="stroke-width:0;fill:#d69f72"/><path d="M39.93 99.71c-3.73 0-7.49-.66-11.2-1.97-7.61-2.7-15.04-8.2-20.93-15.5a34.8 34.8 0 0 1-.23-43.73 10.7 10.7 0 0 0 2.09-8.22 3.86 3.86 0 0 1 5.62-4.01l.24.12a10.8 10.8 0 0 0 8.49.61 34.8 34.8 0 0 1 39.52 13.07c8.29 11.77 11.69 24.46 9.34 34.84-1.92 8.45-7.44 15.28-16.41 20.31a33.6 33.6 0 0 1-16.53 4.47ZM13.65 29.94c.54 3.99-.53 8.01-2.95 11.05a30.8 30.8 0 0 0 .21 38.73c9.79 12.13 26.39 21.66 43.6 12.02 7.94-4.45 12.81-10.4 14.46-17.7 2.99-13.17-5.09-26.52-8.71-31.65a30.8 30.8 0 0 0-35-11.57c-3.93 1.3-8.05.99-11.6-.87h-.02Z" style="fill:#004241"/><path d="M24.15 50.13s5.53 7.63 6.6 9.37c3.26 5.3 2.02 7.72 7.75 12.19s10.76 11.8 9.31 13.67-8.51 6.57-13.31 1.45c0 0-5.75 1.71-10.04-2.7s-3.41-8.22-2.45-9.11c0 0-2.95 1.18-6.29-.48s-6.09-8.36-3.04-11.08c0 0 1.63-1.74 3.75-2.22 0 0 4.09-3.41-1.14-9.41-2.75-3.15 2.99-6.03 8.87-1.68Z" style="fill:#e8d2a3"/><path d="M39.73 91.12a9 9 0 0 1-5.85-2.14c-2.2.34-6.99.5-10.86-3.47-3.33-3.42-3.83-6.51-3.81-8.11a10.4 10.4 0 0 1-4.38-1.08c-2.65-1.31-4.92-4.79-5.39-8.28-.34-2.49.32-4.63 1.84-6.03.37-.38 1.94-1.89 4.09-2.57.57-.72 1.51-2.75-1.6-6.31-1.55-1.77-1.62-3.93-.17-5.49 2.1-2.28 7.07-2.57 11.74.89q.24.18.43.43c.23.31 5.59 7.71 6.68 9.49a29 29 0 0 1 2.44 5.09c.94 2.42 1.57 4.03 4.83 6.57 5.02 3.91 12.54 12.76 9.66 16.47-1.33 1.72-5.17 4.34-9.19 4.53zm-5.24-6.31c.55 0 1.08.22 1.47.63a5 5 0 0 0 4.05 1.67c2.64-.12 5.19-1.9 6.05-2.79-.15-1.65-3.71-7.11-8.79-11.06-4.13-3.22-5.09-5.67-6.1-8.27a25 25 0 0 0-2.12-4.44c-.81-1.32-4.67-6.7-6.33-8.98-2.59-1.82-4.61-1.69-5.19-1.6-.48.07-.77.22-.91.31q.04.08.17.22c2.28 2.61 3.33 5.2 3.13 7.69a6.8 6.8 0 0 1-2.22 4.57 2 2 0 0 1-.84.41 6.4 6.4 0 0 0-2.87 1.77c-.74.66-.69 1.89-.6 2.56.29 2.12 1.75 4.51 3.19 5.22a6.2 6.2 0 0 0 4.69.4 2 2 0 0 1 2.08 3.33c-.19.29-.78 2.86 2.52 6.24 3.37 3.45 7.86 2.22 8.05 2.17q.27-.08.55-.08Z" style="fill:#004241"/><path d="M29.92 46.06s1.31 6.09 6.6 9.37 8.62 3.49 10.89 10.38 5.47 15.12 7.72 14.38 9.05-5.8 5.85-12.04c0 0 3.55-4.83.84-10.36s-6.59-5.98-7.75-5.37c0 0 2.1-2.38 1.67-6.09s-5.82-8.55-9.41-6.59c0 0-2.19.95-3.36 2.78 0 0-.49-3.64-2.17-5.28-.84-.82-1.68-.78-2.73-.43a14.6 14.6 0 0 1-7.94.44c-3.21-.77-1.96 3.04-.22 8.81Z" style="fill:#e8d2a3"/><path d="M54.71 82.27c-2.48 0-5.06-3.31-9.2-15.83-1.53-4.64-3.38-5.63-6.75-7.44-.98-.53-2.09-1.12-3.29-1.87-5.64-3.5-7.27-9.68-7.48-10.55l-.14-.47c-1.55-5.12-2.49-8.21-.78-10.01.58-.61 1.66-1.25 3.54-.8 2.12.51 4.49.37 6.85-.4.78-.26 2.86-.94 4.75.9.82.8 1.41 1.88 1.83 2.94.65-.43 1.19-.7 1.42-.8 1.83-.96 4.06-.86 6.3.29 3.12 1.62 5.64 4.92 5.98 7.86.2 1.76-.06 3.28-.46 4.49 1.51.52 4.26 2.03 6.35 6.31 2.43 4.98.67 9.44-.39 11.39a9 9 0 0 1-.12 6.67c-1.53 3.72-5.3 6.46-7.36 7.13q-.52.17-1.04.18ZM31.88 45.63c.01.05 1.23 5.32 5.7 8.1 1.1.68 2.1 1.22 3.08 1.74 3.56 1.91 6.63 3.56 8.66 9.71 3.18 9.64 5 12.24 5.64 12.91 1.21-.61 3.51-2.36 4.46-4.66a5 5 0 0 0-.21-4.38 2 2 0 0 1 .17-2.1c.11-.15 2.78-3.97.66-8.3-2.08-4.25-4.69-4.55-5.12-4.44-.85.45-1.86.2-2.46-.56a2.04 2.04 0 0 1 .12-2.58 6.2 6.2 0 0 0 1.18-4.53c-.19-1.6-1.94-3.78-3.84-4.77-.61-.31-1.75-.77-2.62-.3l-.17.08c-.45.2-1.79.96-2.46 2.02a2 2 0 0 1-2.12.88A2 2 0 0 1 41 42.76c-.13-.97-.7-3.25-1.58-4.12l-.13-.11s-.13 0-.58.14a17 17 0 0 1-8.51.6c.18 1.3.89 3.66 1.49 5.64l.16.53.04.15Z" style="fill:#004241"/><path d="M47.13 50.33s5.75-1.58 7.19 5.75" style="fill:#e8d2a3"/><path d="M54.32 58.09a2 2 0 0 1-1.96-1.62q-.56-2.83-2.1-3.79c-1.21-.75-2.59-.42-2.6-.42a2 2 0 0 1-1.06-3.86 7.7 7.7 0 0 1 5.77.87q3.02 1.88 3.92 6.42a2 2 0 0 1-1.97 2.39Z" style="fill:#004241"/><path d="M22.82 66.59s4.28 3.3-.81 8.41" style="fill:#e8d2a3"/><path d="M22.01 77a2 2 0 0 1-1.41-3.41c1.3-1.3 1.96-2.55 1.91-3.59a2.7 2.7 0 0 0-.93-1.84c-.84-.69-.98-1.95-.3-2.8s1.91-1.02 2.77-.35a6.8 6.8 0 0 1 2.45 4.69q.22 3.4-3.06 6.71a2 2 0 0 1-1.42.59Z" style="fill:#004241"/><path d="M54.33 66.01s4.96-.62 6.65 2.14" style="fill:#e8d2a3"/><path d="M60.98 70.15c-.67 0-1.33-.34-1.71-.95-.76-1.24-3.5-1.34-4.71-1.2-1.1.13-2.09-.65-2.22-1.75s.64-2.09 1.74-2.22c.64-.08 6.3-.67 8.6 3.07a2 2 0 0 1-.66 2.75q-.5.3-1.05.3Z" style="fill:#004241"/><path d="M32.89 80.24s-.52 3.76 1.61 6.57" style="fill:#e8d2a3"/><path d="M34.5 88.81c-.6 0-1.2-.27-1.59-.79-2.61-3.42-2.02-7.87-2-8.05a2 2 0 0 1 2.26-1.71 2 2 0 0 1 1.71 2.25c0 .08-.35 3.02 1.22 5.09a2 2 0 0 1-1.59 3.21Z" style="fill:#004241"/></svg>