<svg xmlns="http://www.w3.org/2000/svg" data-name="flatten icons" viewBox="0 0 112 112"><path d="M0 0h112v112H0z" style="fill:none;stroke-width:0"/><path d="M47.82 22.51s-3.85-5.68-4.45-12.35-9.4-4.62-16.92-1.75c-7.51 2.87-14.04.67-14.04.67s4.9 8.48 12.88 5.87a8.9 8.9 0 0 1 11.21 4.33" style="fill:#e2bb88"/><path d="M47.82 24.51c-.64 0-1.27-.31-1.66-.88-.17-.25-4.15-6.19-4.79-13.29-.12-1.34-.66-1.82-1.05-2.07-1.12-.7-4.32-1.37-13.16 2.01a25 25 0 0 1-9.49 1.6 7.6 7.6 0 0 0 6.99 1.17 10.8 10.8 0 0 1 13.64 5.38 2 2 0 0 1-3.63 1.69 6.83 6.83 0 0 0-8.77-3.27c-7.54 2.47-13.26-3.35-15.23-6.77a2 2 0 0 1 .18-2.27c.53-.64 1.4-.89 2.19-.63.05.02 5.98 1.92 12.69-.64 8.2-3.13 13.51-3.66 16.7-1.66 1.19.74 2.66 2.23 2.92 5.1.55 6.05 4.08 11.36 4.12 11.41a2 2 0 0 1-1.66 3.12Z" style="fill:#004241"/><path d="M99.69 46.41c8.39 18.92-1.02 41.45-21.02 50.32s-43.01.71-51.4-18.21c-6.72-15.15-2.02-32.62 10.38-43.53 9.82-8.64 1.33-11.54-3.51-18.77 2.3 2.49 10.03 4.49 13.67 6.29 6.34 3.13 9.76 2.72 12.27 2.41 16.54-2.04 32.83 6.22 39.6 21.49Z" style="stroke-width:0;fill:#eaca96"/><path d="M73.48 25.51a36 36 0 0 1 9.63 12.82c8.39 18.92-1.02 41.45-21.02 50.32a41 41 0 0 1-25.19 2.68c10.95 9.25 27.16 11.87 41.77 5.39 20-8.87 29.41-31.4 21.02-50.32-4.91-11.07-14.83-18.45-26.21-20.9Z" style="stroke-width:0;fill:#d1a180"/><path d="M61.94 102.3c-15.53 0-30.09-8.51-36.5-22.97-6.92-15.6-2.54-34.03 10.89-45.84q3.72-3.28 3.85-5.5c.09-1.75-1.54-3.5-3.61-5.73a41 41 0 0 1-4.09-4.93 2 2 0 0 1 3.13-2.47c1.18 1.28 5 2.69 8.07 3.83 1.89.7 3.67 1.36 5.02 2.02 5.82 2.87 8.77 2.51 11.14 2.22 17.94-2.21 34.68 6.9 41.67 22.67 8.82 19.9-1.06 43.66-22.03 52.96a43 43 0 0 1-17.54 3.74m-20-79.99c1.38 1.77 2.35 3.63 2.24 5.88-.13 2.66-1.79 5.3-5.2 8.3-12.11 10.66-16.08 27.22-9.87 41.22 7.93 17.89 29.8 25.6 48.76 17.2s27.93-29.8 20-47.68C91.6 33.09 76.52 24.92 60.34 26.91c-2.59.32-6.5.8-13.4-2.6a56 56 0 0 0-4.63-1.86l-.36-.13Z" style="fill:#004241"/><path d="M65.81 102.13q-.41 0-.82-.18C39.74 90.6 36.42 67.64 36.29 66.67a2 2 0 0 1 3.97-.53c.04.26 3.24 21.76 26.38 32.16a2 2 0 0 1-.83 3.82ZM93.04 88.2q-.32 0-.64-.11a2 2 0 0 1-1.25-2.54c3.63-10.7 3.19-18.77 2.18-23.65-1.09-5.28-3.06-8.08-3.08-8.11a2 2 0 0 1 .46-2.79 2 2 0 0 1 2.78.44c.38.51 9.1 12.87 1.45 35.4a2 2 0 0 1-1.89 1.36Zm-11.56 7.87q-.33 0-.67-.12a2 2 0 0 1-1.22-2.55c5.78-16.32-10.9-34.55-11.07-34.73a2 2 0 0 1 2.93-2.73c.19.2 4.66 5.05 8.4 12.18 5.05 9.64 6.26 18.84 3.51 26.61a2 2 0 0 1-1.89 1.33Z" style="fill:#004241"/><path d="M61.47 48.32s3.23 2.58 4.02 3.99" style="fill:#e2bb88"/><path d="M65.49 54.32a2 2 0 0 1-1.75-1.03c-.35-.64-2.1-2.27-3.52-3.4a2 2 0 0 1-.31-2.81 2 2 0 0 1 2.81-.31c.83.66 3.61 2.95 4.51 4.58a2 2 0 0 1-1.74 2.97" style="fill:#004241"/><path d="M77.05 97.45s-2.16 3.45-.76 5.88" style="fill:#e2bb88"/><path d="M76.29 105.33c-.69 0-1.37-.36-1.74-1-1.94-3.37.51-7.48.8-7.94a2 2 0 0 1 3.4 2.12c-.49.81-1.32 2.8-.73 3.83a2 2 0 0 1-1.74 3Z" style="fill:#004241"/><path d="M81.07 95.67s1.91 5.75 5.56 6.38 4.18 4.24 4.18 4.24" style="fill:#e2bb88"/><path d="M90.81 108.29a2 2 0 0 1-1.98-1.71c-.04-.2-.44-2.2-2.55-2.56-4.69-.81-6.88-7.02-7.11-7.72a2 2 0 0 1 1.27-2.53 2 2 0 0 1 2.53 1.27c.51 1.51 2.15 4.73 4 5.04a7.1 7.1 0 0 1 5.82 5.91 2 2 0 0 1-1.68 2.27l-.3.02Z" style="fill:#004241"/><path d="M84.48 93.96s4.15.31 7.39 2.56" style="fill:#e2bb88"/><path d="M91.87 98.52q-.6 0-1.14-.36a15 15 0 0 0-6.41-2.21c-1.1-.09-1.92-1.05-1.84-2.15s1.04-1.93 2.14-1.84c.19.01 4.74.38 8.38 2.91a2 2 0 0 1-1.15 3.64Zm-72.9-73.88c-6.84 0-10.88-3.55-11.07-3.72a2 2 0 0 1 2.67-2.98c.18.16 3.92 3.34 10.32 2.59 3.1-.36 3.82-1.05 4.91-2.1 1.33-1.28 2.99-2.87 7.84-4.14a2 2 0 1 1 1.01 3.87c-3.84 1.01-4.98 2.1-6.09 3.16-1.63 1.56-3.1 2.7-7.22 3.18q-1.24.15-2.38.14Z" style="fill:#004241"/></svg>