<svg xmlns="http://www.w3.org/2000/svg" data-name="flatten icons" viewBox="0 0 112 112"><path d="M0 0h112v112H0z" style="fill:none;stroke-width:0"/><circle cx="56" cy="67.72" r="38.28" style="stroke-width:0;fill:#f48940"/><path d="M87.79 52.07a3 3 0 0 1-1.02 1.95l-2.53 2.19a3 3 0 0 0-.91 3.11l1.15 3.88a3 3 0 0 1-2.46 3.81l-1.73.24a3 3 0 0 0-2.48 3.74l1.04 3.88a3 3 0 0 1-2.89 3.77h-1.51a3 3 0 0 0-2.96 2.54l-.42 2.71a3 3 0 0 1-4.68 1.99l-2.85-2.01a3 3 0 0 0-4.68 2l-.27 1.8a3 3 0 0 1-4.62 2.04 3 3 0 0 0-3.68.28l-4.05 3.7a3 3 0 0 1-4.62-.73l-.27-.47a3 3 0 0 0-2.8-1.51l-10.8.69q-.4.03-.78.16c7.77 8.92 19.15 14.18 29.02 14.18 16.91 0 38.28-14.39 38.28-38.28 0-8.46-2.15-15.71-5.86-21.57z" style="stroke-width:0;fill:#ed784a"/><path d="M56 108c-19.01 0-40.28-17.23-40.28-40.28S33.04 27.44 56 27.44 96.28 44 96.28 67.72a39 39 0 0 1-13.48 29.6C75.23 104.01 65.2 108 55.99 108Zm0-76.56c-21.02 0-36.28 15.26-36.28 36.28C19.72 90.2 40.85 104 56 104s36.28-12.92 36.28-36.28c0-21.36-14.92-36.28-36.28-36.28" style="stroke-width:0;fill:#004241"/><path d="M41.43 45.06a2 2 0 0 1-1.93-1.5c-.04-.14-3.89-14.28-15.17-14.56-1.1-.03-1.98-.95-1.95-2.05s.93-2 2.05-1.95c5.98.15 11.17 3.28 15.01 9.04 2.8 4.21 3.89 8.34 3.94 8.51a2 2 0 0 1-1.43 2.44 2 2 0 0 1-.5.06Z" style="stroke-width:0;fill:#004241"/><path d="M38.39 23.48S44.15 4.6 72.88 6.08c0 0-5.56 21.11-34.49 17.4" style="stroke-width:0;fill:#aad681"/><path d="M44.91 25.92q-3.16 0-6.78-.45a2 2 0 0 1-1.43-.9 2 2 0 0 1-.23-1.67c.06-.2 6.56-20.39 36.51-18.81a2 2 0 0 1 1.83 2.51c-.06.21-5.4 19.33-29.91 19.33Zm-3.59-4.14C60.51 23.27 67.7 12.9 70.01 8h-.3c-18.72 0-25.98 9.32-28.38 13.78Z" style="stroke-width:0;fill:#004241"/><path d="M26.73 29.24h-.06a2 2 0 0 1-1.96-2.04c.02-1.1.9-2 2.01-1.96.13 0 4.04-.14 11.62-4.5a2 2 0 1 1 1.99 3.47c-8.38 4.82-12.89 5.03-13.6 5.03" style="stroke-width:0;fill:#004241"/><path d="M30.37 79.44a2 2 0 0 1-1.79-1.11c-5.91-11.91-.23-23.13.02-23.61a2 2 0 0 1 3.56 1.84c-.06.12-4.97 9.95.01 19.99a2 2 0 0 1-1.79 2.89Z" style="stroke-width:0;fill:#fff"/></svg>