<svg xmlns="http://www.w3.org/2000/svg" data-name="flatten icons" viewBox="0 0 112 112"><path d="M0 0h112v112H0z" style="fill:none;stroke-width:0"/><circle cx="66.76" cy="61.01" r="42.26" style="stroke-width:0;fill:#ffb345"/><path d="M103.97 48.95a3.3 3.3 0 0 1-1.42 1.97l-3.12 2a3.3 3.3 0 0 0-1.49 3.26l.64 4.42a3.3 3.3 0 0 1-3.29 3.78h-1.93a3.3 3.3 0 0 0-3.31 3.68l.52 4.4a3.3 3.3 0 0 1-3.75 3.66l-1.65-.24a3.3 3.3 0 0 0-3.63 2.3l-.89 2.89a3.3 3.3 0 0 1-5.43 1.43l-2.79-2.64A3.3 3.3 0 0 0 67 81.3l-.59 1.93a3.3 3.3 0 0 1-5.37 1.5 3.3 3.3 0 0 0-4.06-.28l-5.01 3.4a3.3 3.3 0 0 1-4.93-1.53l-.22-.56a3.3 3.3 0 0 0-2.81-2.09l-11.91-.95q-.45-.03-.88.05c7.08 10.97 18.68 18.52 29.46 20.08 18.48 2.68 44.1-9.66 47.89-35.76 1.34-9.24.13-17.51-2.99-24.5l-1.62 6.37Z" style="fill:#f4942c"/><path d="M63.37 104.9q-1.39 0-2.76-.06c-9.63-.45-19.86-6.15-27.37-15.25-8.29-10.05-12.04-22.78-10.28-34.93 3.62-24.97 25.18-41.07 50.15-37.46 25.79 3.74 41.19 24.36 37.46 50.16-3.79 26.17-25.98 37.54-47.2 37.54m2.57-84.22c-20.06 0-36 13.71-39.02 34.56-1.6 11.03 1.83 22.63 9.41 31.8 6.8 8.24 15.95 13.4 24.47 13.8 20.22.95 42.22-9.22 45.82-34.05 3.4-23.46-10.61-42.22-34.07-45.62q-3.36-.48-6.6-.48Z" style="fill:#004241"/><path d="M37.23 51.72a2 2 0 0 1-.73-.14 2 2 0 0 1-1.13-2.59c4.14-10.56 10.31-15 10.57-15.18.9-.64 2.15-.42 2.79.48s.42 2.15-.48 2.78c-.1.07-5.5 4.06-9.15 13.38a2 2 0 0 1-1.86 1.27Z" style="fill:#fff"/><path d="M71.6 29.19q-.56 0-1.07-.31a2 2 0 0 1-.62-2.76c2.12-3.35 7.31-13.4 5.86-19.57a2 2 0 0 1 1.49-2.41 2 2 0 0 1 2.41 1.49c2.14 9.08-6.02 22.08-6.37 22.63a2 2 0 0 1-1.69.93Z" style="fill:#004241"/><path d="M78.42 11.64S89.35-4.27 110 17.78c0 0-21.05 6.61-31.58-6.14" style="stroke-width:0;fill:#aad681"/><path d="M97.8 21.49c-9.06 0-16.28-2.96-20.92-8.58a2 2 0 0 1-.11-2.41 16.2 16.2 0 0 1 11.6-6.37c7.19-.54 14.95 3.59 23.09 12.27a2 2 0 0 1-.86 3.28c-.23.07-5.62 1.74-12.42 1.8zm-16.71-9.88c7.32 7.3 19.23 6.16 24.99 5.05-6.25-5.96-12.2-8.92-17.34-8.53a12 12 0 0 0-7.65 3.49Z" style="fill:#004241"/><path d="M70.47 58.18s8.68 34.78-21.9 45.53S2 82.27 2 82.27" style="fill:#f4942c"/><path d="M8.23 81.54c5.32 7.9 18.45 22.82 38.37 15.82s20.33-26.69 19.29-36.1z" style="fill:#fff"/><path d="m47.68 71.36 10.99 3.47c1.5.47 3.04-.58 3.17-2.15.25-3.07.06-5.81-.18-7.75a2.43 2.43 0 0 0-3.23-2l-10.82 3.81a2.44 2.44 0 0 0 .07 4.63Zm-11.3 7.78-6.77 12.69a2.44 2.44 0 0 0 1.56 3.52c3.37.86 7.18 1.01 11.42-.01a2.43 2.43 0 0 0 1.69-3.18l-4.49-12.77a1.87 1.87 0 0 0-3.42-.26Zm8.01-4.35a.93.93 0 0 0-1.16 1.26l6.23 13.37a2.46 2.46 0 0 0 3.78.85 22 22 0 0 0 5.81-7.21 2.42 2.42 0 0 0-1.36-3.33zm-12.08 1.9a2.44 2.44 0 0 0-2.9-3.56l-14.36 5.05a2.44 2.44 0 0 0-1.24 3.64 39 39 0 0 0 6.6 7.65 3.08 3.08 0 0 0 4.66-.73z" style="stroke-width:0;fill:#ef6e50"/><path d="M36.41 107.9C12.82 107.9.35 83.44.21 83.16a2 2 0 0 1 1.13-2.77L69.81 56.3a2 2 0 0 1 1.61.13c.5.27.86.73.99 1.28.09.37 8.75 36.67-23.17 47.9a39 39 0 0 1-12.83 2.31ZM4.92 83.36a52 52 0 0 0 10.3 12.23c9.78 8.33 20.78 10.43 32.7 6.24 11.94-4.2 19.04-12.69 21.11-25.24a50 50 0 0 0-.07-15.75z" style="fill:#004241"/></svg>