<svg xmlns="http://www.w3.org/2000/svg" data-name="flatten icons" viewBox="0 0 112 112"><path d="M0 0h112v112H0z" style="fill:none;stroke-width:0"/><path d="M10.33 28.69s-2.49-5.36 0-12.26a15.5 15.5 0 0 1 5.44-7.18 10 10 0 0 1 6.41-1.88l8.33.39" style="stroke-width:0;fill:#d3cca5"/><path d="M10.32 30.69a2 2 0 0 1-1.81-1.15c-.12-.25-2.81-6.2-.07-13.78 1.15-3.19 3.27-6 6.13-8.11a12 12 0 0 1 7.69-2.27l8.33.39a2 2 0 1 1-.19 3.99l-8.33-.39a8 8 0 0 0-5.12 1.49 13.4 13.4 0 0 0-4.75 6.26c-2.16 5.97-.15 10.55-.06 10.74a2 2 0 0 1-1.83 2.83Z" style="fill:#004241"/><path d="M26.06 10.08C6.87 18.33 7.7 41.88 15.53 54.84s22.8 11.78 32.98 22.38 17.25 18.84 30.2 21.2c10.91 1.98 10.96 5.64 19.14 8.15a3.82 3.82 0 0 0 4.9-4.16c-.87-6.54-2.45-17.32-4.02-22.83-2.36-8.24-5.89-20.02-11.78-25.91S60.7 9.01 48.51 6.01c-12.2-2.99-22.45 4.07-22.45 4.07" style="stroke-width:0;fill:#fbe4ac"/><path d="M95.32 105.65 85.19 89.76a3 3 0 0 0-1.84-1.33l-3.74-.94a3.1 3.1 0 0 1-2.32-2.97v-5.55a3.06 3.06 0 0 0-4.2-2.84l-6.73 2.69c-1.2.48-2.58.15-3.44-.83l-8.46-9.65a3 3 0 0 1-.74-1.65l-.57-4.63a3.06 3.06 0 0 0-3.66-2.63L40 61.38a3.1 3.1 0 0 1-3.19-1.33l-7.58-11.7a3 3 0 0 1-.45-1.13 3.05 3.05 0 0 0-4.9-1.88c-1.65 1.31-3.34 2.49-4.03 2.49-1.53 0-9.51-12.4-9.53-12.43-.03 7.07 2 14.13 5.2 19.42C23.35 67.77 38.32 66.6 48.5 77.2s17.25 18.84 30.2 21.2c9.65 1.75 10.81 4.81 16.61 7.24Z" style="stroke-width:0;fill:#edd091"/><path d="M98.97 108.72q-.86 0-1.71-.26a30 30 0 0 1-7.95-3.82c-2.6-1.65-5.06-3.2-10.96-4.27-12.69-2.31-19.97-9.94-29.2-19.6l-2.09-2.18c-4.26-4.43-9.6-6.75-14.76-9-6.79-2.95-13.81-6-18.48-13.73C8.34 46.8 6.8 34.71 9.9 25.06A26.8 26.8 0 0 1 25.1 8.31c1.5-.98 11.7-7.24 23.88-4.25 8.49 2.08 18.9 17.33 30.64 35.54 3.79 5.88 7.06 10.96 8.74 12.64 5.99 5.99 9.48 16.96 12.29 26.77 1.55 5.43 3.08 15.57 4.08 23.11a5.8 5.8 0 0 1-2.01 5.21 5.8 5.8 0 0 1-3.75 1.38ZM42.34 7.28c-8.56 0-15.06 4.4-15.14 4.46q-.16.12-.35.19c-6.56 2.82-10.99 7.65-13.14 14.37-3.14 9.77-.49 20.86 3.53 27.51 4.01 6.63 10.15 9.3 16.65 12.13 5.53 2.4 11.24 4.88 16.05 9.9l2.09 2.19c9.06 9.49 15.61 16.35 27.02 18.43 6.67 1.21 9.57 3.05 12.38 4.83a26 26 0 0 0 6.98 3.37c.85.26 1.47-.16 1.7-.35s.75-.74.63-1.63c-.81-6.07-2.4-17.07-3.96-22.54-1.93-6.74-5.51-19.29-11.27-25.04-1.98-1.98-5.2-6.98-9.28-13.3C68.03 29.08 55.63 9.85 48 7.98a24 24 0 0 0-5.69-.68Zm-16.28 2.81" style="fill:#004241"/><path d="M31.62 49.91s-3.16 9.55 1.18 17.72" style="fill:#ede5b4"/><path d="M32.8 69.63c-.72 0-1.41-.38-1.77-1.06-4.69-8.82-1.45-18.87-1.31-19.29a2 2 0 0 1 2.53-1.27 2 2 0 0 1 1.27 2.52c-.03.09-2.83 8.87 1.05 16.16a2 2 0 0 1-1.77 2.93Z" style="fill:#004241"/><path d="M44.74 31.27s6.03-10.7 18.2-12.43" style="fill:#ede5b4"/><path d="M44.74 33.27q-.5 0-.98-.26a2 2 0 0 1-.76-2.72c.27-.47 6.66-11.58 19.66-13.43a2 2 0 1 1 .56 3.96c-11.01 1.56-16.69 11.33-16.74 11.43a2 2 0 0 1-1.74 1.01Z" style="fill:#004241"/><path d="M53.84 82.77s-3.76-9.73 2.72-16.63" style="fill:#ede5b4"/><path d="M53.84 84.77c-.8 0-1.56-.48-1.86-1.28-.17-.45-4.13-10.99 3.12-18.72.76-.81 2.02-.85 2.83-.09s.85 2.02.09 2.83c-5.52 5.88-2.44 14.2-2.31 14.55a2 2 0 0 1-1.15 2.58q-.36.13-.72.13" style="fill:#004241"/><path d="M53.84 49.91s3.14-6.9 9.1-7.94" style="fill:#ede5b4"/><path d="M53.84 51.91a2 2 0 0 1-1.82-2.82c.15-.32 3.66-7.88 10.58-9.08a2 2 0 0 1 .68 3.94c-4.83.84-7.6 6.74-7.62 6.8a2 2 0 0 1-1.82 1.17Z" style="fill:#004241"/><path d="M97.22 74.45s-1.73 8.25-3.81 10.32" style="fill:#ede5b4"/><path d="M93.41 86.78A2 2 0 0 1 92 83.36c1.02-1.02 2.49-5.63 3.26-9.32a2 2 0 0 1 2.37-1.54 2 2 0 0 1 1.55 2.37c-.31 1.48-1.98 8.96-4.35 11.33a2 2 0 0 1-1.41.59ZM41.45 39.02q-.83-.01-1.42-.58a2 2 0 0 1-.58-1.42q0-.2.04-.39.03-.2.11-.37c.08-.17.11-.24.18-.35q.12-.16.25-.3a2.06 2.06 0 0 1 3.08.3 2 2 0 0 1 .3.72q.04.2.04.39a2 2 0 0 1-2 2" style="fill:#004241"/><path d="M79.44 55s3.65-1.61 8.2 0" style="fill:#ede5b4"/><path d="M87.64 57q-.33 0-.67-.12c-3.7-1.31-6.7-.07-6.73-.06a2 2 0 0 1-2.64-1.02 2 2 0 0 1 1.02-2.64c.18-.08 4.44-1.92 9.68-.06a2 2 0 0 1-.67 3.88Z" style="fill:#004241"/></svg>