<svg xmlns="http://www.w3.org/2000/svg" data-name="flatten icons" viewBox="0 0 112 112"><path d="M0 0h112v112H0z" style="fill:none;stroke-width:0"/><circle cx="47.26" cy="53.63" r="45.25" style="fill:#70bc57"/><path d="M47.16 100.89c-9.3 0-18.39-2.75-26.28-8.07C10.4 85.78 3.31 75.08.89 62.69s.13-24.97 7.18-35.44S25.82 9.68 38.21 7.26s24.97.13 35.44 7.17a47 47 0 0 1 19.99 30.13 47.3 47.3 0 0 1-46.47 56.32Zm.11-90.51q-4.12 0-8.31.81C27.62 13.4 17.83 19.9 11.38 29.48S2.6 50.58 4.81 61.92s8.71 21.13 18.3 27.58 21.1 8.78 32.44 6.57A43.3 43.3 0 0 0 89.7 45.33a43.3 43.3 0 0 0-42.43-34.96Z" style="fill:#004241"/><path d="M55.93 98.04c12.95-2.53 19.56-24.46 14.77-48.99C65.91 24.53 51.53 6.69 38.58 9.22l17.35 88.81Z" style="fill:#aad681"/><path d="M55.93 100.04a2 2 0 0 1-1.96-1.62L36.62 9.61a2 2 0 0 1 1.58-2.35c7.03-1.37 14.5 2.35 21.06 10.47 6.27 7.77 11.03 18.75 13.41 30.93s2.1 24.14-.78 33.7c-3.01 10-8.54 16.26-15.57 17.63q-.2.04-.39.04ZM40.96 10.99l16.51 84.52c4.61-1.82 8.32-6.81 10.58-14.29 2.7-8.95 2.94-20.23.68-31.78S62 27.53 56.13 20.25c-4.87-6.04-10.15-9.26-15.07-9.26z" style="fill:#004241"/><path d="M38.58 9.23a45.24 45.24 0 1 0 17.35 88.81" style="fill:#aad681"/><path d="M47.16 100.89c-9.3 0-18.39-2.75-26.28-8.07C10.4 85.78 3.31 75.08.89 62.69s.13-24.97 7.18-35.44S25.82 9.68 38.21 7.26a2 2 0 0 1 .77 3.93C27.64 13.4 17.85 19.9 11.4 29.48s-8.78 21.1-6.57 32.44 8.71 21.13 18.3 27.58 21.1 8.78 32.44 6.57a2 2 0 0 1 2.35 1.58 2 2 0 0 1-1.58 2.35q-4.59.9-9.16.89Z" style="fill:#004241"/><path d="M55.93 98.04c-12.95 2.53-27.33-15.3-32.12-39.83s1.82-46.46 14.77-48.99l17.35 88.81Z" style="fill:#70bc57"/><path d="M53.41 100.28c-13.35 0-26.82-17.45-31.56-41.69-2.38-12.17-2.1-24.14.78-33.7 3.01-10 8.54-16.26 15.57-17.63a2 2 0 0 1 2.35 1.58L57.9 97.65a2 2 0 0 1-1.58 2.35q-1.45.28-2.91.28M37.04 11.75c-4.61 1.82-8.32 6.81-10.58 14.29-2.7 8.95-2.94 20.23-.68 31.78 4.23 21.65 16.56 38.45 27.71 38.45h.07z" style="fill:#004241"/><path d="M14.47 55.86a47.77 47.77 0 0 0 95.54 0H97.23c-6.98 14.28-20.04 23.88-34.98 23.88s-28-9.6-34.98-23.88H14.49Z" style="fill:#aad681"/><path d="M62.23 105.62a49.83 49.83 0 0 1-49.77-49.77 2.03 2.03 0 0 1 2-2h12.78c.76 0 1.46.44 1.8 1.13 6.87 14.04 19.59 22.76 33.19 22.76s26.32-8.72 33.19-22.76a2 2 0 0 1 1.8-1.12H110a2.03 2.03 0 0 1 2 2 49.8 49.8 0 0 1-49.77 49.77ZM16.51 57.86c1.05 24.31 21.16 43.76 45.72 43.76s44.67-19.45 45.72-43.76h-9.51C90.77 72.62 77 81.74 62.22 81.74S33.67 72.62 26 57.86h-9.51Z" style="fill:#004241"/><path d="M91.52 55.86H22.25a39.98 39.98 0 0 0 79.96 0h-10.7Z" style="stroke-width:0;fill:#f56973"/><path d="M62.23 97.84a42 42 0 0 1-41.98-41.98 2.03 2.03 0 0 1 2-2h79.96a2.03 2.03 0 0 1 2 2 42 42 0 0 1-41.98 41.98M24.31 57.86c1.04 20.02 17.66 35.98 37.93 35.98s36.89-15.96 37.93-35.98z" style="fill:#004241"/><path d="M35.03 71.74a2 2 0 0 1-1.2-3.6l3.98-2.99c.88-.66 2.14-.48 2.8.4s.48 2.14-.4 2.8l-3.98 2.99q-.55.4-1.2.4m10.58 11.55a2 2 0 0 1-1.59-3.21l3.03-3.94a2 2 0 1 1 3.17 2.43l-3.03 3.94a2 2 0 0 1-1.59.78Zm44.5-11.55q-.65 0-1.2-.4l-3.98-2.99a2 2 0 0 1-.4-2.8 2 2 0 0 1 2.8-.4l3.98 2.99a2 2 0 0 1-1.2 3.6M79.52 83.29c-.6 0-1.19-.27-1.59-.78l-3.03-3.94a2 2 0 1 1 3.17-2.43l3.03 3.94a2 2 0 0 1-1.59 3.21Zm-16.83 4.75a2 2 0 0 1-2-2v-4.95c0-1.1.9-2 2-2s2 .9 2 2v4.95a2 2 0 0 1-2 2" style="fill:#004241"/></svg>