<svg xmlns="http://www.w3.org/2000/svg" data-name="flatten icons" viewBox="0 0 112 112"><path d="M0 0h112v112H0z" style="fill:none;stroke-width:0"/><path d="M64.32 27.1q-4.27.02-8.25 1.02a34 34 0 0 0-8.25-1.02c-19.48 0-37.2 16.47-35.28 36.57 2.11 22.13 23.26 43.4 44.03 46.2.8.11 2.33.21 3.12 0 25.48-6.98 39.91-26 39.91-46.2S83.8 27.1 64.32 27.1" style="stroke-width:0;fill:#ff8164"/><path d="M65.82 96.46a5.3 5.3 0 0 0-7.03-1.95l-.91.48c-1.32.69-2.87.8-4.28.3a5.3 5.3 0 0 1-2.99-7.32l.54-1.12q.53-1.1.53-2.31v-4.18a5.32 5.32 0 0 0-6.65-5.15l-7.64 1.98a5.3 5.3 0 0 1-5.99-2.57l-.9-1.63a5.3 5.3 0 0 0-3.35-2.58L14.78 67.3a5 5 0 0 0-1.73-.14c3.85 20.83 23.86 40.07 43.53 42.72.8.11 2.33.21 3.12 0a69 69 0 0 0 5.53-1.77q.26-.46.43-.97l1.56-4.85a5.3 5.3 0 0 0-.51-4.39l-.88-1.45Z" style="stroke-width:0;fill:#f7c39f"/><path d="M58.38 112c-.95 0-1.83-.11-2.08-.14-22.22-2.99-43.6-25.42-45.76-47.99-.91-9.5 2.28-18.79 8.96-26.14a38.4 38.4 0 0 1 28.31-12.62c2.76 0 5.54.32 8.25.96q4.1-.96 8.25-.96c20.56 0 37.28 17.3 37.28 38.57 0 22.35-16.24 41.24-41.38 48.13-.54.15-1.2.19-1.83.19M47.82 29.1a35 35 0 0 0-25.35 11.31c-5.92 6.51-8.74 14.71-7.94 23.07 1.96 20.52 22.12 41.69 42.31 44.41a9 9 0 0 0 2.32.05c23.35-6.4 38.44-23.77 38.44-44.27 0-19.06-14.93-34.57-33.28-34.57q-3.92 0-7.77.96-.49.12-.96 0a33 33 0 0 0-7.77-.96" style="stroke-width:0;fill:#004241"/><path d="M79.84 57.21a2 2 0 0 1-1.98-1.77c-2.27-19.96-21.47-25.17-22.28-25.39a2 2 0 0 1-1.44-2.44 2 2 0 0 1 2.43-1.44c.23.06 22.67 6.07 25.26 28.81a2 2 0 0 1-1.76 2.21l-.23.01Z" style="stroke-width:0;fill:#004241"/><path d="m55.12 29.1-.28-.02a2 2 0 0 1-1.71-2.26c1.38-9.92-6.06-16.36-6.37-16.63a2 2 0 0 1 2.57-3.07c.39.32 9.46 8.08 7.76 20.24a2 2 0 0 1-1.98 1.72Z" style="stroke-width:0;fill:#004241"/><path d="M55.08 15.69s3.43-22.57 36.79-9.76c0 0-19 17.9-36.79 9.76" style="stroke-width:0;fill:#aad681"/><path d="M64.96 19.8q-5.69 0-10.71-2.29a2 2 0 0 1-1.15-2.12 18.8 18.8 0 0 1 8.89-12.51c7.27-4.22 17.56-3.82 30.6 1.18.64.25 1.11.81 1.25 1.48a2 2 0 0 1-.59 1.84c-.2.19-5.05 4.72-12.21 8.27-5.56 2.76-10.98 4.14-16.08 4.14Zm-7.51-5.3c12.23 4.47 25.08-3.75 30.45-7.87-10.24-3.42-18.25-3.53-23.84-.32a14.7 14.7 0 0 0-6.61 8.19" style="stroke-width:0;fill:#004241"/><path d="M29.37 51.39q-.43 0-.84-.18a2 2 0 0 1-.98-2.65c3.93-8.51 12.89-12.26 13.27-12.42a2 2 0 0 1 1.52 3.7c-.08.03-7.9 3.34-11.16 10.39a2 2 0 0 1-1.82 1.16Z" style="stroke-width:0;fill:#fff"/></svg>