<svg xmlns="http://www.w3.org/2000/svg" data-name="flatten icons" viewBox="0 0 112 112"><path d="M0 0h112v112H0z" style="fill:none;stroke-width:0"/><path d="M56.36 36.32q-.27 0-.55-.08a2 2 0 0 1-1.38-2.47c.14-.49 3.27-12.29-7.77-18.09a2 2 0 1 1 1.86-3.54c13.95 7.32 9.8 22.57 9.76 22.73a2 2 0 0 1-1.92 1.45" style="stroke-width:0;fill:#004241"/><path d="M56.44 22.51S55.28-4.46 86.01 3.46c0 0 1.69 26.06-29.57 19.05" style="stroke-width:0;fill:#73cc64"/><path d="M66.24 25.71q-4.68 0-10.24-1.25a2 2 0 0 1-1.56-1.87c-.02-.48-.41-11.78 7.62-18.28 5.65-4.58 13.88-5.52 24.45-2.79a2 2 0 0 1 1.5 1.81c.03.45.63 11.09-7 17.61q-5.6 4.77-14.76 4.77Zm-7.76-4.81c8.88 1.72 15.58.72 19.92-3 4.64-3.97 5.47-10.1 5.6-12.87-8.52-1.94-15.05-1.14-19.41 2.38-4.91 3.96-5.92 10.53-6.11 13.49" style="stroke-width:0;fill:#004241"/><path d="M72.62 45.19a16.97 16.97 0 0 0-33.02-.86c-1.27 4.86-3.42 9.48-6.8 13.2a31.2 31.2 0 0 0-8.1 23.04 31.5 31.5 0 0 0 29.32 29.38 31.38 31.38 0 0 0 25.12-52.53 26 26 0 0 1-6.5-12.23Z" style="stroke-width:0;fill:#b2dd7f"/><path d="M79.12 57.41a26 26 0 0 1-6.5-12.23 17 17 0 0 0-1.11-3.41 32.3 32.3 0 0 0 2.2 16.64 38.5 38.5 0 0 1 .28 28.06 38.6 38.6 0 0 1-23.85 22.97q1.9.36 3.86.49A31.38 31.38 0 0 0 79.12 57.4Z" style="stroke-width:0;fill:#8ac17c"/><path d="M56.03 112q-1.07 0-2.15-.07a33.36 33.36 0 0 1-22.57-55.75c2.9-3.19 5.04-7.35 6.35-12.36a19 19 0 0 1 6.97-10.37 18.9 18.9 0 0 1 22.76 0 19 19 0 0 1 7.2 11.33c.82 3.99 2.9 7.89 6.01 11.28a33.3 33.3 0 0 1 8.79 22.56c0 9.17-3.84 18.04-10.52 24.33A33 33 0 0 1 56.04 112ZM56 33.64a15 15 0 0 0-14.48 11.19c-1.47 5.64-3.92 10.37-7.26 14.04a29 29 0 0 0-7.58 21.57 29.35 29.35 0 0 0 27.44 27.5c8.22.51 16.03-2.3 21.99-7.91a29 29 0 0 0 9.26-21.41c0-7.38-2.75-14.43-7.73-19.86a28 28 0 0 1-6.99-13.17 15 15 0 0 0-5.69-8.95c-2.64-2-5.8-3-8.96-3" style="stroke-width:0;fill:#004241"/><path d="M40.37 93.48q-.7 0-1.27-.46c-7.1-5.86-5.77-19.09-5.71-19.65a2 2 0 0 1 3.98.43c-.01.12-1.16 11.65 4.27 16.14a2 2 0 0 1-1.27 3.55Z" style="stroke-width:0;fill:#fff"/></svg>