<svg xmlns="http://www.w3.org/2000/svg" data-name="flatten icons" viewBox="0 0 112 112"><path d="M0 0h112v112H0z" style="fill:none;stroke-width:0"/><path d="M42.4 27.86S27.94 11.38 11.94 11.09L8.71 22.5s11.43-1.14 29.32 17.4L41 42.98l8.71-9.92z" style="fill:#aad681"/><path d="M41 44.98c-.54 0-1.06-.22-1.44-.61l-2.97-3.08C19.78 23.87 8.99 24.48 8.88 24.49a2 2 0 0 1-2.1-2.54l3.23-11.41a2 2 0 0 1 1.92-1.46h.04C27.93 9.37 42 24.42 43.74 26.35l7.13 5.07c.46.33.76.84.83 1.4s-.11 1.13-.48 1.55l-8.71 9.92a2 2 0 0 1-1.46.68zM11.3 20.67c4.64.7 14.72 3.91 28.16 17.84l1.46 1.52 5.81-6.62-5.51-3.92a2 2 0 0 1-.34-.31c-.13-.15-13.14-14.77-27.47-16.01l-2.13 7.5Z" style="fill:#004241"/><path d="M38.86 35.98S26.38 17.97 29.98 2.37L41.83 2s-3.88 10.82 9.78 32.66l2.27 3.63-11.73 6.05-3.27-8.36Z" style="fill:#88b559"/><path d="M42.14 46.34a2 2 0 0 1-1.87-1.27l-3.19-8.14c-1.45-2.15-12.65-19.45-9.05-35A2 2 0 0 1 29.92.38L41.77 0a2 2 0 0 1 1.95 2.67c-.03.08-3.23 10.41 9.59 30.93l2.27 3.63c.3.47.38 1.05.23 1.59s-.52.99-1.01 1.25l-11.73 6.04q-.44.22-.92.22ZM31.63 4.32c-2.27 14.2 8.76 30.36 8.87 30.53q.13.19.22.41l2.47 6.29 7.83-4.04-1.12-1.79C39.64 19.3 38.97 8.74 39.42 4.07z" style="fill:#004241"/><path d="m96.1 100.65-3.28 2.56a7.57 7.57 0 0 1-10.63-1.31L81 99.85a228 228 0 0 0-22.69-32.18l-3.52-4.17 12-9.38 3.18 4.41a228 228 0 0 0 25.72 29.81l1.71 1.67a7.57 7.57 0 0 1-1.31 10.63Z" style="stroke-width:0;fill:#efe8c7"/><path d="M88.16 106.81a9.6 9.6 0 0 1-7.71-3.9l-1.19-2.05a226 226 0 0 0-22.49-31.9l-3.52-4.17a2 2 0 0 1 .3-2.87l12-9.38a2 2 0 0 1 2.85.41l3.18 4.41a226 226 0 0 0 25.49 29.55l1.71 1.67.18.2a9.5 9.5 0 0 1 1.96 7.06 9.5 9.5 0 0 1-3.61 6.38l-3.28 2.56a9.6 9.6 0 0 1-5.88 2.02Zm-4.32-6.04a5.6 5.6 0 0 0 7.75.86l3.28-2.56a5.5 5.5 0 0 0 2.1-3.71 5.5 5.5 0 0 0-1.06-4.01l-1.61-1.57a231 231 0 0 1-25.94-30.07l-1.97-2.73-8.73 6.82 2.18 2.59a230 230 0 0 1 22.89 32.46z" style="fill:#004241"/><path d="M54.79 63.5S34.42 44.04 16.32 50.54l-3.73-12.67s31.57-11.6 54.2 16.25z" style="fill:#88b559"/><path d="M54.79 65.5c-.5 0-1-.19-1.38-.55-.2-.19-19.71-18.53-36.41-12.53a2 2 0 0 1-2.59-1.32l-3.73-12.67a2 2 0 0 1 1.23-2.44c.33-.12 33.18-11.77 56.44 16.87a2 2 0 0 1-.32 2.84l-12 9.38c-.36.28-.8.42-1.23.42ZM24.12 47.23c5.93 0 12.43 1.88 19.18 5.6a70 70 0 0 1 11.57 8.06l9.05-7.07C45.42 32.61 21.74 37.3 15.06 39.19l2.6 8.84q3.1-.8 6.45-.8Z" style="fill:#004241"/><path d="M66.86 54.08s-14.11-21.25-2.62-39.66L53.66 7.11s-20.34 27.64 1.2 56.34z" style="fill:#aad681"/><path d="M54.85 65.45q-.14 0-.26-.02a2 2 0 0 1-1.34-.78C31.07 35.1 51.82 6.21 52.04 5.92a2 2 0 0 1 2.75-.46l10.58 7.31a2 2 0 0 1 .56 2.7C61.49 22.58 60.55 31 63.14 40.5c1.97 7.24 5.36 12.41 5.39 12.46.58.87.39 2.04-.44 2.68l-12 9.38c-.35.28-.79.42-1.23.42Zm-.67-55.54c-3.75 6.03-14.92 27.68 1.07 50.69l8.97-7.01a53 53 0 0 1-4.92-11.91c-2.69-9.8-1.91-18.98 2.27-26.67z" style="fill:#004241"/><path d="M92.82 103.21s-3.23 3.85-1.61 6.79" style="fill:#aad681"/><path d="M91.21 112c-.71 0-1.39-.37-1.75-1.04-2.21-4.02 1.41-8.54 1.83-9.04a2 2 0 0 1 3.07 2.56c-.76.92-2.11 3.25-1.4 4.55a2 2 0 0 1-1.75 2.97" style="fill:#004241"/><path d="M94.97 102.58s-.66 2.79 1.62 5.46" style="fill:#aad681"/><path d="M96.59 110.04c-.56 0-1.12-.24-1.52-.7a8.7 8.7 0 0 1-2.05-7.22 2 2 0 0 1 2.41-1.49 2 2 0 0 1 1.49 2.38c-.02.12-.34 1.94 1.19 3.72a2 2 0 0 1-1.52 3.3Z" style="fill:#004241"/><path d="M96.1 100.65s4.38-.69 7.2 1.03" style="fill:#aad681"/><path d="M103.29 103.68q-.55 0-1.04-.29c-1.77-1.09-4.82-.92-5.84-.76-1.08.17-2.11-.58-2.28-1.67s.57-2.11 1.66-2.28c.52-.08 5.21-.75 8.56 1.3a2 2 0 0 1 .66 2.75 2 2 0 0 1-1.71.96Z" style="fill:#004241"/></svg>