<svg xmlns="http://www.w3.org/2000/svg" data-name="flatten icons" viewBox="0 0 112 112"><path d="M0 0h112v112H0z" style="fill:none;stroke-width:0"/><path d="m27.36 15.56-.28-4.49a1.1 1.1 0 0 1 1.4-1.13l6.06 1.74a1.1 1.1 0 0 0 1.4-.92l.27-2.19a1.1 1.1 0 0 1 1.73-.76l4.34 3.09a1.1 1.1 0 0 0 1.69-.58l1.76-5.87h10.2l-.58 1.9c-.73 2.41-.98 4.95-.73 7.46l.21 2.07-10.62 7.74H30.55z" style="fill:#b2e561"/><path d="M44.21 25.62H30.55a2 2 0 0 1-1.86-1.26L25.5 16.3q-.11-.3-.14-.61l-.28-4.49a3.1 3.1 0 0 1 3.95-3.17l5.04 1.45.14-1.15c.13-1.1.82-2.02 1.83-2.46a3.1 3.1 0 0 1 3.05.31l3.31 2.36 1.4-4.67a2 2 0 0 1 1.92-1.42h10.2a2 2 0 0 1 1.92 2.58l-.58 1.9a17 17 0 0 0-.65 6.67l.21 2.07c.07.71-.24 1.4-.81 1.82l-10.62 7.74q-.52.38-1.18.38Zm-12.3-4h11.65l9.17-6.68-.09-.93q-.4-3.84.61-7.56h-6.03l-1.33 4.45a3.1 3.1 0 0 1-4.76 1.63l-3.1-2.21-.08.69a3.1 3.1 0 0 1-3.94 2.6l-4.83-1.39.18 2.9 2.57 6.5Z" style="fill:#004241"/><path d="M58.11 15.56c-2.9 0-5.68.74-8.27 2.09a15.4 15.4 0 0 1-14.21 0 18 18 0 0 0-8.27-2.09C13.52 15.56 2.3 32.33 2.3 53.02s13.04 37.46 26.89 37.46c2.9 0 3.86-.74 6.44-2.09a13.6 13.6 0 0 1 13.3 0 18 18 0 0 0 8.27 2.09c13.84 0 25.97-16.77 25.97-37.46S71.95 15.56 58.11 15.56" style="stroke-width:0;fill:#43a343"/><path d="M77.01 28.42a78 78 0 0 1 1.61 16.31c0 20.69-7.57 37.46-21.41 37.46-2.9 0-5.68-.74-8.27-2.09a13.6 13.6 0 0 0-13.3 0c-2.59 1.35-3.55 2.09-6.44 2.09a30.8 30.8 0 0 1-20.91-8.52C12.78 83.8 20.46 90.48 29.2 90.48c2.9 0 3.86-.74 6.44-2.09a13.6 13.6 0 0 1 13.3 0 18 18 0 0 0 8.27 2.09c13.84 0 25.97-16.77 25.97-37.46 0-9.42-2.33-18.02-6.17-24.6" style="stroke-width:0;fill:#328e32"/><path d="M57.2 92.47q-4.76 0-9.2-2.32a11.6 11.6 0 0 0-11.44 0l-.89.47c-2.08 1.11-3.45 1.85-6.48 1.85-14.38 0-25.98-15.76-28.87-39.21C-1.07 42 2.28 30.56 9.28 22.64c5.11-5.78 11.7-9.09 18.09-9.09q4.76 0 9.2 2.32a13.3 13.3 0 0 0 12.36 0 20 20 0 0 1 9.2-2.32c6.28 0 12.51 3.07 17.56 8.65 7.1 7.84 10.65 19.43 9.49 31.01-2.31 23.12-13.8 39.26-27.96 39.26Zm-14.92-7.84q3.8 0 7.58 1.97a16 16 0 0 0 7.34 1.86c11.84 0 21.92-15 23.98-35.66 1.04-10.47-2.12-20.91-8.48-27.93-4.28-4.73-9.46-7.33-14.59-7.33q-3.78 0-7.34 1.86a17.4 17.4 0 0 1-16.07 0 16 16 0 0 0-7.34-1.86c-5.24 0-10.74 2.82-15.09 7.74-6.25 7.07-9.23 17.34-7.98 27.48 2.63 21.36 12.64 35.7 24.9 35.7 2.03 0 2.73-.37 4.59-1.37l.93-.49a16 16 0 0 1 7.58-1.97Z" style="fill:#004241"/><path d="M44.21 74.08A2 2 0 0 1 42.43 73c-4.49-8.71-2.92-27.54-2.85-28.34a2 2 0 0 1 2.17-1.82A2 2 0 0 1 43.57 45c-.02.18-1.54 18.48 2.42 26.16a2 2 0 0 1-1.78 2.92M33.67 26.7a2 2 0 0 1-.01-4c.06 0 7.34-.16 14.89-6.57a2 2 0 0 1 2.82.23 2 2 0 0 1-.23 2.82c-8.73 7.41-17.11 7.52-17.47 7.52" style="fill:#004241"/><path d="M13.19 48.44a2 2 0 0 1-1.99-1.89c-.73-12.8 7.6-19.43 7.96-19.71a2 2 0 0 1 2.81.35 2 2 0 0 1-.34 2.8c-.29.23-7.03 5.69-6.42 16.33a2 2 0 0 1-1.88 2.11h-.11Z" style="fill:#fff"/><path d="m90.32 46.44 4-1.79s2.09-10.45 0-12.92c0 0 1.52-2.67 6.48-1.33 0 0 2.09 10.28.76 13.33s-1.33 12.95-1.33 12.95l-13.9-3.65 4-6.58Z" style="fill:#b2e561"/><path d="M100.23 58.67a2 2 0 0 1-.51-.07l-13.9-3.65a2 2 0 0 1-1.35-1.19 2 2 0 0 1 .15-1.79l4-6.58a2 2 0 0 1 .89-.79l3.04-1.36c.82-4.62.95-9.34.24-10.24a2.1 2.1 0 0 1-.21-2.28c.09-.16 2.36-3.99 8.73-2.27a2 2 0 0 1 1.44 1.53c.37 1.82 2.14 11.08.63 14.53-.85 1.94-1.17 8.48-1.17 12.15a2 2 0 0 1-2 2Zm-10.8-6.91 8.84 2.32c.1-3.31.42-8.78 1.46-11.17.61-1.39.16-6.44-.64-10.84a4.6 4.6 0 0 0-2.31.19c1.1 3.67.08 9.92-.49 12.77a2 2 0 0 1-1.14 1.43L91.72 48z" style="fill:#004241"/><path d="m42.27 10.9 4.84 2.12" style="fill:#b2e561"/><path d="M47.11 15.02q-.4 0-.8-.17l-4.83-2.12a2 2 0 0 1-1.03-2.64 2 2 0 0 1 2.64-1.03l4.83 2.12a2 2 0 0 1 1.03 2.64 2 2 0 0 1-1.83 1.2Z" style="fill:#004241"/><path d="M49.84 96.43c-.91-8.05 6.94-26.14 12.49-33.15s7.78-17.72 16.28-18.56 14.05 5.22 14.05 5.22 6.84-4.28 14.52 4.65c7.69 8.94-.85 31.58-20.08 41.83-6.44 3.44-20.93 11.53-25.2 11.11-4.27-.43-11.15-3.06-12.06-11.11Z" style="stroke-width:0;fill:#ef6c65"/><path d="M62.21 109.55q-.27 0-.5-.02c-5.78-.58-12.88-4.29-13.85-12.87-.99-8.7 7.23-27.45 12.91-34.62a51 51 0 0 0 4.36-7c3.15-5.71 6.41-11.62 13.29-12.3 7.2-.71 12.45 2.95 14.62 4.82 3.45-1.27 9.66-1.24 15.66 5.74 2.97 3.45 3.97 8.69 2.84 14.77-2.23 11.88-11.45 23.71-23.49 30.13l-2.12 1.14c-10.01 5.39-19.36 10.22-23.72 10.22ZM51.83 96.2c.91 8.01 8.72 9.19 10.27 9.34 3.24.36 16.34-6.73 21.93-9.74l2.13-1.15c12.52-6.68 19.79-18.55 21.44-27.34.91-4.86.22-8.91-1.94-11.42-6.49-7.55-11.89-4.3-11.95-4.26a2 2 0 0 1-2.54-.34c-.04-.05-5.02-5.3-12.38-4.58-4.78.47-7.28 5-10.18 10.25-1.42 2.57-2.88 5.22-4.73 7.56-5.15 6.5-12.91 24.26-12.07 31.68Z" style="fill:#004241"/><path d="M92.66 49.95S78.89 62.58 77.75 70.57" style="fill:#d66a5f"/><path d="m77.76 72.57-.29-.02a2 2 0 0 1-1.7-2.26c1.21-8.46 14.08-20.47 15.54-21.82a2 2 0 0 1 2.71 2.95c-3.68 3.38-13.43 13.46-14.28 19.43a2 2 0 0 1-1.98 1.72" style="fill:#004241"/><path d="M57.95 99.33s-.65 4.42 3.96 8.21" style="fill:#d66a5f"/><path d="M61.91 109.54q-.7 0-1.27-.46c-5.42-4.46-4.7-9.82-4.67-10.05a2 2 0 0 1 2.27-1.69 2 2 0 0 1 1.69 2.25c-.02.19-.34 3.45 3.25 6.39a2 2 0 0 1-1.27 3.54Z" style="fill:#004241"/><path d="M59.09 88h-.07a2 2 0 0 1-1.93-2.07c.21-6.31 6.85-13.31 7.61-14.09a2 2 0 0 1 2.87 2.79c-1.76 1.81-6.35 7.39-6.48 11.43a2 2 0 0 1-2 1.93Z" style="fill:#fff"/></svg>