<svg xmlns="http://www.w3.org/2000/svg" data-name="flatten icons" viewBox="0 0 112 112"><path d="M0 0h112v112H0z" style="fill:none;stroke-width:0"/><path d="M67.94 64.64s-9.23-6.24-15.88-7.84S33.17 48.81 28 49.78s-7.89 5.94-11.87 1.73-1.47-6.24-7.65-8.12-1.32-9.68 2.87-10.31-3.48-12.34 6.85-12.71 23.9 15.27 23.9 15.27l20.7 18.54 15.52 13.24-10.37-2.79Z" style="stroke-width:0;fill:#8dc46b"/><path d="M78.31 69.43q-.26 0-.52-.07l-10.37-2.79a2 2 0 0 1-.6-.27c-.09-.06-9.01-6.06-15.23-7.55-2.55-.61-5.74-1.84-9.12-3.14-5.07-1.95-11.37-4.37-14.11-3.86-1.5.28-2.83 1.01-4.11 1.72-2.51 1.38-5.94 3.27-9.58-.59a15 15 0 0 1-2.97-4.61c-.64-1.48-.91-2.09-3.81-2.98-2.92-.89-4.54-3.08-4.34-5.86.27-3.63 3.69-7.56 7.16-8.28a15 15 0 0 0-.1-2.37c-.23-2.56-.51-5.75 1.53-8.06q1.97-2.2 5.97-2.36c10.79-.41 24.1 14.38 25.4 15.86l20.61 18.46L79.6 65.89a2 2 0 0 1-1.3 3.52Zm-9.53-6.63 1.49.4-8.78-7.49-20.73-18.57-.18-.18c-3.61-4.15-14.66-14.87-22.32-14.59q-2.3.08-3.12 1.01c-.9 1.02-.71 3.17-.54 5.06.21 2.43.54 6.1-2.96 6.62-1.74.26-3.96 2.8-4.1 4.68-.05.65.1 1.31 1.51 1.74 4.34 1.32 5.32 2.92 6.31 5.21.44 1.02.9 2.08 2.21 3.46 1.46 1.55 2.13 1.27 4.74-.17a18 18 0 0 1 5.31-2.15c3.85-.72 10.17 1.71 16.28 4.06 3.25 1.25 6.32 2.43 8.61 2.98 6.34 1.52 14.6 6.84 16.25 7.93Z" style="fill:#004241"/><path d="M75.64 57.75s-3.27-6.3-2.86-11.11-5.53-7.59-7.93-7.44-6.73 5.08-6.73 5.08l7.07 13 9.24 4.95 1.2-4.48Z" style="fill:#aad681"/><path d="M74.43 64.23q-.5 0-.94-.24l-9.24-4.95a2 2 0 0 1-.81-.81l-7.07-13c-.4-.74-.3-1.65.25-2.28 1.15-1.3 5.12-5.57 8.12-5.75 1.99-.13 5.35 1.04 7.67 3.42a7.8 7.8 0 0 1 2.37 6.19c-.3 3.47 1.81 8.41 2.64 10.02a2 2 0 0 1 .16 1.44l-1.2 4.48a2 2 0 0 1-1.14 1.32q-.38.16-.79.16Zm-7.77-8.43 6.49 3.48.36-1.32c-.89-1.89-3.1-7.12-2.73-11.48a3.9 3.9 0 0 0-1.25-3.06c-1.51-1.55-3.77-2.28-4.57-2.22-.71.07-2.65 1.58-4.41 3.39l6.1 11.22Z" style="fill:#004241"/><path d="M75.55 60.23s-9.02-7.68-10.04-10.9 9.03-10.48 5.46-16.5-8.03-8.4-9.79-4.82-7.82 6.04-7.84 1.76.59-16.57-2.69-18.18-9.21-5.31-10.64 1.94-3.52 15.52-5.21 9.84 1.61-12.78-7.29-17.15-9.62 3.02-9.62 3.02-5.58 14.89 1.21 18.04q2.13 1 3.72 1.86a5.5 5.5 0 0 1 2.17 7.26 4.5 4.5 0 0 0 .34 4.6c2.99 4.57 8.5 3.99 15.11 3.17q2-.25 3.48-.5a4.35 4.35 0 0 1 4.69 2.46 8 8 0 0 0 2.6 2.94c5.08 3.86 8.23 5.72 13.99 8.2s9.28 9.12 9.28 9.12" style="fill:#aad681"/><path d="M74.48 68.4c-.72 0-1.41-.39-1.77-1.06-.03-.06-3.29-6.06-8.31-8.22a59 59 0 0 1-14.41-8.45 10 10 0 0 1-3.21-3.71 2.35 2.35 0 0 0-2.54-1.31 95 95 0 0 1-3.56.51c-6.54.81-13.3 1.65-17.03-4.06a6.4 6.4 0 0 1-.47-6.56c.85-1.77.28-3.77-1.32-4.64a64 64 0 0 0-3.61-1.81c-7.96-3.69-3.22-17.86-2.32-20.34.15-.94.8-3.67 3.37-5.1q3.52-1.95 9.09.78c7.38 3.63 7.6 9.19 7.77 13.66q.04 1.29.14 2.49a85 85 0 0 0 1.73-7.43q.8-4.06 3.5-5.38c3.06-1.49 6.61.32 9.2 1.64l.79.4c3.68 1.81 3.91 9.21 3.82 17.98l-.01 1.99.02.29c.82.06 3.13-1.11 4.03-2.92a4.6 4.6 0 0 1 4.02-2.8c3-.1 6.4 2.61 9.29 7.48 2.83 4.76-.6 9.7-3.1 13.31-.83 1.2-2.09 3.01-2.14 3.67.63 1.71 5.34 6.45 9.41 9.92a2 2 0 0 1-2.6 3.05c-.4-.34-1.22-1.04-2.22-1.96a27 27 0 0 1 4.21 5.67 2 2 0 0 1-1.77 2.93ZM44.64 41.61a6.3 6.3 0 0 1 5.79 3.7c.21.46.72 1.21 1.98 2.17 5 3.79 8.04 5.58 13.57 7.96 1.56.67 2.96 1.6 4.19 2.62-2.74-2.62-5.88-5.97-6.57-8.12-.7-2.2.87-4.47 2.69-7.1 2.53-3.65 4.35-6.63 2.95-8.99-2.43-4.09-4.78-5.58-5.69-5.52-.1 0-.31.01-.58.57-1.62 3.3-5.73 5.7-8.62 5.04-1.87-.43-3-1.98-3.02-4.14l.01-2.06c.11-10.87-.81-13.81-1.6-14.35l-.82-.41c-1.63-.83-4.37-2.23-5.64-1.61-.75.36-1.13 1.59-1.32 2.56-2.21 11.21-3.64 13.24-5.82 13.34-2.27.09-3.01-2.47-3.26-3.31a23 23 0 0 1-.71-5.7c-.17-4.27-.3-7.65-5.54-10.22-2.36-1.16-4.27-1.48-5.36-.88-1.18.64-1.39 2.31-1.39 2.32q-.03.25-.11.49c-1.6 4.29-3.67 13.74.18 15.52q2.05.95 3.84 1.92a7.5 7.5 0 0 1 3.02 9.88c-.44.92-.38 1.74.22 2.64 2.21 3.38 6.46 3.11 13.19 2.28q1.84-.22 3.4-.49.53-.09 1.06-.09Zm22.79 7.22" style="fill:#004241"/><path d="M103.92 92.73a7 7 0 0 1-.59-4.56c1.53-7.28 4.89-20.92-3.18-28.59C86.07 46.2 70.17 60.9 70.17 60.9s-13.54 12.33-3.76 25.65c7.27 9.9 19.73 6.02 27.36 8.77a7 7 0 0 1 2.83 1.89c.6.65 1.37 1.3 2.32 1.8 2.82 1.49 1.74 8.15 1.74 8.15s4.59-2.44 5.66-7.1c.67-2.89-.99-4.58-2.39-7.34Z" style="stroke-width:0;fill:#eb706b"/><path d="M96.59 97.21c.6.65 1.37 1.3 2.32 1.8 2.82 1.49 1.74 8.15 1.74 8.15s4.59-2.44 5.66-7.1c.67-2.89-.99-4.58-2.39-7.34a7 7 0 0 1-.59-4.56c.69-3.26 1.74-7.81 1.96-12.52l-3.35-1.22a2.45 2.45 0 0 0-3.28 2.07l-.22 2.31a2.46 2.46 0 0 1-3.86 1.77l-4.63-3.28a2.45 2.45 0 0 0-3.85 2.28l.37 3.24a2.46 2.46 0 0 1-2.96 2.68l-1.68-.37a2.46 2.46 0 0 0-2.94 2.8l.84 5.04.02.63c5.04.64 10.15.34 14.01 1.74a7 7 0 0 1 2.83 1.89Z" style="stroke-width:0;fill:#f4ece4"/><path d="M100.65 109.16q-.63 0-1.16-.37a2 2 0 0 1-.81-1.95c.43-2.7.09-5.65-.7-6.06q-1.57-.83-2.85-2.21a5 5 0 0 0-2.04-1.37c-2.25-.81-5.14-.99-8.21-1.18-6.53-.4-14.66-.9-20.09-8.29-8.58-11.68-1.12-23.63 4.03-28.31.16-.15 17.45-15.79 32.7-1.29 8.52 8.1 5.68 21.46 3.98 29.44l-.21 1.01a5 5 0 0 0 .42 3.24q.46.88.9 1.63c1.15 1.99 2.35 4.05 1.65 7.06-1.26 5.48-6.45 8.3-6.67 8.41q-.45.24-.94.23ZM86.94 55.95q-3.03 0-6.29 1.12a29 29 0 0 0-9.13 5.3c-.5.46-12.08 11.31-3.5 22.99 4.32 5.88 10.82 6.28 17.11 6.67 3.36.21 6.53.4 9.32 1.41a9 9 0 0 1 3.61 2.41 7 7 0 0 0 1.79 1.4c1.98 1.05 2.72 3.33 2.94 5.5a8 8 0 0 0 1.57-3.13c.33-1.41-.14-2.29-1.22-4.16q-.5-.85-1.01-1.83a9 9 0 0 1-.77-5.87l.22-1.02c1.53-7.16 4.08-19.15-2.82-25.71q-5.35-5.07-11.83-5.07Z" style="fill:#004241"/><path d="M69.12 91.54c-.91 0-1.73-.62-1.94-1.54-.11-.47-2.66-11.7 3.38-18.87a2 2 0 1 1 3.06 2.58C68.89 79.33 71.05 89 71.07 89.1a2 2 0 0 1-1.95 2.45Z" style="fill:#004241"/></svg>