<svg xmlns="http://www.w3.org/2000/svg" data-name="flatten icons" viewBox="0 0 112 112"><path d="M0 0h112v112H0z" style="fill:none;stroke-width:0"/><path d="M12.18 51.13h-.43c-5.14-.18-9.9-3.78-11.32-8.56-.71-2.4-1.5-8.59 6.61-14.3a21 21 0 0 1 12.72-4.03C17.62 17.38 13.25 11.03 8.19 7.2a2 2 0 0 1-.39-2.8 2 2 0 0 1 2.8-.39 37 37 0 0 1 13.44 20.75c8.8 1.91 16.42 8.68 20.35 13.73a2 2 0 0 1-.35 2.8 2 2 0 0 1-2.81-.35c-.04-.05-4.21-5.35-10.33-9.09a27 27 0 0 0-6.08-2.81c.58 4.79.15 9.36-1.25 13.07-2.17 5.76-6.31 9.03-11.41 9.03Zm7.21-22.95a17.2 17.2 0 0 0-10.04 3.35c-4.28 3.01-6.08 6.52-5.08 9.89.93 3.13 4.21 5.58 7.62 5.71 3.51.11 6.34-2.16 7.95-6.44 1.47-3.89 1.65-8.2.9-12.46q-.68-.05-1.35-.05" style="fill:#004241"/><circle cx="92.08" cy="89.7" r="16.71" style="fill:#6c55a3"/><path d="M99.31 97.98a16.6 16.6 0 0 0 9.3-2.83 17 17 0 0 0 1.39-6.66 16.7 16.7 0 0 0-16.71-16.71 16.6 16.6 0 0 0-9.3 2.83 17 17 0 0 0-1.39 6.66 16.7 16.7 0 0 0 16.71 16.71" style="fill:#9080d5"/><path d="M92.08 108.41c-10.32 0-18.71-8.39-18.71-18.71s8.39-18.71 18.71-18.71 18.71 8.39 18.71 18.71-8.39 18.71-18.71 18.71m0-33.42c-8.11 0-14.71 6.6-14.71 14.71s6.6 14.71 14.71 14.71 14.71-6.6 14.71-14.71-6.6-14.71-14.71-14.71" style="fill:#004241"/><circle cx="81.09" cy="62.89" r="16.71" style="fill:#6c55a3"/><path d="M88.32 71.18a16.6 16.6 0 0 0 9.3-2.83 17 17 0 0 0 1.39-6.66A16.7 16.7 0 0 0 82.3 44.98a16.6 16.6 0 0 0-9.3 2.83 17 17 0 0 0-1.39 6.66 16.7 16.7 0 0 0 16.71 16.71" style="fill:#9080d5"/><path d="M81.09 81.61c-10.32 0-18.71-8.39-18.71-18.71s8.39-18.71 18.71-18.71S99.8 52.58 99.8 62.9s-8.39 18.71-18.71 18.71m0-33.42c-8.11 0-14.71 6.6-14.71 14.71s6.6 14.71 14.71 14.71S95.8 71.01 95.8 62.9s-6.6-14.71-14.71-14.71" style="fill:#004241"/><circle cx="61.48" cy="83.68" r="16.71" style="fill:#6c55a3"/><path d="M68.71 91.96a16.6 16.6 0 0 0 9.3-2.83 17 17 0 0 0 1.39-6.66 16.7 16.7 0 0 0-16.71-16.71 16.6 16.6 0 0 0-9.3 2.83A17 17 0 0 0 52 75.25a16.7 16.7 0 0 0 16.71 16.71" style="fill:#9080d5"/><path d="M61.48 102.39c-10.32 0-18.71-8.39-18.71-18.71s8.39-18.71 18.71-18.71 18.71 8.39 18.71 18.71-8.39 18.71-18.71 18.71m0-33.42c-8.11 0-14.71 6.6-14.71 14.71s6.6 14.71 14.71 14.71 14.71-6.6 14.71-14.71-6.6-14.71-14.71-14.71" style="fill:#004241"/><circle cx="73.59" cy="31.88" r="16.71" style="fill:#6c55a3"/><path d="M80.81 40.16a16.6 16.6 0 0 0 9.3-2.83 17 17 0 0 0 1.39-6.66 16.7 16.7 0 0 0-16.71-16.71 16.6 16.6 0 0 0-9.3 2.83 17 17 0 0 0-1.39 6.66 16.7 16.7 0 0 0 16.71 16.71" style="fill:#9080d5"/><path d="M73.59 50.59c-10.32 0-18.71-8.39-18.71-18.71s8.39-18.71 18.71-18.71S92.3 21.56 92.3 31.88s-8.39 18.71-18.71 18.71m0-33.42c-8.11 0-14.71 6.6-14.71 14.71s6.6 14.71 14.71 14.71 14.71-6.6 14.71-14.71-6.6-14.71-14.71-14.71" style="fill:#004241"/><circle cx="53.98" cy="55.07" r="16.71" style="fill:#6c55a3"/><path d="M61.2 63.35a16.6 16.6 0 0 0 9.3-2.83 17 17 0 0 0 1.39-6.66 16.7 16.7 0 0 0-16.71-16.71 16.6 16.6 0 0 0-9.3 2.83 17 17 0 0 0-1.39 6.66A16.7 16.7 0 0 0 61.2 63.35" style="fill:#9080d5"/><path d="M53.98 73.78c-10.32 0-18.71-8.39-18.71-18.71s8.39-18.71 18.71-18.71 18.71 8.39 18.71 18.71-8.39 18.71-18.71 18.71m0-33.42c-8.11 0-14.71 6.6-14.71 14.71s6.6 14.71 14.71 14.71 14.71-6.6 14.71-14.71-6.6-14.71-14.71-14.71" style="fill:#004241"/><circle cx="31.69" cy="77.2" r="16.71" style="fill:#6c55a3"/><path d="M38.91 85.48a16.6 16.6 0 0 0 9.3-2.83 17 17 0 0 0 1.39-6.66 16.7 16.7 0 0 0-16.71-16.71 16.6 16.6 0 0 0-9.3 2.83 17 17 0 0 0-1.39 6.66 16.7 16.7 0 0 0 16.71 16.71" style="fill:#9080d5"/><path d="M31.69 95.91c-10.32 0-18.71-8.39-18.71-18.71s8.39-18.71 18.71-18.71S50.4 66.88 50.4 77.2s-8.39 18.71-18.71 18.71m0-33.42c-8.11 0-14.71 6.6-14.71 14.71s6.6 14.71 14.71 14.71S46.4 85.31 46.4 77.2s-6.6-14.71-14.71-14.71" style="fill:#004241"/></svg>