<svg xmlns="http://www.w3.org/2000/svg" data-name="flatten icons" viewBox="0 0 112 112"><path d="M0 0h112v112H0z" style="fill:none;stroke-width:0"/><path d="M100.68 99.53S76.77 64.87 75.37 56.7 62.3 58.09 62.3 58.09l30.52 46.22z" style="stroke-width:0;fill:#b5597e"/><path d="M92.82 106.31a2 2 0 0 1-1.67-.9L60.63 59.19a2 2 0 0 1 .4-2.65c1.35-1.1 8.31-6.53 12.92-4.81 1.27.47 2.88 1.66 3.39 4.62 1.08 6.35 18.4 32.49 24.98 42.03.31.45.42 1.01.31 1.55s-.45 1.01-.92 1.29L93.85 106q-.49.3-1.04.29ZM65 58.56l28.43 43.04 4.41-2.68C92.61 91.25 74.7 64.61 73.4 57.04c-.22-1.32-.69-1.49-.84-1.55-1.47-.55-4.92 1.21-7.55 3.07Z" style="fill:#004241"/><path d="m65.71 63.26 12.64-14.53a10.7 10.7 0 0 0 1.21-12.53l-.1-.17c-3.36-5.53-7.81 1.84-7.81 1.84s4.37-12.04-.25-16.4c-4.61-4.37-9.13 0-9.13 0s4.33-11.72.12-15.99S51.18-.3 41.67 7.81s-1.36 31.74-1.36 31.74z" style="stroke-width:0;fill:#88b559"/><path d="M65.71 65.26q-.78 0-1.36-.54l-25.39-23.7a2 2 0 0 1-.53-.81c-.35-1.02-8.48-25.02 1.95-33.92C52.94-4.43 60.96 1.17 63.82 4.08c3.22 3.26 2.61 9.35 1.65 13.58 2.2-.43 4.81-.02 7.31 2.35 3.06 2.9 3.06 8.02 2.38 12.17a5 5 0 0 1 1.41-.22c1.26 0 3.07.53 4.59 3.02l.08.14a12.7 12.7 0 0 1-1.4 14.91L67.2 64.56c-.36.41-.86.66-1.41.68h-.1ZM42.05 38.44l23.51 21.94 11.28-12.97a8.7 8.7 0 0 0 1-10.19l-.08-.14c-.21-.34-.72-1.11-1.18-1.11-.84 0-2.37 1.55-3.22 2.94a2 2 0 0 1-2.57.76 2 2 0 0 1-1.02-2.48c1.01-2.81 3.24-11.45.26-14.27-3.02-2.86-5.84-.5-6.37 0a2 2 0 0 1-3.26-2.13c1.5-4.08 2.98-11.45.57-13.9-4.53-4.59-10.75-3.74-18 2.44-6.77 5.78-3.09 22.52-.92 29.1Z" style="fill:#004241"/><path d="M55.33 65.04S79.89 91.38 90.58 108a4.35 4.35 0 0 0 4.9 1.82l2.18-.65a4.3 4.3 0 0 0 2.54-2.01l1.3-2.27a4.3 4.3 0 0 0-.82-5.35c-8.01-7.4-32.5-30.47-38.38-41.44" style="fill:#c66a8d"/><path d="M94.26 112a6.4 6.4 0 0 1-5.36-2.92C78.43 92.8 54.12 66.67 53.87 66.41a2 2 0 0 1 2.93-2.73c1.01 1.08 24.8 26.66 35.47 43.24a2.35 2.35 0 0 0 2.65.99l2.18-.65a2.3 2.3 0 0 0 1.37-1.09l1.3-2.27c.55-.96.36-2.15-.44-2.89-9.7-8.95-32.89-30.97-38.78-41.96-.52-.97-.15-2.19.82-2.71s2.19-.15 2.71.82c5.76 10.75 30.52 34.03 37.97 40.91a6.3 6.3 0 0 1 1.2 7.82l-1.3 2.27a6.3 6.3 0 0 1-3.71 2.94l-2.18.65q-.89.26-1.79.26Z" style="fill:#004241"/><path d="M60.38 63.69s-7.42 1.25-11.61 3.64q-1.14.65-2.07 1.24a5.44 5.44 0 0 1-7.39-1.61l-.98-1.47a3.1 3.1 0 0 1 .19-3.69l2.13-2.56-13.6-.36a5.4 5.4 0 0 1-5.11-4l-.57-2.07a5.4 5.4 0 0 1 2.22-5.97l4.55-3.05-14.52-3.68a4.9 4.9 0 0 1-3.68-4.81l.14-8.16a8.3 8.3 0 0 1 5.22-7.56l5.52-2.2 2.2-5.86a8.3 8.3 0 0 1 9.08-5.27l9.59 1.55a4.86 4.86 0 0 1 4.07 4.32l1.43 14.08.71-1.17a5.45 5.45 0 0 1 7.69-1.72l1.08.72a5.5 5.5 0 0 1 2.38 5.25l-1.94 14.6 3.57-2.94a3.15 3.15 0 0 1 4.59.63l2.26 3.25a5.44 5.44 0 0 1-.37 6.7c-2.79 3.17-6.6 8.2-6.75 12.15Z" style="stroke-width:0;fill:#aad681"/><path d="M43.82 71.4a7.4 7.4 0 0 1-6.18-3.33l-.98-1.47a5.1 5.1 0 0 1-.12-5.47l-9.56-.25a7.4 7.4 0 0 1-6.99-5.47l-.57-2.07a7.45 7.45 0 0 1 3.04-8.17l.82-.55-10.17-2.58a6.86 6.86 0 0 1-5.19-6.78l.14-8.16a10.25 10.25 0 0 1 6.48-9.38l4.7-1.87 1.89-5.03A10.3 10.3 0 0 1 32.4 4.28l9.59 1.55c3.07.5 5.43 3 5.74 6.09l.97 9.54a7 7 0 0 1 2.22-.88c2-.45 4.05-.07 5.76 1.07l1.08.72a7.5 7.5 0 0 1 3.25 7.18l-1.27 9.58a5.14 5.14 0 0 1 7.14 1.3l2.26 3.25a7.4 7.4 0 0 1-.52 9.16c-3.88 4.41-6.16 8.38-6.25 10.9a2 2 0 0 1-1.67 1.9c-.07.01-7.13 1.22-10.95 3.41q-1.1.63-2.01 1.2a7.4 7.4 0 0 1-3.93 1.13ZM30.76 8.15a6.3 6.3 0 0 0-5.89 4.08l-2.2 5.86c-.2.53-.61.95-1.13 1.16l-5.52 2.2a6.3 6.3 0 0 0-3.96 5.73l-.14 8.16a2.9 2.9 0 0 0 2.17 2.84l14.52 3.68a2 2 0 0 1 .62 3.6l-4.55 3.05a3.45 3.45 0 0 0-1.41 3.78l.57 2.07a3.44 3.44 0 0 0 3.24 2.54l13.6.36c.77.02 1.45.48 1.77 1.17s.21 1.51-.28 2.1l-2.13 2.56c-.3.37-.33.9-.07 1.3l.98 1.47a3.4 3.4 0 0 0 4.67 1.02q.97-.6 2.14-1.28c3.32-1.89 8.34-3.09 10.81-3.6.87-4.07 4.21-8.56 7.04-11.78a3.4 3.4 0 0 0 .23-4.23l-2.26-3.25c-.25-.36-.6-.46-.79-.48a1.1 1.1 0 0 0-.89.25l-3.57 2.94a2 2 0 0 1-3.25-1.8l1.94-14.6c.17-1.3-.42-2.6-1.51-3.33L54.43 25a3.45 3.45 0 0 0-4.87 1.09l-.71 1.17a2 2 0 0 1-2.15.92 2 2 0 0 1-1.55-1.75l-1.43-14.08a2.9 2.9 0 0 0-2.4-2.55l-9.59-1.55a7 7 0 0 0-1-.08Zm29.61 55.53" style="fill:#004241"/><path d="M92.29 102.33c-.56 0-1.11-.23-1.5-.68L62.94 69.91l-7.99-9.58-20.29-24.48-12.26-1.82a2 2 0 0 1-1.69-2.27 2 2 0 0 1 2.27-1.69L35.99 32a2 2 0 0 1 1.25.7l20.77 25.06 7.95 9.54L93.78 99a2 2 0 0 1-1.5 3.32Z" style="fill:#c66a8d"/><path d="M35.7 35.99a2 2 0 0 1-1.99-1.79l-1.37-13.03a2 2 0 0 1 1.78-2.2c1.1-.1 2.08.68 2.2 1.78l1.37 13.03a2 2 0 0 1-1.78 2.2zm1.9 13.23a2 2 0 0 1-.52-3.93l6.44-1.73.53-5.31a2 2 0 1 1 3.98.4l-.66 6.68a2 2 0 0 1-1.47 1.73l-7.78 2.09q-.26.07-.52.07" style="fill:#c66a8d"/></svg>