<svg xmlns="http://www.w3.org/2000/svg" data-name="flatten icons" viewBox="0 0 112 112"><path d="M0 0h112v112H0z" style="fill:none;stroke-width:0"/><path d="M19.77 36.5s-11.22-6.23-17.5-6.52l1.5-4.91s15.86 1.01 19.3 3.25 6.3 6.18 6.3 6.18z" style="fill:#aad681"/><path d="M19.77 38.42q-.53 0-1-.26c-3.01-1.67-11.85-6.05-16.6-6.27a2 2 0 0 1-1.53-.81 1.9 1.9 0 0 1-.29-1.66l1.5-4.91a2 2 0 0 1 2.05-1.38c2.74.18 16.59 1.17 20.29 3.57 3.71 2.41 6.7 6.5 6.82 6.67.38.53.47 1.21.22 1.81s-.78 1.05-1.44 1.18l-9.6 2a2 2 0 0 1-.42.04ZM4.84 28.37c5.7 1.14 12.99 4.88 15.25 6.08l5.69-1.19a21 21 0 0 0-3.83-3.35c-1.9-1.23-10.42-2.33-16.72-2.81z" style="fill:#004241"/><path d="M29.37 34.49h-5.3s-5.95-3.65-9.54-6.83c-3.59-3.17-3.89-15.58-3.89-15.58h4.19s3.29 9.52 3.44 11.83 11.1 8.11 11.1 8.11" style="fill:#aad681"/><path d="M29.37 36.42h-5.29q-.58 0-1.07-.3c-.25-.15-6.14-3.78-9.82-7.03-4.02-3.55-4.49-14.75-4.54-16.96-.01-.52.19-1.02.57-1.39s.89-.58 1.43-.58h4.19a2 2 0 0 1 1.9 1.32c.55 1.59 3.24 9.46 3.52 12.13.71 1.14 5.25 4.18 10.08 6.74a1.9 1.9 0 0 1 .79 2.62q-.09.17-.21.3.45.51.46 1.23c0 1.07-.9 1.93-2 1.93Zm-4.7-3.86h1.61c-9.82-5.48-9.96-7.75-10.01-8.53-.08-1.33-1.66-6.39-2.89-10.02h-.65c.32 4.69 1.37 10.66 3.15 12.24 2.84 2.51 7.31 5.39 8.78 6.32Z" style="fill:#004241"/><path d="M29.37 32.03s-6.45-14.46-6.45-19.95-2.91-8.37-2.91-8.37l-6.37 1.15 1.2 7.22 9.24 22.41 8.42 5.22z" style="fill:#aad681"/><path d="M32.49 41.64q-.57 0-1.08-.31l-8.42-5.22a2 2 0 0 1-.78-.91l-9.23-22.41-.12-.41-1.2-7.22a1.94 1.94 0 0 1 1.61-2.2l6.37-1.15c.66-.12 1.34.09 1.8.55.14.14 3.48 3.52 3.48 9.71 0 4.17 4.54 15.26 6.29 19.19l.02.06 3.12 7.69c.32.78.08 1.66-.59 2.2q-.57.44-1.27.44Zm-6.8-8.44 2.68 1.66-.86-2.11c-.74-1.65-6.6-15-6.6-20.68 0-3.09-1.06-5.2-1.75-6.25l-3.24.59.85 5.15z" style="fill:#004241"/><path d="M70.68 79.58c-2.16-4.06-10.92-7.72-12.18-12.01S42.66 51.95 40.22 48.7s1.59-8.93 0-11.37-6.75-7.09-10.85-5.31l-9.6 4.47s-3.37 6.05 0 7.9 4.4 3.47 5.36 9.97 5.59 15.83 13.17 19.08 14.4 7.2 17.34 10.45 5.05 7.71 10.95 8.93c0 0 20.97 9.85 27.28 12.69 3.43 1.54 9.47 2.13 14.28 2.34 1.7.08 2.23-2.2.64-2.82a120 120 0 0 0-10.71-3.58C86.71 98.2 72.85 83.64 70.69 79.58Z" style="stroke-width:0;fill:#fbe4ac"/><path d="M108.22 109.78h-.17c-6.94-.31-12-1.16-15.03-2.52-5.92-2.66-24.88-11.56-27.1-12.6-5.15-1.15-7.72-4.42-10-7.32a43 43 0 0 0-1.79-2.18c-2.58-2.85-8.96-6.66-16.65-9.96-7.92-3.39-13.21-12.92-14.34-20.57-.94-6.39-1.86-7.19-4.37-8.56-4-2.19-2.37-7.62-.77-10.48q.31-.55.89-.82l9.6-4.47c5.54-2.41 11.53 3.12 13.41 6.01 1.16 1.78.62 4.04.09 6.23-.47 1.95-.96 3.97-.16 5.04.78 1.04 3.34 3.35 6.06 5.81 6.77 6.11 11.64 10.67 12.52 13.67.5 1.7 3.24 3.74 5.66 5.54 2.66 1.98 5.17 3.85 6.38 6.11 2.1 3.95 15.6 17.88 26.18 20.9 3.88 1.11 7.54 2.33 10.89 3.64a3.3 3.3 0 0 1 2.11 3.87 3.44 3.44 0 0 1-3.43 2.67Zm-.19-2.96h.01zM21.26 37.94c-.78 1.66-1.49 4.23-.5 4.77 4.08 2.24 5.33 4.47 6.35 11.37.95 6.44 5.48 14.8 12 17.59 8.31 3.56 15.05 7.65 18.04 10.94q1.04 1.17 1.97 2.39c2.07 2.64 4.03 5.13 7.89 5.93q.24.04.46.15c.21.1 21.03 9.87 27.25 12.68 2.09.94 5.67 1.62 10.44 1.98a127 127 0 0 0-7.64-2.44c-12.3-3.52-26.38-18.67-28.6-22.84-.79-1.49-3.06-3.18-5.26-4.82-3.05-2.27-6.21-4.62-7.07-7.54-.65-2.2-7.38-8.28-11.4-11.91-3.11-2.81-5.56-5.02-6.57-6.36-1.87-2.49-1.11-5.64-.49-8.17.26-1.08.7-2.88.42-3.3-1.47-2.25-5.75-5.7-8.34-4.58l-8.93 4.16Z" style="fill:#004241"/><path d="m32.49 46.88 7.02-2.16" style="fill:#aad681"/><path d="M32.49 48.81c-.85 0-1.63-.52-1.9-1.34a1.9 1.9 0 0 1 1.3-2.42l7.02-2.16a2 2 0 0 1 2.51 1.25 1.9 1.9 0 0 1-1.3 2.42l-7.02 2.16q-.3.09-.61.09" style="fill:#004241"/><path d="M32.49 69.33s7.25-1.26 8.73-3.32" style="fill:#aad681"/><path d="M32.49 71.26c-.95 0-1.79-.65-1.97-1.59a1.93 1.93 0 0 1 1.61-2.24c3.35-.58 6.89-1.78 7.44-2.52a2.1 2.1 0 0 1 2.79-.47c.9.61 1.13 1.79.5 2.66-1.81 2.52-8.12 3.79-10.02 4.12q-.18.03-.36.03Z" style="fill:#004241"/><path d="m59.29 74.26 3.65-1.6" style="fill:#aad681"/><path d="M59.29 76.19a2 2 0 0 1-1.82-1.13 1.9 1.9 0 0 1 .99-2.55l3.66-1.6c1.01-.44 2.19-.01 2.65.96s.01 2.11-.99 2.55l-3.66 1.6q-.4.18-.83.17" style="fill:#004241"/><path d="m66.58 92.82 4.41-2.55" style="stroke-width:0;fill:#f4efcb"/><path d="M66.58 94.75c-.68 0-1.34-.33-1.72-.94a1.9 1.9 0 0 1 .69-2.65l4.41-2.55a2.04 2.04 0 0 1 2.74.66c.57.91.26 2.1-.69 2.65l-4.41 2.55q-.5.28-1.03.27Z" style="fill:#004241"/><path d="M26.39 59.25s2.71-2.13 4.34-1.34 4.76-.32 5.28-1.44" style="fill:#aad681"/><path d="M26.39 61.18a2 2 0 0 1-1.55-.71c-.7-.83-.57-2.04.29-2.71.62-.49 3.86-2.86 6.5-1.56.48.23 2.11-.16 2.61-.63a2.04 2.04 0 0 1 2.58-.86c1.01.43 1.46 1.57 1.01 2.55-.63 1.36-2.25 2.09-3.16 2.4-.84.29-2.97.86-4.79 0-.4 0-1.51.52-2.23 1.08-.37.29-.82.43-1.26.43Zm7.87-5.64" style="fill:#004241"/></svg>