<svg xmlns="http://www.w3.org/2000/svg" width="114" height="77" fill="none"><path fill="#B1976C" fill-rule="evenodd" d="M43.423 94.36h4.457c3.718-9.118 8.93-21.806 10.027-23.965.788-1.55 1.587-2.96 2.651-3.895.967-.85 2.276-1.38 4.236-1.38h.173l10.62 41.603.062.198c.409 1.492 3.252 10.949 9.572 10.949 3.834 0 5.78-2.671 6.725-6.68.773-3.265.844-7.458.844-11.637v-35.45c1.16-.535 2.217-1.31 3.219-2.394l.11-.132c2.087-2.323 3.785-5.99 5.586-11.74l.141-.453 4.638-14.799h-4.338l-4.252 13.568-.142.453c-1.621 5.173-3.052 8.368-4.69 10.2l-.101.102c-1.44 1.557-3.202 2.068-5.628 2.068H64.79c-3.093 0-5.264.93-6.957 2.416-1.597 1.402-2.637 3.2-3.623 5.14-1.209 2.39-7.069 16.697-10.787 25.828m45.22 5.196c0 3.943-.062 7.873-.73 10.697-.492 2.084-1.299 3.473-2.693 3.473-3.314 0-5.277-6.733-5.583-7.859l-.034-.161-10.36-40.585h18.094q.674 0 1.308-.04z" clip-rule="evenodd"/><path fill="#E4CEAA" fill-rule="evenodd" d="M59.537 103.875c.035-.068 12.154-30.052 13.896-33.48.788-1.55 1.587-2.96 2.651-3.895.967-.849 2.276-1.38 4.236-1.38h.173l10.62 41.604.062.197c.409 1.492 3.252 10.95 9.572 10.95 3.835 0 5.779-2.672 6.727-6.68.772-3.265.843-7.458.843-11.638V64.105c1.16-.535 2.216-1.31 3.219-2.394l.112-.132c2.087-2.324 3.785-5.991 5.586-11.74l.141-.454c3.638-11.61 7.275-23.22 10.932-34.812.897-2.849 1.894-5.284 3.116-7.057 1.061-1.54 2.289-2.563 3.779-2.877 1.585-.332 3.673-.239 5.656-.15.998.044 1.973.088 2.703.088a2.072 2.072 0 1 0 0-4.145c-.918 0-1.715-.035-2.526-.07-2.238-.1-4.597-.205-6.676.231-2.642.556-4.685 2.177-6.338 4.578-1.492 2.166-2.656 4.969-3.666 8.174a18990 18990 0 0 0-10.931 34.813l-.142.452c-1.62 5.174-3.051 8.368-4.689 10.2l-.1.103c-1.441 1.557-3.202 2.068-5.628 2.068H80.323c-3.092 0-5.263.93-6.957 2.416-1.596 1.402-2.637 3.2-3.622 5.14-1.806 3.554-13.88 33.445-13.914 33.515a2.07 2.07 0 0 0 .94 2.769 2.075 2.075 0 0 0 2.767-.945m44.634-4.32c0 3.943-.063 7.873-.73 10.697-.494 2.084-1.299 3.473-2.695 3.473-3.313 0-5.278-6.733-5.583-7.859l-.034-.161L84.77 65.12h18.094q.674 0 1.308-.04z" clip-rule="evenodd"/><path fill="#5B7142" fill-rule="evenodd" d="m54.973 26.615-1.688-.193c-3.744-.428-.148-8.53.244-10.382 1.968-9.272-10.067-10.954-9.86 1.955.108 6.719 6.859 13.023 11.304 8.62" clip-rule="evenodd"/><path fill="#749067" fill-rule="evenodd" d="M47.415 26.231q.297.264.604.497l1.055.272c.383.347.82.655 1.317.913q.619.162 1.242.161a7 7 0 0 1-.797-.309q-.096-.044-.191-.091l.536-.573a.165.165 0 0 0-.008-.233.164.164 0 0 0-.233.01l-.596.636a6 6 0 0 1-1.071-.776l-.016-.015a6 6 0 0 1-.532-.563l1.203-.868a.163.163 0 1 0-.192-.266l-1.212.876a6.3 6.3 0 0 1-.731-1.308 7 7 0 0 1-.292-.83l2.028-1.207a.164.164 0 0 0 .056-.225.166.166 0 0 0-.226-.057l-1.947 1.158a11 11 0 0 1-.296-2.335v-.04l3.376-2.171a.164.164 0 0 0 .05-.228.166.166 0 0 0-.228-.05l-3.2 2.06c.004-.677.055-1.367.145-2.06l.001-.01q.086-.668.218-1.333c.435-.337 3.593-2.781 3.93-3.078a.165.165 0 0 0 .014-.233.165.165 0 0 0-.232-.014c-.29.257-2.696 2.121-3.61 2.83a26.4 26.4 0 0 1 1.757-5.255.164.164 0 1 0-.3-.137c-.421.92-.837 1.983-1.194 3.122l-1.329-1.887a.165.165 0 0 0-.23-.039.166.166 0 0 0-.038.23l1.477 2.097a25 25 0 0 0-.554 2.234q-.112.56-.193 1.122l-2.27-2.024a.166.166 0 0 0-.232.013.164.164 0 0 0 .013.232l2.435 2.172a16.6 16.6 0 0 0-.134 2.456q.01.331.034.656l-2.026-1.006a.164.164 0 1 0-.147.295l2.208 1.096c.06.54.154 1.07.291 1.573l.006.017a8 8 0 0 0 .2.633l-1.168-.456a.164.164 0 0 0-.213.095.166.166 0 0 0 .094.213l1.453.566q.094.218.2.426c.245.48.544.928.903 1.331z" clip-rule="evenodd"/><path fill="#749067" fill-rule="evenodd" d="m54.74 25.97-1.62.916c-3.595 2.028-5.62-7.467-6.461-9.362-4.22-9.486-15.973-3.235-7.486 8.076 4.419 5.887 14.46 7.134 15.568.37" clip-rule="evenodd"/><path fill="#5B7142" fill-rule="evenodd" d="M47.795 30.488q.431.045.855.052l1.11-.437a7 7 0 0 0 1.755-.038q.652-.255 1.204-.656-.46.15-.904.237-.114.023-.23.043l.108-.854a.18.18 0 0 0-.157-.2.18.18 0 0 0-.2.156l-.119.95a6.3 6.3 0 0 1-1.448 0l-.025-.004a6 6 0 0 1-.834-.158l.508-1.543a.18.18 0 1 0-.341-.113l-.511 1.556a6.6 6.6 0 0 1-.993-.412 8 8 0 0 1-.498-.277 9 9 0 0 1-.79-.549l1.02-2.374a.18.18 0 0 0-.095-.237.18.18 0 0 0-.236.096l-.98 2.28a12 12 0 0 1-1.763-1.88l-.028-.036 1.595-4.095a.18.18 0 0 0-.337-.13l-1.512 3.883a19 19 0 0 1-1.196-1.919l-.005-.008a23 23 0 0 1-.665-1.322c.17-.58 1.397-4.778 1.503-5.258a.18.18 0 1 0-.35-.078c-.092.413-1.025 3.616-1.381 4.83a29 29 0 0 1-1.823-5.787.18.18 0 0 0-.212-.142.18.18 0 0 0-.14.212c.216 1.087.532 2.297.949 3.535l-2.392-.817a.18.18 0 0 0-.23.112.18.18 0 0 0 .112.227l2.66.909c.275.78.59 1.566.945 2.338q.263.567.552 1.119l-3.316-.335a.18.18 0 0 0-.198.16.183.183 0 0 0 .163.198l3.557.36c.44.8.927 1.563 1.461 2.262q.22.289.452.56l-2.444.413a.18.18 0 1 0 .06.353l2.662-.449c.4.443.825.849 1.27 1.207l.016.012q.286.229.585.432l-1.33.347a.18.18 0 1 0 .091.348l1.653-.43q.222.131.451.25a7 7 0 0 0 1.657.599z" clip-rule="evenodd"/><path fill="#B1976C" fill-rule="evenodd" d="M96.204 35.59a13468 13468 0 0 1 6.679-21.245c1.01-3.206 2.174-6.008 3.666-8.175 3.191-4.63 6.635-5.036 11.742-5.036a2.071 2.071 0 1 1 0 4.145c-3.641 0-6.024-.125-8.342 3.24-1.222 1.771-2.219 4.208-3.116 7.057a13617 13617 0 0 0-6.293 20.014z" clip-rule="evenodd"/><path fill="#749067" fill-rule="evenodd" d="M112.61 12.042c7.166 7.166 7.166 18.786 0 25.953s-18.785 7.166-25.953 0-7.167-18.787 0-25.953 18.787-7.167 25.953 0" clip-rule="evenodd"/><path fill="#4B6740" fill-rule="evenodd" d="M112.611 12.04c5.985 5.985 5.027 16.646-2.139 23.814-7.167 7.166-17.83 8.124-23.813 2.139-5.985-5.983-5.027-16.646 2.141-23.812 7.165-7.168 17.827-8.125 23.811-2.14" clip-rule="evenodd"/><path fill="#749067" fill-rule="evenodd" d="M112.611 12.038c4.598 4.596 2.514 14.132-4.652 21.299s-16.703 9.25-21.3 4.654c-4.596-4.596-2.513-14.132 4.653-21.299 7.167-7.167 16.703-9.251 21.299-4.654" clip-rule="evenodd"/><path fill="#4B6740" fill-rule="evenodd" d="M112.61 12.038c2.784 2.782-.772 10.848-7.938 18.014-7.167 7.166-15.233 10.72-18.015 7.938s.772-10.848 7.939-18.014c7.167-7.168 15.232-10.722 18.014-7.938" clip-rule="evenodd"/><path fill="#749067" fill-rule="evenodd" d="M112.611 12.038c1.653 1.652-2.818 8.802-9.985 15.968-7.166 7.168-14.315 11.638-15.968 9.985-1.653-1.652 2.818-8.8 9.985-15.968 7.167-7.166 14.316-11.638 15.968-9.985" clip-rule="evenodd"/><path fill="#726840" fill-rule="evenodd" d="M78.952 34.415a501 501 0 0 1 .52-4.174c.027-.768.65-19.573-3.111-24.088a.354.354 0 1 1 .544-.453c2.629 3.154 3.22 12.709 3.314 18.937 1.16-8.4 1.94-12.842 3.554-17.4a.355.355 0 0 1 .669.236c-1.533 4.33-2.224 7.993-3.38 16.243 1.767-6.435 4.87-14.091 10.114-17.92a.354.354 0 0 1 .418.572C82.93 12.692 80.244 29.93 79.745 33.76l-.091.766a.36.36 0 0 1-.393.314.356.356 0 0 1-.312-.395zM67.097 12.72s-2.89-1.826-3.26-4.321c-.369-2.496.756-3.464.663-4.111-.093-.648-1.553-1.508-3.291-.913s-.362 1.872-.273 4.496-.193 4.944-1.718 6.572c-1.526 1.627 7.879-1.724 7.879-1.724" clip-rule="evenodd"/><path fill="#928459" fill-rule="evenodd" d="M64.487 4.213c-.187-.637-1.6-1.41-3.274-.838-.528.181-.77.426-.845.753.161.554 1.507 1.037 2.777.99 1.444-.054 1.35-.86 1.342-.905" clip-rule="evenodd"/><path fill="#E84D09" fill-rule="evenodd" d="M63.867 14.542c-.306-.128-.91-.333-1.854-.466-13.605-1.915-19.276 9.61-16.017 19.06 2.974 8.626 11.473 13.365 22.441 8.416z" clip-rule="evenodd"/><path fill="#EC6F00" fill-rule="evenodd" d="M63.722 13.667c-.25-.149-.74-.394-1.5-.578-10.932-2.649-14.927 9.301-11.898 19.46 2.764 9.272 9.755 14.679 18.274 9.938z" clip-rule="evenodd"/><path fill="#E84D09" fill-rule="evenodd" d="M63.87 14.54c.248-.22.749-.613 1.598-1.05 12.217-6.282 21.366 2.736 21.396 12.73.028 9.125-6.438 16.394-18.424 15.33z" clip-rule="evenodd"/><path fill="#EC6F00" fill-rule="evenodd" d="M63.722 13.668c.187-.224.569-.616 1.226-1.04C74.4 6.53 82.105 16.503 82.585 27.093c.439 9.666-4.384 17.072-13.988 15.397z" clip-rule="evenodd"/><path fill="#EE7E00" fill-rule="evenodd" d="M62.665 42.26c-7.664-6.595-11.869-28.27.77-30.285 12.245-2.19 15.57 18.395 11.093 27.584-2.271 4.66-7.832 6.169-11.864 2.702" clip-rule="evenodd"/><path fill="#726840" fill-rule="evenodd" d="M69.46 22.224s-.505-.88-.257-1.586c.25-.706.678-.804.745-.987.065-.183-.2-.611-.737-.695-.539-.084-.355.44-.696 1.142-.34.7-.736 1.27-1.361 1.486-.627.215 2.306.64 2.306.64" clip-rule="evenodd"/><path fill="#928459" fill-rule="evenodd" d="M69.954 19.63c.039-.194-.225-.593-.743-.674-.164-.026-.262.006-.327.081-.035.167.251.48.592.644.386.185.472-.04.478-.052" clip-rule="evenodd"/><path fill="#E51312" fill-rule="evenodd" d="M68.362 22.25a2.2 2.2 0 0 0-.422-.378c-3.305-2.387-6.39-.15-6.844 2.782-.415 2.676 1.158 5.097 4.722 5.319z" clip-rule="evenodd"/><path fill="#E7350F" fill-rule="evenodd" d="M68.444 22.006a1.7 1.7 0 0 0-.314-.36c-2.5-2.21-5.205.371-5.82 3.457-.558 2.815.526 5.204 3.418 5.14z" clip-rule="evenodd"/><path fill="#E51312" fill-rule="evenodd" d="M68.359 22.255a2.3 2.3 0 0 1 .566-.054c4.076.045 5.226 3.68 3.848 6.306-1.258 2.397-3.962 3.41-6.959 1.469z" clip-rule="evenodd"/><path fill="#E7350F" fill-rule="evenodd" d="M68.442 22.003a1.6 1.6 0 0 1 .466-.104c3.326-.29 3.965 3.395 2.624 6.24-1.225 2.598-3.516 3.873-5.805 2.102z" clip-rule="evenodd"/><path fill="#E84A0A" fill-rule="evenodd" d="M64.203 29.362c-1.097-2.792.804-9.063 4.4-7.84 3.517 1.121 1.536 6.986-.913 8.775-1.242.908-2.91.534-3.487-.935" clip-rule="evenodd"/><path fill="#726840" fill-rule="evenodd" d="M93.902 22.332s-.833-.58-.91-1.325c-.076-.744.27-1.016.251-1.209s-.44-.467-.964-.313c-.522.152-.132.55-.14 1.33-.01.779-.124 1.462-.597 1.925-.473.46 2.36-.408 2.36-.408" clip-rule="evenodd"/><path fill="#928459" fill-rule="evenodd" d="M93.24 19.776c-.046-.192-.455-.44-.959-.292-.16.046-.233.116-.26.212.041.167.433.326.81.33.429.004.411-.237.41-.25" clip-rule="evenodd"/><path fill="#E51312" fill-rule="evenodd" d="M92.92 22.834a2.3 2.3 0 0 0-.543-.163c-4.007-.749-5.843 2.592-5.003 5.438.766 2.596 3.223 4.114 6.541 2.793z" clip-rule="evenodd"/><path fill="#E7350F" fill-rule="evenodd" d="M92.888 22.566a1.6 1.6 0 0 0-.437-.191c-3.204-.932-4.55 2.557-3.788 5.609.697 2.786 2.697 4.483 5.286 3.191z" clip-rule="evenodd"/><path fill="#E51312" fill-rule="evenodd" d="M92.92 22.835c.077-.063.23-.172.487-.29 3.706-1.7 6.298 1.095 6.174 4.06-.113 2.705-2.127 4.773-5.666 4.297z" clip-rule="evenodd"/><path fill="#E7350F" fill-rule="evenodd" d="M92.89 22.567c.058-.064.177-.174.377-.292 2.884-1.682 5.035 1.377 5.036 4.522.002 2.872-1.526 5.002-4.352 4.378z" clip-rule="evenodd"/><path fill="#E84A0A" fill-rule="evenodd" d="M92.192 31.034c-2.184-2.057-3.14-8.54.633-8.97 3.659-.485 4.371 5.662 2.921 8.325-.736 1.353-2.404 1.726-3.554.645" clip-rule="evenodd"/><path fill="#E4CEAA" fill-rule="evenodd" d="M113.391 20.067c-1.184 2.06-2.38 6.975-2.971 9.63-.82 3.688.917 4.602 3.493 1.838 1.854-1.99 5.225-5.757 6.254-7.902 1.99-4.148-4.485-7.554-6.776-3.566" clip-rule="evenodd"/><path fill="#F1E5D1" fill-rule="evenodd" d="M113.392 20.073q.103-.178.216-.337.196.034.389.077l.019.008h.02c.01.004.025.007.034.01a8.3 8.3 0 0 1 1.7.624q.105.051.202.111c.08.047.357.233.404.305.146.144.41.417.146.58-.217.127-.297.035-.511-.03-.129-.039-.261-.093-.389-.14-.058-.02-.132-.053-.187-.07a14 14 0 0 0-1.587-.46l-.031-.008q-.01-.001-.017-.005-.011 0-.019-.002a24 24 0 0 0-.658-.148q.135-.282.269-.515m-2.019 5.716.009.005.016.001c.425.122 1.094.379 1.466.608.238.148.435.292.285.575-.142.27-.333.225-.603.157-.472-.132-.926-.3-1.409-.428l-.005-.002q.117-.45.241-.916m2.213 6.088-.007-.005c-.369-.311-.734-.552-1.116-.838-.192-.148-.546-.387-.396-.672.154-.293.567-.113.794-.02.405.168.966.512 1.312.788.003.001.008.009.008.012l.013.005.047.038a25 25 0 0 1-.655.692m4.578-5.241c-.282-.33-.545-.652-.897-.958l-.012-.015-.016-.01c-.535-.486-1.152-.852-1.781-1.206-.175-.11-.361-.207-.539-.32-.201-.13-.98-.556-.826-.886.186-.312.977.089 1.197.18q.288.126.569.263c.686.35 1.421.75 2.006 1.256l.014.016.019.014c.3.268.569.6.816.943q-.264.357-.55.723m-.643-4.253c-.118-.15-.041-.288.042-.432.078-.135.159-.28.336-.27.098.006.403.128.498.177l.005.004h.005c.102.054.381.237.45.318.127.151.064.288-.017.441-.078.151-.155.283-.348.267-.108-.008-.418-.132-.521-.184q-.002 0-.003-.006h-.006c-.103-.05-.379-.232-.441-.315m-3.279 5.171c.071-.133.151-.271.32-.283.061-.003.261.052.317.081l.002.005h.004c.057.029.216.164.247.216.086.145.019.289-.052.424s-.153.271-.32.283a1 1 0 0 1-.317-.083l-.002-.004-.003.001a1.1 1.1 0 0 1-.248-.216c-.086-.145-.017-.289.052-.424" clip-rule="evenodd"/><path fill="#415832" fill-rule="evenodd" d="M113.322 15.239c-.174 1.029-1.042 3.072-1.525 4.16-.672 1.514-1.379 1.4-1.42-.229-.029-1.172-.046-3.358.191-4.377.46-1.97 3.089-1.545 2.754.446" clip-rule="evenodd"/><path fill="#5B7142" fill-rule="evenodd" d="M111.715 16.675c.047 1.043-.371 3.223-.615 4.388-.338 1.621-1.054 1.658-1.435.074-.276-1.139-.752-3.272-.735-4.319.034-2.024 2.697-2.16 2.785-.143" clip-rule="evenodd"/><path fill="#749067" fill-rule="evenodd" d="M111.542 16.717c-.417.958-.807 3.14-.997 4.318-.264 1.635.39 1.926 1.315.583.666-.965 1.875-2.786 2.232-3.769.692-1.902-1.745-2.983-2.55-1.132" clip-rule="evenodd"/><path fill="#F1E5D1" fill-rule="evenodd" d="M106.48 23.467c-.52 2.32-.205 7.368.02 10.078.312 3.764 2.243 4.123 3.881.718 1.18-2.45 3.281-7.05 3.628-9.402.671-4.55-6.525-5.88-7.529-1.394" clip-rule="evenodd"/><path fill="#E4CEAA" fill-rule="evenodd" d="M106.482 23.462q.045-.201.108-.386.196-.026.393-.043l.02.002.019-.004a8.5 8.5 0 0 1 1.846.088q.114.02.226.047c.09.021.41.116.476.172.183.093.517.277.313.511-.17.186-.275.122-.498.123-.135.002-.277-.01-.412-.017-.061-.003-.143-.013-.201-.012a14 14 0 0 0-1.651.032c-.008.002-.023.002-.032.003l-.019-.001-.019.003c-.209.014-.44.03-.672.053q.045-.307.103-.571m-.232 6.058q.006 0 .01.003.007-.004.016-.003c.441-.01 1.158.037 1.581.146.271.07.502.15.444.464-.056.299-.253.313-.53.328-.489.015-.972-.012-1.472.01h-.004q-.026-.467-.045-.948m3.921 5.155-.008-.001c-.444-.187-.865-.31-1.314-.468-.228-.085-.635-.209-.577-.525.059-.323.508-.276.751-.252a6.3 6.3 0 0 1 1.5.37q.008 0 .014.003l.055.023-.207.434q-.108.218-.214.416m2.816-6.362c-.366-.23-.713-.458-1.141-.647q-.01-.004-.016-.01l-.017-.006c-.656-.305-1.354-.47-2.058-.623-.2-.052-.408-.09-.61-.145-.229-.064-1.1-.24-1.052-.6.084-.355.959-.207 1.197-.185q.31.035.622.083c.759.129 1.579.294 2.288.605q.01.005.019.012l.022.007a5.8 5.8 0 0 1 1.058.657q-.149.418-.312.852m-1.877-3.869c-.156-.109-.123-.264-.087-.425.034-.152.068-.315.241-.357.094-.023.422.003.528.022l.005.002.006-.001c.113.02.433.113.523.17.166.107.146.255.114.427-.031.168-.066.316-.254.36-.105.023-.439-.002-.552-.024l-.004-.003-.006.002c-.112-.02-.428-.113-.514-.173m-1.595 5.91c.028-.149.064-.305.221-.365a1 1 0 0 1 .328-.014l.003.003.004-.003c.063.013.256.091.301.132.126.113.103.271.075.42s-.064.304-.221.363a1 1 0 0 1-.328.016l-.002-.002h-.005a1 1 0 0 1-.3-.131c-.125-.112-.103-.27-.076-.418" clip-rule="evenodd"/><path fill="#BA3F21" fill-rule="evenodd" d="m54.843 60.99 35.843-.046c1.37-.001 3.141-1.116 3.928-2.489l14.521-25.296c.787-1.372.318-2.493-1.049-2.49l-70.642.252c-1.366.004-1.84 1.123-1.048 2.487l14.521 25.094c.79 1.367 2.557 2.49 3.926 2.489" clip-rule="evenodd"/><path fill="#E76034" fill-rule="evenodd" d="M34.209 26.531h36.983a3.22 3.22 0 0 1 3.21 3.21 3.22 3.22 0 0 1-3.21 3.21H34.21a3.22 3.22 0 0 1-3.21-3.21 3.22 3.22 0 0 1 3.209-3.21" clip-rule="evenodd"/><path fill="#E76034" fill-rule="evenodd" d="m80.322 60.991 27.908-.046c1.368-.002 3.561-.951 3.927-2.49l6.02-25.297c.367-1.538.318-2.493-1.048-2.489l-54.207.251c-1.365.006-1.838 1.122-1.049 2.487l14.52 25.094c.791 1.368 2.56 2.492 3.929 2.49" clip-rule="evenodd"/><path fill="#EC8E6E" fill-rule="evenodd" d="M58.938 26.531h59.893a3.22 3.22 0 0 1 3.21 3.21 3.22 3.22 0 0 1-3.21 3.21H58.938a3.22 3.22 0 0 1-3.21-3.21 3.22 3.22 0 0 1 3.21-3.21" clip-rule="evenodd"/><path fill="#749067" fill-rule="evenodd" d="M73.12 26.531h1.973c4.382 0 1.299 9.832 1.09 12.02-1.048 10.966 13.073 11.32 11.128-3.559-1.013-7.744-9.64-14.134-14.192-8.46" clip-rule="evenodd"/><path fill="#5B7142" fill-rule="evenodd" d="M81.897 25.972a11 11 0 0 0-.763-.493l-1.254-.176a7.3 7.3 0 0 0-1.642-.88 5.7 5.7 0 0 0-1.454-.023q.503.102.96.251.119.04.233.082l-.544.732a.19.19 0 0 0 .04.268.19.19 0 0 0 .266-.04l.605-.815q.735.314 1.338.754l.022.015q.367.27.688.58L79.12 27.39a.19.19 0 1 0 .259.281l1.283-1.17q.386.42.704.898.167.25.314.515.248.443.446.921l-2.181 1.662a.19.19 0 0 0-.037.267.193.193 0 0 0 .269.035l2.096-1.595c.307.828.518 1.724.648 2.659l.007.047-3.61 2.952a.193.193 0 0 0-.028.27.19.19 0 0 0 .269.028l3.423-2.801a20 20 0 0 1 .105 2.396v.011a25 25 0 0 1-.074 1.57c-.459.445-3.784 3.685-4.132 4.073a.19.19 0 1 0 .284.255c.3-.334 2.832-2.806 3.794-3.744a30.6 30.6 0 0 1-1.335 6.298c-.034.1.023.21.122.243.1.033.207-.023.24-.122.368-1.119.706-2.402.967-3.763l1.784 2.003c.07.078.191.085.27.015a.19.19 0 0 0 .014-.27l-1.982-2.226a29 29 0 0 0 .345-2.654q.055-.66.074-1.32l2.89 2.038a.19.19 0 0 0 .219-.312l-3.1-2.187c.01-.969-.042-1.928-.171-2.853a16 16 0 0 0-.124-.753l2.472.893a.19.19 0 0 0 .129-.359l-2.694-.975a12 12 0 0 0-.544-1.778l-.007-.02q-.145-.361-.315-.705l1.41.372a.19.19 0 0 0 .233-.136.19.19 0 0 0-.137-.232l-1.751-.463a9 9 0 0 0-.288-.466 7.4 7.4 0 0 0-1.219-1.418z" clip-rule="evenodd"/><path fill="#749067" fill-rule="evenodd" d="M52.205 26.53h-1.218c-2.7 0-.801 6.063-.672 7.413.646 6.762-8.062 6.98-6.863-2.196.624-4.776 5.944-8.715 8.753-5.217" clip-rule="evenodd"/><path fill="#5B7142" fill-rule="evenodd" d="M46.79 26.186a6 6 0 0 1 .47-.305l.773-.109q.45-.325 1.012-.543.454-.064.897-.013a5 5 0 0 0-.592.155l-.144.05.335.453a.117.117 0 0 1-.023.164.12.12 0 0 1-.165-.025l-.373-.504a4.3 4.3 0 0 0-.826.466l-.013.009q-.227.165-.425.358l.785.716c.05.043.052.119.009.167a.12.12 0 0 1-.167.008l-.791-.722a4.5 4.5 0 0 0-.629.872 5 5 0 0 0-.274.567l1.344 1.026a.12.12 0 0 1 .022.166.12.12 0 0 1-.166.023l-1.291-.984a7.8 7.8 0 0 0-.4 1.637l-.004.029 2.226 1.821a.12.12 0 0 1 .018.167.12.12 0 0 1-.166.016l-2.111-1.727c-.053.482-.073.978-.064 1.478v.007q.007.482.046.966c.283.276 2.332 2.274 2.547 2.512.044.05.04.124-.008.167a.12.12 0 0 1-.167-.008c-.186-.208-1.746-1.73-2.34-2.31.144 1.41.46 2.78.823 3.884a.119.119 0 0 1-.225.074 19 19 0 0 1-.595-2.319l-1.1 1.234a.117.117 0 0 1-.167.01.116.116 0 0 1-.009-.166l1.222-1.372a18 18 0 0 1-.212-1.636 15 15 0 0 1-.046-.816l-1.782 1.257a.12.12 0 0 1-.164-.027.12.12 0 0 1 .027-.164l1.912-1.349A11.7 11.7 0 0 1 46 29.323l-1.524.55a.117.117 0 0 1-.15-.07.116.116 0 0 1 .07-.149l1.66-.6a7 7 0 0 1 .336-1.096l.004-.014q.09-.223.195-.433l-.868.229a.119.119 0 0 1-.06-.23l1.079-.284q.085-.148.177-.287.319-.485.752-.874z" clip-rule="evenodd"/></svg>