<svg xmlns="http://www.w3.org/2000/svg" width="114" height="77" fill="none"><path fill="#B1976C" fill-rule="evenodd" d="M43.42 94.36h4.46c3.72-9.12 8.93-21.8 10.03-23.96.79-1.56 1.58-2.97 2.65-3.9.97-.85 2.27-1.38 4.23-1.38h.18l10.62 41.6.06.2c.4 1.5 3.25 10.95 9.57 10.95 3.84 0 5.78-2.67 6.73-6.68.77-3.26.84-7.46.84-11.64V64.1a10 10 0 0 0 3.22-2.4l.1-.12c2.1-2.33 3.8-6 5.6-11.74l.14-.46 4.63-14.8h-4.33l-4.26 13.57-.14.46c-1.62 5.17-3.05 8.36-4.69 10.2l-.1.1c-1.44 1.55-3.2 2.07-5.63 2.07H64.8c-3.1 0-5.26.93-6.96 2.41-1.6 1.4-2.63 3.2-3.62 5.14-1.2 2.4-7.07 16.7-10.79 25.83m45.22 5.2c0 3.94-.06 7.87-.73 10.7-.49 2.08-1.3 3.47-2.69 3.47-3.31 0-5.28-6.74-5.58-7.86l-.04-.16-10.36-40.59h18.1q.67 0 1.3-.04z" clip-rule="evenodd"/><path fill="#E4CEAA" fill-rule="evenodd" d="M59.54 103.88c.03-.07 12.15-30.06 13.9-33.48.78-1.55 1.58-2.96 2.64-3.9.97-.85 2.28-1.38 4.24-1.38h.17l10.62 41.6.07.2c.4 1.5 3.25 10.95 9.57 10.95 3.83 0 5.78-2.67 6.72-6.68.78-3.26.85-7.46.85-11.64V64.11a10 10 0 0 0 3.22-2.4l.1-.13c2.1-2.32 3.8-6 5.6-11.74l.13-.45q5.46-17.42 10.94-34.82c.9-2.85 1.9-5.28 3.11-7.05 1.06-1.54 2.3-2.57 3.78-2.88 1.59-.33 3.68-.24 5.66-.15 1 .04 1.97.09 2.7.09a2.07 2.07 0 1 0 0-4.15c-.92 0-1.71-.03-2.52-.07-2.24-.1-4.6-.2-6.68.23-2.64.56-4.69 2.18-6.34 4.58-1.5 2.17-2.65 4.97-3.66 8.18l-10.94 34.8-.14.46c-1.62 5.17-3.05 8.37-4.69 10.2l-.1.1c-1.44 1.56-3.2 2.07-5.62 2.07H80.32c-3.09 0-5.26.93-6.95 2.42-1.6 1.4-2.64 3.2-3.63 5.14-1.8 3.55-13.88 33.44-13.91 33.51a2.07 2.07 0 0 0 .94 2.77 2.1 2.1 0 0 0 2.77-.94m44.63-4.32c0 3.94-.06 7.87-.73 10.7-.5 2.08-1.3 3.47-2.7 3.47-3.3 0-5.27-6.74-5.58-7.86l-.03-.16-10.36-40.59h18.1q.67 0 1.3-.04z" clip-rule="evenodd"/><path fill="#5B7142" fill-rule="evenodd" d="m54.97 26.62-1.68-.2c-3.75-.43-.15-8.53.24-10.38C55.5 6.77 43.46 5.09 43.67 18c.1 6.71 6.86 13.02 11.3 8.61" clip-rule="evenodd"/><path fill="#749067" fill-rule="evenodd" d="M47.42 26.23q.3.27.6.5l1.05.27q.58.53 1.32.91.62.17 1.24.16a7 7 0 0 1-.8-.3l-.18-.1.53-.57a.2.2 0 0 0 0-.23.16.16 0 0 0-.24 0l-.6.64a6 6 0 0 1-1.07-.77l-.01-.02a6 6 0 0 1-.53-.56l1.2-.87a.16.16 0 1 0-.2-.26l-1.2.87a6 6 0 0 1-.74-1.3 7 7 0 0 1-.29-.84l2.03-1.2a.16.16 0 0 0 .06-.23.2.2 0 0 0-.23-.05l-1.95 1.15a11 11 0 0 1-.3-2.33v-.04l3.38-2.17a.16.16 0 0 0 .05-.23.2.2 0 0 0-.23-.05l-3.2 2.06q0-1.02.15-2.06v-.01q.09-.67.22-1.33c.43-.34 3.6-2.78 3.93-3.08a.2.2 0 0 0 .01-.23.2.2 0 0 0-.23-.02c-.29.26-2.7 2.12-3.61 2.83a26 26 0 0 1 1.76-5.25.16.16 0 1 0-.3-.14q-.65 1.4-1.2 3.12l-1.33-1.89a.2.2 0 0 0-.23-.03.2.2 0 0 0-.03.23l1.47 2.1a25 25 0 0 0-.55 2.23l-.2 1.12-2.26-2.03a.2.2 0 0 0-.24.02.16.16 0 0 0 .02.23l2.43 2.17a17 17 0 0 0-.13 2.46q0 .33.03.65l-2.02-1a.16.16 0 1 0-.15.3l2.2 1.09q.1.81.3 1.57v.02l.2.63-1.16-.45a.16.16 0 0 0-.22.09.2.2 0 0 0 .1.21l1.45.57.2.43q.37.72.9 1.33z" clip-rule="evenodd"/><path fill="#749067" fill-rule="evenodd" d="m54.74 25.97-1.62.92c-3.6 2.02-5.62-7.47-6.46-9.37-4.22-9.48-15.97-3.23-7.49 8.08 4.42 5.89 14.46 7.13 15.57.37" clip-rule="evenodd"/><path fill="#5B7142" fill-rule="evenodd" d="M47.8 30.49q.43.04.85.05l1.11-.44a7 7 0 0 0 1.76-.04q.65-.25 1.2-.65-.46.15-.9.24l-.24.04.11-.86a.2.2 0 0 0-.15-.2.2.2 0 0 0-.2.16l-.12.95a6 6 0 0 1-1.45 0h-.03a6 6 0 0 1-.83-.16l.5-1.54a.18.18 0 1 0-.33-.12l-.51 1.56a7 7 0 0 1-1-.41l-.5-.28a9 9 0 0 1-.79-.55l1.02-2.37a.2.2 0 0 0-.09-.24.2.2 0 0 0-.24.1L46 28a12 12 0 0 1-1.76-1.88l-.03-.04 1.6-4.1a.18.18 0 0 0-.34-.12l-1.51 3.88a19 19 0 0 1-1.2-1.92 23 23 0 0 1-.67-1.33c.17-.58 1.4-4.78 1.5-5.26a.18.18 0 1 0-.34-.08c-.1.42-1.03 3.62-1.38 4.83a29 29 0 0 1-1.83-5.78.2.2 0 0 0-.21-.15.2.2 0 0 0-.14.22c.22 1.08.53 2.3.95 3.53l-2.4-.82a.2.2 0 0 0-.22.12.2.2 0 0 0 .1.22l2.67.91q.41 1.18.94 2.34.27.57.56 1.12l-3.32-.34a.2.2 0 0 0-.2.16.2.2 0 0 0 .16.2l3.56.36q.66 1.21 1.46 2.26.22.3.45.56l-2.44.42a.18.18 0 1 0 .06.35l2.66-.45q.6.67 1.27 1.2l.02.02q.28.23.58.43l-1.33.35a.18.18 0 1 0 .1.35l1.65-.43.45.25a7 7 0 0 0 1.66.6z" clip-rule="evenodd"/><path fill="#B1976C" fill-rule="evenodd" d="m96.2 35.59 6.68-21.24c1.01-3.21 2.18-6.01 3.67-8.18 3.19-4.63 6.63-5.04 11.74-5.04a2.07 2.07 0 1 1 0 4.15c-3.64 0-6.02-.13-8.34 3.24-1.22 1.77-2.22 4.2-3.12 7.06l-6.29 20.01z" clip-rule="evenodd"/><path fill="#749067" fill-rule="evenodd" d="M112.61 12.04A18.35 18.35 0 1 1 86.65 38a18.35 18.35 0 0 1 25.96-25.96" clip-rule="evenodd"/><path fill="#4B6740" fill-rule="evenodd" d="M112.61 12.04c5.99 5.99 5.03 16.65-2.14 23.81S92.64 43.98 86.66 38s-5.03-16.64 2.14-23.8c7.17-7.18 17.83-8.13 23.81-2.15" clip-rule="evenodd"/><path fill="#749067" fill-rule="evenodd" d="M112.61 12.04c4.6 4.6 2.52 14.13-4.65 21.3s-16.7 9.25-21.3 4.65-2.51-14.13 4.65-21.3 16.7-9.25 21.3-4.65" clip-rule="evenodd"/><path fill="#4B6740" fill-rule="evenodd" d="M112.61 12.04c2.78 2.78-.77 10.85-7.94 18.01S89.44 40.77 86.66 38s.77-10.85 7.94-18.01 15.23-10.73 18.01-7.94" clip-rule="evenodd"/><path fill="#749067" fill-rule="evenodd" d="M112.61 12.04c1.65 1.65-2.82 8.8-9.98 15.97S88.3 39.64 86.66 37.99s2.82-8.8 9.98-15.97 14.32-11.63 15.97-9.98" clip-rule="evenodd"/><path fill="#726840" fill-rule="evenodd" d="m78.95 34.42.52-4.18c.03-.77.65-19.57-3.1-24.09a.35.35 0 1 1 .53-.45c2.63 3.15 3.22 12.7 3.32 18.94 1.16-8.4 1.94-12.84 3.55-17.4a.36.36 0 0 1 .67.23c-1.53 4.33-2.22 8-3.38 16.25 1.77-6.44 4.87-14.1 10.12-17.92a.35.35 0 0 1 .41.57c-8.66 6.32-11.35 23.56-11.84 27.39l-.1.77a.36.36 0 0 1-.39.31.36.36 0 0 1-.31-.4zM67.1 12.72s-2.9-1.83-3.26-4.32c-.37-2.5.75-3.47.66-4.11-.1-.65-1.55-1.51-3.3-.92s-.35 1.88-.26 4.5-.2 4.94-1.72 6.57c-1.53 1.63 7.88-1.72 7.88-1.72" clip-rule="evenodd"/><path fill="#928459" fill-rule="evenodd" d="M64.49 4.21c-.19-.63-1.6-1.4-3.28-.83-.53.18-.77.42-.84.75.16.55 1.5 1.04 2.77.99 1.45-.06 1.35-.86 1.35-.9" clip-rule="evenodd"/><path fill="#E84D09" fill-rule="evenodd" d="M63.87 14.54a7 7 0 0 0-1.86-.46c-13.6-1.92-19.27 9.6-16.01 19.06 2.97 8.62 11.47 13.36 22.44 8.41z" clip-rule="evenodd"/><path fill="#EC6F00" fill-rule="evenodd" d="M63.72 13.67c-.25-.15-.74-.4-1.5-.58-10.93-2.65-14.92 9.3-11.9 19.46 2.77 9.27 9.76 14.68 18.28 9.94z" clip-rule="evenodd"/><path fill="#E84D09" fill-rule="evenodd" d="M63.87 14.54c.25-.22.75-.61 1.6-1.05 12.22-6.28 21.36 2.74 21.4 12.73.02 9.13-6.44 16.4-18.43 15.33z" clip-rule="evenodd"/><path fill="#EC6F00" fill-rule="evenodd" d="M63.72 13.67c.19-.23.57-.62 1.23-1.04 9.45-6.1 17.16 3.87 17.63 14.46.44 9.67-4.38 17.08-13.98 15.4z" clip-rule="evenodd"/><path fill="#EE7E00" fill-rule="evenodd" d="M62.67 42.26c-7.67-6.6-11.87-28.27.76-30.28 12.25-2.2 15.58 18.39 11.1 27.58-2.27 4.66-7.83 6.17-11.87 2.7" clip-rule="evenodd"/><path fill="#726840" fill-rule="evenodd" d="M69.46 22.22s-.5-.88-.26-1.58c.25-.7.68-.8.75-.99s-.2-.61-.74-.7-.35.45-.7 1.15-.73 1.27-1.36 1.48c-.62.22 2.31.64 2.31.64" clip-rule="evenodd"/><path fill="#928459" fill-rule="evenodd" d="M69.95 19.63c.04-.2-.22-.6-.74-.67q-.23-.04-.33.08c-.03.16.26.48.6.64.38.19.47-.04.47-.05" clip-rule="evenodd"/><path fill="#E51312" fill-rule="evenodd" d="M68.36 22.25a2 2 0 0 0-.42-.38c-3.3-2.39-6.39-.15-6.84 2.78-.42 2.68 1.15 5.1 4.72 5.32z" clip-rule="evenodd"/><path fill="#E7350F" fill-rule="evenodd" d="M68.44 22a2 2 0 0 0-.31-.35c-2.5-2.21-5.2.37-5.82 3.45-.56 2.82.53 5.2 3.42 5.14z" clip-rule="evenodd"/><path fill="#E51312" fill-rule="evenodd" d="M68.36 22.26a2 2 0 0 1 .56-.06c4.08.05 5.23 3.68 3.85 6.3-1.25 2.4-3.96 3.42-6.96 1.48z" clip-rule="evenodd"/><path fill="#E7350F" fill-rule="evenodd" d="M68.44 22a2 2 0 0 1 .47-.1c3.32-.3 3.96 3.4 2.62 6.24-1.22 2.6-3.51 3.87-5.8 2.1z" clip-rule="evenodd"/><path fill="#E84A0A" fill-rule="evenodd" d="M64.2 29.36c-1.1-2.79.8-9.06 4.4-7.84 3.52 1.12 1.54 6.99-.91 8.78-1.24.9-2.91.53-3.49-.94" clip-rule="evenodd"/><path fill="#726840" fill-rule="evenodd" d="M93.9 22.33s-.83-.58-.9-1.32.26-1.02.24-1.21-.44-.47-.96-.31-.13.55-.14 1.33c-.01.77-.12 1.46-.6 1.92-.47.46 2.36-.4 2.36-.4" clip-rule="evenodd"/><path fill="#928459" fill-rule="evenodd" d="M93.24 19.78c-.05-.2-.45-.44-.96-.3q-.23.07-.26.22c.04.16.43.32.81.33.43 0 .41-.24.41-.25" clip-rule="evenodd"/><path fill="#E51312" fill-rule="evenodd" d="M92.92 22.83a2 2 0 0 0-.54-.16c-4.01-.75-5.85 2.6-5 5.44.76 2.6 3.22 4.11 6.54 2.8z" clip-rule="evenodd"/><path fill="#E7350F" fill-rule="evenodd" d="M92.89 22.57a2 2 0 0 0-.44-.2c-3.2-.93-4.55 2.56-3.79 5.61.7 2.79 2.7 4.49 5.29 3.2z" clip-rule="evenodd"/><path fill="#E51312" fill-rule="evenodd" d="M92.92 22.84q.11-.11.49-.3c3.7-1.7 6.3 1.1 6.17 4.07-.11 2.7-2.13 4.77-5.66 4.3z" clip-rule="evenodd"/><path fill="#E7350F" fill-rule="evenodd" d="M92.89 22.57q.09-.11.38-.3c2.88-1.68 5.03 1.38 5.03 4.53 0 2.87-1.52 5-4.35 4.37z" clip-rule="evenodd"/><path fill="#E84A0A" fill-rule="evenodd" d="M92.2 31.03c-2.2-2.05-3.15-8.54.62-8.97 3.66-.48 4.38 5.67 2.93 8.33-.74 1.35-2.4 1.72-3.56.64" clip-rule="evenodd"/><path fill="#E4CEAA" fill-rule="evenodd" d="M113.4 20.07c-1.2 2.06-2.39 6.97-2.98 9.63-.82 3.69.92 4.6 3.5 1.84 1.85-2 5.22-5.76 6.25-7.9 1.99-4.15-4.49-7.56-6.78-3.57" clip-rule="evenodd"/><path fill="#F1E5D1" fill-rule="evenodd" d="m113.4 20.07.2-.33.4.07.02.01h.02l.03.01a8 8 0 0 1 1.7.63l.2.1c.08.05.36.24.4.31.15.15.42.42.15.58-.22.13-.3.04-.5-.03l-.4-.14-.19-.07a14 14 0 0 0-1.58-.46h-.03l-.02-.01h-.02l-.66-.15zm-2.02 5.72h.03c.42.13 1.1.38 1.46.61.24.15.44.3.29.58-.14.27-.33.22-.6.16l-1.41-.43q.1-.45.23-.92m2.22 6.09c-.37-.32-.74-.56-1.12-.85-.19-.14-.54-.38-.4-.67.16-.3.57-.11.8-.02a6 6 0 0 1 1.32.8h.01l.05.05zm4.57-5.24c-.28-.33-.54-.66-.9-.96v-.02h-.02a10 10 0 0 0-1.78-1.21l-.54-.32c-.2-.13-.98-.56-.83-.89.19-.31.98.09 1.2.18l.57.26a10 10 0 0 1 2 1.26l.02.02.02.01q.45.42.81.94zm-.64-4.26c-.12-.15-.04-.28.04-.43.08-.13.16-.28.34-.27a2 2 0 0 1 .96.5c.12.15.06.29-.02.44s-.16.28-.35.27a2 2 0 0 1-.97-.5m-3.28 5.16c.07-.13.15-.27.32-.28.06 0 .26.05.32.08.06.04.22.17.25.22.09.15.02.3-.05.43s-.15.27-.32.28a1 1 0 0 1-.32-.08 1 1 0 0 1-.25-.22c-.09-.15-.02-.3.05-.43" clip-rule="evenodd"/><path fill="#415832" fill-rule="evenodd" d="M113.32 15.24a24 24 0 0 1-1.52 4.16c-.68 1.51-1.38 1.4-1.42-.23-.03-1.17-.05-3.36.19-4.38.46-1.97 3.09-1.54 2.75.45" clip-rule="evenodd"/><path fill="#5B7142" fill-rule="evenodd" d="M111.72 16.68c.04 1.04-.38 3.22-.62 4.38-.34 1.62-1.05 1.66-1.43.08a23 23 0 0 1-.74-4.32c.03-2.03 2.7-2.16 2.79-.14" clip-rule="evenodd"/><path fill="#749067" fill-rule="evenodd" d="M111.54 16.72c-.42.95-.8 3.14-1 4.31-.26 1.64.4 1.93 1.32.59a23 23 0 0 0 2.23-3.77c.7-1.9-1.74-2.98-2.55-1.13" clip-rule="evenodd"/><path fill="#F1E5D1" fill-rule="evenodd" d="M106.48 23.47c-.52 2.32-.2 7.37.02 10.07.31 3.77 2.24 4.13 3.88.72 1.18-2.45 3.28-7.05 3.63-9.4.67-4.55-6.53-5.88-7.53-1.4" clip-rule="evenodd"/><path fill="#E4CEAA" fill-rule="evenodd" d="m106.48 23.46.11-.38.4-.05h.03a9 9 0 0 1 1.85.09l.22.05c.1.02.41.11.48.17.18.1.52.28.31.5-.17.2-.27.13-.5.13l-.4-.01-.2-.02a14 14 0 0 0-1.66.04h-.07l-.67.05q.04-.3.1-.57m-.23 6.06h.03a7 7 0 0 1 1.58.15c.27.07.5.15.44.46-.05.3-.25.31-.53.33h-1.47zm3.92 5.16c-.45-.2-.87-.32-1.32-.47-.23-.09-.64-.21-.58-.53s.51-.28.75-.25a6 6 0 0 1 1.5.37h.02l.05.02-.2.44zm2.82-6.36c-.37-.23-.72-.46-1.14-.64l-.02-.01-.02-.01a10 10 0 0 0-2.05-.62l-.61-.15c-.23-.06-1.1-.24-1.06-.6.09-.35.96-.2 1.2-.18l.62.08c.76.13 1.58.3 2.29.6l.02.02h.02a6 6 0 0 1 1.06.66zm-1.88-3.87c-.16-.1-.12-.26-.09-.42.04-.15.07-.32.24-.36.1-.02.43 0 .53.02h.01c.12.02.44.12.53.17.16.11.14.26.11.43s-.07.32-.25.36c-.1.02-.44 0-.56-.02a2 2 0 0 1-.52-.18m-1.6 5.91c.03-.15.07-.3.23-.36a1 1 0 0 1 .32-.02h.01c.06.02.26.1.3.14.13.11.1.27.08.42s-.07.3-.22.36a1 1 0 0 1-.33.02 1 1 0 0 1-.3-.14c-.13-.1-.11-.27-.08-.42" clip-rule="evenodd"/><path fill="#BA3F21" fill-rule="evenodd" d="m54.84 60.99 35.85-.05c1.37 0 3.14-1.11 3.92-2.48l14.53-25.3c.78-1.37.31-2.5-1.05-2.5l-70.65.26c-1.36 0-1.84 1.12-1.04 2.49l14.52 25.1c.79 1.36 2.55 2.48 3.92 2.48" clip-rule="evenodd"/><path fill="#E76034" fill-rule="evenodd" d="M34.2 26.53h37a3.2 3.2 0 0 1 3.2 3.21 3.2 3.2 0 0 1-3.2 3.21h-37a3.2 3.2 0 0 1-3.21-3.2 3.2 3.2 0 0 1 3.2-3.22" clip-rule="evenodd"/><path fill="#E76034" fill-rule="evenodd" d="m80.32 61 27.91-.06c1.37 0 3.56-.95 3.93-2.48l6.02-25.3c.36-1.54.31-2.5-1.05-2.5l-54.2.26c-1.37 0-1.85 1.12-1.06 2.49L76.4 58.5c.8 1.36 2.56 2.48 3.93 2.48" clip-rule="evenodd"/><path fill="#EC8E6E" fill-rule="evenodd" d="M58.94 26.53h59.9a3.2 3.2 0 0 1 3.2 3.21 3.2 3.2 0 0 1-3.2 3.21h-59.9a3.2 3.2 0 0 1-3.21-3.2 3.2 3.2 0 0 1 3.2-3.22" clip-rule="evenodd"/><path fill="#749067" fill-rule="evenodd" d="M73.12 26.53h1.97c4.39 0 1.3 9.83 1.1 12.02C75.13 49.52 89.25 49.87 87.3 35c-1.01-7.74-9.64-14.13-14.2-8.46" clip-rule="evenodd"/><path fill="#5B7142" fill-rule="evenodd" d="m81.9 25.97-.77-.5-1.25-.17a7 7 0 0 0-1.64-.88 6 6 0 0 0-1.46-.02q.5.1.96.25l.24.08-.55.74a.2.2 0 0 0 .04.26.2.2 0 0 0 .27-.04l.6-.81q.74.31 1.34.75l.02.02q.37.27.7.58l-1.28 1.16a.19.19 0 1 0 .26.28l1.28-1.17q.39.42.7.9.17.25.32.51.25.45.45.92l-2.19 1.67a.2.2 0 0 0-.03.26.2.2 0 0 0 .27.04l2.1-1.6q.45 1.25.64 2.66v.05l-3.6 2.95a.2.2 0 0 0-.03.27.2.2 0 0 0 .27.03l3.42-2.8a20 20 0 0 1 .1 2.4 25 25 0 0 1-.07 1.58c-.46.44-3.78 3.68-4.13 4.07a.19.19 0 1 0 .29.25c.3-.33 2.83-2.8 3.79-3.74a31 31 0 0 1-1.34 6.3.2.2 0 0 0 .13.24q.16.04.24-.12.56-1.7.96-3.76l1.79 2c.07.08.19.08.27.01a.2.2 0 0 0 .01-.27l-1.98-2.22a29 29 0 0 0 .34-2.66q.06-.66.08-1.32l2.89 2.04a.19.19 0 0 0 .22-.31l-3.1-2.19q0-1.46-.17-2.85l-.13-.75 2.47.89a.19.19 0 0 0 .13-.36l-2.7-.97a12 12 0 0 0-.53-1.78l-.01-.02q-.15-.36-.32-.7l1.41.37a.2.2 0 0 0 .24-.14.2.2 0 0 0-.14-.23l-1.75-.47-.29-.46a7 7 0 0 0-1.22-1.42z" clip-rule="evenodd"/><path fill="#749067" fill-rule="evenodd" d="M52.2 26.53H51c-2.7 0-.8 6.06-.68 7.41.65 6.77-8.06 6.98-6.86-2.2.63-4.77 5.95-8.7 8.75-5.21" clip-rule="evenodd"/><path fill="#5B7142" fill-rule="evenodd" d="m46.79 26.19.47-.3.77-.12q.45-.32 1.02-.54.45-.07.9-.01l-.6.15-.14.05.33.45a.12.12 0 0 1-.02.17.12.12 0 0 1-.17-.03l-.37-.5a4 4 0 0 0-.83.46v.01q-.24.17-.43.36l.78.72q.07.08.01.17a.12.12 0 0 1-.17 0l-.79-.72a5 5 0 0 0-.63.87l-.27.57 1.34 1.03a.12.12 0 0 1 .03.16.12.12 0 0 1-.17.03l-1.3-.99a8 8 0 0 0-.4 1.64v.03l2.23 1.82a.12.12 0 0 1 .02.17.12.12 0 0 1-.17.01l-2.1-1.73q-.09.73-.07 1.48 0 .5.04.98c.29.27 2.34 2.27 2.55 2.5q.06.1 0 .17a.12.12 0 0 1-.17 0l-2.34-2.31c.14 1.4.46 2.78.82 3.88a.12.12 0 0 1-.23.07 19 19 0 0 1-.6-2.31l-1.1 1.23a.1.1 0 0 1-.16 0 .1.1 0 0 1 0-.16l1.21-1.37a18 18 0 0 1-.2-1.63l-.05-.82-1.79 1.26a.12.12 0 0 1-.16-.03.12.12 0 0 1 .03-.16l1.9-1.35a12 12 0 0 1 .19-2.23l-1.52.55a.12.12 0 0 1-.15-.07.12.12 0 0 1 .07-.15l1.66-.6a7 7 0 0 1 .33-1.1l.2-.44-.87.23a.12.12 0 0 1-.06-.23l1.08-.28.18-.3q.32-.48.75-.86z" clip-rule="evenodd"/></svg>