<svg xmlns="http://www.w3.org/2000/svg" width="114" height="76" fill="none"><path fill="#42281F" d="M45.8 68.32V7.82c0-.7.63-1.28 1.43-1.28s1.43.57 1.43 1.29v60.5c0 .7-.64 1.28-1.43 1.28-.8 0-1.44-.57-1.44-1.29"/><path fill="#E97A43" d="M122.02 0H46.98c-.63 0-1.15.51-1.15 1.15v2.09h77.33v-2.1A1.15 1.15 0 0 0 122.02 0"/><path fill="#FAC46A" d="M50.67 16.24H41l4.83-13h8.6z"/><path fill="#FFCD85" d="M41 16.25s.18 4.88 4.83 4.88 4.84-4.88 4.84-4.88z"/><path fill="#EAD5C7" d="M60.33 16.24h-9.66l3.75-13h8.6z"/><path fill="#F4E6DB" d="M50.67 16.25s.18 4.88 4.83 4.88 4.83-4.88 4.83-4.88z"/><path fill="#FAC46A" d="M70 16.24h-9.67l2.69-13h8.59z"/><path fill="#FFCD85" d="M60.33 16.25s.18 4.88 4.84 4.88S70 16.25 70 16.25z"/><path fill="#EAD5C7" d="M79.66 16.24H70l1.6-13h8.6z"/><path fill="#F4E6DB" d="M70 16.25s.18 4.88 4.83 4.88 4.83-4.88 4.83-4.88z"/><path fill="#FAC46A" d="M89.33 16.24h-9.66l.53-13h8.6z"/><path fill="#FFCD85" d="M79.67 16.25s.18 4.88 4.83 4.88 4.83-4.88 4.83-4.88z"/><path fill="#EAD5C7" d="M99 16.24h-9.67l-.53-13h8.59z"/><path fill="#F4E6DB" d="M89.33 16.25s.19 4.88 4.84 4.88S99 16.25 99 16.25z"/><path fill="#FAC46A" d="M108.67 16.24H99l-1.61-13h8.6z"/><path fill="#FFCD85" d="M99 16.25s.18 4.88 4.83 4.88 4.84-4.88 4.84-4.88z"/><path fill="#EAD5C7" d="M118.33 16.24h-9.66l-2.69-13h8.6z"/><path fill="#F4E6DB" d="M108.67 16.25s.18 4.88 4.83 4.88 4.83-4.88 4.83-4.88z"/><path fill="#C55E3F" d="M121.03 88.2H47.97a2.14 2.14 0 0 1-2.14-2.13V49.12c0-1.18.96-2.14 2.14-2.14h73.06a2.14 2.14 0 0 1 2.13 2.14v36.95a2.14 2.14 0 0 1-2.13 2.14"/><path fill="#AD422A" d="M123.16 49.98H45.83v4.56h77.33z"/><path fill="#E97A43" d="M124.7 50.74H44.3a1.87 1.87 0 0 1-1.86-1.87v-.02c0-1.03.83-1.87 1.86-1.87h80.4c1.03 0 1.86.84 1.86 1.87v.02c0 1.03-.83 1.87-1.86 1.87"/></svg>