<svg xmlns="http://www.w3.org/2000/svg" width="114" height="76" fill="none"><path fill="#42281F" d="M45.792 68.322V7.828c0-.714.642-1.292 1.434-1.292s1.433.578 1.433 1.292v60.494c0 .713-.642 1.291-1.433 1.291-.792 0-1.434-.578-1.434-1.291"/><path fill="#E97A43" d="M122.016 0H46.979c-.633 0-1.148.514-1.148 1.147V3.24h77.332V1.147A1.146 1.146 0 0 0 122.016 0"/><path fill="#FAC46A" d="M50.666 16.244H41L45.833 3.24h8.592z"/><path fill="#FFCD85" d="M41 16.245s.182 4.888 4.833 4.888 4.833-4.888 4.833-4.888z"/><path fill="#EAD5C7" d="M60.332 16.244h-9.666L54.425 3.24h8.592z"/><path fill="#F4E6DB" d="M50.666 16.245s.182 4.888 4.833 4.888 4.833-4.888 4.833-4.888z"/><path fill="#FAC46A" d="M69.998 16.244h-9.666L63.017 3.24h8.593z"/><path fill="#FFCD85" d="M60.332 16.245s.182 4.888 4.833 4.888 4.833-4.888 4.833-4.888z"/><path fill="#EAD5C7" d="M79.664 16.244h-9.666l1.61-13.005h8.593z"/><path fill="#F4E6DB" d="M69.998 16.245s.182 4.888 4.833 4.888 4.833-4.888 4.833-4.888z"/><path fill="#FAC46A" d="M89.334 16.244h-9.666l.536-13.005h8.593z"/><path fill="#FFCD85" d="M79.668 16.245s.182 4.888 4.833 4.888 4.833-4.888 4.833-4.888z"/><path fill="#EAD5C7" d="M99 16.244h-9.666L88.796 3.24h8.593z"/><path fill="#F4E6DB" d="M89.333 16.245s.182 4.888 4.833 4.888 4.833-4.888 4.833-4.888z"/><path fill="#FAC46A" d="M108.667 16.244h-9.666L97.39 3.24h8.592z"/><path fill="#FFCD85" d="M99 16.245s.182 4.888 4.833 4.888 4.833-4.888 4.833-4.888z"/><path fill="#EAD5C7" d="M118.333 16.244h-9.666L105.981 3.24h8.593z"/><path fill="#F4E6DB" d="M108.665 16.245s.182 4.888 4.833 4.888 4.833-4.888 4.833-4.888z"/><path fill="#C55E3F" d="M121.025 88.205H47.971a2.14 2.14 0 0 1-2.138-2.139V49.123c0-1.182.957-2.14 2.138-2.14h73.054a2.14 2.14 0 0 1 2.139 2.14v36.943a2.14 2.14 0 0 1-2.139 2.139"/><path fill="#AD422A" d="M123.164 49.984H45.833v4.555h77.331z"/><path fill="#E97A43" d="M124.697 50.737H44.304a1.866 1.866 0 0 1-1.866-1.866v-.021c0-1.03.836-1.866 1.866-1.866h80.393c1.031 0 1.866.836 1.866 1.866v.021c0 1.03-.835 1.866-1.866 1.866"/></svg>