<svg xmlns="http://www.w3.org/2000/svg" width="114" height="76" fill="none"><g clip-path="url(#a)"><path fill="#EDEDED" d="m77.05 82.11 14.97-1.33 34.58-19.79-45.87-25.83z"/><path fill="#262626" d="m62.35 1.1.36.08.77.15-.04.25q-.05.32-.05.7l.08 8 .18 20.68c.02 2.14 1.33 4.6 2.94 5.52l40.44 23.35.08.05-.37 1.36 1.67-.98c.55-.32.92-1 1-2v-.36l-.26-28.63v-.06c0-1.48-.63-3.1-1.55-4.27a5 5 0 0 0-1.39-1.25L65.78.34c-.7-.4-1.34-.43-1.84-.17l-1.39.82z"/><path fill="#4A4A4A" d="m62.55.99.16.19.73.4 42.48 24.15 1.68-.8a5 5 0 0 0-1.39-1.25L65.78.34c-.7-.4-1.34-.43-1.84-.17z"/><path fill="#333" d="m103.77 26.8 1.82 4.49 3.56-2.03v-.06c0-1.47-.63-3.1-1.55-4.26z"/><path fill="#333" d="m61.32 3.48.08 8 .18 20.69c.02 2.13 1.33 4.6 2.95 5.52l28.64 16.24 11.8 7.1c1.3.75 2.4.23 2.76-1.15q.08-.32.1-.68l.01-.38-.26-28.69c-.01-2.13-1.33-4.6-2.94-5.52l-11.59-6.57L77.3 8.7 64.2 1.26c-1.07-.6-2-.37-2.5.5a3.5 3.5 0 0 0-.38 1.72"/><path fill="#212121" d="m63.28 34.48 42.67 25.09V30.5L63.28 5.4z"/><path fill="#4A4A4A" d="M76.51 33.8c-.07-.56-.57-7.2-.57-7.2l1.32 1.63 1.9-3.4-1.24-2.57-.7-3.34-3.4 1.78-2.5-5.6-2.5 3.03-2.77 1.18 1.62 3.74 4.2.58.53 4.74 1.43-2.3zm26.24 10.9-1.96-2.94c-.07-.1-.14-.21-.12-.33.01-.15.15-.25.27-.33l1.1-.75c.14-.1.29-.2.36-.35.14-.28 0-.62-.2-.84-.2-.23-.48-.38-.7-.6-.46-.48-.6-1.2-.5-1.87.1-.66.39-1.27.68-1.87q-.85.76-1.85 1.32c-.15.08-.3.16-.47.14-.56-.08-.46-1-.93-1.3-.35.35-1.45 2.03-2.07 1.52-.53-.42-.14-1.37-1.02-1.7-.53-.21-1.13.04-1.7-.03-1.4-.18-2.23-2.21-3.62-1.95.18.44-.22.94-.68 1.06s-.94 0-1.41-.1a9 9 0 0 0-2.88-.14c1.85 1.35 3.77 2.77 4.82 4.8q.12.22.14.46c0 .3-.28.55-.56.67s-.6.15-.88.3c.88.8 1.64 1.73 2.61 2.42.97.7 2.23 1.13 3.36.74l-1.99 3.26a6 6 0 0 1 2.64-.5q.37-.02.68.15c.24.15.37.42.49.68l2.24 4.77a10 10 0 0 1-.25-3.73c.08-.46.25-.92.58-1.25.33-.34.85-.5 1.28-.31l-.18-1.45q1.36-.1 2.72.05"/><path fill="#262626" d="M64.01 5.83v28.25l41.94 24.67v.82l-42.67-25.1V5.42zm18.89 8.69c0 .87.53 1.86 1.2 2.25q.3.18.6.18.18 0 .35-.07c.37-.15.67-.54.67-1.22a2.8 2.8 0 0 0-1.2-2.26 1 1 0 0 0-.6-.17 1 1 0 0 0-.36.07h-.01c-.36.16-.65.55-.65 1.22"/><path fill="#1C1C1C" d="M82.9 14.52c0 .87.53 1.86 1.2 2.25q.3.18.6.18.18 0 .35-.07l-1.5-3.57c-.36.15-.65.54-.65 1.21"/><path fill="#4D4D4D" d="m105.95 59.57-42.67-25.1.73-.4 41.94 24.68z"/><path fill="#333" d="M32 56.52q0 .92 1.08 1.57l40.53 23.4q.23.14.5.23a7 7 0 0 0 5.75-.5l24.86-14.3c.93-.54 1.44-1.21 1.52-1.86h.01v-2.5l-1 .55-.08-.05-40.52-23.4c-1.6-.92-4.4-.8-6.25.26L33.53 54.23q-.4.22-.68.49l-.82-.61z"/><path fill="#393939" d="m33.08 55.94 40.53 23.4c1.6.92 4.4.8 6.24-.27l17.93-10.31 6.94-4a3.4 3.4 0 0 0 1.3-1.2c.49-.86.22-1.79-.85-2.4l-40.52-23.4c-1.6-.93-4.4-.81-6.25.26l-24.87 14.3-.31.2c-1.56 1.07-1.64 2.55-.14 3.42"/><path fill="#242424" d="m62.42 72.87 11.19 6.46c1.6.93 4.4.81 6.24-.26l17.93-10.31zM33.08 55.94l8.41 4.85 52.48-6.1L80.67 47l-47.45 5.53c-1.56 1.06-1.64 2.54-.14 3.4m15.78 9.12 7.45 4.3 49.7-5.79c.5-.86.23-1.79-.84-2.4l-3.84-2.22zm-7.53-17.21 33.95-3.95-10.63-6.13c-1.6-.93-4.4-.81-6.25.26z"/><path fill="#262626" d="m82.98 71.76-37.1-21.4c-1.37-.8-1.2-2.18.38-3.1l12.56-7.3c1.59-.92 3.98-1.02 5.36-.22l37.1 21.4c1.37.79 1.2 2.17-.39 3.09l-12.55 7.3c-1.59.92-3.99 1.02-5.36.23"/><path fill="#333" d="M44.97 49.18c.08-.56.51-1.12 1.3-1.57l12.55-7.3q.6-.34 1.31-.54c.95-.25 2-.3 2.88-.1q.66.12 1.16.42l37.1 21.4q.83.5.92 1.17c.08-.56-.22-1.12-.91-1.52l-37.1-21.4q-.51-.3-1.17-.42a6.4 6.4 0 0 0-4.19.64l-12.56 7.3c-.94.55-1.38 1.26-1.3 1.92"/><path fill="#404040" d="M60.13 39.43v.34c.95-.25 2-.3 2.88-.1v-.35a6.4 6.4 0 0 0-2.88.1"/><path fill="#303030" d="M96.05 61.44v.04z"/><path fill="#fff" d="M61.1 41.04q0 .16.19.28l1.86 1.07q.17.1.42.1c.24.02.5-.04.69-.15l.4-.23q.27-.17.27-.36v-.02q0-.16-.19-.26l-1.86-1.07c-.29-.17-.78-.15-1.11.04l-.4.23q-.26.16-.27.34z"/><path fill="#303030" d="M61.2 40.81v.21q.01.15.19.26l1.74 1q.19.1.4.1.36.02.66-.14l.38-.22q.25-.16.25-.33v-.22q0 .19-.25.35l-.38.21q-.3.16-.65.15a1 1 0 0 1-.4-.1l-1.75-1q-.2-.12-.19-.27"/><path fill="#1A1A1A" d="M63.54 42.18v.2q.35.03.65-.14l.38-.22q.25-.16.25-.33v-.22q0 .19-.25.35l-.38.22q-.3.15-.65.14"/><path fill="#4D4D4D" d="M61.2 40.81q0 .16.19.26l1.74 1q.17.1.4.11.36.01.66-.14l.38-.22q.26-.16.26-.35v-.01q-.01-.16-.19-.25l-1.75-1a1.1 1.1 0 0 0-1.05.04l-.38.22q-.25.14-.25.32z"/><path fill="#A6A6A6" d="M61.21 40.77q.02.13.18.23l1.74 1q.17.1.4.11.36.01.66-.15l.38-.22q.22-.13.25-.3v.03q0 .19-.25.35l-.38.22q-.3.15-.65.14a1 1 0 0 1-.4-.1l-1.75-1q-.2-.12-.19-.27v-.02z"/><path fill="#fff" d="M64.4 42.95q0 .16.2.28l1.86 1.07q.17.1.43.1c.23.02.49-.03.68-.15l.4-.23q.27-.17.27-.36v-.02q0-.16-.19-.26l-1.86-1.07c-.28-.17-.78-.15-1.1.04l-.4.24q-.27.15-.28.33z"/><path fill="#303030" d="M64.52 42.72v.21q0 .15.18.26l1.75 1q.16.1.4.1.35.02.65-.14l.38-.22q.24-.16.25-.33v-.22q0 .19-.25.35l-.38.22q-.3.15-.65.14a1 1 0 0 1-.4-.1l-1.75-1q-.18-.12-.19-.27"/><path fill="#1A1A1A" d="M66.85 44.1v.2q.35 0 .65-.15l.38-.22q.25-.15.25-.33v-.22q0 .19-.25.35l-.38.22q-.3.15-.65.14"/><path fill="#4D4D4D" d="M64.52 42.72q0 .16.18.26l1.75 1q.16.1.4.11.35.01.65-.14l.38-.22q.26-.16.26-.35v-.01q-.02-.15-.18-.25l-1.75-1c-.27-.16-.74-.14-1.06.04l-.37.22q-.25.14-.26.32z"/><path fill="#A6A6A6" d="M64.52 42.68q.01.13.18.23l1.75 1q.15.1.4.11.35.01.65-.15l.38-.22q.22-.13.25-.3v.03q0 .19-.25.35l-.38.22q-.3.15-.65.14a1 1 0 0 1-.4-.1l-1.75-1q-.18-.12-.19-.27v-.02z"/><path fill="#fff" d="M67.72 44.86q0 .16.2.28l1.85 1.07q.17.1.43.1c.23.02.49-.04.68-.15l.4-.23q.28-.17.28-.36v-.02q-.01-.16-.2-.26l-1.86-1.07c-.28-.17-.78-.15-1.1.04l-.4.23q-.27.16-.28.34z"/><path fill="#303030" d="M67.83 44.63v.21q0 .15.18.26l1.75 1q.16.1.4.1c.22.01.47-.03.65-.14l.38-.22q.24-.15.25-.33v-.22q0 .19-.25.35l-.38.22c-.18.1-.43.15-.65.14a1 1 0 0 1-.4-.1l-1.75-1q-.18-.12-.18-.27"/><path fill="#1A1A1A" d="M70.16 46v.2c.22.02.47-.03.65-.14l.38-.22q.24-.15.25-.33v-.22q0 .19-.25.35l-.38.22c-.18.1-.43.15-.65.14"/><path fill="#4D4D4D" d="M67.83 44.63q0 .16.18.26l1.75 1q.16.1.4.11c.22.01.47-.04.65-.14l.38-.22q.26-.16.26-.35v-.01q0-.15-.18-.25l-1.75-1c-.27-.16-.74-.14-1.06.04l-.37.22q-.25.14-.26.32z"/><path fill="#A6A6A6" d="M67.83 44.59q.02.13.18.23l1.75 1q.16.1.4.11c.22.01.47-.04.65-.14l.38-.22q.22-.14.25-.3v.02q0 .19-.25.35l-.38.22q-.3.15-.65.14a1 1 0 0 1-.4-.1l-1.75-1q-.18-.12-.18-.27z"/><path fill="#fff" d="M74.34 48.68q0 .16.2.28l1.85 1.07q.19.1.43.1c.23.02.49-.03.68-.15l.4-.23q.28-.17.28-.36v-.02q-.01-.16-.2-.26l-1.85-1.07c-.29-.17-.78-.15-1.12.04l-.4.24q-.26.15-.27.33z"/><path fill="#303030" d="M74.45 48.45v.21q0 .15.18.26l1.75 1q.17.1.4.1.36.02.65-.14l.38-.22q.25-.15.26-.33v-.22q0 .19-.26.35l-.38.22c-.18.1-.43.15-.65.14a1 1 0 0 1-.4-.1l-1.75-1q-.18-.12-.18-.27"/><path fill="#1A1A1A" d="M76.78 49.82v.2q.36.03.65-.14l.38-.22q.25-.16.26-.33v-.22q0 .19-.26.35l-.38.22c-.18.1-.43.15-.65.14"/><path fill="#4D4D4D" d="M74.45 48.45q0 .16.18.26l1.75 1q.16.1.4.11c.22.01.47-.04.65-.14l.38-.22q.26-.16.26-.35v-.01q0-.15-.18-.25l-1.75-1c-.27-.16-.74-.14-1.05.04l-.38.22q-.24.14-.26.32z"/><path fill="#A6A6A6" d="M74.46 48.4q0 .15.17.24l1.75 1q.16.1.4.11c.22.01.47-.04.65-.14l.38-.22q.22-.14.25-.3v.02q0 .19-.25.35l-.38.22c-.18.1-.43.15-.65.14a1 1 0 0 1-.4-.1l-1.75-1q-.18-.12-.18-.27v-.04"/><path fill="#fff" d="M77.65 50.6q0 .16.2.27l1.85 1.07q.19.1.43.1c.23.02.5-.03.69-.15l.4-.23q.27-.17.27-.36v-.02q0-.16-.2-.26l-1.85-1.07c-.29-.17-.78-.15-1.11.04l-.4.24q-.27.15-.27.33z"/><path fill="#303030" d="M77.76 50.36v.21q0 .15.18.26l1.75 1q.17.1.4.1.36.02.65-.14l.39-.22q.24-.15.25-.33v-.22q0 .19-.26.35l-.38.22c-.18.1-.43.15-.65.14a1 1 0 0 1-.4-.1l-1.75-1q-.18-.12-.18-.27"/><path fill="#1A1A1A" d="M80.1 51.73v.2q.35.03.64-.14l.39-.22q.24-.15.25-.33v-.22q0 .19-.26.35l-.38.22c-.18.1-.43.15-.65.14"/><path fill="#4D4D4D" d="M77.76 50.36q0 .16.18.26l1.75 1q.16.1.4.11c.22.01.47-.04.65-.14l.39-.22q.25-.16.25-.35v-.01q0-.15-.18-.25l-1.75-1a1.1 1.1 0 0 0-1.05.04l-.38.22q-.24.14-.26.32z"/><path fill="#A6A6A6" d="M77.77 50.32q0 .13.17.23l1.75 1q.16.1.4.11c.22.01.47-.04.65-.15l.39-.21q.21-.14.24-.3l.01.01q0 .19-.26.35l-.38.22c-.18.1-.43.15-.65.14a1 1 0 0 1-.4-.1l-1.75-1q-.18-.12-.18-.27v-.04"/><path fill="#fff" d="M87.59 56.32q0 .16.19.28l1.86 1.07q.17.1.42.1c.24.02.5-.03.69-.15l.4-.23q.27-.17.27-.36V57q0-.15-.19-.26l-1.86-1.07a1.2 1.2 0 0 0-1.11.04l-.4.24q-.26.15-.27.34z"/><path fill="#303030" d="M87.7 56.1v.2q0 .15.18.26l1.74 1q.19.1.4.1.36.02.66-.14l.38-.22q.24-.15.25-.33v-.21q0 .18-.25.34l-.38.22q-.3.15-.65.14a1 1 0 0 1-.4-.1l-1.75-1q-.2-.12-.19-.27"/><path fill="#1A1A1A" d="M90.03 57.46v.2q.35.03.65-.14l.38-.22q.24-.15.25-.33v-.22q0 .19-.25.35l-.38.22q-.3.15-.65.14"/><path fill="#4D4D4D" d="M87.7 56.1q0 .14.18.26l1.74 1q.17.1.4.1.36.01.66-.14l.38-.22q.25-.16.25-.35v-.01q0-.15-.18-.25l-1.75-1c-.27-.16-.74-.14-1.05.04l-.38.22q-.25.14-.25.32z"/><path fill="#A6A6A6" d="M87.7 56.05q.01.13.18.23l1.74 1q.17.1.4.11.36.01.66-.14l.38-.22q.22-.14.25-.3v.02q0 .19-.25.35l-.38.22q-.3.15-.65.14a1 1 0 0 1-.4-.1l-1.75-1q-.2-.12-.19-.27v-.02z"/><path fill="#fff" d="M90.9 58.23q0 .16.19.28l1.86 1.07q.17.1.42.1c.24.02.5-.03.69-.15l.4-.23q.27-.16.27-.36v-.02q0-.15-.19-.26l-1.86-1.07a1.3 1.3 0 0 0-1.11.04l-.4.24q-.25.15-.27.34z"/><path fill="#303030" d="M91 58v.21q.01.15.19.26l1.75 1q.16.1.4.1.35.02.65-.14l.38-.22q.25-.15.25-.33v-.22q0 .19-.25.35l-.38.22q-.3.15-.65.14a1 1 0 0 1-.4-.1l-1.75-1Q91 58.15 91 58"/><path fill="#1A1A1A" d="M93.34 59.38v.2q.35 0 .65-.15l.38-.22q.25-.15.25-.33v-.22q0 .19-.25.35l-.38.22q-.3.16-.65.15"/><path fill="#4D4D4D" d="M91 58q0 .16.19.27l1.75 1q.16.1.4.1.35.02.65-.14l.38-.22q.26-.16.26-.34v-.02q-.02-.15-.18-.25l-1.76-1c-.27-.16-.73-.14-1.05.04l-.38.22q-.25.14-.25.32z"/><path fill="#A6A6A6" d="M91.01 57.96q.02.14.18.23l1.75 1q.16.1.4.11.35.01.65-.14l.38-.22q.22-.14.25-.3v.02q0 .19-.25.35l-.38.22q-.3.15-.65.14a1 1 0 0 1-.4-.1l-1.75-1Q91 58.15 91 58v-.02z"/><path fill="#fff" d="M97.52 62.05q0 .16.2.28l1.85 1.07q.17.1.43.1c.23.02.49-.03.68-.15l.4-.23q.28-.16.28-.36v-.02q-.01-.15-.2-.26l-1.86-1.07a1.2 1.2 0 0 0-1.1.04l-.4.24q-.27.15-.28.34z"/><path fill="#303030" d="M97.63 61.82v.21q0 .15.18.26l1.75 1q.16.1.4.1c.22.02.47-.03.65-.14l.38-.22q.24-.15.25-.33v-.21q0 .18-.25.34l-.38.22q-.3.16-.65.15a1 1 0 0 1-.4-.1l-1.75-1.01q-.18-.12-.18-.27"/><path fill="#1A1A1A" d="M99.96 63.2v.2c.22 0 .47-.04.65-.15l.38-.22q.24-.15.25-.33v-.22q0 .19-.25.35l-.38.22c-.18.1-.43.16-.65.14"/><path fill="#4D4D4D" d="M97.63 61.82q0 .16.18.27l1.75 1q.16.1.4.1c.22.02.47-.04.65-.14l.38-.22q.26-.16.26-.35v-.01q0-.15-.18-.25l-1.75-1c-.27-.16-.74-.14-1.06.04l-.37.22q-.25.14-.26.32z"/><path fill="#A6A6A6" d="M97.63 61.78q.01.14.18.24l1.75 1q.16.1.4.1c.22.02.47-.04.65-.14l.38-.22q.22-.14.25-.3v.03q0 .18-.25.34l-.38.22c-.18.1-.43.16-.65.15a1 1 0 0 1-.4-.1l-1.75-1.01q-.18-.12-.18-.27z"/><path fill="#fff" d="M94.78 63.62q0 .16.19.28l1.86 1.07q.17.1.42.11c.24.01.5-.04.69-.15l1.04-.58q.27-.16.27-.36v-.02q0-.16-.19-.26l-1.86-1.08c-.28-.16-.78-.14-1.1.05l-1.05.58q-.25.16-.27.34z"/><path fill="#303030" d="M94.88 63.4v.2q.01.16.19.26l1.74 1q.19.1.4.1.36.02.66-.13l1.02-.57q.25-.16.25-.33v-.22q0 .2-.25.34l-1.02.57q-.3.16-.65.15a1 1 0 0 1-.4-.1l-1.75-1.01q-.2-.12-.19-.26"/><path fill="#1A1A1A" d="M97.22 64.77v.2q.35.01.65-.14l1.02-.57q.24-.16.25-.33v-.22q0 .2-.25.34l-1.02.57q-.3.16-.65.15"/><path fill="#4D4D4D" d="M94.88 63.4q0 .15.19.26l1.74 1q.17.1.4.1.36.03.66-.14l1.02-.57q.26-.15.26-.34v-.01q-.02-.15-.18-.25l-1.75-1.01a1.2 1.2 0 0 0-1.06.04l-1.02.57q-.24.14-.25.32z"/><path fill="#A6A6A6" d="M94.9 63.35q0 .13.17.24l1.74 1q.17.1.4.1.36.03.66-.14l1.02-.57q.22-.14.25-.3v.03q0 .2-.25.34l-1.02.57q-.3.16-.65.15a1 1 0 0 1-.4-.1l-1.75-1.01q-.2-.12-.19-.26v-.03z"/><path fill="#fff" d="M84.82 57.94q0 .16.2.27l1.85 1.07q.17.1.43.11c.23.01.49-.04.68-.15l1.05-.58q.27-.16.27-.36v-.02q0-.16-.2-.26l-1.85-1.07c-.29-.17-.78-.15-1.12.04l-1.04.58q-.25.15-.27.34z"/><path fill="#303030" d="M84.93 57.7v.22q0 .15.18.25l1.75 1q.16.1.4.11c.22 0 .47-.04.65-.14l1.03-.57q.24-.16.25-.33v-.22q0 .2-.25.34l-1.03.57c-.18.1-.43.16-.65.15a1 1 0 0 1-.4-.1l-1.75-1.01q-.18-.11-.18-.26"/><path fill="#1A1A1A" d="M87.26 59.08v.2c.22.01.47-.04.65-.14l1.03-.57q.24-.16.25-.33v-.22q0 .19-.25.35l-1.03.56c-.18.1-.43.16-.65.15"/><path fill="#4D4D4D" d="M84.93 57.7q0 .16.18.27l1.75 1q.16.1.4.1c.22.02.47-.03.65-.14l1.03-.57q.25-.15.25-.34v-.01q0-.15-.18-.25l-1.75-1a1.2 1.2 0 0 0-1.05.03l-1.02.57q-.25.15-.26.32z"/><path fill="#A6A6A6" d="M84.93 57.66q.02.14.18.24l1.75 1q.16.1.4.1c.22.02.47-.03.65-.14l1.02-.57q.22-.13.25-.3v.02l.01.01q0 .2-.26.34l-1.02.57c-.18.1-.43.16-.65.15a1 1 0 0 1-.4-.1l-1.75-1.01q-.18-.12-.18-.26z"/><path fill="#fff" d="M81.5 56.04q0 .16.2.28l1.85 1.07q.18.1.43.1c.23.01.49-.04.68-.15l1.05-.58q.27-.16.27-.36v-.02q0-.15-.2-.26l-1.85-1.07a1.2 1.2 0 0 0-1.11.05l-1.05.57q-.25.15-.27.34z"/><path fill="#303030" d="M81.6 55.81v.2h.01q0 .16.18.27l1.75 1q.17.1.4.1.36.01.65-.14l1.03-.57q.24-.15.25-.33v-.21q0 .19-.25.34l-1.03.57c-.18.1-.43.15-.65.14a1 1 0 0 1-.4-.1l-1.75-1q-.18-.12-.18-.27"/><path fill="#1A1A1A" d="M83.94 57.18v.2q.36.01.65-.14l1.03-.57q.24-.15.25-.33v-.21q0 .19-.25.34l-1.03.56a1 1 0 0 1-.65.15"/><path fill="#4D4D4D" d="M81.6 55.81q0 .16.2.26l1.74 1q.16.1.4.11c.22.01.47-.04.65-.15l1.03-.56q.25-.16.25-.34v-.02q0-.15-.18-.25l-1.75-1c-.27-.16-.74-.14-1.05.04l-1.02.56q-.25.15-.26.32z"/><path fill="#A6A6A6" d="M81.62 55.76q0 .15.17.24l1.75 1q.16.1.4.11c.22.01.47-.04.65-.15l1.03-.56q.22-.14.24-.3v.01l.01.02q0 .19-.25.34l-1.03.57c-.18.1-.43.15-.65.14a1 1 0 0 1-.4-.1l-1.75-1q-.18-.12-.18-.27v-.05"/><path fill="#fff" d="M78.18 54.14q0 .16.2.28l1.85 1.07q.19.1.43.1c.23.02.49-.03.68-.15l1.05-.57q.27-.16.27-.37v-.01q0-.16-.19-.26l-1.86-1.08a1.3 1.3 0 0 0-1.11.05l-1.05.58q-.25.15-.27.34z"/><path fill="#303030" d="M78.29 53.91v.21q0 .15.18.26l1.75 1q.17.1.4.1.36.03.65-.14l1.03-.56q.25-.16.25-.33v-.22q0 .2-.25.34l-1.03.57c-.18.1-.43.15-.65.15a1 1 0 0 1-.4-.1l-1.75-1.01q-.18-.12-.18-.27"/><path fill="#1A1A1A" d="M80.62 55.29v.2q.36 0 .65-.15l1.03-.56q.24-.16.25-.33v-.22q0 .19-.25.34l-1.03.57c-.18.1-.43.16-.65.15"/><path fill="#4D4D4D" d="M78.29 53.91q0 .16.18.27l1.75 1q.16.1.4.1c.22.01.47-.03.65-.14l1.03-.57q.25-.16.25-.34v-.01q0-.16-.18-.25l-1.75-1.01c-.27-.16-.74-.14-1.05.04l-1.02.57q-.24.14-.26.32z"/><path fill="#A6A6A6" d="M78.3 53.87q0 .13.17.24l1.75 1q.16.1.4.1c.22.01.47-.04.65-.14l1.03-.57q.22-.14.25-.3v.03q0 .19-.25.34l-1.03.57c-.18.1-.43.15-.65.15a1 1 0 0 1-.4-.1l-1.75-1.01q-.18-.12-.18-.27v-.04"/><path fill="#fff" d="M74.86 52.25q0 .16.2.27l1.85 1.07q.19.1.43.11c.23.01.5-.04.69-.15l1.04-.58q.27-.16.27-.36v-.02q0-.16-.19-.26l-1.86-1.07c-.29-.17-.78-.15-1.11.04l-1.04.58q-.26.16-.27.34z"/><path fill="#303030" d="M74.97 52.02v.2q0 .16.18.26l1.75 1.01q.17.1.4.1.36 0 .65-.14l1.03-.57q.25-.16.25-.33v-.22q0 .19-.25.35l-1.03.56a1 1 0 0 1-.65.15 1 1 0 0 1-.4-.1l-1.75-1q-.18-.13-.18-.27"/><path fill="#1A1A1A" d="M77.3 53.39v.2q.36.01.65-.14l1.03-.57q.25-.16.25-.33v-.22q0 .19-.25.35l-1.03.56a1 1 0 0 1-.65.15"/><path fill="#4D4D4D" d="M74.97 52.02q0 .15.18.26l1.75 1q.17.1.4.1.36.03.65-.14l1.03-.56q.25-.16.25-.35v-.01q0-.15-.18-.25l-1.75-1a1.2 1.2 0 0 0-1.05.03l-1.02.57q-.24.15-.26.32z"/><path fill="#A6A6A6" d="M74.98 51.97q0 .13.17.24l1.75 1q.16.1.4.1c.22.02.47-.03.65-.14l1.03-.57q.22-.13.25-.3v.03q0 .19-.25.35l-1.03.56c-.18.1-.43.16-.65.15a1 1 0 0 1-.4-.1l-1.75-1.01q-.18-.12-.18-.26v-.05"/><path fill="#fff" d="M71.54 50.35q0 .16.2.28l1.86 1.07q.17.1.42.1c.23.02.5-.03.69-.15l1.04-.58q.27-.16.27-.36v-.01q0-.16-.19-.27l-1.86-1.07c-.28-.16-.78-.14-1.11.05l-1.04.57q-.26.15-.27.34z"/><path fill="#303030" d="M71.65 50.12v.21q0 .15.18.26l1.75 1q.17.1.4.1.36.02.65-.14l1.03-.57q.24-.15.25-.33v-.21q0 .18-.25.34l-1.03.56q-.29.16-.64.15a1 1 0 0 1-.4-.1l-1.76-1q-.18-.12-.18-.27"/><path fill="#1A1A1A" d="M73.99 51.5v.2q.35 0 .64-.15l1.03-.57q.25-.15.25-.33v-.21q0 .19-.25.34l-1.03.57q-.29.15-.64.14"/><path fill="#4D4D4D" d="M71.65 50.12q0 .16.18.26l1.75 1q.17.1.4.11.36.01.65-.14l1.03-.57q.26-.15.26-.34v-.02q-.02-.15-.18-.25l-1.75-1c-.28-.16-.74-.14-1.06.04l-1.02.57q-.25.14-.25.32z"/><path fill="#A6A6A6" d="M71.66 50.08q.01.13.17.23l1.75 1q.17.1.4.11.36 0 .65-.15l1.03-.56q.22-.14.25-.3v.03q0 .19-.25.34l-1.03.56q-.29.16-.64.15a1 1 0 0 1-.4-.1l-1.76-1q-.18-.12-.18-.27v-.04"/><path fill="#fff" d="M68.22 48.45q0 .16.2.28l1.86 1.07q.17.1.42.11c.24 0 .5-.04.69-.16l1.04-.57q.27-.16.27-.37v-.01q0-.16-.19-.26l-1.86-1.08c-.28-.16-.78-.14-1.1.05l-1.05.58q-.25.16-.27.34z"/><path fill="#303030" d="M68.33 48.22v.21q.01.16.19.26l1.74 1q.18.1.4.1.36.03.66-.14l1.02-.56q.25-.16.25-.33v-.22q0 .2-.25.34l-1.02.57q-.3.16-.65.15a1 1 0 0 1-.4-.1l-1.75-1.01q-.2-.11-.19-.27"/><path fill="#1A1A1A" d="M70.67 49.6v.2q.35 0 .65-.15l1.02-.56q.25-.16.25-.33v-.22q0 .2-.25.34l-1.02.57q-.3.16-.65.15"/><path fill="#4D4D4D" d="M68.33 48.22q0 .16.19.27l1.74 1q.17.1.4.1.36.02.66-.14l1.02-.57q.26-.15.26-.34v-.01q-.01-.16-.18-.25l-1.75-1.01c-.27-.16-.74-.14-1.06.04l-1.02.57q-.24.14-.25.32z"/><path fill="#A6A6A6" d="M68.34 48.18q.02.13.18.24l1.74 1q.17.1.4.1.36.02.66-.14l1.02-.57q.22-.13.25-.3v.03q0 .2-.25.34l-1.02.57q-.3.15-.65.15a1 1 0 0 1-.4-.1l-1.75-1.01q-.2-.11-.19-.27v-.02z"/><path fill="#fff" d="M61.59 44.66q0 .16.2.28L63.63 46q.17.1.43.1c.23.02.49-.03.68-.15l1.05-.58q.27-.16.27-.36V45q-.01-.16-.2-.27L64 43.66c-.28-.16-.78-.14-1.1.05l-1.05.58q-.26.15-.27.33z"/><path fill="#303030" d="M61.7 44.43v.21q0 .15.18.26l1.75 1q.16.1.4.1.35.02.65-.14l1.02-.56q.25-.16.26-.34v-.21q0 .19-.26.34l-1.02.57q-.3.15-.65.14a1 1 0 0 1-.4-.1l-1.75-1q-.19-.12-.19-.27"/><path fill="#1A1A1A" d="M64.03 45.8v.2q.35.03.65-.14l1.02-.56q.25-.16.26-.34v-.21q0 .19-.26.34l-1.02.57q-.3.15-.65.14"/><path fill="#4D4D4D" d="M61.7 44.43q0 .16.18.26l1.75 1q.15.1.4.11.35.01.65-.14l1.02-.57q.26-.16.26-.34v-.02q0-.15-.18-.25l-1.75-1c-.27-.16-.74-.14-1.05.04l-1.03.56q-.24.15-.25.33z"/><path fill="#A6A6A6" d="M61.7 44.39q.01.13.18.23l1.75 1q.15.1.4.11.35.01.65-.14l1.02-.57q.22-.14.25-.3v.03q0 .18-.25.34l-1.02.57q-.3.15-.65.14a1 1 0 0 1-.4-.1l-1.75-1q-.18-.12-.19-.27v-.02z"/><path fill="#fff" d="M91.13 64.78q0 .16.19.28l2.65 1.57q.19.1.43.11c.23.01.49-.04.68-.15l1.05-.58q.27-.16.27-.36v-.02q0-.16-.19-.26l-2.66-1.58c-.28-.16-.78-.14-1.1.05l-1.05.57q-.26.15-.27.34z"/><path fill="#303030" d="M91.23 64.55v.21q.01.15.19.26l2.54 1.51q.17.1.4.1.36.01.65-.14l1.03-.57q.25-.16.25-.33v-.22q0 .19-.25.35l-1.03.56a1 1 0 0 1-.65.15 1 1 0 0 1-.4-.1l-2.54-1.52q-.2-.1-.19-.26"/><path fill="#1A1A1A" d="M94.36 66.43v.2q.36.01.65-.14l1.03-.57q.24-.16.25-.33v-.22q0 .19-.25.35l-1.03.56c-.18.1-.43.16-.65.15"/><path fill="#4D4D4D" d="M91.23 64.55q0 .16.19.26l2.54 1.52q.16.1.4.1c.22.01.47-.04.65-.15l1.03-.56q.25-.16.25-.35v-.01q0-.15-.18-.25l-2.54-1.51c-.27-.16-.74-.14-1.06.04l-1.02.56q-.25.15-.25.33z"/><path fill="#A6A6A6" d="M91.24 64.5q.02.15.18.24l2.54 1.51q.16.1.4.1c.22.02.47-.03.65-.14l1.03-.57q.23-.13.24-.3v.02l.01.01q0 .19-.25.35l-1.03.56a1 1 0 0 1-.65.15 1 1 0 0 1-.4-.1l-2.54-1.52q-.2-.1-.19-.26v-.02z"/><path fill="#fff" d="M82.39 66.99q0 .16.2.28l5.22 2.88q.17.1.43.1c.23.02.49-.04.68-.15l1.05-.58q.27-.16.27-.36v-.01q-.01-.16-.2-.27L84.83 66a1.3 1.3 0 0 0-1.12.04l-1.04.58q-.26.15-.27.34z"/><path fill="#303030" d="M82.5 66.76v.2q0 .16.18.26l5.12 2.82q.16.1.4.1c.22.02.47-.03.65-.14l1.02-.57q.25-.15.26-.33v-.21q0 .19-.26.34l-1.02.57c-.18.1-.43.15-.65.14a1 1 0 0 1-.4-.1l-5.12-2.82q-.18-.1-.18-.26"/><path fill="#1A1A1A" d="M88.2 69.94v.2c.22.02.47-.03.65-.14l1.02-.57q.25-.15.26-.33v-.21q0 .19-.25.34l-1.03.57c-.18.1-.43.15-.65.14"/><path fill="#4D4D4D" d="M82.5 66.76q0 .15.18.26l5.12 2.82q.16.1.4.1c.22.01.47-.04.65-.14l1.02-.57q.26-.16.26-.34v-.02q0-.15-.18-.25l-5.12-2.82c-.27-.15-.74-.13-1.05.05l-1.03.56q-.24.14-.25.32z"/><path fill="#A6A6A6" d="M82.5 66.71q.01.15.18.24l5.12 2.82q.16.1.4.1c.22.01.47-.04.65-.15l1.02-.56q.22-.14.25-.3v.01l.01.02q0 .19-.26.34l-1.02.56a1 1 0 0 1-.65.15 1 1 0 0 1-.4-.1l-5.12-2.82q-.18-.1-.18-.26z"/><path fill="#fff" d="M82.83 70.52q0 .16.19.28l1.86 1.07q.17.1.42.11c.24.01.5-.04.69-.15l1.05-.58q.26-.16.27-.36v-.02q-.01-.16-.2-.26l-1.86-1.07c-.28-.17-.78-.15-1.1.04l-1.05.58q-.25.16-.27.34z"/><path fill="#303030" d="M82.93 70.3v.2q.01.16.19.26l1.74 1q.19.1.4.1.36.03.66-.14l1.02-.56q.25-.16.25-.33v-.22q0 .2-.25.34l-1.02.57q-.3.16-.65.15a1 1 0 0 1-.4-.1l-1.75-1.01q-.19-.11-.19-.26"/><path fill="#1A1A1A" d="M85.27 71.67v.2q.35.01.65-.14l1.02-.57q.25-.16.26-.33v-.22q0 .2-.26.34l-1.02.57q-.3.16-.65.15"/><path fill="#4D4D4D" d="M82.93 70.3q0 .15.19.26l1.75 1q.15.1.4.1.35.03.65-.14l1.02-.57q.26-.16.26-.34v-.01q0-.16-.18-.25l-1.75-1c-.27-.16-.74-.15-1.06.03l-1.02.57q-.25.14-.25.32z"/><path fill="#A6A6A6" d="M82.94 70.25q.02.13.18.24l1.75 1q.15.1.4.1.35.03.65-.14l1.02-.57q.22-.13.25-.3v.03q0 .2-.25.34l-1.02.57q-.3.16-.65.15a1 1 0 0 1-.4-.1l-1.75-1.01q-.19-.11-.19-.26v-.03z"/><path fill="#fff" d="M61.75 55.1q0 .16.2.28l1.85 1.06q.18.1.43.12c.23 0 .49-.05.68-.16l1.05-.58q.27-.16.27-.36v-.02q0-.15-.2-.26l-1.85-1.07a1.2 1.2 0 0 0-1.11.04l-1.05.58q-.25.15-.27.34z"/><path fill="#303030" d="M61.86 54.87v.2q0 .16.18.26l1.75 1.01q.17.1.4.1.36.01.65-.14l1.03-.57q.24-.15.25-.33v-.21q0 .18-.25.34l-1.03.56a1 1 0 0 1-.65.15 1 1 0 0 1-.4-.1l-1.75-1q-.18-.12-.18-.27"/><path fill="#1A1A1A" d="M64.2 56.24v.2q.35.01.64-.14l1.03-.57q.24-.15.25-.33v-.21q0 .19-.25.34l-1.03.56a1 1 0 0 1-.65.15"/><path fill="#4D4D4D" d="M61.86 54.87q0 .16.18.26l1.75 1q.16.1.4.11c.22 0 .47-.04.65-.15l1.03-.56q.25-.16.25-.34v-.02q0-.15-.18-.25l-1.75-1c-.27-.16-.74-.14-1.05.04l-1.02.56q-.25.15-.26.32z"/><path fill="#A6A6A6" d="M61.87 54.82q0 .15.17.24l1.75 1q.16.1.4.11c.22 0 .47-.04.65-.15l1.03-.56q.22-.14.24-.3v.01l.01.02q0 .18-.25.34l-1.03.56a1 1 0 0 1-.65.15 1 1 0 0 1-.4-.1l-1.75-1q-.18-.12-.18-.27z"/><path fill="#fff" d="M78.8 64.99q0 .16.2.27l1.86 1.07q.17.1.42.11c.24.01.5-.04.69-.15l1.05-.58q.26-.16.27-.36v-.02q-.01-.16-.2-.26L81.24 64c-.28-.17-.78-.15-1.1.04l-1.05.58q-.25.16-.27.34z"/><path fill="#303030" d="M78.91 64.76v.2q.01.16.19.26l1.74 1.01q.19.1.4.1.36.01.66-.14l1.02-.57q.25-.15.25-.33v-.22q0 .19-.25.35l-1.02.56q-.3.17-.65.15a1 1 0 0 1-.4-.1l-1.75-1q-.19-.12-.19-.27"/><path fill="#1A1A1A" d="M81.25 66.13v.2q.35.01.65-.14l1.02-.57q.24-.15.25-.33v-.22q0 .19-.25.35l-1.02.56q-.3.16-.65.15"/><path fill="#4D4D4D" d="M78.91 64.76q0 .15.19.26l1.74 1q.17.1.4.11.36.01.66-.15l1.02-.56q.26-.16.26-.35v-.01q0-.15-.18-.25l-1.75-1c-.27-.16-.74-.14-1.06.04l-1.02.56q-.25.14-.25.32z"/><path fill="#A6A6A6" d="M78.92 64.71q.01.15.18.24l1.74 1q.17.1.4.11.36.02.66-.15l1.02-.56q.22-.14.25-.3v.02q0 .19-.25.35l-1.02.56q-.3.17-.65.15a1 1 0 0 1-.4-.1l-1.75-1q-.2-.12-.19-.27v-.03z"/><path fill="#fff" d="M79.52 68.63q0 .16.19.28l1.86 1.07q.17.1.42.1c.24.02.5-.03.69-.15l1.04-.58Q84 69.2 84 69v-.01q0-.16-.19-.27l-1.86-1.07c-.28-.16-.78-.14-1.1.05l-1.05.58q-.26.15-.27.34z"/><path fill="#303030" d="M79.62 68.4v.21q.01.15.19.26l1.74 1q.19.1.4.1.36.03.66-.14l1.02-.56q.25-.16.25-.33v-.22q0 .19-.25.34l-1.02.57q-.3.16-.65.15a1 1 0 0 1-.4-.1l-1.75-1.01q-.2-.12-.19-.27"/><path fill="#1A1A1A" d="M81.96 69.77v.2q.35.03.65-.14l1.02-.56q.25-.16.25-.34v-.21q0 .19-.25.34l-1.02.57q-.3.16-.65.14"/><path fill="#4D4D4D" d="M79.62 68.4q0 .16.19.27l1.74 1q.17.1.4.1.36.03.66-.14l1.02-.57q.26-.16.26-.34v-.02q-.01-.14-.18-.24l-1.75-1.01c-.27-.16-.74-.14-1.06.04l-1.02.57q-.24.14-.25.32z"/><path fill="#A6A6A6" d="M79.63 68.36q.02.13.18.23l1.74 1q.17.1.4.11.36.01.66-.14l1.02-.57q.22-.14.25-.3v.03q0 .19-.25.34l-1.02.57q-.3.16-.65.14a1 1 0 0 1-.4-.1l-1.75-1q-.2-.12-.19-.27v-.02z"/><path fill="#fff" d="M76.15 66.72q0 .16.2.28l1.85 1.07q.17.1.43.1c.23.02.49-.04.68-.15l1.05-.58q.27-.16.27-.36v-.01q0-.16-.2-.27l-1.85-1.07c-.29-.16-.78-.14-1.12.05l-1.04.57q-.25.16-.27.34z"/><path fill="#303030" d="M76.26 66.5v.2q0 .15.18.26l1.75 1q.16.1.4.1c.22.02.47-.03.65-.14l1.02-.56q.25-.16.26-.34v-.21q0 .19-.26.34l-1.02.57c-.18.1-.43.15-.65.14a1 1 0 0 1-.4-.1l-1.75-1q-.18-.12-.18-.27"/><path fill="#1A1A1A" d="M78.59 67.86v.2c.22.02.47-.03.65-.14l1.02-.57q.25-.15.26-.33v-.21q0 .19-.26.34l-1.02.57c-.18.1-.43.15-.65.14"/><path fill="#4D4D4D" d="M76.26 66.5q0 .14.18.25l1.75 1q.16.1.4.11c.22.01.47-.04.65-.15l1.02-.56q.26-.16.26-.34v-.02q0-.15-.18-.25l-1.75-1c-.27-.16-.74-.14-1.05.04l-1.02.56q-.25.15-.26.33z"/><path fill="#A6A6A6" d="M76.26 66.45q.01.13.18.23l1.75 1q.16.1.4.11c.22.01.47-.04.65-.15l1.02-.56q.22-.14.25-.3v.01l.01.02q0 .18-.26.34l-1.02.56a1 1 0 0 1-.65.15 1 1 0 0 1-.4-.1l-1.75-1q-.18-.12-.18-.27z"/><path fill="#fff" d="M70.53 63.49q0 .16.2.28l.83.47q.19.1.43.11c.23.02.5-.04.69-.15l1.04-.58q.27-.17.27-.36v-.02q0-.15-.19-.26l-.84-.48a1.2 1.2 0 0 0-1.11.04l-1.04.58q-.27.16-.27.34z"/><path fill="#303030" d="M70.64 63.26v.2q0 .16.18.26l.73.42q.17.1.4.1.36.01.65-.14l1.03-.57q.25-.15.25-.33v-.21q0 .18-.25.34l-1.03.56a1 1 0 0 1-.65.15 1 1 0 0 1-.4-.1l-.73-.42q-.18-.1-.18-.26"/><path fill="#1A1A1A" d="M71.95 64.04v.2q.36.01.65-.14l1.03-.57q.25-.15.25-.33v-.22q0 .19-.25.35l-1.03.56a1 1 0 0 1-.65.15"/><path fill="#4D4D4D" d="M70.64 63.26q0 .15.18.26l.73.42q.17.1.4.1c.22.01.47-.04.65-.15l1.03-.56q.26-.16.26-.35v-.01q-.01-.15-.19-.25l-.73-.42c-.27-.15-.74-.13-1.05.05l-1.02.56q-.24.15-.26.32z"/><path fill="#A6A6A6" d="M70.65 63.21q0 .15.17.24l.73.42q.16.1.4.1c.22.01.47-.04.65-.15l1.03-.56q.22-.14.25-.3v.02q0 .19-.25.35l-1.03.56a1 1 0 0 1-.65.15 1 1 0 0 1-.4-.1l-.73-.42q-.18-.1-.18-.26v-.05"/><path fill="#fff" d="M55.88 54.88q0 .16.2.28l.84.48q.17.1.42.1c.24.02.5-.04.69-.15l1.04-.58q.27-.16.27-.36v-.02q0-.15-.19-.26l-.84-.48c-.28-.16-.78-.14-1.11.05l-1.04.57q-.26.16-.27.34z"/><path fill="#303030" d="M56 54.65v.2q0 .16.18.26l.72.42q.18.1.4.1.36.01.66-.14l1.02-.57q.24-.15.25-.33v-.21q0 .18-.25.34l-1.02.56q-.3.16-.65.15a1 1 0 0 1-.4-.1l-.73-.42q-.2-.1-.19-.26"/><path fill="#1A1A1A" d="M57.3 55.43v.2q.36.01.66-.14l1.02-.57q.24-.15.25-.33v-.21q0 .18-.25.34l-1.02.56q-.3.16-.65.15"/><path fill="#4D4D4D" d="M56 54.65q0 .16.18.26l.72.42q.17.1.4.1.36.01.66-.15l1.02-.56q.26-.16.26-.34v-.02q-.02-.15-.18-.25l-.73-.42c-.27-.15-.74-.13-1.06.05l-1.02.56q-.24.14-.25.32z"/><path fill="#A6A6A6" d="M56 54.6q0 .15.18.24l.72.42q.17.1.4.1.36.02.66-.15l1.02-.56q.22-.14.25-.3v.03q0 .18-.25.34l-1.02.56q-.3.16-.65.15a1 1 0 0 1-.4-.1l-.73-.42q-.2-.1-.19-.26v-.02z"/><path fill="#fff" d="M88.65 63.4q0 .16.2.27l.83.48q.17.1.43.11c.23.01.49-.04.68-.15l1.05-.58q.27-.16.27-.36v-.02q-.01-.16-.2-.26l-.84-.48c-.28-.17-.78-.15-1.1.04l-1.05.58q-.25.16-.27.34z"/><path fill="#303030" d="M88.75 63.17v.2q.01.16.19.26l.73.42q.16.1.4.1c.22.01.47-.04.65-.14l1.02-.57q.25-.16.26-.33v-.22q0 .19-.26.35l-1.02.56q-.3.16-.65.15a1 1 0 0 1-.4-.1l-.73-.42q-.19-.12-.19-.26"/><path fill="#1A1A1A" d="M90.07 63.95v.2c.22.01.47-.04.65-.14l1.02-.57q.25-.16.26-.33v-.22q0 .19-.26.35l-1.02.56q-.3.16-.65.15"/><path fill="#4D4D4D" d="M88.75 63.17q0 .15.19.26l.73.42q.16.1.4.1c.22.01.47-.04.65-.15l1.02-.56q.26-.16.26-.35v-.01q0-.15-.18-.25l-.73-.42c-.27-.15-.74-.13-1.05.05l-1.03.56q-.24.15-.25.32z"/><path fill="#A6A6A6" d="M88.76 63.12q.02.14.18.24l.73.41q.16.1.4.1c.22.02.47-.03.65-.14l1.02-.56q.22-.14.25-.3l.01.02q0 .19-.26.35l-1.02.56q-.3.16-.65.15a1 1 0 0 1-.4-.1l-.73-.42q-.18-.1-.19-.26v-.03z"/><path fill="#fff" d="M48.76 50.85q0 .16.2.27l.84.48q.17.1.42.11c.24.01.5-.04.69-.15l1.05-.58q.26-.16.27-.36v-.02q-.01-.16-.2-.26l-.84-.48c-.28-.17-.78-.15-1.1.04l-1.05.58q-.26.16-.27.34z"/><path fill="#303030" d="M48.87 50.62v.2q.01.16.19.26l.72.42q.18.1.4.1.36.01.66-.14l1.02-.57q.24-.16.25-.33v-.22q0 .19-.25.35l-1.02.56q-.3.16-.65.15a1 1 0 0 1-.4-.1l-.73-.42q-.2-.12-.19-.26"/><path fill="#1A1A1A" d="M50.19 51.4v.2q.35.01.65-.14l1.02-.57q.25-.16.25-.33v-.22q0 .19-.25.35l-1.02.56q-.3.16-.65.15"/><path fill="#4D4D4D" d="M48.87 50.62q0 .15.19.26l.72.41q.17.1.4.1.36.03.66-.14l1.02-.57q.26-.16.26-.34v-.01q-.01-.16-.18-.25l-.73-.42a1.2 1.2 0 0 0-1.06.04l-1.02.57q-.25.14-.25.32z"/><path fill="#A6A6A6" d="M48.88 50.57q0 .14.18.24l.72.41q.17.1.4.1.36.03.66-.14l1.02-.57q.22-.13.25-.3v.03q0 .2-.25.34l-1.02.57q-.3.16-.65.15a1 1 0 0 1-.4-.1l-.73-.42q-.2-.11-.19-.26v-.03z"/><path fill="#fff" d="M46.48 49.51q0 .16.2.28l.84.48q.17.1.42.11c.24.01.5-.04.69-.15l3.97-2.28q.27-.17.27-.36v-.02q0-.16-.19-.26l-.84-.48c-.29-.17-.78-.15-1.11.04l-3.97 2.28q-.25.15-.27.34z"/><path fill="#303030" d="M46.6 49.29v.2q0 .16.18.26l.72.42q.18.1.4.1.36.01.66-.14l3.95-2.27q.24-.16.25-.33v-.22q0 .19-.25.35l-3.95 2.26q-.3.16-.65.15a1 1 0 0 1-.4-.1l-.73-.42q-.2-.12-.19-.26"/><path fill="#1A1A1A" d="M47.9 50.07v.2q.36.01.66-.14l3.95-2.27q.25-.16.25-.33v-.22q0 .19-.25.35l-3.95 2.26q-.3.16-.65.15"/><path fill="#4D4D4D" d="M46.6 49.29q0 .15.18.26l.72.41q.17.1.4.1.36.03.66-.14l3.95-2.26q.25-.16.25-.35v-.01q0-.15-.18-.25l-.73-.42c-.27-.15-.74-.13-1.05.05l-3.95 2.26q-.24.14-.25.32z"/><path fill="#A6A6A6" d="M46.6 49.24q0 .14.18.24l.72.41q.17.1.4.1.36.03.66-.14l3.95-2.27q.22-.13.25-.3v.03q0 .19-.25.35l-3.96 2.26q-.29.16-.64.15a1 1 0 0 1-.4-.1l-.73-.42q-.2-.12-.19-.26v-.03z"/><path fill="#fff" d="M58.2 56.25q0 .16.2.28l10.82 6.32q.19.1.43.1c.23.02.49-.04.68-.15l1.05-.58q.27-.16.27-.36v-.01q0-.16-.19-.27l-10.83-6.32c-.28-.16-.78-.14-1.1.05l-1.05.58q-.26.16-.27.34z"/><path fill="#303030" d="M58.31 56.02v.21q.01.15.19.26l10.7 6.25q.18.1.41.1.36.02.65-.14l1.03-.57q.24-.15.25-.33v-.21q0 .19-.25.34l-1.03.57c-.18.1-.43.15-.65.14a1 1 0 0 1-.4-.1L58.5 56.29q-.2-.11-.19-.27"/><path fill="#1A1A1A" d="M69.61 62.64v.2q.36.02.65-.14l1.03-.57q.25-.15.25-.33v-.21q0 .18-.25.34l-1.03.56a1 1 0 0 1-.65.15"/><path fill="#4D4D4D" d="M58.31 56.02q0 .16.19.27l10.7 6.25q.18.1.41.1c.22.01.47-.04.65-.15l1.03-.56q.25-.15.25-.34v-.02q0-.15-.18-.25l-10.71-6.25c-.27-.16-.74-.14-1.06.04l-1.02.57q-.24.14-.25.32z"/><path fill="#A6A6A6" d="M58.32 55.98q0 .13.18.24l10.7 6.25q.18.1.41.1c.22.01.47-.04.65-.15l1.03-.56q.23-.14.24-.3v.01l.01.02q0 .19-.25.34l-1.03.57c-.18.1-.43.15-.65.14a1 1 0 0 1-.4-.1L58.5 56.29q-.2-.11-.19-.27V56z"/><path fill="#fff" d="M75.28 55.82q0 .16.2.27l1.86 1.07q.17.1.42.11c.24.01.5-.04.69-.15l1.04-.58q.27-.17.27-.36v-.02q0-.16-.19-.26l-1.86-1.07c-.28-.17-.78-.15-1.1.04l-1.05.58q-.26.15-.27.34z"/><path fill="#303030" d="M75.4 55.59v.2q0 .16.18.26l1.74 1q.18.1.4.11.36 0 .66-.14l1.02-.57q.25-.16.25-.33v-.22q0 .2-.25.34l-1.02.57q-.3.16-.65.15a1 1 0 0 1-.4-.1l-1.75-1.01q-.2-.11-.19-.26"/><path fill="#1A1A1A" d="M77.73 56.96v.2q.35.01.65-.14l1.02-.57q.25-.16.25-.33v-.22q0 .2-.25.34l-1.02.57q-.3.16-.65.15"/><path fill="#4D4D4D" d="M75.4 55.59q0 .15.18.26l1.74 1q.17.1.4.1.36.03.66-.14l1.02-.57q.26-.16.26-.34v-.01q-.02-.15-.18-.25l-1.75-1c-.27-.16-.74-.15-1.06.03l-1.02.57q-.24.14-.25.32z"/><path fill="#A6A6A6" d="M75.4 55.54q0 .13.18.24l1.74 1q.17.1.4.1.36.02.66-.14l1.02-.57q.22-.13.25-.3v.03q0 .2-.25.34l-1.02.57q-.3.16-.65.15a1 1 0 0 1-.4-.1l-1.75-1.01q-.2-.12-.19-.26v-.03z"/><path fill="#fff" d="M78.62 57.7q0 .16.2.28l1.85 1.06q.17.1.43.11c.23.01.49-.04.68-.15l1.05-.58q.27-.16.27-.36v-.02q0-.16-.2-.26l-1.85-1.07c-.29-.17-.78-.15-1.12.04l-1.04.58q-.26.15-.27.34z"/><path fill="#303030" d="M78.73 57.47v.2q0 .16.18.26l1.75 1.01q.16.1.4.1c.22.01.47-.04.65-.14l1.03-.57q.24-.15.25-.33v-.22q0 .19-.26.35l-1.02.56a1 1 0 0 1-.65.15 1 1 0 0 1-.4-.1l-1.75-1q-.18-.12-.18-.27"/><path fill="#1A1A1A" d="M81.06 58.84v.2c.22.01.47-.04.65-.14l1.02-.57q.25-.15.26-.33v-.21q0 .18-.26.34l-1.02.56a1 1 0 0 1-.65.15"/><path fill="#4D4D4D" d="M78.73 57.47q0 .15.18.26l1.75 1q.16.1.4.11c.22 0 .47-.04.65-.15l1.02-.56q.26-.16.26-.35v-.01q0-.15-.18-.25l-1.75-1c-.27-.16-.74-.14-1.05.04l-1.02.56q-.25.15-.26.32z"/><path fill="#A6A6A6" d="M78.73 57.42q.02.14.18.24l1.75 1q.16.1.4.11c.22 0 .47-.04.65-.15l1.02-.56q.22-.14.25-.3v.01l.01.01q0 .19-.26.35l-1.02.56a1 1 0 0 1-.65.15 1 1 0 0 1-.4-.1l-1.75-1q-.18-.12-.18-.27z"/><path fill="#fff" d="M58.9 50q0 .17.2.29l1.85 1.07q.19.1.43.1c.23.01.49-.04.68-.15l1.05-.58q.27-.16.27-.36v-.02q0-.15-.19-.26l-1.86-1.07a1.3 1.3 0 0 0-1.11.05l-1.05.57q-.26.15-.27.34z"/><path fill="#303030" d="M59 49.78v.2h.01q0 .16.18.26l1.75 1.01q.17.1.4.1.36.01.65-.14l1.03-.57q.24-.15.25-.33v-.21q0 .19-.25.34l-1.03.56a1 1 0 0 1-.65.15 1 1 0 0 1-.4-.1l-1.75-1q-.18-.12-.18-.27"/><path fill="#1A1A1A" d="M61.34 51.15v.2q.36.01.65-.14l1.03-.57q.24-.15.25-.33v-.21q0 .18-.25.34l-1.03.56a1 1 0 0 1-.65.15"/><path fill="#4D4D4D" d="M59 49.78q0 .16.2.26l1.74 1q.16.1.4.11c.22.01.47-.04.65-.15l1.03-.56q.25-.16.25-.34v-.02q0-.15-.18-.25l-1.75-1c-.27-.16-.74-.14-1.05.04l-1.02.56q-.25.14-.26.32z"/><path fill="#A6A6A6" d="M59.02 49.73q0 .15.17.24l1.75 1q.16.1.4.11c.22 0 .47-.04.65-.15l1.03-.56q.22-.14.24-.3v.01l.01.02q0 .18-.25.34l-1.03.56a1 1 0 0 1-.65.15 1 1 0 0 1-.4-.1l-1.75-1q-.18-.12-.18-.27z"/><path fill="#fff" d="M62.23 51.9q0 .16.2.27l1.86 1.07q.17.1.42.1c.23.02.5-.03.69-.15l1.04-.58q.27-.16.27-.36v-.01q0-.16-.19-.27l-1.86-1.07c-.28-.16-.78-.14-1.1.05l-1.05.58q-.26.15-.27.33z"/><path fill="#303030" d="M62.34 51.66v.21q0 .15.19.26l1.74 1q.18.1.4.1.36.02.66-.14l1.02-.56q.25-.16.25-.34v-.21q0 .19-.25.34l-1.02.57q-.3.15-.65.14a1 1 0 0 1-.4-.1l-1.75-1q-.2-.12-.19-.27"/><path fill="#1A1A1A" d="M64.68 53.03v.2q.35.03.65-.14l1.02-.56q.25-.16.25-.34v-.21q0 .19-.25.34l-1.02.57q-.3.16-.65.14"/><path fill="#4D4D4D" d="M62.34 51.66q0 .16.19.27l1.74 1q.17.1.4.1.36.01.66-.14l1.02-.57q.26-.16.26-.34v-.02q-.01-.14-.18-.24l-1.75-1.01c-.28-.16-.74-.14-1.06.04l-1.02.57q-.24.14-.25.32z"/><path fill="#A6A6A6" d="M62.35 51.62q0 .13.18.23l1.74 1q.17.1.4.11.36.01.66-.14l1.02-.57q.22-.14.25-.3v.03q0 .19-.25.34l-1.02.57q-.3.15-.65.14a1 1 0 0 1-.4-.1l-1.75-1q-.2-.12-.19-.27v-.02z"/><path fill="#fff" d="M65.57 53.77q0 .16.2.28l1.85 1.07q.17.1.43.11c.23.01.49-.04.68-.15l1.05-.58q.27-.17.27-.36v-.02q-.01-.16-.2-.26L68 52.78c-.28-.16-.78-.14-1.1.05l-1.05.58q-.26.16-.27.34z"/><path fill="#303030" d="M65.68 53.54v.21q0 .16.18.26l1.75 1q.16.1.4.1.35.02.65-.13l1.02-.57q.25-.16.26-.33v-.22q0 .2-.26.34l-1.02.57c-.18.1-.43.16-.65.15a1 1 0 0 1-.4-.1l-1.75-1.01q-.18-.11-.18-.27"/><path fill="#1A1A1A" d="M68.01 54.92v.2q.35.01.65-.14l1.02-.57q.25-.16.26-.33v-.22q0 .2-.26.34l-1.02.57q-.3.16-.65.15"/><path fill="#4D4D4D" d="M65.68 53.55q0 .15.18.26l1.75 1q.16.1.4.1c.22.02.47-.03.65-.14l1.02-.57q.26-.16.26-.34v-.01q0-.16-.18-.25l-1.75-1.01a1.2 1.2 0 0 0-1.05.04l-1.02.57q-.25.14-.26.32z"/><path fill="#A6A6A6" d="M65.68 53.5q.02.14.18.24l1.75 1q.16.1.4.1.35.02.65-.14l1.02-.57q.22-.13.25-.3v.02l.01.01q0 .2-.26.34l-1.02.57q-.3.16-.65.15a1 1 0 0 1-.4-.1l-1.75-1.01q-.18-.12-.18-.26z"/><path fill="#fff" d="M68.9 55.66q0 .16.2.27L70.95 57q.19.1.43.11c.23.01.5-.04.68-.15l1.05-.58q.27-.17.27-.36V56q0-.16-.19-.26l-1.86-1.07c-.29-.17-.78-.15-1.11.04l-1.04.58q-.27.16-.27.34z"/><path fill="#303030" d="M69 55.43v.2h.01q0 .16.18.26l1.75 1.01q.17.1.4.1.36.01.65-.14l1.03-.57q.25-.15.25-.33v-.22q0 .19-.25.35l-1.03.56a1 1 0 0 1-.65.15 1 1 0 0 1-.4-.1l-1.75-1q-.18-.12-.18-.27"/><path fill="#1A1A1A" d="M71.34 56.8v.2q.36.01.65-.14l1.03-.57q.25-.15.25-.33v-.22q0 .19-.25.35l-1.03.56a1 1 0 0 1-.65.15"/><path fill="#4D4D4D" d="M69 55.43q0 .15.2.26l1.74 1q.16.1.4.11c.22 0 .47-.04.65-.15l1.03-.56q.25-.16.25-.35v-.01q0-.15-.18-.25l-1.75-1c-.27-.16-.74-.14-1.05.04l-1.02.56q-.24.15-.26.32z"/><path fill="#A6A6A6" d="M69.02 55.38q0 .14.17.24l1.75 1q.16.1.4.11c.22 0 .47-.04.65-.15l1.03-.56q.22-.14.25-.3v.02q0 .19-.25.35l-1.03.56a1 1 0 0 1-.65.15 1 1 0 0 1-.4-.1l-1.75-1q-.18-.12-.18-.27v-.05"/><path fill="#fff" d="M72.24 57.54q0 .16.19.28l1.86 1.07q.17.1.42.1c.24.02.5-.03.69-.15l1.04-.58q.27-.16.27-.36v-.01q0-.16-.19-.27l-1.86-1.07c-.28-.16-.78-.14-1.1.05l-1.05.57q-.25.16-.27.34z"/><path fill="#303030" d="M72.34 57.31v.21q.01.15.19.26l1.74 1q.19.1.4.1.36.02.66-.14l1.02-.56q.25-.15.25-.34v-.21q0 .19-.25.34l-1.02.57q-.3.15-.65.14a1 1 0 0 1-.4-.1l-1.75-1q-.2-.12-.19-.27"/><path fill="#1A1A1A" d="M74.68 58.68v.2q.35.03.65-.14l1.02-.56q.25-.15.25-.34v-.21q0 .19-.25.34l-1.02.57q-.3.15-.65.14"/><path fill="#4D4D4D" d="M72.34 57.31q0 .16.19.26l1.74 1q.17.1.4.11.36.01.66-.14l1.02-.57q.26-.15.26-.34v-.02q0-.15-.18-.25l-1.75-1c-.27-.16-.74-.14-1.06.04l-1.02.57q-.25.14-.25.32z"/><path fill="#A6A6A6" d="M72.35 57.27q.01.13.18.23l1.74 1q.17.1.4.11.36.01.66-.14l1.02-.57q.22-.14.25-.3v.03q0 .18-.25.34l-1.02.57q-.3.15-.65.14a1 1 0 0 1-.4-.1l-1.75-1q-.2-.12-.19-.27v-.02z"/><path fill="#fff" d="M75.57 59.42q0 .16.2.28l1.85 1.07q.18.1.43.11c.23 0 .49-.04.68-.16l1.05-.57q.27-.16.27-.37v-.01q0-.16-.2-.26L78 58.43a1.3 1.3 0 0 0-1.11.05l-1.05.58q-.26.15-.27.34z"/><path fill="#303030" d="M75.68 59.2v.2q0 .16.18.26l1.75 1q.17.1.4.1c.22.02.47-.03.65-.14l1.03-.56q.24-.16.25-.33v-.22q0 .2-.25.34l-1.03.57c-.18.1-.43.16-.65.15a1 1 0 0 1-.4-.1l-1.75-1.01q-.18-.11-.18-.27"/><path fill="#1A1A1A" d="M78.01 60.57v.2c.22 0 .47-.04.65-.15l1.03-.56q.24-.16.25-.33v-.22q0 .2-.25.34l-1.03.57c-.18.1-.43.16-.65.15"/><path fill="#4D4D4D" d="M75.68 59.2q0 .15.18.26l1.75 1q.16.1.4.1c.22.01.47-.03.65-.14l1.03-.57q.25-.16.25-.34v-.01q0-.15-.18-.25l-1.75-1.01c-.27-.16-.74-.14-1.05.04l-1.02.57q-.25.14-.26.32z"/><path fill="#A6A6A6" d="M75.68 59.15q.01.14.18.24l1.75 1q.16.1.4.1c.22.01.47-.03.65-.14l1.03-.57q.21-.13.24-.3v.02l.01.01q0 .2-.25.34l-1.03.57c-.18.1-.43.15-.65.15a1 1 0 0 1-.4-.1l-1.75-1.01q-.18-.11-.18-.27z"/><path fill="#fff" d="M78.9 61.3q0 .16.2.28l1.86 1.07q.17.1.42.11c.23.01.5-.04.69-.15l1.04-.58q.27-.16.27-.36v-.02q0-.16-.19-.26l-1.86-1.07c-.29-.17-.78-.15-1.11.04l-1.04.58q-.27.16-.27.34z"/><path fill="#303030" d="M79.01 61.08v.2q0 .16.18.26l1.75 1.01q.17.1.4.1.36.01.65-.14l1.03-.57q.24-.15.25-.33v-.22q0 .19-.25.35l-1.03.56c-.18.11-.42.16-.64.15a1 1 0 0 1-.4-.1l-1.76-1q-.18-.13-.18-.27"/><path fill="#1A1A1A" d="M81.35 62.45v.2q.35.01.64-.14l1.03-.57q.25-.16.25-.33v-.22q0 .19-.25.35l-1.03.56q-.29.16-.64.15"/><path fill="#4D4D4D" d="M79.01 61.08q0 .15.18.26l1.75 1q.17.1.4.1.36.03.65-.14l1.03-.56q.26-.16.26-.35v-.01q-.01-.16-.19-.25l-1.75-1a1.1 1.1 0 0 0-1.05.04l-1.02.56q-.24.14-.26.32z"/><path fill="#A6A6A6" d="M79.02 61.03q0 .13.17.24l1.75 1q.17.1.4.1.36.03.65-.14l1.03-.57q.22-.13.25-.3v.03q0 .19-.25.35l-1.03.56q-.29.16-.64.15a1 1 0 0 1-.4-.1l-1.76-1.01q-.18-.12-.18-.26v-.05"/><path fill="#fff" d="M82.24 63.19q0 .16.2.28l1.85 1.07q.17.1.43.1c.23.02.49-.04.68-.15l1.05-.58q.26-.16.27-.36v-.02q-.01-.15-.2-.26l-1.86-1.07c-.28-.16-.78-.14-1.1.05l-1.05.57q-.26.16-.27.34z"/><path fill="#303030" d="M82.34 62.96v.2q.01.16.19.26l1.75 1.01q.16.1.4.1.35.01.65-.14l1.02-.57q.24-.15.26-.33v-.21q0 .18-.26.34l-1.02.56q-.3.16-.65.15a1 1 0 0 1-.4-.1l-1.75-1q-.18-.12-.19-.27"/><path fill="#1A1A1A" d="M84.68 64.33v.2q.35.01.65-.14l1.02-.57q.25-.15.26-.33v-.21q0 .18-.26.34l-1.02.56q-.3.16-.65.15"/><path fill="#4D4D4D" d="M82.34 62.96q0 .16.19.26l1.75 1q.15.1.4.11.35.01.65-.15l1.02-.56q.26-.16.26-.34v-.02q0-.15-.18-.25l-1.75-1c-.27-.16-.74-.14-1.06.04l-1.02.56q-.25.15-.25.32z"/><path fill="#A6A6A6" d="M82.35 62.91q.01.15.18.24l1.75 1q.16.1.4.11.35.02.65-.15l1.02-.56q.22-.14.25-.3v.03q0 .18-.25.34l-1.02.56q-.3.16-.65.15a1 1 0 0 1-.4-.1l-1.75-1q-.18-.12-.19-.27v-.02z"/><path fill="#4D4D4D" d="m103.47 59.76-1.62-1.03-1.25 1.54 1.07.61z"/><path fill="#A6A6A6" d="m101.67 60.8 1.73-1.09.07.05-1.8 1.12-1.07-.61.05-.07z"/><path fill="#1A1A1A" d="M103.47 59.76v.35l-1.8.87v-.1z"/><path fill="#303030" d="M100.6 60.27v.1l1.07.61v-.1z"/><path fill="#4D4D4D" d="m67.21 38.86-1.62-1.03-1.24 1.54 1.06.62z"/><path fill="#A6A6A6" d="m65.41 39.9 1.73-1.08.07.04-1.8 1.12-1.06-.61.05-.06z"/><path fill="#1A1A1A" d="M67.21 38.86v.36l-1.8.87v-.1z"/><path fill="#303030" d="M64.35 39.37v.1l1.06.62v-.1z"/><path fill="#fff" d="m96.85 42.75-1.1-1.68.33-.2-.5-.44-.08-.59-.04-.36-.2.58-.83-1.12.78 1.74.26 1.67.05-.31.06-.67 1.74 2.12zm-1.33-1.54-.06.74-.2-1.24-.62-1.4.66.9.14-.44.08.7.4.34-.28.19 1.2 1.82z"/><path fill="#fff" d="m95.62 40.5-.1-.13 1.14-10.92.1.14-1.03 9.88 2.33-10.4.1.14zm3.6 11.43-1.49-1.95v-.05l-2.15-8.56L98 47.63h-.07l-2.18-5.71 2.04 8.01 1.43 1.88z"/><path fill="#fff" d="m95.61 40.52-.08-.17L99.56 36l-.12-6.73.1.11.12 6.77zm-.19-.9-.13-7.14.1.11.14 7.52zm-7.49-.08-.03-.16 4.84 3.91 2.3-2.51-13.92-10.2-.03-.17L95.26 40.8l-.06.07-2.4 2.6-.01-.01zm7.27.52-4.29-12.58.08.01 4.29 12.59z"/><path fill="#fff" d="m94.5 37.86-.05-.17.96.46.04.17zm1.8 6.4-.04-.22.26-.18.08.17zm-.35-3.36-.07-.17 4.5-.63.06.17zm-.17.26-.07-.17 6.5-.54.06.18-5.8.47 1.36.22.06.17zm.58.88 4.08 2.84.03.16-3.45-2.4 5.71 6.23.01.14zm3.86 6.31-4.39-6.72.3.33 4.11 6.29zM87.19 34.97l-.07-.17 4.18-.11.02.02 3.32 3.55-.64 1.73-.12-.09.63-1.66-3.17-3.38zm5.08 13.07-.1-.15 3.31-5.9-.26 6.86-.1-.13.24-6.2zm3.75-.84-.53-5.53.07-.19.55 5.82z"/><path fill="#fff" d="m89.84 39.09-.06-.18L95 40.5l-7.54-10.74.02-.11 7.77 11.08-.1-.03zm7.4 6.59-.07-.2 2.16 1.33.04.17zm-1.47-4.53-.05-.16 7.73 4.07.04.17zm-.57-1.14L93.64 27.3l.1.09L95.3 40.1zm-.58-.68-2.96-6.3.05-.03 2.96 6.3zM73.83 20.7l-.24.9-.3-.29.07.42-.27.04-.16.03.42.2-.11.66.46-.6.71-.2-.2-.05-.37-.06.1-1.43zm-.04 1.1.42.07-.53.13-.37.5.09-.54-.3-.13.31-.05-.05-.33.25.24.26-.98z"/><path fill="#fff" d="m73.37 21.7-.02.07-6.29-1.25.02-.08 5.7 1.13-6.73-2.26.03-.08zm3.85-2.78-.16 1.21-.02.01-3.2 1.61 1.85-1.91.04.06-1.7 1.71L77 20.08l.16-1.17z"/><path fill="#fff" d="m73.38 21.7-.04.07-4.55-3.56-3.42-.07v-.08l3.44.07zm-.35.14-3.63-.08v-.07l3.82.07zm4.23 6.39-.06.02-.75-4.03-2.61-2.03L76.5 33.8l-.06.02L73.72 22l.07.05 2.71 2.11v.02zm-3.88-6.19-4.06 3.33-.04-.06 4.06-3.34z"/><path fill="#fff" d="m72.64 22.58-.06.04-.3-.8.05-.04zm2.28-1.38-.09.04-.24-.23.05-.06zm-1.54.22-.05.05-2.89-3.84.05-.06zm.24.15-.06.06-3.98-5.56.05-.05 3.57 4.97-.67-1.16.05-.05zm.12-.47-.86-3.4.07-.03.72 2.88-.04-4.71h.07zm1.06-3.13-.97 3.57v-.24l.9-3.35zm.52 10.77-.05.06-2.44-3.57v-.02l-.06-2.74 1.26.6.02.09-1.22-.58.06 2.61zm3.87-3.99-.04.07-4.94-2.97 3.7.4v.08l-3.35-.37zm-2.59-3.22-2.55.3-.14-.06 2.7-.32z"/><path fill="#fff" d="m75.94 26.6-.06.03-2.16-4.4-1.25 6.15-.06-.01 1.29-6.35.04.08zm-.82-6.16-.06.06-.55-1.81.07-.03zm-1.5 1.14-.06.04-2.3-6.5.06-.03zm-.27.45-5.68 1.02v-.08l5.67-1.02zm-.01.49-1.57 2.36-.05-.05 1.57-2.36zm15.92 22-.01-.18 2.87-.27.02.18zm11.7-10.16-.06-.16 2.33-.93.07.16zm.33 15.75-.17.06.87 2.55.16-.06zM73.47 29.04l-.43 2.07.17.03.43-2.06zm7.15-7.34h-1.85v.17h1.85zm-12.9 5.54-.5-2.07.04-.03 1.47-1.2.1.14-1.42 1.16.48 1.96zm-.32-11.42-.13-.12 1.42-1.63-.72-2.56.17-.05.74 2.65z"/><path fill="#F8F8F8" d="m47.35 74.09-.25-1.1-2.58-1.84-22.31-11.4-2.9.12-17.34-9.93 4.62-3.13L50 73.38z"/><path fill="#4B4C4E" d="m42.32 70.79 2.88.82 3.19 1.88-1.04.6-3.57-1.66z"/><path fill="#262626" d="M1.16 49.06v.03q0 .23.04.42.12.67.57.94l14.08 8.02-.1-.48q.22-.05.44-.15l.2-.1a3 3 0 0 0 .69-.53 5 5 0 0 0 .64-.76 5 5 0 0 0 .79-1.82q.06-.34.07-.66v-.04a2 2 0 0 0-.15-.77h.52l-14.03-8-.07-.04h-.02a1.3 1.3 0 0 0-.84-.08 2 2 0 0 0-.65.26 3 3 0 0 0-.67.5 5 5 0 0 0-.98 1.32 4 4 0 0 0-.38.92 4 4 0 0 0-.15 1.02"/><path fill="#1A1A1A" d="M15.17 57.05c0 1.38.98 1.94 2.18 1.24a4.8 4.8 0 0 0 2.19-3.76c0-1.39-.98-1.95-2.19-1.25a4.8 4.8 0 0 0-2.18 3.77"/><path fill="#262626" d="M15.73 57.1c0-1.16.82-2.58 1.84-3.17q.74-.4 1.25-.15h.02l.06.04 1.1.57-.43.01q.12.3.12.68c0 1.17-.82 2.6-1.84 3.18q-.29.16-.54.22l.09.4-1.15-.6q-.5-.3-.52-1.17"/><path fill="#1A1A1A" d="M16.82 57.68c0 1.16.83 1.63 1.84 1.05a4 4 0 0 0 1.84-3.18c0-1.16-.82-1.63-1.84-1.05a4 4 0 0 0-1.84 3.18"/><path fill="#262626" d="M16.72 57.98c0-1.33.94-2.95 2.1-3.62.55-.32 1.06-.36 1.43-.18l.02.01.07.04.82.48h-.5q.15.33.14.79c0 1.33-.94 2.95-2.1 3.62q-.32.18-.61.25l.1.46-.88-.5v-.01c-.36-.22-.6-.68-.6-1.34"/><path fill="#1A1A1A" d="M17.53 58.46c0 1.33.94 1.86 2.1 1.2a4.6 4.6 0 0 0 2.1-3.63c0-1.33-.94-1.87-2.1-1.2a4.6 4.6 0 0 0-2.1 3.63"/><path fill="#B8B8B8" d="M19.15 57.69c0-.4.28-.88.63-1.08q.28-.14.46-.03l23.88 14.17-.47.78-24.3-13.43q-.19-.1-.2-.41"/><path fill="#989898" d="M43.56 71.33c0 .2.15.29.32.18s.33-.35.33-.55-.15-.29-.33-.19a.7.7 0 0 0-.32.56"/><path fill="#B8B8B8" d="m42.32 70.2 2.88.82 3.19 2.2-1.04.61-3.57-2z"/><path fill="#4B4C4E" d="M47.35 74.09v-.26l1.04-.6v.26z"/><path fill="#A6A6A6" d="m47.35 74.09-3.57-1.66v-.6l3.57 2z"/><path fill="#EDEDED" d="M42.94 70.28 21.4 57.5a1 1 0 0 0-.29-.11.38.38 0 0 0-.46.38z"/><path fill="#F8F8F8" d="M33.33 75.94q.16-.23.55-.33l1.64-.37c.36-.08.76-.03 1.03.13l3.78 3.82c.4-.32 1.03-.6 1.27-1.08.27-.55.08-1.43-.15-1.96a4.4 4.4 0 0 0-1.96-1.91 9 9 0 0 0-4.53-1l-3.35-.62-18.18-10.5-.95-1.88c.15-.96-.4-1.94-1.64-2.68-1.7-1.02-4.73-1.08-6.88-.62L8.8 59.2c.27.15.35.38.22.59l-.6.9q-.15.25-.55.33l-1.63.37a1.5 1.5 0 0 1-1.03-.12l-2.8-1.62L.37 59c-.51 1.14.36 2.51 1.9 3.4a9 9 0 0 0 4.53 1l3.33.61 18.18 10.5.96 1.9c-.14.95.4 1.92 1.64 2.67a9 9 0 0 0 4.89 1.03l.24.74.7.4.53-1.33-4.32-2.5c-.26-.15-.35-.37-.22-.58z"/><path fill="#737373" d="M27.79 74.74v1.11l.93 1.86.02-1.07z"/><path fill="#4B4C4E" d="M3.96 56.94v1.11l4.22 2.44.89-.7-.57-.82zM0 61.32c0 .88.58 1.76 1.74 2.42a9 9 0 0 0 4.47 1h.04v-1.12L.28 60.26l-.27-.15v1.21"/><path fill="#969696" d="m32.73 75.6.07.56v1.11q.16-.23.56-.32v-1.12z"/><path fill="#5B5C5E" d="M35 75.47v1.1a1.5 1.5 0 0 1 1.02.13v-1.1l-.4-.63z"/><path fill="#D9D9D9" d="m31.08 72.84 3.36.62-5.7 3.18-.95-1.9L9.6 64.24l-3.35-.62 5.7-3.18.95 1.9z"/><path fill="#A6A6A6" d="M19.5 69.01c4.97 2.86 9.37 4.96 9.84 4.7.47-.28-3.16-2.82-8.12-5.68-4.96-2.87-9.37-4.97-9.84-4.7-.47.28 3.17 2.82 8.13 5.68"/><path fill="#4B4C4E" d="M29.34 73.7c-.42-.69-3.76-2.96-8.12-5.48-4.95-2.86-9.34-4.95-9.83-4.7q-.09-.13 0-.19c.46-.27 4.87 1.83 9.83 4.7 4.96 2.86 8.6 5.4 8.12 5.67"/><path fill="#D9D9D9" d="M1.74 62.63a9.4 9.4 0 0 0 8.46-.01c2.33-1.35 2.38-3.48.11-4.84-1.7-1.02-4.2-1.3-6.35-.84l4.31 2.5q.41.24.22.58l-.6.91q-.15.23-.55.33l-1.63.37c-.36.08-.76.03-1.03-.13L.37 59.01c-.78 1.23-.32 2.65 1.37 3.62m37.22 11.83a9.4 9.4 0 0 0-8.46.01c-2.33 1.35-2.38 3.48-.12 4.84 1.7 1.02 4.2 1.3 6.36.84l-4.32-2.49c-.26-.15-.35-.38-.22-.59l.6-.9q.16-.25.55-.33l1.64-.37c.36-.08.76-.03 1.03.12l4.31 2.49c.78-1.22.32-2.64-1.37-3.62"/><path fill="#4B4C4E" d="M40.33 79.2v-1.12l-4.31-2.49v1.11z"/><path fill="#737373" d="m35 76.58-.01-1.11-1.64.36v1.12z"/><path fill="#4B4C4E" d="M9.6 65.36v-1.12l18.19 10.5v1.11z"/><path fill="#737373" d="M6.25 63.62v1.11l3.35.63v-1.12z"/></g><defs><clipPath id="a"><path fill="#fff" d="M0 0h114v76H0z"/></clipPath></defs></svg>