<svg xmlns="http://www.w3.org/2000/svg" width="114" height="76" fill="none"><path fill="#BCB5B3" d="m92.6 8.76-2.02-.14-.94 13.5 2.02.14z"/><path fill="#D5AE9E" d="m84.33 54.49 30.5 2.13 1.84-26.19-14.63-26.66L86.16 28.3z"/><path fill="#212834" d="m116.29 35.85.38-5.42-14.63-26.66L86.16 28.3l-.38 5.41z"/><path fill="#1B2230" d="m102.38 3.8 16.9 26.82-2.61-.19L102.22 6 86.16 28.3l-1.94-.14z"/><path fill="#242E36" d="m107.92 46.46-1.53-.11-.1 1.46 1.52.1zm.11-1.69-1.52-.1-.1 1.34 1.53.1zm1.89.13-1.54-.1-.1 1.34 1.55.1zm-2.12 3.36-1.53-.11-.1 1.37 1.52.1zm1.88.13-1.55-.1-.1 1.36 1.55.1zm.12-1.8-1.54-.11-.1 1.46 1.54.1zm-17.02-1.64-1.53-.1-.1 1.45 1.53.1zm.12-1.68-1.53-.1-.1 1.33 1.53.1zm1.88.13-1.54-.1-.1 1.33 1.55.1zm-2.13 3.35-1.52-.1-.1 1.36 1.53.1zm1.89.13-1.55-.1-.1 1.36 1.55.11zm.13-1.8-1.55-.1-.1 1.45 1.54.11z"/><path fill="#212834" d="m97.2 55.37 4.93.34.68-9.77-4.93-.35z"/><path fill="#D4D0CC" d="m96.95 30.16 7.4.52.74-10.52-7.4-.52z"/><path fill="#fff" d="m101.96 26.83-1.88-.13-.2 2.9 1.88.13zm.44-6.19-1.9-.13-.2 2.9 1.89.13zm-.25 3.43-1.88-.13-.16 2.24 1.89.13zm2.22.15-1.77-.12-.16 2.24 1.77.12zm-4.3-3.75-1.94-.13-.2 2.9 1.93.14zm-.44 6.2-1.94-.14-.2 2.9 1.94.14zm.2-2.77-1.94-.13-.16 2.24 1.94.13zm4.35 3.09-1.78-.12-.2 2.9 1.77.12zm.42-6.19-1.76-.13-.2 2.9 1.77.12z"/><path fill="#FDEACF" d="M173.26 64.12a52 52 0 0 1-2.54 12.67c0 .03.73.02-15.5-.02-6.4-.13 3.5-.08-75.31-.14l1.96-.02-1.62-10.07 3.66.47.81-6.3c.07.02 4.44.45 4.51.45l-.5 3.94c6.18.8 4.67.6 7.06.9l.1 1.06 4.5-.46 3.48.44.1-.8c.08-.02 8.66-.9 8.75-.9v.85h21.35V36.56l-5.02-5.63h-3.82v-4.28h1.41v-2.13h1.17v-3h5.08v3h1.17v2.13h1.41v2.14h2.03V24.1h5.9v-2.38h8.7v5.55l.91-1.34 1.95 2.87h.22v-1.95h1.27v-2.28a46.9 46.9 0 0 1 16.81 39.55" opacity=".5"/><path fill="#A06663" d="m170.72 76.79-15.45-.05c-5.73-.1-.28-.08-34.92-.1 0 0-45.97-.03-45.95-.05l2.2-2.54 5.73.78 3.58-2.14-4.5.98-6.06-1.17-3-3.83 7.48-5.07.1-.06 12.38 1.61-13.22-3.37-1.91-2.98 2.74-1.69 5.24-.46-5.24-1.36v-1.82c60.45 3.93 93.45 6.05 93.45 6.1a51 51 0 0 1-2.65 17.22"/><path fill="#7A3939" d="m79.1 61.79.13 2.22.7-.47 12.23 1.6zM75.35 72.5l-.32 3.36 1.57-1.8 4.87.66-.05-1.05z"/><path fill="#89413F" d="m79.92 55.3.71 1.75-3.45 1.75 1.2 5.78-6.02 4.09 1.45 7.93h12.58l3.6-5.49s4.41-5.15 4.27-5.98-6.07-7.74-6.07-7.74l-7.15-2.46z"/><path fill="#A56867" d="m121.27 74.18 3.29 2.46-50.17-.04 2.2-2.55 5.74.78 3.58-2.14-4.5.98-6.06-1.17-3-3.83 7.57-5.13 12.4 1.61-13.23-3.37-1.91-2.98 2.74-1.69 5.24-.45-5.24-1.37v-1.82l52.53 3.41-24.9 2.48 18.09 2.42-10.23 5.92 38.28 3.82z"/><path fill="#89413F" d="m64.8 62.82 1.66 6.3 3.59 3.57-11.51 1.92-3.87-6.9z"/><path fill="#fff" d="M31.84 29.02c-.65.04-2.15.16-3.44.43a.92.92 0 0 1-1.1-.8 1.4 1.4 0 0 1 .19-.8c.65-1.21 2.15-.31 2.21.25 0 0 .17-.88 1.04-.84.86.05.71 1.32.71 1.32s.27-.09.47.02.14.4-.08.42"/><path fill="#2F856F" d="M50.22 27.09c.64-.58-5.19-1.2-5.3-2.12-.16-1.24 5.07-2.43 3.9-2.63.21-.62-1.65-.82-1.74-1.52-.3-2.41-.56-4.6-2.98-4.3q-.61.08-1.15.31a2.8 2.8 0 0 0-2.82-.92 4.42 4.42 0 0 0-7.98.67 4.42 4.42 0 0 0-6 5.55 5 5 0 0 0-.95.01c-2.42.3-1.22 1.91-.92 4.32.1.8-2.5 2.1-2.05 2.7-.31.5 4.23-.4 4.31.24.12.93-4 3.22-3.22 3.63a4.41 4.41 0 0 0 6.3 5.66c.4.92 1.16 1.59 2.22 1.62 1.19.03 2.09-.48 2.4-1.73a2.3 2.3 0 0 0 2.92-.55c.74.37-.45.18.44.07.05 0 .49.47.54.47.74 1.77 4.5 2.2 6.63 1.49 2.31-.77 3.46-2.08 3.68-4.54v-.03q.24 0 .5-.03c2.43-.3 3.8-2.67 3.5-5.08a4.4 4.4 0 0 0-2.23-3.29"/><path fill="#33192C" d="m42.23 37.17-.53.2h-.01l-.05.02q-.27.12-.52.28a6 6 0 0 0-1.72 1.6l-.35.48-.04.08 2.8 21.5q-1.06.9-2.24 1.75L36.7 38.46l-.01-.1q-.46-.4-.98-.75a18 18 0 0 0-2.16-1.25h-.02a34 34 0 0 0-2.07-.95q.78.2 1.55.44l.1.03.58.2h.02l1.21.46a3 3 0 0 1-.09-.85v-.24l.02-.15.05-.37.08-.38.1-.36-.02.38v.37l.04.5.04.22a4 4 0 0 0 .47 1.12l.05.07a14 14 0 0 1 .95.48l-.2-2.46v-.22l.21-.08.05-.01.44-.15v-.05l.1.01.11-.03.01.04.75.06.1.6.01.04.38 2.18a19 19 0 0 1 .48-2.18l.01-.04a11 11 0 0 1 .68-1.66q.18-.3.4-.6a5 5 0 0 0-.44.85 8 8 0 0 0-.42 1.38l-.01.04q-.15.67-.23 1.34a20 20 0 0 0-.14 2.45l.02-.02q.41-.37.87-.68a5 5 0 0 0 .51-1.66l.01-.03v-.02a8 8 0 0 0 .09-1.03l-.01-.2.03.2a6 6 0 0 1 .06 1.21v.18q-.03.5-.14 1a7 7 0 0 1 1.21-.5q.34-.08.69-.12"/><path fill="#54B78A" d="M49.9 24.53a2.74 2.74 0 0 0-1.41-4.75q.33-.94.22-2a4.4 4.4 0 0 0-6.09-3.51 2.8 2.8 0 0 0-2.81-.92 4.42 4.42 0 0 0-7.98.66 4.42 4.42 0 0 0-6 5.56 4.4 4.4 0 0 0-3.92 7.03A2.73 2.73 0 0 0 23 30.46a4.41 4.41 0 0 0 6.3 5.66c.4.92 1.37 1.51 2.42 1.38 1.2-.14 2.15-1.1 2.1-2.28.42.23.84.26 1.34.2a2.4 2.4 0 0 0 1.5-.82q1.14.57 2.5.42l.16-.02a4.4 4.4 0 0 0 4.62 2.67c2.42-.3 3.56-2.55 3.84-4.9v-.03l.51-.03a4.4 4.4 0 0 0 1.61-8.2"/><path fill="#000" d="M22.6 28.53a2.37 2.37 0 0 1 2.31-2.74 1.4 1.4 0 0 1 1.14-1.72v.04a1.36 1.36 0 0 0-1.09 1.7v.02h-.02q-.2 0-.37.03a2.3 2.3 0 0 0-1.93 2.66zm6.16-1.86a2.37 2.37 0 0 1 2.3-2.74l-.01-.11q-.09-.57.24-1.05.35-.46.92-.56v.04a1.36 1.36 0 0 0-1.1 1.7l.02.02h-.03q-.2 0-.37.03a2.3 2.3 0 0 0-1.93 2.66zm10.85-5.36a1.36 1.36 0 0 0-1.94-.59l-.02.02v-.03a2.33 2.33 0 0 0-3.24-1.45l-.02-.04a2.4 2.4 0 0 1 3.29 1.45 1.4 1.4 0 0 1 1.17-.1q.55.2.8.72zm7.21 1.88a2.33 2.33 0 0 0-3.52-.46l-.02.02-.02-.03-.06-.12a1.37 1.37 0 0 0-1.9-.4l-.02-.04a1.4 1.4 0 0 1 2 .52 2.4 2.4 0 0 1 2.08-.54c.62.13 1.15.5 1.5 1.03zM34.1 33.14a2.34 2.34 0 0 0-3.3-1.31l-.03.01v-.03l-.04-.12a1.36 1.36 0 0 0-1.73-.85l-.01-.05a1.4 1.4 0 0 1 1.81.99q.16-.09.33-.14c1.24-.41 2.6.25 3.01 1.49zm-6.8 3.31a2 2 0 0 1-1.52-.36c-.44-.33-.7-.86-.73-1.47q0-.15.03-.28v-.09l-.1.01a1.4 1.4 0 0 1-1.48-1.33h.05a1.36 1.36 0 0 0 1.56 1.28h.03v.02l-.02.12q-.03.14-.02.26c.03.6.28 1.12.7 1.44a2.1 2.1 0 0 0 1.76.31v.05zm14.9-4.27-.03-.01a2.32 2.32 0 0 0-2.06-2.88h-.03v-.03a1.36 1.36 0 0 0-.94-1.78v-.04a1.4 1.4 0 0 1 1 1.8l.34.07a2.36 2.36 0 0 1 1.73 2.87m8.54-10.1a2.7 2.7 0 0 0-2.26-2.28v-.04s.49.06 1.01.38c.48.29 1.1.86 1.3 1.93zm1.18 4.95a4.2 4.2 0 0 0-1.62-2.23c-.55-.36-1-.42-1-.42v-.04s.46.06 1.02.42c.5.33 1.2 1 1.65 2.26z"/><path fill="#000" d="m49.91 24.55-.02-.04c.1-.06.35-.38.35-.39l.03.03c0 .01-.25.34-.36.4M39.07 35.08q-.52.07-1.21-.05c-1.36-.25-1.43-.69-1.43-.7h.05-.03l.03-.01s.07.42 1.39.67c1.54.29 2.45-.4 2.46-.4l.03.03s-.47.36-1.3.46"/><path fill="#000" d="M42.08 37.54s-.47-.1-1.04-.46A4.6 4.6 0 0 1 39.3 35l.04-.01a4.5 4.5 0 0 0 1.72 2.04c.57.35 1.02.45 1.03.45zm-8.64-.98-.04-.03c.57-.76.36-1.65.36-1.66l.04-.01s.21.92-.36 1.7m-3.1.72c-.63-.32-.9-.76-1.02-1.07-.14-.34-.12-.6-.12-.6h.04s-.01.26.12.59a2 2 0 0 0 1 1.04z"/><path fill="#000" d="m28.47 36.55-.01-.04s.54-.2.83-.4l.02.03c-.3.21-.83.4-.84.4m-5.2-5.94a3.3 3.3 0 0 1-1.34-1.1 2.5 2.5 0 0 1-.42-1.19c-.07-.75.19-1.35.19-1.35l.04.01s-.25.6-.18 1.34c.06.68.4 1.62 1.73 2.25z"/><path fill="#000" d="M22.55 32.52h-.04c.07-1.18.47-2.06.47-2.06l.04.01c0 .01-.4.88-.47 2.05m.39-12.19-.02-.03a4.5 4.5 0 0 1 3.85-.57l-.01.04s-.5-.18-1.2-.2a4.5 4.5 0 0 0-2.62.76"/><path fill="#000" d="M25.8 19.57q-.36-1.06-.26-2.06.09-.81.48-1.55a5 5 0 0 1 1.03-1.31l.02.03a4.45 4.45 0 0 0-1.22 4.88zm14.28-5.73a6 6 0 0 0-1.71-2 2 2 0 0 0-.76-.37v-.05c.02 0 .32.06.78.38.42.3 1.06.9 1.73 2.02z"/><path fill="#000" d="M42 13.74a3 3 0 0 0-2.18-.37l-.01-.04s1.12-.28 2.22.38zm-6.7-.11-.02-.03s-.33-.7-1.13-.66c-.93.04-1.1.89-1.11.9l-.04-.01s.18-.9 1.14-.93c.74-.04 1.09.51 1.17.65.07-.09.32-.36.7-.54.42-.2 1.09-.32 1.9.24l-.02.04c-.8-.55-1.45-.43-1.86-.24-.45.2-.7.55-.7.55z"/><path fill="#A06663" d="m72.36 73.54-.58 3.05c0 .03-40.43-.05-52.98-.05a10 10 0 0 1-.87-1.36c-1.83-3.25-2.27-8.58.27-14.24 27.9-.68 31.82-1.92 40.74-2.14l5.83 4.02v7.54l-4 .71-2.17 1.62c1.54-.57 2.9-1.1 2.94-1.1l7.07.58z"/><path fill="#89413F" d="m72.36 73.54.92 3.06h-1.5z"/><path fill="#7A3939" d="m58.64 72.7 2.16-1.63 4-.72 3.82 1.82-7.07-.58z"/><path fill="#A56867" d="m72.36 73.54-.47 2.5-.1.56-37.2-.02 16.22-3.89-24.7-4.99 8.24-3.38-17.72-4.48 42.34-1.04 5.82 4.02v7.54l-3.99.71-2.16 1.62 2.9-1.1 7.08.58z"/><path fill="#54B78A" d="m50.69 76.58-25-.01q.2-.87.77-1.93c1.06-1.9 2.36.44 2.36.44.89-1.24 2.3-.02 2.3-.02s-.2-1.87.98-2.44c1.13-.55 1.74.69 1.8.78-.06-.12-.83-2.18 0-3.4.86-1.24 1.89.59 1.94.67-.04-.1-.87-2.33.1-3.02 1-.7 1.74 1.45 1.74 1.45s.19-2.98 2.1-2.77c1.6.18 1.8 3.3 1.82 4.28.03-.35.2-.84.95-.52 1.1.47.9 2.84.9 2.84 1.34-1.71 2.12.04 2.12.04 1.02-2.17 2.7-1.89 2.7-1.89 2.93-.03 2.61 4.09 2.42 5.5"/></svg>