<svg xmlns="http://www.w3.org/2000/svg" width="114" height="76" fill="none"><path fill="#5C6671" d="M55.132 66.45H45.58v2.726h9.552z"/><path fill="#5C6671" d="M46.85 80.945h-1.035a.78.78 0 0 1-.781-.773V69.765c0-.427.35-.773.782-.773h1.033c.432 0 .782.347.782.773v10.407c0 .427-.35.773-.782.773"/><path fill="#758392" d="M56.866 70.939h-4.34a1.716 1.716 0 0 1-1.725-1.707v-2.765c0-.943.773-1.707 1.725-1.707h4.34c.953 0 1.726.764 1.726 1.707v2.765c0 .943-.773 1.707-1.726 1.707"/><path fill="#000" d="M46.85 68.992h-1.035a.78.78 0 0 0-.781.773v1.825c.069.012.112.076.184.076h2.227c.073 0 .117-.064.186-.076v-1.825a.78.78 0 0 0-.782-.773" opacity=".3"/><path fill="#758392" d="M47.445 70.776H45.22c-.674 0-1.219-.54-1.219-1.206v-3.513c0-.665.545-1.205 1.22-1.205h2.225c.673 0 1.22.54 1.22 1.205v3.513c0 .665-.546 1.206-1.22 1.206"/><path fill="#000" d="M49.353 66.45h-.689v2.726h.69zm1.447 0h-.688v2.726h.689z" opacity=".2"/><path fill="#CDE6FF" d="M46.36 70.776h1.086c.279 0 .51-.138.715-.293v-5.339c-.205-.156-.436-.292-.715-.292h-1.087z" opacity=".2"/><path fill="#000" d="M52.234 70.88c.098.018.188.059.292.059h1.257v-6.18h-1.256c-.104 0-.194.042-.293.06z" opacity=".3"/><path fill="#758392" d="M57.035 19.84h-6.21a.71.71 0 0 1-.713-.704v-5.553c0-.39.318-.705.712-.705h6.21a.71.71 0 0 1 .713.705v5.553a.71.71 0 0 1-.712.705"/><path fill="#fff" d="M57.034 19.404h-6.21a.71.71 0 0 1-.712-.704v.437c0 .389.319.705.712.705h6.21a.71.71 0 0 0 .713-.705V18.7c0 .389-.32.704-.713.704" opacity=".3"/><path fill="#3F454C" d="M57.034 18.076h-6.21a.71.71 0 0 1-.712-.705v1.765c0 .39.319.704.712.704h6.21a.71.71 0 0 0 .713-.704V17.37a.71.71 0 0 1-.713.705" opacity=".2"/><path fill="#CDE6FF" d="M57.747 13.762h-7.635v1.887h7.635z" opacity=".3"/><path fill="#3F454C" d="M53.71 12.878h-.717v6.963h.717z" opacity=".2"/><path fill="#758392" d="M142.556 9.64H55.502v65.88h87.054z"/><path fill="#E5F2FF" d="M63.816 76.286h-9.3a.8.8 0 0 1-.806-.798V9.544c0-.44.36-.797.806-.797h9.3c.445 0 .806.357.806.797v65.944c0 .441-.36.798-.806.798"/><path fill="#fff" d="M63.816 8.747h-9.3c-.376 0-.644.278-.733.622.01 0 .016-.01.027-.01h9.3c.445 0 .806.357.806.797V76.1c0 .068-.057.112-.073.175a.796.796 0 0 0 .78-.787V9.544a.8.8 0 0 0-.807-.797" opacity=".4"/><path fill="#9CCBFF" d="M64.558 75.027h-9.3a.8.8 0 0 1-.805-.797V8.773c-.41.037-.743.355-.743.771V75.49c0 .44.36.797.806.797h9.3a.8.8 0 0 0 .807-.797v-.487c-.026 0-.04.025-.065.025" opacity=".2"/><path fill="#fff" d="M63.922 76.193h-9.3a.8.8 0 0 1-.806-.797V9.452a.78.78 0 0 1 .211-.505c-.184.146-.317.345-.317.597V75.49c0 .44.36.797.806.797h9.3a.78.78 0 0 0 .594-.292c-.137.11-.297.2-.488.2" opacity=".4"/><path fill="#E5F2FF" d="M75.107 76.286h-9.3a.8.8 0 0 1-.806-.798V9.544c0-.44.36-.797.806-.797h9.3c.445 0 .806.357.806.797v65.944a.8.8 0 0 1-.806.798"/><path fill="#fff" d="M75.107 8.747h-9.3c-.376 0-.644.278-.733.622.01 0 .017-.01.027-.01h9.3c.445 0 .806.357.806.797V76.1c0 .068-.057.112-.073.175a.796.796 0 0 0 .78-.787V9.544a.8.8 0 0 0-.807-.797" opacity=".4"/><path fill="#9CCBFF" d="M75.849 75.027h-9.3a.8.8 0 0 1-.806-.797V8.773c-.41.037-.742.355-.742.771V75.49c0 .44.36.797.806.797h9.3a.8.8 0 0 0 .806-.797v-.487c-.025 0-.04.025-.064.025" opacity=".2"/><path fill="#fff" d="M75.212 76.193h-9.3a.8.8 0 0 1-.805-.797V9.452c0-.197.091-.366.211-.505-.184.146-.317.345-.317.597V75.49c0 .44.36.797.806.797h9.3c.245 0 .447-.12.594-.292-.138.11-.297.2-.489.2" opacity=".4"/><path fill="#E5F2FF" d="M86.397 76.286h-9.3a.8.8 0 0 1-.806-.798V9.544c0-.44.36-.797.806-.797h9.3c.445 0 .806.357.806.797v65.944c0 .441-.36.798-.806.798"/><path fill="#fff" d="M86.397 8.747h-9.3c-.376 0-.643.278-.732.622.01 0 .016-.01.026-.01h9.3c.445 0 .806.357.806.797V76.1c0 .068-.057.112-.073.175a.797.797 0 0 0 .78-.787V9.544a.8.8 0 0 0-.807-.797" opacity=".4"/><path fill="#9CCBFF" d="M87.14 75.027h-9.3a.8.8 0 0 1-.806-.797V8.773c-.41.037-.743.355-.743.771V75.49c0 .44.36.797.806.797h9.3a.8.8 0 0 0 .806-.797v-.487c-.024 0-.039.025-.063.025" opacity=".2"/><path fill="#fff" d="M86.503 76.193h-9.3a.8.8 0 0 1-.806-.797V9.452c0-.197.092-.366.212-.505-.185.146-.318.345-.318.597V75.49c0 .44.36.797.806.797h9.3a.78.78 0 0 0 .594-.292c-.137.11-.297.2-.488.2" opacity=".4"/><path fill="#E5F2FF" d="M97.688 76.286h-9.3a.8.8 0 0 1-.806-.798V9.544c0-.44.36-.797.806-.797h9.3c.445 0 .807.357.807.797v65.944a.803.803 0 0 1-.807.798"/><path fill="#fff" d="M97.689 8.747h-9.3c-.376 0-.644.278-.733.622.01 0 .016-.01.026-.01h9.3c.445 0 .806.357.806.797V76.1c0 .068-.056.112-.073.175a.796.796 0 0 0 .78-.787V9.544a.8.8 0 0 0-.806-.797" opacity=".4"/><path fill="#9CCBFF" d="M98.43 75.027h-9.3a.8.8 0 0 1-.806-.797V8.773c-.41.037-.743.355-.743.771V75.49c0 .44.36.797.807.797h9.3a.8.8 0 0 0 .806-.797v-.487c-.025 0-.039.025-.064.025" opacity=".2"/><path fill="#fff" d="M97.794 76.193h-9.3a.8.8 0 0 1-.806-.797V9.452c0-.197.092-.366.212-.505-.185.146-.318.345-.318.597V75.49c0 .44.36.797.806.797h9.3c.245 0 .447-.12.594-.292-.137.11-.298.2-.488.2" opacity=".4"/><path fill="#E5F2FF" d="M108.979 76.286h-9.3a.8.8 0 0 1-.806-.798V9.544c0-.44.36-.797.806-.797h9.3a.8.8 0 0 1 .805.797v65.944a.8.8 0 0 1-.805.798"/><path fill="#fff" d="M108.979 8.747h-9.3c-.376 0-.644.278-.733.622.01 0 .016-.01.026-.01h9.3c.445 0 .807.357.807.797V76.1c0 .068-.058.112-.074.175a.796.796 0 0 0 .78-.787V9.544a.8.8 0 0 0-.806-.797" opacity=".4"/><path fill="#9CCBFF" d="M109.722 75.027h-9.3a.8.8 0 0 1-.806-.797V8.773c-.41.037-.742.355-.742.771V75.49a.8.8 0 0 0 .805.797h9.301a.8.8 0 0 0 .805-.797v-.487c-.024 0-.039.025-.063.025" opacity=".2"/><path fill="#fff" d="M109.085 76.193h-9.3a.8.8 0 0 1-.805-.797V9.452a.77.77 0 0 1 .211-.505c-.184.146-.317.345-.317.597V75.49a.8.8 0 0 0 .805.797h9.301c.245 0 .447-.12.594-.292-.138.11-.298.2-.489.2" opacity=".4"/><path fill="#E5F2FF" d="M120.27 76.286h-9.3a.8.8 0 0 1-.806-.798V9.544c0-.44.36-.797.806-.797h9.3c.445 0 .806.357.806.797v65.944a.8.8 0 0 1-.806.798"/><path fill="#fff" d="M120.27 8.747h-9.3c-.376 0-.644.278-.733.622.01 0 .016-.01.026-.01h9.3c.445 0 .806.357.806.797V76.1c0 .068-.057.112-.073.175a.796.796 0 0 0 .78-.787V9.544a.8.8 0 0 0-.806-.797" opacity=".4"/><path fill="#9CCBFF" d="M121.012 75.027h-9.3a.8.8 0 0 1-.806-.797V8.773c-.411.037-.742.355-.742.771V75.49a.8.8 0 0 0 .806.797h9.3a.8.8 0 0 0 .806-.797v-.487c-.025 0-.039.025-.064.025" opacity=".2"/><path fill="#fff" d="M120.376 76.193h-9.3a.8.8 0 0 1-.806-.797V9.452a.78.78 0 0 1 .211-.505c-.184.146-.317.345-.317.597V75.49a.8.8 0 0 0 .806.797h9.3c.245 0 .447-.12.594-.292-.137.11-.298.2-.488.2" opacity=".4"/></svg>