<svg xmlns="http://www.w3.org/2000/svg" width="114" height="76" fill="none"><path fill="#87522D" d="M137.28 87.387c18.53-18.627 18.53-48.828 0-67.456s-48.575-18.628-67.105 0-18.53 48.829 0 67.456 48.574 18.628 67.105 0" opacity=".35"/><path fill="#4C6FBB" d="M131.959 85.509c19.322-19.424 19.322-50.915 0-70.34-19.322-19.423-50.65-19.423-69.973 0-19.322 19.425-19.322 50.916 0 70.34 19.323 19.423 50.651 19.423 69.973 0"/><path fill="#F2E7CE" d="M129.853 83.392c18.159-18.255 18.159-47.85 0-66.105-18.16-18.254-47.602-18.254-65.76 0-18.16 18.254-18.16 47.85 0 66.105 18.158 18.254 47.6 18.254 65.76 0"/><path fill="#fff" d="M121.544 74.856c13.569-13.64 13.569-35.756 0-49.396s-35.57-13.64-49.14 0-13.57 35.756 0 49.396 35.57 13.64 49.14 0"/><path fill="#4C6FBB" d="M91.032 6.124c.658-.286 1.631.083 2.594.88.388-1.071 1.025-1.775 1.76-1.789.768-.014 1.458.725 1.881 1.861.98-.929 2.011-1.394 2.717-1.118 1.111.435.993 2.543-.264 4.71-1.156 1.991-2.872 3.333-4.005 3.199q-.084.017-.17.02l-.062-.005c-1.13.085-2.824-1.174-4.015-3.062-1.336-2.118-1.532-4.22-.436-4.696M56.58 69.483c.138.707.992 1.306 2.19 1.652-.659.928-.876 1.855-.471 2.472.422.644 1.419.798 2.59.506-.207 1.338-.006 2.456.62 2.885.986.675 2.649-.616 3.714-2.883.98-2.086 1.11-4.267.359-5.13a1 1 0 0 0-.08-.152c-.011-.018-.027-.032-.04-.05-.57-.984-2.56-1.675-4.782-1.594-2.494.09-4.329 1.118-4.1 2.294m2.685-42.723c-.536.479-.615 1.522-.303 2.736-1.13-.1-2.034.183-2.357.847-.337.694.037 1.635.882 2.5-1.251.501-2.107 1.243-2.156 2.002-.078 1.197 1.873 1.981 4.357 1.751 2.285-.211 4.22-1.207 4.578-2.296a1 1 0 0 0 .09-.146c.009-.019.013-.04.021-.06.554-.993.136-3.068-1.063-4.95-1.344-2.113-3.157-3.18-4.05-2.383m-.486 25.148c0 1.23-.992 2.227-2.216 2.227a2.22 2.22 0 0 1-2.215-2.227c0-1.23.992-2.227 2.215-2.227 1.224 0 2.216.997 2.216 2.227M75.62 17.042c0 1.23-.992 2.228-2.216 2.228a2.22 2.22 0 0 1-2.216-2.228c0-1.23.992-2.227 2.216-2.227s2.216.997 2.216 2.227"/><path fill="#87522D" d="M96.234 61.24s1.364 10.084.39 11.553c-.974 1.468-10.351 2.285-10.807 1.29-.456-.994-1.465-10.787-.49-11.766.973-.98 9.446-2.546 10.907-1.077m8.57-11.498s6.089 6.011 6.72 7.427c.631 1.417-6.72 7.216-8.181 7.161s-8.264-9.384-7.89-10.629c.376-1.245 7.501-4.883 9.351-3.959M93.215 39.119s3.019 5.77 3.019 7.043-11.395 8.127-12.466 7.882c-1.072-.245-3.584-11.126-3.155-11.756.427-.63 9.972-3.555 12.602-3.17"/><path fill="#2B2B2B" d="M97.665 96.017a45.286 45.286 0 0 1 .127-90.575 45.285 45.285 0 0 0-45.35 45.224 45.29 45.29 0 0 0 45.223 45.351"/><path fill="#2B2B2B" d="M97.79 5.442a45.28 45.28 0 0 1 41.8 28.016 45.3 45.3 0 0 1-.049 34.661 45.3 45.3 0 0 1 3.472-17.326A45.29 45.29 0 0 0 97.79 5.443"/><path fill="#EAC428" d="M132.843 53.269a3.22 3.22 0 0 0 2.058-3.004 3.22 3.22 0 0 0-2.058-3.003v-.272a3.1 3.1 0 0 0-.265-.986 3.22 3.22 0 0 0 1.556-3.366 3.215 3.215 0 0 0-2.644-2.599 3.22 3.22 0 0 0 .805-3.547 3.22 3.22 0 0 0-3.018-2.03 3.22 3.22 0 0 0 .188-3.63 3.215 3.215 0 0 0-3.313-1.493 3.217 3.217 0 0 0-2.05-4.606 3.2 3.2 0 0 0-1.899.09 3.22 3.22 0 0 0-1.032-3.486 3.21 3.21 0 0 0-3.622-.299 3.225 3.225 0 0 0-1.61-3.26 3.22 3.22 0 0 0-3.622.319 3.224 3.224 0 0 0-4.026-3.003 3.2 3.2 0 0 0-1.611.99 3.218 3.218 0 0 0-4.493-2.29 3.2 3.2 0 0 0-1.419 1.269 3.216 3.216 0 0 0-5.99 0h-.274c-.34.034-.672.123-.983.264a3.22 3.22 0 0 0-5.965 1.089 3.217 3.217 0 0 0-5.577 2.212 3.217 3.217 0 0 0-5.122 3.126 3.22 3.22 0 0 0-4.566 3.977 3.22 3.22 0 0 0-3.773 4.644 3.216 3.216 0 0 0-2.953 5.221 3.22 3.22 0 0 0-2.011 5.637 3.22 3.22 0 0 0-1.026 5.937 3.216 3.216 0 0 0 0 5.99v.274c.033.34.122.673.264.983a3.22 3.22 0 0 0 1.09 5.965 3.217 3.217 0 0 0 2.212 5.577 3.217 3.217 0 0 0 3.128 5.137 3.217 3.217 0 0 0 3.95 4.517 3.217 3.217 0 0 0 4.654 3.784 3.22 3.22 0 0 0 5.232 2.942 3.22 3.22 0 0 0 5.654 2.011 3.22 3.22 0 0 0 5.912 1.026 3.216 3.216 0 0 0 5.989 0h.271c.342-.032.675-.122.987-.264a3.22 3.22 0 0 0 5.965-1.09 3.21 3.21 0 0 0 3.546.806 3.22 3.22 0 0 0 2.031-3.018 3.219 3.219 0 0 0 5.122-3.125 3.22 3.22 0 0 0 4.668-2.053 3.2 3.2 0 0 0-.123-1.928 3.217 3.217 0 0 0 3.784-4.654 3.22 3.22 0 0 0 2.956-5.211 3.218 3.218 0 0 0 3.003-4.026 3.2 3.2 0 0 0-.992-1.611 3.22 3.22 0 0 0 2.29-4.492 3.2 3.2 0 0 0-1.264-1.42z"/><path fill="#A26BAF" d="M98.625 82.903a7.938 7.938 0 1 0 0-15.876 7.938 7.938 0 0 0 0 15.876"/><path fill="#F9EDCD" d="M105.484 76.57a7.036 7.036 0 1 0-13.702-3.205 7.036 7.036 0 0 0 13.702 3.206"/><path fill="#88A33D" d="M96.167 50.971s5.905-3.467 5.285-4.295-1.667.07-1.667.07 2.935-1.334 2.579-1.98c-.356-.644-1.762.328-1.762.328s1.73-1.145 1.568-1.469-.891-.13-.891-.13 1.466-1.476.874-2.135-1.713.934-1.713.934-.045-.874-.584-.923c-.54-.05-1.03 2.755-1.03 2.755s.071-2.53-.651-2.449-1 3.523-1 3.523-.113-2.374-.532-2.237-.13 1.201-.13 1.201-.392-1.959-1.058-1.761c-.666.197-.704 2.075-.704 2.075s-.353-1.261-.895-1.015c-.543.247.87 2.64.87 2.64s-.98-.85-1.304-.526-.384.715 2.745 5.394"/><path fill="#88A33D" d="M107.088 54.466c.687-.522.148-1.223-.232-1.596.549.454 1.726 1.314 2.286.814.744-.663-.606-1.434-.606-1.434s1.811 1.088 2.304.253c.353-.61-.627-1.286-1.187-1.603.405.194 1.036.437 1.23.152.236-.352-.138-.62-.293-.705.243.127 1.135.56 1.431 0 .352-.648-2.421-1.377-2.421-1.377s4.316.937 2.949-.606c0 0 1.589.387 1.409-.66-.179-1.046-1.536-.119-1.536-.119.726-1.927-2.973.486-2.973.486s2.321-1.663 1.761-2.149c-.475-.42-1.155.3-1.335.507.113-.14.352-.525.018-.768-.282-.2-.786.254-1.093.578.406-.493 1.096-1.48.536-1.92-.761-.602-2.061 1.057-2.061 1.057s.983-1.201.053-1.557c-.705-.265-1.494.954-1.846 1.575.225-.483.479-1.332-.353-1.572-1.176-.352-2.085 2.466-2.085 2.466-.705-.982-.705-.243-1.166 1.392-.462 1.635-3.605 2.924-3.605 2.924s3.386.085 4.411 1.445c1.026 1.36 1.276 2.05 1.586.88-.004-.017 1.842 2.273 2.818 1.537"/><path fill="#88A33D" d="M96.165 50.977s6.753 1.131 6.464 2.114-1.581.525-1.581.525 3.22.204 3.118.93-1.762.324-1.762.324 2.026.455 1.991.814c-.036.36-.786.44-.786.44s1.895.857 1.575 1.681-1.934-.26-1.934-.26.274.834-.215 1.056c-.49.222-1.942-2.205-1.942-2.205s.966 2.34.261 2.522c-.705.184-2.191-2.938-2.191-2.938s.74 2.255.303 2.276-.553-1.057-.553-1.057.334 1.97-.353 2.04-1.409-1.688-1.409-1.688.123 1.304-.472 1.269c-.596-.035-.13-2.777-.13-2.777s-.614 1.145-1.03.955c-.415-.19-.609-.535.645-6.02"/><path fill="#2B2B2B" d="M112.202 48.016c-1.895.423-3.794.81-5.697 1.187-1.902.377-3.815.73-5.718 1.096a198 198 0 0 1-5.725 1.015l-2.871.486c-.959.148-1.913.307-2.875.444.948-.215 1.895-.409 2.847-.613l2.85-.574c1.899-.38 3.808-.73 5.711-1.096 1.902-.367 3.815-.705 5.725-1.015s3.826-.648 5.753-.93"/><path fill="#2B2B2B" d="m96.286 50.849 5.285 5.253-5.528-5.003a.18.18 0 0 1 0-.25.176.176 0 0 1 .25 0z"/><path fill="#2B2B2B" d="m96 50.901 3.563-7.23-3.242 7.4a.178.178 0 1 1-.324-.145z"/><path fill="#A26BAF" d="M128.927 56.019a7.938 7.938 0 1 0-11.225-11.226 7.938 7.938 0 0 0 11.225 11.226"/><path fill="#F9EDCD" d="M126.927 56.441a7.036 7.036 0 1 0-7.223-12.076 7.036 7.036 0 0 0 7.223 12.076"/><path fill="#D84848" d="M105.458 73.752v.032a2.76 2.76 0 0 1-3.63 3.507 2.76 2.76 0 0 1-1.489-1.44v-.031l-2.364.955v.031a5.32 5.32 0 1 0 9.865-3.98v-.032zM83.237 22.493h.032a2.762 2.762 0 0 1-1.716 5.25h-.032l-.793 2.424h.032a5.31 5.31 0 0 0 3.305-10.073h-.035zm-7.083 48.504.032-.022a2.76 2.76 0 1 1 2.98 4.648l-.031.017 1.377 2.146.032-.018a5.31 5.31 0 0 0-5.736-8.938l-.028.017zm13.731-25.52-.024.025a2.762 2.762 0 0 1-3.964-3.844l.028-.025-1.832-1.761-.024.02a5.312 5.312 0 0 0 7.624 7.4l.02-.029z"/><path fill="#EAC428" d="M97.786 20.547a2.57 2.57 0 0 0 2.438-1.638c.165-.316.245-.669.232-1.025l-.095-.705a2.7 2.7 0 0 0-.684-1.176l-.539-.42a2.65 2.65 0 0 0-1.345-.352 2.03 2.03 0 0 0-1.03.229 1.95 1.95 0 0 0-.855.55 2.97 2.97 0 0 0-.786 1.884l.095.705c.122.445.357.85.684 1.177l.539.42c.41.233.874.354 1.346.351m14.37 2.935-.053.056a1.76 1.76 0 0 0-.465 1.117q.03.212.057.419c.072.266.213.51.408.705l.05.052.334.261.395.17c.214.066.443.076.662.027a.83.83 0 0 0 .419-.112.8.8 0 0 0 .353-.212.84.84 0 0 0 .299-.3.8.8 0 0 0 .212-.351c.104-.198.154-.419.144-.642l-.06-.44-.165-.395-.258-.352-.352-.257-.395-.17a1.25 1.25 0 0 0-.662-.031.84.84 0 0 0-.419.113c-.205.068-.389.19-.532.352zm-30.08 15.474a2.65 2.65 0 0 0 2.512-1.684c.17-.326.253-.69.24-1.057a52 52 0 0 1-.1-.73 2.75 2.75 0 0 0-.704-1.215l-.553-.44a2.8 2.8 0 0 0-1.388-.353c-.722.03-1.41.315-1.941.804a2.03 2.03 0 0 0-.568.88 2.1 2.1 0 0 0-.24 1.057l.1.73c.124.458.367.876.704 1.212l.557.43c.42.246.898.376 1.384.376zm20.152-5.474c2.325 0 2.335-3.612 0-3.615s-2.333 3.611 0 3.614M97.122 49.72a2.1 2.1 0 0 0 1.057-.233c.335-.109.636-.303.873-.564.263-.236.457-.537.564-.873.173-.325.255-.69.236-1.057l-.095-.726a2.8 2.8 0 0 0-.705-1.202l-.55-.426a2.74 2.74 0 0 0-1.373-.373 3.04 3.04 0 0 0-1.924.796 2 2 0 0 0-.564.874 2.03 2.03 0 0 0-.236 1.057l.096.722c.128.454.37.868.704 1.201l.55.427c.417.243.89.372 1.374.373zm8.436 20.138a2.446 2.446 0 0 0 2.378-2.371l-.084-.631a2.4 2.4 0 0 0-.61-1.057l-.479-.374a2.34 2.34 0 0 0-1.198-.324 1.8 1.8 0 0 0-.916.201 1.8 1.8 0 0 0-.764.49 2.68 2.68 0 0 0-.705 1.677l.085.63c.107.4.317.764.609 1.058l.479.37a2.35 2.35 0 0 0 1.198.327zm7.449-14.02c.355.017.707-.061 1.022-.226.327-.107.622-.296.856-.55.253-.23.442-.525.546-.852.167-.313.247-.664.233-1.018l-.095-.705a2.7 2.7 0 0 0-.68-1.17l-.536-.415a2.66 2.66 0 0 0-1.339-.353 2.92 2.92 0 0 0-1.874.776c-.256.23-.445.524-.55.852a2 2 0 0 0-.229 1.018q.049.355.092.705c.123.442.357.845.68 1.17l.539.415a2.65 2.65 0 0 0 1.335.353m-24.614 9.417c.335.015.668-.059.965-.215.31-.099.588-.278.807-.518a2.8 2.8 0 0 0 .736-1.761q-.047-.333-.088-.666a2.5 2.5 0 0 0-.645-1.103l-.51-.384a2.5 2.5 0 0 0-1.265-.352 2.58 2.58 0 0 0-2.505 2.498c.028.222.06.444.088.666.114.418.335.799.641 1.106l.507.391c.382.228.817.35 1.262.352zm-16.408-6.058a2.73 2.73 0 0 0 2.59-1.737c.177-.334.26-.71.243-1.089q-.047-.376-.099-.754a2.86 2.86 0 0 0-.725-1.25l-.571-.455a2.84 2.84 0 0 0-1.43-.39 2.745 2.745 0 0 0-2.59 1.736c-.176.336-.26.713-.243 1.092l.098.75c.13.473.38.904.726 1.252l.575.444c.432.253.925.387 1.426.387zM86.42 27.426c1.695 0 1.702-2.632 0-2.635-1.701-.004-1.705 2.635 0 2.635m-4.09 22.788c1.278 0 1.282-1.983 0-1.983s-1.283 1.983 0 1.983M92.896 37.55c.298.012.594-.053.86-.19a1.75 1.75 0 0 0 .722-.462 1.7 1.7 0 0 0 .461-.705c.14-.265.207-.563.194-.863l-.078-.596a2.2 2.2 0 0 0-.574-.986l-.45-.352a2.24 2.24 0 0 0-1.132-.31 1.7 1.7 0 0 0-.86.193 2.3 2.3 0 0 0-1.377 2.04l.078.596c.103.373.3.712.574.986l.45.352c.345.2.735.306 1.132.307zm16.755 5.164a1.53 1.53 0 0 0 1.437-.962c.098-.187.144-.396.134-.606l-.056-.416a1.6 1.6 0 0 0-.402-.705l-.317-.246a1.6 1.6 0 0 0-.793-.215 1.2 1.2 0 0 0-.602.134 1.63 1.63 0 0 0-.969 1.434l.056.419c.071.266.209.508.402.705l.317.243c.24.142.514.216.793.215m-3.763-18.685c1.465 0 1.472-2.28 0-2.283-1.473-.004-1.473 2.28 0 2.283M70.303 44.752c3.47 0 3.485-5.387 0-5.39s-3.484 5.387 0 5.39m6.035 25.404-.162-.116a1.49 1.49 0 0 0-1.487-.004c-.219.128-.4.31-.528.529a1.44 1.44 0 0 0-.201.743v.211a1.58 1.58 0 0 0 1.575 1.587 1.586 1.586 0 0 0 1.377-2.383 1.6 1.6 0 0 0-.567-.567zm4.159-7.259a1.8 1.8 0 0 0 .906-.204c.29-.092.551-.259.757-.483a1.75 1.75 0 0 0 .486-.758c.148-.278.219-.59.205-.905-.028-.208-.057-.42-.081-.627a2.4 2.4 0 0 0-.606-1.04l-.476-.352a2.34 2.34 0 0 0-1.187-.324 1.8 1.8 0 0 0-.906.2 1.8 1.8 0 0 0-.757.487 2.64 2.64 0 0 0-.705 1.663q.044.312.081.624c.108.393.317.751.606 1.039l.476.37c.36.21.77.322 1.187.324zm10.215-6.968c.244.01.487-.043.704-.155.223-.074.423-.204.582-.377a1.3 1.3 0 0 0 .376-.581 1.35 1.35 0 0 0 .156-.705l-.064-.483a1.8 1.8 0 0 0-.465-.8l-.352-.282a1.76 1.76 0 0 0-.913-.25 1.35 1.35 0 0 0-.704.155 1.4 1.4 0 0 0-.585.374 1.4 1.4 0 0 0-.377.581 1.37 1.37 0 0 0-.155.705l.063.479c.082.303.243.579.465.8l.353.285c.276.163.591.25.912.25zm9.72 5.946c2.152 0 2.163-3.343 0-3.347-2.164-.003-2.16 3.344 0 3.347M86.354 73.94c.326.016.651-.056.94-.208a2.22 2.22 0 0 0 1.308-1.286 1.86 1.86 0 0 0 .21-.937q-.045-.324-.087-.648a2.4 2.4 0 0 0-.624-1.075l-.493-.38a2.4 2.4 0 0 0-1.23-.353 1.8 1.8 0 0 0-.937.208 2.5 2.5 0 0 0-1.5 2.223l.084.649c.112.406.328.777.627 1.074l.493.38c.371.221.795.337 1.226.335zm28.271-10.315c1.761 0 1.779-2.752 0-2.755s-1.779 2.751 0 2.755m-10.808 14.823.099-.19c.114-.176.179-.38.186-.59a1.4 1.4 0 0 0-.31-1.172 1.16 1.16 0 0 0-.443-.41l-.377-.158a1.6 1.6 0 0 0-.842 0l-.381.159c-.235.139-.43.335-.567.57l-.099.19a1.2 1.2 0 0 0-.19.59 1.43 1.43 0 0 0 .31 1.172c.111.173.265.314.447.41l.377.158c.276.075.567.075.842 0l.381-.159a1.6 1.6 0 0 0 .567-.57m-6.91-7.271c1.761 0 1.779-2.752 0-2.756-1.78-.003-1.78 2.752 0 2.755m15.057-36.736c2.152 0 2.16-3.346 0-3.346s-2.163 3.343 0 3.347m-10.426 6.964c1.734 0 1.741-2.692 0-2.696-1.74-.003-1.74 2.696 0 2.696m-9.307-13.768c3.523 0 3.523-5.475 0-5.482s-3.54 5.475 0 5.482M76.41 30.31c.367.017.732-.064 1.057-.236a2.47 2.47 0 0 0 1.448-1.445c.173-.324.256-.69.24-1.056q-.052-.36-.1-.726a2.75 2.75 0 0 0-.704-1.212l-.556-.43a2.7 2.7 0 0 0-1.381-.373 2.1 2.1 0 0 0-1.057.232c-.338.11-.641.306-.881.567-.263.239-.46.543-.567.881-.174.324-.257.69-.24 1.057l.099.73c.126.456.369.873.704 1.208l.557.43a2.7 2.7 0 0 0 1.381.373m3.385-6.7a1.47 1.47 0 0 0 .757-.17 1.76 1.76 0 0 0 1.057-1.04c.124-.232.184-.493.173-.757l-.07-.525a2 2 0 0 0-.505-.87l-.398-.306a2 2 0 0 0-.997-.272 2.2 2.2 0 0 0-1.391.575 1.5 1.5 0 0 0-.409.634 1.5 1.5 0 0 0-.17.757l.068.525c.092.329.267.629.507.87l.398.31c.298.174.635.267.98.268m28.941-2.778c3.259 0 3.273-5.059 0-5.062s-3.273 5.059 0 5.062m-4.103 31.095c2.913 0 2.924-4.531 0-4.535-2.925-.003-2.925 4.527 0 4.535m10.954-4.002c2.956 0 2.967-4.58 0-4.58s-2.963 4.58 0 4.58M80.395 77.971c1.677 0 1.684-2.607 0-2.607s-1.684 2.604 0 2.607M70.14 68.476a2.52 2.52 0 0 0 1.583-.656 1.63 1.63 0 0 0 .461-.704c.149-.267.222-.57.212-.874l-.078-.596a2.2 2.2 0 0 0-.574-.986l-.451-.352A2.27 2.27 0 0 0 70.162 64a1.7 1.7 0 0 0-.86.19 1.7 1.7 0 0 0-.704.462c-.398.433-.63.994-.656 1.582l.078.595c.104.373.301.713.574.987l.451.352c.343.202.733.31 1.131.31zM65.966 53.32a2.2 2.2 0 0 0 1.385-.57c.185-.172.325-.388.405-.628.119-.233.177-.492.169-.754l-.07-.521a2 2 0 0 0-.5-.864l-.395-.306c-.3-.174-.64-.266-.987-.268a2.01 2.01 0 0 0-1.959 1.952l.07.522c.089.326.261.624.5.863l.395.306c.3.174.64.266.987.268m12.067-8.991c1.716 0 1.723-2.664 0-2.667-1.723-.004-1.723 2.663 0 2.667m10.918 2.723.462-.353q.224-.22.384-.493l.232-.556.085-.617a1.76 1.76 0 0 0-.197-.898 2.4 2.4 0 0 0-.705-.93 1.2 1.2 0 0 0-.514-.3 1.14 1.14 0 0 0-.585-.159 1.76 1.76 0 0 0-.927.04l-.557.232-.472.352-.352.472-.236.553-.085.62c-.013.311.056.62.201.895.053.194.155.372.296.515.164.25.388.456.652.599l-.465-.353.021.021-.352-.461c.31.5.787.873 1.346 1.057l.599.08c.4.002.793-.104 1.138-.306zM72.346 36.793c2.287 0 2.297-3.552 0-3.555s-2.297 3.551 0 3.555m17.192-17.116c2.157 0 2.164-3.344 0-3.347-2.163-.004-2.163 3.343 0 3.347M66.92 34.423h.06a1.1 1.1 0 0 0 1.064-.282.84.84 0 0 0 .225-.352.8.8 0 0 0 .091-.419c0-.095-.024-.19-.038-.289a1.08 1.08 0 0 0-.77-.762c-.185-.05-.38-.05-.566.001h-.06l-.257.11a.77.77 0 0 0-.303.278.5.5 0 0 0-.14.236.85.85 0 0 0-.096.415c0 .099.028.194.039.29.01.094.074.172.11.257.149.237.377.414.644.5zm-2.557 5.307a1 1 0 0 0 .518-.115 1 1 0 0 0 .437-.279c.128-.118.224-.267.278-.433a1 1 0 0 0 .116-.518c0-.12-.032-.24-.05-.352a1.34 1.34 0 0 0-.352-.596l-.27-.208a1.3 1.3 0 0 0-.68-.186 1 1 0 0 0-.519.116 1 1 0 0 0-.437.278 1 1 0 0 0-.278.434 1 1 0 0 0-.116.517c0 .12.032.24.046.353.064.225.185.43.352.595l.271.212c.207.12.441.183.68.183zm30.653 26.342c1.66 0 1.666-2.572 0-2.575s-1.663 2.575 0 2.575M76.648 51.414c1.966 0 1.973-3.048 0-3.051s-1.973 3.047 0 3.05m31.625 8.623a1 1 0 0 0 .511-.113 1.2 1.2 0 0 0 .704-.704 1 1 0 0 0 .113-.511l-.046-.353a1.35 1.35 0 0 0-.352-.58l-.268-.209a1.3 1.3 0 0 0-.666-.18 1 1 0 0 0-.507.113 1 1 0 0 0-.423.271 1 1 0 0 0-.275.423c-.081.157-.12.332-.112.508 0 .12.031.236.045.352.066.22.188.42.353.581l.267.208c.201.119.43.18.663.18zM98.72 26.484c1.336 0 1.339-2.072 0-2.072s-1.338 2.072 0 2.072m12.779 44.408c1.733 0 1.74-2.695 0-2.695-1.741 0-1.741 2.691 0 2.695M96.383 56.045c2.498 0 2.505-3.876 0-3.876s-2.508 3.876 0 3.876M82.038 67.926c1.275 0 1.282-1.984 0-1.984s-1.283 1.984 0 1.984m-.2-14.738a.7.7 0 0 0-.324-.05.7.7 0 0 0-.324.05l-.289.123a1.34 1.34 0 0 0-.56.705l-.042.324a.93.93 0 0 0 .102.468.9.9 0 0 0 .254.391l.243.19a1.2 1.2 0 0 0 .613.166l.324-.042c.298-.098.554-.295.726-.557l.123-.289a.95.95 0 0 0 .021-.486.87.87 0 0 0-.144-.45l-.187-.248a1.23 1.23 0 0 0-.536-.313zM87.49 33.18c.328-.01.644-.134.89-.352.12-.11.21-.25.261-.405a.93.93 0 0 0 .11-.487l-.043-.352c-.06-.21-.17-.401-.324-.556l-.254-.198a1.3 1.3 0 0 0-.637-.172.94.94 0 0 0-.483.109 1.3 1.3 0 0 0-.775 1.148l.042.335c.059.21.17.402.324.557l.254.197c.192.113.411.172.634.173zm20.541-4.164c.235.012.469-.04.677-.148a1.8 1.8 0 0 0 1.078-1.596l-.063-.465a1.74 1.74 0 0 0-.448-.776l-.352-.274a1.76 1.76 0 0 0-.881-.24 1.36 1.36 0 0 0-.676.152 1.3 1.3 0 0 0-.561.352 1.3 1.3 0 0 0-.352.564 1.26 1.26 0 0 0-.151.672l.06.466c.081.292.237.559.451.775l.352.271c.267.158.571.24.881.24z" opacity=".5" style="mix-blend-mode:multiply"/><path fill="#F9EDCD" d="M98.63 80.612a5.5 5.5 0 0 1-2.196-.352 5.7 5.7 0 0 1-3.376-3.601 5.67 5.67 0 0 1 3.376-6.987 5.5 5.5 0 0 1 2.195-.352 5.8 5.8 0 0 0-3.896 1.762 5.605 5.605 0 0 0 0 7.79 5.8 5.8 0 0 0 3.896 1.74" style="mix-blend-mode:screen"/><path fill="#F9EDCD" d="M98.63 69.32a5.5 5.5 0 0 1 2.191.353 5.67 5.67 0 0 1 3.611 5.284 5.67 5.67 0 0 1-3.611 5.285 5.5 5.5 0 0 1-2.192.352 5.8 5.8 0 0 0 3.893-1.761 5.61 5.61 0 0 0 0-7.79 5.8 5.8 0 0 0-3.893-1.723" style="mix-blend-mode:screen"/><path fill="#F9EDCD" d="M95.552 77.57a3.9 3.9 0 0 1-.843-1.35 4.2 4.2 0 0 1-.229-1.6 4.067 4.067 0 0 1 6.036-3.3c.464.267.869.627 1.19 1.056a4.2 4.2 0 0 0-2.751-1.279 4 4 0 0 0-4.207 3.556 4.18 4.18 0 0 0 .803 2.917" style="mix-blend-mode:screen"/><path fill="#F9EDCD" d="M101.704 72.366c.37.388.657.847.842 1.35a4.067 4.067 0 0 1-4.266 5.404 4.2 4.2 0 0 1-1.54-.493 3.9 3.9 0 0 1-1.19-1.057 4.2 4.2 0 0 0 2.75 1.279 3.996 3.996 0 0 0 4.207-3.555 4.18 4.18 0 0 0-.803-2.928" style="mix-blend-mode:screen"/><path fill="#F9EDCD" d="M96.588 76.836a2.65 2.65 0 0 1-.86-1.994 2.82 2.82 0 0 1 3.027-2.776 2.65 2.65 0 0 1 1.909 1.032 2.92 2.92 0 0 0-1.923-.757A2.734 2.734 0 0 0 96 74.853c-.052.71.157 1.416.588 1.983m4.08-3.739a2.65 2.65 0 0 1 .863 1.994 2.82 2.82 0 0 1-.913 2.042 2.8 2.8 0 0 1-2.113.734 2.65 2.65 0 0 1-1.913-1.032 2.92 2.92 0 0 0 1.923.757 2.735 2.735 0 0 0 2.741-2.512 2.9 2.9 0 0 0-.588-1.983" style="mix-blend-mode:screen"/><path fill="#F9EDCD" d="M97.43 76.069a1.52 1.52 0 0 1-.563-1.177 1.68 1.68 0 0 1 1.842-1.687 1.52 1.52 0 0 1 1.124.662 1.8 1.8 0 0 0-1.138-.388 1.585 1.585 0 0 0-1.553 1.41 1.76 1.76 0 0 0 .288 1.18" style="mix-blend-mode:screen"/><path fill="#F9EDCD" d="M99.83 73.865a1.5 1.5 0 0 1 .561 1.177 1.69 1.69 0 0 1-1.145 1.609c-.224.074-.46.1-.694.078a1.5 1.5 0 0 1-1.124-.662 1.8 1.8 0 0 0 1.134.39 1.6 1.6 0 0 0 1.557-1.426c.04-.41-.062-.822-.288-1.166" style="mix-blend-mode:screen"/><path fill="#A26BAF" d="M80.345 60.651a7.938 7.938 0 1 0-13.262-8.727 7.938 7.938 0 0 0 13.262 8.727"/><path fill="#F9EDCD" d="M78.683 61.261a7.036 7.036 0 1 0-9.95-9.95 7.036 7.036 0 0 0 9.95 9.95"/><path fill="#F9EDCD" d="M73.713 61.932a5.5 5.5 0 0 1-2.195-.352 5.672 5.672 0 0 1 0-10.587 5.5 5.5 0 0 1 2.195-.352 5.8 5.8 0 0 0-3.896 1.761 5.61 5.61 0 0 0 0 7.793 5.8 5.8 0 0 0 3.896 1.737m.002-11.292a5.5 5.5 0 0 1 2.191.353 5.676 5.676 0 0 1 0 10.59 5.5 5.5 0 0 1-2.191.353 5.8 5.8 0 0 0 3.893-1.762 5.61 5.61 0 0 0 0-7.793 5.77 5.77 0 0 0-3.893-1.74" style="mix-blend-mode:screen"/><path fill="#F9EDCD" d="M70.63 58.889a3.9 3.9 0 0 1-.843-1.35 4.06 4.06 0 0 1 5.806-4.908c.466.266.872.626 1.191 1.057a4.2 4.2 0 0 0-2.752-1.279 4 4 0 0 0-4.206 3.555 4.18 4.18 0 0 0 .803 2.925" style="mix-blend-mode:screen"/><path fill="#F9EDCD" d="M76.79 53.682c.37.389.656.85.841 1.353a4.05 4.05 0 0 1-1.205 4.46 4.08 4.08 0 0 1-3.061.941 4.2 4.2 0 0 1-1.54-.493 3.9 3.9 0 0 1-1.19-1.057 4.18 4.18 0 0 0 2.75 1.279 3.995 3.995 0 0 0 4.207-3.555 4.2 4.2 0 0 0-.803-2.928" style="mix-blend-mode:screen"/><path fill="#F9EDCD" d="M71.684 58.139a2.65 2.65 0 0 1-.863-1.994 2.816 2.816 0 0 1 3.026-2.773 2.65 2.65 0 0 1 1.913 1.029 2.92 2.92 0 0 0-1.924-.754 2.727 2.727 0 0 0-2.74 2.508 2.93 2.93 0 0 0 .588 1.984m4.07-3.723a2.66 2.66 0 0 1 .87 1.998 2.82 2.82 0 0 1-3.027 2.772 2.65 2.65 0 0 1-1.906-1.046 2.92 2.92 0 0 0 1.924.758 2.727 2.727 0 0 0 2.741-2.513 2.93 2.93 0 0 0-.602-1.969" style="mix-blend-mode:screen"/><path fill="#F9EDCD" d="M72.509 57.384a1.5 1.5 0 0 1-.564-1.176 1.7 1.7 0 0 1 .543-1.255 1.67 1.67 0 0 1 1.296-.433 1.5 1.5 0 0 1 1.124.662 1.8 1.8 0 0 0-1.134-.387 1.6 1.6 0 0 0-1.557 1.409c-.044.416.06.833.292 1.18m2.4-2.2a1.5 1.5 0 0 1 .564 1.18 1.676 1.676 0 0 1-1.84 1.688 1.51 1.51 0 0 1-1.123-.666c.322.255.723.393 1.134.39a1.6 1.6 0 0 0 1.557-1.426 1.8 1.8 0 0 0-.292-1.166" style="mix-blend-mode:screen"/><path fill="#A26BAF" d="M97.319 30.77a7.937 7.937 0 0 0 7.937-7.938 7.937 7.937 0 1 0-15.875 0 7.94 7.94 0 0 0 7.938 7.938"/><path fill="#F9EDCD" d="M100.043 29.323a7.036 7.036 0 1 0-5.45-12.974 7.036 7.036 0 0 0 5.45 12.974"/><path fill="#F9EDCD" d="M97.318 28.48a5.5 5.5 0 0 1-2.191-.352 5.676 5.676 0 0 1 0-10.59 5.5 5.5 0 0 1 2.191-.353 5.8 5.8 0 0 0-3.893 1.762 5.61 5.61 0 0 0 0 7.793 5.78 5.78 0 0 0 3.893 1.74" style="mix-blend-mode:screen"/><path fill="#F9EDCD" d="M97.315 17.189a5.5 5.5 0 0 1 2.194.352 5.68 5.68 0 0 1 3.633 5.296 5.68 5.68 0 0 1-3.633 5.295 5.5 5.5 0 0 1-2.195.352 5.8 5.8 0 0 0 3.897-1.761 5.61 5.61 0 0 0 0-7.794 5.8 5.8 0 0 0-3.897-1.74" style="mix-blend-mode:screen"/><path fill="#F9EDCD" d="M94.232 25.431a3.9 3.9 0 0 1-.842-1.349 4.05 4.05 0 0 1 1.205-4.46 4.08 4.08 0 0 1 3.062-.941c.54.061 1.063.23 1.54.493.465.267.87.627 1.19 1.057a4.18 4.18 0 0 0-2.752-1.279 3.995 3.995 0 0 0-4.206 3.555 4.17 4.17 0 0 0 .803 2.924m6.168-5.194a3.9 3.9 0 0 1 .842 1.35c.18.512.258 1.056.229 1.599a4.08 4.08 0 0 1-1.434 2.864 4.07 4.07 0 0 1-3.062.937 4.1 4.1 0 0 1-1.54-.493 3.9 3.9 0 0 1-1.19-1.057 4.18 4.18 0 0 0 2.751 1.279 3.995 3.995 0 0 0 4.207-3.555 4.18 4.18 0 0 0-.803-2.924" style="mix-blend-mode:screen"/><path fill="#F9EDCD" d="M95.293 24.702a2.64 2.64 0 0 1-.863-1.994 2.82 2.82 0 0 1 3.026-2.773 2.65 2.65 0 0 1 1.913 1.032 2.9 2.9 0 0 0-1.923-.757 2.727 2.727 0 0 0-2.741 2.512 2.92 2.92 0 0 0 .588 1.98" style="mix-blend-mode:screen"/><path fill="#F9EDCD" d="M99.356 20.968a2.66 2.66 0 0 1 .863 1.994 2.82 2.82 0 0 1-3.027 2.77 2.63 2.63 0 0 1-1.913-1.033c.527.48 1.212.75 1.924.758a2.726 2.726 0 0 0 2.74-2.509 2.93 2.93 0 0 0-.587-1.98" style="mix-blend-mode:screen"/><path fill="#F9EDCD" d="M96.12 23.937a1.5 1.5 0 0 1-.563-1.18 1.68 1.68 0 0 1 1.145-1.609c.223-.075.46-.101.694-.079a1.51 1.51 0 0 1 1.124.666 1.8 1.8 0 0 0-1.135-.39 1.6 1.6 0 0 0-1.557 1.409 1.8 1.8 0 0 0 .292 1.183" style="mix-blend-mode:screen"/><path fill="#F9EDCD" d="M98.516 21.734a1.5 1.5 0 0 1 .564 1.177 1.676 1.676 0 0 1-1.839 1.687 1.5 1.5 0 0 1-1.124-.662c.322.256.723.393 1.135.387a1.6 1.6 0 0 0 1.557-1.409 1.8 1.8 0 0 0-.293-1.18" style="mix-blend-mode:screen"/><path fill="#E8962A" d="M111.948 68.414V64.07l2.72-.511 2.431 3.012zM97.609 32.913v-4.344l2.72-.511 2.431 3.012zm3.548-12.797V15.77l2.72-.508 2.427 3.01zM70.204 35.062l4.034 1.61-.536 2.717-3.696 1.141zM86.048 58.8l4.037 1.61-.535 2.717-3.7 1.138zm26.611 16.323 4.037 1.61-.535 2.717-3.696 1.141zm-48.12-19.416 4.034 1.61-.536 2.716-3.696 1.142zm46.869-20.474 4.037 1.61-.535 2.716-3.7 1.142z" opacity=".5" style="mix-blend-mode:screen"/></svg>