<svg xmlns="http://www.w3.org/2000/svg" width="114" height="76" fill="none"><path fill="#87522D" d="M137.28 87.39c18.53-18.63 18.53-48.83 0-67.46s-48.57-18.63-67.1 0-18.54 48.83 0 67.46 48.57 18.63 67.1 0" opacity=".35"/><path fill="#4C6FBB" d="M131.96 85.5a49.9 49.9 0 0 0 0-70.33 49.3 49.3 0 0 0-69.97 0 49.9 49.9 0 0 0 0 70.34 49.3 49.3 0 0 0 69.97 0"/><path fill="#F2E7CE" d="M129.85 83.4a46.9 46.9 0 0 0 0-66.11 46.33 46.33 0 0 0-65.76 0 46.9 46.9 0 0 0 0 66.1 46.33 46.33 0 0 0 65.76 0"/><path fill="#fff" d="M121.54 74.86c13.57-13.64 13.57-35.76 0-49.4s-35.57-13.64-49.14 0-13.57 35.76 0 49.4 35.57 13.64 49.14 0"/><path fill="#4C6FBB" d="M91.03 6.12c.66-.28 1.63.09 2.6.88.38-1.07 1.02-1.77 1.76-1.79.76 0 1.45.73 1.88 1.87.98-.93 2-1.4 2.71-1.12 1.11.43 1 2.54-.26 4.7-1.16 2-2.87 3.34-4 3.2l-.17.03h-.07c-1.13.08-2.82-1.18-4.01-3.07-1.34-2.12-1.53-4.22-.44-4.7M56.58 69.48c.14.71 1 1.3 2.19 1.66-.66.92-.88 1.85-.47 2.47.42.64 1.42.8 2.59.5-.2 1.34 0 2.46.62 2.89.98.67 2.65-.62 3.71-2.88.98-2.1 1.11-4.27.36-5.13l-.08-.16-.04-.05c-.57-.98-2.56-1.67-4.78-1.6-2.5.1-4.33 1.13-4.1 2.3m2.68-42.72c-.53.48-.61 1.52-.3 2.74-1.13-.1-2.03.18-2.36.84-.33.7.04 1.64.89 2.5-1.25.5-2.11 1.25-2.16 2-.08 1.2 1.87 1.99 4.36 1.76 2.28-.21 4.22-1.21 4.58-2.3l.09-.15.02-.06c.55-.99.13-3.06-1.07-4.95-1.34-2.1-3.15-3.18-4.05-2.38m-.48 25.15c0 1.23-1 2.23-2.22 2.23a2.2 2.2 0 0 1-2.21-2.23c0-1.23.99-2.23 2.21-2.23 1.23 0 2.22 1 2.22 2.23m16.84-34.87c0 1.23-1 2.23-2.22 2.23a2.2 2.2 0 0 1-2.21-2.23 2.22 2.22 0 1 1 4.43 0"/><path fill="#87522D" d="M96.23 61.24s1.37 10.08.4 11.55-10.36 2.29-10.81 1.3c-.46-1-1.47-10.8-.5-11.77.98-.98 9.45-2.55 10.91-1.08m8.57-11.5s6.1 6.01 6.72 7.43c.64 1.42-6.72 7.22-8.18 7.16s-8.26-9.38-7.89-10.63c.38-1.24 7.5-4.88 9.35-3.96M93.22 39.12s3.01 5.77 3.01 7.04-11.4 8.13-12.46 7.88c-1.07-.24-3.59-11.12-3.16-11.75s9.98-3.56 12.6-3.17"/><path fill="#2B2B2B" d="M97.67 96.02a45.29 45.29 0 0 1 .12-90.58 45.3 45.3 0 0 0-45.35 45.23 45.3 45.3 0 0 0 45.23 45.35m.12-90.58a45.3 45.3 0 0 1 41.8 28.02 45.3 45.3 0 0 1-.05 34.66 45 45 0 0 1 3.47-17.33A45.3 45.3 0 0 0 97.8 5.44"/><path fill="#EAC428" d="M132.84 53.27a3.2 3.2 0 0 0 2.06-3 3.2 3.2 0 0 0-2.06-3v-.28a3 3 0 0 0-.26-.99 3.2 3.2 0 0 0 1.55-3.36 3.2 3.2 0 0 0-2.64-2.6 3.2 3.2 0 0 0 .8-3.55 3.2 3.2 0 0 0-3.01-2.03 3.2 3.2 0 0 0 .19-3.63 3.2 3.2 0 0 0-3.32-1.5 3.22 3.22 0 0 0-2.05-4.6 3.2 3.2 0 0 0-1.9.1 3.2 3.2 0 0 0-1.03-3.5 3.2 3.2 0 0 0-3.62-.3 3.2 3.2 0 0 0-1.61-3.25 3.2 3.2 0 0 0-3.62.32 3.22 3.22 0 0 0-4.03-3 3 3 0 0 0-1.61.98 3.22 3.22 0 0 0-4.5-2.29 3.2 3.2 0 0 0-1.41 1.27 3.22 3.22 0 0 0-6 0h-.27q-.51.06-.98.27a3.22 3.22 0 0 0-5.96 1.09 3.22 3.22 0 0 0-5.58 2.2 3.22 3.22 0 0 0-5.12 3.13 3.22 3.22 0 0 0-4.57 3.98 3.22 3.22 0 0 0-3.77 4.65 3.22 3.22 0 0 0-2.95 5.22 3.22 3.22 0 0 0-2.02 5.63 3.22 3.22 0 0 0-1.02 5.94 3.22 3.22 0 0 0 0 5.99v.27q.05.52.26.99a3.22 3.22 0 0 0 1.1 5.96 3.22 3.22 0 0 0 2.2 5.58 3.22 3.22 0 0 0 3.13 5.14 3.22 3.22 0 0 0 3.95 4.51 3.22 3.22 0 0 0 4.66 3.79 3.22 3.22 0 0 0 5.23 2.94 3.22 3.22 0 0 0 5.65 2.01 3.22 3.22 0 0 0 5.91 1.03 3.22 3.22 0 0 0 6 0h.26q.52-.06 1-.27a3.22 3.22 0 0 0 5.96-1.09 3.2 3.2 0 0 0 3.54.8 3.2 3.2 0 0 0 2.03-3.01 3.22 3.22 0 0 0 5.13-3.13 3.22 3.22 0 0 0 4.66-2.05 3.2 3.2 0 0 0-.12-1.93 3.22 3.22 0 0 0 3.78-4.65 3.22 3.22 0 0 0 2.96-5.21 3.22 3.22 0 0 0 3-4.03 3 3 0 0 0-.99-1.6 3.22 3.22 0 0 0 2.3-4.5 3.2 3.2 0 0 0-1.27-1.42z"/><path fill="#A26BAF" d="M98.63 82.9a7.94 7.94 0 1 0 0-15.87 7.94 7.94 0 0 0 0 15.87"/><path fill="#F9EDCD" d="M105.48 76.57a7.04 7.04 0 1 0-13.7-3.2 7.04 7.04 0 0 0 13.7 3.2"/><path fill="#88A33D" d="M96.17 50.97s5.9-3.47 5.28-4.3-1.67.08-1.67.08 2.94-1.34 2.58-1.98c-.35-.65-1.76.32-1.76.32s1.73-1.14 1.57-1.47-.9-.12-.9-.12 1.47-1.48.88-2.14-1.71.93-1.71.93-.05-.87-.58-.92c-.54-.05-1.03 2.76-1.03 2.76s.07-2.53-.66-2.45-1 3.52-1 3.52-.1-2.37-.53-2.24-.13 1.2-.13 1.2-.39-1.95-1.06-1.76c-.66.2-.7 2.08-.7 2.08s-.35-1.26-.9-1.02c-.54.25.88 2.64.88 2.64s-.98-.85-1.3-.52-.4.71 2.74 5.4"/><path fill="#88A33D" d="M107.09 54.47c.68-.53.15-1.23-.23-1.6.54.45 1.72 1.31 2.28.81.75-.66-.6-1.43-.6-1.43s1.8 1.09 2.3.25c.35-.6-.63-1.28-1.19-1.6.4.2 1.04.44 1.23.15.24-.35-.13-.62-.29-.7.24.12 1.14.56 1.43 0 .35-.65-2.42-1.38-2.42-1.38s4.32.94 2.95-.6c0 0 1.59.38 1.4-.67-.17-1.04-1.53-.11-1.53-.11.73-1.93-2.97.48-2.97.48s2.32-1.66 1.76-2.15c-.47-.42-1.15.3-1.33.5.1-.13.35-.52.01-.76-.28-.2-.78.26-1.09.58.4-.5 1.1-1.48.54-1.92-.77-.6-2.07 1.06-2.07 1.06s.99-1.2.06-1.56c-.7-.27-1.5.95-1.85 1.57.23-.48.48-1.33-.35-1.57-1.18-.35-2.09 2.47-2.09 2.47-.7-.98-.7-.24-1.16 1.39-.46 1.64-3.6 2.92-3.6 2.92s3.38.09 4.4 1.45 1.28 2.05 1.59.88c0-.02 1.84 2.27 2.82 1.54"/><path fill="#88A33D" d="M96.17 50.98s6.75 1.13 6.46 2.11-1.58.53-1.58.53 3.22.2 3.12.93-1.77.32-1.77.32 2.03.45 2 .81c-.04.36-.8.44-.8.44s1.9.86 1.58 1.68-1.93-.26-1.93-.26.27.84-.21 1.06c-.5.22-1.95-2.2-1.95-2.2s.97 2.34.26 2.52c-.7.18-2.19-2.94-2.19-2.94s.74 2.25.3 2.28-.55-1.06-.55-1.06.34 1.97-.35 2.04-1.4-1.69-1.4-1.69.11 1.3-.48 1.27c-.6-.04-.13-2.78-.13-2.78s-.61 1.15-1.03.96c-.42-.2-.61-.54.64-6.02"/><path fill="#2B2B2B" d="M112.2 48.02q-2.85.62-5.7 1.18t-5.71 1.1a198 198 0 0 1-5.73 1.01l-2.87.49-2.87.44 2.84-.6 2.85-.58 5.71-1.1q2.86-.55 5.73-1.01c2.87-.46 3.82-.65 5.75-.93"/><path fill="#2B2B2B" d="m96.29 50.85 5.28 5.25-5.53-5a.2.2 0 0 1 0-.25.2.2 0 0 1 .25 0"/><path fill="#2B2B2B" d="m96 50.9 3.56-7.23-3.24 7.4a.18.18 0 1 1-.32-.14z"/><path fill="#A26BAF" d="M128.93 56.02a7.94 7.94 0 1 0-11.23-11.23 7.94 7.94 0 0 0 11.23 11.23"/><path fill="#F9EDCD" d="M126.93 56.44a7.04 7.04 0 1 0-7.23-12.07 7.04 7.04 0 0 0 7.23 12.07"/><path fill="#D84848" d="M105.46 73.75v.03a2.76 2.76 0 0 1-3.63 3.51 2.8 2.8 0 0 1-1.5-1.44v-.03l-2.35.96v.03a5.32 5.32 0 1 0 9.86-3.98v-.04zM83.24 22.5h.03a2.76 2.76 0 0 1-1.72 5.25h-.03l-.8 2.43h.04a5.31 5.31 0 0 0 3.3-10.08h-.03zM76.15 71l.04-.02a2.76 2.76 0 1 1 2.98 4.65l-.04.02 1.38 2.15.03-.02a5.31 5.31 0 0 0-5.73-8.94l-.03.02zm13.73-25.51-.02.02a2.76 2.76 0 0 1-3.96-3.84l.02-.03-1.83-1.76-.02.02a5.31 5.31 0 0 0 7.62 7.4l.02-.03z"/><path fill="#EAC428" d="M97.79 20.55a2.6 2.6 0 0 0 2.43-1.64q.26-.48.24-1.03l-.1-.7a3 3 0 0 0-.68-1.18l-.54-.42a3 3 0 0 0-1.35-.35 2 2 0 0 0-1.03.23 2 2 0 0 0-.85.55 3 3 0 0 0-.79 1.88l.1.7q.18.68.68 1.19l.54.42q.62.35 1.35.35m14.37 2.93-.06.06a1.8 1.8 0 0 0-.46 1.12l.06.41q.1.41.4.7l.05.06.34.26.4.17q.32.1.65.03a1 1 0 0 0 .42-.11 1 1 0 0 0 .36-.21 1 1 0 0 0 .3-.3 1 1 0 0 0 .2-.36q.16-.3.15-.64l-.06-.44-.16-.4-.26-.34-.35-.26-.4-.17a1.3 1.3 0 0 0-.66-.03 1 1 0 0 0-.42.11q-.31.1-.53.35zM82.08 38.96a2.65 2.65 0 0 0 2.5-1.69q.27-.5.25-1.05l-.1-.73a3 3 0 0 0-.7-1.22l-.56-.44a3 3 0 0 0-1.39-.35c-.72.03-1.4.31-1.94.8a2 2 0 0 0-.57.88 2 2 0 0 0-.24 1.06l.1.73q.2.7.7 1.21l.57.43q.65.38 1.38.38zm20.15-5.48c2.32 0 2.33-3.61 0-3.61s-2.33 3.6 0 3.61m-5.1 16.24a2 2 0 0 0 1.05-.23q.5-.16.87-.57.4-.35.57-.87.26-.5.23-1.06l-.1-.72a3 3 0 0 0-.7-1.2l-.55-.43a3 3 0 0 0-1.37-.37 3 3 0 0 0-1.92.8 2 2 0 0 0-.57.87 2 2 0 0 0-.23 1.05l.1.73q.19.68.7 1.2l.55.42q.63.38 1.37.38m8.43 20.14a2.45 2.45 0 0 0 2.38-2.37l-.09-.63a2.4 2.4 0 0 0-.6-1.06l-.49-.37a2.3 2.3 0 0 0-1.2-.33 2 2 0 0 0-.91.2 2 2 0 0 0-.77.5 2.7 2.7 0 0 0-.7 1.67l.09.63q.16.6.6 1.06l.48.37a2.4 2.4 0 0 0 1.2.32zM113 55.84a2 2 0 0 0 1.02-.23q.5-.16.85-.55.4-.35.55-.85a2 2 0 0 0 .23-1.02l-.1-.7a3 3 0 0 0-.67-1.17l-.54-.42a3 3 0 0 0-1.34-.35 3 3 0 0 0-1.87.78q-.39.35-.55.85a2 2 0 0 0-.23 1.02l.1.7q.19.68.67 1.17l.54.42a3 3 0 0 0 1.34.35m-24.62 9.42q.52.02.97-.22.47-.15.8-.52a2.8 2.8 0 0 0 .74-1.76l-.09-.66a2.5 2.5 0 0 0-.64-1.1l-.51-.4a2.5 2.5 0 0 0-1.27-.34 2.6 2.6 0 0 0-2.5 2.5l.09.66q.17.64.64 1.1l.5.4q.59.34 1.27.35zM72 59.2a2.7 2.7 0 0 0 2.59-1.74q.26-.5.24-1.09l-.1-.75a3 3 0 0 0-.73-1.25l-.57-.46a3 3 0 0 0-1.43-.39 2.75 2.75 0 0 0-2.59 1.74q-.26.5-.24 1.09l.1.75q.2.72.72 1.25l.58.45q.66.38 1.42.38zm14.43-31.77c1.7 0 1.7-2.64 0-2.64s-1.7 2.64 0 2.64m-4.1 22.77c1.28 0 1.28-1.98 0-1.98s-1.28 1.98 0 1.98M92.9 37.55q.45.02.86-.19a2 2 0 0 0 .72-.46 2 2 0 0 0 .46-.7q.2-.41.2-.87l-.09-.6a2 2 0 0 0-.57-.98l-.45-.35a2 2 0 0 0-1.13-.31 2 2 0 0 0-.86.19 2.3 2.3 0 0 0-1.38 2.04l.08.6q.16.56.57.98l.45.35q.53.3 1.14.31zm16.75 5.16a1.5 1.5 0 0 0 1.44-.96q.15-.3.13-.6l-.05-.42a1.6 1.6 0 0 0-.4-.7l-.32-.25a1.6 1.6 0 0 0-.8-.22 1 1 0 0 0-.6.14 1.6 1.6 0 0 0-.97 1.43l.06.42q.1.4.4.7l.32.25q.36.21.8.21m-3.77-18.68c1.46 0 1.47-2.28 0-2.28-1.48 0-1.48 2.28 0 2.28M70.3 44.75c3.47 0 3.49-5.38 0-5.39s-3.48 5.39 0 5.4m6.04 25.4-.16-.12a1.5 1.5 0 0 0-1.5 0q-.33.19-.52.52a1.4 1.4 0 0 0-.2.75v.2a1.6 1.6 0 0 0 1.58 1.6 1.6 1.6 0 0 0 1.37-2.39 1.6 1.6 0 0 0-.57-.56m4.16-7.26a2 2 0 0 0 .9-.2q.45-.16.76-.49a2 2 0 0 0 .49-.76q.22-.43.2-.9l-.08-.63a2.4 2.4 0 0 0-.6-1.04l-.48-.35a2.3 2.3 0 0 0-1.19-.33 2 2 0 0 0-.9.2 2 2 0 0 0-.76.5 2.6 2.6 0 0 0-.7 1.65l.07.63q.17.6.61 1.04l.48.37q.55.31 1.18.32zm10.21-6.97q.38.01.7-.16.35-.11.59-.37a1.3 1.3 0 0 0 .37-.58 1.4 1.4 0 0 0 .16-.7l-.06-.5a2 2 0 0 0-.47-.8l-.35-.27a2 2 0 0 0-.91-.25 1.4 1.4 0 0 0-.7.15 1.4 1.4 0 0 0-.6.38 1.4 1.4 0 0 0-.37.58 1.4 1.4 0 0 0-.15.7l.06.48q.13.46.46.8l.36.29q.42.24.9.25zm9.72 5.95c2.15 0 2.16-3.35 0-3.35s-2.16 3.34 0 3.34M86.35 73.94q.5.02.94-.2a2.2 2.2 0 0 0 1.31-1.3 2 2 0 0 0 .21-.93l-.09-.65a2.4 2.4 0 0 0-.62-1.07l-.5-.38a2.4 2.4 0 0 0-1.22-.36 2 2 0 0 0-.94.21 2.5 2.5 0 0 0-1.5 2.22l.09.65q.16.62.62 1.08l.5.38q.57.33 1.22.33zm28.28-10.31c1.76 0 1.77-2.76 0-2.76s-1.78 2.75 0 2.76m-10.81 14.82.1-.2q.17-.26.18-.58a1.4 1.4 0 0 0-.3-1.17 1 1 0 0 0-.45-.41l-.38-.16a1.6 1.6 0 0 0-.84 0l-.38.16a1.6 1.6 0 0 0-.57.57l-.1.19a1 1 0 0 0-.19.59 1.4 1.4 0 0 0 .31 1.17q.17.26.45.4l.38.17q.41.1.84 0l.38-.16a1.6 1.6 0 0 0 .57-.57m-6.91-7.27c1.76 0 1.78-2.75 0-2.76s-1.78 2.75 0 2.76m15.05-36.74c2.16 0 2.16-3.35 0-3.35s-2.16 3.35 0 3.35m-10.42 6.97c1.73 0 1.74-2.7 0-2.7s-1.74 2.7 0 2.7m-9.3-13.77c3.51 0 3.51-5.48 0-5.48s-3.55 5.47 0 5.48M76.4 30.3q.56.03 1.06-.24a2.5 2.5 0 0 0 1.44-1.44q.27-.5.24-1.06l-.1-.72a3 3 0 0 0-.7-1.22l-.55-.43a2.7 2.7 0 0 0-1.39-.37 2 2 0 0 0-1.05.23q-.52.17-.88.57-.4.36-.57.88-.26.5-.24 1.06l.1.73q.2.69.7 1.2l.56.44a3 3 0 0 0 1.38.37m3.39-6.7a1.5 1.5 0 0 0 .75-.17 1.8 1.8 0 0 0 1.06-1.04q.18-.36.17-.76l-.07-.52a2 2 0 0 0-.5-.87l-.4-.3a2 2 0 0 0-1-.28 2.2 2.2 0 0 0-1.39.57 1.5 1.5 0 0 0-.4.64 1.5 1.5 0 0 0-.18.76l.07.52a2 2 0 0 0 .5.87l.4.31q.46.26.99.27m28.94-2.78c3.26 0 3.27-5.06 0-5.06s-3.28 5.06 0 5.06m-4.1 31.1c2.9 0 2.92-4.54 0-4.54-2.93 0-2.93 4.53 0 4.54m10.95-4c2.95 0 2.96-4.59 0-4.59s-2.97 4.58 0 4.58m-35.2 30.05c1.68 0 1.69-2.6 0-2.6s-1.68 2.6 0 2.6m-10.25-9.5a2.5 2.5 0 0 0 1.58-.65 1.6 1.6 0 0 0 .46-.7q.23-.41.22-.88l-.08-.6a2 2 0 0 0-.58-.98l-.45-.35a2.3 2.3 0 0 0-1.13-.31 2 2 0 0 0-.86.19 2 2 0 0 0-.7.46c-.4.43-.63 1-.66 1.58l.08.6q.16.56.57.99l.46.35q.52.3 1.13.3zm-4.17-15.15a2.2 2.2 0 0 0 1.38-.57q.29-.26.4-.63.19-.35.18-.75l-.08-.52a2 2 0 0 0-.5-.87l-.39-.3q-.46-.27-.99-.27A2 2 0 0 0 64 51.35l.07.52q.15.5.5.87l.4.3q.46.27.99.27m12.06-9c1.72 0 1.73-2.65 0-2.66-1.72 0-1.72 2.67 0 2.67m10.92 2.72.46-.35q.23-.22.39-.5l.23-.55.08-.62a2 2 0 0 0-.2-.9 2.4 2.4 0 0 0-.7-.93 1 1 0 0 0-.51-.3 1 1 0 0 0-.59-.15 2 2 0 0 0-.92.04l-.56.23-.47.35-.36.47-.23.55-.09.62q0 .48.2.9.09.3.3.52.25.37.65.6l-.46-.36.02.02-.35-.46c.3.5.78.87 1.34 1.06l.6.08q.61 0 1.14-.3zM72.35 36.8c2.28 0 2.3-3.55 0-3.55s-2.3 3.55 0 3.55m17.19-17.11c2.16 0 2.16-3.35 0-3.35s-2.16 3.34 0 3.35M66.92 34.42h.06a1.1 1.1 0 0 0 1.06-.28 1 1 0 0 0 .23-.35 1 1 0 0 0 .09-.42q0-.14-.04-.29a1.1 1.1 0 0 0-.77-.76 1 1 0 0 0-.56 0h-.06l-.26.11a1 1 0 0 0-.3.28l-.14.23a1 1 0 0 0-.1.42q.01.15.04.29c0 .1.07.17.1.26q.25.35.65.5zm-2.56 5.31a1 1 0 0 0 .52-.11 1 1 0 0 0 .44-.28q.2-.18.28-.44a1 1 0 0 0 .11-.51q-.01-.2-.05-.36a1.3 1.3 0 0 0-.35-.6l-.27-.2a1.3 1.3 0 0 0-.68-.19 1 1 0 0 0-.52.12 1 1 0 0 0-.44.28 1 1 0 0 0-.27.43 1 1 0 0 0-.12.52q.01.18.05.35.1.34.35.6l.27.2q.31.2.68.2zm30.66 26.34c1.66 0 1.66-2.57 0-2.57s-1.67 2.57 0 2.57M76.65 51.41c1.96 0 1.97-3.04 0-3.05s-1.98 3.05 0 3.05m31.62 8.63a1 1 0 0 0 .51-.12 1.2 1.2 0 0 0 .7-.7 1 1 0 0 0 .12-.51l-.05-.36a1.4 1.4 0 0 0-.35-.58l-.27-.2a1.3 1.3 0 0 0-.66-.18 1 1 0 0 0-.5.1 1 1 0 0 0-.43.28 1 1 0 0 0-.28.42 1 1 0 0 0-.1.51q0 .18.04.35.1.34.35.58l.27.21q.3.18.66.18zm-9.55-33.56c1.34 0 1.34-2.07 0-2.07s-1.34 2.07 0 2.07M111.5 70.9c1.73 0 1.74-2.7 0-2.7s-1.74 2.7 0 2.7M96.38 56.05c2.5 0 2.5-3.88 0-3.88s-2.5 3.88 0 3.88M82.04 67.93c1.27 0 1.28-1.99 0-1.99s-1.29 1.99 0 1.99m-.2-14.74a1 1 0 0 0-.33-.05 1 1 0 0 0-.32.05l-.29.12a1.3 1.3 0 0 0-.56.7l-.04.33a1 1 0 0 0 .1.47 1 1 0 0 0 .25.39l.25.19a1 1 0 0 0 .61.16l.32-.04q.46-.16.73-.55l.12-.3a1 1 0 0 0 .02-.48 1 1 0 0 0-.14-.45l-.19-.25a1 1 0 0 0-.53-.31zm5.65-20.01q.5-.02.89-.35a1 1 0 0 0 .26-.4 1 1 0 0 0 .11-.5l-.04-.35q-.09-.31-.33-.55l-.25-.2a1.3 1.3 0 0 0-.64-.17 1 1 0 0 0-.48.1 1.3 1.3 0 0 0-.78 1.16l.05.33q.1.32.32.56l.25.2q.3.16.64.17m20.54-4.16q.36 0 .68-.15a1.8 1.8 0 0 0 1.08-1.6l-.07-.46a2 2 0 0 0-.44-.78l-.36-.27a2 2 0 0 0-.88-.24 1.4 1.4 0 0 0-.67.15 1.3 1.3 0 0 0-.57.35 1.3 1.3 0 0 0-.35.57 1.3 1.3 0 0 0-.15.67l.06.46q.13.45.45.78l.35.27q.41.24.89.24z" opacity=".5" style="mix-blend-mode:multiply"/><path fill="#F9EDCD" d="M98.63 80.61a6 6 0 0 1-2.2-.35 5.7 5.7 0 0 1-3.37-3.6 5.67 5.67 0 0 1 3.37-6.99 6 6 0 0 1 2.2-.35 5.8 5.8 0 0 0-3.9 1.76 5.6 5.6 0 0 0 0 7.8 5.8 5.8 0 0 0 3.9 1.73m0-11.29a6 6 0 0 1 2.2.35 5.7 5.7 0 0 1 3.6 5.29 5.7 5.7 0 0 1-3.6 5.28 6 6 0 0 1-2.2.35 5.8 5.8 0 0 0 3.9-1.76 5.6 5.6 0 0 0 0-7.79 5.8 5.8 0 0 0-3.9-1.72" style="mix-blend-mode:screen"/><path fill="#F9EDCD" d="M95.55 77.57a4 4 0 0 1-.84-1.35 4 4 0 0 1-.23-1.6 4.07 4.07 0 0 1 6.04-3.3q.7.41 1.19 1.06a4.2 4.2 0 0 0-2.75-1.28 4 4 0 0 0-4.21 3.55 4.2 4.2 0 0 0 .8 2.92" style="mix-blend-mode:screen"/><path fill="#F9EDCD" d="M101.7 72.37q.56.58.85 1.35a4.07 4.07 0 0 1-4.27 5.4 4 4 0 0 1-1.54-.5 4 4 0 0 1-1.19-1.05 4.2 4.2 0 0 0 2.75 1.28 4 4 0 0 0 4.2-3.56 4.2 4.2 0 0 0-.8-2.92" style="mix-blend-mode:screen"/><path fill="#F9EDCD" d="M96.59 76.84a2.7 2.7 0 0 1-.86-2 2.8 2.8 0 0 1 3.02-2.77 2.7 2.7 0 0 1 1.91 1.03 3 3 0 0 0-1.92-.76A2.73 2.73 0 0 0 96 74.85c-.05.71.16 1.42.59 1.99m4.08-3.74a2.7 2.7 0 0 1 .86 2 2.8 2.8 0 0 1-.91 2.03 2.8 2.8 0 0 1-2.12.74 2.7 2.7 0 0 1-1.9-1.04 3 3 0 0 0 1.92.76 2.74 2.74 0 0 0 2.74-2.51 3 3 0 0 0-.6-1.98" style="mix-blend-mode:screen"/><path fill="#F9EDCD" d="M97.43 76.07a1.5 1.5 0 0 1-.56-1.18 1.7 1.7 0 0 1 1.84-1.69 1.5 1.5 0 0 1 1.12.67 1.8 1.8 0 0 0-1.13-.4 1.6 1.6 0 0 0-1.56 1.42 1.8 1.8 0 0 0 .29 1.18" style="mix-blend-mode:screen"/><path fill="#F9EDCD" d="M99.83 73.86a1.5 1.5 0 0 1 .56 1.18 1.7 1.7 0 0 1-1.14 1.61q-.34.1-.7.08a1.5 1.5 0 0 1-1.12-.66 1.8 1.8 0 0 0 1.13.39 1.6 1.6 0 0 0 1.56-1.43 1.8 1.8 0 0 0-.29-1.17" style="mix-blend-mode:screen"/><path fill="#A26BAF" d="M80.35 60.65a7.94 7.94 0 1 0-13.27-8.73 7.94 7.94 0 0 0 13.27 8.73"/><path fill="#F9EDCD" d="M78.68 61.26a7.04 7.04 0 1 0-9.95-9.95 7.04 7.04 0 0 0 9.95 9.95"/><path fill="#F9EDCD" d="M73.71 61.93a6 6 0 0 1-2.2-.35 5.67 5.67 0 0 1 0-10.59 6 6 0 0 1 2.2-.35 5.8 5.8 0 0 0-3.9 1.76 5.6 5.6 0 0 0 0 7.8 5.8 5.8 0 0 0 3.9 1.73m0-11.29a6 6 0 0 1 2.2.35 5.68 5.68 0 0 1 0 10.6 6 6 0 0 1-2.2.35 5.8 5.8 0 0 0 3.9-1.77 5.6 5.6 0 0 0 0-7.79 5.8 5.8 0 0 0-3.9-1.74" style="mix-blend-mode:screen"/><path fill="#F9EDCD" d="M70.63 58.89a4 4 0 0 1-.84-1.35 4.06 4.06 0 0 1 5.8-4.9q.7.4 1.2 1.05a4.2 4.2 0 0 0-2.76-1.28 4 4 0 0 0-4.2 3.55 4.2 4.2 0 0 0 .8 2.93" style="mix-blend-mode:screen"/><path fill="#F9EDCD" d="M76.79 53.68q.56.6.84 1.36a4.05 4.05 0 0 1-1.2 4.46 4 4 0 0 1-3.07.94 4 4 0 0 1-1.53-.5 4 4 0 0 1-1.2-1.05 4.2 4.2 0 0 0 2.76 1.28 4 4 0 0 0 4.2-3.56 4.2 4.2 0 0 0-.8-2.93" style="mix-blend-mode:screen"/><path fill="#F9EDCD" d="M71.68 58.14a2.7 2.7 0 0 1-.86-2 2.8 2.8 0 0 1 3.03-2.77 2.7 2.7 0 0 1 1.91 1.03 3 3 0 0 0-1.92-.75 2.73 2.73 0 0 0-2.74 2.5 3 3 0 0 0 .58 1.99m4.07-3.72a2.7 2.7 0 0 1 .87 2 2.8 2.8 0 0 1-3.02 2.77 2.7 2.7 0 0 1-1.9-1.05 3 3 0 0 0 1.91.76 2.73 2.73 0 0 0 2.75-2.51 3 3 0 0 0-.6-1.97" style="mix-blend-mode:screen"/><path fill="#F9EDCD" d="M72.5 57.38a1.5 1.5 0 0 1-.55-1.17 1.7 1.7 0 0 1 .54-1.26 1.7 1.7 0 0 1 1.3-.43 1.5 1.5 0 0 1 1.12.66 1.8 1.8 0 0 0-1.14-.39 1.6 1.6 0 0 0-1.55 1.41c-.05.42.06.84.29 1.18m2.4-2.2a1.5 1.5 0 0 1 .56 1.18 1.7 1.7 0 0 1-1.84 1.7 1.5 1.5 0 0 1-1.12-.67q.5.38 1.13.39a1.6 1.6 0 0 0 1.56-1.43 1.8 1.8 0 0 0-.3-1.17" style="mix-blend-mode:screen"/><path fill="#A26BAF" d="M97.32 30.77a7.94 7.94 0 0 0 7.94-7.94 7.94 7.94 0 1 0-15.88 0 7.94 7.94 0 0 0 7.94 7.94"/><path fill="#F9EDCD" d="M100.04 29.32a7.04 7.04 0 1 0-5.45-12.97 7.04 7.04 0 0 0 5.45 12.97"/><path fill="#F9EDCD" d="M97.32 28.48a6 6 0 0 1-2.2-.35 5.68 5.68 0 0 1 0-10.6 6 6 0 0 1 2.2-.35 5.8 5.8 0 0 0-3.9 1.77 5.6 5.6 0 0 0 0 7.79 5.8 5.8 0 0 0 3.9 1.74" style="mix-blend-mode:screen"/><path fill="#F9EDCD" d="M97.32 17.19a6 6 0 0 1 2.19.35 5.7 5.7 0 0 1 3.63 5.3 5.7 5.7 0 0 1-3.63 5.3 6 6 0 0 1-2.2.34 5.8 5.8 0 0 0 3.9-1.76 5.6 5.6 0 0 0 0-7.8 5.8 5.8 0 0 0-3.9-1.73" style="mix-blend-mode:screen"/><path fill="#F9EDCD" d="M94.23 25.43a4 4 0 0 1-.84-1.35 4.05 4.05 0 0 1 1.2-4.46 4 4 0 0 1 3.07-.94q.82.1 1.54.5.7.4 1.19 1.05a4.2 4.2 0 0 0-2.75-1.28 4 4 0 0 0-4.21 3.56 4.2 4.2 0 0 0 .8 2.92m6.17-5.2a4 4 0 0 1 .84 1.36q.27.76.23 1.6a4 4 0 0 1-1.43 2.86 4 4 0 0 1-3.06.94 4 4 0 0 1-1.54-.5 4 4 0 0 1-1.2-1.05A4.2 4.2 0 0 0 97 26.72a4 4 0 0 0 4.2-3.56 4.2 4.2 0 0 0-.8-2.92" style="mix-blend-mode:screen"/><path fill="#F9EDCD" d="M95.3 24.7a2.6 2.6 0 0 1-.87-2 2.8 2.8 0 0 1 3.03-2.76 2.7 2.7 0 0 1 1.9 1.03 3 3 0 0 0-1.91-.76 2.73 2.73 0 0 0-2.75 2.51 3 3 0 0 0 .6 1.98" style="mix-blend-mode:screen"/><path fill="#F9EDCD" d="M99.36 20.97a2.7 2.7 0 0 1 .86 2 2.8 2.8 0 0 1-3.03 2.76 2.6 2.6 0 0 1-1.91-1.03 3 3 0 0 0 1.92.76 2.73 2.73 0 0 0 2.74-2.51 3 3 0 0 0-.58-1.98" style="mix-blend-mode:screen"/><path fill="#F9EDCD" d="M96.12 23.94a1.5 1.5 0 0 1-.56-1.18 1.7 1.7 0 0 1 1.14-1.61q.33-.12.7-.08a1.5 1.5 0 0 1 1.12.67 1.8 1.8 0 0 0-1.13-.4 1.6 1.6 0 0 0-1.56 1.41 1.8 1.8 0 0 0 .29 1.19" style="mix-blend-mode:screen"/><path fill="#F9EDCD" d="M98.52 21.73a1.5 1.5 0 0 1 .56 1.18 1.7 1.7 0 0 1-1.84 1.69 1.5 1.5 0 0 1-1.12-.66q.5.38 1.13.38a1.6 1.6 0 0 0 1.56-1.4 1.8 1.8 0 0 0-.3-1.19" style="mix-blend-mode:screen"/><path fill="#E8962A" d="M111.95 68.41v-4.34l2.72-.51 2.43 3.01zM97.6 32.91v-4.34l2.72-.51 2.43 3.01zm3.55-12.8v-4.34l2.72-.5 2.42 3zM70.2 35.07l4.04 1.61-.54 2.72-3.7 1.14zM86.05 58.8l4.04 1.61-.54 2.72-3.7 1.13zm26.6 16.32 4.05 1.61-.54 2.72-3.7 1.14zm-48.1-19.41 4.03 1.6-.53 2.72-3.7 1.14zm46.87-20.48 4.04 1.61-.54 2.72-3.7 1.14z" opacity=".5" style="mix-blend-mode:screen"/></svg>