<svg xmlns="http://www.w3.org/2000/svg" width="114" height="76" fill="none"><g clip-path="url(#a)"><path fill="#96AA37" d="M45.157 29.304c-1.12-1.041-2.26-3.007-3.11-6.595 0 0 4.591.867 6.651 3.135 2.103 2.315-1.251 5.59-3.541 3.46"/><path stroke="#1D2424" stroke-linecap="round" stroke-linejoin="round" stroke-miterlimit="10" stroke-width=".2" d="M42.047 22.709s3.726 5.203 6.466 6.59"/><path stroke="#1D2424" stroke-linecap="round" stroke-linejoin="round" stroke-miterlimit="10" stroke-width=".2" d="M47.74 25s-.27 1.413-.84 3.177m-3.174-.783s1.483.089 2.158-.154m-1.574-1.69s.064-1.227-.186-2.286"/><path fill="#F0A636" d="M42.965 32.19s-1.664 4.244-5.276 4.442c0 0 .165-3.466 5.276-4.441"/><path stroke="#1D2424" stroke-linecap="round" stroke-linejoin="round" stroke-miterlimit="10" stroke-width=".2" d="m42.965 32.19-5.276 4.442"/><path fill="#F0A636" d="M103.452 31.55s2.684-2.184 5.146-.966c0 0-1.403 2.23-5.146.966"/><path stroke="#1D2424" stroke-linecap="round" stroke-linejoin="round" stroke-miterlimit="10" stroke-width=".2" d="m103.452 31.55 5.146-.966m-2.361 2.224s-1.116.245-2.519-.192m-1.042-.678-.906.053m-58.632-3.655s1.346 2.932 4.76 3.196m-3.912 1.63s-.81 1.928-1.979 2.73m55.297-25.835h1.11m.001.613h3.574m2.645 41.752h4.075m-3.314.888h.8m-1.011 1.073h2.239M81.506 2.381h3.638M83.35 1.01h-1.265"/><path fill="#EF5252" d="M111.236 43.18 87.443 20.89l-1.419 6.766 25.212 23.041z"/><path fill="#EF5252" d="M114.409 13.213 87.36 14.226 66.551 62.019l4.485 3.462L91.27 21.22l23.139-.479z"/><path stroke="#1D2424" stroke-linecap="round" stroke-linejoin="round" stroke-miterlimit="10" stroke-width=".2" d="M90.48 36.263s-6.471-5.248-13.787-6.645"/><path fill="#EF5252" d="M75.779 8.226s-1.032-2.702 2.456-4.373c3.488-1.67.087-6.288-3.911-3.095s-3.851 7.664-3.31 10.17c.54 2.505 5.02 9.746 13.539 9.746s2.807-6.448 2.807-6.448-9.027 1.32-11.581-6"/><path fill="#CE3232" d="m95.191 13.933-9.61.385-4.743 5.866s1.766.497 3.715.49c0 0 6.635-.235 10.638-6.741m-4.999 9.532-2.555 5.665L90 31.288s2.659-.365 4.255-4.017z"/><path stroke="#1D2424" stroke-linecap="round" stroke-linejoin="round" stroke-miterlimit="10" stroke-width=".2" d="m90.48 22.827-4.062 9.007"/><path fill="#CE3232" d="m82.925 39.474-5.365-2.74-2.585 5.938s2.695-.056 5.35 2.49z"/><path fill="#1D2424" d="M68.426 33.517h.724v60.455h-.724z"/><path fill="#1D2424" d="M38.56 64.106v-.724h60.456v.724z"/><path fill="#1D2424" d="m47.158 42.625.511-.511 42.748 42.748-.511.511z"/><path fill="#1D2424" d="m47.669 85.374-.512-.511 42.748-42.748.512.511z"/><path fill="#1D2424" d="m56.532 36.107.665-.285 23.844 55.552-.665.286z"/><path fill="#1D2424" d="m41.15 76-.285-.665 55.553-23.844.285.665z"/><path fill="#1D2424" d="m40.582 52.871.268-.672 56.146 22.423-.269.672z"/><path fill="#1D2424" d="m57.915 91.95-.671-.267 22.423-56.145.671.268z"/><path fill="#1D2424" d="m62.596 34.157.71-.14L74.98 93.336l-.71.14z"/><path fill="#1D2424" d="m39.2 69.936-.14-.71 59.32-11.674.14.71z"/><path fill="#1D2424" d="m43.483 47.2.403-.6 50.196 33.692-.403.6z"/><path fill="#1D2424" d="m52.244 89.048-.6-.404 33.69-50.196.602.404z"/><path fill="#1D2424" d="m51.429 39 .597-.408 34.127 49.906-.597.409z"/><path fill="#1D2424" d="m44.04 81.106-.409-.597 49.906-34.12.408.596z"/><path fill="#1D2424" d="m39.01 58.522.134-.712L98.56 68.97l-.134.712z"/><path fill="#1D2424" d="m63.563 93.52-.71-.133 11.16-59.416.71.134z"/><path fill="#5DAEDA" d="M68.788 98.77c19.313 0 35.025-15.713 35.025-35.026S88.101 28.72 68.788 28.72 33.763 44.43 33.763 63.744 49.475 98.77 68.788 98.77m0-65.93c17.04 0 30.904 13.864 30.904 30.904S85.829 94.648 68.788 94.648c-17.04 0-30.904-13.863-30.904-30.904 0-17.04 13.863-30.904 30.904-30.904"/><path fill="#CB8F8F" d="M68.788 96.545c18.086 0 32.801-14.714 32.801-32.8 0-18.087-14.715-32.802-32.801-32.802S35.987 45.658 35.987 63.744s14.714 32.801 32.8 32.801m0-61.48c15.814 0 28.68 12.865 28.68 28.68s-12.866 28.68-28.68 28.68-28.68-12.866-28.68-28.68 12.866-28.68 28.68-28.68"/><path fill="#1D2424" d="M68.788 94.955c17.21 0 31.21-14 31.21-31.21s-14-31.211-31.21-31.211-31.21 14-31.21 31.21 14 31.211 31.21 31.211m0-58.3c14.937 0 27.09 12.152 27.09 27.09 0 14.937-12.153 27.089-27.09 27.089s-27.09-12.152-27.09-27.09c0-14.937 12.153-27.09 27.09-27.09"/><path fill="#1D2424" d="M68.788 94.955c17.21 0 31.21-14.001 31.21-31.211s-14-31.21-31.21-31.21-31.21 14-31.21 31.21 14 31.21 31.21 31.21m0-58.3c14.937 0 27.09 12.152 27.09 27.089s-12.153 27.09-27.09 27.09-27.09-12.153-27.09-27.09 12.153-27.09 27.09-27.09"/><path fill="#EF5252" d="M64.662 67.871a5.836 5.836 0 1 1 8.253-8.254 5.836 5.836 0 0 1-8.253 8.254"/><path fill="#CB8F8F" d="M66.034 64.416a2.835 2.835 0 1 1 5.515-1.313 2.835 2.835 0 0 1-5.516 1.313"/><path fill="#FFAE71" d="M88.04 15.76s-2.7 3.496-6.516 5.137c-3.816 1.642-5.635 3.24-6.611.266 0 0-2.263 1.864-3.283-1.286 0 0-1.73 1.286-2.263-2.796 0 0-1.864-.976-2.307-2.484-.444-1.509 1.42-3.638 2.13-4.88.71-1.243 4.037-2.175 5.9-2.308s2.352 1.287 3.683 1.42 3.51.168 3.51.168.603 2.512 5.757 6.762"/><path fill="#D88A55" d="M82.283 8.997s.603 2.512 5.756 6.762c0 0-2.7 3.497-6.515 5.138 0 0 1.856-4.775.759-11.9m-7.37 12.166s-.231-.513-.59-1.484c0 0-.55 1.407-1.178 1.995 0 0 .818.236 1.768-.51M71.63 17.07v2.807s-.797.639-1.473-.3c0 0 1.12-1.024 1.473-2.507m-2.03-2.913s-.624 1.517-1.725 1.775c0 0 .842.885 1.492 1.15 0 0 .223-2.284.233-2.925"/><path stroke="#1D2424" stroke-linecap="round" stroke-linejoin="round" stroke-miterlimit="10" stroke-width=".2" d="M74.913 21.163s-.254-.388-.59-1.484m-2.693.198s.033-1.68 0-2.807m-2.263.012s.143-1.786.215-2.65 0-1.343 0-1.343"/><path fill="#5DAEDA" d="M102.707-22c-8.503 7.022-6.71 8.845-9.204 13.352-2.493 4.507-11.22 17.645-11.22 17.645s1.302 4.035 6.521 7.288c0 0 14.96-13.617 23.016-23.495s8.448-8.449 8.448-8.449-9.057-13.363-17.561-6.341"/><path fill="#3D97BF" d="M115.017-23.903c.814 5.582.577 12.064-3.197 16.693-8.056 9.878-23.016 23.495-23.016 23.495-2.12-1.32-3.593-2.77-4.596-4.027 0 0 27.063-21.467 30.809-36.16"/><path stroke="#1D2424" stroke-linecap="round" stroke-linejoin="round" stroke-miterlimit="10" stroke-width=".2" d="M84.209 6.078s2.173 4.089 7.627 7.391m-1.812-1.206-2.748 2.851m-.389-5.578-2.549 2.882m.467-5.397-2.31 2.515"/></g><defs><clipPath id="a"><path fill="#fff" d="M0 0h114v76H0z"/></clipPath></defs></svg>