<svg xmlns="http://www.w3.org/2000/svg" width="114" height="76" fill="none"><g clip-path="url(#a)"><path fill="#96AA37" d="M45.16 29.3c-1.12-1.04-2.26-3-3.11-6.6 0 0 4.59.88 6.65 3.14 2.1 2.32-1.25 5.6-3.54 3.46"/><path stroke="#1D2424" stroke-linecap="round" stroke-linejoin="round" stroke-miterlimit="10" stroke-width=".2" d="M42.05 22.7s3.72 5.21 6.46 6.6"/><path stroke="#1D2424" stroke-linecap="round" stroke-linejoin="round" stroke-miterlimit="10" stroke-width=".2" d="M47.74 25s-.27 1.41-.84 3.18m-3.17-.79s1.48.1 2.15-.15m-1.57-1.69s.06-1.23-.19-2.29"/><path fill="#F0A636" d="M42.97 32.19s-1.67 4.24-5.28 4.44c0 0 .16-3.46 5.28-4.44"/><path stroke="#1D2424" stroke-linecap="round" stroke-linejoin="round" stroke-miterlimit="10" stroke-width=".2" d="m42.97 32.19-5.28 4.44"/><path fill="#F0A636" d="M103.45 31.55s2.69-2.18 5.15-.97c0 0-1.4 2.23-5.15.97"/><path stroke="#1D2424" stroke-linecap="round" stroke-linejoin="round" stroke-miterlimit="10" stroke-width=".2" d="m103.45 31.55 5.15-.97m-2.36 2.23s-1.12.24-2.52-.2m-1.04-.67-.91.05m-58.63-3.65s1.34 2.93 4.76 3.2m-3.91 1.62S43.18 35.1 42 35.9m55.3-25.83h1.1m0 .61h3.6m2.64 41.75h4.08m-3.32.89h.8m-1 1.07h2.23m-25.91-52h3.63m-1.79-1.37H82.1"/><path fill="#EF5252" d="m111.24 43.18-23.8-22.29-1.42 6.77 25.22 23.04z"/><path fill="#EF5252" d="m114.4 13.21-27.04 1.02-20.8 47.79 4.48 3.46 20.23-44.26 23.14-.48z"/><path stroke="#1D2424" stroke-linecap="round" stroke-linejoin="round" stroke-miterlimit="10" stroke-width=".2" d="M90.48 36.26s-6.47-5.24-13.79-6.64"/><path fill="#EF5252" d="M75.78 8.23s-1.03-2.7 2.45-4.38c3.5-1.67.1-6.28-3.9-3.1S70.46 8.43 71 10.94s5.02 9.74 13.54 9.74 2.81-6.44 2.81-6.44-9.03 1.32-11.58-6"/><path fill="#CE3232" d="m95.2 13.93-9.62.39-4.74 5.86s1.76.5 3.71.5c0 0 6.64-.24 10.64-6.75m-5 9.53-2.55 5.67L90 31.29s2.66-.37 4.26-4.02z"/><path stroke="#1D2424" stroke-linecap="round" stroke-linejoin="round" stroke-miterlimit="10" stroke-width=".2" d="m90.48 22.83-4.06 9"/><path fill="#CE3232" d="m82.93 39.47-5.37-2.74-2.58 5.94s2.69-.05 5.35 2.5z"/><path fill="#1D2424" d="M68.43 33.52h.72v60.45h-.72z"/><path fill="#1D2424" d="M38.56 64.1v-.72h60.46v.73z"/><path fill="#1D2424" d="m47.16 42.63.5-.52 42.76 42.75-.51.51z"/><path fill="#1D2424" d="m47.67 85.37-.51-.5L89.9 42.11l.5.5z"/><path fill="#1D2424" d="m56.53 36.1.67-.28 23.84 55.55-.66.29z"/><path fill="#1D2424" d="m41.15 76-.28-.66 55.55-23.85.28.67z"/><path fill="#1D2424" d="m40.58 52.87.27-.67L97 74.62l-.27.67z"/><path fill="#1D2424" d="m57.92 91.95-.68-.27 22.43-56.14.67.27z"/><path fill="#1D2424" d="m62.6 34.16.7-.14 11.68 59.32-.71.14z"/><path fill="#1D2424" d="m39.2 69.94-.14-.71 59.32-11.68.14.71z"/><path fill="#1D2424" d="m43.48 47.2.4-.6 50.2 33.7-.4.6z"/><path fill="#1D2424" d="m52.24 89.05-.6-.4 33.7-50.2.6.4z"/><path fill="#1D2424" d="m51.43 39 .6-.4 34.12 49.9-.6.4z"/><path fill="#1D2424" d="m44.04 81.1-.4-.6 49.9-34.11.4.6z"/><path fill="#1D2424" d="m39.01 58.52.13-.71 59.42 11.16-.13.71z"/><path fill="#1D2424" d="m63.56 93.52-.7-.13L74 33.97l.71.14z"/><path fill="#5DAEDA" d="M68.79 98.77c19.31 0 35.02-15.71 35.02-35.03S88.11 28.72 68.8 28.72 33.76 44.43 33.76 63.74 49.48 98.77 68.8 98.77m0-65.93c17.04 0 30.9 13.86 30.9 30.9s-13.86 30.9-30.9 30.9a30.94 30.94 0 0 1-30.9-30.9 30.94 30.94 0 0 1 30.9-30.9"/><path fill="#CB8F8F" d="M68.79 96.55a32.84 32.84 0 0 0 32.8-32.8c0-18.1-14.72-32.8-32.8-32.8s-32.8 14.7-32.8 32.8 14.71 32.8 32.8 32.8m0-61.48c15.81 0 28.68 12.86 28.68 28.68S84.6 92.43 68.79 92.43 40.1 79.56 40.1 63.75s12.86-28.68 28.68-28.68"/><path fill="#1D2424" d="M68.79 94.96c17.2 0 31.2-14 31.2-31.21S86 32.53 68.8 32.53s-31.21 14-31.21 31.21 14 31.21 31.2 31.21m0-58.3a27.1 27.1 0 0 1 27.1 27.1c0 14.93-12.16 27.08-27.1 27.08S41.7 78.68 41.7 63.74a27.1 27.1 0 0 1 27.09-27.09"/><path fill="#1D2424" d="M68.79 94.96c17.2 0 31.2-14 31.2-31.22s-14-31.2-31.2-31.2-31.21 14-31.21 31.2 14 31.21 31.2 31.21m0-58.3c14.94 0 27.1 12.16 27.1 27.1s-12.16 27.08-27.1 27.08S41.7 78.68 41.7 63.74s12.15-27.09 27.09-27.09"/><path fill="#EF5252" d="M64.66 67.87a5.84 5.84 0 1 1 8.26-8.25 5.84 5.84 0 0 1-8.26 8.25"/><path fill="#CB8F8F" d="M66.03 64.42a2.84 2.84 0 1 1 5.52-1.32 2.84 2.84 0 0 1-5.52 1.32"/><path fill="#FFAE71" d="M88.04 15.76s-2.7 3.5-6.52 5.14-5.63 3.24-6.6.26c0 0-2.27 1.87-3.29-1.28 0 0-1.73 1.28-2.26-2.8 0 0-1.87-.98-2.31-2.48-.44-1.51 1.42-3.64 2.13-4.88.71-1.25 4.04-2.18 5.9-2.31s2.35 1.29 3.68 1.42 3.51.17 3.51.17.6 2.5 5.76 6.76"/><path fill="#D88A55" d="M82.28 9s.6 2.5 5.76 6.76c0 0-2.7 3.5-6.52 5.14 0 0 1.86-4.78.76-11.9m-7.37 12.16s-.23-.51-.59-1.48c0 0-.55 1.4-1.17 2 0 0 .81.23 1.76-.52m-3.28-4.09v2.8s-.8.65-1.47-.3c0 0 1.12-1.02 1.47-2.5m-2.03-2.91s-.62 1.51-1.72 1.77c0 0 .84.89 1.49 1.15 0 0 .22-2.28.23-2.92"/><path stroke="#1D2424" stroke-linecap="round" stroke-linejoin="round" stroke-miterlimit="10" stroke-width=".2" d="M74.91 21.16s-.25-.38-.59-1.48m-2.69.2s.03-1.68 0-2.81m-2.26.01.21-2.65c.07-.87 0-1.34 0-1.34"/><path fill="#5DAEDA" d="M102.7-22c-8.5 7.02-6.7 8.85-9.2 13.35S82.28 9 82.28 9s1.3 4.03 6.52 7.29c0 0 14.96-13.62 23.02-23.5s8.45-8.45 8.45-8.45S111.2-29.02 102.7-22"/><path fill="#3D97BF" d="M115.02-23.9c.81 5.58.57 12.06-3.2 16.69-8.06 9.88-23.02 23.5-23.02 23.5a18 18 0 0 1-4.6-4.03s27.07-21.47 30.82-36.16"/><path stroke="#1D2424" stroke-linecap="round" stroke-linejoin="round" stroke-miterlimit="10" stroke-width=".2" d="M84.2 6.08s2.18 4.09 7.64 7.39m-1.82-1.2-2.74 2.84m-.4-5.57-2.54 2.88m.46-5.4-2.3 2.52"/></g><defs><clipPath id="a"><path fill="#fff" d="M0 0h114v76H0z"/></clipPath></defs></svg>