<svg xmlns="http://www.w3.org/2000/svg" width="114" height="76" fill="none"><g clip-path="url(#a)"><path fill="#7F97C3" d="M106.652 36.601c.454.56.645 1.3.451 1.997l-5.721 20.438c-.52 1.858-3.138 4.466-3.39 5.368-.34 1.211.471 4.078.044 5.603-.584 2.087-4.15 5.8-4.15 5.8-.878 3.142-1.577 4.99-2.203 6.044l.422-.097-.934.813c-.126.137-.25.242-.373.324l-.011.01v-.003c-.613.405-1.204.189-1.898-.06-1.675-.6-2.763-.956-.51-9.006 0 0-1.025-5.36-.44-7.447.426-1.526 2.547-3.34 2.886-4.551.253-.902-.561-4.74-.041-6.599l5.72-20.438c.312-1.113 1.492-1.676 2.647-1.262l3.216 1.153 3.214 1.153a2.44 2.44 0 0 1 1.071.76"/><path fill="#373F5E" d="M125.094 14.786c1.469 1.635 2.243 3.792 1.894 5.806l-3.78 21.848a4.9 4.9 0 0 1-.723 1.87l.393-.119-.994.856a4.6 4.6 0 0 1-.519.447l-.002.001c-1.375 1.01-3.335 1.277-5.369.538l-7.973-2.86-14.595-5.234-7.973-2.859c-3.438-1.233-5.253-4.64-4.07-7.64l8.024-20.324a5.4 5.4 0 0 1 1.495-2.096l.041-.037 1.03-.892-.018.2c1.644-.895 3.767-1.091 5.791-.365l1.477.53 21.092 7.564 1.477.529a8.2 8.2 0 0 1 3.302 2.237m-5.577.165a2.83 2.83 0 0 0-1.215-.875l-4.263-1.53-9.953-3.569-4.263-1.528c-1.085-.39-2.333.023-2.797.925l-.596 1.162c-.464.902.036 1.942 1.122 2.331l6.142 2.202 8.074 2.896 6.142 2.203c1.086.39 2.024-.135 2.104-1.174l.103-1.339c.045-.585-.191-1.205-.6-1.704"/><path fill="#505A79" d="M120.931 13.723q.073.088.136.18c.346.49.537 1.07.494 1.633l-.103 1.339c-.043.563-.328 1.005-.752 1.241-.22.123-.474.19-.748.197q.04-.142.055-.303c.204-.015.389-.067.546-.155.337-.189.563-.527.6-1.005l.102-1.337c.036-.477-.137-.993-.448-1.435a2.7 2.7 0 0 0-1.268-.992l-4.263-1.53-9.954-3.569-4.262-1.528c-1.02-.366-2.191.03-2.613.852l-.026.052q-.21.046-.403.127l.162-.316c.505-.984 1.83-1.411 2.981-.998l4.263 1.528 9.953 3.57 4.263 1.528c.504.182.95.513 1.285.921M91.973 4.091l-.017.2q.031-.014.062-.032a5.2 5.2 0 0 0-1.178 1.78l-8.025 20.326c-1.15 2.915.61 6.235 3.981 7.444l7.973 2.858 14.595 5.234 7.974 2.86c1.683.611 3.303.517 4.567-.114a5 5 0 0 0 .591-.354l-.01.016.392-.118-.846.727c-1.344.669-3.048.76-4.796.125l-7.973-2.86-14.596-5.234-7.972-2.86c-3.505-1.256-5.376-4.75-4.16-7.836L90.56 5.928c.165-.42.38-.807.634-1.163z"/><path fill="#7F97C3" fill-rule="evenodd" d="m96.716 37.527-1.292 1.13 1.375 1z" clip-rule="evenodd"/><path fill="#ACBFE0" d="M98.047 33.426a2 2 0 0 0-.106.278l-5.72 20.439c-.248.883-.182 2.304-.076 3.605.054.65.116 1.273.149 1.793s.044.928-.032 1.2c-.187.666-.812 1.416-1.437 2.21-.624.795-1.25 1.627-1.45 2.342-.277.99-.177 2.853.006 4.447.183 1.595.438 2.93.438 2.93a.15.15 0 0 1-.003.07c-1.125 4.018-1.406 6.113-1.215 7.23.096.558.296.867.572 1.089s.64.354 1.059.505c.42.15.786.279 1.118.277.126-.001.248-.018.371-.06l-.038.067.421-.098-.393.342q-.18.048-.36.05c-.409.002-.804-.146-1.221-.296-.419-.15-.817-.288-1.147-.553-.329-.266-.573-.66-.678-1.272-.208-1.22.095-3.325 1.214-7.328a43 43 0 0 1-.437-2.918c-.184-1.608-.304-3.466.003-4.564.227-.81.877-1.65 1.504-2.446s1.23-1.559 1.384-2.105c.05-.18.054-.589.021-1.1-.032-.512-.093-1.135-.147-1.789-.107-1.308-.188-2.736.084-3.71l5.722-20.439q.016-.054.036-.106.173-.06.358-.09"/><path fill="#9AB2D4" d="M106.875 34.709c1.154.414 1.833 1.643 1.522 2.757l-5.721 20.438c-.52 1.858-3.138 4.465-3.391 5.368-.339 1.21.472 4.077.045 5.603-.584 2.086-4.15 5.8-4.15 5.8-2.253 8.05-3.324 7.631-4.998 7.03-1.674-.6-2.763-.955-.51-9.006 0 0-1.025-5.36-.44-7.446.426-1.526 2.547-3.34 2.886-4.552.253-.902-.561-4.74-.04-6.598l5.72-20.439c.311-1.113 1.492-1.676 2.647-1.262l3.215 1.154z"/><path fill="#ACBFE0" d="m105.19 48.919-2.21 7.895-11.077-.741c-.013-.742.024-1.438.173-1.97l1.666-5.95z"/><path fill="#7F97C3" d="m106.483 34.57-6.259 22.36 2.476.887-.025.088q-.052.18-.127.37l-2.71-.972-.254-.091v-.002h-.002l.065-.231 6.324-22.593zm-2.568-.92L90.438 81.797l-.257-.09-.255-.094 13.477-48.149.256.092zm-2.568-.922-6.324 22.593-.064.23h-.003v.002l-.255-.092-2.71-.972q.035-.203.084-.384l.025-.089 2.476.888 6.258-22.36zM99.28 63.29q-.056.215-.071.486l-.819-.294-3.1 11.079-.11.116c-.857 3.062-1.543 4.896-2.156 5.963l4.92-17.574.064-.231h.002l.255.09zm-5.896-2.114-.064.232-4.92 17.574c.042-1.273.415-3.219 1.272-6.281l-.031-.167 3.1-11.078-.817-.293c.082-.155.148-.304.189-.445l1.015.365.254.09v.002z"/><path fill="#879FC9" d="M108.115 35.71c.327.521.449 1.154.281 1.755l-2.313 8.265-11.448-.766 2.79-9.97zm-8.042 26.301c-.397.53-.71.982-.789 1.26-.339 1.212.472 4.078.045 5.604-.247.884-1.03 2.058-1.849 3.119l-8.016-.536c-.264-1.707-.642-4.743-.233-6.205.345-1.234 1.8-2.658 2.522-3.799z"/><path fill="#7185B5" d="m106.199 35.583-2.79 9.97-.553-.038 2.79-9.97zm-2.773-.186-2.791 9.97-.553-.038 2.791-9.969zm-2.774-.186-2.79 9.97-.554-.038 2.79-9.969zM99.28 63.29v.002q-.055.213-.072.485l-.818-.294-2.356 8.417-.553-.037 2.462-8.796.064-.231h.003v-.001l.254.091zm-3.23-1.546-2.79 9.97-.553-.037 2.79-9.97zm-2.772-.185-2.791 9.97-.553-.038 2.79-9.97z"/><path fill="#505A79" d="M123.083 11.42c3.438 1.233 5.755 4.82 5.196 8.044l-3.78 21.847c-.56 3.223-3.781 4.84-7.215 3.593l-7.973-2.86-14.595-5.233-7.973-2.86c-3.437-1.232-5.253-4.64-4.07-7.639l8.025-20.325c1.183-3 4.902-4.423 8.34-3.19l1.476.53 21.092 7.563zm-3.489 1.527-4.263-1.529-9.954-3.57-4.262-1.528c-1.086-.39-2.334.023-2.797.926l-.597 1.16c-.463.903.037 1.943 1.123 2.332l6.142 2.203 8.074 2.895 6.141 2.203c1.086.389 2.024-.135 2.104-1.175l.103-1.338c.081-1.04-.729-2.19-1.814-2.58"/><path fill="#414C6D" fill-rule="evenodd" d="M88.26 12.162c3.456 11.805 27.042 23.334 37.893 19.596l-1.652 9.552c-.56 3.223-3.781 4.84-7.215 3.592l-7.973-2.859-14.595-5.234-7.973-2.859c-3.437-1.233-5.253-4.64-4.07-7.64z" clip-rule="evenodd"/><path fill="#373F5E" d="M82.713 26.215c-.41 2.685 1.357 5.44 4.373 6.52l7.972 2.86 14.596 5.234 7.973 2.86c3.012 1.094 5.861-.017 6.892-2.482l-.018.105c-.559 3.223-3.781 4.84-7.214 3.592l-7.973-2.859-14.595-5.234-7.973-2.86c-3.438-1.232-5.253-4.64-4.07-7.639z"/><path fill="#778EA9" d="M125.472 13.884q.429.476.772 1.006c.912 1.413 1.335 3.079 1.055 4.695l-1.636 9.459c-.125.618-1.265.753-1.165-.312l1.617-9.351-.001-.001c.22-1.268-.142-2.648-.911-3.837s-1.945-2.188-3.349-2.691l-1.32-.475-7.172-2.572c-.927-.36-1.058-1.536.388-1.137l7.19 2.579 1.32.473a8 8 0 0 1 3.212 2.163"/><path fill="#97AAD6" d="m102.516 48.74-2.21 7.895-.553-.037 2.21-7.896zm-2.773-.186-2.21 7.896-.554-.037 2.21-7.896zm-2.775-.186-1.945 6.95-.065.232h-.002l-.255-.09-2.71-.972.004-.02.017-.095.003-.014.01-.056.017-.066q.014-.069.033-.134l.015-.056.01-.033 2.475.888 1.84-6.571z"/><path fill="#9BAADA" d="M17.597 37.343c1.184-.733 2.82-.348 3.554.835l.407.659.008.013.008.013.06.095q.733-.244 1.465-.505c1.962-1.933 3.288-5.533 9.28-9.244q.317-.195.627-.375.07-.04.04-.022a20 20 0 0 1 1.244-.659c1.061-.512 2.12-.897 3.2-1.085a19.5 19.5 0 0 1 2.738-.278 23 23 0 0 1 1.342-.005 27 27 0 0 1 2.178.148 32 32 0 0 1 2.485.367c1.34.247 2.57.55 3.707.844 2.693-1.03 4.829-1.845 6.478-2.285q.295-.079.55-.135a11 11 0 0 1 .862-.159c.055-.007.147-.02.289-.034q.105-.01.21-.009c.25.002.47.03.652.06l.005.002h.006l.087.018.005.001q.135.026.27.063h.004q.108.032.208.068l.026.007a2 2 0 0 1 .123.042l.002.001.003.001.003.001.004.002c.023.009.02.007.006.001-.003 0 .003.002.001 0l.014.006a2 2 0 0 1 .31.136l.013.006q.027.015.055.028a4.35 4.35 0 1 1 2.998 4.556c.21 1.48-.195 3.055-1.374 4.329-.41.475-.71.675-1.18 1.03-.487.368-1.096.802-1.818 1.3-.291.2-.628.326-.98.366-.34.515-.79.968-1.355 1.318a4.4 4.4 0 0 1-1.529.57c-.173.32-.423.592-.728.79-6.484 4.193-15.838 9.932-22.229 13.618-.254.147-.535.24-.826.274-.33.47-.749.888-1.272 1.212a4.35 4.35 0 0 1-2.118.634c-.19.266-.437.485-.723.641l-.247.134c-.934.522-1.745.957-2.417 1.286-.648.316-.885.563-1.853.688-1.417.252-2.576-.289-3.464-.93a6.6 6.6 0 0 1-2.027-2.353c-.123-.178-.246-.355-.356-.548a2 2 0 0 1-.068-.12l.022.039-.022-.04q-.043-.083-.082-.169l-.047-.096c-.371-.81-.633-1.795-.32-2.922q.034-.117.078-.229.084-.208.181-.43c.035-.081.078-.168.118-.253l-.02-.03a25 25 0 0 1-.342-.59c-.664-1.182-1.2-2.359-1.537-3.489q-.062-.214-.114-.428v-.003a2 2 0 0 1-.036-.133l-.044-.208-.002-.01-.015-.064q-.018-.098-.034-.198l-.016-.086c-.026-.17-.03-.347-.041-.52a2 2 0 0 1-.029-.356c-.04-.055-.09-.104-.126-.163l-.407-.658-.008-.013c-.026-.04.027.044-.008-.013l-.408-.659a2.6 2.6 0 0 1-.159-2.419 2.6 2.6 0 0 1 .995-1.134zm45.535-13.097-.002.001a2.513 2.513 0 1 0 .002-.001"/><path fill="#fff" d="M12.978 42.24q.037.066.076.131l.406.655.002.003.008.012.002.004.007.013.002.003.405.655c.025.04.07.086.12.153a.14.14 0 0 1 .028.086q0 .155.024.309l-.333-.538c-.036-.058.016.027-.008-.014-.026-.04.027.045-.008-.012l-.001-.001-.35-.564.076.053.035-.086c-.033.01-.11.03-.112.03l-.056-.09v-.001a2.6 2.6 0 0 1-.322-.8zm7.6-4.7c.222.176.418.387.573.636l.038.062q-.002 0-.003.002l.005.006-.011-.002-.016.012.028-.009.003.005.002-.001.148.24-.031.01a.144.144 0 0 1-.169-.06l-.057-.093-.001-.002-.002-.002-.006-.01-.002-.004-.007-.01-.001-.004-.406-.655q-.04-.062-.084-.121zm-7.251 5.45.003.001v-.002zm7.765-4.685-.02.014.003.008.056-.035zm-6.383 8.628c.312.802.71 1.622 1.173 2.445q.165.295.34.586l.02.031a.15.15 0 0 1 .007.135l-.032.069-.092-.158c-.59-1.05-1.078-2.095-1.416-3.108M62.69 23.53a2.66 2.66 0 0 1 3.655.862c.161.26.27.538.332.822a2.5 2.5 0 0 0-.67-.806 2.365 2.365 0 0 0-3.165-.633l-.003.001a2.364 2.364 0 0 0-.847 3.116 2.5 2.5 0 0 0 .423.96 2.6 2.6 0 0 1-.587-.664 2.66 2.66 0 0 1 .86-3.657zM16.146 53.736l.046.107v.001l.046.094.08.164.013.022.008.014v.003l.002.003.04.072.002.003a8 8 0 0 0 .36.554 6.45 6.45 0 0 0 1.983 2.302c.87.629 1.985 1.148 3.354.905l.006-.001c.948-.123 1.147-.352 1.809-.676a52 52 0 0 0 2.413-1.283l.246-.134c.267-.146.498-.35.675-.598a.14.14 0 0 1 .11-.06 4.2 4.2 0 0 0 2.05-.613 4.2 4.2 0 0 0 1.229-1.172.14.14 0 0 1 .101-.06c.272-.032.534-.12.772-.256 6.387-3.685 15.74-9.424 22.221-13.615.285-.185.519-.438.68-.737a.14.14 0 0 1 .101-.073 4.2 4.2 0 0 0 1.48-.551 4.2 4.2 0 0 0 1.31-1.275.14.14 0 0 1 .104-.063c.328-.038.642-.155.914-.343a51 51 0 0 0 1.814-1.296c.472-.357.756-.545 1.157-1.009l.003-.004c1.15-1.242 1.542-2.77 1.337-4.21a.144.144 0 0 1 .187-.157 4.206 4.206 0 0 0 4.545-6.664 4.4 4.4 0 0 1 1.07 1.451 4.5 4.5 0 0 1-1.962 5.03 4.5 4.5 0 0 1-3.547.497 5.34 5.34 0 0 1-1.416 4.247c-.42.484-.734.696-1.2 1.048-.49.372-1.101.806-1.824 1.304-.293.202-.63.326-.98.376a4.5 4.5 0 0 1-1.36 1.313c-.484.3-1 .472-1.52.572a2.3 2.3 0 0 1-.736.786c-6.487 4.195-15.84 9.934-22.234 13.623a2.3 2.3 0 0 1-.82.278 4.5 4.5 0 0 1-1.275 1.205c-.67.415-1.397.603-2.121.645a2.3 2.3 0 0 1-.727.634c-.078.043-.163.09-.246.134-.934.522-1.748.958-2.424 1.289-.632.309-.908.573-1.893.701-1.464.259-2.666-.302-3.57-.955a7 7 0 0 1-.715-.596 6.6 6.6 0 0 1-.86-1.282 7 7 0 0 1-.357-.548 2 2 0 0 1-.068-.12l.023.039-.023-.04-.082-.169-.047-.096a6 6 0 0 1-.284-.76"/><path fill="#DBE8F7" d="M17.23 36.753c1.184-.733 2.821-.348 3.554.836l.408.658c.03.048-.013-.021.007.013.021.033-.02-.035.009.013l.06.095q.732-.243 1.465-.505c1.962-1.932 3.288-5.533 9.28-9.244a24 24 0 0 1 .667-.397 20 20 0 0 1 1.244-.659c1.06-.511 2.119-.897 3.2-1.085a19.4 19.4 0 0 1 2.737-.278 23 23 0 0 1 1.342-.005c.74.019 1.467.071 2.178.148a32 32 0 0 1 2.486.367c1.34.247 2.57.55 3.707.845 2.692-1.031 4.828-1.846 6.477-2.286q.295-.077.55-.135a11 11 0 0 1 .863-.158c.055-.007.146-.021.288-.034q.105-.01.21-.01c.25.002.471.03.653.061h.005l.003.001h.003l.087.018.005.001q.135.026.27.062h.002l.002.001q.108.032.208.068l.027.007q.06.018.119.04l.003.002h.002l.003.002.002.001.004.002c.023.01.02.007.005.001-.002 0 .004.002.002 0l.014.006a2 2 0 0 1 .308.135l.002.001q-.04-.018.013.007l.055.028a4.349 4.349 0 0 1 8.027-1.875c1.278 2.034.689 4.705-1.345 5.983-.016.01-.032.02-.062.006a4.35 4.35 0 0 1-3.622.443c.21 1.48-.195 3.054-1.374 4.327-.41.475-.71.675-1.179 1.03a52 52 0 0 1-1.818 1.3c-.292.2-.628.326-.98.366a4.4 4.4 0 0 1-1.355 1.319c-.485.3-1.004.474-1.53.57-.172.32-.422.592-.728.79-6.483 4.192-15.837 9.931-22.228 13.618-.254.147-.535.24-.826.274a4.4 4.4 0 0 1-1.272 1.212 4.34 4.34 0 0 1-2.119.634 2.15 2.15 0 0 1-.723.64l-.247.135c-.933.521-1.745.956-2.417 1.285-.647.316-.884.563-1.853.689-1.417.25-2.575-.29-3.463-.93a6.6 6.6 0 0 1-2.027-2.354 7 7 0 0 1-.357-.548 2 2 0 0 1-.068-.12l.023.04-.023-.04-.082-.17-.047-.095c-.371-.81-.632-1.796-.32-2.923q.034-.117.079-.23.083-.206.18-.43c.035-.08.078-.168.118-.252l-.02-.031a24 24 0 0 1-.342-.59c-.664-1.181-1.2-2.358-1.537-3.488q-.061-.214-.114-.428v-.003l-.036-.133-.044-.208-.002-.01-.015-.065-.034-.197-.016-.087c-.026-.17-.029-.347-.04-.52a2 2 0 0 1-.03-.356c-.04-.055-.089-.104-.126-.163l-.407-.658c-.036-.058.016.027-.008-.014-.025-.04.027.045-.008-.012l-.408-.658v-.001a2.6 2.6 0 0 1-.159-2.419 2.6 2.6 0 0 1 .995-1.134zm45.536-13.097-.001.001a2.513 2.513 0 1 0 2.643 4.275 2.513 2.513 0 0 0-2.642-4.276"/><path fill="#BDCEE7" fill-rule="evenodd" d="M13.812 38.87c9.408 6.64 21.718 9.349 43.014-1.207-.23.227-.488.434-.777.612a4.4 4.4 0 0 1-1.53.57c-.172.32-.423.592-.728.79-6.484 4.193-15.837 9.932-22.228 13.619-.254.146-.535.24-.826.274-.33.469-.749.888-1.272 1.212a4.35 4.35 0 0 1-2.119.633 2.14 2.14 0 0 1-.723.641l-.247.134c-.932.522-1.745.957-2.417 1.285-.647.317-.884.564-1.853.69-1.417.25-2.575-.29-3.463-.931a6.6 6.6 0 0 1-2.027-2.353 8 8 0 0 1-.425-.669l.023.04-.023-.04-.083-.169-.047-.096c-.37-.81-.632-1.796-.318-2.922q.033-.117.078-.23.083-.207.18-.43c.035-.08.078-.168.118-.252l-.02-.031a24 24 0 0 1-.342-.59c-.664-1.181-1.201-2.358-1.537-3.489a11 11 0 0 1-.114-.427v-.003a2 2 0 0 1-.036-.133l-.044-.208-.002-.01-.015-.065-.034-.197-.015-.087c-.027-.17-.03-.347-.042-.52a2 2 0 0 1-.028-.356c-.041-.055-.09-.103-.127-.163l-.407-.658-.008-.013-.008-.013-.408-.658a2.6 2.6 0 0 1-.159-2.419 2.6 2.6 0 0 1 .995-1.134z" clip-rule="evenodd"/><path fill="#373F5E" d="M18.791 39.27a.42.42 0 0 1 .582.137l.407.659a.42.42 0 0 1-.136.581l-.884.548.915.86c1.39-.554 2.994-1.011 4.66-1.633 2.712-2.388 3.424-5.684 9.239-9.285 1.547-.958 3.042-1.623 4.344-1.85 4.322-.754 8.785.302 12.207 1.21 4.06-1.553 6.77-2.587 8.246-2.722.507.004.952.212 1.308.548 1.07 1.01 1.342 3.183.098 4.5-.26.308-1.207 1.017-2.618 1.99l-.424-.685.193-.263a3.7 3.7 0 0 0-.3-.6c-.66-1.066-1.804-1.713-2.978-1.685.784.109 1.501.588 1.94 1.298.777 1.254.473 2.848-.678 3.561s-2.713.274-3.49-.98c-.439-.708-.549-1.565-.297-2.315-.548 1.04-.478 2.351.182 3.417q.23.372.54.678l.347-.101.424.684c-6.443 4.166-15.794 9.904-22.134 13.561l-.424-.684.206-.264a3.7 3.7 0 0 0-.318-.647c-.566-.913-1.494-1.528-2.505-1.66a2.8 2.8 0 0 1 1.561 1.215c.777 1.254.474 2.848-.677 3.561-1.15.713-2.714.275-3.49-.979-.5-.804-.57-1.791-.185-2.593-.755 1.066-.765 2.556-.024 3.752q.128.206.281.394l.255-.043.424.685-.233.127c-1.854 1.037-3.197 1.708-3.613 1.752-1.68.312-3.924-2.218-3.497-3.752.201-.497.415-.972.805-1.574-1.887-2.773-3.177-6.059-2.296-6.902.34-.326.73-.61 1.155-.864l-.759-.714-.97.601a.42.42 0 0 1-.582-.137L15.19 42a.42.42 0 0 1 .137-.581z"/><path fill="#505A79" d="M59.256 27.638c1.07 1.01 1.342 3.183.098 4.5-.26.308-1.206 1.017-2.618 1.989a3.66 3.66 0 0 0-.531-1.547c-.66-1.065-1.804-1.713-2.978-1.685.784.109 1.502.589 1.94 1.298.777 1.254.474 2.848-.677 3.56-1.151.714-2.714.275-3.49-.979-.44-.709-.55-1.565-.297-2.315-.548 1.038-.478 2.35.181 3.416.328.529.78.964 1.311 1.261-6.443 4.167-15.794 9.905-22.134 13.562a3.65 3.65 0 0 0-.535-1.595c-.566-.914-1.495-1.529-2.506-1.66a2.8 2.8 0 0 1 1.561 1.215c.777 1.253.474 2.848-.677 3.56-1.15.714-2.714.275-3.49-.978-.499-.805-.57-1.792-.185-2.594-.755 1.066-.764 2.556-.024 3.752.251.406.579.76.96 1.036l-.233.127c-1.854 1.037-3.196 1.708-3.612 1.752-1.68.312-3.924-2.218-3.497-3.752.2-.497.414-.972.804-1.574-1.887-2.773-3.177-6.059-2.296-6.902.341-.326.73-.61 1.155-.865l-.759-.713-.97.6a.42.42 0 0 1-.583-.136l-.407-.658a.42.42 0 0 1 .137-.582l3.463-2.144a.42.42 0 0 1 .581.136l.408.659a.42.42 0 0 1-.137.581l-.884.548.915.86c1.39-.554 2.995-1.012 4.66-1.633 2.712-2.389 3.425-5.684 9.24-9.285 1.546-.958 3.042-1.623 4.343-1.85 4.322-.755 8.785.302 12.207 1.21 4.06-1.554 6.77-2.588 8.246-2.722.509.003.954.21 1.31.547"/><path fill="#7686AD" fill-rule="evenodd" d="M33.646 31.399c1.124-.671 2.323-1.195 3.573-1.469 5.72-1.25 9.727.973 9.727.973l-.03.013c1.031.489 1.485 1.074 2.03 1.927.384.602.802 1.412 1.22 2.297l.308-.19q.048.172.115.34l-.274.17q.147.315.292.639l.3-.186q.094.148.202.287l-.358.221c.19.43.377.863.557 1.287l-.124.08c-.18-.426-.368-.86-.558-1.29L39.81 43.197q.422.55.905 1.142l-.124.076a48 48 0 0 1-.904-1.142l-9.973 6.177a4 4 0 0 0-.167-.309l9.927-6.147c-.145-.193-.281-.379-.416-.563l-9.927 6.148a4 4 0 0 0-.253-.255l9.977-6.178c-1.128-1.577-1.862-2.844-2.304-3.736-.243-.49-.42-1.246-.513-1.969a7.3 7.3 0 0 1-.067-1.286zm-1.445.969 2.228 3.597-8.673 3.444c1.012-1.56 3.361-4.748 6.445-7.041m3.913 2.927c-.008.325.014.72.067 1.127.092.713.27 1.461.5 1.924.439.886 1.17 2.15 2.297 3.723l11.064-6.852c-.42-.889-.837-1.7-1.219-2.297-.563-.88-.995-1.44-2.092-1.93zM17.803 46.677c.665-.411 1.676-.329 2.267.186.592.515.533 1.26-.132 1.672l3.76-2.328a.104.104 0 0 1 .143.034l.048.077c.03.05.015.113-.034.144l-5.363 3.32q-.084-.123-.165-.25a21 21 0 0 1-1.32-2.363zm21.2-10.863a.367.367 0 1 1 .387.626l-1.362.844a.367.367 0 1 1-.389-.626zm19.244-8.692c.622.108 1.132.53 1.47 1.108l-2.334 1.445c-.422.262-1.05.2-1.409-.136-.358-.338-.307-.819.115-1.08zm-5.794 5.347c.516-.32 1.217-.124 1.565.439.349.562.212 1.277-.304 1.597s-1.217.123-1.565-.44-.212-1.277.304-1.596M25.867 48.932c.517-.32 1.217-.123 1.566.44.348.562.212 1.277-.304 1.596s-1.218.124-1.566-.439-.212-1.277.304-1.597M60.048 29.02q.05.179.08.362l-4.318 2.674a4 4 0 0 0-.254-.254zM23.795 51.472q.048.173.115.34l-4.576 2.835a5 5 0 0 1-.278-.24zM50.19 35.536l-11.01 6.818c.135.185.271.37.417.563l10.884-6.741zm9.98-5.36a4 4 0 0 1-.053.445l-3.724 2.306a4 4 0 0 0-.167-.309zm-35.943 22.26q.094.148.202.286L20.38 55.23a3 3 0 0 1-.398-.165z" clip-rule="evenodd"/><path fill="#414C6D" fill-rule="evenodd" d="M15.74 40.215c8.578 4.573 17.722 5.775 27.662 2.469-4.68 2.895-9.548 5.827-13.34 8.015a3.65 3.65 0 0 0-.536-1.596c-.566-.913-1.495-1.528-2.505-1.66a2.8 2.8 0 0 1 1.561 1.215c.777 1.254.473 2.849-.677 3.562-1.151.712-2.714.274-3.49-.98-.5-.804-.57-1.79-.185-2.593-.755 1.067-.765 2.557-.024 3.752.251.406.578.76.96 1.036l-.234.127c-1.853 1.037-3.196 1.708-3.612 1.753-1.68.312-3.924-2.219-3.497-3.752.201-.498.415-.972.805-1.575-1.887-2.773-3.177-6.058-2.296-6.902a6.5 6.5 0 0 1 1.155-.864l-.759-.714-.97.601a.42.42 0 0 1-.582-.137l-.408-.658a.42.42 0 0 1 .137-.582z" clip-rule="evenodd"/><path fill="#9FB4D9" d="M34.817 30.772a12 12 0 0 1 1.053-.446l3.767 3.541-1.067.433zm1.489-.596q.452-.145.913-.246a16.3 16.3 0 0 1 3.586-.38l2.856 2.686-3.609 1.463zm-6.351 4.12 2.576 2.422L28.9 38.16l-1.324-1.244a30 30 0 0 1 2.379-2.62"/><path fill="#4E5A7E" fill-rule="evenodd" d="M17.803 46.678c.665-.411 1.676-.329 2.267.186s.532 1.26-.132 1.672l3.759-2.328a.104.104 0 0 1 .144.034l.047.077a.104.104 0 0 1-.034.144l-5.363 3.32-.043-.066-.124-.187a21 21 0 0 1-1.317-2.36zm8.064 2.256c.516-.32 1.217-.123 1.565.44.349.562.213 1.277-.303 1.596-.517.32-1.218.123-1.566-.439s-.212-1.277.304-1.597m9.293-4.5q.397-.035.797-.08l-6.826 4.227-.002-.002a4 4 0 0 0-.21-.214l-.04-.039zm-11.366 7.04.035.115.017.051.002.005.018.051.002.006.019.05.001.005.02.052.002.005-4.576 2.834-.002-.001-.137-.113-.003-.002-.022-.02-.115-.103zm13.872-7.36q.466-.075.935-.166l-8.886 5.503a4 4 0 0 0-.145-.271l-.022-.037zm-13.438 8.323.01.015.022.035.01.016.024.035.01.014.024.035.01.015.025.034.01.015.026.033.01.015.02.026-4.048 2.507a3 3 0 0 1-.397-.164l-.002-.001zm15.754-8.784.154-.037c.185.236.375.476.578.722l-.125.076q-.316-.39-.607-.761" clip-rule="evenodd"/><path fill="#768BB2" d="M33.151 30.454c1.547-.958 3.043-1.623 4.344-1.85 4.322-.755 8.785.302 12.207 1.21 4.06-1.555 6.77-2.588 8.246-2.722.507.003.952.21 1.308.548.301.284.536.662.695 1.086a3 3 0 0 0-.248-.284c-.354-.346-.8-.563-1.311-.575-1.493.11-4.246 1.106-8.373 2.604-3.438-.977-7.925-2.122-12.301-1.436-1.318.207-2.84.852-4.418 1.792-5.933 3.534-6.71 6.848-9.49 9.212-1.692.598-3.319 1.032-4.732 1.566l-.909-.883.24-.143.843.793c1.39-.554 2.994-1.012 4.66-1.633 2.712-2.388 3.425-5.684 9.24-9.285"/><path fill="#9FB4D9" d="M58.248 27.121q.171.03.331.091l.01.004a2 2 0 0 1 .488.275l.015.011a2.3 2.3 0 0 1 .32.304l.034.04a2.6 2.6 0 0 1 .268.384l-.147.091a1.9 1.9 0 0 0-1.176-.453c-.523.038-1.203.187-2.039.426z"/><path fill="#fff" d="M32.173 28.526q.234-.144.468-.28l.04-.022a20 20 0 0 1 1.244-.658c1.06-.512 2.118-.897 3.199-1.086a19.5 19.5 0 0 1 2.738-.277 23 23 0 0 1 1.342-.006q1.11.032 2.178.148a32 32 0 0 1 2.485.367c1.34.247 2.57.55 3.707.845 2.693-1.03 4.829-1.845 6.478-2.285q.295-.079.55-.135a11 11 0 0 1 .863-.16c.054-.006.146-.02.288-.034q.105-.009.21-.009c.25.002.471.03.653.06l.005.002h.003l.003.001.092.018q.135.026.27.063h.004q.108.033.208.069l.027.007q.06.018.118.04l.004.002h.002l.003.001.002.001.004.002.007.002.014.005a2 2 0 0 1 .308.135l.002.002.013.006q.027.015.055.028a4.35 4.35 0 0 1 7.917-2.044q.033.06.065.123c-1.747-1.6-3.729-1.822-5.445-.817-1.2.702-1.886 2.114-2.053 3.495l-.055-.03-.013-.007-.002-.002-.034-.017a2 2 0 0 0-.143-.072c-.142-.066-.164-.07-.135-.057l-.015-.006c.014.006.018.007-.006-.002l-.004-.002h-.002c-.046-.02-.02-.009-.003-.002h-.002l-.004-.001a2 2 0 0 0-.12-.045l-.028-.008c-.07-.025-.137-.052-.21-.075h-.005a4 4 0 0 0-.275-.072h-.004l-.089-.02-.002-.001h-.004l-.005-.002a4 4 0 0 0-.666-.078q-.107-.002-.215.004c-.146.01-.24.022-.296.028q-.127.014-.257.032-.307.043-.63.108a15 15 0 0 0-.565.124c-1.698.408-3.904 1.187-6.684 2.173A54 54 0 0 0 46 27.147a33 33 0 0 0-2.533-.439 27 27 0 0 0-2.679-.225 24 24 0 0 0-1.38-.003 20 20 0 0 0-2.345.206c-1.11.165-2.202.532-3.3 1.029l-.053.025q-.616.28-1.237.617l-.04.022q-.129.07-.258.144z"/></g><defs><clipPath id="a"><path fill="#fff" d="M0 0h114v76H0z"/></clipPath></defs></svg>