<svg xmlns="http://www.w3.org/2000/svg" width="218" height="206" fill="none"><path fill="#D7E3EF" d="M100.5 1.47S29.44 5.77 31.2 45.8c.5 11.47-2.37 22.96-10.82 31.52-5.3 5.38-12.39 9.3-16.11 15.98-7.37 13.2-2.52 29.36 1.54 42.6 4.04 13.16 6.68 27 14.55 38.71a70 70 0 0 0 16.5 17.29c8.84 6.41 20.19 9.15 31.2 9.31 63.28.97 133.17-3.48 140.25-82.73S168.3-8.85 100.5 1.47"/><path fill="#92B2EF" d="M46.75 67.6c1.63.83 3.69.07 4.59-1.7.9-1.76.3-3.87-1.34-4.7l-.25-.1q.45-1.47.68-2.95l.29-.01c1.86-.17 3.34-1.88 3.3-3.82s-1.58-3.38-3.45-3.22l-.28.04a19 19 0 0 0-.8-2.81l.25-.16c1.6-1.12 2.1-3.32 1.14-4.92s-3.04-1.99-4.64-.87l-.24.18a17 17 0 0 0-2.07-1.93l.15-.26c.9-1.77 2.08-3.7.43-4.5-3.82-1.86-5.45-.27-6.35 1.5l-.13.28a17 17 0 0 0-2.78-.53v-.3c-.03-1.94.55-3-1.33-3.03-4.08-.08-5.46 1.69-5.42 3.63l.02.3a19 19 0 0 0-2.75 1.02l-.14-.26c-.97-1.6-3.05-2-4.64-.88s-2.11 3.32-1.14 4.92l.15.23q-1.06 1.06-1.98 2.3l-.24-.15c-1.64-.82-3.7-.06-4.6 1.7-.9 1.77-.3 3.87 1.34 4.7l.26.11a21 21 0 0 0-.69 2.95h-.28a3.76 3.76 0 0 0-3.31 3.82 3.18 3.18 0 0 0 3.74 3.18q.3 1.44.8 2.81l-.26.16a3.74 3.74 0 0 0-1.14 4.92c.97 1.6 4.17 2.34 5.77 1.23.08-.06-.97-.47-.89-.54q.94 1.05 2.07 1.93l-.15.27c-.9 1.76-.3 3.86 1.33 4.7 1.64.82 3.7.06 4.6-1.7l.12-.28q1.38.38 2.79.53l-.01.3c.04 1.94 1.58 3.38 3.45 3.2s3.35-1.87 3.3-3.8l-.01-.3a19 19 0 0 0 2.75-1.03l.13.26a3.2 3.2 0 0 0 4.65.88 3.74 3.74 0 0 0 1.14-4.92l-.16-.23q1.06-1.06 1.98-2.3zm-20.4.26c-5.94-3-8.11-10.64-4.85-17.05s10.73-9.17 16.68-6.17 8.1 10.64 4.84 17.05-10.73 9.17-16.67 6.17"/><path fill="#92B2EF" d="M50.72 58.14a3.76 3.76 0 0 0 3.3-3.82 3.2 3.2 0 0 0-3.45-3.22l-.28.04a19 19 0 0 0-.8-2.81l.25-.16c1.6-1.12 3.57-3.81 2.45-5.3-2.14-2.84-4.35-1.61-5.95-.5l-.24.19a17 17 0 0 0-2.07-1.93l.15-.26a3.7 3.7 0 0 0 .21-2.92 532 532 0 0 0-4.56 8.15c4.74 3.46 6.25 10.28 3.29 16.1-2.51 4.92-7.5 7.69-12.37 7.34q-.32.85-.67 1.68a88 88 0 0 1-2.07 4.47q.68.13 1.36.2v.3c.04 1.94 1.22 3.59 4.6 3.4 1.87-.1 2.2-2.06 2.16-4q0-.16-.02-.3a19 19 0 0 0 2.75-1.02l.13.25c.97 1.6 4.33 2.28 5.92 1.17 1.6-1.12.83-3.6-.13-5.2l-.16-.24a21 21 0 0 0 1.98-2.3l.25.15c1.63.83 3.69.07 4.59-1.7.9-1.76.3-3.87-1.34-4.7l-.26-.1a21 21 0 0 0 .7-2.95z"/><path fill="#B9D8F6" d="M48.5 67.8c1.64.83 3.7.07 4.6-1.7s.3-3.87-1.34-4.7l-.26-.1q.46-1.47.7-2.95l.28-.01c1.86-.17 3.35-1.88 3.3-3.82s-1.58-3.39-3.45-3.22l-.28.04a19 19 0 0 0-.8-2.81l.25-.16a3.74 3.74 0 0 0 1.14-4.92c-.96-1.6-3.04-1.99-4.64-.88l-.24.19a17 17 0 0 0-2.07-1.93l.15-.27c.9-1.76.3-3.86-1.33-4.69s-3.7-.07-4.6 1.7l-.12.27a17 17 0 0 0-2.78-.53v-.3a3.2 3.2 0 0 0-3.44-3.2 3.75 3.75 0 0 0-3.31 3.81l.02.3q-1.4.4-2.75 1.02l-.14-.26a3.2 3.2 0 0 0-4.64-.88 3.74 3.74 0 0 0-1.14 4.92l.15.23q-1.06 1.06-1.98 2.3l-.24-.15c-1.64-.83-3.7-.07-4.6 1.7s-.3 3.87 1.34 4.7l.26.1a21 21 0 0 0-.69 2.95l-.28.01a3.76 3.76 0 0 0-3.31 3.82 3.2 3.2 0 0 0 3.45 3.22q.15-.01.29-.04.3 1.45.8 2.81l-.26.16a3.74 3.74 0 0 0-1.14 4.92 3.2 3.2 0 0 0 4.65.88l.23-.19q.95 1.05 2.07 1.93l-.15.27c-.9 1.76-.3 3.86 1.34 4.7s3.69.06 4.59-1.7l.12-.28q1.38.38 2.79.53l-.01.3a3.2 3.2 0 0 0 3.45 3.2 3.75 3.75 0 0 0 3.3-3.8l-.01-.3a19 19 0 0 0 2.75-1.03l.14.26a3.2 3.2 0 0 0 4.64.88 3.74 3.74 0 0 0 1.14-4.92l-.16-.23q1.06-1.06 1.98-2.3zm-20.4.26c-5.94-3-8.11-10.64-4.84-17.05S34 41.84 39.94 44.84s8.1 10.64 4.84 17.05c-3.27 6.41-10.73 9.17-16.67 6.17"/><path fill="#92B2EF" d="M76.75 33.27c1.3.66 2.95.06 3.66-1.35s.24-3.08-1.06-3.74l-.2-.1q.36-1.16.54-2.34l.23-.01c1.49-.14 2.67-1.5 2.64-3.05s-1.27-2.7-2.76-2.56q-.11 0-.23.03a15 15 0 0 0-.63-2.24l.2-.13c1.27-.9 1.68-2.65.9-3.92s-2.42-1.6-3.7-.7l-.18.14a13 13 0 0 0-1.65-1.53l.12-.21c.71-1.41 1.65-2.95.34-3.59-3.05-1.48-4.35-.21-5.07 1.2l-.1.22a14 14 0 0 0-2.22-.43v-.23c-.02-1.55.44-2.39-1.05-2.42-3.26-.06-4.36 1.35-4.33 2.9l.01.24q-1.12.32-2.19.8l-.11-.2a2.55 2.55 0 0 0-3.7-.7 3 3 0 0 0-.91 3.92l.13.19a17 17 0 0 0-1.58 1.83l-.2-.12c-1.3-.66-2.94-.05-3.66 1.36s-.24 3.08 1.06 3.74l.2.1a16 16 0 0 0-.54 2.34l-.23.01a3 3 0 0 0-2.64 3.05 2.54 2.54 0 0 0 2.76 2.56l.23-.03q.23 1.15.63 2.24l-.2.13a3 3 0 0 0-.9 3.92c.76 1.27 3.32 1.87 4.6.98.06-.05-.78-.37-.72-.42a13 13 0 0 0 1.65 1.53l-.12.21c-.71 1.41-.24 3.09 1.07 3.75s2.94.05 3.66-1.36l.1-.22a14 14 0 0 0 2.22.42v.24c.02 1.55 1.26 2.7 2.74 2.57s2.67-1.5 2.64-3.05V39q1.12-.32 2.19-.8l.11.2c.77 1.27 2.43 1.59 3.7.7s1.68-2.65.91-3.92l-.12-.2a17 17 0 0 0 1.58-1.82zm-16.27.2c-4.74-2.39-6.47-8.47-3.87-13.59 2.6-5.1 8.56-7.3 13.3-4.91 4.74 2.4 6.46 8.48 3.86 13.6-2.6 5.1-8.56 7.3-13.3 4.9"/><path fill="#92B2EF" d="M79.92 25.73a3 3 0 0 0 2.64-3.05 2.54 2.54 0 0 0-2.76-2.56q-.11 0-.23.03a15 15 0 0 0-.63-2.24l.2-.13c1.27-.9 2.85-3.04 1.95-4.23-1.7-2.26-3.47-1.28-4.75-.4l-.18.15a13 13 0 0 0-1.65-1.53l-3.35 3.96c3.78 2.76 4.98 8.2 2.62 12.83-2 3.93-5.98 6.14-9.87 5.86q-.25.68-.53 1.34c-.5 1.2-1.08 2.39-1.65 3.56q.54.1 1.09.16v.24c.02 1.55.97 2.87 3.66 2.72 1.5-.08 1.75-1.65 1.72-3.2V39q1.12-.32 2.19-.8l.11.2c.77 1.27 3.45 1.81 4.72.92s.66-2.87-.1-4.14l-.14-.2a17 17 0 0 0 1.58-1.82l.2.11c1.3.66 2.94.06 3.66-1.35.72-1.4.24-3.08-1.06-3.74l-.2-.1q.36-1.16.54-2.34z"/><path fill="#B9D8F6" d="M78.16 33.43c1.3.66 2.94.06 3.66-1.35.71-1.4.24-3.09-1.07-3.75l-.2-.09q.36-1.17.55-2.35h.22a3 3 0 0 0 2.64-3.05 2.54 2.54 0 0 0-2.75-2.56q-.12 0-.23.03a15 15 0 0 0-.64-2.25l.2-.12a3 3 0 0 0 .91-3.92 2.55 2.55 0 0 0-3.7-.7l-.19.14a13 13 0 0 0-1.65-1.53q.07-.1.12-.21c.72-1.41.24-3.09-1.06-3.75s-2.95-.05-3.66 1.35q-.06.11-.1.23a14 14 0 0 0-2.22-.43V8.9c-.03-1.55-1.26-2.7-2.75-2.57s-2.67 1.5-2.64 3.05l.02.24q-1.12.31-2.2.8l-.1-.2a2.55 2.55 0 0 0-3.7-.7 3 3 0 0 0-.92 3.92l.13.19a17 17 0 0 0-1.58 1.83l-.2-.12c-1.3-.66-2.94-.05-3.66 1.36s-.24 3.08 1.07 3.74l.2.1q-.36 1.16-.55 2.34l-.22.01a3 3 0 0 0-2.64 3.04A2.54 2.54 0 0 0 52 28.5l.23-.03q.23 1.15.64 2.24l-.2.13a3 3 0 0 0-.91 3.92 2.55 2.55 0 0 0 3.7.7l.19-.15a13 13 0 0 0 1.65 1.54l-.12.21c-.72 1.4-.24 3.09 1.06 3.75s2.95.05 3.66-1.36l.1-.22a14 14 0 0 0 2.22.42v.24c.03 1.55 1.26 2.7 2.75 2.56s2.67-1.5 2.64-3.04l-.02-.24q1.12-.32 2.2-.81l.1.2c.78 1.28 2.43 1.6 3.7.7s1.69-2.64.92-3.92l-.13-.18a17 17 0 0 0 1.58-1.83zm-16.27.2c-4.74-2.39-6.47-8.48-3.86-13.59s8.55-7.3 13.29-4.91c4.74 2.4 6.47 8.48 3.86 13.6-2.6 5.1-8.55 7.3-13.3 4.9"/><path fill="#80A9F9" d="M133.13 178.77c3.03-8.08 6.24-20.35 3.6-34.17-3.46-18.12-13.95-22.98-26.6-50.32-7.99-17.3-13.39-29.45-7.91-40.06 4.3-8.32 14.75-14.7 23.7-13.35 7.43 1.13 14.68 7.74 18.55 13.1 3.15 4.36 4.22 8.13 8.22 9.28 4.08 1.18 6.4-1.76 9.97-1.16 7.24 1.22 10.47 15.49 10.99 17.8 5.8 25.64-7.73 51.52-13.77 62.73a159 159 0 0 1-26.75 36.15"/><mask id="a" width="77" height="139" x="99" y="40" maskUnits="userSpaceOnUse" style="mask-type:luminance"><path fill="#fff" d="M133.13 178.77c3.03-8.08 6.24-20.35 3.6-34.17-3.46-18.12-13.95-22.98-26.6-50.32-7.99-17.3-13.39-29.45-7.91-40.06 4.3-8.32 14.75-14.7 23.7-13.35 7.43 1.13 14.68 7.74 18.55 13.1 3.15 4.36 4.22 8.13 8.22 9.28 4.08 1.18 6.4-1.76 9.97-1.16 7.24 1.22 10.47 15.49 10.99 17.8 5.8 25.64-7.73 51.52-13.77 62.73a159 159 0 0 1-26.75 36.15"/></mask><g fill="#fff" mask="url(#a)" opacity=".5"><path d="m128.76 186.2-.4-.37c8-8.56 14.25-17.16 18.6-25.56 6.43-12.38 8.5-23.98 6.16-34.48-1.83-8.22-6.23-15.5-12.33-25.58-4.86-8.05-9.04-13.31-12.72-17.96-4.82-6.07-8.63-10.87-11.68-19.04-3.1-8.3-4.38-17.43-3.8-27.14l.54.03c-.58 9.64.69 18.7 3.76 26.92 3.03 8.1 6.81 12.86 11.6 18.9 3.7 4.66 7.88 9.94 12.76 18.01 5.9 9.75 10.55 17.44 12.4 25.75 2.37 10.62.28 22.34-6.2 34.84-4.39 8.44-10.67 17.08-18.7 25.67"/><path d="M136.73 94.45c-1.8 0-7.73-.2-14.8-2.7-7.8-2.77-18.63-8.96-25.89-22.78l.48-.25c7.17 13.66 17.86 19.78 25.56 22.5a46 46 0 0 0 14.87 2.7c-2.92-17.46.54-31.01 3.97-39.32 3.75-9.07 8.28-14.04 8.32-14.09l.4.36c-.05.05-4.52 4.97-8.23 13.96-3.42 8.29-6.87 21.84-3.88 39.3l.05.3-.3.01z"/><path d="m150.1 116.54-.16-.1c-.1-.05-9.63-5.36-20.23-8.83-10.54-3.45-28.37 2.32-28.55 2.38l-.17-.51c.18-.06 18.18-5.89 28.9-2.38a130 130 0 0 1 20.14 8.79c6.1-5.74 10.33-18.61 12.23-37.25 1.45-14.23 1.03-26.91 1.03-27.04l.53-.02c0 .13.42 12.85-1.03 27.11-1.95 19.2-6.17 31.88-12.54 37.72z"/><path d="m149.14 157.12.03-.53a22.3 22.3 0 0 0-3.85-14.5q-3.53-5.04-10.01-8.65a50 50 0 0 0-15.1-5.24l.07-.53a51 51 0 0 1 15.27 5.3c6.8 3.76 14.74 10.81 14.19 23.11 1.78-1.21 8.68-6.1 16.46-14 8.3-8.42 19.35-22.08 24.79-39.35l10.56-33.53.52.16-10.57 33.53c-5.47 17.37-16.57 31.11-24.93 39.58-9.04 9.17-16.9 14.31-16.98 14.36z"/></g><path fill="#8DBFE3" d="M134.41 176.5c13.67-.04 31.08-2.03 47.7-9.72 4.23-1.96 30.43-14.08 27.2-25.99-1.14-4.2-4.96-4.82-6.58-10.4-1.92-6.62 2.23-9.97 5.04-18.27 1.68-4.95 6.6-19.43-2.16-27.34-5.24-4.73-15.12-6.89-22.6-5.07-10.98 2.67-14.66 13.38-20.57 31.61-5.23 16.17-3.8 20.1-7.78 31.68-2.95 8.59-8.55 20.43-20.25 33.5"/><mask id="b" width="77" height="98" x="134" y="79" maskUnits="userSpaceOnUse" style="mask-type:luminance"><path fill="#fff" d="M134.41 176.5c13.67-.04 31.08-2.03 47.7-9.72 4.23-1.96 30.43-14.08 27.2-25.99-1.14-4.2-4.96-4.82-6.58-10.4-1.92-6.62 2.23-9.97 5.04-18.27 1.68-4.95 6.6-19.43-2.16-27.34-5.24-4.73-15.12-6.89-22.6-5.07-10.98 2.67-14.66 13.38-20.57 31.61-5.23 16.17-3.8 20.1-7.78 31.68-2.95 8.59-8.55 20.43-20.25 33.5"/></mask><g fill="#fff" mask="url(#b)" opacity=".5"><path d="M99.3 184.23a95 95 0 0 1-23.4-3.03l.13-.52c15 3.82 29.57 4.01 43.3.57 18.28-4.59 34.06-15.68 46.91-32.98 13.4-18 20.24-38.23 23.63-52.03 2.35-9.55 1.77-20.1-1.71-31.33l.51-.16c3.52 11.33 4.1 21.97 1.73 31.62-3.4 13.84-10.28 34.14-23.72 52.22-12.93 17.4-28.82 28.56-47.22 33.18a83 83 0 0 1-20.16 2.46"/><path d="m180.87 123.73-.16-.18a56 56 0 0 1-7.1-12.01c-2.92-6.69-5.83-16.96-3.05-27.9l.52.13c-2.74 10.8.13 20.93 3.02 27.54a57 57 0 0 0 6.87 11.7c28.82-19.07 28.32-40.56 27.47-46.7l-.03-.3h.54-.27.27l.03.23c.85 6.23 1.37 28.08-27.91 47.36z"/><path d="M177.08 149.13a77 77 0 0 1-10.43-.73l-.15-.02-.06-.13c-.08-.17-8.05-16.8-6.57-39.53l1.5-22.92.54.03-1.5 22.93c-1.4 21.53 5.72 37.54 6.46 39.12 9.8 1.33 23.94 1.42 35.82-5.51 7.12-4.16 10.08-8.93 10.1-8.98l.47.28c-.03.05-3.06 4.93-10.3 9.16-5.27 3.08-13.7 6.3-25.88 6.3"/></g><path fill="#B9D8F6" d="M142.45 182.63c-.03-1.38-.11-9.54 5.92-14.54 5.04-4.18 11.63-3.88 13.15-3.8 6.15.28 7.67 3.11 11.45 1.82 4.49-1.53 4.8-6.37 8.38-6.49 2.47-.07 4.94 2.14 5.7 4.44 1.33 4.02-2.3 9.23-6.53 11.29-5.83 2.84-9.65-1.84-16.53 1.03-4 1.66-3.92 3.75-8.11 5.6-4.87 2.17-9.9 1.54-13.43.65"/><mask id="c" width="46" height="25" x="142" y="159" maskUnits="userSpaceOnUse" style="mask-type:luminance"><path fill="#fff" d="M142.45 182.63c-.03-1.38-.11-9.54 5.92-14.54 5.04-4.18 11.63-3.88 13.15-3.8 6.15.28 7.67 3.11 11.45 1.82 4.49-1.53 4.8-6.37 8.38-6.49 2.47-.07 4.94 2.14 5.7 4.44 1.33 4.02-2.3 9.23-6.53 11.29-5.83 2.84-9.65-1.84-16.53 1.03-4 1.66-3.92 3.75-8.11 5.6-4.87 2.17-9.9 1.54-13.43.65"/></mask><g fill="#fff" mask="url(#c)" opacity=".5"><path d="m140.53 185.7-.21-.17a85 85 0 0 1 6.7-7.7c4.78-4.87 7.18-7.32 10.1-8.34 3.8-1.33 6.76-.25 9.63.78 2.54.92 4.94 1.8 7.81 1.02 4.56-1.24 8.23-6.21 10.9-14.8l.25.08c-2.7 8.68-6.43 13.72-11.08 14.97-2.95.8-5.4-.08-7.97-1.01-2.82-1.03-5.74-2.08-9.45-.78-2.86 1-5.24 3.42-10 8.26a84 84 0 0 0-6.68 7.69"/><path d="M180.22 172.17q-.75 0-1.34-.07a9 9 0 0 1-3.33-.91l-.04-.03-.02-.04c-1.9-4.7 1.18-11.49 1.22-11.55l.24.1c-.03.08-3.05 6.71-1.23 11.3.46.25 4.95 2.43 12.39-.98l.1.25a19 19 0 0 1-8 1.93m-8.28 7.24c-1.98-5.6-14.68-9.62-14.8-9.66l-.12-.04.03-.12q.62-3.07 6.77-4.2c3.01-.56 5.95-.53 5.98-.53v.27c-.12 0-11.39-.11-12.47 4.4a53 53 0 0 1 6.6 2.7q6.96 3.47 8.26 7.1z"/><path d="M163.65 181.56c-3.44-8-15.85-4.08-15.98-4.03l-.15.04-.02-.15c-1.12-7.6 5.74-14.49 5.8-14.56l.2.2c-.07.06-6.74 6.76-5.76 14.16 1.46-.43 12.83-3.5 16.15 4.24z"/></g><path fill="#26264F" d="M217.95 188.2 6.43 186.4v5.31c0 1.45.93 2.67 2.18 2.9l59.8 10.46q1.08.18 2.15.1l145.1-11.94c1.29-.1 2.3-1.33 2.3-2.82z"/><path fill="#26264F" d="M141.2 179.68 8.61 189.4a4 4 0 0 1-4.3-4.13V86.9a4.4 4.4 0 0 1 4.3-4.44H141.2c1.96 0 3.54 1.8 3.54 4.02v88.92c0 2.22-1.58 4.13-3.54 4.28"/><path fill="#444B8C" d="M143.3 179.68 10.74 189.4a4 4 0 0 1-4.3-4.13V86.9a4.4 4.4 0 0 1 4.3-4.44h132.58c1.95 0 3.53 1.8 3.53 4.02v88.92c0 2.22-1.58 4.13-3.53 4.28"/><path fill="#8DBFE3" d="M139.18 173.4 15.7 181.86a3.3 3.3 0 0 1-3.5-3.39V92.35c0-2 1.57-3.63 3.5-3.64l123.48-.53c1.61 0 2.91 1.47 2.91 3.3v78.43c0 1.83-1.3 3.4-2.91 3.5"/><path fill="#fff" d="M81.7 85.15c0 .91-.68 1.65-1.52 1.66-.85 0-1.53-.74-1.53-1.66s.68-1.66 1.53-1.66c.84 0 1.52.74 1.52 1.66"/><path fill="#fff" d="m10.73 189.4 131.9-9.67.68-.05c.9-.07 1.71-.51 2.33-1.18-9.49-.52-15.38-3.87-19.19-7.34-7.64-6.97-6.31-13.84-14.55-18.41-10.27-5.72-18.35 1.52-26.14-5.62-4.73-4.33-2.4-7.56-8.22-14.03-6.44-7.16-10.64-4.75-17.1-11.2-8.2-8.15-4.1-14.5-11.15-20.35-8.55-7.1-17.78-.53-25.92-7.34-3.5-2.94-5.44-7.21-6.44-11.75h-6.2a4.4 4.4 0 0 0-4.3 4.44v98.37c0 2.46 1.93 4.3 4.3 4.13" opacity=".48"/><path fill="#444B8C" d="M148.6 179.14 6.42 189.37l61.99 10.85q1.06.2 2.14.1l147.4-12.12-67.1-9a11 11 0 0 0-2.27-.06"/><path fill="#26264F" d="m27.18 189.46 118.35-8.65 36.63 4.87-117.33 9.24z"/><path fill="#F3F5F9" d="M159.77 153.24c0 10.88-8.91 20.27-20.06 20.98l-124.14 7.85c13.13-.83 23.61-11.06 23.61-22.86V23.45l120.59 4.6z"/><path fill="#80A9F9" d="m55.06 102.6-7.38-.01V47.9l7.4.21zm14.6.04-7.55-.02.03-37.23 7.56.15zm14.13.04-7.46-.02.07-46.77 7.46.19zm13.92.03-6.8-.01.07-36.98 6.82.14zm14.28.04-7.52-.02.07-26.56 7.53.12zm13.29.04-6.63-.02.17-52.81 6.64.19zm13.89.03-7.06-.02.06-15.66 7.06.08zm13.19.03-6.96-.01.18-41.87 6.97.16zm-.08 15.74-104.6.56v-5.34l104.63-.3zm-.18 38.98L47.68 160.2v-5.33l104.44-2.35zM97.86 38.6l-50.17-1.71v-5.65l50.18 1.85z"/><path fill="#80A9F9" d="M87.04 126.01 87 145.63l-40.74.75v-20z" opacity=".5"/><path fill="#80A9F9" d="M46.26 138.06v8.32l40.74-.75.03-15.27c-2.47-.83-5.2-1.27-7.36.1-4.5 2.85-3.95 4.47-8.63 3.72-3.66-.6-7.73-1.13-10.86 1.25-1.94 1.47-2.94 3.04-5.72 2.84-2.62-.18-5.78-1.9-8.2-.21m105.97-9.08-55.39.6v-3.66l55.41-.49zm-.03 7.6-55.38.8.01-3.38 55.38-.71zm-.04 7.84-55.36 1.03.01-3.64 55.37-.93z"/><path fill="#444B8C" d="m197.91 127.08.34-1a2.93 2.93 0 0 0-1.98-3.75l-63.9-19.4-1.94 6.58L194 129.02c1.63.5 3.38-.37 3.91-1.94"/><path fill="#444B8C" d="M68.87 85.12c4.89-19.23 24.03-30.82 42.97-25.4 19.28 5.54 30.32 26.36 24.46 45.98-5.72 19.16-25.34 29.5-43.65 23.59-17.99-5.81-28.55-25.37-23.78-44.17M130.74 104c4.84-16.42-4.4-33.81-20.5-38.48-15.86-4.6-31.97 5.05-36.13 21.2-4.07 15.84 4.83 32.35 20.02 37.21 15.42 4.93 31.86-3.83 36.61-19.93"/><path fill="#D8DEE8" d="m132.37 102.94 8.15 2.47c.56 2.59 1.65 4.07 2.74 4.98 4.12 3.4 9.61-.31 17.28 3.67 3.85 2 3.11 3.28 6.72 4.67 5.96 2.3 8.7-.89 13.97 1.21 5.33 2.13 5.86 6.72 8.89 6.55 1.3-.07 2.96-1 4.82-4.56l1.33.4a2.93 2.93 0 0 1 1.98 3.76l-.34.99a3.16 3.16 0 0 1-3.9 1.94l-63.58-19.5z" opacity=".3"/><path fill="#fff" d="M92.62 126.56c15.95 5.11 32.97-3.94 37.9-20.6 5.02-17-4.54-35.02-21.22-39.85-16.42-4.75-33.1 5.25-37.38 21.97-4.21 16.38 5 33.45 20.7 38.48" opacity=".56"/><path fill="#444B8C" d="M67.64 86.77c4.88-19.23 24.03-30.82 42.96-25.4 19.28 5.54 30.32 26.36 24.46 45.98-5.72 19.16-25.34 29.5-43.64 23.59-18-5.81-28.56-25.38-23.79-44.17m61.87 18.88c4.84-16.42-4.4-33.81-20.5-38.48-15.86-4.6-31.97 5.05-36.13 21.2-4.07 15.84 4.83 32.35 20.02 37.21 15.42 4.93 31.86-3.83 36.61-19.93"/><path fill="#444B8C" d="M69.49 87.33c4.63-18.14 22.7-29.04 40.55-23.9 18.15 5.23 28.55 24.83 23.05 43.32-5.37 18.08-23.87 27.86-41.15 22.3-17-5.48-26.99-23.96-22.45-41.72m60.01 18.32c4.84-16.42-4.4-33.81-20.5-38.48-15.85-4.6-31.97 5.05-36.12 21.2-4.08 15.84 4.82 32.35 20.01 37.21 15.42 4.93 31.87-3.83 36.61-19.93"/></svg>