<svg xmlns="http://www.w3.org/2000/svg" width="100" height="100" fill="none"><g clip-path="url(#a)"><path fill="#76879C" d="M65.64 24.2c.37-.22.9-.2 1.47.14L94.04 39.9a4.5 4.5 0 0 1 2.06 3.57L96 74.43q-.01 1-.6 1.33l3.9-2.27q.59-.33.61-1.32L100 41.2c0-1.31-.92-2.91-2.06-3.57L71.01 22.07c-.57-.33-1.1-.36-1.47-.14z"/><path fill="#5A667A" d="m100 41.2-.09 30.97c0 .65-.24 1.1-.6 1.32l-3.9 2.28c.37-.22.6-.68.6-1.34l.1-30.96c0-1.3-.93-2.91-2.07-3.57l3.9-2.27A4.6 4.6 0 0 1 100 41.2"/><path fill="#ABBBC6" d="M64.95 56.49c0 1.31.91 2.9 2.06 3.57l26.93 15.56c1.14.66 2.07.13 2.07-1.19l.09-30.96c0-1.31-.92-2.91-2.06-3.57L67.1 24.34c-1.14-.66-2.07-.13-2.07 1.18z"/><path fill="#76879C" d="M68.6 57.32a1.6 1.6 0 0 1-.48-.82l.07-27.87 24.26 14.02c.2.15.44.56.48.76v.02l-.08 27.9zm22.93-13.84-22.15-12.8-.08 25.43c.02.08.18.34.22.37l22.15 12.8.07-25.45a2 2 0 0 0-.21-.35"/><path fill="#76879C" d="m73.72 54.76 12.79 7.38c3.12-3.11 3.14-9.78.04-16.49l-12.78-7.4c-3.12 3.13-3.15 9.8-.05 16.5"/><path fill="#DBE9F3" d="m77.57 42.71 4.87 2.81v3.02l-4.87-2.81zm0 9.23 4.87 2.8v3.02l-4.87-2.8z"/><path fill="#fff" d="M69.33 48.8v.59c0-.4.8-.58 1.26-.3q.22.13.22.3v-.58c0-.4-.82-.56-1.26-.31q-.22.14-.22.3"/><path fill="#C9CEE2" d="M72.84 48.35v.58c0 .24.38-.14-11.3 6.64a.8.8 0 0 1-.72 0l-1.46-.85q-.15-.08-.15-.2v-.58q0 .11.15.21l1.46.85a.8.8 0 0 0 .73 0l11.13-6.44q.16-.08.16-.2"/><path fill="#F3F1FC" d="m72.68 48.15-1.45-.85a.8.8 0 0 0-.74 0l-11.13 6.43c-.21.1-.2.3 0 .42l1.46.85a.8.8 0 0 0 .73 0l11.13-6.44c.2-.11.2-.3 0-.41m-3.13.96c-.3-.17-.3-.44 0-.61.29-.16.75-.16 1.04 0 .69.41-.37 1-1.04.6"/><path fill="#fff" d="M69.33 60.1v.57q0-.17.23-.31c.44-.26 1.25-.07 1.25.3v-.57c0-.4-.82-.56-1.26-.3q-.22.14-.22.3"/><path fill="#C9CEE2" d="M72.84 59.63v.59c0 .23.38-.15-11.3 6.64a.8.8 0 0 1-.72 0L59.36 66q-.15-.1-.15-.21v-.58q0 .11.15.22l1.46.85a.8.8 0 0 0 .73 0l11.13-6.44q.16-.1.16-.22"/><path fill="#F3F1FC" d="m72.68 59.43-1.45-.85a.8.8 0 0 0-.74 0L59.36 65c-.21.11-.2.3 0 .42l1.46.85a.8.8 0 0 0 .73 0l11.13-6.43c.2-.12.2-.3 0-.42m-3.13.96c-.3-.17-.3-.44 0-.6.29-.17.75-.17 1.04 0 .69.4-.37 1-1.04.6"/><path fill="#3D4449" d="m61.96 71.39-2.99-1.74v-2.7l2.99 1.74zm-.01-5.92-3-1.74-.03-10.93 3 1.74z"/><path fill="#4F575F" d="m51.98 67.93-3-1.74 9.97-2.46 3 1.74z"/><path fill="#3D4449" d="m61.9 51.32-2.99-1.75v-2.7l2.99 1.74z"/><path fill="#4F575F" d="m61.9 48.61-3-1.74 2.69-1.55 3 1.74zm-9.95 11.74-2.99-1.74 9.95-9.04 3 1.74z"/><path fill="#4F575F" d="m49.26 60.02-2.99-1.74 2.68-1.55 3 1.74z"/><path fill="#3D4449" d="m49.3 74.59-2.99-1.74-.04-14.57 3 1.74z"/><path fill="#2A3134" d="m61.9 48.61 2.68-1.55.07 22.78-2.69 1.55v-2.7l-9.98 2.47v1.88l-2.67 1.55-.05-14.57 2.69-1.55v1.89l9.96-9.04zm.05 16.86-.03-10.93-9.96 9.04.01 4.35z"/><path fill="#4F575F" d="m48.5 67.83-1.1.64q.34-.2.36-.78c0-1.23-1.33-2.64-2.08-2.18l1.1-.64q.33-.2.86.08c1.07.61 1.63 2.44.86 2.88"/><path fill="#2A3134" d="M46.54 65.6a2.7 2.7 0 0 1 1.21 2.1c0 .76-.55 1.08-1.21.7a2.7 2.7 0 0 1-1.22-2.12c0-.77.55-1.08 1.22-.69"/><path fill="#ABBBC6" d="M77.58 42.72v3l2.55-1.53zm0 9.22v3.01l2.55-1.53z"/><path fill="#A6B4BE" d="M27.85 100c-4.66 0-8.43-2.77-9.7-6.21-.83-2.28-.83-5.77-.57-8.06a1.04 1.04 0 0 1 2.07.24c-.24 2.15-.2 5.3.46 7.1.87 2.38 3.39 4.28 6.26 4.73 5.42.85 11.06-2.87 12.38-9.26.5-2.36.39-4.08.12-8.6-.21-3.47-3.87-11.68 6.8-13.6a1.04 1.04 0 0 1 1.37 1.36 1 1 0 0 1-.58.56c-8.96.74-5.7 8.4-5.5 11.54.23 4.05.4 6.4-.17 9.16C39.41 95.62 33.93 100 27.85 100"/><path fill="#4F575F" d="M25.84 76.32 25.8 85c0 1.04-.68 2.07-2.04 2.86-4.36 2.54-12.01.75-12-2.9l.02-8.67c0 3.65 7.64 5.44 12 2.9 1.37-.8 2.05-1.82 2.05-2.86"/><path fill="#DBE6FA" d="m29.59 66.83-.04 13.3c-.01 5.53-11.6 8.28-18.35 4.38-2.13-1.23-3.19-2.84-3.18-4.44l.03-13.3c0 1.6 1.06 3.22 3.18 4.44 4.22 2.44 11.04 2.44 15.23 0 2.08-1.2 3.12-2.8 3.13-4.38"/><path fill="#BBCFEF" d="M29.55 76.9c.15 1.76-1.07 3.3-2.51 4.33-4.84 3.48-14.19 2.95-17.82-1.22a4.4 4.4 0 0 1-1.2-3.17c.53 6.25 14.9 7.82 20.02 2.93a4.5 4.5 0 0 0 1.51-2.87"/><path fill="#BBCFEF" d="M29.55 74.02c.1 1.15-.43 2.3-1.2 3.17-4.11 4.65-15.1 4.58-19.14-.05a4.4 4.4 0 0 1-1.18-3.18c.52 6.21 14.87 7.85 20.01 2.94a4.5 4.5 0 0 0 1.51-2.88"/><path fill="#BBCFEF" d="M29.55 71.14c.1 1.15-.43 2.3-1.2 3.17-4.12 4.67-15.1 4.57-19.14-.05a4.4 4.4 0 0 1-1.18-3.18c.53 6.3 14.92 7.8 20.01 2.94a4.5 4.5 0 0 0 1.51-2.88"/><path fill="#ECF0F1" d="M26.41 62.97c4.22 2.44 4.24 6.4.05 8.83-4.2 2.44-11 2.44-15.23 0-4.22-2.44-4.24-6.39-.04-8.83 4.19-2.43 11-2.43 15.22 0"/><path fill="#3D4449" d="m37.59 54.67-.83 11.27c-.2 2.4-2.07 4.76-5.58 6.52-6.88 3.48-17.79 3.48-24.72 0C2.89 70.67.97 68.28.8 65.85v-.09L.02 54.8 0 54.56l.03.25c.3 2.57 2.3 5.08 5.9 6.96 7.25 3.78 18.62 3.78 25.8 0 2.86-1.5 5.6-3.9 5.85-7.1"/><path fill="#4F575F" d="M32.46 47.01c7.23 4.26 6.72 10.86-.71 14.76-7.2 3.78-18.56 3.78-25.8 0-7.47-3.9-8.06-10.5-.88-14.76 7.43-4.4 19.9-4.4 27.39 0"/><path fill="#2A3134" d="M23.34 54.26c2.06 0 3.73-.96 3.73-2.16s-1.67-2.16-3.73-2.16-3.73.97-3.73 2.16 1.67 2.16 3.73 2.16m-8.84 0c2.05 0 3.72-.96 3.72-2.16s-1.67-2.16-3.72-2.16-3.73.97-3.73 2.16 1.67 2.16 3.73 2.16"/><path fill="#ABBFCA" d="M11.6 7.28v44.6c.08 1.96 3.23 2.67 5.03 1.63.68-.38 1.08-.98 1.1-1.66V7.28a1.2 1.2 0 0 1 2.03-.85q.34.36.35.85l.03 44.86c.24 1.26 1.75 1.85 3.05 1.85s2.81-.6 3.02-1.88l.03-44.46c0-2.73-1.03-4.72-2.54-5.98l-1.55.58.35 2.25-.86-.27L20.5 5.5l-.59-1.81-.86-.27L17 5l.5-1.97-1-.53 1-1.4V.11a6.95 6.95 0 0 0-5.9 7.16"/><path fill="#2A3134" d="M23.52 63.36c2.06 0 3.73-.97 3.73-2.16s-1.67-2.16-3.73-2.16-3.73.96-3.73 2.16 1.67 2.16 3.73 2.16m8.56-6.06c2.06 0 3.73-.96 3.73-2.16s-1.67-2.16-3.73-2.16-3.72.97-3.72 2.16 1.67 2.16 3.72 2.16m-26.51 0c2.06 0 3.73-.96 3.73-2.16s-1.67-2.16-3.73-2.16-3.73.97-3.73 2.16 1.67 2.16 3.73 2.16m8.23 6.06c2.06 0 3.73-.97 3.73-2.16s-1.67-2.16-3.73-2.16-3.72.96-3.72 2.16 1.66 2.16 3.72 2.16"/><path fill="#D7E5EF" d="M20.56 15.86v44.5c.02.66.4 1.24 1.1 1.64.56.33 1.26.49 1.97.49s1.4-.16 1.96-.49a2 2 0 0 0 1.1-1.67V15.86a1.2 1.2 0 0 1 2.03-.84c.22.22.35.53.35.84v38.66c.02.64.41 1.24 1.1 1.64 1.83 1.06 5 .32 5.02-1.67V21l-4.19.5 4.2-6.83-3.7 1.83 2-3.5-2.5.5 1.74-3.17c-4.17-3.6-12.18-1.56-12.18 5.53M2 18l2 2.5L6 22l-2.5 3.5 2 3.5-2-1.5L2.42 30v24.5c.02 1.98 3.18 2.72 5.03 1.65.68-.4 1.08-1 1.1-1.66V15.86a1.2 1.2 0 0 1 2.02-.83q.35.35.36.83v44.49c.02 1.99 3.19 2.71 5.03 1.65.68-.4 1.08-1 1.1-1.67V15.86c0-5.34-4.5-7.8-8.52-7.2L8 12.5 6 9.54l1 6.7-3.79-3.74 1.29 3.36z"/></g><defs><clipPath id="a"><path fill="#fff" d="M0 0h100v100H0z"/></clipPath></defs></svg>