<svg xmlns="http://www.w3.org/2000/svg" width="100" height="100" fill="none"><g clip-path="url(#a)"><path fill="#FFB63C" d="M69.58 47.72v3l2.55-1.53z"/><path fill="#804F59" d="M57.64 29.2c.37-.22.9-.2 1.47.14L86.04 44.9a4.5 4.5 0 0 1 2.06 3.57L88 79.43q-.01 1-.6 1.33l3.9-2.27q.59-.33.61-1.32L92 46.2c0-1.31-.92-2.91-2.06-3.57L63.01 27.07c-.57-.33-1.1-.36-1.47-.14z"/><path fill="#613941" d="m92 46.2-.09 30.97c0 .65-.24 1.1-.6 1.32l-3.9 2.28c.37-.22.6-.68.6-1.34l.1-30.96c0-1.3-.93-2.91-2.07-3.57l3.9-2.27A4.6 4.6 0 0 1 92 46.2"/><path fill="#FFB63C" d="M56.95 61.49c0 1.31.91 2.9 2.06 3.57l26.93 15.56c1.14.66 2.07.13 2.07-1.19l.09-30.96c0-1.31-.92-2.91-2.06-3.57L59.1 29.34c-1.14-.66-2.07-.13-2.07 1.19z"/><path fill="#804F59" d="M60.6 62.32a1.7 1.7 0 0 1-.49-.82l.08-27.87 24.26 14.02c.2.15.44.56.48.76v.02l-.08 27.9zm22.93-13.84-22.15-12.8-.08 25.43c.02.08.18.34.22.37l22.15 12.8.07-25.45a2 2 0 0 0-.21-.35"/><path fill="#804F59" d="m65.72 59.76 12.79 7.38c3.12-3.11 3.14-9.78.04-16.49l-12.78-7.4c-3.12 3.13-3.15 9.8-.05 16.5"/><path fill="#FFDE9B" d="m69.57 47.71 4.87 2.81v3.02l-4.87-2.81zm0 9.23 4.87 2.8v3.02l-4.87-2.8z"/><path fill="#C9CEE2" d="M73.5 49.98c-1.67.96-4.18 2.4-7.95 4.6a.8.8 0 0 1-.73 0l-1.46-.86q-.15-.09-.15-.2v-.58q0 .11.14.21l1.47.85a.8.8 0 0 0 .73 0L73 49.69z"/><path fill="#F3F1FC" d="m70.8 48.43-7.44 4.3c-.21.1-.2.3 0 .42l1.46.85a.8.8 0 0 0 .73 0L73 49.7z"/><path fill="#C9CEE2" d="M74.44 60.73c-1.62.93-4.34 2.48-8.9 5.13a.8.8 0 0 1-.72 0L63.36 65q-.15-.1-.15-.21v-.58q0 .11.15.22l1.46.85a.8.8 0 0 0 .73 0l8.89-5.15z"/><path fill="#F3F1FC" d="m72.58 58.68-9.22 5.33c-.21.11-.2.3 0 .42l1.46.85a.8.8 0 0 0 .73 0l8.9-5.14v-.4z"/><path fill="#3D4449" d="m65.96 70.39-2.99-1.74v-2.7l2.99 1.74zm-.01-5.92-3-1.74-.03-10.93 3 1.74z"/><path fill="#4F575F" d="m55.98 66.93-3-1.74 9.97-2.46 3 1.74z"/><path fill="#3D4449" d="m65.9 50.32-2.99-1.75v-2.7l2.99 1.74z"/><path fill="#4F575F" d="m65.9 47.61-3-1.74 2.69-1.55 3 1.74zm-9.95 11.74-2.99-1.74 9.95-9.04 3 1.74z"/><path fill="#4F575F" d="m53.26 59.02-2.99-1.74 2.68-1.55 3 1.74z"/><path fill="#3D4449" d="m53.3 73.59-2.99-1.74-.04-14.57 3 1.74z"/><path fill="#2A3134" d="m65.9 47.61 2.68-1.55.07 22.78-2.69 1.55v-2.7l-9.98 2.47v1.88l-2.68 1.55-.04-14.57 2.69-1.55v1.89l9.96-9.04zm.05 16.86-.03-10.93-9.96 9.04.01 4.35z"/><path fill="#4F575F" d="m52.5 66.83-1.1.64q.34-.2.36-.78c0-1.23-1.33-2.64-2.08-2.18l1.1-.64q.33-.2.86.08c1.07.61 1.63 2.44.86 2.88"/><path fill="#2A3134" d="M50.54 64.6a2.7 2.7 0 0 1 1.21 2.1c0 .76-.55 1.08-1.21.7-.68-.4-1.22-1.34-1.22-2.12s.55-1.08 1.22-.69"/><path fill="#FFB63C" d="M69.58 56.94v3.01l2.55-1.53z"/><path fill="#49E4A3" d="M27.85 100c-4.66 0-8.43-2.77-9.7-6.21-.83-2.28-.83-5.77-.57-8.06a1.04 1.04 0 0 1 2.07.24c-.24 2.15-.2 5.3.46 7.1.87 2.38 3.39 4.28 6.26 4.73 5.42.85 11.06-2.87 12.38-9.26.5-2.36.39-4.08.12-8.6-.21-3.47-.6-9.92 10.8-14.6a1.04 1.04 0 0 1 1.37 1.36 1 1 0 0 1-.58.56c-10.02 4.12-9.7 9.4-9.5 12.54.23 4.05.4 6.4-.17 9.16C39.41 95.62 33.93 100 27.85 100"/><path fill="#4F575F" d="M25.84 76.32 25.8 85c0 1.04-.68 2.07-2.04 2.86-4.36 2.54-12.01.75-12-2.9l.02-8.67c0 3.65 7.64 5.44 12 2.9 1.37-.8 2.05-1.82 2.05-2.86"/><path fill="#DBE6FA" d="m29.59 66.83-.04 13.3c-.01 5.53-11.6 8.28-18.35 4.38-2.13-1.23-3.19-2.84-3.18-4.44l.03-13.3c0 1.6 1.06 3.22 3.18 4.44 4.22 2.44 11.04 2.44 15.23 0 2.08-1.2 3.12-2.8 3.13-4.38"/><path fill="#BBCFEF" d="M29.55 76.9c.15 1.76-1.07 3.3-2.51 4.33-4.84 3.48-14.19 2.95-17.82-1.22a4.4 4.4 0 0 1-1.2-3.17c.53 6.25 14.9 7.82 20.02 2.93a4.5 4.5 0 0 0 1.51-2.87"/><path fill="#BBCFEF" d="M29.55 74.02c.1 1.15-.43 2.3-1.2 3.17-4.11 4.65-15.1 4.58-19.14-.05a4.4 4.4 0 0 1-1.18-3.18c.52 6.21 14.87 7.85 20.01 2.94a4.5 4.5 0 0 0 1.51-2.88"/><path fill="#BBCFEF" d="M29.55 71.14c.1 1.15-.43 2.3-1.2 3.17-4.12 4.67-15.1 4.57-19.14-.05a4.4 4.4 0 0 1-1.18-3.18c.53 6.3 14.92 7.8 20.01 2.94a4.5 4.5 0 0 0 1.51-2.88"/><path fill="#ECF0F1" d="M26.41 62.97c4.22 2.44 4.24 6.4.05 8.83-4.2 2.44-11 2.44-15.23 0-4.22-2.44-4.24-6.39-.04-8.83 4.19-2.43 11-2.43 15.22 0"/><path fill="#3D4449" d="m37.59 54.67-.83 11.27c-.2 2.4-2.07 4.76-5.58 6.52-6.88 3.48-17.79 3.48-24.72 0C2.89 70.67.97 68.28.8 65.85v-.09L.02 54.8 0 54.56l.03.25c.3 2.57 2.3 5.08 5.9 6.96 7.25 3.78 18.62 3.78 25.8 0 2.86-1.5 5.6-3.9 5.85-7.1"/><path fill="#4F575F" d="M32.46 47.01c7.23 4.26 6.72 10.86-.71 14.76-7.2 3.78-18.56 3.78-25.8 0-7.47-3.9-8.06-10.5-.88-14.76 7.43-4.4 19.9-4.4 27.39 0"/><path fill="#2A3134" d="M23.34 54.26c2.06 0 3.73-.96 3.73-2.16s-1.67-2.16-3.73-2.16-3.73.97-3.73 2.16 1.67 2.16 3.73 2.16m-8.84 0c2.05 0 3.72-.96 3.72-2.16s-1.67-2.16-3.72-2.16-3.73.97-3.73 2.16 1.67 2.16 3.73 2.16"/><path fill="#FFB42F" d="M11.6 7.28v44.6c.08 1.96 3.23 2.67 5.03 1.63.68-.38 1.08-.98 1.1-1.66V7.28a1.2 1.2 0 0 1 2.03-.85q.34.36.35.85l.03 44.86c.24 1.26 1.75 1.85 3.05 1.85s2.81-.6 3.02-1.88l.03-44.46c0-10.32-14.64-9.95-14.64-.37"/><path fill="#2A3134" d="M23.52 63.36c2.06 0 3.73-.97 3.73-2.16s-1.67-2.16-3.73-2.16-3.73.96-3.73 2.16 1.67 2.16 3.73 2.16m8.56-6.06c2.06 0 3.73-.96 3.73-2.16s-1.67-2.16-3.73-2.16-3.72.97-3.72 2.16 1.67 2.16 3.72 2.16m-26.51 0c2.06 0 3.73-.96 3.73-2.16s-1.67-2.16-3.73-2.16-3.73.97-3.73 2.16 1.67 2.16 3.73 2.16m8.23 6.06c2.06 0 3.73-.97 3.73-2.16s-1.67-2.16-3.73-2.16-3.72.96-3.72 2.16 1.66 2.16 3.72 2.16"/><path fill="#FFCA5F" d="M20.56 15.86v44.5c.02.66.4 1.24 1.1 1.64.56.33 1.26.49 1.97.49s1.4-.16 1.96-.49a2 2 0 0 0 1.1-1.67V15.86a1.2 1.2 0 0 1 2.03-.84c.22.22.35.53.35.84v38.66c.02.64.41 1.24 1.1 1.64 1.83 1.06 5 .32 5.02-1.67V16.23c0-10.32-14.63-9.95-14.63-.37m-18.14.37V54.5c.02 1.98 3.18 2.72 5.03 1.65.68-.4 1.08-1 1.1-1.66V15.86a1.2 1.2 0 0 1 2.02-.83q.35.35.36.83v44.49c.02 1.98 3.19 2.71 5.03 1.65.68-.4 1.08-1 1.1-1.67V15.86c0-9.62-14.64-9.92-14.64.37"/></g><defs><clipPath id="a"><path fill="#fff" d="M0 0h100v100H0z"/></clipPath></defs></svg>