<svg xmlns="http://www.w3.org/2000/svg" width="110" height="108" fill="none"><path fill="#3AC491" fill-rule="evenodd" d="M80.79 12.59C78 4.63 70.77 9.67 68.05 16.88c-2.57 6.82-7.52 32.07-13.04 41.08l2.17 1.02c11.04-9.68 27.16-36.2 23.6-46.4" clip-rule="evenodd"/><path fill="#1D8C63" fill-rule="evenodd" d="M56.4 58.6c14.2-16.76 20.13-46.38 20.16-46.48a.34.34 0 1 0-.67-.14c-.02.1-5.97 29.75-20.13 46.33zm28.64-24.7c6.54.18 4.51 6.7-.17 10.4-3.17 2.51-12.98 8.12-20.29 13.38-2.67 1.43-4.26 1.8-7.3 1l2.79-3.12C66.68 45.5 78.28 33.7 85.04 33.89" clip-rule="evenodd"/><path fill="#4ED0A0" fill-rule="evenodd" d="M61.68 56.32c10-11.25 24.65-19.38 24.7-19.41a.26.26 0 0 1 .26.46c-.06.03-14.56 8.08-24.47 19.18z" clip-rule="evenodd"/><path fill="#A1B7CF" d="m80.9 74.44-52.58 18L6.08 56.38C2.36 50.13-.35 41.1.04 36.23c.14-1.78.67-2.76 1.47-2.98 1.4-.39 3.6 1.51 5.96 5.47l.47.8 3.68 6.18a2.1 2.1 0 0 0 2.5.86l8.78-3 32.8-11.23a45 45 0 0 0 2.96 6.05z" opacity=".25"/><path fill="#F4F8FF" d="M81.31 73.68 28.55 92.5 7.68 53.83c-3.66-6.79-6.27-16.55-5.83-21.8.16-1.92.7-2.98 1.5-3.2v-.01c1.4-.4 3.58 1.68 5.9 5.98l.47.87h14.91v4.51l32.92-11.74a50 50 0 0 0 2.9 6.56l1.11 2.07z"/><path fill="#E4ECF9" d="M8.18 43.2a1.1 1.1 0 0 1-.37-2.11l44.96-16.11a1.1 1.1 0 0 1 1.38.66 1.1 1.1 0 0 1-.65 1.39L8.54 43.14q-.18.06-.36.06m3.76 10.22a1.1 1.1 0 0 1-.36-2.12l44.95-16.1a1.1 1.1 0 0 1 1.39.66c.2.57-.1 1.2-.66 1.4L12.3 53.34q-.18.07-.36.07m16.54 29.65a1.1 1.1 0 0 1-.36-2.12l44.96-16.1a1.1 1.1 0 0 1 1.38.65c.2.57-.1 1.2-.66 1.4L28.85 83q-.19.07-.37.07m-5.33-9.4a1.1 1.1 0 0 1-.36-2.11l44.96-16.12a1.1 1.1 0 0 1 1.38.67c.2.56-.1 1.19-.66 1.39L23.52 73.6q-.19.07-.37.07m-5.87-9.96a1.1 1.1 0 0 1-.36-2.12l44.96-16.11a1.1 1.1 0 0 1 1.38.66c.2.57-.1 1.19-.66 1.4l-44.96 16.1q-.18.07-.36.07"/><path fill="#919191" d="M107.37 69.42v-.08l-.02-.1-.04-.2-.04-.12a2 2 0 0 0-.24-.5l-.2-.26-.07-.08v-.01l-.1-.1h-.01l-23.72-22.2a2.1 2.1 0 0 0-2.56-.25L52.74 62.54l-.11.08h-.02a2.1 2.1 0 0 0-.92 1.55L48.81 93.1v.04l-.04.35v.45l.01.02v.02l.02.1v.03l.01.04.01.05.03.11.03.08.01.03.04.1v.01l.01.02.03.06.02.05.04.06.01.03.1.15.04.06.02.02.09.12.03.03.04.04q.08.09.17.16l.03.02.04.04.07.05.05.03.06.04.06.03.09.05h.01l.04.03.05.02h.02v.01l.13.05.03.01h.02l.02.01.08.02.03.01h.02l.04.02h.04l.08.02.11.01 51.5 5.19h.19l.02.01h.16l.05-.01h.06l.13-.03h.04l.04-.02h.04l.07-.03.05-.01.18-.07h.01l.04-.02.04-.02.05-.03h.02l.02-.02.08-.04h.01l.05-.04.04-.03.02-.01.01-.01.04-.03.04-.03.03-.02.02-.02.06-.05.06-.06.03-.03.08-.09.03-.04.02-.02.05-.06.03-.04.03-.04.03-.05.08-.13v-.01l.03-.05.02-.05.03-.05.01-.04.01-.02v-.01l.03-.07.01-.03v-.02l.02-.02v-.02l.02-.07.02-.08v-.03l.01-.02.01-.05.01-.05.01-.1.01-.1.02-.19 2.9-29.05v-.28z" opacity=".25"/><path fill="#C9DA2F" d="M109.25 70.08 104.8 99.2l-.02.1-.02.06v.05l-.01.02-.01.03-.02.07-.04.1-.01.03-.01.04-.03.06-.06.11-.03.06-.02.04-.01.02-.09.12-.03.05-.03.04-.03.03-.07.08-.04.05-.1.1-.08.06-.08.06-.04.03-.03.02-.05.03-.13.08-.1.05-.02.01-.05.02-.04.02-.05.02q-.15.06-.31.09h-.04l-.08.02-.2.02h-.23l-.07-.01-.11-.02-51.16-7.9-.11-.03-.08-.01-.08-.03-.05-.01-.11-.04-.04-.02-.12-.05-.07-.03-.3-.2-.07-.05-.07-.07a2 2 0 0 1-.62-1.05l-.02-.11-.02-.12-.01-.11v-.33l.02-.15 4.45-29.13a2.1 2.1 0 0 1 1-1.5h.01l.12-.07a2 2 0 0 1 1.26-.2l51.15 7.91.18.04q.07.01.13.04h.04l.14.06.26.13.16.11.09.07.14.12.1.1v.01l.07.08.05.07.19.3a2 2 0 0 1 .19.54l.04.3v.26l-.01.07z"/><path fill="#C9DA2F" d="m109.23 69.35-55.05-8.52q.28-.5.77-.8h.01l.12-.07 28.48-15.53a2.1 2.1 0 0 1 2.54.39l22.53 23.42.1.1v.01l.07.08.05.07.19.3q.1.2.16.42z"/><path fill="#DAE958" d="M79.25 81.15a1 1 0 0 1-.32.2L51.36 93.07l-.11-.02a2 2 0 0 1-.59-.18l-.07-.04a2 2 0 0 1-.96-1.06l-.04-.09-.03-.1a2 2 0 0 1-.06-.93l4.45-29.13a2.1 2.1 0 0 1 1-1.5h.01l.12-.07a2 2 0 0 1 1.26-.2q.47.07.83.39l1.64 1.4 18.45 15.8.7.6 1.32 1.13q.14.13.25.28a1.35 1.35 0 0 1-.28 1.79"/><path fill="#DAE958" d="M109.25 70.08 104.8 99.2l-.02.1-.02.06v.04l-.01.02-.01.03-.02.08-.03.07v.01l-.01.02-.01.03-.01.04-.03.06-.06.12-.03.05-.02.04-.01.02-.09.12q0 .02-.03.04l-.03.04-.03.04-.07.08-.04.04-.26.23-.04.03-.03.02-.05.03-.13.08-.1.05h-.02l-.1.05-.04.02-.31.09h-.04l-.08.02-.2.02h-.23l-.07-.01q-.06 0-.11-.02l-.12-.02L79.5 81.43a1 1 0 0 1-.25-.28 1.35 1.35 0 0 1 .28-1.79q.14-.11.32-.2l1.6-.67.83-.36 22.32-9.5 2.02-.86a1.5 1.5 0 0 1 .82-.1h.05l.18.04.13.03.04.01.14.06.26.13.16.1.09.07.14.13.1.1v.01l.07.08.05.07.19.3a2 2 0 0 1 .19.54l.04.3v.25l-.01.08z"/><path fill="#3E800E" d="m104.86 98.81-.05.3a2.15 2.15 0 0 1-2.4 1.86l-51.16-7.9a2.16 2.16 0 0 1-1.74-2.5l.05-.3 26.9-15.92c.9-.41 1.93-.25 2.66.42z" opacity=".15"/><path fill="#E6F370" d="m104.84 98.92-.04.29a2.1 2.1 0 0 1-2.4 1.76l-51.15-7.9a2.1 2.1 0 0 1-1.75-2.41l.04-.3 33.56-14.3a2.5 2.5 0 0 1 2.68.42z"/><path fill="#3A7EC1" d="M61.56 37.07 23.8 50.69a2.04 2.04 0 0 1-2.49-.96l-4.07-7.57c-2.32-4.3-4.5-6.38-5.9-5.98l1.43-.51h11.87v4.51l32.92-11.74a50 50 0 0 0 2.9 6.56z" opacity=".25"/><path fill="#BFD6EF" d="m9.25 34.8 4.08 7.57c.48.9 1.54 1.3 2.49.96l41.73-14.89 7.12-2.54a2.07 2.07 0 0 0 1.12-2.93l-3.77-7c-2.38-4.41-4.62-6.48-6-5.94H56L3.35 28.82c1.4-.4 3.58 1.68 5.9 5.98"/><path fill="#10BC7C" fill-rule="evenodd" d="M76.28 81.82c2.04 2.27 2.89 4.2 2.25 5.58-1.07 2.3-6.01 2.43-13.14.79-6.89-1.59-15.93-4.79-25.49-9.23a165 165 0 0 1-14.4-7.54 112 112 0 0 1-6.62-4.23c-.6-.41-.65-1.02-.45-1.22s.62-.03.62-.03a109 109 0 0 0 7.03 4.51c4.23 2.5 9.07 5.06 14.3 7.49 9.48 4.41 18.44 7.59 25.26 9.16 6.58 1.51 11.06 1.58 11.87-.17.39-.83-.07-2.02-1.24-3.49v-.26z" clip-rule="evenodd"/><path fill="#418265" fill-rule="evenodd" d="m17.97 60.5-3.18 7.33L3.13 54.75l14.81 4.04z" clip-rule="evenodd"/><path fill="#5EBA9A" fill-rule="evenodd" d="m14.79 67.83-4.5-5.04c.09-.6.08-1.3.08-1.3l4.57 1.38z" clip-rule="evenodd"/><path fill="#78D1B2" fill-rule="evenodd" d="m3.13 54.75 19.56 3.88-4.72 1.87zm0 0 5.64 13.2 6.17-5.08z" clip-rule="evenodd"/></svg>