<svg xmlns="http://www.w3.org/2000/svg" width="98" height="51" fill="none"><path fill="#000091" fill-rule="evenodd" d="M3.21 29.77h9.16a1 1 0 0 1 .88.54l.7 1.42h5.86c.54 0 .98.43.98.97v10.75c0 .54-.44.97-.98.97h-6.23a1 1 0 0 1-.87-.54L12 42.47H5.16v5.86H3.21zM29.69 6.25h19.54c.8 0 1.51.45 1.87 1.15l1.5 3.02h12.5c1.15 0 2.09.93 2.09 2.08v22.92c0 1.15-.93 2.08-2.09 2.08H51.8a2.1 2.1 0 0 1-1.85-1.15l-1.51-3.02H33.85v12.5H29.7zm46.96 23.52h9.16c.37 0 .7.21.87.54l.71 1.42h5.86c.54 0 .98.43.98.97v10.75c0 .54-.44.97-.98.97h-6.23a1 1 0 0 1-.88-.54l-.7-1.41H78.6v5.86h-1.95z" clip-rule="evenodd"/></svg>