<svg xmlns="http://www.w3.org/2000/svg" width="165" height="165" fill="none"><path fill="#9B7EDE" d="M83.78 60.35h-30.9v30.72h30.9z"/><path fill="#66D7D1" d="M83.78 60.35h-30.9v3.33h30.9z"/><path fill="#fff" d="M76.8 87.25a10.8 10.8 0 0 1-7.54-4.02 11 11 0 0 1-2.07-4.41 7.1 7.1 0 0 1-5.78-11.13l.62.4a6.36 6.36 0 0 0 5.03 9.92 11 11 0 0 1 0-3.1c.24-1.53 1.12-3.4 2.84-3.65a2.84 2.84 0 0 1 2.92 1.76 3.6 3.6 0 0 1-.43 3.38 5.4 5.4 0 0 1-2.7 2.1q-.84.27-1.73.35a9.9 9.9 0 0 0 8.9 7.7zm-6.56-15.22h-.22c-1.32.2-2.01 1.76-2.2 3.03a10 10 0 0 0 0 2.99 6 6 0 0 0 1.62-.33 4.6 4.6 0 0 0 2.34-1.7 2.9 2.9 0 0 0 .36-2.68 2.1 2.1 0 0 0-1.9-1.3"/><path fill="#F8C49E" d="m83.08 88.38 22.2-2.67-7.93-28.05L82 59.52l.12 3.4.4 10.43z"/><path fill="#000" d="M82.52 73.36a18 18 0 0 0 6.29-1.97 18 18 0 0 0 7.51-7.82c-4.57-.16-9.12-.49-13.7-.66h-.5z"/><path fill="#F8C49E" d="M113.84 46.72a6.2 6.2 0 0 1-3.34 5.25 7.2 7.2 0 0 1-6.74-.24 18.3 18.3 0 0 1-5.03 10.8 18 18 0 0 1-3.26 2.65h-.08a18 18 0 0 1-13.1 2.22 16 16 0 0 1-2.54-.78 17.4 17.4 0 0 1-10.4-11.85c-1.04-4.2-.44-8.61.28-12.88a37 37 0 0 1 2.7-9.74q.05-.14.13-.28a17 17 0 0 1 1.81-2.89l.2-.25a15.7 15.7 0 0 1 10-5.34 15 15 0 0 1 2.07-.14 17.8 17.8 0 0 1 12.5 5.5 18 18 0 0 1 2.02 2.5 21 21 0 0 1 3.5 10.07 6.3 6.3 0 0 1 6.25-.08l.37.22a6.2 6.2 0 0 1 2.66 5.26"/><path fill="#000" d="m106.55 48.81-.7-.16v-4.88h.74v3.6a4 4 0 0 1 1.36-.92 4 4 0 0 1 2.88 0l-.28.68a3 3 0 0 0-2.32 0 3.2 3.2 0 0 0-1.68 1.68m-24.21 4.13a2 2 0 0 1-.61-.12 1.5 1.5 0 0 1-.84-.78 3.4 3.4 0 0 1-.1-1.47l.61-6.77.76.08-.63 6.77q-.08.57.06 1.12a.8.8 0 0 0 .42.35.8.8 0 0 0 .64 0l.32.67a2 2 0 0 1-.63.15m2.48 3.2h-.12v-.75a3 3 0 0 0 2.16-.87 3 3 0 0 0 .8-2.18h.76a3.6 3.6 0 0 1-3.6 3.85zm3.03-11.6c.07.58.44 1.03.84.98s.65-.56.57-1.2-.44-1.02-.82-.97-.66.6-.6 1.19m-12.42.34c.08.58.45 1.02.84.98s.65-.57.58-1.2-.44-1.02-.84-.98-.65.58-.58 1.2m14.26-3.75q.56.07 1.1-.07c.6-.3.6-.94 0-1.32a4.3 4.3 0 0 0-2.1-.54 2.4 2.4 0 0 0-1.55.26.9.9 0 0 0-.2 1.2c.58.92 1.9.46 2.75.47m-14.6.7q-.54.12-1.1 0c-.63-.21-.7-.86-.16-1.3a4.3 4.3 0 0 1 2.05-.72 2.4 2.4 0 0 1 1.57.12.9.9 0 0 1 .31 1.2c-.48.97-1.82.62-2.67.7"/><path fill="#F8C49E" d="M15.76 40.7c-2.4.4-1.75 8.76-1.02 14.27Z"/><path fill="#F8C49E" d="M14.72 54.97c-1.03-4.06-3.14-10.8-5.73-10.18-3.95.86 2.24 31.93 2.24 31.93l23.82-12.63c-3.04-6.5 1.45-12.82-1.32-13.85-2.77-1.04-5.36 5.67-5.36 5.67s-2.73-14.63-5.89-14.07c-1.58.27-1.56 5.8-1.42 8.95-1.34-4.37-3.6-10.37-5.3-10.1"/><path fill="#000" d="M20.8 52.47c-.31-7.04.23-10.74 1.6-11l.14.75c-.7.12-1.3 3.37-.98 10.21zm-6.43 2.55c-1.26-9.4-.82-14.35 1.33-14.68l.12.73c-.59.1-2.4 1.38-.7 13.85zm8.28 11.15a9.1 9.1 0 0 1 4.13-8l.4.63a8.4 8.4 0 0 0-3.79 7.33zm.55-10.76-10.1 3.55.25.71 10.1-3.54z"/><path fill="#13BF89" d="M149.15 142.67s-15.8-59.86-23.85-63.61-22.92-3.93-22.92-3.93-16.68 15.15-19.7.87c0 0-12.07.58-17.02 2.85a658 658 0 0 1-18.14 7.56L35.05 64.1 11.26 76.7s5.18 62.67 49.67 42.84v23.12z"/><path fill="#000" d="m114.09 82.01-.5-.37.78-17.23.62-.27 14.6 11.56-.1.64zm1-16.8-.75 15.9 14.25-5.25z"/><path fill="#D4F5BD" d="M86.62 135.7a34 34 0 0 1-4.28 7.03H45.26c-2.28-2.9-4.58-5.91-5.55-9.47s-.25-8.08 2.8-10.32a7.08 7.08 0 0 1 11.29 5.45 25.4 25.4 0 0 1 6.77-15.8c4.11-4.14 10.35-6.37 16.02-4.9a16.9 16.9 0 0 1 11.45 11.48 23.8 23.8 0 0 1-1.42 16.53"/><path fill="#fff" d="m57.58 142.85-.55-.5a43 43 0 0 1 5.52-4.8q6.44-4.67 10.73-3.48 3.98 1.12 5.58 7.33a43 43 0 0 1 4.63-8.77c4.53-6.49 10.06-9.68 16.01-9.21v.74c-13.75-1.06-20.25 18.48-20.3 18.68h-.73c-.92-4.57-2.72-7.2-5.34-8-6.32-1.87-15.47 7.92-15.55 8.01"/><path fill="#000" d="M104.56 41.38a7 7 0 0 1-4.8-4.12 18 18 0 0 1-1.45-6.36 3.4 3.4 0 0 0 2.19.45h.6a21 21 0 0 1 3.46 10.03m-33.64-12.8a2.65 2.65 0 0 0-.9 2.98 3.6 3.6 0 0 0 2.4 2.19 5.6 5.6 0 0 0 3.32-.1 8 8 0 0 0 4.2-3.08 4.6 4.6 0 0 0 3.6 3.45 4.4 4.4 0 0 0 4.27-2.2"/><path fill="#18284E" d="m102.8 34.44-28.54-5.38.2-.25a15.7 15.7 0 0 1 9.99-5.34 15 15 0 0 1 2.08-.13 17.8 17.8 0 0 1 12.5 5.5 20 20 0 0 1 3.76 5.6"/><path fill="#18284E" d="m58.34 25.68-.14.75 44.53 8.39.14-.75z"/><path fill="#06A787" d="M156.2 70.97a25 25 0 0 1-3.85 9.86 11 11 0 0 1-2.5 2.7l-2.06-2.64.87 3.42a8.8 8.8 0 0 1-5.93 1.2 13.2 13.2 0 0 1 8-13.48A13 13 0 0 1 156.2 71z"/><path fill="#CCED9F" d="m150.35 64.49-3.44.75 3.28.66c0 .33-.1.65-.17.95a14.3 14.3 0 0 1-3.2 6.71 10 10 0 0 1-7.05 3.2 15.1 15.1 0 0 1 10.7-17.88c-.03 1.74.02 3.73-.12 5.6"/><path fill="#000" d="M135.48 108.18h-.74c-1.11-11.04 2.15-29.28 9.6-40.7l.63.4c-6.72 10.38-9.98 26.4-9.6 37.46 2.09-9.74 5.45-19.7 13.74-28.04l.53.53c-8.99 8.94-12.11 19.87-14.16 30.35"/><path fill="#8893E3" d="M135.8 142.67c12.06 0 21.84-8.53 21.84-19.06s-9.78-19.06-21.84-19.06-21.85 8.53-21.85 19.06 9.79 19.06 21.85 19.06"/><path fill="#8893E3" d="M140.43 100.47h-9.25v8.33h9.25z"/><path fill="#000" d="M55.26 106.02a4.9 4.9 0 1 1-.18-9.8 4.9 4.9 0 1 1 .36 9.78zm-.15-9.05a4.15 4.15 0 1 0 4.3 4 4.17 4.17 0 0 0-4.3-4"/><path fill="#13BF89" d="M50.64 45.35a3.4 3.4 0 1 0 .24 6.8 3.4 3.4 0 0 0-.24-6.8"/></svg>