<svg xmlns="http://www.w3.org/2000/svg" width="28" height="28" fill="none"><path fill="url(#a)" stroke="#fff" d="M20.2 16.2c-.94 2.51-2.5 4.27-5.04 5.1a2.9 2.9 0 0 0-1.99 2.47q-.04.42-.03.83a.7.7 0 0 1-.15.45.7.7 0 0 1-.92.17.7.7 0 0 1-.37-.53C10.9 18.57 17.46 10 17.46 10 11.13 16.5 11 20.95 11 20.95c-3.89-2.63-4.4-10.9 2.29-14.02 3.28-1.52 6.44-.57 6.44-.57 1.7 3.63 1.6 6.79.47 9.84z"/><defs><linearGradient id="a" x1="-5.82" x2="21.99" y1="41.73" y2="10.68" gradientUnits="userSpaceOnUse"><stop stop-color="#3D6A3E"/><stop offset="1" stop-color="#78D07A"/></linearGradient></defs></svg>