<svg xmlns="http://www.w3.org/2000/svg" width="112" height="19" fill="none"><g clip-path="url(#a)"><path fill="#08080A" fill-rule="evenodd" d="m.14 15.97.17-3.7L.2 8l.05-1.8-.12-2.7v-.88q0-1.02.59-1.01h.12q.6 0 2.94 4.04a14 14 0 0 0 1.35 1.93h.04q.46-.7 1.56-3.85.33-.98.8-1.9l.16-.11h.38q.54 0 .8.3-.34 4.86-.34 9.73v1.95q0 2.3.21 3.44v.04q0 .54-.37.54H8.2q-.76 0-.75-1.93l-.1-4.12V9.7q0-2.3.13-4.4a11 11 0 0 0-.89 2.26q-.25.18-.58 1.72-.21.38-.59.38-.65 0-1.3-1.56a72 72 0 0 1-2.15-3.44l-.75-.96q.14 2.87.12 6.59v4.87L1.4 17q-.14.63-.26.63H.88q-.63 0-.63-.58a5 5 0 0 1-.1-1.09m13.22-6.93q2.4-.34 2.4-.46l.05-.47q0-.3-.51-2.98-.01-.86-.26-1.59v-.09h-.04a96 96 0 0 1-1.64 5.6m-2.94 8.1q0-1.73 1.6-7.15 0-.42.92-2.77l1.64-5.33q0-.2.3-.42h.16q.47 0 .68.93.4.9.75 3.23.18 1.83.63 3.61l-.05.51a20 20 0 0 0 1.77 7.19l.1.58q0 .13-.38.21h-.1q-.7 0-1.5-3.27a14 14 0 0 1-.94-4.4v-.43h-.04q-2.95.39-2.94.63a47 47 0 0 0-1.64 6.35q-.19.8-.42.8h-.12a.5.5 0 0 1-.42-.27m9.35.19v-.16l.12-11.63-.12-2.01v-.46q0-.6.5-.59h.1q.52 0 .96 1.85.96 2.43 2.05 6.5.7 2.23 1.43 3.79h.04v-.1q0-1.75.59-11.29.12-.65.37-.88h.21q.21 0 .59.2-.63 9-.63 12.43l.09 2.47q-.01.89-.47.89h-.04q-.86 0-1.6-2.81a66 66 0 0 1-2.93-9.03h-.1q-.12.7-.11 1.22v8.43q-.02.97.09 1.42 0 .85-.59.84-.55.03-.55-1.08m7.45-7.78v-.59q0-2.86 2.6-6.46a2.3 2.3 0 0 1 1.72-.84h.33a11 11 0 0 1 3.24.75q.34.27.33.5v.17q-.07.18-.3.17-.18 0-1-.42a7 7 0 0 0-2.01-.33h-.24q-1.07 0-1.73 1.42a9.5 9.5 0 0 0-1.84 5.09v.67q0 1.15.88 3.69a5.6 5.6 0 0 0 2.69 2.99q.97.46 1.56.46h.16q1.8 0 1.8-3.57l-.12-2.64-1.21.12q-.93-.1-.93-.38v-.2q0-.64 2.35-.64h.26q2.01 0 2 .68v.04q.01.34-.46.42l-.84-.12-.04.42v2.81q0 3.3-2.01 3.9l-.68.09q-1.44 0-3.43-1.26a9 9 0 0 1-2.27-3.03 11 11 0 0 1-.8-3.92m11.59 7.94v-.12q0-.29.63-.59l.04-.16q0-3.41.33-6.72 0-.6-.33-.93.38-.35.38-1.35V6.26l.09-2.47v-.13q-.01-1.04-.47-1.05-.3-.15-.3-.37 0-.38.89-.51 0-.09.16-.09l1.3.16 2.78-.12q1.97 0 1.98.63 0 .31-.58.38h-.18L44.2 2.6h-.21l-3.2.12.1 1.84V8l.04.3.42-.04h.67l3.78.12q.63.12.63.53v.05q-.24.33-.8.33l-2-.12h-.1q-2.63.04-2.63.21a112 112 0 0 0-.26 7.43h.05q0-.07 4.32-.17l.67-.09a1.2 1.2 0 0 1 .89.33q0 .68-.93.68h-.51l-2.52.12h-1.17a1.7 1.7 0 0 0-1.17.54h-.12q-.13 0-.84-.51-.49-.07-.48-.23m9.54-14.57.04.12q.21 4.83.21 6.84l-.04.84a5.7 5.7 0 0 0 2.77-3.06 9 9 0 0 0 .42-2.4q0-1.75-.5-1.75a3.4 3.4 0 0 0-2.1-.68zm-1.14 12.63v-1.59l.2-6.58v-.21q0-2.72-.16-4.58 0-.63.51-.63h1.14q2.06 0 3.4 1.1.72.8.73 2.17a7.5 7.5 0 0 1-1.73 4.79l-.46.37a22 22 0 0 1 1.93 4.37l.68 2.64q-.18.46-.72.46c-.54 0-.54-.16-.54-.5a23 23 0 0 0-2.27-6.05q-.75.22-1.42.63l-.1 1.56.05 4.15-.46.17q-.5 0-.59-.63a6 6 0 0 1-.2-1.64m11-13.84.12 2.94-.09 3.99h.38l.84.04 2-1.14q1.22-1 1.22-2.43 0-2.23-3.36-3.48h-.5zm-.16 13.76.09 1.25 2.26-1q1.35-.88 1.98-2.73l.05-.46v-.05q0-2.06-2.9-2.68a8 8 0 0 0-1.3.16l.04 1.17zm-1.19 1.04v-.63l.1-1.8V12.7l.11-2.19v-.25l.21-6.47q0-1.07-.3-2.47 0-.5 1.43-.68H59q1.3.01 3.53 1.8a4 4 0 0 1 1.21 2.94q0 2.1-2.19 3.36l-.54.42v.05q1.2.6 1.98 1.47.46.79.47 1.68v.38q0 1.86-2.15 3.68-1.5.77-3.1 1.31h-.3q-.42 0-1-1zm8.91-6.3a10.4 10.4 0 0 0 1.3 5.34q1.36 1.4 2.86 1.4h.3q2 0 2.85-4.25.3-1.98.3-3.37 0-4.93-2.39-6.35a2.7 2.7 0 0 0-1.42-.43q-2.52 0-3.53 4.93-.25 1.31-.25 2.64v.1zm-1.1.1V9.2q0-3.21 1.6-6.37Q67.6 1.32 68.8 1.3h.37a4 4 0 0 1 2.52.78q1.08.3 1.43.96a12 12 0 0 1 1.42 5.91q0 2.68-.96 6.16Q72.44 18 70.06 18q-2.27 0-4.11-2.22-1.26-1.91-1.26-5.48m10.68-.91v-1.8q.13-5.63.42-5.63l.04-.04h.26q.36 0 .63.3v.04l-.17 7.8q0 5.85 1.68 6.93.4.26.8.26h.16q1.56 0 2.52-2.15.43-1.92.38-3.9a131 131 0 0 0-.51-8.6q0-.64.58-.64h.05q.66 0 .67 1.43.34 5.54.33 8.52v.63q0 3.32-1.21 4.2-1.26 1.5-2.85 1.51-2.4 0-3.2-2.89a27 27 0 0 1-.58-5.97m8.65.54v-.59q0-2.85 2.6-6.46a2.3 2.3 0 0 1 1.72-.84h.33q1.06 0 3.23.75.33.26.33.51v.16q-.08.18-.3.17-.18 0-1-.42a7 7 0 0 0-2.02-.33h-.25q-1.07 0-1.73 1.42a9.5 9.5 0 0 0-1.84 5.09v.67q0 1.15.88 3.7a5.6 5.6 0 0 0 2.69 2.98q.97.46 1.56.46h.16q1.8 0 1.8-3.57l-.12-2.64-1.21.12q-.93-.1-.93-.37v-.21q0-.63 2.35-.63h.26q2.01 0 2 .67v.05q.01.33-.46.42l-.84-.12-.04.42v2.8q0 3.32-2.01 3.9l-.68.1q-1.44 0-3.43-1.27a9 9 0 0 1-2.27-3.03 12 12 0 0 1-.78-3.91M96 17.22v-.12q0-.28.63-.58l.05-.17q0-3.4.33-6.72 0-.6-.33-.93.37-.35.37-1.35V6l.1-2.47v-.12q-.01-1.04-.47-1.05-.3-.15-.3-.38 0-.38.88-.5 0-.1.17-.1l1.3.17 2.78-.12q1.95 0 1.96.63 0 .31-.58.37h-.17l-1.33-.09h-.21l-3.2.12.1 1.85v3.4l.04.3.42-.04h.67l3.78.12q.63.12.63.54v.04q-.24.34-.8.33l-2-.12h-.1q-2.64.05-2.63.21a112 112 0 0 0-.26 7.43h.05q0-.06 4.32-.17l.67-.09a1.2 1.2 0 0 1 .89.33q0 .68-.93.68h-.51l-2.52.12h-1.17a1.7 1.7 0 0 0-1.17.54h-.15q-.13 0-.84-.51-.47-.02-.47-.2m9.92-14.05.04.12q.21 4.82.21 6.84l-.04.84a5.7 5.7 0 0 0 2.77-3.06 9 9 0 0 0 .42-2.4q0-1.76-.5-1.76a3.4 3.4 0 0 0-2.1-.67zm-1.13 12.63v-1.59l.21-6.59V7.4q0-2.71-.16-4.57 0-.63.5-.63h1.15q2.06 0 3.4 1.09.71.8.72 2.17a7.5 7.5 0 0 1-1.72 4.79l-.47.38a22 22 0 0 1 1.94 4.36l.67 2.64q-.18.48-.72.47-.55 0-.54-.52a23 23 0 0 0-2.26-6.04q-.75.22-1.43.63l-.09 1.56.02 4.17-.47.17q-.5 0-.58-.64a7 7 0 0 1-.17-1.63" clip-rule="evenodd"/></g><defs><clipPath id="a"><path fill="#fff" d="M.1.5h111v18H.1z"/></clipPath></defs></svg>