<svg xmlns="http://www.w3.org/2000/svg" xml:space="preserve" viewBox="0 0 79.41 93.61"><path fill="#004a99" d="M0 93.61h79.41V0H0z"/><path fill="#fff" d="M1.77 91.85h75.88V1.76H1.77z"/><path fill="#8f9ace" d="M24.11 52.6A18.83 18.83 0 0 0 58.4 39.24a18.8 18.8 0 0 0-8.71-13.04 18.7 18.7 0 0 0-9.88-2.8 18.8 18.8 0 0 0-14.6 6.94 18.7 18.7 0 0 0-4.22 11.88c0 3.84 1.15 7.41 3.12 10.38"/><path fill="#004a99" d="m49.65 26.77-2.95.63 2.03 1.17.69-.8.83-.53zm.04-.56a19 19 0 0 1 8.71 13.05l-1.47 1.26-.94-.22-.44.39.03.26q.02.18.16.73.28 1.13.28 2.23c0 .68-.03.9-.18 1.56h-.8l-2.25-1.83-1.72.39-1.11-.19-1.41.43.64.55 1.1-.31.95.76-.15.33-.39.63-.85 1.21-1.3 1.05-2.41-2.5-.62.07 2.57 2.95 1.04-.21.26.53-1.05 1.72L46.3 53l-.92 2.33q-.04.1-.26.2-.45.2-1.03.76l-.83.77q-.61.54-1.46 1.11-.84.58-1.69 1c-.99.5-2.1.78-3.1.78q-1 0-1.98-.33-.14-.05-.15-.11l.45-1.26q.04-.1 1.11-1.26.48-.54.77-1.4.4-1.26.57-1.53c.41-.66.6-1.22.47-1.36l-2.67-2.68-1.12-2.08.12-.49c.08-.34.35-.95.87-1.94.28-.54.51-.82.77-.95l1.79-.88 3.47.52 1.06.7.5-.06 2.12.55.53-1.38-2.69-.76-.95-.95-.13.04.45 1.12-.54.11-.06-.13.19-.03c.01.01-.16-.69-.58-.89-.15-.07-.25-.14-.4-.14-.21 0-.54.13-.72.29-.59.54-1.05.91-1.09.88l-1.1-.84.41-1.03.17.04q.16.04.31.04c.35 0 .56-.2.6-.4.05-.25-.12-.37-.12-.37.01-.01-.11-.12-.11-.12l.15-.18s.42.11.66.12c.28.02.56-.05.67-.17l.27-.42.45-.12.08-.6.28.02s.16.21.22.5l.78-.2.21-.82-.12-.14.34-.76-.3-.21-.5 1.41-.27.04-.12-.31-.7.05-.39-.63.85-.88.83-1.11 1.17.37.29.58.36-.01-.13-.85.96-.9-.64-2.89.41-.91.46.03.06-.71-3.06-3.37.1-.91 2.53-.58.36.11 1.44-.14.33.15zM24.11 52.6l1.3-1.08 1.07.27 2.86-2.15.14-1.15-1.88-2.74c-.03-.04-.15-1.75-.51-3.03-.19-.67-.63-2.62-.65-2.66l-.25-.5-1.79-2.68 1.16-2.9.92-.04.05-.43-.68-.57-.02-.12-.02-.54c0-.37.63-.74 1.04-.74q.17 0 .35.05c.29.08.57.32.82.5.05.03.82 1.85.82 1.85l-.66.53-.32.8.45.35.63-1.08 2.6.87 1.6.91.48-.53 1.34.11.98-1.33-.89-.34.93-1.12-.11-.38-1.42-.27 1.09-1.14 1.04.68-.02.3.67.08.56-1.07-.39-.35 1.66-1.6 1.5-.7 1.17-.77.23-.18.05-.82-.2-.58-.52-.2.66-.52-.18-.1c-.44.3-1.49 1.02-3.32 1.15-1.3.09-3.94-.49-3.94-.49l-2.61-.39-.91-.16a19 19 0 0 0-5.75 4.73l-.08 2.47-.39 1.13-.93 3.27.3.92-1.49.21-1.5 1.67a15 15 0 0 0-.15 2.23c0 3.83 1.14 7.4 3.11 10.37m2.93-12.11.08.36.34-.11-.11-.36zm14.06 2.46-.24-.03-.02.45.24.04.14-.57-.07-.03zm6.3 14.18-.2-.22-.32.19.23.24zm.44-2.29-.59.34-.76.16-1.67 1.64.1.36.24-.03.95-.41a5 5 0 0 0 1.43-.98c.38-.41.5-.57.72-.99zm-8.83-14.81.41.11.12-.38-.29-.07zm1.1-.81-.48 1.18.75.08.18-.96-.13-.1.09-.33-.38-.21-.12.25zm-12.5 1.1.26-.1-.1-.22-.15.14zm-.19-.71.1.25.31-.14-.09-.23zm-.2-.82.06.38h.36l-.05-.41zm-.35-.72.19.29.36.05.16-.72-.58-.13zm-.31-.91.59.07.18-1.4v-.42l-.1-.42-.3-.02zm13.1-7.57-1.7 1.35.61.44L39.92 30zm-1.5 2.34-.24-.01-.46.84-.72.06-.83 1.18.45.28 1.11-.71.85-.91zm-.41 1.98-.84.74v.5l1.34.33 2.66-1.81-.07-.74-1.06-.37zm-4.04 2.19 1 .16-.34.66-.86-.47z"/><path fill="#e42618" d="m16.58 11.02-.95 2.81h1.83zm2.05 6.53-.49-1.57h-3.23l-.52 1.57h-2.7l3.83-10.52h1.99l3.82 10.52zm10.61-7.62c-.23-.36-.59-.59-1.24-.59h-1.14v5.91H28c.65 0 1-.24 1.24-.59.21-.3.28-.58.28-2.36s-.07-2.08-.28-2.37m1.77 6.59a4 4 0 0 1-2.84 1.03h-3.9V7.03h3.9c1.09 0 2.11.31 2.84 1.03 1.23 1.23 1.09 2.57 1.09 4.23.01 1.66.14 3-1.09 4.23m4.61 1.03V7.03h7.15v2.3H38.2v1.76h3.9v2.3h-3.9v1.85h4.56v2.3h-7.14zm17.95 0v-5.04l-1.49 2.6h-1.66l-1.49-2.6v5.04h-2.58V7.03h2.54l2.36 4.64 2.36-4.64h2.54v10.52zm6.42 0V7.03h7.15v2.3h-4.56v1.76h3.9v2.3h-3.9v1.85h4.56v2.3h-7.15zM13.72 70.01l.5-1.49.47 1.49zm.07-3.04-1.67 4.6h1.09l.23-.7h1.53l.22.7h1.09l-1.68-4.6zm5.47 4.64c.58 0 .98-.15 1.33-.51.34-.34.46-.76.46-1.53v-.6h-1.74v.86h.7v.12q0 .34-.2.54-.18.2-.56.2a.6.6 0 0 1-.5-.22c-.11-.15-.18-.31-.18-1.2s.07-1.05.18-1.19.3-.23.5-.23q.57-.01.72.53h1.06c-.09-.48-.43-1.45-1.78-1.45q-.76 0-1.27.51c-.46.46-.46 1.09-.46 1.75v.16c0 .66 0 1.29.46 1.75q.52.52 1.28.51m4.62-1.9h1.75v-.92h-1.75v-.9h2.05v-.92h-3.09v4.6h3.09v-.92h-2.05zm7.4 1.86v-4.6h-1.05v2.51l-1.6-2.51h-.93v4.6h1.05v-2.5l1.59 2.5zm4.16-1.39c-.07.23-.22.5-.64.5a.6.6 0 0 1-.5-.22c-.11-.15-.19-.32-.19-1.2s.08-1.05.19-1.2a.6.6 0 0 1 .5-.22c.43 0 .57.27.64.5h1.07c-.18-.91-.8-1.43-1.72-1.43q-.76 0-1.27.51c-.46.46-.46 1.09-.46 1.75v.16c0 .66 0 1.29.46 1.75q.5.52 1.27.51c.92 0 1.55-.52 1.72-1.42h-1.07zm3.71-.47h1.75v-.92h-1.75v-.9h2.04v-.92H38.1v4.6h3.09v-.92h-2.04zm9.07.65q-.19.3-.6.29h-.56v-2.76h.56q.41 0 .6.29c.1.15.13.31.13 1.09 0 .82-.03.95-.13 1.09m1.18-.89v-.4c0-.65.01-1.17-.47-1.65a1.7 1.7 0 0 0-1.23-.45H46v4.6h1.69q.78 0 1.23-.45c.49-.48.48-1 .48-1.65m2.82.24h1.75v-.92h-1.75v-.9h2.04v-.92h-3.09v4.6h3.09v-.92h-2.04zm7.9-2.74h-1.05v4.6h3.03v-.92h-1.98zm4.61 3.04.5-1.49.47 1.49zm1.46 1.56h1.09l-1.68-4.6h-.82l-1.67 4.6h1.09l.23-.7h1.53zm-52.74 7.5h1.05v-3.68h1.16v-.92h-3.37v.92h1.16zm6.7-2.61h-.71V75.4h.71c.36 0 .56.27.56.53s-.19.53-.56.53m.88.65c.17-.09.74-.43.74-1.18 0-.73-.53-1.46-1.56-1.46H18.4v4.6h1.05v-1.75h.48l.84 1.75h1.22l-1.01-1.93zm4.8.4.5-1.49.47 1.49zm.06-3.04-1.68 4.6h1.1l.23-.7h1.53l.22.7h1.09l-1.68-4.6zm5.05 0v4.6h1.05v-2.51l1.6 2.51h.93v-4.6h-1.05v2.5l-1.6-2.5zm8.42 1.85-.57-.08a1 1 0 0 1-.36-.15.4.4 0 0 1-.11-.26c0-.24.2-.49.63-.49h.04c.21 0 .57 0 .86.26l.65-.65c-.37-.35-.84-.51-1.51-.51-1 0-1.67.58-1.67 1.44q0 .59.31.91.3.31.92.4l.57.08a.6.6 0 0 1 .34.14q.1.12.11.32c0 .22-.13.48-.73.48-.21 0-.73-.03-1.05-.31l-.67.66c.41.4.92.57 1.71.57.88 0 1.77-.44 1.77-1.43q0-.67-.33-.99a1.5 1.5 0 0 0-.91-.39m5.1-1.85h-1.05v4.6h1.05zm3.9 4.6h1.05v-3.68h1.16v-.92H47.2v.92h1.16zm4.95 0h1.05v-4.6h-1.05zm6.16-1.11c-.09.11-.27.23-.51.23s-.42-.12-.51-.23c-.11-.15-.18-.3-.18-1.19s.07-1.05.18-1.19.3-.23.51-.23.4.09.51.23.18.31.18 1.19-.07 1.04-.18 1.19m1.23-1.27c0-.66 0-1.29-.46-1.75-.36-.35-.75-.51-1.28-.51s-.92.16-1.28.52c-.46.46-.46 1.09-.46 1.75v.16c0 .66 0 1.29.46 1.75.36.35.75.51 1.28.51s.92-.16 1.28-.51c.46-.46.46-1.09.46-1.75zm6.44 2.38v-4.6h-1.05v2.5l-1.6-2.5h-.93v4.6h1.05v-2.5l1.6 2.5zm-53.8 5.65h1.75v-.93h-1.75v-.9h2.05v-.93h-3.11v4.62h3.11v-.93h-2.05zm.45-4.41-.3 1.08h.56l.71-1.08zm6.61 3.05h1.08c-.18-.91-.8-1.43-1.73-1.43q-.76 0-1.27.51c-.48.47-.48 1.09-.47 1.76v.16c0 .66 0 1.29.46 1.75q.52.52 1.27.52c.93 0 1.55-.52 1.73-1.43H20.4c-.07.23-.22.5-.65.5a.6.6 0 0 1-.5-.22c-.11-.15-.19-.32-.19-1.2s.08-1.06.19-1.2a.6.6 0 0 1 .5-.22c.43-.01.58.27.65.5m5.73 2.11q-.18.23-.51.23c-.33 0-.4-.09-.51-.23s-.18-.31-.18-1.19c0-.89.07-1.05.18-1.2q.18-.22.51-.23c.33-.01.4.08.51.23s.18.31.18 1.2c.01.88-.06 1.04-.18 1.19m-.51-3.54c-.53 0-.93.16-1.28.52-.46.46-.46 1.09-.46 1.76v.16c0 .67 0 1.29.46 1.76.36.36.75.52 1.28.52s.93-.16 1.28-.52c.46-.46.46-1.09.46-1.75v-.18c0-.66 0-1.29-.46-1.75a1.7 1.7 0 0 0-1.28-.52m5.54.04h-1.05v4.62h3.04v-.93h-1.99zm6.53 3.5a.6.6 0 0 1-.51.23.7.7 0 0 1-.51-.23c-.11-.15-.18-.31-.18-1.19 0-.89.07-1.05.18-1.2q.18-.22.51-.23c.33-.01.4.08.51.23s.18.31.18 1.2c.01.88-.06 1.04-.18 1.19m-.51-3.54c-.53 0-.93.16-1.28.52-.46.46-.46 1.09-.46 1.76v.16c0 .67 0 1.29.46 1.76.35.36.75.52 1.28.52s.93-.16 1.28-.52c.46-.46.46-1.09.46-1.76v-.17c0-.67 0-1.29-.46-1.76a1.7 1.7 0 0 0-1.28-.51m6.8 1.46h1.06c-.09-.49-.43-1.46-1.78-1.46-.53 0-.92.16-1.28.51-.46.46-.46 1.09-.46 1.76v.16c0 .67 0 1.29.46 1.76q.51.52 1.28.52c.59 0 .99-.15 1.34-.52.34-.34.46-.76.46-1.54v-.6h-1.74v.86h.7v.12q0 .35-.19.54t-.56.2q-.33 0-.5-.22c-.11-.15-.18-.31-.18-1.2s.07-1.05.18-1.2a.6.6 0 0 1 .5-.23q.56-.02.71.54m3.81 3.2h1.05v-4.62h-1.05zM54 84.98l-.01.12-.27-.27-.51.51.33.33-.1.02-.1.01a.7.7 0 0 1-.51-.23c-.11-.15-.18-.31-.18-1.19 0-.89.07-1.05.18-1.19s.3-.23.51-.23.4.09.51.23.18.31.18 1.19q0 .5-.03.7m.82.88c.27-.42.26-.95.26-1.51v-.15c0-.67 0-1.29-.46-1.76q-.5-.52-1.28-.51c-.78.01-.93.16-1.28.51-.46.46-.46 1.09-.46 1.76v.16c0 .67 0 1.29.46 1.76.36.36.75.52 1.28.52q.52 0 .89-.21l.04-.02.36.36.51-.51-.34-.34zm3.97-.91v-2.99h-1.05v3.01c0 .95.73 1.65 1.73 1.65 1.01 0 1.75-.69 1.75-1.65v-3.01h-1.05v2.99c0 .46-.27.75-.69.75-.43 0-.69-.29-.69-.75m6.29-.23h1.75v-.93h-1.75v-.9h2.05v-.93h-3.11v4.62h3.11v-.93h-2.05z"/></svg>