<svg xmlns="http://www.w3.org/2000/svg" width="116" height="116" fill="none"><path fill="#EFEEF9" d="M0 0h116v116H0z"/><path fill="#E5E2F4" d="M109.24 64.94c-2.74-4.8-5.89-9.5-7.7-14.4-2.04-5.51-2.39-11.32-4.1-16.9-1.53-4.93-3.86-9.72-7.44-13.5-3.57-3.79-8.48-6.53-13.74-6.9-7.12-.48-13.9 3.36-18.98 8.28-2.67 2.6-5 5.49-7.65 8.1-2.57 2.54-5.5 4.25-8.45 6.23-6.28 4.2-14.52 4.63-21.4 7.53A33.5 33.5 0 0 0 1.6 62.18c-1.67 4.44-2.29 9.53-.24 13.8 3.22 6.73 11.84 9.22 19.42 8.94s15.04-2.58 22.62-2.2c7 .35 13.67 2.97 19.99 5.92 6.32 2.96 12.5 6.31 19.2 8.31s14.14 2.56 20.6-.1c5.34-2.18 9.88-6.94 10.95-12.61 1.33-7.03-1.46-13.25-4.9-19.3"/><path fill="#E5E2F4" d="M101.51 46.38c-.16-1.08-.06-2.28.73-3.1.6-.6 1.4-.98 2.24-1.07q1.31-.13 2.58.17 2.03.4 3.72 1.57a5.5 5.5 0 0 1 2.15 3.06 3.8 3.8 0 0 1-.9 3.47c-.76.82-1.9 1.3-3.06 1.53-1.24.24-3.22.62-4.25-.2a9 9 0 0 1-2.58-3.3q-.46-1.03-.63-2.13m-81.18-6.66c-2.51.94-5.33 1.4-7.9.57a7.6 7.6 0 0 1-4.17-3.23 6.5 6.5 0 0 1-.7-5.17 5.7 5.7 0 0 1 3.58-3.75c1.55-.52 3.24-.3 4.88-.27 3.1.04 6.17-.64 8.97-1.98.9-.44 1.8-.95 2.8-1.08a3.8 3.8 0 0 1 3.77 2.02c1.11 2.21-.52 4.6-1.9 6.25a22.4 22.4 0 0 1-9.33 6.64"/><path fill="#BDB7E4" d="M81.18 80.51a4 4 0 0 0 2.83.28 6 6 0 0 0 1.52-.63c.4-.23.84-.73 1.32-.64 1.1.2 2.18.4 3.32.26a4.5 4.5 0 0 0 3.17-1.72q.22-.33.38-.7.37-.95.4-1.97c.04-.93-.07-1.9-.55-2.69-.5-.78-1.43-1.36-2.36-1.2a2.24 2.24 0 0 0-1.34-3.57q-.01-1.19-.26-2.35a4 4 0 0 0-1.14-2.04 3.3 3.3 0 0 0-3.16-.62 4 4 0 0 0-2.41 2.2 5.3 5.3 0 0 0-.32 3.3 2.88 2.88 0 0 0-1.42 4.59q-.33.34-.61.7c-.7.92-1.18 2-1.25 3.14-.08 1.44.6 2.98 1.88 3.66"/><path fill="#AEA7E0" d="M81.18 80.51a4 4 0 0 0 2.83.28 6 6 0 0 0 1.53-.63c.4-.23.84-.73 1.3-.64 1.11.2 2.2.4 3.33.26a4.5 4.5 0 0 0 3.17-1.72q.23-.33.38-.7a5.44 5.44 0 0 1-6.96-.67 5.7 5.7 0 0 1-4.61-1.02 6 6 0 0 1-1.6-1.95c-.7.91-1.17 2-1.24 3.13-.09 1.44.6 2.98 1.87 3.66"/><path fill="#9A92DA" d="m84.06 74.43.04-.02a.03.03 0 0 1 .03.04v.01a2.4 2.4 0 0 0 .2 1.9q.16.27.4.5l.11.1.12.08.27.14.27.12.67.26.03-.75.03-1.18v-1.2a68 68 0 0 0-.16-4.82l.05-.04.07.01.04.06q.44 1.75.72 3.54l.05-.04a1 1 0 0 1 .25-.18 1 1 0 0 0 .46-.39l.17-.26a1.2 1.2 0 0 0 .13-.66l.02-.02.05.01q.18.36.14.76a2 2 0 0 1-.27.76q-.1.18-.24.34t-.32.24q-.16.08-.34.09l.08.54.14 1.2.13 1.22.08 1.21.04 1.22q0 .6.04 1.21l.02 1.22q0 .6-.04 1.22-.05.6-.17 1.2l-.12.6-.14.6q-.14.6-.33 1.18-.19.57-.43 1.15a12 12 0 0 1-.57 1.15l-.04.02a.1.1 0 0 1-.1-.09q-.08-.61-.1-1.23l-.02-1.2.02-1.2.01-.59.03-.58q.02-.6.08-1.18l.14-1.18.16-1.17.12-1.18.06-1.02q-.29.01-.56-.05a2 2 0 0 1-.73-.31 3 3 0 0 1-.95-1.22q-.15-.36-.17-.74-.05-.75.33-1.4"/><path fill="#fff" d="M89.08 69.65c0 .37.2.67.45.67s.45-.3.45-.67-.2-.68-.45-.68-.45.3-.45.68m-3.23-2.6c.25 0 .45-.3.45-.68 0-.37-.2-.68-.45-.68s-.45.3-.45.68.2.68.45.68m1.96-1.13c.15 0 .26-.17.26-.38 0-.22-.11-.39-.26-.39-.14 0-.25.17-.25.39 0 .2.11.38.25.38m-2.41 2.72c0 .22.12.39.25.39.14 0 .26-.17.26-.39 0-.21-.11-.38-.26-.38-.14 0-.25.17-.25.38m3.03-1.22c0 .15.08.27.17.27s.17-.12.17-.27c0-.14-.08-.26-.17-.26s-.17.12-.17.26" opacity=".3" style="mix-blend-mode:overlay"/><path fill="#BDB7E4" d="M90.8 88.03a1.1 1.1 0 0 0-.94-.22c.3-.56.6-1.14.67-1.77.06-.63-.18-1.35-.73-1.65-.6-.34-1.37-.13-1.87.33s-.75 1.12-.93 1.78a.68.68 0 0 0-1.34-.1 4 4 0 0 0-.5-1.04 1.3 1.3 0 0 0-.98-.53c-.46.01-.86.39-1 .83q-.2.68-.02 1.37a.8.8 0 0 0-.85-.32c.01-.57.02-1.18-.2-1.7-.24-.52-.77-.97-1.34-.9s-.95.56-1.16 1.08a3.6 3.6 0 0 0-.02 2.62 1.1 1.1 0 0 0-1.24 0 1 1 0 0 0-.36 1.15h13.26a1.2 1.2 0 0 0-.45-.93"/><path fill="#BDB7E4" d="M89.23 88.48a.6.6 0 0 0-.48-.11q.26-.43.34-.92a.9.9 0 0 0-.38-.84.8.8 0 0 0-.96.17q-.36.39-.47.91a.35.35 0 0 0-.7-.04q-.08-.3-.25-.54a.6.6 0 0 0-.5-.28.6.6 0 0 0-.52.43 1.3 1.3 0 0 0 0 .7.4.4 0 0 0-.44-.16q.03-.46-.1-.87a.7.7 0 0 0-.7-.47c-.28.04-.48.3-.6.55q-.25.68 0 1.36a.55.55 0 0 0-.64 0 .5.5 0 0 0-.18.59h6.81a.6.6 0 0 0-.23-.48" style="mix-blend-mode:multiply"/><path fill="#BDB7E4" d="M22.31 88.03a1.1 1.1 0 0 1 .95-.22 5 5 0 0 1-.68-1.77c-.06-.63.18-1.35.73-1.65.6-.34 1.37-.13 1.87.33s.75 1.12.93 1.78a.68.68 0 0 1 1.34-.1q.17-.56.5-1.04a1.3 1.3 0 0 1 .99-.54c.46.02.85.4 1 .83q.2.69.01 1.38a.8.8 0 0 1 .86-.32A4 4 0 0 1 31 85c.23-.52.77-.97 1.34-.9s.95.56 1.16 1.07c.34.84.35 1.78.02 2.63a1.1 1.1 0 0 1 1.24 0 1 1 0 0 1 .35 1.14H21.88a1.2 1.2 0 0 1 .44-.92"/><path fill="#BDB7E4" d="M23.88 88.48a.6.6 0 0 1 .49-.11 2.4 2.4 0 0 1-.34-.92.9.9 0 0 1 .38-.84.8.8 0 0 1 .96.17q.36.39.47.91a.35.35 0 0 1 .7-.04q.08-.3.25-.54a.6.6 0 0 1 .5-.28.6.6 0 0 1 .52.43q.1.36 0 .7a.4.4 0 0 1 .44-.16q-.04-.46.11-.87a.7.7 0 0 1 .69-.47c.28.04.48.3.6.55q.26.68 0 1.36a.55.55 0 0 1 .64 0 .5.5 0 0 1 .18.59h-6.81a.6.6 0 0 1 .22-.48" style="mix-blend-mode:multiply"/><path fill="#BDB7E4" d="M41.28 79.55a5 5 0 0 1-3.67 1.64 11 11 0 0 1-3.4-.45c-.2-.05-.49-.2-.7-.2s-.52.2-.74.28q-.78.3-1.59.52a9 9 0 0 1-1.8.3c-1.1.05-2.26-.2-3.18-.8A3.72 3.72 0 0 1 27.9 74a6.06 6.06 0 1 1 10.05-2.1c.55-.26 1.25-.32 1.72.05.48.38.5 1.27-.06 1.52q.38.13.7.33a3.84 3.84 0 0 1 .97 5.74"/><path fill="#AEA7E0" d="M41.28 79.55a5 5 0 0 1-3.67 1.64 11 11 0 0 1-3.4-.45c-.2-.05-.49-.2-.7-.2s-.52.2-.74.28q-.78.3-1.59.52a9 9 0 0 1-1.8.3c-1.1.05-2.26-.2-3.18-.8q1.13.04 2.25-.13c1.95-.3 3.89-1.28 4.87-2.99 1.1.11 2.23.2 3.33.03s2.2-.62 2.93-1.46c.47-.53.75-1.2.8-1.9q0-.3-.06-.59a3.84 3.84 0 0 1 .96 5.74"/><path fill="#9A92DA" d="m35.77 75.25-.03-.01-.02.02v.02q.18.6.03 1.2-.07.3-.22.54-.14.23-.35.44l-.1.09a1 1 0 0 1-.36.21l-.25.1-.26.11q-.16.08-.35.13l-.03-.68-.03-1.08v-1.08a63 63 0 0 1 .16-4.4l-.05-.03a.1.1 0 0 0-.1.06 37 37 0 0 0-.66 3.23l-.04-.04a1 1 0 0 0-.23-.17l-.24-.14-.18-.2a1.2 1.2 0 0 1-.28-.83v-.01l-.01-.02h-.02l-.03.01q-.17.32-.13.7a2 2 0 0 0 .25.69l.22.3q.1.16.29.22.15.07.3.09l-.07.5-.13 1.08-.1 1.1-.07 1.1-.05 1.1q0 .57-.03 1.12l-.03 1.1a14 14 0 0 0 .2 2.21l.1.55.13.54.3 1.07a13 13 0 0 0 .9 2.07l.06.04a.1.1 0 0 0 .1-.07q.07-.55.07-1.12.03-.56.02-1.1l-.01-1.08-.01-.54-.03-.54a16 16 0 0 0-.2-2.13l-.14-1.07-.11-1.07-.06-.93q.26.01.5-.04.37-.08.66-.29a3 3 0 0 0 .86-1.1 2.3 2.3 0 0 0-.13-1.97"/><path fill="#fff" d="M30.07 69.86c0 .53-.34.97-.75.97-.42 0-.75-.44-.75-.97 0-.54.33-.97.75-.97.4 0 .75.43.75.97m1.16-3.21c.27 0 .5-.28.5-.64 0-.35-.23-.63-.5-.63s-.5.28-.5.63c0 .36.23.64.5.64m1.32.98a.28.28 0 1 1-.27-.35.3.3 0 0 1 .27.35m-4.03 3.91a.28.28 0 1 1-.26-.35.3.3 0 0 1 .26.35m.38-4.26a.15.15 0 1 1-.14-.19.17.17 0 0 1 .15.2m3.44-1.27c.17 0 .3-.18.3-.39s-.13-.38-.3-.38-.3.17-.3.38.14.39.3.39" opacity=".3" style="mix-blend-mode:overlay"/><path fill="#BDB7E4" d="M78.3 37.35h-43v9.3h43z"/><path fill="#BDB7E4" d="M78.3 37.35h-43v.78h43z" style="mix-blend-mode:multiply"/><path fill="#BDB7E4" d="M77.99 34.2H35.6v2.19H78z"/><path fill="#BDB7E4" d="M77.99 34.2H35.6v.42H78z" style="mix-blend-mode:multiply"/><path fill="#9089CF" d="M78.82 35.94H34.78c-.12 0-.23.1-.23.23v1.28q.02.2.23.22h44.04c.12 0 .23-.1.23-.22v-1.28q-.02-.21-.23-.23m.02-3.44H34.76c-.11 0-.2.1-.2.22v1.31q.02.2.2.21h44.08c.11 0 .2-.1.2-.2v-1.32q-.02-.2-.2-.21"/><path fill="#BDB7E4" d="M78.3 58.4H36.1v30.54h42.2z"/><path fill="#A39CDD" d="M78.6 84.36H35.81a.25.25 0 0 0-.25.25v4.09c0 .13.1.25.25.25h42.77c.14 0 .25-.12.25-.25v-4.1a.25.25 0 0 0-.25-.24"/><path fill="#9089CF" d="M78.3 58.4v3.95h-.11a1.8 1.8 0 0 1-1.8-1.79 1.8 1.8 0 0 1-1.78 1.8h-.48a1.8 1.8 0 0 1-1.79-1.8 1.8 1.8 0 0 1-1.79 1.8h-.48a1.8 1.8 0 0 1-1.79-1.8 1.8 1.8 0 0 1-1.78 1.8H66a1.8 1.8 0 0 1-1.78-1.8 1.8 1.8 0 0 1-1.79 1.8h-.48a1.8 1.8 0 0 1-1.79-1.8 1.8 1.8 0 0 1-1.79 1.8h-.48a1.8 1.8 0 0 1-1.78-1.8 1.8 1.8 0 0 1-1.8 1.8h-.47a1.8 1.8 0 0 1-1.8-1.8 1.8 1.8 0 0 1-1.78 1.8h-.48a1.8 1.8 0 0 1-1.79-1.8 1.8 1.8 0 0 1-1.78 1.8h-.48a1.8 1.8 0 0 1-1.79-1.8 1.8 1.8 0 0 1-1.79 1.8h-.48a1.8 1.8 0 0 1-1.79-1.8 1.8 1.8 0 0 1-1.78 1.8h-.49a1.8 1.8 0 0 1-1.5-.83V58.4z" style="mix-blend-mode:multiply"/><path fill="#AA9BE0" d="M48.85 64.39h-10.6v21.68h10.6z"/><path fill="#DDDCEE" d="M48.27 64.97h-9.44v20.52h9.44z"/><path fill="#fff" d="M48.27 64.97v.83l-5.46 19.69h-2l5.7-20.52z" opacity=".5" style="mix-blend-mode:overlay"/><path fill="#AA9BE0" d="M48.27 75.44h-1.46a.2.2 0 0 1 0-.42h1.46zm27.88-11.05H50.43v14.07h25.72z"/><path fill="#DDDCEE" d="M75.48 64.96H51.1v12.92h24.38z"/><path fill="#fff" d="m60.88 64.96-3.4 12.92H56.4l3.4-12.92zm9.26 0-3.39 12.92h-1.1l3.4-12.92z" opacity=".5" style="mix-blend-mode:overlay"/><path fill="#6F5BBC" d="M50.5 87.44H36.61v1.5h13.87z"/><path fill="#8270CE" d="M50.5 87.44H36.61l.61-.36h12.65z"/><path fill="#6F5BBC" d="M49.48 86.23H37.63v.85h11.85z"/><path fill="#8270CE" d="M49.48 86.23H37.63l.53-.2h10.79z"/><path fill="#DDDCEE" d="M35.44 57.68h-3.96l1.98-10.6h3.65z"/><path fill="#8270CE" d="M39.4 57.68h-3.96l1.67-10.6h3.65z"/><path fill="#DDDCEE" d="M43.35 57.68H39.4l1.36-10.6h3.66z"/><path fill="#8270CE" d="M47.31 57.68h-3.96l1.07-10.6h3.65z"/><path fill="#DDDCEE" d="M51.27 57.68H47.3l.76-10.6h3.65z"/><path fill="#8270CE" d="M55.22 57.68h-3.95l.45-10.6h3.66z"/><path fill="#DDDCEE" d="M59.18 57.68h-3.96l.16-10.6h3.65z"/><path fill="#8270CE" d="M63.14 57.68h-3.96l-.15-10.6h3.65z"/><path fill="#DDDCEE" d="M67.1 57.68h-3.96l-.46-10.6h3.66z"/><path fill="#8270CE" d="M71.05 57.68H67.1l-.76-10.6h3.65z"/><path fill="#DDDCEE" d="M75.01 57.68h-3.96L70 47.08h3.65z"/><path fill="#8270CE" d="M78.97 57.68H75l-1.37-10.6h3.65z"/><path fill="#DDDCEE" d="M82.93 57.68h-3.96l-1.68-10.6h3.66z"/><path fill="#D4D2EA" d="M31.48 57.68h3.96v1.65A1.7 1.7 0 0 1 33.76 61h-.59a1.7 1.7 0 0 1-1.68-1.68z"/><path fill="#6F5BBC" d="M35.44 57.68h3.96v1.65A1.7 1.7 0 0 1 37.72 61h-.6a1.7 1.7 0 0 1-1.67-1.68z"/><path fill="#D4D2EA" d="M39.4 57.68h3.95v1.65A1.7 1.7 0 0 1 41.67 61h-.58a1.7 1.7 0 0 1-1.68-1.68z"/><path fill="#6F5BBC" d="M43.35 57.68h3.96v1.65A1.7 1.7 0 0 1 45.63 61h-.59a1.7 1.7 0 0 1-1.68-1.68z"/><path fill="#D4D2EA" d="M47.31 57.68h3.96v1.65A1.7 1.7 0 0 1 49.59 61H49a1.7 1.7 0 0 1-1.68-1.68z"/><path fill="#6F5BBC" d="M51.27 57.68h3.95v1.65A1.7 1.7 0 0 1 53.54 61h-.58a1.7 1.7 0 0 1-1.68-1.68z"/><path fill="#D4D2EA" d="M55.22 57.68h3.96v1.65A1.7 1.7 0 0 1 57.5 61h-.6a1.7 1.7 0 0 1-1.67-1.68z"/><path fill="#6F5BBC" d="M59.18 57.68h3.95v1.65A1.7 1.7 0 0 1 61.45 61h-.58a1.7 1.7 0 0 1-1.68-1.68z"/><path fill="#D4D2EA" d="M63.14 57.68h3.96v1.65A1.7 1.7 0 0 1 65.42 61h-.6a1.7 1.7 0 0 1-1.67-1.68z"/><path fill="#6F5BBC" d="M67.1 57.68h3.95v1.65A1.7 1.7 0 0 1 69.37 61h-.58a1.7 1.7 0 0 1-1.68-1.68z"/><path fill="#D4D2EA" d="M71.05 57.68h3.96v1.65A1.7 1.7 0 0 1 73.33 61h-.59a1.7 1.7 0 0 1-1.68-1.68zm7.91.01h3.96v1.65A1.7 1.7 0 0 1 81.25 61h-.6a1.7 1.7 0 0 1-1.67-1.68z"/><path fill="#6F5BBC" d="M75.01 57.68h3.96v1.65A1.7 1.7 0 0 1 77.29 61h-.59a1.7 1.7 0 0 1-1.68-1.68z"/><path fill="#DDDCEE" d="M82.93 57.68H31.48l.03-.15c8.33-.13 16.7-.38 24.86-2.05q4.36-.87 8.53-2.35a47 47 0 0 0 11.75-6.05h4.3z" style="mix-blend-mode:multiply"/><path fill="#8270CE" d="M80.96 47.26H33.44a.43.43 0 0 1-.3-.74.4.4 0 0 1 .3-.13h47.52a.44.44 0 1 1 0 .87"/><path fill="#AA9BE0" d="M77.11 39.2H36.96v5.6h40.15z"/><path fill="#DDDCEE" d="M76.53 39.71H37.54v4.58h39z"/><path fill="#DDDCEE" d="M37.54 39.71v.33H76.2v4.25h.33V39.7z" style="mix-blend-mode:multiply"/><path fill="#fff" d="m57.66 39.71-2.32 4.58h-1.79l2.31-4.58zm7.94 0-2.3 4.58h-.83l2.3-4.58z" opacity=".5" style="mix-blend-mode:overlay"/><path fill="#BDB7E4" d="M73.78 80.52h-3.45v1.22h3.45zm-2.88 1.9h-3.45v1.22h3.46zm-6.28-3.27h-3.45v1.21h3.45zm-26.78-9.48H36.1v1.21h1.73zm.41 7.16h-1.4v1.21h1.4zM78.3 62.65h-1.92v1.21h1.91z" style="mix-blend-mode:multiply"/><path fill="#AA9BE0" d="M74.55 85.45h-1.86v.67h1.86zm-6.17 1.32h-1.86v.67h1.86zm-1.18-.91h-1.86v.68h1.86zm-3.26 1h-1.86v.68h1.86zm-12.52-2.05h-1.86v.68h1.86z" style="mix-blend-mode:multiply"/><path fill="#6F5BBC" d="M31.19 78.42h-.57V56.95a2.15 2.15 0 1 0-4.3 0v.97h-.58v-.97a2.72 2.72 0 0 1 5.44 0z"/><path fill="#8270CE" d="M28.8 54.8h-.17a2.15 2.15 0 0 1 1.99 2.15v21.47h.33V56.95a2.15 2.15 0 0 0-2.15-2.15"/><path fill="#AA9BE0" d="m28.18 59.17-.07.01h-4.17l-.07-.01a2.82 2.82 0 1 0 4.31 0"/><path fill="#fff" d="M25.14 62.18a1.3 1.3 0 0 1-.71-.61v.03l-.05-.24.02-.24a.3.3 0 0 0-.21-.28.3.3 0 0 0-.35.2 1.3 1.3 0 0 0 .28 1.1q.35.4.86.6a.3.3 0 0 0 .35-.2.3.3 0 0 0-.18-.34z" opacity=".3" style="mix-blend-mode:overlay"/><g style="mix-blend-mode:multiply"><path fill="#DDDCEE" d="m23.94 59.18-.07-.01-.01.01z"/><path fill="#AA9BE0" d="m28.18 59.17-.07.01h-.84a2.81 2.81 0 0 1-1.7 4.58 2.81 2.81 0 0 0 2.61-4.59"/></g><path fill="#BDB7E4" d="M27.48 58.6h-2.9a.84.84 0 0 1 .84-.83h1.2a.84.84 0 0 1 .85.84"/><path fill="#9AA4C3" d="M28.12 58.31h-4.18a.3.3 0 0 0-.28.28v.31c0 .16.12.28.28.28h4.18c.15 0 .28-.12.28-.28v-.3a.3.3 0 0 0-.28-.29"/><path fill="#8270CE" d="M30.39 78.2h1.03a.1.1 0 0 1 .08.09v.24h-1.2v-.24a.1.1 0 0 1 .09-.09"/><path fill="#6F5BBC" d="M30.55 78.45h.7a.76.76 0 0 1 .77.76v9.51h-2.23v-9.5a.76.76 0 0 1 .76-.77"/><path fill="#8270CE" d="M31.25 78.45h-.7a.76.76 0 0 1 .75.76v9.51h.72v-9.5a.76.76 0 0 0-.77-.77"/><path fill="#6F5BBC" d="M32.75 88.58h-3.7a.18.18 0 1 0 0 .36h3.7a.18.18 0 1 0 0-.36"/><path fill="#7A67D2" d="M81.78 83.63q-.08.2-.2.35-.23.15-.5.18a12 12 0 0 1-4.46.22 1 1 0 0 1-.6-.2c-.22-.17-.3-.46-.35-.73l-.06-.4q-.02-.22.02-.46a.8.8 0 0 1 .52-.64.74.74 0 0 1 .5-1.32q-.08-.68.12-1.34a1.7 1.7 0 0 1 .85-1.02c.6-.29 1.37-.08 1.81.41a2.2 2.2 0 0 1 .46 1.86.6.6 0 0 1 .5.69q.21 0 .41.06a1.7 1.7 0 0 1 1.05.91 1.7 1.7 0 0 1-.07 1.43"/><path fill="#5A51C5" d="M81.78 83.63q-.08.2-.2.35-.23.15-.5.18a12 12 0 0 1-4.46.22 1 1 0 0 1-.6-.2c-.22-.17-.3-.46-.35-.73l-.06-.4c1.4.03 2.81-.22 4.13-.72q.52-.16.9-.58.15-.21.16-.47a1.7 1.7 0 0 1 1.05.92 1.7 1.7 0 0 1-.07 1.43"/><path fill="#DDDCEE" d="m81.79 84.4-.14.98-.51 3.63h-4.6l-.52-3.63-.13-.97z"/><path fill="#DDDCEE" d="m81.79 84.4-.14.98h-5.63l-.13-.97z" style="mix-blend-mode:multiply"/><path fill="#DDDCEE" d="M81.96 84.99h-6.24l-.17-1.58h6.58z"/><path fill="#fff" d="M77.8 79.93c0 .26-.14.47-.31.47-.18 0-.32-.2-.32-.47 0-.25.14-.46.32-.46s.32.2.32.46m.63.56c0 .13-.07.24-.16.24q-.16-.02-.17-.24c0-.13.07-.24.17-.24q.15.02.16.24m-1.21.42q-.02.22-.17.24-.16-.02-.17-.24c0-.13.07-.24.17-.24s.17.11.17.24m1.13-1.77q0 .12-.08.13-.08-.01-.08-.13 0-.1.08-.12.08 0 .08.12" opacity=".3" style="mix-blend-mode:overlay"/><path fill="#7A67D2" d="M35.6 82.92q-.01.64-.24 1.24c-.08.21-.18.56-.4.67-.3.14-.7.15-1.02.2q-1.16.16-2.35.13h-.17q-.61 0-1.14-.33l-.18-.16a2.4 2.4 0 0 1-.48-.89q-.11-.3-.16-.64a2 2 0 0 1 .02-.68c.12-.43.52-.82.97-.78a.81.81 0 0 1 1-1.28 1.4 1.4 0 0 1 2.56-1.03c.25.45.3.98.16 1.48a.4.4 0 0 1 .4.6q.24 0 .44.13.24.15.37.38.24.46.21.96"/><path fill="#AEA7E0" d="M35.6 82.92q-.02.64-.24 1.24c-.08.21-.18.56-.4.67-.3.14-.7.15-1.02.2q-1.16.16-2.35.13h-.17q-.7-.13-1.3-.5a2.4 2.4 0 0 1-.48-.87q-.12-.31-.17-.64c1.2.33 2.5.27 3.73.03.47-.1.95-.22 1.32-.52q.3-.24.42-.58c.05-.16.03-.34.08-.5q.24.15.37.38.23.46.2.96" style="mix-blend-mode:multiply"/><path fill="#DDDCEE" d="m35.23 84.72-.12.9-.48 3.33h-4.22l-.48-3.34-.13-.89z"/><path fill="#DDDCEE" d="m35.23 84.72-.12.9h-5.18l-.13-.9z" style="mix-blend-mode:multiply"/><path fill="#DDDCEE" d="M35.39 85.26h-5.74l-.15-1.45h6.04z"/><path fill="#fff" d="M32.53 80.61c0 .24-.13.43-.3.43-.15 0-.29-.19-.29-.43s.14-.43.3-.43.3.2.3.43m.58.51q-.02.2-.15.22-.15-.02-.16-.22.01-.2.16-.22.14.02.15.22m-2.2.24c.12 0 .21-.14.21-.32s-.1-.31-.21-.31c-.12 0-.22.14-.22.31 0 .18.1.32.22.32m1.08.15q-.02.2-.15.22-.15-.02-.16-.22.01-.2.16-.22.13.02.15.22m1.07-1.63q-.01.15-.1.16-.1-.01-.11-.16.01-.14.1-.15.1.01.11.15" opacity=".3" style="mix-blend-mode:overlay"/></svg>