<svg xmlns="http://www.w3.org/2000/svg" viewBox="0 0 62 42"><path d="M5.96 9.65c-.15-1.8 2.01-2.55 3.31-2.78 3.07-.55 5.61 1.24 8.03 3.04 4.17 3.1 6.45 8.52 8.11 13.51 1.31 3.92-1.21 5.7-4.52 6.59-4.79 1.28-9.34-.32-12.7-4.28-2.11-2.48-2.11-5.94-2.74-9.08-.3-1.5-1.28-5.53.51-7" style="fill:#b4b883"/><path d="m4.63 20.49-1.88.68-2.13-.14 1.63-1.22zM2.5 14.37l-1.13-.67 1.38-.82 1.38.41z"/><path d="M1.66 41.18c0 .45.34.82.75.82h55.8c.41 0 .75-.37.75-.82s-.34-.82-.75-.82h-11.8l.74-.29c1.51-1.35 3.29-3.45 3.74-6.12q.6-3.63-2.18-7.12c-2.53-3.15-3.67-6.05-3.39-8.61.27-2.45 1.82-4.74 4.74-6.99.38-.3.48-.88.2-1.29a.8.8 0 0 0-1.19-.22q-.45.35-.85.69l-12.45-.72 16.89-1.66c.47-.05.82-.5.77-1.01a.9.9 0 0 0-.93-.84L31.31 8.27a.9.9 0 0 0-.74.67 1 1 0 0 0-.2.28q-2.55 5.47-.71 10.24c1.58 4.07 5.76 7.59 11.19 9.42q3.8 1.29 4.47 3.86c.73 2.87-1.58 6.3-2.34 7.33l-.38.29H29.28c-.05-.35-.19-1.36-.51-2.84q1.22-.65 2.03-1.89a3.1 3.1 0 0 1 2.17-1.52c2.66-.47 5.99 2.2 6.02 2.23.17.13.4.1.53-.08.12-.18.09-.44-.07-.57-.15-.12-3.61-2.91-6.59-2.38q-1.67.3-2.67 1.87a5 5 0 0 1-1.6 1.54 55 55 0 0 0-2.02-6.56 6.4 6.4 0 0 0 2.52-4.23c.38-2.46-.26-6.61-5.52-12.41-6.26-6.85-10.35-9.34-13.19-8.14l-8.12.87 2.57 1.78L0 9.81l7.59 2.87-3.24 2.21 4.32 1.47.07.21-3.73 2.03 4.73 2.13-4.5 1.92 7.01 1.79-4.95 3.51 7.17.45-2.44 2.65 8.47.52q.66.16 1.35.16 1.56 0 3.32-.82c.94 2.5 1.56 4.72 1.95 6.41-3.15.95-7.27-.11-8.61-.86-.07-.04-7.2-3.87-9.75-2.49q-.77.42-.92 1.35-.13.86-.73 1.19c-1.28.71-3.92-.39-4.83-.87-.19-.1-.41-.02-.5.19s-.01.45.17.55c.15.08 3.62 1.91 5.5.87q.93-.52 1.13-1.78.08-.53.52-.76c1.94-1.05 8.03 1.89 9.07 2.48s3.54 1.32 6.12 1.32c1.02 0 2.05-.12 3.01-.4.23 1.06.36 1.84.42 2.25H2.41c-.41 0-.75.37-.75.82m23.51-12.05q-1.82.97-3.3.97-.56 0-1.08-.13l-.12-.02-5.19-.32 2.44-2.65-5.96-.37 2.95-2.1-.88-1.29-3.77-.96 2.43-1.04-.73-1.26-3.34-1.5 2.04-1.11-.27-.7q-.25-.64-.43-1.21l-.12-.39-1.93-.66 1.5-1.02-.09-.54-.11-.78-.05-.51-4.52-1.71 3.67-1.35-1.55-1.07 4.02-.43.11-.05q.45-.21.99-.21c2.28 0 5.75 2.6 10.6 7.94 4.82 5.31 5.44 8.91 5.11 11s-1.64 3.08-2.4 3.48Zm9.55-5.68 8.9-3.43q.21 1.92 1.17 3.96l-7.83 1.11q-1.22-.76-2.24-1.63Zm-3.05-3.74 12.17-2.93c-.01.09 0-.09 0 0-.04.34-.27 1.92-.27 2.27l-9.6 3.7a12 12 0 0 1-2.3-3.05Zm-1.07-4.25 13.76-.18q-.32.73-.51 1.5l-12.58 2.05-.04-.09a9 9 0 0 1-.63-3.28m11.42-4.01-11.02 1q.21-.79.55-1.61l10.47.6Zm2.34 3.83-13.68-1.21.03-.19 15.44-1.41c-.39.46-1.49 2.33-1.79 2.81m3.07 12.78-5-.59-.11.01q-.46-.2-.97-.37-1.61-.55-3.05-1.29l6.95-.98q.86 1.58 2.18 3.21Zm1.68 3.23-2.37.31a6.5 6.5 0 0 0-2.33-2.96l3.66.44h.07q.7 1.11.97 2.21m-2.02 3.6q.16-1.18-.08-2.38l2.26-.3a6 6 0 0 1-.9 3.69zm-1.34 4.03c.46-.88.89-1.92 1.15-3.03l.97.77c-.65.91-1.43 1.68-2.12 2.26"/><path d="m3.88 27.56-1.57-.68.82-1.09 3.25.14zM27.51.9c.01-.51.34-.91.75-.9l33.03 1.17c.4.01.72.44.71.95-.01.5-.33.9-.73.9h-.02L28.22 1.85c-.4-.01-.72-.44-.71-.95M58.3 4.74q.17-.2.17-.48c0-.36-.28-.65-.61-.65l-26.22.67a.6.6 0 0 0-.43.2.7.7 0 0 0-.17.48c0 .36.28.65.61.65l26.22-.67q.24-.01.43-.2"/></svg>