<svg xmlns="http://www.w3.org/2000/svg" viewBox="0 0 55 50"><path d="M25.59 27.33c-3.19.06-6.64.82-9.83.36-.78-.11-1.27-1.14-1.61-1.14-1.39-.01-1.25.55-2.48.7-2.72.35-8.21.73-10.24 2.45-4.35 3.66 2.53 11.38 3.94 15.71 1 3.07 17.59 2.03 23.6 2.03 6.97 0 15.08-1.36 20.32-4.8 3.45-2.27 2.43-5.72 2.94-9.86.42-3.42-2.37-3.6-5.78-4.76-4.46-1.53-4.97-1.3-9.39-.34-4.06.88-8.5-1.69-11.47-.35" style="fill:#86c5d3"/><path d="M40 32.47c-.67 0-1.21.55-1.21 1.24s.54 1.24 1.21 1.24 1.21-.55 1.21-1.24-.54-1.24-1.21-1.24m0 1.98c-.4 0-.73-.33-.73-.74s.33-.74.73-.74.73.33.73.74-.33.74-.73.74M9.09 32.59c-.53 0-.97.44-.97.99s.43.99.97.99.97-.44.97-.99-.43-.99-.97-.99m0 1.48c-.27 0-.48-.22-.48-.49s.22-.49.48-.49.48.22.48.49-.22.49-.48.49m45.4-10.31a.96.96 0 0 0-1.31.4 6 6 0 0 1-5.3 2.99A6.3 6.3 0 0 1 44.22 26l1.57-6.84 2.74 3.88a.96.96 0 0 0 1.36.22 1 1 0 0 0 .22-1.38L34.64 0 11.18 12.44a1 1 0 0 0-.41 1.33c.25.49.83.67 1.31.42l4.16-2.21-3.55 15.17a6 6 0 0 1-5.25-2.98.96.96 0 0 0-1.31-.4 1 1 0 0 0-.39 1.34 7.9 7.9 0 0 0 7.01 4.03c2.29 0 4.39-.89 5.86-2.43 1.46 1.54 3.57 2.43 5.86 2.43s4.39-.89 5.86-2.43c1.46 1.54 3.57 2.43 5.86 2.43s4.39-.89 5.86-2.43a8 8 0 0 0 5.86 2.43 7.9 7.9 0 0 0 7.01-4.03 1 1 0 0 0-.39-1.34Zm-23.38.82-.8-1.22-.8 1.22a6 6 0 0 1-4.88 2.56l1.52-6.77 7.08 1.72-.9 3.77q-.73-.55-1.22-1.29Zm10.91-1.22-.8 1.22a6 6 0 0 1-5.05 2.57 6.5 6.5 0 0 1-2.97-.72l1.21-5.06-8.98-2.19-1.78 7.92a6 6 0 0 1-4.24-2.51l-.8-1.22-.8 1.22a5.7 5.7 0 0 1-3.04 2.24l3.76-16.05 15.52-8.24 10.23 14.51-1.66 7.25-.61-.92ZM12.24 42.41c-.89 0-1.61.74-1.61 1.65s.72 1.65 1.61 1.65 1.61-.74 1.61-1.65-.72-1.65-1.61-1.65m0 2.8c-.62 0-1.13-.52-1.13-1.15s.51-1.15 1.13-1.15 1.13.52 1.13 1.15-.51 1.15-1.13 1.15m4.27-10.55c-.89 0-1.61.74-1.61 1.65s.72 1.65 1.61 1.65 1.61-.74 1.61-1.65-.72-1.65-1.61-1.65m0 2.8c-.62 0-1.13-.52-1.13-1.15s.51-1.15 1.13-1.15 1.13.52 1.13 1.15-.51 1.15-1.13 1.15m27.8 2.06c-1.25 0-2.26 1.04-2.26 2.31s1.01 2.31 2.26 2.31 2.26-1.04 2.26-2.31-1.01-2.31-2.26-2.31m0 4.12c-.98 0-1.78-.81-1.78-1.81s.8-1.81 1.78-1.81 1.78.81 1.78 1.81-.8 1.81-1.78 1.81m-9.88-4.38c-.53 0-.97.44-.97.99s.43.99.97.99.97-.44.97-.99-.43-.99-.97-.99m0 1.48c-.27 0-.48-.22-.48-.49s.22-.49.48-.49.48.22.48.49-.22.49-.48.49m-5.25-7.87c-.89 0-1.61.74-1.61 1.65s.72 1.65 1.61 1.65 1.61-.74 1.61-1.65-.72-1.65-1.61-1.65m0 2.8c-.62 0-1.13-.52-1.13-1.15s.51-1.15 1.13-1.15 1.13.52 1.13 1.15-.51 1.15-1.13 1.15m-6.37 5.56c-.53 0-.97.44-.97.99s.43.99.97.99.97-.44.97-.99-.43-.99-.97-.99m0 1.48c-.27 0-.48-.22-.48-.49s.22-.49.48-.49.48.22.48.49-.22.49-.48.49m6.37 3.96c-.89 0-1.61.74-1.61 1.65s.72 1.65 1.61 1.65 1.61-.74 1.61-1.65-.72-1.65-1.61-1.65m0 2.8c-.62 0-1.13-.52-1.13-1.15s.51-1.15 1.13-1.15 1.13.52 1.13 1.15-.51 1.15-1.13 1.15M50 34.55c-.53 0-.97.44-.97.99s.43.99.97.99.97-.44.97-.99-.43-.99-.97-.99m0 1.48c-.27 0-.48-.22-.48-.49s.22-.49.48-.49.48.22.48.49-.22.49-.48.49"/></svg>