<svg xmlns="http://www.w3.org/2000/svg" viewBox="0 0 47 50"><path d="M27.12 10.04c-4.28 0-6.67 1.13-8.81 4.84-1.42 2.45-.51 6.84 1.3 8.9 2.32 2.65 6.88 3.64 9.81 1.81 2.19-1.36 3.18-4.1 3.04-6.81a10 10 0 0 0-1.82-5.34c-.6-.92-1.82-3.07-3.51-3.41Z" style="fill:#d3bd36"/><path d="M46.09 29.47h-6.87V13.76l2.91 2.52c.36.32.97.27 1.28-.09a.9.9 0 0 0-.09-1.29L26.16 0 9.01 14.9c-.38.33-.42.91-.09 1.29s.9.42 1.28.09l2.9-2.52v15.71H.91c-.5 0-.91.41-.91.91s.41.91.91.91h45.18c.5 0 .91-.41.91-.91s-.41-.91-.91-.91m-8.68-.11H14.92V12.18l11.24-9.77 11.25 9.77z"/><path d="M16.7 18.55c0 2.55.98 4.94 2.76 6.74a9.3 9.3 0 0 0 6.68 2.79h.02a9.4 9.4 0 0 0 6.69-2.78 9.5 9.5 0 0 0 2.78-6.73c0-2.54-.98-4.93-2.77-6.73a9.4 9.4 0 0 0-6.69-2.79 9.5 9.5 0 0 0-9.48 9.5Zm9.47-8.08a8.1 8.1 0 0 1 5.69 13.83 8 8 0 0 1-5.69 2.36h-.02a8.09 8.09 0 0 1 .02-16.2Z"/><path d="M28.37 18.61c.17.04 4.64.04 4.82 0l.01-.09q0-.41-.05-.83a7 7 0 0 0-1.72-3.79 7 7 0 0 0-1.15-1.04l-.54-.36-2.46 4.19a2.3 2.3 0 0 1 1.09 1.91Zm-9.22.02h4.73q.09 0 .1-.1l.01-.23q.16-.96.95-1.52l.1-.08-.03-.06-1.04-1.78-1.31-2.23-.09-.11a7 7 0 0 0-3.42 6.1Zm5.91 1.92c-.26.38-2.36 4.06-2.4 4.21a6.9 6.9 0 0 0 6.96.02l-2.37-4.22q-1.11.56-2.19 0Zm1.1-.82a1.16 1.16 0 1 0-.01-2.33 1.17 1.17 0 0 0 .01 2.33m8.32 14.3c-.7 0-1.27.57-1.27 1.28s.57 1.28 1.27 1.28 1.27-.57 1.27-1.28-.57-1.28-1.27-1.28m0 2.2c-.51 0-.92-.42-.92-.93s.41-.93.92-.93.92.42.92.93-.41.93-.92.93"/><path d="M34.48 34.47c-.46 0-.83.38-.83.84s.37.84.83.84.83-.38.83-.84-.37-.84-.83-.84m0 1.32c-.27 0-.48-.22-.48-.49s.22-.49.48-.49.48.22.48.49-.22.49-.48.49m-28-1.65c-.58 0-1.05.47-1.05 1.06a1.05 1.05 0 1 0 2.1 0c0-.59-.47-1.06-1.05-1.06m0 1.76c-.39 0-.7-.32-.7-.71s.31-.71.7-.71.7.32.7.71-.31.71-.7.71"/><path d="M6.48 34.58a.62.62 0 0 0 0 1.24.62.62 0 0 0 0-1.24m0 .88c-.14 0-.26-.12-.26-.26s.12-.26.26-.26.26.12.26.26-.12.26-.26.26m2.85 7.42a1.65 1.65 0 0 0 0 3.3 1.65 1.65 0 0 0 0-3.3m0 2.94a1.3 1.3 0 0 1 0-2.58 1.3 1.3 0 0 1 0 2.58"/><path d="M9.33 43.32c-.66 0-1.2.54-1.2 1.21s.54 1.21 1.2 1.21 1.2-.54 1.2-1.21-.54-1.21-1.2-1.21m0 2.06a.85.85 0 1 1 0-1.7.85.85 0 0 1 0 1.7m3.87-9.4a1.65 1.65 0 0 0 0 3.3 1.65 1.65 0 0 0 0-3.3m0 2.94a1.3 1.3 0 0 1 0-2.58 1.3 1.3 0 0 1 0 2.58"/><path d="M13.2 36.42c-.66 0-1.2.54-1.2 1.21s.54 1.21 1.2 1.21 1.2-.54 1.2-1.21-.54-1.21-1.2-1.21m0 2.06a.85.85 0 1 1 0-1.7.85.85 0 0 1 0 1.7m25.18 1.83a2.23 2.23 0 0 0 0 4.46 2.23 2.23 0 0 0 0-4.46m0 4.12a1.88 1.88 0 0 1 0-3.76 1.88 1.88 0 0 1 0 3.76"/><path d="M38.38 40.75a1.79 1.79 0 0 0 0 3.58 1.79 1.79 0 0 0 0-3.58m0 3.23a1.44 1.44 0 0 1 0-2.88 1.44 1.44 0 0 1 0 2.88m-8.95-3.89c-.58 0-1.05.47-1.05 1.06a1.05 1.05 0 1 0 2.1 0c0-.59-.47-1.06-1.05-1.06m0 1.76c-.39 0-.7-.32-.7-.71s.31-.71.7-.71.7.32.7.71-.31.71-.7.71"/><path d="M29.43 40.53a.62.62 0 0 0 0 1.24.62.62 0 0 0 0-1.24m0 .88c-.14 0-.26-.12-.26-.26s.12-.26.26-.26.26.12.26.26-.12.26-.26.26m-4.75-7.01a1.65 1.65 0 0 0 0 3.3 1.65 1.65 0 0 0 0-3.3m0 2.94a1.3 1.3 0 0 1 0-2.58 1.3 1.3 0 0 1 0 2.58"/><path d="M24.68 34.84c-.66 0-1.2.54-1.2 1.21s.54 1.21 1.2 1.21 1.2-.54 1.2-1.21-.54-1.21-1.2-1.21m0 2.06a.85.85 0 1 1 0-1.7.85.85 0 0 1 0 1.7m-5.77 4.95c-.58 0-1.05.47-1.05 1.06a1.05 1.05 0 1 0 2.1 0c0-.59-.47-1.06-1.05-1.06m0 1.76c-.39 0-.7-.32-.7-.71s.31-.71.7-.71.7.32.7.71-.31.71-.7.71"/><path d="M18.91 42.29a.62.62 0 0 0 0 1.24.62.62 0 0 0 0-1.24m0 .88c-.14 0-.26-.12-.26-.26s.12-.26.26-.26.26.12.26.26-.12.26-.26.26m5.77 3.54a1.65 1.65 0 0 0 0 3.3 1.65 1.65 0 0 0 0-3.3m0 2.94a1.3 1.3 0 0 1 0-2.58 1.3 1.3 0 0 1 0 2.58"/><path d="M24.68 47.15c-.66 0-1.2.54-1.2 1.21s.54 1.21 1.2 1.21 1.2-.54 1.2-1.21-.54-1.21-1.2-1.21m0 2.06a.85.85 0 1 1 0-1.7.85.85 0 0 1 0 1.7M43.54 35.9c-.58 0-1.05.47-1.05 1.06a1.05 1.05 0 1 0 2.1 0c0-.59-.47-1.06-1.05-1.06m0 1.76c-.39 0-.7-.32-.7-.71s.31-.71.7-.71.7.32.7.71-.31.71-.7.71"/><path d="M43.54 36.35a.62.62 0 0 0 0 1.24.62.62 0 0 0 0-1.24m0 .88c-.14 0-.26-.12-.26-.26s.12-.26.26-.26.26.12.26.26-.12.26-.26.26"/></svg>