<svg xmlns="http://www.w3.org/2000/svg" width="79" height="10" fill="none"><path fill="#000" d="M2.53 2.55 4.04 9.1h1.73l1.5-6.55V9.1h1.72V.7H6.4L4.9 7.38 3.39.68H.8V9.1h1.73zm10.7.22c-1.8 0-2.89 1.3-2.89 3.38 0 2 1.09 3.22 2.85 3.22 1.4 0 2.53-.8 2.89-2.02h-1.6c-.2.5-.64.79-1.23.79-1.09 0-1.26-.8-1.3-1.64h4.18l.02-.28c0-2.76-1.68-3.45-2.92-3.45m1.23 2.65h-2.48Q12.13 4.01 13.2 4c.75 0 1.2.51 1.26 1.42m4.07 1.87h-1.58c.04 1.36 1.05 2.08 2.94 2.08 2.18 0 2.72-1.25 2.72-2.11q0-1.21-1.22-1.57l-2.04-.6c-.46-.13-.57-.22-.57-.48 0-.34.37-.57.93-.57q1.16 0 1.17.84h1.56c-.03-1.32-1.04-2.11-2.71-2.11-1.58 0-2.57.8-2.57 2.08 0 1.22 1 1.42 1.37 1.53l1.92.6c.4.13.55.25.55.51 0 .38-.45.61-1.2.61-1.02 0-1.18-.38-1.27-.8"/><path fill="#065F46" d="m28.66 7.4.55 1.7H31L28.09.7h-1.92l-3 8.4h1.77l.57-1.7zm-.48-1.44H26l1.1-3.28zm5.3-3.09h-1.61V9.1h1.62zm0-2.18h-1.61v1.44h1.62zm3.9 8.68a1.9 1.9 0 0 0 1.71-.9v.63h1.62V.7H39.1v2.98c-.4-.62-.94-.91-1.71-.91-1.5 0-2.62 1.43-2.62 3.31 0 1.82 1.05 3.29 2.62 3.29m.35-5.25c.82 0 1.36.8 1.36 1.98 0 1.13-.55 1.92-1.36 1.92-.8 0-1.36-.8-1.36-1.94 0-1.15.55-1.96 1.36-1.96m7.09-1.35c-1.79 0-2.88 1.3-2.88 3.38 0 2 1.08 3.22 2.85 3.22 1.4 0 2.53-.8 2.88-2.02h-1.6c-.19.5-.64.79-1.23.79-1.08 0-1.25-.8-1.29-1.64h4.18l.01-.28c0-2.76-1.67-3.45-2.92-3.45m1.24 2.65h-2.49Q43.73 4.01 44.8 4c.75 0 1.19.51 1.26 1.42m4.06 1.87h-1.58q.09 2.06 2.94 2.08c2.18 0 2.73-1.25 2.73-2.11q0-1.21-1.23-1.57l-2.04-.6c-.45-.13-.56-.22-.56-.48 0-.34.36-.57.93-.57q1.15 0 1.17.84h1.55c-.02-1.32-1.04-2.11-2.7-2.11-1.59 0-2.57.8-2.57 2.08 0 1.22 1 1.42 1.36 1.53l1.93.6c.4.13.54.25.54.51 0 .38-.45.61-1.2.61-1.01 0-1.18-.38-1.27-.8"/><path fill="#000" d="M59.2 9.1 62.07.7h-1.75L58.5 7.02 56.63.69h-1.74l2.84 8.41zM67.12.37h-1.45l-.81 1.73h.81zm-1.49 2.4c-1.78 0-2.88 1.3-2.88 3.38 0 2 1.09 3.22 2.85 3.22 1.4 0 2.53-.8 2.89-2.02h-1.6c-.2.5-.64.79-1.23.79-1.09 0-1.26-.8-1.3-1.64h4.18l.02-.28c0-2.76-1.68-3.45-2.92-3.45m1.23 2.65H64.4q.14-1.41 1.22-1.42c.75 0 1.2.51 1.26 1.42M71.38.7h-1.61v8.4h1.61zm4.3 2.08c-1.9 0-3.07 1.26-3.07 3.3s1.16 3.3 3.08 3.3c1.9 0 3.08-1.26 3.08-3.25 0-2.12-1.14-3.35-3.09-3.35m.01 1.3c.89 0 1.47.8 1.47 2.02 0 1.17-.6 1.98-1.47 1.98-.88 0-1.46-.81-1.46-2s.58-2 1.46-2"/></svg>