<svg xmlns="http://www.w3.org/2000/svg" width="156" height="156" fill="none"><g opacity=".5"><path fill="#DBBC78" d="M121.06 114.24a7.4 7.4 0 0 0 5.24.51q1.5-.39 2.84-1.17c.75-.42 1.56-1.35 2.43-1.2 2.06.37 4.06.74 6.17.49 2.28-.28 4.56-1.31 5.88-3.19a7 7 0 0 0 .71-1.3q.7-1.75.75-3.66c.08-1.73-.12-3.53-1.03-5s-2.65-2.52-4.37-2.21a4.2 4.2 0 0 0 .6-4.02 4.2 4.2 0 0 0-3.1-2.62 22 22 0 0 0-.47-4.36 7.4 7.4 0 0 0-2.11-3.79 6.2 6.2 0 0 0-5.87-1.16 7.6 7.6 0 0 0-4.5 4.1 10 10 0 0 0-.59 6.12 5.36 5.36 0 0 0-3.74 6.16 5.4 5.4 0 0 0 1.1 2.36q-.6.62-1.13 1.32a11 11 0 0 0-2.31 5.81c-.15 2.68 1.13 5.54 3.5 6.81"/><path fill="#CFAD65" d="M121.06 114.24a7.4 7.4 0 0 0 5.24.51q1.5-.39 2.84-1.17c.75-.42 1.56-1.35 2.43-1.2 2.06.37 4.06.74 6.17.49 2.28-.28 4.56-1.31 5.88-3.19q.43-.6.71-1.3a10.1 10.1 0 0 1-12.92-1.24 10.5 10.5 0 0 1-8.56-1.89 10 10 0 0 1-2.96-3.63c-1.3 1.7-2.19 3.7-2.32 5.82-.16 2.67 1.11 5.53 3.49 6.8"/><path fill="#C09A47" d="m126.4 102.94.03-.03h.05l.02.02.02.02v.05a4.5 4.5 0 0 0-.06 2.45q.15.57.45 1.09.3.5.72.9l.22.18q.1.1.23.17.23.15.49.26l.5.22.52.22.73.26.05-1.38.06-2.2v-2.21q-.01-4.42-.34-8.86l.03-.11a.2.2 0 0 1 .16-.07.2.2 0 0 1 .11.06l.03.06a76 76 0 0 1 1.35 6.58l.08-.08a2 2 0 0 1 .46-.33q.26-.12.48-.31.21-.18.38-.4.18-.24.31-.5a2.3 2.3 0 0 0 .25-1.2v-.03l.03-.03a.1.1 0 0 1 .1.03q.35.66.27 1.4a3 3 0 0 1-.17.73q-.13.36-.34.68l-.44.63a2 2 0 0 1-.6.45q-.3.13-.63.17l.15 1 .26 2.23.24 2.27.14 2.25.09 2.25q0 1.12.07 2.26l.04 2.26q0 1.14-.09 2.26a21 21 0 0 1-.31 2.25l-.22 1.1-.25 1.11a47 47 0 0 1-.63 2.19 29 29 0 0 1-.78 2.14q-.46 1.07-1.02 2.08a.2.2 0 0 1-.13.09.2.2 0 0 1-.13-.04.2.2 0 0 1-.07-.12 23 23 0 0 1-.16-2.28 50 50 0 0 1-.04-2.24q0-1.11.03-2.21 0-.56.03-1.1l.05-1.1q.04-1.09.15-2.18c.11-1.09.15-1.45.26-2.18l.3-2.19q.12-1.08.21-2.18l.12-1.9a5 5 0 0 1-1.05-.09 3 3 0 0 1-1.34-.59 6 6 0 0 1-1.04-1.02 5 5 0 0 1-.73-1.23 5 5 0 0 1-.3-1.38 4.5 4.5 0 0 1 .6-2.6"/><path fill="#fff" d="M135.72 94.06c0 .7.37 1.24.83 1.24s.84-.56.84-1.24c0-.7-.37-1.25-.84-1.25s-.83.55-.83 1.25m-6-4.83c.46 0 .83-.56.83-1.25 0-.7-.37-1.26-.83-1.26s-.83.56-.83 1.26c0 .69.37 1.25.83 1.25m3.65-2.1c.26 0 .47-.31.47-.7s-.2-.72-.47-.72-.47.32-.47.71c0 .4.2.72.47.72m-4.48 5.06c0 .39.2.71.47.71s.47-.31.47-.71-.21-.72-.47-.72-.47.32-.47.72m5.63-2.27c0 .27.14.5.3.5.17 0 .32-.23.32-.5s-.15-.49-.31-.49c-.17 0-.31.22-.31.5" opacity=".3" style="mix-blend-mode:overlay"/><path fill="#DBBC78" d="M138.92 128.2a2 2 0 0 0-1.76-.4 9 9 0 0 0 1.25-3.3c.12-1.18-.33-2.5-1.36-3.06-1.09-.63-2.54-.24-3.46.62a7 7 0 0 0-1.72 3.29 1.3 1.3 0 0 0-1.18-1.15 1.3 1.3 0 0 0-1.32.99 7 7 0 0 0-.92-1.95 2.3 2.3 0 0 0-1.83-1c-.86.04-1.6.74-1.87 1.55a4.7 4.7 0 0 0-.02 2.55 1.5 1.5 0 0 0-1.58-.6 7.5 7.5 0 0 0-.39-3.15c-.43-.97-1.41-1.8-2.48-1.67-1.06.13-1.75 1.05-2.15 2a6.6 6.6 0 0 0-.03 4.88 2 2 0 0 0-2.3 0 1.9 1.9 0 0 0-.67 2.12h24.62a2.3 2.3 0 0 0-.84-1.72"/><path fill="#DBBC78" d="M136 129.03a1 1 0 0 0-.9-.2 5 5 0 0 0 .64-1.7 1.6 1.6 0 0 0-.7-1.56 1.6 1.6 0 0 0-1.78.3 3.5 3.5 0 0 0-.89 1.7.65.65 0 0 0-.6-.6.65.65 0 0 0-.68.52 4 4 0 0 0-.47-1 1.2 1.2 0 0 0-.94-.51 1.1 1.1 0 0 0-.97.79 2.4 2.4 0 0 0 0 1.31.8.8 0 0 0-.81-.31 4 4 0 0 0-.2-1.62 1.3 1.3 0 0 0-1.27-.86c-.53.06-.91.54-1.11 1.02a3.4 3.4 0 0 0-.02 2.51 1 1 0 0 0-1.18 0 1 1 0 0 0-.35 1.1h12.67a1.2 1.2 0 0 0-.44-.89" style="mix-blend-mode:multiply"/><path fill="#DBBC78" d="M11.72 128.2a2 2 0 0 1 .83-.4q.46-.12.93 0a9 9 0 0 1-1.25-3.3c-.12-1.18.33-2.5 1.35-3.06 1.1-.63 2.55-.24 3.47.62s1.4 2.08 1.72 3.29a1.27 1.27 0 0 1 2.5-.16 7 7 0 0 1 .92-1.95 2.3 2.3 0 0 1 1.83-1c.87.03 1.6.73 1.88 1.55a4.7 4.7 0 0 1 .02 2.54 1.5 1.5 0 0 1 1.58-.59 7.5 7.5 0 0 1 .39-3.15c.42-.97 1.41-1.8 2.47-1.68s1.76 1.05 2.15 2a6.6 6.6 0 0 1 .04 4.88 2 2 0 0 1 2.3 0 1.9 1.9 0 0 1 .67 2.12H10.9a2.3 2.3 0 0 1 .82-1.71"/><path fill="#DBBC78" d="M14.64 129.03a1 1 0 0 1 .9-.2 5 5 0 0 1-.63-1.7 1.6 1.6 0 0 1 .7-1.56 1.6 1.6 0 0 1 1.78.3 3.5 3.5 0 0 1 .89 1.7.65.65 0 0 1 1.29-.08 4 4 0 0 1 .47-1 1.2 1.2 0 0 1 .93-.51 1.1 1.1 0 0 1 .97.79 2.4 2.4 0 0 1 0 1.31.8.8 0 0 1 .81-.31 4 4 0 0 1 .2-1.62 1.3 1.3 0 0 1 1.28-.86c.52.06.9.54 1.1 1.02.33.8.34 1.7.02 2.51a1 1 0 0 1 1.19 0 .95.95 0 0 1 .34 1.1H14.2a1.2 1.2 0 0 1 .43-.89" style="mix-blend-mode:multiply"/><path fill="#DBBC78" d="M46.94 112.44c-1.63 1.97-4.25 2.92-6.8 3.06a21 21 0 0 1-6.32-.83c-.37-.1-.9-.38-1.3-.37s-.97.35-1.37.5a29 29 0 0 1-2.95.98 16 16 0 0 1-3.35.54 10 10 0 0 1-5.9-1.48 6.9 6.9 0 0 1 3.16-12.67 11.27 11.27 0 0 1 5.78-18.85 11.26 11.26 0 0 1 12.88 14.94c1.02-.48 2.31-.6 3.2.1.88.7.9 2.35-.12 2.8q.7.26 1.31.63a7.1 7.1 0 0 1 3.19 7.96 7 7 0 0 1-1.4 2.7z"/><path fill="#CFAD65" d="M46.94 112.44c-1.63 1.97-4.25 2.93-6.8 3.06-2.14.1-4.26-.3-6.32-.83-.37-.1-.9-.38-1.3-.37-.38 0-.97.35-1.37.5q-1.45.57-2.95.98a16 16 0 0 1-3.35.54c-2.05.1-4.2-.36-5.9-1.48a22 22 0 0 0 4.17-.23c3.62-.57 7.22-2.39 9.05-5.56 2.06.2 4.14.38 6.19.06a9 9 0 0 0 5.44-2.72 6 6 0 0 0 1.5-3.52 6 6 0 0 0-.14-1.09 7.1 7.1 0 0 1 3.19 7.95 7 7 0 0 1-1.4 2.7z"/><path fill="#C09A47" d="m36.72 104.47-.07-.02-.04.03v.04a4 4 0 0 1 .05 2.23 4 4 0 0 1-.41 1 4 4 0 0 1-.65.81l-.2.17a3 3 0 0 1-.66.4l-.46.2-.47.2-.66.23-.05-1.26-.06-2v-2.02q.02-4.02.32-8.06a.15.15 0 0 0-.12-.16.15.15 0 0 0-.18.11 68 68 0 0 0-1.23 6l-.08-.08a2 2 0 0 0-.42-.32 2 2 0 0 1-.44-.26 2 2 0 0 1-.35-.37 2 2 0 0 1-.28-.45 2 2 0 0 1-.22-1.08l-.04-.06h-.07l-.01.02a2 2 0 0 0-.25 1.28q.04.34.15.66.12.33.32.63.18.3.4.57t.54.41q.27.12.57.15l-.14.92-.24 2.03-.2 2.04-.12 2.05-.08 2.05-.06 2.06-.05 2.06q0 1.03.09 2.06.09 1.02.27 2.04l.2 1.01.23 1q.26 1 .56 2c.3 1 .46 1.3.72 1.95q.42.97.94 1.9l.05.04a.2.2 0 0 0 .13.03.2.2 0 0 0 .12-.14q.12-1.04.15-2.08.04-1.03.03-2.04 0-1.01-.02-2.01 0-.5-.03-1l-.05-1a30 30 0 0 0-.13-1.99 47 47 0 0 0-.24-1.97l-.27-1.98-.2-1.99-.1-1.73q.47.01.93-.08.67-.14 1.22-.53a5 5 0 0 0 .94-.94q.41-.52.66-1.12.24-.6.29-1.25a4 4 0 0 0-.53-2.39"/><path fill="#fff" d="M26.12 94.45c0 1-.62 1.8-1.39 1.8s-1.4-.8-1.4-1.8.63-1.8 1.4-1.8 1.4.8 1.4 1.8m2.15-5.95c.5 0 .92-.53.92-1.19s-.41-1.18-.92-1.18-.91.53-.91 1.18c0 .66.4 1.19.91 1.19m2.46 1.8a.51.51 0 1 1-.5-.63.6.6 0 0 1 .5.64m-7.48 7.26a.51.51 0 1 1-.48-.64.6.6 0 0 1 .48.64m.7-7.9a.28.28 0 0 1-.54-.05.3.3 0 0 1 .28-.3.3.3 0 0 1 .27.35m6.4-2.35c.3 0 .55-.32.55-.72s-.24-.71-.55-.71c-.3 0-.55.32-.55.71 0 .4.25.72.55.72" opacity=".3" style="mix-blend-mode:overlay"/><path fill="#DBBC78" d="M115.7 34.09H35.84v17.26h79.84z"/><path fill="#DBBC78" d="M115.7 34.09H35.84v1.43h79.84z" style="mix-blend-mode:multiply"/><path fill="#DBBC78" d="M115.12 28.24h-78.7v4.05h78.7z"/><path fill="#DBBC78" d="M115.12 28.24h-78.7V29h78.7z" style="mix-blend-mode:multiply"/><path fill="#B48F4B" d="M116.66 31.46H34.88a.4.4 0 0 0-.42.43v2.37c0 .23.19.42.42.42h81.78c.23 0 .42-.19.42-.42v-2.37a.4.4 0 0 0-.42-.43m.03-6.37H34.85a.4.4 0 0 0-.4.39v2.44c0 .21.18.39.4.39h81.84a.4.4 0 0 0 .4-.4v-2.43a.4.4 0 0 0-.4-.4"/><path fill="#DBBC78" d="M115.69 73.18H37.35v56.72h78.34z"/><path fill="#C7A355" d="M116.24 121.38H36.8a.46.46 0 0 0-.46.46v7.6c0 .25.2.46.46.46h79.44a.46.46 0 0 0 .46-.46v-7.6a.46.46 0 0 0-.46-.46"/><path fill="#D2C29F" d="M115.69 73.18v7.34h-.2a3.3 3.3 0 0 1-3.07-2.06 3 3 0 0 1-.25-1.27 3.3 3.3 0 0 1-3.32 3.33h-.9a3.3 3.3 0 0 1-3.32-3.33 3.3 3.3 0 0 1-3.31 3.33h-.9a3.3 3.3 0 0 1-3.33-3.33 3.3 3.3 0 0 1-3.31 3.33h-.9a3.3 3.3 0 0 1-3.31-3.33 3.3 3.3 0 0 1-3.32 3.33h-.9a3.3 3.3 0 0 1-3.32-3.33 3.3 3.3 0 0 1-3.31 3.33h-.9a3.3 3.3 0 0 1-3.32-3.33 3.3 3.3 0 0 1-3.32 3.33h-.9a3.3 3.3 0 0 1-3.32-3.33 3.3 3.3 0 0 1-3.31 3.33h-.9a3.3 3.3 0 0 1-3.32-3.33 3.3 3.3 0 0 1-3.31 3.33h-.9a3.3 3.3 0 0 1-3.31-3.33 3.3 3.3 0 0 1-3.32 3.33h-.9a3.3 3.3 0 0 1-3.32-3.33 3.3 3.3 0 0 1-3.31 3.33h-.9a3.3 3.3 0 0 1-2.81-1.54v-5.8z" style="mix-blend-mode:multiply"/><path fill="#E09764" d="M61.01 84.3H41.33v40.25h19.68z"/><path fill="#F2F1D0" d="M59.94 85.37H42.4v38.11h17.54z"/><path fill="#fff" d="M59.94 85.37v1.54l-10.15 36.57h-3.72l10.59-38.11z" opacity=".5" style="mix-blend-mode:overlay"/><path fill="#E09764" d="M59.94 104.81h-2.72a.4.4 0 0 1-.35-.54.4.4 0 0 1 .2-.2l.15-.03h2.72zm51.77-20.52H63.94v26.13h47.77z"/><path fill="#F2F1D0" d="M110.46 85.36H65.19v23.98h45.27z"/><path fill="#fff" d="m83.35 85.36-6.3 23.98h-2.03l6.29-23.98zm17.2 0-6.3 23.98h-2.04l6.3-23.98z" opacity=".5" style="mix-blend-mode:overlay"/><path fill="#B55134" d="M64.05 127.1H38.3v2.8h25.76z"/><path fill="#CE6F54" d="M64.05 127.1H38.3l1.14-.67h23.48z"/><path fill="#B55134" d="M62.17 124.85h-22v1.58h22z"/><path fill="#CE6F54" d="M62.17 124.85h-22l.98-.38h20.04z"/><path fill="#F2F1D0" d="M36.1 71.83h-7.35l3.67-19.7h6.79z"/><path fill="#CE6F54" d="M43.45 71.83H36.1l3.1-19.7H46z"/><path fill="#F2F1D0" d="M50.8 71.83h-7.35l2.54-19.7h6.78z"/><path fill="#CE6F54" d="M58.15 71.83H50.8l1.98-19.7h6.78z"/><path fill="#F2F1D0" d="M65.5 71.83h-7.35l1.41-19.7h6.78z"/><path fill="#CE6F54" d="M72.85 71.83H65.5l.84-19.7h6.79z"/><path fill="#F2F1D0" d="M80.2 71.83h-7.35l.28-19.7h6.78z"/><path fill="#CE6F54" d="M87.54 71.83H80.2l-.29-19.7h6.78z"/><path fill="#F2F1D0" d="M94.9 71.83h-7.36l-.85-19.7h6.8z"/><path fill="#CE6F54" d="M102.24 71.83H94.9l-1.42-19.7h6.78z"/><path fill="#F2F1D0" d="M109.6 71.83h-7.36l-1.98-19.7h6.79z"/><path fill="#CE6F54" d="M116.94 71.83h-7.35l-2.54-19.7h6.78z"/><path fill="#F2F1D0" d="M124.3 71.83h-7.36l-3.1-19.7h6.78z"/><path fill="#E5D995" d="M28.75 71.83h7.35v3.07a3.1 3.1 0 0 1-3.12 3.12h-1.1a3.1 3.1 0 0 1-3.11-3.12v-3.07z"/><path fill="#B55134" d="M36.1 71.83h7.35v3.07a3.1 3.1 0 0 1-3.12 3.12h-1.1a3.1 3.1 0 0 1-3.11-3.12v-3.07z"/><path fill="#E5D995" d="M43.45 71.83h7.35v3.07a3.1 3.1 0 0 1-3.12 3.12h-1.1a3.1 3.1 0 0 1-3.11-3.12v-3.07z"/><path fill="#B55134" d="M50.8 71.83h7.35v3.07a3.1 3.1 0 0 1-3.12 3.12h-1.1a3.1 3.1 0 0 1-3.11-3.12v-3.07z"/><path fill="#E5D995" d="M58.15 71.83h7.35v3.07a3.1 3.1 0 0 1-3.12 3.12h-1.1a3.1 3.1 0 0 1-3.11-3.12v-3.07z"/><path fill="#B55134" d="M65.5 71.83h7.35v3.07a3.1 3.1 0 0 1-3.12 3.12h-1.1a3.1 3.1 0 0 1-3.12-3.12z"/><path fill="#E5D995" d="M72.85 71.83h7.33v3.07a3.1 3.1 0 0 1-3.12 3.12h-1.09a3.1 3.1 0 0 1-3.12-3.12z"/><path fill="#B55134" d="M80.18 71.83h7.35v3.07a3.1 3.1 0 0 1-3.12 3.12h-1.09a3.1 3.1 0 0 1-3.12-3.12v-3.07z"/><path fill="#E5D995" d="M87.54 71.83h7.35v3.07a3.1 3.1 0 0 1-3.12 3.12h-1.09a3.1 3.1 0 0 1-3.12-3.12v-3.07z"/><path fill="#B55134" d="M94.9 71.83h7.34v3.07a3.1 3.1 0 0 1-3.12 3.12h-1.09a3.1 3.1 0 0 1-3.12-3.12z"/><path fill="#E5D995" d="M102.24 71.83h7.35v3.07a3.1 3.1 0 0 1-3.12 3.12h-1.09a3.1 3.1 0 0 1-3.12-3.12v-3.07zm14.7 0h7.35v3.07a3.1 3.1 0 0 1-3.12 3.12h-1.09a3.1 3.1 0 0 1-3.12-3.12v-3.07z"/><path fill="#B55134" d="M109.6 71.83h7.34v3.07a3.1 3.1 0 0 1-3.12 3.12h-1.09a3.1 3.1 0 0 1-3.12-3.12z"/><path fill="#F2F1D0" d="M124.3 71.83H28.74l.05-.28c15.48-.24 31.01-.7 46.18-3.8a116 116 0 0 0 15.84-4.36 88 88 0 0 0 21.8-11.24h8.01z" style="mix-blend-mode:multiply"/><path fill="#CE6F54" d="M120.65 52.48H32.39a.8.8 0 0 1-.8-.81.8.8 0 0 1 .8-.8h88.26a.8.8 0 0 1 .57 1.37.8.8 0 0 1-.57.23"/><path fill="#E09764" d="M113.5 37.52H38.93v10.4h74.55z"/><path fill="#F2F1D0" d="M112.42 38.47H40.01v8.5h72.41z"/><path fill="#F2F1D0" d="M40 38.47v.61h71.8v7.89h.62v-8.5z" style="mix-blend-mode:multiply"/><path fill="#fff" d="m77.36 38.47-4.3 8.5h-3.32l4.3-8.5zm14.76 0-4.29 8.5H86.3l4.29-8.5z" opacity=".5" style="mix-blend-mode:overlay"/><path fill="#DBBC78" d="M107.3 114.26h-6.4v2.25h6.4zm-5.33 3.53h-6.42v2.25h6.42zm-11.67-6.1h-6.42v2.27h6.42zM40.56 94.1h-3.21v2.26h3.2zm.77 13.3h-2.6v2.25h2.6zm74.36-26.34h-3.55v2.25h3.55z" style="mix-blend-mode:multiply"/><path fill="#F9A66A" d="M108.73 123.4h-3.46v1.25h3.46zm-11.45 2.45h-3.46v1.26h3.46zm-2.2-1.67h-3.45v1.25h3.46zm-6.05 1.85h-3.46v1.25h3.46zm-23.25-3.8h-3.45v1.25h3.45z" style="mix-blend-mode:multiply"/><path fill="#B55134" d="M28.2 110.35h-1.06V70.48a4 4 0 0 0-7.98 0v1.8H18.1v-1.8a5.05 5.05 0 0 1 10.1 0z"/><path fill="#CE6F54" d="M23.76 66.49h-.31a4 4 0 0 1 3.7 4v39.86h.62V70.48a4 4 0 0 0-4-3.99"/><path fill="#F9A66A" d="m22.62 74.6-.12.03h-7.76l-.12-.03a5.23 5.23 0 1 0 8 0"/><path fill="#fff" d="M16.97 80.2a2.4 2.4 0 0 1-1.32-1.14l.02.05a2 2 0 0 1-.1-.44l.02-.44a.5.5 0 0 0-.38-.52.54.54 0 0 0-.65.37 2.4 2.4 0 0 0 .52 2.04q.66.76 1.6 1.1a.5.5 0 0 0 .66-.37.55.55 0 0 0-.34-.62z" opacity=".3" style="mix-blend-mode:overlay"/><g style="mix-blend-mode:multiply"><path fill="#F2F1D0" d="m14.74 74.63-.12-.03-.02.03z"/><path fill="#F9A66A" d="m22.62 74.6-.12.03h-1.56a5.22 5.22 0 0 1-3.17 8.49 5.22 5.22 0 0 0 4.86-8.52z"/></g><path fill="#DBBC78" d="M21.31 73.56h-5.38A1.56 1.56 0 0 1 17.49 72h2.24a1.56 1.56 0 0 1 1.56 1.56z"/><path fill="#9AC3B1" d="M22.5 73h-7.76a.5.5 0 0 0-.52.53v.57a.5.5 0 0 0 .52.52h7.76a.5.5 0 0 0 .52-.52v-.57a.5.5 0 0 0-.52-.52"/><path fill="#CE6F54" d="M26.72 109.95h1.91a.16.16 0 0 1 .16.16v.45h-2.23v-.45a.16.16 0 0 1 .16-.16"/><path fill="#B55134" d="M27.02 110.4h1.3a1.4 1.4 0 0 1 1.42 1.42v17.66h-4.13v-17.66a1.4 1.4 0 0 1 1.4-1.41"/><path fill="#CE6F54" d="M28.33 110.4h-1.32a1.4 1.4 0 0 1 1.4 1.42v17.66h1.34v-17.66a1.4 1.4 0 0 0-1.42-1.41"/><path fill="#B55134" d="M31.1 129.22h-6.85a.34.34 0 0 0 0 .68h6.85a.34.34 0 0 0 0-.68"/><path fill="#D2B067" d="M122.16 120.03a2 2 0 0 1-.38.65 2 2 0 0 1-.9.34q-1.36.33-2.75.49a22 22 0 0 1-5.56-.09 2.3 2.3 0 0 1-1.1-.38c-.4-.3-.55-.85-.65-1.35a7 7 0 0 1-.12-.74 3 3 0 0 1 .05-.85 1.6 1.6 0 0 1 .96-1.2 1.37 1.37 0 0 1 .91-2.44 6 6 0 0 1 .24-2.5 3.2 3.2 0 0 1 1.59-1.89c1.1-.53 2.53-.14 3.35.77a4 4 0 0 1 .85 3.45 1 1 0 0 1 .75.43 1 1 0 0 1 .19.84q.38 0 .75.12a3 3 0 0 1 1.96 1.7 3.1 3.1 0 0 1-.14 2.65"/><path fill="#AA7729" d="M122.16 120.03a2 2 0 0 1-.38.65 2 2 0 0 1-.9.34q-1.36.33-2.75.49a22 22 0 0 1-5.56-.09 2.3 2.3 0 0 1-1.1-.38c-.4-.3-.55-.85-.65-1.35a7 7 0 0 1-.12-.74c2.62.05 5.22-.4 7.67-1.34a3.7 3.7 0 0 0 1.66-1.07q.29-.4.31-.87a3 3 0 0 1 1.96 1.7 3.2 3.2 0 0 1-.14 2.66"/><path fill="#F2F1D0" d="m122.18 121.47-.25 1.8-.96 6.75h-8.54l-.96-6.75-.25-1.8z"/><path fill="#F2F1D0" d="m122.18 121.47-.25 1.8h-10.45l-.26-1.8z" style="mix-blend-mode:multiply"/><path fill="#F2F1D0" d="M122.5 122.55h-11.6l-.3-2.93h12.2z"/><path fill="#fff" d="M114.79 113.16c0 .48-.27.87-.6.87s-.59-.39-.59-.87.27-.87.6-.87.58.4.58.87m1.19 1.03c0 .25-.14.45-.31.45s-.32-.2-.32-.45c0-.24.14-.44.32-.44s.3.2.3.44m-2.25.8c0 .24-.14.44-.32.44s-.3-.2-.3-.45c0-.24.13-.44.3-.44s.32.2.32.44m2.11-3.28c0 .12-.07.23-.16.23s-.16-.1-.16-.23.08-.23.16-.23.16.09.16.23" opacity=".3" style="mix-blend-mode:overlay"/><path fill="#D2B067" d="M36.39 118.72a7 7 0 0 1-.43 2.28c-.15.4-.34 1.05-.76 1.25-.55.26-1.3.29-1.88.37a26 26 0 0 1-4.36.25h-.32a4 4 0 0 1-2.12-.6l-.34-.32a5 5 0 0 1-.88-1.64 6 6 0 0 1-.3-1.18 3 3 0 0 1 .04-1.27c.21-.81.96-1.53 1.79-1.46a1.51 1.51 0 0 1 1.87-2.38 2.6 2.6 0 0 1 4.75-1.9 3.6 3.6 0 0 1 .3 2.74.74.74 0 0 1 .75 1.13q.44 0 .8.23.45.28.7.7.43.85.39 1.8"/><path fill="#CFAD65" d="M36.39 118.72a7 7 0 0 1-.43 2.28c-.15.4-.34 1.06-.76 1.25-.55.26-1.3.29-1.88.37q-2.17.31-4.36.25h-.32a8 8 0 0 1-2.43-.91 5 5 0 0 1-.88-1.64 6 6 0 0 1-.31-1.19c2.22.63 4.64.51 6.92.06.88-.17 1.77-.4 2.46-.97q.53-.43.76-1.08c.1-.28.06-.62.17-.91q.43.26.68.7.42.84.38 1.79" style="mix-blend-mode:multiply"/><path fill="#F2F1D0" d="m35.71 122.06-.23 1.65-.88 6.2h-7.85l-.88-6.2-.23-1.65z"/><path fill="#F2F1D0" d="m35.71 122.06-.23 1.65h-9.6l-.24-1.65z" style="mix-blend-mode:multiply"/><path fill="#F2F1D0" d="M36 123.05H25.36l-.29-2.7H36.3z"/><path fill="#fff" d="M30.7 114.42c0 .45-.24.8-.54.8s-.55-.35-.55-.8.25-.8.55-.8.54.36.54.8m1.09.95c0 .23-.12.41-.28.41s-.28-.18-.28-.4.13-.42.28-.42.28.19.28.41m-4.08.44c.22 0 .4-.26.4-.59s-.18-.58-.4-.58-.4.26-.4.58.18.6.4.6m2 .27c0 .23-.13.42-.28.42s-.28-.19-.28-.42.12-.4.28-.4.28.18.28.4m2-3.03c0 .16-.1.3-.2.3s-.2-.14-.2-.3.09-.28.2-.28.2.13.2.28" opacity=".3" style="mix-blend-mode:overlay"/></g></svg>